<svg width="960" height="630" viewBox="0 0 960 630" fill="none" xmlns="http://www.w3.org/2000/svg">
<rect x="320" width="150" height="200" rx="8" fill="url(#paint0_linear_1058_152219)"/>
<path d="M348.896 175.504V172.224H351.264V176.768C350.032 177.696 348.336 178.192 346.736 178.192C343.216 178.192 340.624 175.776 340.624 172.4C340.624 169.024 343.216 166.608 346.784 166.608C348.752 166.608 350.384 167.28 351.472 168.544L349.808 170.08C348.992 169.216 348.048 168.816 346.912 168.816C344.736 168.816 343.248 170.272 343.248 172.4C343.248 174.496 344.736 175.984 346.88 175.984C347.584 175.984 348.24 175.856 348.896 175.504ZM355.88 170.528C356.488 169.696 357.512 169.264 358.84 169.264V171.568C358.632 171.552 358.472 171.536 358.28 171.536C356.904 171.536 355.992 172.288 355.992 173.936V178H353.496V169.392H355.88V170.528ZM363.749 169.264C366.373 169.264 367.893 170.48 367.893 173.088V178H365.557V176.928C365.093 177.712 364.197 178.128 362.933 178.128C360.917 178.128 359.717 177.008 359.717 175.52C359.717 174 360.789 172.944 363.413 172.944H365.397C365.397 171.872 364.757 171.248 363.413 171.248C362.501 171.248 361.557 171.552 360.933 172.048L360.037 170.304C360.981 169.632 362.373 169.264 363.749 169.264ZM363.557 176.448C364.389 176.448 365.109 176.064 365.397 175.28V174.4H363.685C362.517 174.4 362.149 174.832 362.149 175.408C362.149 176.032 362.677 176.448 363.557 176.448ZM378.955 178.192C376.203 178.192 374.155 176.096 374.155 172.4C374.155 168.704 376.203 166.608 378.955 166.608C381.723 166.608 383.755 168.704 383.755 172.4C383.755 176.096 381.723 178.192 378.955 178.192ZM378.955 176C380.251 176 381.147 174.944 381.147 172.4C381.147 169.856 380.251 168.8 378.955 168.8C377.675 168.8 376.779 169.856 376.779 172.4C376.779 174.944 377.675 176 378.955 176ZM384.409 166.8H389.241V178H386.649V168.88H384.409V166.8Z" fill="white"/>
<rect x="470" y="308" width="150" height="150" rx="8" fill="#F1F3F5"/>
<path d="M498.896 429.104L498.576 431.696H500.656V433.44H498.368L498.048 436H496.24L496.56 433.44H494.208L493.888 436H492.096L492.416 433.44H490.32V431.696H492.624L492.96 429.104H490.864V427.36H493.168L493.488 424.8H495.28L494.96 427.36H497.312L497.632 424.8H499.424L499.104 427.36H501.184L501.2 429.104H498.896ZM494.416 431.696H496.768L497.104 429.104H494.752L494.416 431.696ZM511.308 426.88H505.436V429.84H510.62V431.92H505.436V436H502.844V424.8H511.308V426.88ZM515.98 429.008C519.292 429.008 520.604 430.496 520.604 432.48C520.604 434.464 519.148 436.192 515.948 436.192C514.396 436.192 512.764 435.76 511.676 434.992L512.7 433.008C513.548 433.648 514.716 434.016 515.884 434.016C517.18 434.016 517.98 433.472 517.98 432.56C517.98 431.68 517.404 431.104 515.372 431.104H512.508L513.084 424.8H519.916V426.88H515.244L515.068 429.008H515.98ZM530.823 426.88H524.951V429.84H530.135V431.92H524.951V436H522.359V424.8H530.823V426.88ZM537.079 428.976C539.239 428.976 540.935 430.352 540.935 432.464C540.935 434.752 539.062 436.192 536.695 436.192C533.607 436.192 531.687 434.256 531.687 430.64C531.687 426.768 534.023 424.608 537.399 424.608C538.583 424.608 539.735 424.88 540.519 425.376L539.559 427.28C538.935 426.864 538.215 426.72 537.463 426.72C535.591 426.72 534.391 427.824 534.311 429.968C534.967 429.312 535.911 428.976 537.079 428.976ZM536.551 434.256C537.655 434.256 538.423 433.616 538.423 432.592C538.423 431.568 537.671 430.912 536.519 430.912C535.383 430.912 534.583 431.616 534.583 432.592C534.583 433.552 535.303 434.256 536.551 434.256ZM551.042 426.88H545.17V429.84H550.354V431.92H545.17V436H542.578V424.8H551.042V426.88ZM560.696 436L559.704 433.6H554.504L553.512 436H550.856L555.848 424.8H558.408L563.416 436H560.696ZM555.336 431.632H558.888L557.112 427.344L555.336 431.632Z" fill="#414651"/>
<rect x="160" y="308" width="150" height="150" rx="8" fill="#A5D1EF"/>
<path d="M188.896 429.104L188.576 431.696H190.656V433.44H188.368L188.048 436H186.24L186.56 433.44H184.208L183.888 436H182.096L182.416 433.44H180.32V431.696H182.624L182.96 429.104H180.864V427.36H183.168L183.488 424.8H185.28L184.96 427.36H187.312L187.632 424.8H189.424L189.104 427.36H191.184L191.2 429.104H188.896ZM184.416 431.696H186.768L187.104 429.104H184.752L184.416 431.696ZM201.212 436L200.22 433.6H195.02L194.028 436H191.372L196.364 424.8H198.924L203.932 436H201.212ZM195.852 431.632H199.404L197.628 427.344L195.852 431.632ZM208.23 429.008C211.542 429.008 212.854 430.496 212.854 432.48C212.854 434.464 211.398 436.192 208.198 436.192C206.646 436.192 205.014 435.76 203.926 434.992L204.95 433.008C205.798 433.648 206.966 434.016 208.134 434.016C209.43 434.016 210.23 433.472 210.23 432.56C210.23 431.68 209.654 431.104 207.622 431.104H204.758L205.334 424.8H212.166V426.88H207.494L207.318 429.008H208.23ZM214.609 436V424.8H219.697C223.361 424.8 225.873 427.008 225.873 430.4C225.873 433.792 223.361 436 219.697 436H214.609ZM217.201 433.872H219.569C221.793 433.872 223.249 432.544 223.249 430.4C223.249 428.256 221.793 426.928 219.569 426.928H217.201V433.872ZM226.456 424.8H231.288V436H228.696V426.88H226.456V424.8ZM236.513 433.92H242.609V436H233.937V424.8H242.401V426.88H236.513V429.312H241.713V431.328H236.513V433.92ZM253.136 426.88H247.264V429.84H252.448V431.92H247.264V436H244.672V424.8H253.136V426.88Z" fill="white"/>
<rect x="630" y="468" width="150" height="150" rx="8" fill="#2FD06C"/>
<path d="M658.896 589.104L658.576 591.696H660.656V593.44H658.368L658.048 596H656.24L656.56 593.44H654.208L653.888 596H652.096L652.416 593.44H650.32V591.696H652.624L652.96 589.104H650.864V587.36H653.168L653.488 584.8H655.28L654.96 587.36H657.312L657.632 584.8H659.424L659.104 587.36H661.184L661.2 589.104H658.896ZM654.416 591.696H656.768L657.104 589.104H654.752L654.416 591.696ZM665.692 593.888H670.508V596H662.044V594.32L666.364 590.24C667.356 589.296 667.532 588.72 667.532 588.176C667.532 587.296 666.924 586.784 665.74 586.784C664.78 586.784 663.964 587.152 663.42 587.904L661.532 586.688C662.396 585.424 663.964 584.608 665.98 584.608C668.476 584.608 670.14 585.888 670.14 587.92C670.14 589.008 669.836 590 668.268 591.456L665.692 593.888ZM680.745 586.88H674.873V589.84H680.057V591.92H674.873V596H672.281V584.8H680.745V586.88ZM682.5 596V584.8H687.588C691.252 584.8 693.764 587.008 693.764 590.4C693.764 593.792 691.252 596 687.588 596H682.5ZM685.092 593.872H687.46C689.684 593.872 691.14 592.544 691.14 590.4C691.14 588.256 689.684 586.928 687.46 586.928H685.092V593.872ZM699.815 596.192C697.063 596.192 695.015 594.096 695.015 590.4C695.015 586.704 697.063 584.608 699.815 584.608C702.583 584.608 704.615 586.704 704.615 590.4C704.615 594.096 702.583 596.192 699.815 596.192ZM699.815 594C701.111 594 702.007 592.944 702.007 590.4C702.007 587.856 701.111 586.8 699.815 586.8C698.535 586.8 697.639 587.856 697.639 590.4C697.639 592.944 698.535 594 699.815 594ZM711.266 588.976C713.426 588.976 715.122 590.352 715.122 592.464C715.122 594.752 713.25 596.192 710.882 596.192C707.794 596.192 705.874 594.256 705.874 590.64C705.874 586.768 708.21 584.608 711.586 584.608C712.77 584.608 713.922 584.88 714.706 585.376L713.746 587.28C713.122 586.864 712.402 586.72 711.65 586.72C709.778 586.72 708.578 587.824 708.498 589.968C709.154 589.312 710.098 588.976 711.266 588.976ZM710.738 594.256C711.842 594.256 712.61 593.616 712.61 592.592C712.61 591.568 711.858 590.912 710.706 590.912C709.57 590.912 708.77 591.616 708.77 592.592C708.77 593.552 709.49 594.256 710.738 594.256ZM722.126 596.192C718.654 596.192 716.062 593.776 716.062 590.4C716.062 587.024 718.654 584.608 722.142 584.608C724.078 584.608 725.694 585.312 726.75 586.592L725.086 588.128C724.334 587.264 723.39 586.816 722.27 586.816C720.174 586.816 718.686 588.288 718.686 590.4C718.686 592.512 720.174 593.984 722.27 593.984C723.39 593.984 724.334 593.536 725.086 592.656L726.75 594.192C725.694 595.488 724.078 596.192 722.126 596.192Z" fill="white"/>
<path d="M623.06 100.826V102.043H617.003V100.826H619.3V99.2129H620.804V100.826H623.06ZM617.358 105.57C617.345 103.889 618.486 102.692 620.052 102.699C621.624 102.692 622.745 103.889 622.745 105.57C622.745 107.286 621.624 108.482 620.052 108.482C618.486 108.482 617.345 107.286 617.358 105.57ZM618.698 105.57C618.691 106.568 619.252 107.19 620.052 107.184C620.845 107.19 621.405 106.568 621.405 105.57C621.405 104.6 620.845 103.957 620.052 103.957C619.252 103.957 618.691 104.6 618.698 105.57ZM623.579 110.656V99.1172H625.001V103.943H626.204V98.8574H627.653V111.217H626.204V105.174H625.001V110.656H623.579ZM640.56 100.512V101.756H638.878V103.164H640.56V104.422H638.878V106.117H637.36V98.8574H638.878V100.512H640.56ZM629.267 102.521C629.26 100.778 630.695 99.5547 632.603 99.5684C634.503 99.5547 635.925 100.778 635.938 102.521C635.925 104.258 634.503 105.481 632.603 105.488C630.695 105.481 629.26 104.258 629.267 102.521ZM630.675 108.811C630.675 107.3 632.302 106.411 634.858 106.404C637.395 106.411 638.994 107.3 639.001 108.811C638.994 110.308 637.395 111.203 634.858 111.203C632.302 111.203 630.675 110.308 630.675 108.811ZM630.757 102.521C630.75 103.547 631.536 104.196 632.603 104.203C633.655 104.196 634.441 103.547 634.448 102.521C634.441 101.503 633.655 100.833 632.603 100.84C631.536 100.833 630.75 101.503 630.757 102.521ZM632.192 108.811C632.192 109.59 633.163 109.986 634.858 109.986C636.547 109.986 637.497 109.59 637.497 108.811C637.497 108.038 636.547 107.621 634.858 107.621C633.163 107.621 632.192 108.038 632.192 108.811ZM647.669 99.8828C647.662 101.435 649.405 103.014 652.044 103.355L651.442 104.586C649.344 104.271 647.676 103.239 646.869 101.845C646.062 103.239 644.401 104.271 642.323 104.586L641.722 103.355C644.333 103.014 646.069 101.448 646.069 99.8828V99.2539H647.669V99.8828ZM641.229 106.91V105.652H652.495V106.91H647.587V111.217H646.083V106.91H641.229ZM657.759 101.045C657.745 102.665 658.771 104.217 660.712 104.846L659.919 106.049C658.552 105.584 657.574 104.654 657.034 103.465C656.487 104.777 655.469 105.803 654.026 106.309L653.179 105.105C655.209 104.442 656.228 102.788 656.228 101.031V99.623H657.759V101.045ZM655.161 110.971V107.047H656.72V109.74H663.569V110.971H655.161ZM661.56 107.936V98.8574H663.077V102.508H664.8V103.793H663.077V107.936H661.56ZM676.708 106.049V107.252H671.786V111.217H670.282V107.252H665.415V106.049H676.708ZM666.782 104.764V99.3496H668.286V100.867H673.81V99.3496H675.341V104.764H666.782ZM668.286 103.533H673.81V102.07H668.286V103.533ZM681.534 99.7188C683.496 99.7119 684.925 100.949 684.938 102.699C684.925 104.456 683.496 105.687 681.534 105.693C679.593 105.687 678.137 104.456 678.144 102.699C678.137 100.949 679.593 99.7119 681.534 99.7188ZM677.583 107.402C679.812 107.402 682.895 107.375 685.567 106.992L685.69 108.1C682.922 108.626 679.955 108.646 677.774 108.646L677.583 107.402ZM679.647 102.699C679.641 103.731 680.454 104.367 681.534 104.367C682.628 104.367 683.441 103.731 683.448 102.699C683.441 101.674 682.635 101.031 681.534 101.031C680.454 101.031 679.641 101.674 679.647 102.699ZM686.306 111.23V98.8574H687.823V111.23H686.306ZM696.272 99.7598C698.132 99.7598 699.472 101.455 699.485 104.121C699.472 106.808 698.132 108.496 696.272 108.496C694.393 108.496 693.053 106.808 693.06 104.121C693.053 101.455 694.393 99.7598 696.272 99.7598ZM694.522 104.121C694.516 106.021 695.233 107.122 696.272 107.129C697.318 107.122 698.016 106.021 698.022 104.121C698.016 102.234 697.318 101.127 696.272 101.127C695.233 101.127 694.516 102.234 694.522 104.121ZM701.112 111.217V98.8574H702.63V103.602H704.53V104.887H702.63V111.217H701.112ZM715.331 98.8574V111.23H713.8V98.8574H715.331ZM705.446 104.121C705.439 101.455 706.8 99.7598 708.673 99.7598C710.525 99.7598 711.893 101.455 711.899 104.121C711.893 106.808 710.525 108.496 708.673 108.496C706.8 108.496 705.439 106.808 705.446 104.121ZM706.909 104.121C706.909 106.021 707.627 107.122 708.673 107.129C709.712 107.122 710.423 106.021 710.423 104.121C710.423 102.234 709.712 101.127 708.673 101.127C707.627 101.127 706.909 102.234 706.909 104.121ZM722.481 99.8555V101.072H719.2V104.873C720.52 104.866 721.627 104.798 722.905 104.545L723.028 105.734C721.49 106.042 720.219 106.069 718.53 106.076H717.71V99.8555H722.481ZM719.501 110.971V106.965H721.019V109.727H728.114V110.971H719.501ZM721.729 103.424V102.207H723.862V99.1035H725.298V107.662H723.862V103.424H721.729ZM726.323 107.99V98.8711H727.772V107.99H726.323ZM736.153 99.9238V101.168H731.464V103.369H735.661V104.572H731.464V107.115C733.487 107.108 735.032 107.033 736.81 106.746L736.96 107.977C735.012 108.284 733.275 108.346 730.999 108.346H729.96V99.9238H736.153ZM738.04 111.217V98.8574H739.571V111.217H738.04ZM748.253 99.9238V101.168H743.563V103.369H747.761V104.572H743.563V107.115C745.587 107.108 747.132 107.033 748.909 106.746L749.06 107.977C747.111 108.284 745.375 108.346 743.099 108.346H742.06V99.9238H748.253ZM750.14 111.217V98.8574H751.671V111.217H750.14ZM764.728 104.463V105.611H753.435V104.463H764.728ZM754.747 107.416V106.35H763.36V109.166H756.278V110.027H763.729V111.08H754.761V108.182H761.856V107.416H754.747ZM754.829 100.184V99.1309H763.333V101.92H756.374V102.727H763.552V103.766H754.87V100.936H761.815V100.184H754.829ZM778.618 98.8711V102.439H780.341V103.697H778.618V107.963H777.101V98.8711H778.618ZM769.294 105.953V99.7461H770.798V101.633H773.683V99.7461H775.187V105.953H769.294ZM770.702 110.971V107.047H772.22V109.74H779.11V110.971H770.702ZM770.798 104.75H773.683V102.809H770.798V104.75ZM784.401 99.5547C785.399 99.5479 786.268 99.917 786.849 100.539H789.802V98.8574H791.319V106.131H789.802V104.559H786.842C786.254 105.167 785.393 105.536 784.401 105.529C782.535 105.536 781.134 104.285 781.134 102.549C781.134 100.799 782.535 99.5479 784.401 99.5547ZM782.583 102.549C782.583 103.561 783.342 104.244 784.401 104.244C785.427 104.244 786.186 103.561 786.192 102.549C786.186 101.503 785.427 100.854 784.401 100.854C783.342 100.854 782.583 101.503 782.583 102.549ZM782.938 108.797C782.925 107.272 784.545 106.384 787.136 106.391C789.733 106.384 791.354 107.272 791.36 108.797C791.354 110.314 789.733 111.203 787.136 111.203C784.545 111.203 782.925 110.314 782.938 108.797ZM784.429 108.797C784.415 109.583 785.42 110.007 787.136 110.014C788.886 110.007 789.87 109.583 789.87 108.797C789.87 107.99 788.886 107.56 787.136 107.553C785.42 107.56 784.415 107.99 784.429 108.797ZM787.532 101.756C787.601 102.009 787.642 102.269 787.642 102.549C787.642 102.822 787.601 103.082 787.539 103.328H789.802V101.756H787.532ZM799.099 100.826V102.043H793.042V100.826H795.339V99.2129H796.843V100.826H799.099ZM793.397 105.57C793.384 103.889 794.525 102.692 796.091 102.699C797.663 102.692 798.784 103.889 798.784 105.57C798.784 107.286 797.663 108.482 796.091 108.482C794.525 108.482 793.384 107.286 793.397 105.57ZM794.737 105.57C794.73 106.568 795.291 107.19 796.091 107.184C796.884 107.19 797.444 106.568 797.444 105.57C797.444 104.6 796.884 103.957 796.091 103.957C795.291 103.957 794.73 104.6 794.737 105.57ZM799.618 110.656V99.1172H801.04V103.943H802.243V98.8574H803.692V111.217H802.243V105.174H801.04V110.656H799.618ZM811.458 99.0762V100.047H816.79V99.0762H818.294V103.205H809.954V99.0762H811.458ZM808.491 105.188V103.998H819.757V105.188H808.491ZM809.817 107.184V106.062H818.349V109.043H811.321V109.945H818.69V111.107H809.831V107.977H816.858V107.184H809.817ZM811.458 102.057H816.79V101.154H811.458V102.057ZM830.558 99.2812V102.795H823.462V104.025H830.831V105.242H821.931V101.646H828.999V100.512H821.903V99.2812H830.558ZM820.577 107.512V106.295H831.87V107.512H826.962V111.23H825.444V107.512H820.577ZM843.97 104.463V105.611H832.677V104.463H843.97ZM833.989 107.416V106.35H842.603V109.166H835.521V110.027H842.972V111.08H834.003V108.182H841.099V107.416H833.989ZM834.071 100.184V99.1309H842.575V101.92H835.616V102.727H842.794V103.766H834.112V100.936H841.058V100.184H834.071ZM598.99 126.748V127.979H594.082V132.203H592.578V127.979H587.725V126.748H598.99ZM588.312 124.725C590.739 124.417 592.366 123.111 592.476 121.758H588.764V120.555H597.951V121.758H594.239C594.342 123.111 595.955 124.417 598.402 124.725L597.855 125.914C595.75 125.613 594.109 124.649 593.357 123.316C592.599 124.649 590.972 125.613 588.887 125.914L588.312 124.725ZM611.117 129.482V130.727H599.824V129.482H604.705V126.639H606.223V129.482H611.117ZM600.316 125.955C602.777 125.545 604.609 123.877 604.65 122.1H600.768V120.855H610.146V122.1H606.25C606.298 123.877 608.13 125.504 610.666 125.887L610.064 127.09C607.979 126.714 606.264 125.606 605.464 124.062C604.671 125.627 602.976 126.769 600.918 127.158L600.316 125.955ZM615.779 122.1C615.786 123.48 616.552 124.848 618.172 125.49L617.352 126.652C616.265 126.215 615.499 125.408 615.062 124.424C614.604 125.531 613.797 126.475 612.621 126.98L611.814 125.805C613.517 125.06 614.31 123.494 614.316 122.1V120.596H615.779V122.1ZM614.029 129.154V127.938H622.492V132.217H620.975V129.154H614.029ZM618.391 127.281V120.076H619.812V122.947H621.043V119.871H622.492V127.35H621.043V124.205H619.812V127.281H618.391ZM629.643 120.555C632.247 120.555 634.257 121.942 634.25 124.041C634.257 126.167 632.247 127.555 629.643 127.555C627.052 127.555 625.056 126.167 625.062 124.041C625.056 121.942 627.052 120.555 629.643 120.555ZM624.023 130.658V129.414H635.316V130.658H624.023ZM626.525 124.041C626.519 125.442 627.845 126.304 629.643 126.311C631.447 126.304 632.76 125.442 632.76 124.041C632.76 122.674 631.447 121.771 629.643 121.785C627.845 121.771 626.519 122.674 626.525 124.041ZM647.416 129.523V130.781H636.123V129.523H640.99V127.514H637.463V123.467H644.572V121.936H637.436V120.705H646.076V124.67H638.98V126.27H646.363V127.514H642.494V129.523H647.416ZM655.961 122.824C655.947 125.032 657.055 127.261 658.969 128.184L658.039 129.4C656.699 128.724 655.735 127.418 655.209 125.846C654.669 127.527 653.657 128.922 652.242 129.633L651.312 128.416C653.302 127.473 654.437 125.107 654.443 122.824V120.855H655.961V122.824ZM659.707 132.217V119.857H661.225V124.697H663.125V125.996H661.225V132.217H659.707ZM674.91 125.805V127.021H663.645V125.805H666.27V124.239C665.333 123.843 664.807 123.221 664.807 122.414C664.807 120.931 666.536 120.062 669.264 120.062C671.984 120.062 673.714 120.931 673.721 122.414C673.714 123.228 673.181 123.85 672.244 124.239V125.805H674.91ZM664.957 129.975C664.957 128.553 666.563 127.76 669.264 127.773C671.923 127.76 673.536 128.553 673.543 129.975C673.536 131.41 671.923 132.189 669.264 132.189C666.563 132.189 664.957 131.41 664.957 129.975ZM666.393 122.414C666.379 123.166 667.438 123.569 669.264 123.562C671.082 123.569 672.148 123.166 672.148 122.414C672.148 121.655 671.082 121.231 669.264 121.238C667.438 121.231 666.379 121.655 666.393 122.414ZM666.502 129.975C666.495 130.672 667.466 131.048 669.264 131.041C671.034 131.048 672.012 130.672 672.025 129.975C672.012 129.284 671.034 128.929 669.264 128.922C667.466 128.929 666.495 129.284 666.502 129.975ZM667.801 125.805H670.727V124.629C670.282 124.69 669.79 124.725 669.264 124.725C668.737 124.725 668.245 124.69 667.801 124.629V125.805ZM685.424 119.857V124.779H687.324V126.037H685.424V132.217H683.92V119.857H685.424ZM675.676 122.975V121.758H678.602V120.035H680.119V121.758H682.963V122.975H675.676ZM676.25 126.693C676.236 124.984 677.562 123.774 679.367 123.781C681.145 123.774 682.464 124.984 682.471 126.693C682.464 128.396 681.145 129.592 679.367 129.592C677.562 129.592 676.236 128.396 676.25 126.693ZM677.699 126.693C677.692 127.698 678.396 128.341 679.367 128.334C680.317 128.341 681.008 127.698 681.021 126.693C681.008 125.688 680.317 125.025 679.367 125.025C678.396 125.025 677.692 125.688 677.699 126.693ZM695.199 124.984V126.215H692.697V128.368C693.777 128.327 694.857 128.252 695.883 128.143L696.006 129.264C693.285 129.667 690.421 129.694 688.09 129.701L687.898 128.443C688.917 128.45 690.031 128.443 691.18 128.423V126.215H688.76V120.992H695.145V122.195H690.264V124.984H695.199ZM696.621 132.23V119.857H698.139V132.23H696.621ZM702.35 130.029L701.201 133.857H699.902L700.613 130.029H702.35ZM716.582 119.857V123.33H718.318V124.588H716.582V128.799H715.064V119.857H716.582ZM707.354 126.707V120.883H712.891V122.1H708.857V125.463C711.182 125.463 712.474 125.388 713.943 125.08L714.107 126.311C712.487 126.632 711.052 126.707 708.352 126.707H707.354ZM708.666 131.971V127.855H710.184V130.74H717.074V131.971H708.666ZM730.227 129.482V130.727H718.934V129.482H723.814V126.639H725.332V129.482H730.227ZM719.426 125.955C721.887 125.545 723.719 123.877 723.76 122.1H719.877V120.855H729.256V122.1H725.359C725.407 123.877 727.239 125.504 729.775 125.887L729.174 127.09C727.089 126.714 725.373 125.606 724.573 124.062C723.78 125.627 722.085 126.769 720.027 127.158L719.426 125.955ZM742.326 129.523V130.781H731.033V129.523H735.9V127.514H732.373V123.467H739.482V121.936H732.346V120.705H740.986V124.67H733.891V126.27H741.273V127.514H737.404V129.523H742.326ZM754.412 125.969V127.186H749.641V129.455H748.096V127.186H743.119V125.969H754.412ZM744.322 122.66C744.315 121.108 746.093 120.131 748.752 120.131C751.425 120.131 753.182 121.108 753.182 122.66C753.182 124.219 751.425 125.183 748.752 125.176C746.093 125.183 744.315 124.219 744.322 122.66ZM744.5 131.971V128.307H746.031V130.727H753.168V131.971H744.5ZM745.963 122.66C745.949 123.48 747.057 123.959 748.752 123.959C750.461 123.959 751.562 123.48 751.555 122.66C751.562 121.812 750.461 121.334 748.752 121.334C747.057 121.334 745.949 121.812 745.963 122.66ZM768.85 119.871V128.799H767.318V119.871H768.85ZM758.773 123.768C758.773 121.97 760.229 120.685 762.109 120.678C763.989 120.685 765.438 121.97 765.432 123.768C765.438 125.593 763.989 126.871 762.109 126.871C760.229 126.871 758.773 125.593 758.773 123.768ZM760.264 123.768C760.257 124.861 761.05 125.545 762.109 125.545C763.142 125.545 763.941 124.861 763.941 123.768C763.941 122.701 763.142 122.004 762.109 122.004C761.05 122.004 760.257 122.701 760.264 123.768ZM760.674 131.971V127.896H762.205V130.74H769.191V131.971H760.674ZM775.029 121.826C775.029 123.378 776.034 124.848 777.941 125.449L777.121 126.639C775.788 126.188 774.831 125.285 774.291 124.137C773.758 125.449 772.76 126.481 771.338 126.98L770.518 125.791C772.507 125.101 773.505 123.453 773.512 121.689V120.514H775.029V121.826ZM772.199 129.852C772.199 128.389 773.806 127.521 776.383 127.527C778.939 127.521 780.519 128.389 780.525 129.852C780.519 131.349 778.939 132.203 776.383 132.203C773.806 132.203 772.199 131.349 772.199 129.852ZM773.717 129.852C773.717 130.617 774.688 131 776.383 131C778.071 131 779.021 130.617 779.021 129.852C779.021 129.127 778.071 128.717 776.383 128.717C774.688 128.717 773.717 129.127 773.717 129.852ZM778.885 127.254V119.857H780.402V122.865H782.125V124.123H780.402V127.254H778.885ZM788.373 120.049C791.189 120.056 792.823 120.801 792.83 122.168C792.823 123.549 791.189 124.294 788.373 124.301C785.563 124.294 783.916 123.549 783.916 122.168C783.916 120.801 785.563 120.056 788.373 120.049ZM782.754 126.174V124.957H794.02V126.174H782.754ZM784.08 128.129V127.008H792.611V130.029H785.584V130.945H792.953V132.107H784.094V128.949H791.121V128.129H784.08ZM785.516 122.168C785.509 122.852 786.493 123.166 788.373 123.166C790.28 123.166 791.258 122.852 791.258 122.168C791.258 121.532 790.28 121.17 788.373 121.17C786.493 121.17 785.509 121.532 785.516 122.168ZM801.908 120.391C803.713 120.391 804.998 121.396 805.012 122.879C804.998 124.109 804.075 125.032 802.701 125.285V126.283C803.733 126.222 804.766 126.133 805.723 125.996L805.846 127.104C803.275 127.562 800.404 127.616 798.312 127.609L798.148 126.393C799.037 126.393 800.076 126.386 801.17 126.352V125.292C799.755 125.053 798.812 124.13 798.818 122.879C798.812 121.396 800.097 120.391 801.908 120.391ZM799.844 131.957V128.471H801.361V130.727H808.402V131.957H799.844ZM800.24 122.879C800.227 123.692 800.924 124.198 801.908 124.205C802.899 124.198 803.569 123.692 803.576 122.879C803.569 122.045 802.899 121.553 801.908 121.553C800.924 121.553 800.227 122.045 800.24 122.879ZM806.447 129.305V119.871H807.965V123.863H809.633V125.121H807.965V129.305H806.447ZM820.051 119.857V124.957H821.787V126.229H820.051V132.217H818.52V119.857H820.051ZM810.125 128.785C811.062 128.785 812.148 128.785 813.283 128.758V127.603C811.937 127.37 811.062 126.529 811.068 125.367C811.062 123.973 812.285 123.05 814.062 123.043C815.819 123.05 817.057 123.973 817.07 125.367C817.057 126.536 816.161 127.377 814.814 127.603V128.703C815.854 128.648 816.893 128.566 817.863 128.43L817.959 129.537C815.307 130.022 812.449 130.043 810.344 130.043L810.125 128.785ZM810.357 122.482V121.279H813.283V119.912H814.814V121.279H817.727V122.482H810.357ZM812.504 125.367C812.497 126.078 813.126 126.495 814.062 126.488C814.985 126.495 815.607 126.078 815.607 125.367C815.607 124.649 814.985 124.212 814.062 124.205C813.126 124.212 812.497 124.649 812.504 125.367ZM832.055 119.857V124.779H833.955V126.037H832.055V132.217H830.551V119.857H832.055ZM822.307 122.975V121.758H825.232V120.035H826.75V121.758H829.594V122.975H822.307ZM822.881 126.693C822.867 124.984 824.193 123.774 825.998 123.781C827.775 123.774 829.095 124.984 829.102 126.693C829.095 128.396 827.775 129.592 825.998 129.592C824.193 129.592 822.867 128.396 822.881 126.693ZM824.33 126.693C824.323 127.698 825.027 128.341 825.998 128.334C826.948 128.341 827.639 127.698 827.652 126.693C827.639 125.688 826.948 125.025 825.998 125.025C825.027 125.025 824.323 125.688 824.33 126.693ZM844.797 119.857V132.217H843.266V119.857H844.797ZM834.557 128.812C837.797 127.274 839.287 125.183 839.561 122.373H835.186V121.17H841.105C841.105 124.848 839.677 127.972 835.35 130.029L834.557 128.812ZM853.93 120.404C855.81 120.397 857.17 121.45 857.17 123.002C857.17 124.526 855.81 125.593 853.93 125.586C852.07 125.593 850.717 124.526 850.717 123.002C850.717 121.45 852.07 120.397 853.93 120.404ZM849.91 126.434C852.139 126.434 855.263 126.393 857.922 125.996L858.031 127.117C856.965 127.322 855.857 127.452 854.777 127.534V131.834H853.246V127.623C852.104 127.671 851.031 127.685 850.102 127.691L849.91 126.434ZM852.193 123.002C852.187 123.829 852.918 124.349 853.93 124.342C854.982 124.349 855.721 123.829 855.721 123.002C855.721 122.147 854.982 121.621 853.93 121.635C852.918 121.621 852.187 122.147 852.193 123.002ZM858.729 132.203V119.871H860.232V132.203H858.729ZM868.025 121.826V123.043H861.969V121.826H864.266V120.213H865.77V121.826H868.025ZM862.324 126.57C862.311 124.889 863.452 123.692 865.018 123.699C866.59 123.692 867.711 124.889 867.711 126.57C867.711 128.286 866.59 129.482 865.018 129.482C863.452 129.482 862.311 128.286 862.324 126.57ZM863.664 126.57C863.657 127.568 864.218 128.19 865.018 128.184C865.811 128.19 866.371 127.568 866.371 126.57C866.371 125.6 865.811 124.957 865.018 124.957C864.218 124.957 863.657 125.6 863.664 126.57ZM868.545 131.656V120.117H869.967V124.943H871.17V119.857H872.619V132.217H871.17V126.174H869.967V131.656H868.545ZM623.347 141.459V143.1H626.231V141.459H627.735V146.955H621.843V141.459H623.347ZM622.581 149.143V147.994H626.71V151.029H624.099V151.945C625.787 151.945 626.573 151.897 627.503 151.686L627.653 152.82C626.56 153.046 625.671 153.087 623.401 153.08H622.608V149.963H625.233V149.143H622.581ZM623.347 145.752H626.231V144.234H623.347V145.752ZM627.243 149.197V147.994H631.167V153.148H629.663V149.197H627.243ZM629.649 147.434V140.857H631.167V143.414H632.89V144.672H631.167V147.434H629.649ZM644.784 147.242V148.459H633.519V147.242H644.784ZM634.681 143.756C634.681 142.19 636.438 141.247 639.138 141.254C641.831 141.247 643.588 142.19 643.595 143.756C643.588 145.328 641.831 146.285 639.138 146.285C636.438 146.285 634.681 145.328 634.681 143.756ZM634.913 152.971V149.375H636.431V151.74H643.513V152.971H634.913ZM636.267 143.756C636.253 144.597 637.34 145.048 639.138 145.041C640.942 145.048 642.022 144.597 642.022 143.756C642.022 142.942 640.942 142.471 639.138 142.471C637.34 142.471 636.253 142.942 636.267 143.756ZM655.394 141.418C655.38 144.672 653.691 146.668 649.761 147.625L649.214 146.463C651.06 146.039 652.242 145.39 652.946 144.576L649.46 144.836L649.228 143.674L653.568 143.51C653.671 143.223 653.739 142.922 653.773 142.607H649.856V141.418H655.394ZM651.155 148.842V147.652H659.29V150.865H652.659V151.863H659.618V153.066H651.169V149.758H657.786V148.842H651.155ZM655.421 144.863V143.619H657.772V140.857H659.29V147.16H657.772V144.863H655.421ZM671.39 140.857V153.23H669.872V146.654H667.753V145.41H669.872V140.857H671.39ZM661.45 143.168V141.938H667.042V146.463H662.995V149.061C664.834 149.054 666.311 148.992 667.972 148.691L668.095 149.936C666.256 150.257 664.602 150.325 662.476 150.332H661.491V145.232H665.552V143.168H661.45ZM676.831 141.623C678.731 141.623 680.181 142.847 680.194 144.604C680.181 146.114 679.114 147.229 677.61 147.509V149.334C678.643 149.279 679.668 149.204 680.632 149.074L680.741 150.209C678.15 150.674 675.327 150.688 673.208 150.66L672.989 149.416C673.919 149.416 674.985 149.409 676.093 149.382V147.522C674.541 147.249 673.468 146.128 673.481 144.604C673.468 142.847 674.89 141.623 676.831 141.623ZM674.958 144.604C674.951 145.636 675.751 146.299 676.831 146.285C677.891 146.299 678.684 145.636 678.69 144.604C678.684 143.564 677.891 142.922 676.831 142.908C675.751 142.922 674.951 143.564 674.958 144.604ZM681.343 153.217V140.857H682.86V145.793H684.651V147.078H682.86V153.217H681.343ZM698.392 142.061V143.455C698.392 145.109 698.392 146.812 697.94 149.416L696.396 149.279C696.874 146.853 696.874 145.062 696.874 143.455V143.291H689.751V142.061H698.392ZM688.562 151.521V150.277H699.827V151.521H688.562ZM710.341 140.857V145.602H712.241V146.873H710.341V153.23H708.837V140.857H710.341ZM701.153 143.168V141.938H706.841V146.6H702.685V149.061C704.646 149.047 706.171 148.965 707.894 148.664L708.03 149.895C706.123 150.236 704.441 150.318 702.192 150.318H701.181V145.383H705.323V143.168H701.153ZM723.042 140.857V153.23H721.511V140.857H723.042ZM713.526 150.25V141.979H719.487V143.223H715.058V148.965C717.327 148.951 718.756 148.89 720.403 148.596L720.554 149.854C718.783 150.182 717.19 150.25 714.579 150.25H713.526ZM735.21 140.871V149.922H733.692V145.424H731.457C731.143 146.873 729.864 147.857 728.292 147.857C726.426 147.857 725.024 146.552 725.024 144.74C725.024 142.915 726.426 141.637 728.292 141.637C729.912 141.637 731.218 142.655 731.484 144.18H733.692V140.871H735.21ZM726.474 144.74C726.474 145.827 727.26 146.545 728.292 146.545C729.304 146.545 730.076 145.827 730.083 144.74C730.076 143.646 729.304 142.963 728.292 142.963C727.26 142.963 726.474 143.646 726.474 144.74ZM727.103 152.971V149.006H728.62V151.74H735.524V152.971H727.103ZM747.009 147.338V148.541H738.341V141.828H746.899V143.059H739.886V144.549H746.612V145.738H739.886V147.338H747.009ZM736.96 151.713V150.469H748.253V151.713H736.96ZM763.675 150.51V151.781H752.382V150.51H757.235V148.076H753.353V146.873H755.089V143.182H753.312V141.951H762.69V143.182H760.886V146.873H762.649V148.076H758.739V150.51H763.675ZM756.606 146.873H759.382V143.182H756.606V146.873ZM774.776 140.871V149.799H773.245V140.871H774.776ZM764.7 144.768C764.7 142.97 766.156 141.685 768.036 141.678C769.916 141.685 771.365 142.97 771.358 144.768C771.365 146.593 769.916 147.871 768.036 147.871C766.156 147.871 764.7 146.593 764.7 144.768ZM766.19 144.768C766.184 145.861 766.977 146.545 768.036 146.545C769.068 146.545 769.868 145.861 769.868 144.768C769.868 143.701 769.068 143.004 768.036 143.004C766.977 143.004 766.184 143.701 766.19 144.768ZM766.601 152.971V148.896H768.132V151.74H775.118V152.971H766.601ZM786.63 147.338V148.541H777.962V141.828H786.521V143.059H779.507V144.549H786.233V145.738H779.507V147.338H786.63ZM776.581 151.713V150.469H787.874V151.713H776.581ZM799.96 146.463V147.611H788.667V146.463H799.96ZM789.979 149.416V148.35H798.593V151.166H791.511V152.027H798.962V153.08H789.993V150.182H797.089V149.416H789.979ZM790.062 142.184V141.131H798.565V143.92H791.606V144.727H798.784V145.766H790.103V142.936H797.048V142.184H790.062ZM808.642 142.977C808.642 144.487 809.64 145.998 811.554 146.641L810.788 147.816C809.407 147.365 808.43 146.429 807.89 145.267C807.35 146.559 806.324 147.598 804.854 148.09L804.075 146.887C806.044 146.237 807.097 144.597 807.097 142.99V142.826H804.526V141.609H811.198V142.826H808.642V142.977ZM806.03 150.031V148.814H814.452V153.217H812.935V150.031H806.03ZM810.829 145.164V143.92H812.935V140.857H814.452V148.227H812.935V145.164H810.829ZM827.468 146.805V148.021H816.202V146.805H818.827V145.239C817.891 144.843 817.364 144.221 817.364 143.414C817.364 141.931 819.094 141.062 821.821 141.062C824.542 141.062 826.271 141.931 826.278 143.414C826.271 144.228 825.738 144.85 824.802 145.239V146.805H827.468ZM817.515 150.975C817.515 149.553 819.121 148.76 821.821 148.773C824.48 148.76 826.094 149.553 826.101 150.975C826.094 152.41 824.48 153.189 821.821 153.189C819.121 153.189 817.515 152.41 817.515 150.975ZM818.95 143.414C818.937 144.166 819.996 144.569 821.821 144.562C823.64 144.569 824.706 144.166 824.706 143.414C824.706 142.655 823.64 142.231 821.821 142.238C819.996 142.231 818.937 142.655 818.95 143.414ZM819.06 150.975C819.053 151.672 820.023 152.048 821.821 152.041C823.592 152.048 824.569 151.672 824.583 150.975C824.569 150.284 823.592 149.929 821.821 149.922C820.023 149.929 819.053 150.284 819.06 150.975ZM820.358 146.805H823.284V145.629C822.84 145.69 822.348 145.725 821.821 145.725C821.295 145.725 820.803 145.69 820.358 145.629V146.805ZM834.331 142.826V144.043H828.274V142.826H830.571V141.213H832.075V142.826H834.331ZM828.63 147.57C828.616 145.889 829.758 144.692 831.323 144.699C832.896 144.692 834.017 145.889 834.017 147.57C834.017 149.286 832.896 150.482 831.323 150.482C829.758 150.482 828.616 149.286 828.63 147.57ZM829.97 147.57C829.963 148.568 830.523 149.19 831.323 149.184C832.116 149.19 832.677 148.568 832.677 147.57C832.677 146.6 832.116 145.957 831.323 145.957C830.523 145.957 829.963 146.6 829.97 147.57ZM834.851 152.656V141.117H836.272V145.943H837.476V140.857H838.925V153.217H837.476V147.174H836.272V152.656H834.851ZM664.622 171.482V172.727H653.329V171.482H658.196V169.076H654.573V162.678H656.091V164.701H661.819V162.678H663.337V169.076H659.7V171.482H664.622ZM656.091 167.846H661.819V165.918H656.091V167.846ZM675.108 161.857V166.547H677.009V167.791H675.108V174.23H673.591V161.857H675.108ZM665.935 171.209V163.033H671.718V164.264H667.452V169.938C669.373 169.931 670.897 169.835 672.593 169.541L672.771 170.826C670.85 171.154 669.188 171.209 666.96 171.209H665.935ZM690.899 168.338V169.541H682.231V162.828H690.79V164.059H683.776V165.549H690.503V166.738H683.776V168.338H690.899ZM680.851 172.713V171.469H692.144V172.713H680.851ZM697.845 162.814V166.602H694.96V168.146C696.382 168.14 697.441 168.071 698.692 167.832L698.843 169.035C697.38 169.322 696.129 169.356 694.304 169.363H693.47V165.494H696.368V164.004H693.456V162.814H697.845ZM695.247 173.971V170.225H696.765V172.74H703.86V173.971H695.247ZM698.31 166.328V165.07H699.581V162.09H701.017V170.84H699.581V166.328H698.31ZM702.069 171.154V161.871H703.519V171.154H702.069ZM715.331 161.857V174.23H713.8V161.857H715.331ZM705.815 171.25V162.979H711.776V164.223H707.347V169.965C709.616 169.951 711.045 169.89 712.692 169.596L712.843 170.854C711.072 171.182 709.479 171.25 706.868 171.25H705.815ZM726.897 161.871V165.754H728.62V167.012H726.897V171.1H725.38V161.871H726.897ZM717.163 164.455V163.238H720.075V161.857H721.593V163.238H724.491V164.455H717.163ZM717.792 167.326C717.792 165.904 719.029 164.961 720.827 164.961C722.611 164.961 723.842 165.904 723.849 167.326C723.842 168.741 722.611 169.664 720.827 169.664C719.029 169.664 717.792 168.741 717.792 167.326ZM718.981 173.971V170.375H720.499V172.74H727.39V173.971H718.981ZM719.269 167.326C719.262 168.071 719.891 168.495 720.827 168.488C721.764 168.495 722.399 168.071 722.399 167.326C722.399 166.574 721.764 166.137 720.827 166.137C719.891 166.137 719.262 166.574 719.269 167.326ZM742.853 161.857V174.23H741.321V161.857H742.853ZM732.968 167.121C732.961 164.455 734.321 162.76 736.194 162.76C738.047 162.76 739.414 164.455 739.421 167.121C739.414 169.808 738.047 171.496 736.194 171.496C734.321 171.496 732.961 169.808 732.968 167.121ZM734.431 167.121C734.431 169.021 735.148 170.122 736.194 170.129C737.233 170.122 737.944 169.021 737.944 167.121C737.944 165.234 737.233 164.127 736.194 164.127C735.148 164.127 734.431 165.234 734.431 167.121ZM751.206 163.02V171.209H745.327V163.02H751.206ZM746.831 169.992H749.729V164.209H746.831V169.992ZM753.421 174.23V161.857H754.952V174.23H753.421ZM761.433 165.371C761.433 167.395 762.622 169.527 764.618 170.361L763.784 171.564C762.321 170.929 761.255 169.637 760.688 168.064C760.12 169.76 759.033 171.182 757.591 171.865L756.716 170.676C758.664 169.773 759.881 167.47 759.888 165.371V164.332H757.167V163.074H764.14V164.332H761.433V165.371ZM765.521 174.217V161.857H767.052V174.217H765.521ZM780.149 167.463V168.611H768.856V167.463H780.149ZM770.169 170.416V169.35H778.782V172.166H771.7V173.027H779.151V174.08H770.183V171.182H777.278V170.416H770.169ZM770.251 163.184V162.131H778.755V164.92H771.796V165.727H778.974V166.766H770.292V163.936H777.237V163.184H770.251ZM794.177 162.609V163.717C794.17 164.872 794.17 166.137 793.849 167.887H795.558V169.117H790.649V174.23H789.118V169.117H784.292V167.887H792.304C792.646 166.205 792.659 164.94 792.659 163.84H785.618V162.609H794.177ZM806.741 161.871V171.277H805.224V168.844H803.392V167.627H805.224V166.246H803.392V165.016H805.224V161.871H806.741ZM796.419 164.455V163.238H799.181V161.857H800.698V163.238H803.323V164.455H796.419ZM797.062 167.367C797.055 165.952 798.251 164.961 799.919 164.961C801.601 164.961 802.811 165.952 802.817 167.367C802.811 168.789 801.601 169.767 799.919 169.773C798.251 169.767 797.055 168.789 797.062 167.367ZM798.483 167.367C798.477 168.14 799.071 168.598 799.919 168.598C800.773 168.598 801.375 168.14 801.382 167.367C801.375 166.615 800.773 166.157 799.919 166.15C799.071 166.157 798.477 166.615 798.483 167.367ZM798.593 173.971V170.471H800.138V172.74H807.015V173.971H798.593Z" fill="#A4A7AE"/>
<rect x="160" y="148" width="150" height="150" rx="8" fill="#062D88"/>
<path d="M188.896 269.104L188.576 271.696H190.656V273.44H188.368L188.048 276H186.24L186.56 273.44H184.208L183.888 276H182.096L182.416 273.44H180.32V271.696H182.624L182.96 269.104H180.864V267.36H183.168L183.488 264.8H185.28L184.96 267.36H187.312L187.632 264.8H189.424L189.104 267.36H191.184L191.2 269.104H188.896ZM184.416 271.696H186.768L187.104 269.104H184.752L184.416 271.696ZM196.94 276.192C194.188 276.192 192.14 274.096 192.14 270.4C192.14 266.704 194.188 264.608 196.94 264.608C199.708 264.608 201.74 266.704 201.74 270.4C201.74 274.096 199.708 276.192 196.94 276.192ZM196.94 274C198.236 274 199.132 272.944 199.132 270.4C199.132 267.856 198.236 266.8 196.94 266.8C195.66 266.8 194.764 267.856 194.764 270.4C194.764 272.944 195.66 274 196.94 274ZM208.391 268.976C210.551 268.976 212.247 270.352 212.247 272.464C212.247 274.752 210.375 276.192 208.007 276.192C204.919 276.192 202.999 274.256 202.999 270.64C202.999 266.768 205.335 264.608 208.711 264.608C209.895 264.608 211.047 264.88 211.831 265.376L210.871 267.28C210.247 266.864 209.527 266.72 208.775 266.72C206.903 266.72 205.703 267.824 205.623 269.968C206.279 269.312 207.223 268.976 208.391 268.976ZM207.863 274.256C208.967 274.256 209.735 273.616 209.735 272.592C209.735 271.568 208.983 270.912 207.831 270.912C206.695 270.912 205.895 271.616 205.895 272.592C205.895 273.552 206.615 274.256 207.863 274.256ZM216.739 273.888H221.555V276H213.09V274.32L217.411 270.24C218.403 269.296 218.579 268.72 218.579 268.176C218.579 267.296 217.971 266.784 216.786 266.784C215.827 266.784 215.011 267.152 214.467 267.904L212.579 266.688C213.443 265.424 215.011 264.608 217.027 264.608C219.523 264.608 221.187 265.888 221.187 267.92C221.187 269.008 220.883 270 219.315 271.456L216.739 273.888ZM223.328 276V264.8H228.416C232.08 264.8 234.592 267.008 234.592 270.4C234.592 273.792 232.08 276 228.416 276H223.328ZM225.92 273.872H228.288C230.512 273.872 231.968 272.544 231.968 270.4C231.968 268.256 230.512 266.928 228.288 266.928H225.92V273.872ZM243.507 270.112C244.595 270.656 245.219 271.552 245.219 272.752C245.219 274.864 243.331 276.192 240.483 276.192C237.651 276.192 235.779 274.864 235.779 272.752C235.779 271.552 236.403 270.656 237.475 270.112C236.643 269.6 236.179 268.816 236.179 267.808C236.179 265.84 237.939 264.608 240.483 264.608C243.059 264.608 244.819 265.84 244.819 267.808C244.819 268.816 244.339 269.6 243.507 270.112ZM240.483 266.512C239.443 266.512 238.755 267.04 238.755 267.92C238.755 268.768 239.427 269.296 240.483 269.296C241.555 269.296 242.243 268.768 242.243 267.92C242.243 267.04 241.539 266.512 240.483 266.512ZM240.483 274.288C241.779 274.288 242.595 273.664 242.595 272.672C242.595 271.68 241.779 271.072 240.483 271.072C239.203 271.072 238.403 271.68 238.403 272.672C238.403 273.664 239.203 274.288 240.483 274.288ZM254.069 270.112C255.157 270.656 255.781 271.552 255.781 272.752C255.781 274.864 253.893 276.192 251.045 276.192C248.213 276.192 246.341 274.864 246.341 272.752C246.341 271.552 246.965 270.656 248.037 270.112C247.205 269.6 246.741 268.816 246.741 267.808C246.741 265.84 248.501 264.608 251.045 264.608C253.621 264.608 255.381 265.84 255.381 267.808C255.381 268.816 254.901 269.6 254.069 270.112ZM251.045 266.512C250.005 266.512 249.317 267.04 249.317 267.92C249.317 268.768 249.989 269.296 251.045 269.296C252.117 269.296 252.805 268.768 252.805 267.92C252.805 267.04 252.101 266.512 251.045 266.512ZM251.045 274.288C252.341 274.288 253.157 273.664 253.157 272.672C253.157 271.68 252.341 271.072 251.045 271.072C249.765 271.072 248.965 271.68 248.965 272.672C248.965 273.664 249.765 274.288 251.045 274.288Z" fill="white"/>
<rect y="148" width="150" height="150" rx="8" fill="#00A0EA"/>
<path d="M28.896 269.104L28.576 271.696H30.656V273.44H28.368L28.048 276H26.24L26.56 273.44H24.208L23.888 276H22.096L22.416 273.44H20.32V271.696H22.624L22.96 269.104H20.864V267.36H23.168L23.488 264.8H25.28L24.96 267.36H27.312L27.632 264.8H29.424L29.104 267.36H31.184L31.2 269.104H28.896ZM24.416 271.696H26.768L27.104 269.104H24.752L24.416 271.696ZM36.9396 276.192C34.1876 276.192 32.1396 274.096 32.1396 270.4C32.1396 266.704 34.1876 264.608 36.9396 264.608C39.7076 264.608 41.7396 266.704 41.7396 270.4C41.7396 274.096 39.7076 276.192 36.9396 276.192ZM36.9396 274C38.2356 274 39.1316 272.944 39.1316 270.4C39.1316 267.856 38.2356 266.8 36.9396 266.8C35.6596 266.8 34.7636 267.856 34.7636 270.4C34.7636 272.944 35.6596 274 36.9396 274ZM47.799 276.192C45.047 276.192 42.999 274.096 42.999 270.4C42.999 266.704 45.047 264.608 47.799 264.608C50.567 264.608 52.599 266.704 52.599 270.4C52.599 274.096 50.567 276.192 47.799 276.192ZM47.799 274C49.095 274 49.991 272.944 49.991 270.4C49.991 267.856 49.095 266.8 47.799 266.8C46.519 266.8 45.623 267.856 45.623 270.4C45.623 272.944 46.519 274 47.799 274ZM62.7585 276L61.7665 273.6H56.5665L55.5745 276H52.9185L57.9105 264.8H60.4705L65.4785 276H62.7585ZM57.3985 271.632H60.9505L59.1745 267.344L57.3985 271.632ZM70.5646 276.192C67.8126 276.192 65.7646 274.096 65.7646 270.4C65.7646 266.704 67.8126 264.608 70.5646 264.608C73.3326 264.608 75.3646 266.704 75.3646 270.4C75.3646 274.096 73.3326 276.192 70.5646 276.192ZM70.5646 274C71.8606 274 72.7566 272.944 72.7566 270.4C72.7566 267.856 71.8606 266.8 70.5646 266.8C69.2846 266.8 68.3886 267.856 68.3886 270.4C68.3886 272.944 69.2846 274 70.5646 274ZM79.904 273.92H86V276H77.328V264.8H85.792V266.88H79.904V269.312H85.104V271.328H79.904V273.92ZM96.4304 276L95.4384 273.6H90.2384L89.2464 276H86.5904L91.5824 264.8H94.1424L99.1504 276H96.4304ZM91.0704 271.632H94.6224L92.8464 267.344L91.0704 271.632Z" fill="white"/>
<path d="M474.382 293.168C472.828 293.168 471.26 292.706 470.392 292.034L471.162 290.326C471.988 290.928 473.22 291.348 474.396 291.348C475.74 291.348 476.286 290.9 476.286 290.298C476.286 288.464 470.588 289.724 470.588 286.084C470.588 284.418 471.932 283.032 474.718 283.032C475.95 283.032 477.21 283.326 478.12 283.9L477.42 285.622C476.51 285.104 475.572 284.852 474.704 284.852C473.36 284.852 472.842 285.356 472.842 285.972C472.842 287.778 478.54 286.532 478.54 290.13C478.54 291.768 477.182 293.168 474.382 293.168ZM487.314 289.262C487.314 289.43 487.286 289.668 487.272 289.85H481.574C481.784 290.788 482.582 291.362 483.73 291.362C484.528 291.362 485.102 291.124 485.62 290.634L486.782 291.894C486.082 292.692 485.032 293.112 483.674 293.112C481.07 293.112 479.376 291.474 479.376 289.234C479.376 286.98 481.098 285.356 483.394 285.356C485.606 285.356 487.314 286.84 487.314 289.262ZM483.408 287.008C482.414 287.008 481.7 287.61 481.546 288.576H485.256C485.102 287.624 484.388 287.008 483.408 287.008ZM492.408 293.112C489.958 293.112 488.208 291.502 488.208 289.234C488.208 286.966 489.958 285.356 492.408 285.356C493.99 285.356 495.236 286.042 495.782 287.274L494.088 288.184C493.682 287.47 493.08 287.148 492.394 287.148C491.288 287.148 490.42 287.918 490.42 289.234C490.42 290.55 491.288 291.32 492.394 291.32C493.08 291.32 493.682 291.012 494.088 290.284L495.782 291.208C495.236 292.412 493.99 293.112 492.408 293.112ZM500.528 293.112C498.134 293.112 496.384 291.502 496.384 289.234C496.384 286.966 498.134 285.356 500.528 285.356C502.922 285.356 504.658 286.966 504.658 289.234C504.658 291.502 502.922 293.112 500.528 293.112ZM500.528 291.32C501.62 291.32 502.446 290.536 502.446 289.234C502.446 287.932 501.62 287.148 500.528 287.148C499.436 287.148 498.596 287.932 498.596 289.234C498.596 290.536 499.436 291.32 500.528 291.32ZM510.695 285.356C512.473 285.356 513.817 286.392 513.817 288.688V293H511.633V289.024C511.633 287.806 511.073 287.246 510.107 287.246C509.057 287.246 508.301 287.89 508.301 289.276V293H506.117V285.468H508.203V286.35C508.791 285.706 509.673 285.356 510.695 285.356ZM521.367 282.612H523.551V293H521.465V292.132C520.919 292.79 520.121 293.112 519.113 293.112C516.985 293.112 515.347 291.6 515.347 289.234C515.347 286.868 516.985 285.356 519.113 285.356C520.037 285.356 520.821 285.65 521.367 286.266V282.612ZM519.491 291.32C520.569 291.32 521.409 290.536 521.409 289.234C521.409 287.932 520.569 287.148 519.491 287.148C518.399 287.148 517.559 287.932 517.559 289.234C517.559 290.536 518.399 291.32 519.491 291.32ZM528.61 285.356C530.906 285.356 532.236 286.42 532.236 288.702V293H530.192V292.062C529.786 292.748 529.002 293.112 527.896 293.112C526.132 293.112 525.082 292.132 525.082 290.83C525.082 289.5 526.02 288.576 528.316 288.576H530.052C530.052 287.638 529.492 287.092 528.316 287.092C527.518 287.092 526.692 287.358 526.146 287.792L525.362 286.266C526.188 285.678 527.406 285.356 528.61 285.356ZM528.442 291.642C529.17 291.642 529.8 291.306 530.052 290.62V289.85H528.554C527.532 289.85 527.21 290.228 527.21 290.732C527.21 291.278 527.672 291.642 528.442 291.642ZM536.299 286.462C536.831 285.734 537.727 285.356 538.889 285.356V287.372C538.707 287.358 538.567 287.344 538.399 287.344C537.195 287.344 536.397 288.002 536.397 289.444V293H534.213V285.468H536.299V286.462ZM545.823 285.468H547.923L544.521 293.462C543.793 295.282 542.757 295.828 541.399 295.828C540.629 295.828 539.789 295.576 539.299 295.142L540.097 293.588C540.433 293.882 540.895 294.064 541.329 294.064C541.931 294.064 542.267 293.798 542.561 293.126L542.589 293.056L539.327 285.468H541.581L543.695 290.578L545.823 285.468Z" fill="#A4A7AE"/>
<path d="M5.404 124.2C8.022 124.2 9.66 125.558 9.66 127.756C9.66 129.94 8.022 131.298 5.404 131.298H3.43V134H1.162V124.2H5.404ZM5.278 129.45C6.664 129.45 7.364 128.82 7.364 127.756C7.364 126.678 6.664 126.048 5.278 126.048H3.43V129.45H5.278ZM13.2112 127.462C13.7432 126.734 14.6392 126.356 15.8012 126.356V128.372C15.6192 128.358 15.4792 128.344 15.3112 128.344C14.1072 128.344 13.3092 129.002 13.3092 130.444V134H11.1252V126.468H13.2112V127.462ZM18.1918 125.418C17.3798 125.418 16.8338 124.886 16.8338 124.2C16.8338 123.514 17.3798 122.982 18.1918 122.982C19.0038 122.982 19.5498 123.486 19.5498 124.158C19.5498 124.886 19.0038 125.418 18.1918 125.418ZM17.0998 134V126.468H19.2838V134H17.0998ZM30.9567 126.356C32.7487 126.356 34.0367 127.392 34.0367 129.688V134H31.8527V130.024C31.8527 128.806 31.3067 128.246 30.4247 128.246C29.4447 128.246 28.7587 128.876 28.7587 130.22V134H26.5747V130.024C26.5747 128.806 26.0567 128.246 25.1467 128.246C24.1807 128.246 23.4947 128.876 23.4947 130.22V134H21.3107V126.468H23.3967V127.336C23.9567 126.692 24.7967 126.356 25.7627 126.356C26.8127 126.356 27.7087 126.762 28.2407 127.588C28.8427 126.818 29.8227 126.356 30.9567 126.356ZM39.0323 126.356C41.3283 126.356 42.6583 127.42 42.6583 129.702V134H40.6143V133.062C40.2083 133.748 39.4243 134.112 38.3183 134.112C36.5543 134.112 35.5043 133.132 35.5043 131.83C35.5043 130.5 36.4423 129.576 38.7383 129.576H40.4743C40.4743 128.638 39.9143 128.092 38.7383 128.092C37.9403 128.092 37.1143 128.358 36.5683 128.792L35.7843 127.266C36.6103 126.678 37.8283 126.356 39.0323 126.356ZM38.8643 132.642C39.5923 132.642 40.2223 132.306 40.4743 131.62V130.85H38.9763C37.9543 130.85 37.6323 131.228 37.6323 131.732C37.6323 132.278 38.0943 132.642 38.8643 132.642ZM46.721 127.462C47.253 126.734 48.149 126.356 49.311 126.356V128.372C49.129 128.358 48.989 128.344 48.821 128.344C47.617 128.344 46.819 129.002 46.819 130.444V134H44.635V126.468H46.721V127.462ZM56.2453 126.468H58.3453L54.9433 134.462C54.2153 136.282 53.1793 136.828 51.8213 136.828C51.0513 136.828 50.2113 136.576 49.7213 136.142L50.5193 134.588C50.8553 134.882 51.3173 135.064 51.7513 135.064C52.3533 135.064 52.6893 134.798 52.9833 134.126L53.0113 134.056L49.7493 126.468H52.0033L54.1173 131.578L56.2453 126.468Z" fill="#A4A7AE"/>
<rect x="790" y="308" width="150" height="150" rx="8" fill="#C9C9C9"/>
<path d="M818.896 429.104L818.576 431.696H820.656V433.44H818.368L818.048 436H816.24L816.56 433.44H814.208L813.888 436H812.096L812.416 433.44H810.32V431.696H812.624L812.96 429.104H810.864V427.36H813.168L813.488 424.8H815.28L814.96 427.36H817.312L817.632 424.8H819.424L819.104 427.36H821.184L821.2 429.104H818.896ZM814.416 431.696H816.768L817.104 429.104H814.752L814.416 431.696ZM828.204 436.192C824.732 436.192 822.14 433.776 822.14 430.4C822.14 427.024 824.732 424.608 828.22 424.608C830.156 424.608 831.772 425.312 832.828 426.592L831.164 428.128C830.412 427.264 829.468 426.816 828.348 426.816C826.252 426.816 824.764 428.288 824.764 430.4C824.764 432.512 826.252 433.984 828.348 433.984C829.468 433.984 830.412 433.536 831.164 432.656L832.828 434.192C831.772 435.488 830.156 436.192 828.204 436.192ZM837.654 424.608C840.758 424.608 842.662 426.544 842.662 430.16C842.662 434.032 840.342 436.192 836.95 436.192C835.766 436.192 834.63 435.92 833.846 435.424L834.806 433.52C835.414 433.936 836.134 434.08 836.902 434.08C838.758 434.08 839.974 432.976 840.054 430.816C839.398 431.472 838.438 431.824 837.27 431.824C835.11 431.824 833.414 430.448 833.414 428.336C833.414 426.048 835.286 424.608 837.654 424.608ZM837.846 429.888C838.982 429.888 839.766 429.184 839.766 428.208C839.766 427.248 839.046 426.544 837.814 426.544C836.71 426.544 835.942 427.184 835.942 428.208C835.942 429.232 836.694 429.888 837.846 429.888ZM849.969 436.192C846.497 436.192 843.905 433.776 843.905 430.4C843.905 427.024 846.497 424.608 849.985 424.608C851.921 424.608 853.537 425.312 854.593 426.592L852.929 428.128C852.177 427.264 851.233 426.816 850.113 426.816C848.017 426.816 846.529 428.288 846.529 430.4C846.529 432.512 848.017 433.984 850.113 433.984C851.233 433.984 852.177 433.536 852.929 432.656L854.593 434.192C853.537 435.488 851.921 436.192 849.969 436.192ZM859.419 424.608C862.523 424.608 864.427 426.544 864.427 430.16C864.427 434.032 862.107 436.192 858.715 436.192C857.531 436.192 856.395 435.92 855.611 435.424L856.571 433.52C857.179 433.936 857.899 434.08 858.667 434.08C860.523 434.08 861.739 432.976 861.819 430.816C861.163 431.472 860.203 431.824 859.035 431.824C856.875 431.824 855.179 430.448 855.179 428.336C855.179 426.048 857.051 424.608 859.419 424.608ZM859.611 429.888C860.747 429.888 861.531 429.184 861.531 428.208C861.531 427.248 860.811 426.544 859.579 426.544C858.475 426.544 857.707 427.184 857.707 428.208C857.707 429.232 858.459 429.888 859.611 429.888ZM871.735 436.192C868.263 436.192 865.671 433.776 865.671 430.4C865.671 427.024 868.263 424.608 871.751 424.608C873.687 424.608 875.303 425.312 876.359 426.592L874.695 428.128C873.943 427.264 872.999 426.816 871.879 426.816C869.783 426.816 868.295 428.288 868.295 430.4C868.295 432.512 869.783 433.984 871.879 433.984C872.999 433.984 873.943 433.536 874.695 432.656L876.359 434.192C875.303 435.488 873.687 436.192 871.735 436.192ZM881.185 424.608C884.289 424.608 886.193 426.544 886.193 430.16C886.193 434.032 883.873 436.192 880.481 436.192C879.297 436.192 878.161 435.92 877.377 435.424L878.337 433.52C878.945 433.936 879.665 434.08 880.433 434.08C882.289 434.08 883.505 432.976 883.585 430.816C882.929 431.472 881.969 431.824 880.801 431.824C878.641 431.824 876.945 430.448 876.945 428.336C876.945 426.048 878.817 424.608 881.185 424.608ZM881.377 429.888C882.513 429.888 883.297 429.184 883.297 428.208C883.297 427.248 882.577 426.544 881.345 426.544C880.241 426.544 879.473 427.184 879.473 428.208C879.473 429.232 880.225 429.888 881.377 429.888Z" fill="#414651"/>
<rect x="790" y="468" width="150" height="150" rx="8" fill="#0EAE9A"/>
<path d="M818.896 589.104L818.576 591.696H820.656V593.44H818.368L818.048 596H816.24L816.56 593.44H814.208L813.888 596H812.096L812.416 593.44H810.32V591.696H812.624L812.96 589.104H810.864V587.36H813.168L813.488 584.8H815.28L814.96 587.36H817.312L817.632 584.8H819.424L819.104 587.36H821.184L821.2 589.104H818.896ZM814.416 591.696H816.768L817.104 589.104H814.752L814.416 591.696ZM826.94 596.192C824.188 596.192 822.14 594.096 822.14 590.4C822.14 586.704 824.188 584.608 826.94 584.608C829.708 584.608 831.74 586.704 831.74 590.4C831.74 594.096 829.708 596.192 826.94 596.192ZM826.94 594C828.236 594 829.132 592.944 829.132 590.4C829.132 587.856 828.236 586.8 826.94 586.8C825.66 586.8 824.764 587.856 824.764 590.4C824.764 592.944 825.66 594 826.94 594ZM836.279 593.92H842.375V596H833.703V584.8H842.167V586.88H836.279V589.312H841.479V591.328H836.279V593.92ZM852.805 596L851.813 593.6H846.613L845.621 596H842.965L847.957 584.8H850.517L855.525 596H852.805ZM847.445 591.632H850.997L849.221 587.344L847.445 591.632ZM859.263 593.92H865.359V596H856.687V584.8H865.151V586.88H859.263V589.312H864.463V591.328H859.263V593.92ZM870.623 584.608C873.727 584.608 875.631 586.544 875.631 590.16C875.631 594.032 873.311 596.192 869.919 596.192C868.735 596.192 867.599 595.92 866.815 595.424L867.775 593.52C868.383 593.936 869.103 594.08 869.871 594.08C871.727 594.08 872.943 592.976 873.023 590.816C872.367 591.472 871.407 591.824 870.239 591.824C868.079 591.824 866.383 590.448 866.383 588.336C866.383 586.048 868.255 584.608 870.623 584.608ZM870.815 589.888C871.951 589.888 872.735 589.184 872.735 588.208C872.735 587.248 872.015 586.544 870.783 586.544C869.679 586.544 868.911 587.184 868.911 588.208C868.911 589.232 869.663 589.888 870.815 589.888ZM885.774 596L884.782 593.6H879.582L878.59 596H875.934L880.926 584.8H883.486L888.494 596H885.774ZM880.414 591.632H883.966L882.19 587.344L880.414 591.632Z" fill="white"/>
<defs>
<linearGradient id="paint0_linear_1058_152219" x1="395" y1="0" x2="395" y2="200" gradientUnits="userSpaceOnUse">
<stop stop-color="#062D88"/>
<stop offset="1" stop-color="#00A0EA"/>
</linearGradient>
</defs>
</svg>
