<svg width="604" height="252" viewBox="0 0 604 252" fill="none" xmlns="http://www.w3.org/2000/svg">
<rect y="36" width="180" height="180" rx="90" fill="#F1F3F5"/>
<path d="M56.0332 111.543V117.461H55.1191V111.543H56.0332ZM47.5137 116.465C49.0898 115.914 50.1855 114.502 50.1855 112.973V111.953H51.123V112.973C51.1113 114.443 52.2363 115.744 53.7715 116.289L53.3027 116.992C52.0957 116.576 51.1289 115.697 50.6602 114.561C50.1973 115.768 49.2246 116.729 47.9824 117.191L47.5137 116.465ZM49.2598 121.809V118.059H56.0332V121.809H49.2598ZM50.1621 121.059H55.1309V118.809H50.1621V121.059ZM59.9824 111.707V112.703H65.1387V111.707H66.0527V115.129H62.9824V116.16H67.2949V116.91H57.8027V116.16H62.0801V115.129H59.0684V111.707H59.9824ZM58.9512 118.48V117.777H66.0762V120.086H59.8887V121.105H66.3926V121.832H58.9746V119.406H65.1738V118.48H58.9512ZM59.9824 114.414H65.1387V113.406H59.9824V114.414ZM73.4121 112.586V119.301H68.6074V112.586H73.4121ZM69.498 118.551H72.498V113.324H69.498V118.551ZM75.3223 121.949V111.531H76.2363V115.691H77.9824V116.488H76.2363V121.949H75.3223ZM86.8535 112.598V113.887C86.8594 115.422 86.8594 116.84 86.4199 118.949L85.4941 118.867C85.7285 117.865 85.8398 116.998 85.8984 116.189L79.541 116.535L79.4121 115.773L85.9395 115.504C85.957 114.953 85.9629 114.42 85.9629 113.887V113.371H79.6934V112.598H86.8535ZM78.5449 120.484V119.711H88.0371V120.484H78.5449ZM92.0566 112.211C93.6562 112.223 94.8281 113.207 94.834 114.66C94.8281 115.967 93.8789 116.893 92.5254 117.068V118.838C93.498 118.797 94.4766 118.727 95.3848 118.609L95.4434 119.301C93.2344 119.676 90.7734 119.699 88.9395 119.688L88.7871 118.914C89.625 118.908 90.5918 118.902 91.5996 118.873V117.068C90.2168 116.904 89.2734 115.973 89.2793 114.66C89.2734 113.207 90.4277 112.223 92.0566 112.211ZM90.1816 114.66C90.1699 115.639 90.9609 116.318 92.0566 116.312C93.1348 116.318 93.9199 115.639 93.9316 114.66C93.9199 113.682 93.1348 113.014 92.0566 113.008C90.9609 113.014 90.1699 113.682 90.1816 114.66ZM96.0527 121.949V111.531H96.9668V115.832H98.666V116.629H96.9668V121.949H96.0527ZM107.689 112.047C107.684 114.66 106.178 116.418 102.943 117.273L102.604 116.547C104.35 116.102 105.48 115.398 106.107 114.496L102.709 114.742L102.557 114.004L106.471 113.828C106.605 113.5 106.682 113.154 106.717 112.785H103.084V112.047H107.689ZM104.186 118.141V117.402H110.936V119.898H105.111V121.07H111.287V121.809H104.209V119.207H110.021V118.141H104.186ZM107.725 114.812V114.051H110.01V111.531H110.936V116.934H110.01V114.812H107.725ZM121.295 111.531V121.973H120.381V116.312H118.354V115.539H120.381V111.531H121.295ZM113.033 113.266V112.504H117.721V116.148H113.982V118.68C115.781 118.68 117.082 118.621 118.6 118.34L118.67 119.113C117.105 119.395 115.752 119.459 113.865 119.465H113.068V115.387H116.83V113.266H113.033ZM132.58 119.887V120.66H123.041V119.887H127.33V117.918H124.236V114.707H130.471V113.066H124.213V112.305H131.373V115.457H125.15V117.156H131.619V117.918H128.232V119.887H132.58ZM71.625 129.531V135.742H70.6992V133.012H68.6016V132.25H70.6992V129.531H71.625ZM63.0352 134.91C64.582 134.354 65.6836 132.941 65.6836 131.453V131.066H63.3281V130.293H68.9414V131.066H66.6094V131.441C66.6094 132.801 67.6523 134.096 69.1758 134.617L68.6953 135.355C67.5293 134.934 66.6211 134.055 66.1699 132.982C65.7246 134.201 64.7578 135.174 63.5156 135.648L63.0352 134.91ZM64.6758 138.004C64.6699 136.779 66 136.064 68.168 136.07C70.3301 136.064 71.6602 136.779 71.6602 138.004C71.6602 139.234 70.3301 139.938 68.168 139.949C66 139.938 64.6699 139.234 64.6758 138.004ZM65.5898 138.004C65.584 138.76 66.5684 139.217 68.168 139.211C69.7617 139.217 70.7461 138.76 70.7461 138.004C70.7461 137.242 69.7617 136.785 68.168 136.785C66.5684 136.785 65.584 137.242 65.5898 138.004ZM76.4062 132.742C76.4121 134.418 77.2617 136.135 78.6797 136.891L78.1523 137.582C77.1152 137.014 76.3652 135.936 75.9844 134.682C75.6152 136.018 74.8711 137.189 73.8281 137.816L73.2773 137.113C74.6953 136.293 75.5332 134.465 75.5391 132.742V132.227H73.5586V131.465H75.5391V129.918H76.418V131.465H78.3633V132.227H76.4062V132.742ZM77.6484 134.43V133.645H79.2891V129.789H80.1562V139.41H79.2891V134.43H77.6484ZM81.3867 139.949V129.531H82.2656V139.949H81.3867ZM87.3164 131.172C87.3047 132.66 88.3652 133.967 89.8945 134.488L89.3789 135.203C88.2305 134.775 87.3281 133.926 86.877 132.83C86.4316 134.078 85.4824 135.045 84.2227 135.52L83.7188 134.77C85.3242 134.207 86.3906 132.824 86.4023 131.207V130.129H87.3164V131.172ZM85.418 137.98C85.4121 136.727 86.7422 136.006 88.9102 136.012C91.0723 136.006 92.4023 136.727 92.4023 137.98C92.4023 139.223 91.0723 139.926 88.9102 139.926C86.7422 139.926 85.4121 139.223 85.418 137.98ZM86.332 137.98C86.3262 138.736 87.3105 139.193 88.9102 139.188C90.5039 139.193 91.4883 138.736 91.4883 137.98C91.4883 137.201 90.5039 136.738 88.9102 136.738C87.3105 136.738 86.3262 137.201 86.332 137.98ZM89.1211 132.531V131.77H91.4414V129.531H92.3672V135.707H91.4414V132.531H89.1211ZM106.641 135.473V136.234H104.121V139.949H103.195V136.234H100.523V139.949H99.5742V136.234H97.1016V135.473H106.641ZM98.1797 132.227C98.1855 130.838 99.6562 129.959 101.848 129.953C104.033 129.959 105.516 130.838 105.516 132.227C105.516 133.615 104.033 134.482 101.848 134.477C99.6562 134.482 98.1855 133.615 98.1797 132.227ZM99.1289 132.227C99.1172 133.146 100.225 133.738 101.848 133.738C103.471 133.738 104.572 133.146 104.578 132.227C104.572 131.301 103.471 130.703 101.848 130.703C100.225 130.703 99.1172 131.301 99.1289 132.227ZM111.211 132.73C111.217 134.5 112.5 136.299 114.035 136.961L113.52 137.688C112.301 137.137 111.252 135.936 110.766 134.494C110.279 136.023 109.225 137.348 108.035 137.945L107.484 137.219C108.979 136.504 110.279 134.535 110.285 132.73V131.371H107.824V130.609H113.695V131.371H111.211V132.73ZM115.148 139.949V129.531H116.074V139.949H115.148Z" fill="#535862"/>
<rect x="164" y="36" width="180" height="180" rx="90" fill="#F1F3F5"/>
<path d="M218.604 114.332C218.604 116.166 219.816 118.059 221.299 118.785L220.736 119.523C219.588 118.926 218.627 117.689 218.164 116.242C217.701 117.777 216.717 119.096 215.545 119.723L214.959 118.984C216.482 118.234 217.689 116.236 217.701 114.332V112.434H218.604V114.332ZM222.26 121.949V111.531H223.174V115.762H224.92V116.559H223.174V121.949H222.26ZM234.975 116.688V117.449H225.482V116.688H227.838V115.217C227.006 114.895 226.537 114.367 226.537 113.664C226.537 112.439 227.943 111.736 230.229 111.73C232.496 111.736 233.902 112.439 233.908 113.664C233.902 114.361 233.439 114.889 232.619 115.217V116.688H234.975ZM226.631 120.086C226.625 118.896 227.967 118.24 230.229 118.246C232.461 118.24 233.803 118.896 233.814 120.086C233.803 121.275 232.461 121.926 230.229 121.926C227.967 121.926 226.625 121.275 226.631 120.086ZM227.486 113.664C227.48 114.426 228.523 114.865 230.229 114.871C231.916 114.865 232.965 114.426 232.971 113.664C232.965 112.914 231.916 112.457 230.229 112.457C228.523 112.457 227.48 112.914 227.486 113.664ZM227.568 120.086C227.557 120.795 228.559 121.217 230.229 121.211C231.881 121.217 232.883 120.795 232.889 120.086C232.883 119.377 231.881 118.961 230.229 118.949C228.559 118.961 227.557 119.377 227.568 120.086ZM228.752 116.688H231.705V115.463C231.266 115.545 230.773 115.586 230.229 115.586C229.684 115.586 229.191 115.545 228.752 115.469V116.688ZM239.381 114.73C239.369 116.4 240.576 118.24 242.088 118.961L241.561 119.688C240.389 119.113 239.398 117.883 238.93 116.471C238.449 118 237.406 119.348 236.24 119.945L235.678 119.219C237.178 118.486 238.467 116.506 238.479 114.73V113.371H236.053V112.609H241.725V113.371H239.381V114.73ZM243.002 121.949V111.531H243.916V115.75H245.662V116.535H243.916V121.949H243.002ZM257.826 111.531V121.973H256.9V111.531H257.826ZM249.623 115.973C249.629 113.758 250.73 112.346 252.283 112.34C253.83 112.346 254.949 113.758 254.943 115.973C254.949 118.193 253.83 119.6 252.283 119.594C250.73 119.6 249.629 118.193 249.623 115.973ZM250.514 115.973C250.514 117.666 251.24 118.779 252.283 118.773C253.332 118.779 254.053 117.666 254.053 115.973C254.053 114.279 253.332 113.166 252.283 113.16C251.24 113.166 250.514 114.279 250.514 115.973ZM264.811 113.336V114.086H259.584V113.336H261.752V111.848H262.666V113.336H264.811ZM259.959 117.156C259.959 115.773 260.902 114.795 262.197 114.789C263.51 114.795 264.447 115.773 264.459 117.156C264.447 118.557 263.51 119.541 262.197 119.547C260.902 119.541 259.959 118.557 259.959 117.156ZM260.779 117.156C260.779 118.082 261.371 118.744 262.197 118.738C263.029 118.744 263.639 118.082 263.639 117.156C263.639 116.242 263.029 115.574 262.197 115.562C261.371 115.574 260.779 116.242 260.779 117.156ZM265.35 121.434V111.789H266.217V115.926H267.6V111.531H268.479V121.949H267.6V116.688H266.217V121.434H265.35ZM282.482 116.406V117.168H278.182V118.281C280.145 118.369 281.311 119.008 281.322 120.109C281.311 121.275 279.969 121.926 277.736 121.926C275.475 121.926 274.133 121.275 274.139 120.109C274.133 119.008 275.293 118.369 277.279 118.281V117.168H272.99V116.406H282.482ZM273.529 115.047C275.334 114.859 277.074 113.939 277.139 112.773H273.857V112.023H281.639V112.773H278.334C278.398 113.939 280.121 114.859 281.955 115.047L281.615 115.773C279.91 115.568 278.311 114.801 277.736 113.646C277.162 114.801 275.574 115.568 273.857 115.773L273.529 115.047ZM275.076 120.109C275.064 120.801 276.066 121.217 277.736 121.211C279.389 121.217 280.391 120.801 280.396 120.109C280.391 119.4 279.389 118.996 277.736 118.984C276.066 118.996 275.064 119.4 275.076 120.109ZM291.963 111.543V117.461H291.049V111.543H291.963ZM283.443 116.465C285.02 115.914 286.115 114.502 286.115 112.973V111.953H287.053V112.973C287.041 114.443 288.166 115.744 289.701 116.289L289.232 116.992C288.025 116.576 287.059 115.697 286.59 114.561C286.127 115.768 285.154 116.729 283.912 117.191L283.443 116.465ZM285.189 121.809V118.059H291.963V121.809H285.189ZM286.092 121.059H291.061V118.809H286.092V121.059ZM237.096 129.543V137.16H236.182V129.543H237.096ZM228.74 132.824C228.734 131.324 229.912 130.275 231.471 130.27C233.029 130.275 234.195 131.324 234.201 132.824C234.195 134.342 233.029 135.396 231.471 135.391C229.912 135.396 228.734 134.342 228.74 132.824ZM229.643 132.824C229.631 133.861 230.416 134.582 231.471 134.582C232.508 134.582 233.299 133.861 233.299 132.824C233.299 131.805 232.508 131.078 231.471 131.078C230.416 131.078 229.631 131.805 229.643 132.824ZM230.369 139.727V136.387H231.283V138.953H237.424V139.727H230.369ZM247.502 129.531V139.973H246.588V134.23H244.385V133.469H246.588V129.531H247.502ZM239.346 137.453V130.492H244.209V131.254H240.271V133.422H243.752V134.172H240.271V136.691C242.182 136.686 243.412 136.633 244.842 136.375L244.947 137.137C243.43 137.383 242.158 137.453 240.143 137.453H239.346ZM258.201 129.531V139.949H257.311V129.531H258.201ZM249.119 136.586C249.441 136.586 249.816 136.586 250.221 136.58V131.629H249.342V130.867H254.135V131.629H253.256V136.457C253.648 136.422 254.023 136.387 254.369 136.34L254.428 137.02C252.781 137.324 250.596 137.377 249.236 137.371L249.119 136.586ZM251.064 136.562C251.498 136.551 251.955 136.533 252.4 136.51V131.629H251.064V136.562ZM253.83 134.324V133.492H255.283V129.789H256.162V139.398H255.283V134.324H253.83ZM268.197 129.531V139.973H267.271V129.531H268.197ZM259.994 133.973C260 131.758 261.102 130.346 262.654 130.34C264.201 130.346 265.32 131.758 265.314 133.973C265.32 136.193 264.201 137.6 262.654 137.594C261.102 137.6 260 136.193 259.994 133.973ZM260.885 133.973C260.885 135.666 261.611 136.779 262.654 136.773C263.703 136.779 264.424 135.666 264.424 133.973C264.424 132.279 263.703 131.166 262.654 131.16C261.611 131.166 260.885 132.279 260.885 133.973ZM275.17 131.066C275.176 132.854 277.215 134.441 279.025 134.781L278.604 135.555C277.027 135.191 275.375 134.072 274.701 132.543C274.021 134.072 272.375 135.186 270.799 135.555L270.377 134.781C272.182 134.436 274.203 132.859 274.209 131.066V130.27H275.17V131.066ZM269.979 138.531V137.77H279.518V138.531H269.979Z" fill="#535862"/>
<rect x="424" y="36" width="180" height="180" rx="90" fill="#062D88"/>
<path d="M482.014 110.539V118.88H479.97V110.539H482.014ZM472.239 114.246C472.226 112.507 473.692 111.231 475.527 111.237C477.355 111.231 478.821 112.507 478.815 114.246C478.821 116.017 477.355 117.274 475.527 117.28C473.692 117.274 472.226 116.017 472.239 114.246ZM473.978 122.092V118.042H476.035V120.467H482.293V122.092H473.978ZM474.219 114.246C474.213 115.103 474.778 115.509 475.527 115.516C476.238 115.509 476.796 115.103 476.796 114.246C476.796 113.421 476.238 112.996 475.527 113.002C474.778 112.996 474.213 113.421 474.219 114.246ZM488.108 113.459C488.114 115.306 488.787 117.331 490.914 118.194L489.834 119.781C488.489 119.235 487.619 118.207 487.111 116.944C486.604 118.34 485.715 119.483 484.35 120.086L483.208 118.486C485.321 117.572 486.032 115.427 486.026 113.459V113.256H483.715V111.605H490.355V113.256H488.108V113.459ZM491.206 122.257V110.514H493.262V122.257H491.206ZM508.128 117.166V118.74H503.736V122.257H501.717V118.74H497.414V117.166H508.128ZM498.582 116.227V110.958H500.587V112.139H504.891V110.958H506.935V116.227H498.582ZM500.587 114.602H504.891V113.713H500.587V114.602ZM518.043 110.514V113.027H519.503V114.69H518.043V117.064H516V110.514H518.043ZM509.042 116.785V111.225H514.298V112.824H511.074V115.179C513.042 115.167 514.102 115.084 515.25 114.855L515.454 116.43C514.089 116.76 512.762 116.798 510.071 116.785H509.042ZM510.21 122.13V117.483H518.043V122.13H510.21ZM512.216 120.556H516.038V119.083H512.216V120.556ZM525.242 110.666C527.997 110.672 529.577 111.371 529.583 112.646C529.577 113.948 527.997 114.646 525.242 114.64C522.468 114.646 520.875 113.948 520.887 112.646C520.875 111.371 522.468 110.672 525.242 110.666ZM519.884 116.646V115.033H530.599V116.646H519.884ZM521.078 122.206V118.931H527.324V118.575H521.09V117.09H529.33V120.327H523.071V120.708H529.609V122.206H521.078ZM523.02 112.646C523.014 113.072 523.655 113.154 525.242 113.167C526.835 113.154 527.47 113.072 527.476 112.646C527.47 112.297 526.835 112.132 525.242 112.139C523.655 112.132 523.014 112.297 523.02 112.646ZM543.345 110.526V112.9H544.805V114.563H543.345V116.811H541.301V110.526H543.345ZM534.357 116.48V111.034H536.401V114.805C537.683 114.767 539.073 114.633 540.514 114.335L540.755 115.985C538.87 116.379 537.01 116.48 535.411 116.48H534.357ZM534.903 120.594C537.182 120.378 538.077 119.565 538.299 118.829H535.436V117.242H543.447V118.829H540.584C540.812 119.546 541.733 120.384 544.005 120.632L543.244 122.168C541.333 121.952 540.114 121.254 539.454 120.353C538.8 121.248 537.582 121.914 535.665 122.13L534.903 120.594ZM551.534 110.577V111.593H554.898V113.142H551.743C552.01 113.802 552.968 114.475 555.533 114.627L554.885 116.176C552.657 116.036 551.254 115.42 550.518 114.532C549.782 115.42 548.379 116.036 546.151 116.176L545.516 114.627C548.055 114.475 549.014 113.802 549.287 113.142H546.164V111.593H549.502V110.577H551.534ZM545.186 118.105V116.493H555.901V118.105H551.724V119.73H549.706V118.105H545.186ZM546.354 122.092V118.766H548.385V120.467H554.733V122.092H546.354ZM483.43 130.514V137.585H481.386V130.514H483.43ZM473.502 135.896C475.387 135.306 476.117 133.986 476.238 132.735H474.035V131.123H480.459V132.735H478.333C478.453 133.903 479.145 135.141 480.992 135.681L479.951 137.255C478.688 136.88 477.837 136.119 477.317 135.173C476.784 136.208 475.882 137.045 474.543 137.458L473.502 135.896ZM475.267 139.629V138.017H483.43V142.257H481.386V139.629H475.267ZM491.39 131.339V132.139C491.383 132.996 491.383 134.164 491.148 135.566L489.155 135.376C489.327 134.411 489.377 133.649 489.396 132.989H485.232V131.339H491.39ZM484.547 136.277C485.144 136.277 485.81 136.271 486.515 136.265V134.119H488.533V136.201C489.619 136.15 490.729 136.062 491.758 135.909L491.859 137.356C489.422 137.82 486.724 137.864 484.725 137.864L484.547 136.277ZM486.223 142.092V138.499H488.267V140.467H494.729V142.092H486.223ZM492.278 139.273V130.514H494.373V133.941H495.604V135.63H494.373V139.273H492.278ZM502.803 131.085V132.685H500.67C500.778 133.878 501.451 135.09 503.222 135.668L502.244 137.229C500.981 136.855 500.143 136.1 499.635 135.147C499.121 136.201 498.245 137.045 496.899 137.445L495.858 135.846C497.75 135.281 498.442 133.935 498.556 132.685H496.417V131.085H502.803ZM497.826 139.553V137.94H505.989V142.257H503.958V139.553H497.826ZM502.498 134.83V133.18H503.958V130.514H505.989V137.496H503.958V134.83H502.498ZM514.889 132.862C514.876 135.027 515.549 137.191 517.72 138.067L516.539 139.705C515.244 139.14 514.394 138.125 513.879 136.855C513.372 138.277 512.483 139.407 511.067 140.022L509.849 138.334C512.102 137.433 512.807 135.179 512.819 132.862V131.352H514.889V132.862ZM517.923 142.295V130.514H519.979V142.295H517.923ZM530.694 130.514V133.116H532.154V134.792H530.694V137.293H528.65V130.514H530.694ZM521.046 135.808C523.56 135.211 524.854 134.043 525.121 132.723H521.706V131.123H527.343C527.336 134.36 525.438 136.487 521.884 137.344L521.046 135.808ZM522.658 139.337V137.737H530.694V142.257H528.65V139.337H522.658ZM543.263 139.324V140.975H532.535V139.324H534.757V136.62C533.913 136.062 533.405 135.236 533.411 134.221C533.405 132.278 535.309 130.99 537.893 130.996C540.451 130.99 542.387 132.278 542.387 134.221C542.387 135.224 541.885 136.042 541.054 136.601V139.324H543.263ZM535.43 134.221C535.423 135.281 536.363 135.877 537.893 135.884C539.391 135.877 540.355 135.281 540.368 134.221C540.355 133.135 539.391 132.577 537.893 132.583C536.363 132.577 535.423 133.135 535.43 134.221ZM536.775 139.324H539.01V137.356C538.654 137.414 538.28 137.445 537.893 137.445C537.505 137.445 537.131 137.414 536.775 137.356V139.324ZM554.498 139.337V140.949H543.771V139.337H548.062V136.811H550.093V139.337H554.498ZM543.923 135.655C546.97 135.205 547.954 133.376 547.96 131.91V131.123H550.156V131.91C550.144 133.408 551.14 135.205 554.231 135.655L553.381 137.344C551.216 136.969 549.813 135.96 549.058 134.646C548.303 135.96 546.913 136.988 544.773 137.344L543.923 135.655Z" fill="white"/>
<path d="M341.333 126C341.333 127.473 342.527 128.667 344 128.667C345.473 128.667 346.667 127.473 346.667 126C346.667 124.527 345.473 123.333 344 123.333C342.527 123.333 341.333 124.527 341.333 126ZM424 126L419 123.113V128.887L424 126ZM344 126V126.5H345V126V125.5H344V126ZM347 126V126.5H349V126V125.5H347V126ZM351 126V126.5H353V126V125.5H351V126ZM355 126V126.5H357V126V125.5H355V126ZM359 126V126.5H361V126V125.5H359V126ZM363 126V126.5H365V126V125.5H363V126ZM367 126V126.5H369V126V125.5H367V126ZM371 126V126.5H373V126V125.5H371V126ZM375 126V126.5H377V126V125.5H375V126ZM379 126V126.5H381V126V125.5H379V126ZM383 126V126.5H385V126V125.5H383V126ZM387 126V126.5H389V126V125.5H387V126ZM391 126V126.5H393V126V125.5H391V126ZM395 126V126.5H397V126V125.5H395V126ZM399 126V126.5H401V126V125.5H399V126ZM403 126V126.5H405V126V125.5H403V126ZM407 126V126.5H409V126V125.5H407V126ZM411 126V126.5H413V126V125.5H411V126ZM415 126V126.5H417V126V125.5H415V126ZM419 126V126.5H421V126V125.5H419V126Z" fill="url(#paint0_linear_1058_152778)"/>
<defs>
<linearGradient id="paint0_linear_1058_152778" x1="344" y1="126.5" x2="424" y2="126.5" gradientUnits="userSpaceOnUse">
<stop stop-color="#CED4DA"/>
<stop offset="1" stop-color="#062D88"/>
</linearGradient>
</defs>
</svg>
