<svg width="510" height="330" viewBox="0 0 510 330" fill="none" xmlns="http://www.w3.org/2000/svg">
<rect x="1" width="180" height="180" rx="90" fill="#F8FAFF"/>
<path d="M61.3438 72.8135C63.8701 72.8135 65.457 73.6133 65.4697 74.9971C65.457 76.3618 63.8701 77.1743 61.3438 77.168C58.8364 77.1743 57.2241 76.3618 57.2305 74.9971C57.2241 73.6133 58.8364 72.8135 61.3438 72.8135ZM56.1641 72.0771V70.7695H60.0996V68.751H61.6992V70.7695H66.6504V72.0771H56.1641ZM57.3447 67.4053V66.1357H65.4062V67.0752C65.4126 67.9956 65.4126 68.9858 65.0762 70.1729L63.4893 70.0205C63.7495 68.9731 63.7812 68.1924 63.7939 67.4053H57.3447ZM58.8428 74.9971C58.8364 75.6191 59.7505 75.9365 61.3438 75.9365C62.937 75.9365 63.8574 75.6191 63.8574 74.9971C63.8574 74.356 62.937 74.0132 61.3438 74.0195C59.7505 74.0132 58.8364 74.356 58.8428 74.9971ZM72.5791 72.8135C75.1055 72.8135 76.6924 73.6133 76.7051 74.9971C76.6924 76.3618 75.1055 77.1743 72.5791 77.168C70.0718 77.1743 68.4595 76.3618 68.4658 74.9971C68.4595 73.6133 70.0718 72.8135 72.5791 72.8135ZM67.3994 72.0771V70.7695H71.335V68.751H72.9346V70.7695H77.8857V72.0771H67.3994ZM68.5801 67.4053V66.1357H76.6416V67.0752C76.6479 67.9956 76.6479 68.9858 76.3115 70.1729L74.7246 70.0205C74.9849 68.9731 75.0166 68.1924 75.0293 67.4053H68.5801ZM70.0781 74.9971C70.0718 75.6191 70.9858 75.9365 72.5791 75.9365C74.1724 75.9365 75.0928 75.6191 75.0928 74.9971C75.0928 74.356 74.1724 74.0132 72.5791 74.0195C70.9858 74.0132 70.0718 74.356 70.0781 74.9971ZM82.9766 67.1895C82.9702 68.7319 83.7637 70.1602 85.6172 70.7314L84.7666 72.001C83.5225 71.5693 82.6782 70.7759 82.1895 69.7349C81.6816 70.9409 80.7485 71.8867 79.3584 72.3564L78.5078 71.0615C80.4819 70.4268 81.3325 68.8779 81.3389 67.2656V66.2119H82.9766V67.1895ZM80.4248 74.9336C80.4248 73.5117 81.9355 72.6802 84.3984 72.6865C86.8677 72.6802 88.3784 73.5117 88.3848 74.9336C88.3784 76.3618 86.8677 77.1743 84.3984 77.168C81.9355 77.1743 80.4248 76.3618 80.4248 74.9336ZM82.0371 74.9336C82.0371 75.5747 82.8687 75.9111 84.3984 75.9111C85.9346 75.9111 86.7661 75.5747 86.7725 74.9336C86.7661 74.2734 85.9346 73.9434 84.3984 73.9434C82.8687 73.9434 82.0371 74.2734 82.0371 74.9336ZM84.5635 69.0557V67.7354H86.7344V65.6152H88.3467V72.3818H86.7344V69.0557H84.5635ZM93.5898 66.3896C95.4243 66.3833 96.7827 67.564 96.7891 69.2207C96.7827 70.8838 95.4243 72.0581 93.5898 72.0645C91.7681 72.0581 90.3716 70.8838 90.3779 69.2207C90.3716 67.564 91.7681 66.3833 93.5898 66.3896ZM89.8955 73.5117C91.9585 73.5181 94.8149 73.4927 97.2842 73.1436L97.4111 74.3115C94.8467 74.813 92.1045 74.832 90.0859 74.832L89.8955 73.5117ZM91.9902 69.2207C91.9839 70.1348 92.6758 70.6616 93.5898 70.6553C94.5103 70.6616 95.2085 70.1348 95.2148 69.2207C95.2085 68.3193 94.5103 67.7861 93.5898 67.7861C92.6758 67.7861 91.9839 68.3193 91.9902 69.2207ZM97.9443 77.1934V65.6152H99.5566V77.1934H97.9443ZM113.242 65.6152V68.332H114.804V69.6523H113.242V72.3184H111.617V65.6152H113.242ZM104 71.2646C106.545 70.5918 107.999 69.2715 108.253 67.6719H104.546V66.377H110.018C110.024 69.4556 108.088 71.6138 104.647 72.5723L104 71.2646ZM105.562 74.8193C105.549 73.3721 107.123 72.458 109.472 72.458C111.827 72.458 113.363 73.3721 113.369 74.8193C113.363 76.2793 111.827 77.1807 109.472 77.1807C107.123 77.1807 105.549 76.2793 105.562 74.8193ZM107.161 74.8193C107.155 75.5176 108.018 75.9175 109.472 75.9111C110.906 75.9175 111.77 75.5176 111.77 74.8193C111.77 74.1084 110.906 73.7148 109.472 73.7148C108.018 73.7148 107.155 74.1084 107.161 74.8193ZM124.554 65.6152V70.3125H126.064V71.6582H124.554V77.168H122.916V65.6152H124.554ZM115.172 73.9053C116.016 73.9053 117 73.9053 118.028 73.8799V72.8896C116.803 72.6484 116.003 71.8677 116.01 70.7949C116.003 69.5063 117.171 68.624 118.854 68.624C120.504 68.624 121.685 69.5063 121.697 70.7949C121.685 71.8677 120.872 72.6548 119.653 72.8896V73.8228C120.567 73.772 121.488 73.6958 122.345 73.5752L122.446 74.7559C119.99 75.2129 117.336 75.2319 115.388 75.2256L115.172 73.9053ZM115.4 68.167V66.8975H118.028V65.6787H119.653V66.8975H122.256V68.167H115.4ZM117.546 70.7949C117.54 71.4043 118.06 71.7344 118.854 71.7344C119.622 71.7344 120.136 71.4043 120.136 70.7949C120.136 70.1982 119.622 69.8618 118.854 69.8555C118.06 69.8618 117.54 70.1982 117.546 70.7949Z" fill="#445080"/>
<path d="M57.3574 94.4434C57.3525 96.0303 58.4316 97.6221 59.7109 98.2031L59.2422 98.8086C58.251 98.3301 57.3965 97.2998 56.9814 96.0645C56.5811 97.373 55.7266 98.4717 54.7109 98.9844L54.2227 98.3398C55.5166 97.749 56.5859 96.0889 56.5957 94.4434V92.8613H57.3574V94.4434ZM60.6582 100.811V92.1094H61.4297V100.811H60.6582ZM67.4453 92.8711V96.8945H63.373V92.8711H67.4453ZM64.125 96.2793H66.6934V93.5059H64.125V96.2793ZM64.4766 100.498V97.7539H65.2383V99.8633H70.3555V100.498H64.4766ZM69.3203 98.3594V92.1191H70.082V98.3594H69.3203ZM76.6543 93.8379C76.6592 94.7998 77.3281 95.7715 78.4414 96.1914L78.041 96.7773C77.2061 96.4551 76.6055 95.835 76.293 95.0879C75.9756 95.9131 75.3506 96.6504 74.4961 97.0215L74.0762 96.4258C75.2188 95.9277 75.917 94.8047 75.9219 93.8379V92.6562H76.6543V93.8379ZM75.6582 99.2285C75.6484 98.2471 76.7617 97.6709 78.5684 97.6758C80.3652 97.6709 81.4834 98.2471 81.4883 99.2285C81.4834 100.2 80.3652 100.771 78.5684 100.771C76.7617 100.771 75.6484 100.2 75.6582 99.2285ZM76.4199 99.2285C76.4102 99.8193 77.2354 100.181 78.5684 100.176C79.8867 100.181 80.7168 99.8193 80.7266 99.2285C80.7168 98.6279 79.8867 98.2666 78.5684 98.2617C77.2354 98.2666 76.4102 98.6279 76.4199 99.2285ZM78.832 97.207V92.2852H79.5547V94.4531H80.707V92.1191H81.4395V97.4805H80.707V95.0879H79.5547V97.207H78.832ZM89.4863 92.1094V94.3359H90.7852V94.9902H89.4863V97.2363H88.7148V92.1094H89.4863ZM82.6699 96.4551C83.3633 96.4551 84.1738 96.4551 85.0234 96.4307V95.8936C84.0029 95.8105 83.3584 95.4053 83.3633 94.7461C83.3584 94.0332 84.1592 93.6182 85.3945 93.623C86.6299 93.6182 87.4258 94.0332 87.4355 94.7461C87.4258 95.4004 86.7959 95.8057 85.7852 95.8936V96.4014C86.5957 96.3623 87.416 96.2988 88.1777 96.1914L88.2461 96.709C86.3711 97.0166 84.2861 97.0312 82.7578 97.0312L82.6699 96.4551ZM82.8848 93.3301V92.7734H85.0234V92.0312H85.7852V92.7734H87.9141V93.3301H82.8848ZM83.832 98.1738V97.627H89.4863V99.375H84.6133V100.146H89.8184V100.693H83.8516V98.8574H88.7246V98.1738H83.832ZM84.0957 94.7461C84.0908 95.1367 84.5938 95.3857 85.3945 95.3906C86.1953 95.3857 86.7031 95.1367 86.7031 94.7461C86.7031 94.3652 86.1953 94.1357 85.3945 94.1309C84.5938 94.1357 84.0908 94.3652 84.0957 94.7461ZM96.166 93.0762V93.5254C96.1611 94.2139 96.1611 95.3613 95.9121 96.9727L95.1406 96.9043C95.3799 95.4492 95.3994 94.3945 95.3945 93.7012H91.752V93.0762H96.166ZM91.2637 98.2422C91.835 98.2373 92.4697 98.2324 93.1387 98.2178V95.5566H93.8906V98.1934C94.8525 98.1592 95.8389 98.0957 96.7422 97.9883L96.7812 98.5645C94.9551 98.8477 92.9141 98.8867 91.3613 98.877L91.2637 98.2422ZM97.2891 100.791V92.1094H98.0508V95.7422H99.457V96.4062H98.0508V100.791H97.2891ZM107.035 92.5977V96.1328H102.963V92.5977H107.035ZM103.715 95.5273H106.283V93.2227H103.715V95.5273ZM104.027 97.6367V97.0215H109.662V99.0918H104.799V100.068H109.975V100.693H104.037V98.5254H108.91V97.6367H104.027ZM108.91 96.5918V92.1094H109.662V96.5918H108.91ZM118.334 92.1094V96.8262H117.572V94.8633H115.814V94.2188H117.572V92.1094H118.334ZM111.186 96.3672C112.465 95.9033 113.393 94.7559 113.393 93.5254V93.2715H111.43V92.6367H116.107V93.2715H114.164V93.5254C114.164 94.6387 115.033 95.7324 116.303 96.1719L115.902 96.7676C114.926 96.4111 114.169 95.6836 113.793 94.7949C113.422 95.791 112.616 96.5967 111.586 96.9727L111.186 96.3672ZM112.748 100.674V97.2461H113.52V98.3301H117.572V97.2461H118.334V100.674H112.748ZM113.52 100.049H117.572V98.9453H113.52V100.049ZM126.576 92.1191V94.9805H127.885V95.625H126.576V98.623H125.814V92.1191H126.576ZM119.809 93.8086V93.1836H122.016V92.1191H122.777V93.1836H124.984V93.8086H119.809ZM120.307 95.9082C120.302 94.9219 121.142 94.2871 122.396 94.2871C123.637 94.2871 124.477 94.9219 124.486 95.9082C124.477 96.8848 123.637 97.5146 122.396 97.5098C121.142 97.5146 120.302 96.8848 120.307 95.9082ZM121.039 95.9082C121.034 96.5186 121.576 96.9141 122.396 96.9043C123.207 96.9141 123.754 96.5186 123.764 95.9082C123.754 95.2881 123.207 94.8877 122.396 94.8926C121.576 94.8877 121.034 95.2881 121.039 95.9082ZM121.146 100.605V98.1055H121.898V99.9609H126.977V100.605H121.146ZM48.7588 108.34C48.7539 109.502 50.3018 110.488 51.8154 110.713L51.5322 111.318C50.1797 111.089 48.8564 110.366 48.3291 109.321C47.8018 110.366 46.4785 111.089 45.1455 111.318L44.8428 110.713C46.3516 110.488 47.8945 109.502 47.8994 108.34V108.281H45.1162V107.656H51.5322V108.281H48.7588V108.34ZM44.374 112.695V112.061H52.2842V112.695H48.6904V115.791H47.9385V112.695H44.374ZM60.9658 114.033V114.678H53.0166V114.033H54.9893V111.694C54.2471 111.309 53.7979 110.684 53.7979 109.893C53.7979 108.55 55.1162 107.666 56.9717 107.656C58.8271 107.666 60.1455 108.55 60.1455 109.893C60.1455 110.669 59.7109 111.284 58.9932 111.67V114.033H60.9658ZM54.54 109.893C54.5352 110.864 55.5459 111.514 56.9717 111.514C58.3828 111.514 59.4033 110.864 59.4033 109.893C59.4033 108.921 58.3828 108.281 56.9717 108.291C55.5459 108.281 54.5352 108.921 54.54 109.893ZM55.7412 114.033H58.2217V111.968C57.8457 112.065 57.4258 112.119 56.9717 112.119C56.5273 112.119 56.1123 112.07 55.7412 111.973V114.033ZM67.0791 109.443C67.0791 110.972 68.0898 112.549 69.3252 113.154L68.8564 113.77C67.8994 113.271 67.0986 112.241 66.7129 111.035C66.3271 112.314 65.5068 113.413 64.5303 113.936L64.042 113.32C65.3115 112.695 66.3174 111.03 66.3271 109.443V107.861H67.0791V109.443ZM70.126 115.791V107.109H70.8877V110.635H72.3428V111.299H70.8877V115.791H70.126ZM75.2041 107.52C76.3662 107.515 77.2549 108.193 77.4209 109.189H79.2373V107.109H80.0088V111.768H79.2373V109.824H77.4258C77.2744 110.85 76.3809 111.533 75.2041 111.533C73.8809 111.533 72.9434 110.713 72.9482 109.521C72.9434 108.345 73.8809 107.515 75.2041 107.52ZM73.6807 109.521C73.6807 110.312 74.3105 110.884 75.2041 110.889C76.0781 110.884 76.708 110.312 76.708 109.521C76.708 108.721 76.0781 108.164 75.2041 108.174C74.3105 108.164 73.6807 108.721 73.6807 109.521ZM74.4131 115.674V112.207H75.1846V113.311H79.2373V112.207H80.0088V115.674H74.4131ZM75.1846 115.049H79.2373V113.926H75.1846V115.049ZM85.4092 107.266C87.3379 107.266 88.4707 107.798 88.4756 108.76C88.4707 109.746 87.3379 110.278 85.4092 110.283C83.4707 110.278 82.333 109.746 82.333 108.76C82.333 107.798 83.4707 107.266 85.4092 107.266ZM81.4541 111.494V110.869H89.3643V111.494H81.4541ZM82.4111 112.832V112.246H88.3486V114.189H83.1924V115.088H88.6123V115.693H82.4307V113.623H87.5967V112.832H82.4111ZM83.1338 108.76C83.124 109.365 83.9688 109.697 85.4092 109.697C86.8496 109.697 87.6895 109.365 87.6943 108.76C87.6895 108.188 86.8496 107.847 85.4092 107.842C83.9688 107.847 83.124 108.188 83.1338 108.76ZM99.8037 107.109V112.256H99.0322V110.889H97.001V111.631H93.0166V107.773H97.001V108.525H99.0322V107.109H99.8037ZM93.7783 111.006H96.249V108.398H93.7783V111.006ZM94.0127 114.15C94.0078 113.105 95.1162 112.505 96.9229 112.51C98.7246 112.505 99.833 113.105 99.833 114.15C99.833 115.186 98.7246 115.771 96.9229 115.771C95.1162 115.771 94.0078 115.186 94.0127 114.15ZM94.7744 114.15C94.7695 114.78 95.5898 115.166 96.9229 115.166C98.251 115.166 99.0713 114.78 99.0713 114.15C99.0713 113.496 98.251 113.115 96.9229 113.105C95.5898 113.115 94.7695 113.496 94.7744 114.15ZM97.001 110.244H99.0322V109.16H97.001V110.244ZM108.026 107.119V109.746H109.325V110.391H108.026V112.939H107.255V107.119H108.026ZM101.21 112.051C101.903 112.051 102.714 112.051 103.563 112.026V111.387C102.553 111.294 101.898 110.83 101.903 110.107C101.898 109.316 102.714 108.828 103.935 108.828C105.165 108.828 105.966 109.316 105.976 110.107C105.966 110.825 105.331 111.289 104.325 111.387V111.997C105.136 111.958 105.956 111.89 106.718 111.777L106.786 112.334C104.901 112.666 102.826 112.681 101.298 112.676L101.21 112.051ZM101.425 108.496V107.91H103.563V107.041H104.325V107.91H106.454V108.496H101.425ZM102.274 113.984V113.369H108.026V115.791H107.255V113.984H102.274ZM102.636 110.107C102.631 110.562 103.134 110.869 103.935 110.859C104.735 110.869 105.243 110.562 105.243 110.107C105.243 109.648 104.735 109.365 103.935 109.375C103.134 109.365 102.631 109.648 102.636 110.107ZM117.05 107.109V115.791H116.278V107.109H117.05ZM110.087 109.15V108.525H112.323V107.197H113.095V108.525H115.341V109.15H110.087ZM110.575 111.855C110.57 110.684 111.474 109.863 112.733 109.863C113.979 109.863 114.887 110.684 114.882 111.855C114.887 113.032 113.979 113.848 112.733 113.848C111.474 113.848 110.57 113.032 110.575 111.855ZM111.298 111.855C111.303 112.646 111.903 113.203 112.733 113.193C113.554 113.203 114.154 112.646 114.149 111.855C114.154 111.069 113.554 110.503 112.733 110.508C111.903 110.503 111.303 111.069 111.298 111.855ZM127.831 107.109V109.756H129.14V110.4H127.831V113.516H127.069V107.109H127.831ZM121.21 109.863C121.205 108.604 122.191 107.729 123.485 107.725C124.789 107.729 125.761 108.604 125.771 109.863C125.761 111.118 124.789 112.002 123.485 112.002C122.191 112.002 121.205 111.118 121.21 109.863ZM121.962 109.863C121.957 110.718 122.626 111.328 123.485 111.328C124.359 111.328 125.014 110.718 125.019 109.863C125.014 109.004 124.359 108.398 123.485 108.398C122.626 108.398 121.957 109.004 121.962 109.863ZM122.401 115.605V112.852H123.153V114.961H128.231V115.605H122.401ZM137.099 107.109V115.791H136.347V111.299H135.097V115.342H134.374V107.305H135.097V110.645H136.347V107.109H137.099ZM130.126 113.545V108.174H130.888V112.861C131.747 112.856 132.675 112.793 133.729 112.578L133.827 113.262C132.616 113.481 131.62 113.545 130.663 113.545H130.126Z" fill="#717680"/>
<rect x="165" width="180" height="180" rx="90" fill="#F3F6FF"/>
<path d="M229.876 65.6152V71.9375H228.264V69.5254H226.436V68.2051H228.264V65.6152H229.876ZM220.075 70.8711C221.897 70.2617 222.767 68.8652 222.849 67.4561H220.532V66.1357H226.804V67.4561H224.512C224.582 68.7446 225.414 70.0776 227.159 70.6553L226.359 71.8994C225.083 71.4805 224.201 70.6489 223.7 69.6143C223.186 70.7695 222.265 71.6963 220.9 72.1406L220.075 70.8711ZM222.17 77.041V72.3818H223.77V73.4736H228.264V72.3818H229.876V77.041H222.17ZM223.77 75.7461H228.264V74.7178H223.77V75.7461ZM240.692 66.2627V67.2402C240.699 68.2178 240.699 69.3159 240.438 70.7314H241.949V72.0264H231.374V70.7314H238.788C239.042 69.4429 239.074 68.4717 239.08 67.5576H232.669V66.2627H240.692ZM232.72 76.9521V73.042H234.319V75.6572H241.022V76.9521H232.72ZM246.977 67.1895C246.97 68.7319 247.764 70.1602 249.617 70.7314L248.767 72.001C247.522 71.5693 246.678 70.7759 246.189 69.7349C245.682 70.9409 244.749 71.8867 243.358 72.3564L242.508 71.0615C244.482 70.4268 245.333 68.8779 245.339 67.2656V66.2119H246.977V67.1895ZM244.425 74.9336C244.425 73.5117 245.936 72.6802 248.398 72.6865C250.868 72.6802 252.378 73.5117 252.385 74.9336C252.378 76.3618 250.868 77.1743 248.398 77.168C245.936 77.1743 244.425 76.3618 244.425 74.9336ZM246.037 74.9336C246.037 75.5747 246.869 75.9111 248.398 75.9111C249.935 75.9111 250.766 75.5747 250.772 74.9336C250.766 74.2734 249.935 73.9434 248.398 73.9434C246.869 73.9434 246.037 74.2734 246.037 74.9336ZM248.563 69.0557V67.7354H250.734V65.6152H252.347V72.3818H250.734V69.0557H248.563ZM257.59 66.3896C259.424 66.3833 260.783 67.564 260.789 69.2207C260.783 70.8838 259.424 72.0581 257.59 72.0645C255.768 72.0581 254.372 70.8838 254.378 69.2207C254.372 67.564 255.768 66.3833 257.59 66.3896ZM253.896 73.5117C255.958 73.5181 258.815 73.4927 261.284 73.1436L261.411 74.3115C258.847 74.813 256.104 74.832 254.086 74.832L253.896 73.5117ZM255.99 69.2207C255.984 70.1348 256.676 70.6616 257.59 70.6553C258.51 70.6616 259.208 70.1348 259.215 69.2207C259.208 68.3193 258.51 67.7861 257.59 67.7861C256.676 67.7861 255.984 68.3193 255.99 69.2207ZM261.944 77.1934V65.6152H263.557V77.1934H261.944ZM278.74 67.3037V68.6113H277.242V69.792H278.74V71.1123H277.242V72.9531H275.617V65.6152H277.242V67.3037H278.74ZM268.076 67.9766V66.7197H270.704V65.5518H272.316V66.7197H274.932V67.9766H268.076ZM268.635 70.4521C268.635 69.2207 269.803 68.3765 271.504 68.3701C273.186 68.3765 274.348 69.2207 274.348 70.4521C274.348 71.6963 273.186 72.5215 271.504 72.5215C269.809 72.5215 268.635 71.6963 268.635 70.4521ZM269.562 75.124C269.549 73.8228 271.041 73.061 273.472 73.0547C275.846 73.061 277.363 73.8228 277.369 75.124C277.363 76.3936 275.846 77.1743 273.472 77.168C271.041 77.1743 269.549 76.3936 269.562 75.124ZM270.222 70.4521C270.215 71.0234 270.729 71.3218 271.504 71.3154C272.285 71.3218 272.812 71.0234 272.812 70.4521C272.812 69.8745 272.285 69.5571 271.504 69.5508C270.729 69.5571 270.215 69.8745 270.222 70.4521ZM271.161 75.124C271.155 75.6636 271.955 75.9619 273.472 75.9619C274.944 75.9619 275.744 75.6636 275.744 75.124C275.744 74.5464 274.944 74.2925 273.472 74.2861C271.955 74.2925 271.155 74.5464 271.161 75.124ZM283.526 67.4307C283.52 68.8335 284.339 70.1792 286.167 70.7441L285.304 72.001C284.079 71.5947 283.222 70.8076 282.727 69.7983C282.225 70.96 281.33 71.874 280.01 72.3184L279.134 71.0488C281.063 70.4077 281.889 68.8716 281.901 67.2783V66.2246H283.526V67.4307ZM280.733 74.9336C280.727 73.5308 282.257 72.6992 284.694 72.6992C287.087 72.6992 288.585 73.5308 288.592 74.9336C288.585 76.3491 287.087 77.1743 284.694 77.168C282.257 77.1743 280.727 76.3491 280.733 74.9336ZM282.358 74.9336C282.346 75.5874 283.177 75.8984 284.694 75.8984C286.192 75.8984 286.992 75.5874 286.992 74.9336C286.992 74.3052 286.192 73.9688 284.694 73.9688C283.177 73.9688 282.346 74.3052 282.358 74.9336ZM286.853 72.4707V65.6152H288.478V68.3193H290.039V69.665H288.478V72.4707H286.853Z" fill="#445080"/>
<path d="M217.075 93.7207C217.08 94.8877 218.003 95.9521 219.302 96.377L218.911 96.9727C217.9 96.6309 217.1 95.918 216.704 95C216.323 95.9863 215.513 96.7676 214.478 97.1387L214.077 96.543C215.381 96.084 216.299 94.9512 216.304 93.7207V93.3496H214.272V92.7246H219.077V93.3496H217.075V93.7207ZM215.278 98.457V97.8223H221.118V100.791H220.356V98.457H215.278ZM220.356 97.3633V92.1094H221.118V97.3633H220.356ZM227.407 92.7832V93.2422C227.402 93.8135 227.402 94.6777 227.183 95.8105L226.411 95.752C226.621 94.7168 226.641 93.9795 226.65 93.4277H223.081V92.7832H227.407ZM222.544 96.6211C223.105 96.6211 223.74 96.6162 224.409 96.5967V94.707H225.171V96.5723C226.133 96.5332 227.129 96.4648 228.032 96.3379L228.081 96.9043C226.26 97.2168 224.17 97.251 222.622 97.2559L222.544 96.6211ZM223.882 100.605V98.0566H224.653V99.9609H229.683V100.605H223.882ZM228.618 98.6426V92.1094H229.399V94.9414H230.669V95.5957H229.399V98.6426H228.618ZM234.253 93.7109C234.253 94.8389 235.122 95.918 236.392 96.3574L235.991 96.9629C235.015 96.6113 234.258 95.8838 233.887 94.9902C233.511 95.9863 232.705 96.7871 231.675 97.168L231.274 96.5625C232.554 96.1035 233.481 94.9463 233.481 93.7207V93.3398H231.519V92.7148H236.196V93.3398H234.253V93.7109ZM232.593 98.4082V97.7734H238.433V100.791H237.661V98.4082H232.593ZM235.923 95.0293V94.3848H237.661V92.1094H238.433V97.3145H237.661V95.0293H235.923ZM247.046 92.1191V98.4668H246.284V92.1191H247.046ZM240.083 94.8535C240.078 93.6035 241.06 92.7295 242.358 92.7246C243.657 92.7295 244.629 93.6035 244.634 94.8535C244.629 96.1182 243.657 96.9971 242.358 96.9922C241.06 96.9971 240.078 96.1182 240.083 94.8535ZM240.835 94.8535C240.825 95.7178 241.479 96.3184 242.358 96.3184C243.223 96.3184 243.882 95.7178 243.882 94.8535C243.882 94.0039 243.223 93.3984 242.358 93.3984C241.479 93.3984 240.825 94.0039 240.835 94.8535ZM241.44 100.605V97.8223H242.202V99.9609H247.319V100.605H241.44ZM258.228 92.1094V97.2852H257.456V95.0098H255.708V94.375H257.456V92.1094H258.228ZM251.069 96.5918C252.358 96.1279 253.276 94.9512 253.276 93.7109V93.3887H251.313V92.7441H255.991V93.3887H254.048V93.7012C254.048 94.834 254.917 95.9131 256.187 96.3477L255.786 96.9629C254.814 96.6113 254.058 95.8789 253.682 94.9854C253.311 96.001 252.505 96.8115 251.47 97.207L251.069 96.5918ZM252.437 99.1699C252.432 98.1494 253.54 97.5537 255.347 97.5586C257.148 97.5537 258.257 98.1494 258.257 99.1699C258.257 100.195 257.148 100.781 255.347 100.791C253.54 100.781 252.432 100.195 252.437 99.1699ZM253.198 99.1699C253.193 99.7998 254.014 100.181 255.347 100.176C256.675 100.181 257.495 99.7998 257.495 99.1699C257.495 98.5352 256.675 98.1543 255.347 98.1543C254.014 98.1543 253.193 98.5352 253.198 99.1699ZM267.622 99.043V99.6777H259.673V99.043H263.247V97.168H260.61V92.7246H261.382V94.2969H265.894V92.7246H266.646V97.168H263.999V99.043H267.622ZM261.382 96.543H265.894V94.9219H261.382V96.543ZM277.69 92.6758V93.4375C277.69 94.2578 277.69 95.1611 277.441 96.4062H278.735V97.041H275.151V100.811H274.38V97.041H270.825V96.4062H276.665C276.929 95.1562 276.929 94.248 276.929 93.4375V93.3105H271.821V92.6758H277.69ZM287.417 99.0332V99.6777H279.468V99.0332H283.052V96.9238H283.823V99.0332H287.417ZM279.858 96.6113C281.328 96.3623 283.032 95.1465 283.032 93.7598V93.5449H280.122V92.9004H286.733V93.5449H283.823V93.7598C283.828 95.1465 285.537 96.3379 287.036 96.582L286.724 97.1875C285.396 96.9238 283.994 96.0791 283.438 94.8779C282.881 96.0938 281.484 96.958 280.181 97.2266L279.858 96.6113ZM290.728 92.6758C292.061 92.6855 293.037 93.5059 293.042 94.7168C293.037 95.8057 292.246 96.5771 291.118 96.7236V98.1982C291.929 98.1641 292.744 98.1055 293.501 98.0078L293.55 98.584C291.709 98.8965 289.658 98.916 288.13 98.9062L288.003 98.2617C288.701 98.2568 289.507 98.252 290.347 98.2275V96.7236C289.194 96.5869 288.408 95.8105 288.413 94.7168C288.408 93.5059 289.37 92.6855 290.728 92.6758ZM289.165 94.7168C289.155 95.5322 289.814 96.0986 290.728 96.0938C291.626 96.0986 292.28 95.5322 292.29 94.7168C292.28 93.9014 291.626 93.3447 290.728 93.3398C289.814 93.3447 289.155 93.9014 289.165 94.7168ZM294.058 100.791V92.1094H294.819V95.6934H296.235V96.3574H294.819V100.791H294.058ZM207.534 110.039V110.674H201.548V107.559H202.31V110.039H207.534ZM200.522 112.627V111.982H208.472V112.627H204.839V115.791H204.077V112.627H200.522ZM216.03 107.676V108.438C216.03 109.258 216.03 110.161 215.781 111.406H217.075V112.041H213.491V115.811H212.72V112.041H209.165V111.406H215.005C215.269 110.156 215.269 109.248 215.269 108.438V108.311H210.161V107.676H216.03ZM225.933 110.576V111.221H224.526V115.791H223.765V107.109H224.526V110.576H225.933ZM218.169 113.584V107.969H218.931V112.939C220.2 112.939 221.494 112.842 222.925 112.539L223.022 113.193C221.523 113.496 220.176 113.584 218.862 113.584H218.169ZM231.108 112.52V113.467H235.317V112.52H236.069V115.674H230.347V112.52H231.108ZM228.97 110.918C230.62 110.918 232.803 110.918 234.712 110.674L234.761 111.221C233.975 111.353 233.164 111.431 232.368 111.479V112.783H231.606V111.519C230.693 111.553 229.829 111.553 229.077 111.553L228.97 110.918ZM229.36 109.775C230.625 109.482 231.504 108.696 231.509 107.764V107.324H232.29V107.764C232.29 108.652 233.179 109.385 234.429 109.658L234.097 110.244C233.081 110.015 232.285 109.482 231.904 108.755C231.538 109.531 230.742 110.117 229.712 110.381L229.36 109.775ZM231.108 115.049H235.317V114.072H231.108V115.049ZM235.308 112.1V107.119H236.069V112.1H235.308ZM245.034 107.109V115.791H244.302V107.109H245.034ZM237.612 113.359C239.497 112.241 240.444 110.674 240.591 108.857H237.983V108.223H241.353C241.353 109.077 241.216 109.902 240.918 110.674H242.476V107.344H243.208V115.352H242.476V111.299H240.635C240.112 112.31 239.272 113.203 238.062 113.916L237.612 113.359ZM255.913 107.109V115.811H255.142V107.109H255.913ZM249.077 110.811C249.082 108.965 250 107.788 251.294 107.783C252.583 107.788 253.516 108.965 253.511 110.811C253.516 112.661 252.583 113.833 251.294 113.828C250 113.833 249.082 112.661 249.077 110.811ZM249.819 110.811C249.819 112.222 250.425 113.149 251.294 113.145C252.168 113.149 252.769 112.222 252.769 110.811C252.769 109.399 252.168 108.472 251.294 108.467C250.425 108.472 249.819 109.399 249.819 110.811ZM265.308 111.406V112.041H257.397V111.406H259.36V110.181C258.667 109.912 258.276 109.473 258.276 108.887C258.276 107.866 259.448 107.28 261.353 107.275C263.242 107.28 264.414 107.866 264.419 108.887C264.414 109.468 264.028 109.907 263.345 110.181V111.406H265.308ZM258.354 114.238C258.35 113.247 259.468 112.7 261.353 112.705C263.213 112.7 264.331 113.247 264.341 114.238C264.331 115.229 263.213 115.771 261.353 115.771C259.468 115.771 258.35 115.229 258.354 114.238ZM259.067 108.887C259.062 109.521 259.932 109.888 261.353 109.893C262.759 109.888 263.633 109.521 263.638 108.887C263.633 108.262 262.759 107.881 261.353 107.881C259.932 107.881 259.062 108.262 259.067 108.887ZM259.136 114.238C259.126 114.829 259.961 115.181 261.353 115.176C262.729 115.181 263.564 114.829 263.569 114.238C263.564 113.647 262.729 113.301 261.353 113.291C259.961 113.301 259.126 113.647 259.136 114.238ZM260.122 111.406H262.583V110.386C262.217 110.454 261.807 110.488 261.353 110.488C260.898 110.488 260.488 110.454 260.122 110.391V111.406ZM275.269 107.109V110.645H276.675V111.289H275.269V115.791H274.507V107.109H275.269ZM268.608 113.535C270.85 112.422 272.07 110.747 272.246 108.691H269.009V108.047H273.022C273.018 110.503 271.865 112.744 269.038 114.141L268.608 113.535ZM284.204 109.541V110.176H278.276V107.285H279.038V109.541H284.204ZM277.192 111.826V111.191H285.112V111.826H277.192ZM278.149 114.18C278.145 113.169 279.272 112.603 281.147 112.607C283.008 112.603 284.126 113.169 284.136 114.18C284.126 115.186 283.008 115.752 281.147 115.752C279.272 115.752 278.145 115.186 278.149 114.18ZM278.931 114.18C278.921 114.785 279.756 115.151 281.147 115.156C282.524 115.151 283.359 114.785 283.364 114.18C283.359 113.564 282.524 113.218 281.147 113.213C279.756 113.218 278.921 113.564 278.931 114.18ZM292.622 107.119V109.98H293.931V110.625H292.622V113.623H291.86V107.119H292.622ZM285.854 108.809V108.184H288.062V107.119H288.823V108.184H291.03V108.809H285.854ZM286.353 110.908C286.348 109.922 287.188 109.287 288.442 109.287C289.683 109.287 290.522 109.922 290.532 110.908C290.522 111.885 289.683 112.515 288.442 112.51C287.188 112.515 286.348 111.885 286.353 110.908ZM287.085 110.908C287.08 111.519 287.622 111.914 288.442 111.904C289.253 111.914 289.8 111.519 289.81 110.908C289.8 110.288 289.253 109.888 288.442 109.893C287.622 109.888 287.08 110.288 287.085 110.908ZM287.192 115.605V113.105H287.944V114.961H293.022V115.605H287.192ZM302.046 107.93H302.925V112.607C302.925 114.062 301.836 115.122 300.171 115.127C298.501 115.122 297.417 114.062 297.417 112.607V107.93H298.296V112.539C298.291 113.564 299.004 114.302 300.171 114.307C301.338 114.302 302.041 113.564 302.046 112.539V107.93ZM304.937 107.93L306.733 110.85H306.792L308.599 107.93H309.634L307.417 111.465L309.634 115H308.599L306.792 112.139H306.733L304.927 115H303.892L306.167 111.465L303.892 107.93H304.937Z" fill="#717680"/>
<rect x="329" width="180" height="180" rx="90" fill="#EEF2FF"/>
<path d="M381.631 72.458V73.7783H377.125V77.168H375.525V73.7783H371.056V72.458H381.631ZM372.389 71.6201V66.085H380.375V67.3545H373.976V68.2178H380.133V69.4619H373.976V70.3379H380.501V71.6201H372.389ZM392.042 65.6152V72.3818H390.429V70.9092H388.271V71.7471H382.787V66.4658H388.271V67.3037H390.429V65.6152H392.042ZM384.12 74.9336C384.12 73.5117 385.63 72.6802 388.093 72.6865C390.562 72.6802 392.073 73.5117 392.08 74.9336C392.073 76.3618 390.562 77.1743 388.093 77.168C385.63 77.1743 384.12 76.3618 384.12 74.9336ZM384.399 70.4648H386.684V67.748H384.399V70.4648ZM385.732 74.9336C385.732 75.5938 386.563 75.9365 388.093 75.9365C389.629 75.9365 390.461 75.5938 390.467 74.9336C390.461 74.248 389.629 73.918 388.093 73.918C386.563 73.918 385.732 74.248 385.732 74.9336ZM388.271 69.6016H390.429V68.5859H388.271V69.6016ZM397.907 67.1895C397.9 68.7319 398.694 70.1602 400.547 70.7314L399.697 72.001C398.453 71.5693 397.608 70.7759 397.12 69.7349C396.612 70.9409 395.679 71.8867 394.289 72.3564L393.438 71.0615C395.412 70.4268 396.263 68.8779 396.269 67.2656V66.2119H397.907V67.1895ZM395.355 74.9336C395.355 73.5117 396.866 72.6802 399.329 72.6865C401.798 72.6802 403.309 73.5117 403.315 74.9336C403.309 76.3618 401.798 77.1743 399.329 77.168C396.866 77.1743 395.355 76.3618 395.355 74.9336ZM396.967 74.9336C396.967 75.5747 397.799 75.9111 399.329 75.9111C400.865 75.9111 401.696 75.5747 401.703 74.9336C401.696 74.2734 400.865 73.9434 399.329 73.9434C397.799 73.9434 396.967 74.2734 396.967 74.9336ZM399.494 69.0557V67.7354H401.665V65.6152H403.277V72.3818H401.665V69.0557H399.494ZM406.273 73.042C405.676 73.042 405.194 72.5659 405.207 71.9756C405.194 71.3916 405.676 70.9155 406.273 70.9219C406.838 70.9155 407.327 71.3916 407.327 71.9756C407.327 72.5659 406.838 73.042 406.273 73.042ZM418.118 65.6279V74.0576H416.493V65.6279H418.118ZM408.406 71.2012C410.342 70.5537 411.186 68.9478 411.186 67.3799V66.2627H412.875V67.3799C412.862 68.9097 413.681 70.4014 415.579 71.0107L414.753 72.2803C413.446 71.8486 412.551 70.9854 412.037 69.8872C411.516 71.0679 410.596 72.02 409.244 72.4834L408.406 71.2012ZM410.374 76.9648V73.2451H412.011V75.6699H418.422V76.9648H410.374ZM426.458 66.6182V70.0459H422.142V71.0488H426.725V72.3057H424.351V73.7402C425.291 73.7021 426.23 73.6387 427.119 73.5498L427.246 74.7305C424.719 75.1367 422.091 75.1558 419.92 75.124L419.73 73.8037C420.657 73.8101 421.679 73.8101 422.726 73.791V72.3057H420.517V68.8779H424.859V67.8877H420.504V66.6182H426.458ZM427.779 77.1934V65.6152H429.391V77.1934H427.779ZM435.282 67.1895C435.275 68.7319 436.069 70.1602 437.922 70.7314L437.072 72.001C435.828 71.5693 434.983 70.7759 434.495 69.7349C433.987 70.9409 433.054 71.8867 431.664 72.3564L430.813 71.0615C432.787 70.4268 433.638 68.8779 433.644 67.2656V66.2119H435.282V67.1895ZM432.73 74.9336C432.73 73.5117 434.241 72.6802 436.704 72.6865C439.173 72.6802 440.684 73.5117 440.69 74.9336C440.684 76.3618 439.173 77.1743 436.704 77.168C434.241 77.1743 432.73 76.3618 432.73 74.9336ZM434.342 74.9336C434.342 75.5747 435.174 75.9111 436.704 75.9111C438.24 75.9111 439.071 75.5747 439.078 74.9336C439.071 74.2734 438.24 73.9434 436.704 73.9434C435.174 73.9434 434.342 74.2734 434.342 74.9336ZM436.869 69.0557V67.7354H439.04V65.6152H440.652V72.3818H439.04V69.0557H436.869ZM454.388 65.6279V68.9287H455.861V70.2617H454.388V73.4736H452.763V65.6279H454.388ZM445.019 71.9883C445.863 71.9883 446.822 71.9883 447.825 71.9629V71.3154C446.568 71.1377 445.787 70.522 445.793 69.6396C445.787 68.5669 446.911 67.9067 448.625 67.9131C450.326 67.9067 451.449 68.5669 451.456 69.6396C451.449 70.522 450.675 71.1313 449.437 71.3091V71.9058C450.389 71.855 451.341 71.7852 452.23 71.6709L452.344 72.7881C449.9 73.2197 447.222 73.2451 445.184 73.2451L445.019 71.9883ZM445.324 67.6465V66.4658H447.825V65.5264H449.437V66.4658H451.938V67.6465H445.324ZM446.492 75.1875V73.9434H454.388V77.168H452.763V75.1875H446.492ZM447.342 69.6396C447.336 70.0586 447.799 70.3062 448.625 70.2998C449.437 70.3062 449.9 70.0586 449.907 69.6396C449.9 69.189 449.437 68.9922 448.625 68.9922C447.799 68.9922 447.336 69.189 447.342 69.6396ZM466.957 74.502V75.8223H456.381V74.502H460.837V72.3691H457.499V66.3516H459.124V68.1416H464.164V66.3516H465.776V72.3691H462.45V74.502H466.957ZM459.124 71.0742H464.164V69.4365H459.124V71.0742Z" fill="#445080"/>
<path d="M386.197 97.5977C388.058 97.5977 389.239 98.1836 389.244 99.1895C389.239 100.186 388.058 100.771 386.197 100.771C384.337 100.771 383.155 100.186 383.16 99.1895C383.155 98.1836 384.337 97.5977 386.197 97.5977ZM382.281 96.7871V96.1621H385.553V94.4824H386.305V96.1621H390.182V96.7871H382.281ZM383.219 93.1836V92.5586H389.176V93.291C389.171 93.9941 389.171 94.6973 388.932 95.5957L388.18 95.5078C388.414 94.6143 388.414 93.9697 388.414 93.291V93.1836H383.219ZM383.922 99.1895C383.917 99.7949 384.815 100.166 386.197 100.166C387.584 100.166 388.473 99.7949 388.482 99.1895C388.473 98.5693 387.584 98.1885 386.197 98.1836C384.815 98.1885 383.917 98.5693 383.922 99.1895ZM393.824 94.4434C393.824 95.9717 394.835 97.5488 396.07 98.1543L395.602 98.7695C394.645 98.2715 393.844 97.2412 393.458 96.0352C393.072 97.3145 392.252 98.4131 391.275 98.9355L390.787 98.3203C392.057 97.6953 393.062 96.0303 393.072 94.4434V92.8613H393.824V94.4434ZM396.871 100.791V92.1094H397.633V95.6348H399.088V96.2988H397.633V100.791H396.871ZM402.398 92.7441C403.761 92.749 404.728 93.5791 404.732 94.7852C404.728 95.9961 403.761 96.8213 402.398 96.8262C401.026 96.8213 400.05 95.9961 400.055 94.7852C400.05 93.5791 401.026 92.749 402.398 92.7441ZM399.605 98.2422C401.207 98.2471 403.419 98.2324 405.338 97.9492L405.396 98.5156C403.409 98.8867 401.275 98.8965 399.713 98.8965L399.605 98.2422ZM400.807 94.7852C400.802 95.5957 401.471 96.1523 402.398 96.1523C403.316 96.1523 403.985 95.5957 403.98 94.7852C403.985 93.9795 403.316 93.418 402.398 93.418C401.471 93.418 400.802 93.9795 400.807 94.7852ZM405.914 100.811V92.1094H406.676V100.811H405.914ZM413.619 94.4434C413.619 95.9717 414.63 97.5488 415.865 98.1543L415.396 98.7695C414.439 98.2715 413.639 97.2412 413.253 96.0352C412.867 97.3145 412.047 98.4131 411.07 98.9355L410.582 98.3203C411.852 97.6953 412.857 96.0303 412.867 94.4434V92.8613H413.619V94.4434ZM416.666 100.791V92.1094H417.428V95.6348H418.883V96.2988H417.428V100.791H416.666ZM421.744 92.5195C422.906 92.5146 423.795 93.1934 423.961 94.1895H425.777V92.1094H426.549V96.7676H425.777V94.8242H423.966C423.814 95.8496 422.921 96.5332 421.744 96.5332C420.421 96.5332 419.483 95.7129 419.488 94.5215C419.483 93.3447 420.421 92.5146 421.744 92.5195ZM420.221 94.5215C420.221 95.3125 420.851 95.8838 421.744 95.8887C422.618 95.8838 423.248 95.3125 423.248 94.5215C423.248 93.7207 422.618 93.1641 421.744 93.1738C420.851 93.1641 420.221 93.7207 420.221 94.5215ZM420.953 100.674V97.207H421.725V98.3105H425.777V97.207H426.549V100.674H420.953ZM421.725 100.049H425.777V98.9258H421.725V100.049ZM437.701 92.1094V97.2852H436.93V95.0098H435.182V94.375H436.93V92.1094H437.701ZM430.543 96.5918C431.832 96.1279 432.75 94.9512 432.75 93.7109V93.3887H430.787V92.7441H435.465V93.3887H433.521V93.7012C433.521 94.834 434.391 95.9131 435.66 96.3477L435.26 96.9629C434.288 96.6113 433.531 95.8789 433.155 94.9854C432.784 96.001 431.979 96.8115 430.943 97.207L430.543 96.5918ZM431.91 99.1699C431.905 98.1494 433.014 97.5537 434.82 97.5586C436.622 97.5537 437.73 98.1494 437.73 99.1699C437.73 100.195 436.622 100.781 434.82 100.791C433.014 100.781 431.905 100.195 431.91 99.1699ZM432.672 99.1699C432.667 99.7998 433.487 100.181 434.82 100.176C436.148 100.181 436.969 99.7998 436.969 99.1699C436.969 98.5352 436.148 98.1543 434.82 98.1543C433.487 98.1543 432.667 98.5352 432.672 99.1699ZM447.096 99.043V99.6777H439.146V99.043H442.721V97.168H440.084V92.7246H440.855V94.2969H445.367V92.7246H446.119V97.168H443.473V99.043H447.096ZM440.855 96.543H445.367V94.9219H440.855V96.543ZM450.406 92.6758C451.739 92.6855 452.716 93.5059 452.721 94.7168C452.716 95.8057 451.925 96.5771 450.797 96.7236V98.1982C451.607 98.1641 452.423 98.1055 453.18 98.0078L453.229 98.584C451.388 98.8965 449.337 98.916 447.809 98.9062L447.682 98.2617C448.38 98.2568 449.186 98.252 450.025 98.2275V96.7236C448.873 96.5869 448.087 95.8105 448.092 94.7168C448.087 93.5059 449.049 92.6855 450.406 92.6758ZM448.844 94.7168C448.834 95.5322 449.493 96.0986 450.406 96.0938C451.305 96.0986 451.959 95.5322 451.969 94.7168C451.959 93.9014 451.305 93.3447 450.406 93.3398C449.493 93.3447 448.834 93.9014 448.844 94.7168ZM453.736 100.791V92.1094H454.498V95.6934H455.914V96.3574H454.498V100.791H453.736ZM370.519 107.109V109.316H371.827V109.971H370.519V112.207H369.757V107.109H370.519ZM363.722 111.514C365.851 110.938 367.164 109.775 367.32 108.301H364.112V107.666H368.136C368.131 109.863 366.598 111.431 364.034 112.109L363.722 111.514ZM364.835 113.232V112.607H370.519V115.791H369.757V113.232H364.835ZM376.7 110.195V111.436H380.284V112.07H372.374V111.436H375.948V110.195H376.7ZM372.813 110.02C374.327 109.858 375.777 109.116 375.831 108.145H373.097V107.52H379.581V108.145H376.827C376.881 109.111 378.331 109.858 379.845 110.02L379.562 110.625C378.141 110.449 376.808 109.829 376.329 108.867C375.851 109.829 374.527 110.449 373.097 110.625L372.813 110.02ZM373.331 114.277C373.326 113.315 374.444 112.783 376.329 112.783C378.194 112.783 379.308 113.315 379.317 114.277C379.308 115.244 378.194 115.771 376.329 115.771C374.444 115.771 373.326 115.244 373.331 114.277ZM374.112 114.277C374.103 114.849 374.923 115.181 376.329 115.176C377.721 115.181 378.541 114.849 378.546 114.277C378.541 113.711 377.721 113.384 376.329 113.389C374.923 113.384 374.103 113.711 374.112 114.277ZM391.476 114.023V114.658H383.526V114.023H387.081V111.895H387.833V114.023H391.476ZM383.839 111.357C385.357 111.099 387.047 109.829 387.052 108.369V107.705H387.853V108.369C387.857 109.819 389.571 111.099 391.085 111.357L390.743 111.992C389.42 111.719 388.023 110.825 387.462 109.575C386.891 110.82 385.509 111.719 384.181 111.992L383.839 111.357ZM395.245 108.369C395.235 109.634 396.153 110.762 397.442 111.211L397.052 111.816C396.046 111.445 395.25 110.698 394.859 109.736C394.479 110.767 393.678 111.577 392.657 111.973L392.257 111.367C393.556 110.884 394.464 109.683 394.464 108.369V107.539H395.245V108.369ZM393.497 113.408V112.773H399.337V115.791H398.575V113.408H393.497ZM398.575 112.344V107.109H399.337V112.344H398.575ZM404.767 107.266C406.695 107.266 407.828 107.798 407.833 108.76C407.828 109.746 406.695 110.278 404.767 110.283C402.828 110.278 401.69 109.746 401.69 108.76C401.69 107.798 402.828 107.266 404.767 107.266ZM400.812 111.494V110.869H408.722V111.494H400.812ZM401.769 112.832V112.246H407.706V114.189H402.55V115.088H407.97V115.693H401.788V113.623H406.954V112.832H401.769ZM402.491 108.76C402.481 109.365 403.326 109.697 404.767 109.697C406.207 109.697 407.047 109.365 407.052 108.76C407.047 108.188 406.207 107.847 404.767 107.842C403.326 107.847 402.481 108.188 402.491 108.76ZM419.464 108.408V109.043H412.354V108.408H415.538V107.256H416.29V108.408H419.464ZM411.964 114.795V114.16H414.063V112.554C413.419 112.28 413.062 111.831 413.067 111.24C413.058 110.205 414.146 109.604 415.919 109.609C417.677 109.604 418.775 110.205 418.771 111.24C418.775 111.831 418.409 112.28 417.765 112.554V114.16H419.913V114.795H411.964ZM413.839 111.24C413.829 111.87 414.625 112.251 415.919 112.256C417.198 112.251 417.994 111.87 417.989 111.24C417.994 110.596 417.198 110.215 415.919 110.215C414.625 110.215 413.829 110.596 413.839 111.24ZM414.835 114.16H417.013V112.769C416.686 112.832 416.319 112.861 415.919 112.861C415.523 112.861 415.157 112.832 414.835 112.773V114.16ZM425.421 108.076V108.525C425.416 109.214 425.416 110.361 425.167 111.973L424.396 111.904C424.635 110.449 424.654 109.395 424.649 108.701H421.007V108.076H425.421ZM420.519 113.242C421.09 113.237 421.725 113.232 422.394 113.218V110.557H423.146V113.193C424.107 113.159 425.094 113.096 425.997 112.988L426.036 113.564C424.21 113.848 422.169 113.887 420.616 113.877L420.519 113.242ZM426.544 115.791V107.109H427.306V110.742H428.712V111.406H427.306V115.791H426.544ZM432.267 108.711C432.267 109.839 433.136 110.918 434.405 111.357L434.005 111.963C433.028 111.611 432.271 110.884 431.9 109.99C431.524 110.986 430.719 111.787 429.688 112.168L429.288 111.562C430.567 111.104 431.495 109.946 431.495 108.721V108.34H429.532V107.715H434.21V108.34H432.267V108.711ZM430.606 113.408V112.773H436.446V115.791H435.675V113.408H430.606ZM433.937 110.029V109.385H435.675V107.109H436.446V112.314H435.675V110.029H433.937ZM441.847 107.676C443.658 107.681 445.021 108.628 445.021 110.059C445.021 111.504 443.658 112.451 441.847 112.441C440.035 112.451 438.673 111.504 438.673 110.059C438.673 108.628 440.035 107.681 441.847 107.676ZM437.892 114.639V113.994H445.841V114.639H437.892ZM439.405 110.059C439.396 111.113 440.445 111.816 441.847 111.816C443.238 111.816 444.278 111.113 444.278 110.059C444.278 109.019 443.238 108.296 441.847 108.301C440.445 108.296 439.396 109.019 439.405 110.059ZM454.483 114.072V114.717H446.534V114.072H450.108V112.432H447.53V109.756H452.726V108.389H447.511V107.754H453.478V110.381H448.292V111.797H453.683V112.432H450.86V114.072H454.483ZM464.552 107.676V108.438C464.552 109.258 464.552 110.161 464.303 111.406H465.597V112.041H462.013V115.811H461.241V112.041H457.687V111.406H463.526C463.79 110.156 463.79 109.248 463.79 108.438V108.311H458.683V107.676H464.552ZM469.317 108.477C469.308 109.717 470.191 110.806 471.466 111.24L471.036 111.836C470.079 111.479 469.327 110.771 468.951 109.858C468.58 110.898 467.789 111.704 466.739 112.1L466.319 111.475C467.657 111.006 468.546 109.854 468.556 108.506V107.607H469.317V108.477ZM467.735 114.15C467.73 113.105 468.839 112.505 470.646 112.51C472.447 112.505 473.556 113.105 473.556 114.15C473.556 115.186 472.447 115.771 470.646 115.771C468.839 115.771 467.73 115.186 467.735 114.15ZM468.497 114.15C468.492 114.78 469.312 115.161 470.646 115.156C471.974 115.161 472.794 114.78 472.794 114.15C472.794 113.501 471.974 113.115 470.646 113.115C469.312 113.115 468.492 113.501 468.497 114.15ZM470.821 109.609V108.975H472.755V107.109H473.526V112.256H472.755V109.609H470.821Z" fill="#717680"/>
<rect x="1" y="215" width="508" height="114" rx="28" fill="url(#paint0_linear_267_24263)"/>
<rect x="1.5" y="215.5" width="507" height="113" rx="27.5" stroke="url(#paint1_linear_267_24263)" stroke-opacity="0.5"/>
<path d="M233.156 231.41V232.711H227.953V231.41H229.723V230.449H231.398V231.41H233.156ZM228.234 234.949C228.234 233.789 229.23 232.975 230.566 232.969C231.943 232.975 232.934 233.789 232.934 234.949C232.934 236.062 231.943 236.854 230.566 236.859C229.23 236.854 228.234 236.062 228.234 234.949ZM229.746 234.949C229.74 235.4 230.08 235.629 230.566 235.629C231.07 235.629 231.41 235.4 231.41 234.949C231.41 234.445 231.07 234.223 230.566 234.223C230.08 234.223 229.74 234.445 229.746 234.949ZM229.793 238.887V237.562H237.281V241.125H235.594V238.887H229.793ZM233.449 237.07V230.555H235.031V233.168H235.676V230.379H237.281V237.117H235.676V234.527H235.031V237.07H233.449ZM247.418 230.379V236.438H245.73V230.379H247.418ZM238.301 234.949C240.164 234.41 240.844 233.062 240.844 231.797V230.766H242.602V231.797C242.59 233.039 243.27 234.258 245.051 234.785L244.242 236.074C243.023 235.729 242.209 235.031 241.729 234.135C241.242 235.113 240.393 235.893 239.121 236.273L238.301 234.949ZM240.152 241.008V236.895H247.418V241.008H240.152ZM241.805 239.66H245.766V238.219H241.805V239.66ZM257.332 231.375C257.326 234.744 256.482 237.545 252.375 239.566L251.496 238.277C253.184 237.434 254.25 236.502 254.883 235.383L251.789 235.652L251.59 234.223L255.434 234.012C255.539 233.602 255.615 233.174 255.656 232.711H252.152V231.375H257.332ZM258.809 241.125V230.367H260.52V241.125H258.809ZM271.078 230.379V241.113H269.355V238.84H267.258V237.586H269.355V230.379H271.078ZM261.773 235.77C263.76 235.764 266.414 235.752 268.711 235.441L268.816 236.672C267.902 236.836 266.971 236.941 266.051 237.012V240.809H264.34V237.1C263.496 237.123 262.693 237.129 261.961 237.129L261.773 235.77ZM262.5 233.016C262.494 231.715 263.666 230.783 265.277 230.777C266.859 230.783 268.043 231.715 268.043 233.016C268.043 234.352 266.859 235.242 265.277 235.242C263.666 235.242 262.494 234.352 262.5 233.016ZM264.082 233.016C264.082 233.643 264.562 233.959 265.277 233.953C265.957 233.959 266.443 233.643 266.449 233.016C266.443 232.412 265.963 232.055 265.277 232.043C264.557 232.055 264.082 232.412 264.082 233.016ZM280.969 235.289V236.625H273.305V231.234H280.898V232.594H274.969V235.289H280.969ZM272.18 239.871V238.477H282.012V239.871H272.18Z" fill="#5A6890"/>
<rect width="492" height="68" transform="translate(9 253)" fill="white" fill-opacity="0.12"/>
<rect x="9" y="253" width="120" height="68" rx="20" fill="white" fill-opacity="0.8"/>
<rect x="9.5" y="253.5" width="119" height="67" rx="19.5" stroke="url(#paint2_linear_267_24263)" stroke-opacity="0.08"/>
<path d="M57.2227 277.504V278.535H49.793V272.781H57.1289V273.836H51.1172V275.113H56.8828V276.133H51.1172V277.504H57.2227ZM48.6094 281.254V280.188H58.2891V281.254H48.6094ZM63.1758 272.77V276.016H60.7031V277.34C61.9219 277.334 62.8301 277.275 63.9023 277.07L64.0312 278.102C62.7773 278.348 61.7051 278.377 60.1406 278.383H59.4258V275.066H61.9102V273.789H59.4141V272.77H63.1758ZM60.9492 282.332V279.121H62.25V281.277H68.332V282.332H60.9492ZM63.5742 275.781V274.703H64.6641V272.148H65.8945V279.648H64.6641V275.781H63.5742ZM66.7969 279.918V271.961H68.0391V279.918H66.7969ZM78.1641 271.949V282.555H76.8516V271.949H78.1641ZM70.0078 280V272.91H75.1172V273.977H71.3203V278.898C73.2656 278.887 74.4902 278.834 75.9023 278.582L76.0312 279.66C74.5137 279.941 73.1484 280 70.9102 280H70.0078ZM88.0781 271.949V274.633H89.5547V275.723H88.0781V278.336H86.7773V271.949H88.0781ZM79.7344 274.012V272.969H82.2305V271.879H83.5312V272.969H86.0156V274.012H79.7344ZM80.2734 276.297C80.2734 275.166 81.3281 274.398 82.875 274.398C84.4102 274.398 85.459 275.166 85.4648 276.297C85.459 277.439 84.4043 278.195 82.875 278.195C81.3281 278.195 80.2734 277.439 80.2734 276.297ZM81.2344 282.414V278.84H88.0781V282.414H81.2344ZM81.5391 276.297C81.5332 276.889 82.0723 277.223 82.875 277.223C83.6777 277.223 84.2227 276.889 84.2227 276.297C84.2227 275.723 83.6777 275.383 82.875 275.383C82.0723 275.383 81.5332 275.723 81.5391 276.297ZM82.5234 281.359H86.7891V279.871H82.5234V281.359Z" fill="#414651"/>
<path d="M41.269 291.831V299.114H40.4204V297.062H38.7661V296.375H40.4204V295.075H38.7661V294.377H40.4204V291.831H41.269ZM33.3628 293.689V293.002H35.6831V291.82H36.521V293.002H38.7661V293.689H33.3628ZM33.9321 296.042C33.9214 294.946 34.813 294.216 36.0913 294.216C37.3696 294.216 38.2666 294.946 38.272 296.042C38.2666 297.127 37.3696 297.863 36.0913 297.868C34.813 297.863 33.9214 297.127 33.9321 296.042ZM34.7163 296.042C34.7109 296.729 35.2749 297.197 36.0913 297.191C36.9077 297.197 37.4717 296.729 37.4771 296.042C37.4717 295.354 36.9077 294.893 36.0913 294.882C35.2749 294.893 34.7109 295.354 34.7163 296.042ZM35.0923 301.166V298.47H35.9409V300.457H41.4839V301.166H35.0923ZM51.0229 291.82V301.37H50.2173V296.364H48.8101V300.876H48.0366V292.035H48.8101V295.666H50.2173V291.82H51.0229ZM43.2134 299.007V292.991H46.7905V293.689H44.0513V298.287C45.3672 298.282 46.2749 298.233 47.3384 298.019L47.4136 298.728C46.2642 298.964 45.292 299.001 43.8257 299.007H43.2134ZM55.6851 293.582C55.6851 294.823 56.6411 296.01 58.0376 296.493L57.5972 297.159C56.5229 296.772 55.6904 295.972 55.2822 294.989C54.8687 296.085 53.9824 296.966 52.8491 297.385L52.4087 296.719C53.8159 296.214 54.8364 294.941 54.8364 293.593V293.174H52.6772V292.486H57.8228V293.174H55.6851V293.582ZM53.8589 298.749V298.051H60.2827V301.37H59.4341V298.749H53.8589ZM57.522 295.032V294.323H59.4341V291.82H60.2827V297.546H59.4341V295.032H57.522ZM72.0991 291.82V294.162H73.5386V294.86H72.0991V297.245H71.2612V291.82H72.0991ZM64.6226 296.665C66.9697 296.031 68.4038 294.758 68.5811 293.142H65.0522V292.443H69.4888C69.478 294.85 67.7969 296.574 64.9663 297.342L64.6226 296.665ZM66.0513 301.241V297.686H72.0991V301.241H66.0513ZM66.8892 300.554H71.2612V298.384H66.8892V300.554ZM81.606 291.82V294.248H83.0454V294.968H81.606V297.428H80.7681V291.82H81.606ZM74.1294 296.665C76.4712 296.031 77.916 294.753 78.0879 293.131H74.5591V292.433H78.9849C78.9795 294.85 77.293 296.574 74.4731 297.32L74.1294 296.665ZM75.354 298.556V297.868H81.606V301.37H80.7681V298.556H75.354ZM93.8735 291.831V294.721H95.313V295.43H93.8735V298.846H93.0356V291.831H93.8735ZM86.8159 297.234V292.519H87.6431V294.13H90.4253V292.519H91.2632V297.234H86.8159ZM87.6431 296.547H90.4253V294.796H87.6431V296.547ZM87.9009 301.166V298.158H88.728V300.457H94.314V301.166H87.9009ZM98.5464 292.4C99.3521 292.395 100.034 292.701 100.48 293.206H102.983V291.82H103.832V297.481H102.983V296.117H100.48C100.04 296.622 99.3521 296.928 98.5464 296.923C97.1177 296.928 96.0596 295.994 96.0649 294.667C96.0596 293.33 97.1177 292.395 98.5464 292.4ZM96.8706 294.667C96.8706 295.553 97.5688 296.208 98.5464 296.203C99.4917 296.208 100.201 295.553 100.201 294.667C100.201 293.759 99.4917 293.125 98.5464 293.131C97.5688 293.125 96.8706 293.759 96.8706 294.667ZM97.4614 299.522C97.4561 298.373 98.6807 297.707 100.663 297.707C102.639 297.707 103.864 298.373 103.864 299.522C103.864 300.683 102.639 301.349 100.663 301.349C98.6807 301.349 97.4561 300.683 97.4614 299.522ZM98.2886 299.522C98.2832 300.242 99.1963 300.677 100.663 300.672C102.129 300.677 103.042 300.242 103.037 299.522C103.042 298.797 102.129 298.368 100.663 298.362C99.1963 298.368 98.2832 298.797 98.2886 299.522ZM100.883 293.894C100.969 294.13 101.017 294.388 101.017 294.667C101.017 294.936 100.969 295.188 100.888 295.419H102.983V293.894H100.883Z" fill="#717680"/>
<rect x="133" y="253" width="120" height="68" rx="20" fill="white" fill-opacity="0.8"/>
<rect x="133.5" y="253.5" width="119" height="67" rx="19.5" stroke="url(#paint3_linear_267_24263)" stroke-opacity="0.08"/>
<path d="M186.666 271.961V279.73H185.365V277.105H182.84C182.336 277.674 181.586 278.014 180.736 278.02C179.137 278.014 177.936 276.877 177.936 275.312C177.936 273.73 179.137 272.6 180.736 272.594C181.58 272.6 182.33 272.934 182.834 273.496H185.365V271.961H186.666ZM179.178 275.312C179.178 276.256 179.828 276.859 180.736 276.859C181.604 276.859 182.266 276.256 182.271 275.312C182.266 274.363 181.604 273.754 180.736 273.754C179.828 273.754 179.178 274.363 179.178 275.312ZM179.717 282.332V278.934H181.018V281.277H186.936V282.332H179.717ZM183.408 274.551C183.473 274.791 183.514 275.043 183.514 275.312C183.514 275.57 183.479 275.816 183.414 276.051H185.365V274.551H183.408ZM197.037 271.949V277.316H195.736V276.391H193.182V275.395H195.736V274.352H193.316C192.66 275.969 191.107 277.023 188.764 277.551L188.307 276.484C190.797 275.963 192.039 274.867 192.221 273.461H188.893V272.406H193.674C193.674 272.74 193.645 273.057 193.598 273.355H195.736V271.949H197.037ZM190.064 278.758V277.727H197.037V280.516H191.377V281.395H197.318V282.438H190.076V279.543H195.736V278.758H190.064ZM206.893 271.949V274.363H208.369V275.43H206.893V277.902H205.592V271.949H206.893ZM198.455 277.059C200.91 276.432 202.305 275.178 202.533 273.648H198.959V272.594H203.951C203.945 275.348 202.141 277.252 198.971 278.102L198.455 277.059ZM200.037 282.402V278.324H206.893V282.402H200.037ZM201.338 281.371H205.604V279.391H201.338V281.371Z" fill="#414651"/>
<path d="M172.23 299.426V300.124H163.486V299.426H167.396V297.084H168.223V299.426H172.23ZM163.83 296.493C165.5 296.208 167.358 294.812 167.364 293.206V292.476H168.245V293.206C168.25 294.801 170.135 296.208 171.8 296.493L171.424 297.191C169.969 296.891 168.433 295.908 167.815 294.533C167.187 295.902 165.667 296.891 164.206 297.191L163.83 296.493ZM181.694 296.891V297.578H172.982V296.891H176.914V295.945H174.142V292.1H180.609V292.787H174.991V293.679H180.351V294.323H174.991V295.269H180.663V295.945H177.751V296.891H181.694ZM174.045 299.823C174.04 298.83 175.227 298.287 177.343 298.298C179.438 298.287 180.62 298.83 180.63 299.823C180.62 300.828 179.438 301.349 177.343 301.349C175.227 301.349 174.04 300.828 174.045 299.823ZM174.894 299.823C174.883 300.403 175.764 300.704 177.343 300.693C178.906 300.704 179.776 300.403 179.782 299.823C179.776 299.254 178.906 298.937 177.343 298.932C175.764 298.937 174.883 299.254 174.894 299.823ZM185.131 292.4C185.937 292.395 186.619 292.701 187.065 293.206H189.568V291.82H190.417V297.481H189.568V296.117H187.065C186.625 296.622 185.937 296.928 185.131 296.923C183.703 296.928 182.645 295.994 182.65 294.667C182.645 293.33 183.703 292.395 185.131 292.4ZM183.456 294.667C183.456 295.553 184.154 296.208 185.131 296.203C186.077 296.208 186.786 295.553 186.786 294.667C186.786 293.759 186.077 293.125 185.131 293.131C184.154 293.125 183.456 293.759 183.456 294.667ZM184.046 299.522C184.041 298.373 185.266 297.707 187.248 297.707C189.224 297.707 190.449 298.373 190.449 299.522C190.449 300.683 189.224 301.349 187.248 301.349C185.266 301.349 184.041 300.683 184.046 299.522ZM184.874 299.522C184.868 300.242 185.781 300.677 187.248 300.672C188.714 300.677 189.627 300.242 189.622 299.522C189.627 298.797 188.714 298.368 187.248 298.362C185.781 298.368 184.868 298.797 184.874 299.522ZM187.468 293.894C187.554 294.13 187.602 294.388 187.602 294.667C187.602 294.936 187.554 295.188 187.473 295.419H189.568V293.894H187.468ZM199.923 297.976V301.37H199.075V298.652H193.5V297.976H199.923ZM192.157 294.646C192.151 293.313 193.209 292.363 194.638 292.368C195.465 292.363 196.169 292.69 196.609 293.228H199.075V291.82H199.923V297.449H199.075V296.074H196.615C196.174 296.617 195.471 296.939 194.638 296.934C193.209 296.944 192.151 296.004 192.157 294.646ZM192.962 294.646C192.962 295.575 193.661 296.225 194.638 296.225C195.578 296.225 196.292 295.575 196.292 294.646C196.292 293.749 195.578 293.088 194.638 293.088C193.661 293.088 192.962 293.749 192.962 294.646ZM196.996 295.376H199.075V293.926H196.991C197.066 294.151 197.109 294.388 197.109 294.646C197.109 294.903 197.066 295.15 196.996 295.376ZM211.74 291.82V294.312H213.179V295.011H211.74V297.557H210.902V291.82H211.74ZM204.285 296.88C206.589 296.214 208.061 294.887 208.232 293.228H204.704V292.529H209.14C209.135 294.962 207.421 296.746 204.639 297.567L204.285 296.88ZM205.595 299.501C205.59 298.357 206.82 297.659 208.721 297.664C210.639 297.659 211.847 298.357 211.847 299.501C211.847 300.661 210.639 301.349 208.721 301.349C206.82 301.349 205.59 300.661 205.595 299.501ZM206.433 299.501C206.422 300.221 207.319 300.677 208.721 300.672C210.123 300.677 211.031 300.221 211.031 299.501C211.031 298.781 210.123 298.335 208.721 298.341C207.319 298.335 206.422 298.781 206.433 299.501ZM221.193 291.82V295.892H222.718V296.601H221.193V301.37H220.344V291.82H221.193ZM213.663 298.824C214.441 298.824 215.349 298.819 216.294 298.792V297.739C215.183 297.61 214.458 296.955 214.468 296.01C214.458 294.93 215.371 294.232 216.724 294.237C218.056 294.232 218.985 294.93 218.991 296.01C218.985 296.96 218.25 297.61 217.143 297.739V298.76C218.029 298.717 218.932 298.642 219.764 298.523L219.818 299.168C217.734 299.522 215.478 299.544 213.802 299.544L213.663 298.824ZM213.834 293.679V292.991H216.294V291.842H217.143V292.991H219.592V293.679H213.834ZM215.252 296.01C215.258 296.67 215.838 297.105 216.724 297.095C217.594 297.105 218.18 296.67 218.185 296.01C218.18 295.344 217.594 294.893 216.724 294.893C215.838 294.893 215.258 295.344 215.252 296.01Z" fill="#717680"/>
<rect x="257" y="253" width="120" height="68" rx="20" fill="white" fill-opacity="0.8"/>
<rect x="257.5" y="253.5" width="119" height="67" rx="19.5" stroke="url(#paint4_linear_267_24263)" stroke-opacity="0.08"/>
<path d="M298.871 271.949V278.242H297.57V275.652H295.766V274.586H297.57V271.949H298.871ZM289.965 277.188C291.67 276.602 292.566 275.178 292.566 273.777V273.695H290.363V272.641H296.082V273.695H293.891V273.766C293.891 275.055 294.746 276.355 296.387 276.906L295.73 277.938C294.553 277.539 293.721 276.73 293.252 275.734C292.789 276.859 291.904 277.773 290.645 278.219L289.965 277.188ZM291.688 280.527C291.676 279.256 293.053 278.512 295.285 278.512C297.529 278.512 298.9 279.256 298.906 280.527C298.9 281.799 297.529 282.537 295.285 282.543C293.053 282.537 291.676 281.799 291.688 280.527ZM292.977 280.527C292.971 281.184 293.814 281.541 295.285 281.535C296.768 281.541 297.605 281.184 297.605 280.527C297.605 279.865 296.768 279.508 295.285 279.508C293.814 279.508 292.971 279.865 292.977 280.527ZM310.051 280.199V281.266H300.371V280.199H304.543V278.137H301.438V272.652H302.738V274.387H307.648V272.652H308.949V278.137H305.832V280.199H310.051ZM302.738 277.082H307.648V275.43H302.738V277.082ZM322.461 271.949V277.727H321.16V275.465H319.332V274.387H321.16V271.949H322.461ZM313.566 276.883C315.242 276.32 316.145 274.949 316.156 273.555H313.953V272.488H319.672V273.555H317.48C317.492 274.826 318.348 276.139 319.977 276.684L319.32 277.691C318.137 277.287 317.299 276.484 316.836 275.488C316.373 276.596 315.494 277.486 314.234 277.914L313.566 276.883ZM315.477 282.414V278.172H316.777V279.273H321.16V278.172H322.461V282.414H315.477ZM316.777 281.359H321.16V280.293H316.777V281.359ZM332.457 272.559V273.438C332.463 274.328 332.463 275.354 332.217 276.695H333.641V277.762H323.961V276.695H330.893C331.139 275.418 331.156 274.475 331.156 273.613H325.156V272.559H332.457ZM325.215 282.32V278.77H326.504V281.266H332.762V282.32H325.215ZM338.211 273.473C338.205 274.914 339.049 276.232 340.707 276.754L340.004 277.773C338.85 277.363 338.041 276.59 337.59 275.588C337.121 276.742 336.236 277.65 334.953 278.102L334.262 277.047C336.014 276.473 336.893 275.061 336.898 273.531V272.523H338.211V273.473ZM336.02 280.504C336.008 279.215 337.385 278.459 339.617 278.465C341.861 278.459 343.232 279.215 343.238 280.504C343.232 281.793 341.861 282.531 339.617 282.531C337.385 282.531 336.008 281.793 336.02 280.504ZM337.309 280.504C337.303 281.148 338.146 281.506 339.617 281.512C341.1 281.506 341.938 281.148 341.938 280.504C341.938 279.836 341.1 279.479 339.617 279.473C338.146 279.479 337.303 279.836 337.309 280.504ZM339.793 275.066V274H341.902V271.949H343.203V278.184H341.902V275.066H339.793Z" fill="#414651"/>
<path d="M282.287 293.593C282.292 294.876 283.307 296.047 284.736 296.515L284.306 297.17C283.194 296.794 282.313 296.01 281.878 295C281.459 296.085 280.568 296.944 279.429 297.353L278.989 296.697C280.423 296.192 281.433 294.946 281.438 293.593V293.185H279.204V292.497H284.489V293.185H282.287V293.593ZM280.31 298.803V298.104H286.734V301.37H285.896V298.803H280.31ZM285.896 297.6V291.82H286.734V297.6H285.896ZM293.652 292.562V293.066C293.646 293.695 293.646 294.646 293.405 295.892L292.556 295.827C292.787 294.688 292.809 293.877 292.819 293.271H288.893V292.562H293.652ZM288.302 296.783C288.92 296.783 289.618 296.778 290.354 296.756V294.678H291.192V296.729C292.25 296.687 293.346 296.611 294.339 296.472L294.393 297.095C292.39 297.438 290.091 297.476 288.388 297.481L288.302 296.783ZM289.774 301.166V298.362H290.623V300.457H296.155V301.166H289.774ZM294.984 299.007V291.82H295.843V294.936H297.24V295.655H295.843V299.007H294.984ZM301.182 293.582C301.182 294.823 302.138 296.01 303.535 296.493L303.094 297.159C302.02 296.772 301.188 295.972 300.779 294.989C300.366 296.085 299.479 296.966 298.346 297.385L297.906 296.719C299.313 296.214 300.333 294.941 300.333 293.593V293.174H298.174V292.486H303.32V293.174H301.182V293.582ZM299.356 298.749V298.051H305.78V301.37H304.931V298.749H299.356ZM303.019 295.032V294.323H304.931V291.82H305.78V297.546H304.931V295.032H303.019ZM315.254 291.831V298.813H314.417V291.831H315.254ZM307.595 294.839C307.59 293.464 308.669 292.502 310.098 292.497C311.527 292.502 312.596 293.464 312.601 294.839C312.596 296.23 311.527 297.197 310.098 297.191C308.669 297.197 307.59 296.23 307.595 294.839ZM308.422 294.839C308.412 295.79 309.131 296.45 310.098 296.45C311.049 296.45 311.774 295.79 311.774 294.839C311.774 293.904 311.049 293.238 310.098 293.238C309.131 293.238 308.412 293.904 308.422 294.839ZM309.088 301.166V298.104H309.926V300.457H315.555V301.166H309.088ZM325.202 292.723H326.168V297.868C326.168 299.469 324.971 300.634 323.139 300.64C321.302 300.634 320.11 299.469 320.11 297.868V292.723H321.077V297.793C321.071 298.921 321.855 299.732 323.139 299.737C324.423 299.732 325.196 298.921 325.202 297.793V292.723ZM328.381 292.723L330.358 295.935H330.422L332.41 292.723H333.548L331.11 296.611L333.548 300.5H332.41L330.422 297.353H330.358L328.371 300.5H327.232L329.735 296.611L327.232 292.723H328.381ZM344.828 291.82V296.762H343.979V294.28H341.852V293.582H343.979V291.82H344.828ZM336.9 296.106C338.339 295.628 339.328 294.431 339.338 293.034V292.132H340.166V293.034C340.155 294.286 341.143 295.435 342.54 295.892L342.088 296.547C341.03 296.171 340.187 295.419 339.763 294.452C339.354 295.542 338.49 296.375 337.362 296.783L336.9 296.106ZM338.64 297.922V297.245H344.828V299.522H339.489V300.564H345.182V301.241H338.662V298.878H343.99V297.922H338.64ZM354.592 291.82V301.37H353.787V291.82H354.592ZM346.407 298.695C348.485 297.465 349.527 295.741 349.694 293.743H346.836V293.045H350.532C350.532 293.534 350.489 294.017 350.403 294.484H351.853V292.078H352.659V300.887H351.853V297.578H350.081V296.88H351.853V295.183H350.236C349.774 296.799 348.727 298.228 346.922 299.308L346.407 298.695Z" fill="#717680"/>
<rect x="381" y="253" width="120" height="68" rx="20" fill="white" fill-opacity="0.8"/>
<rect x="381.5" y="253.5" width="119" height="67" rx="19.5" stroke="url(#paint5_linear_267_24263)" stroke-opacity="0.08"/>
<path d="M435.451 276.379V277.434H425.795V276.379H429.955V275.582H427.014V272.277H434.209V275.582H431.244V276.379H435.451ZM426.932 279.062V278.078H434.244V280.68H428.221V281.453H434.537V282.449H426.943V279.742H432.967V279.062H426.932ZM428.291 274.562H432.908V273.297H428.291V274.562ZM444.99 271.949V277.633H443.678V271.949H444.99ZM436.354 274.902C436.354 273.432 437.572 272.412 439.213 272.418C440.848 272.412 442.066 273.432 442.061 274.902C442.066 276.35 440.848 277.369 439.213 277.363C437.572 277.369 436.354 276.35 436.354 274.902ZM437.631 274.902C437.625 275.752 438.287 276.291 439.213 276.297C440.121 276.291 440.783 275.752 440.783 274.902C440.783 274.053 440.121 273.502 439.213 273.508C438.287 273.502 437.625 274.053 437.631 274.902ZM437.982 282.414V278.125H439.271V279.215H443.689V278.125H444.99V282.414H437.982ZM439.271 281.359H443.689V280.234H439.271V281.359ZM454.893 271.949V274.363H456.369V275.43H454.893V277.902H453.592V271.949H454.893ZM446.455 277.059C448.91 276.432 450.305 275.178 450.533 273.648H446.959V272.594H451.951C451.945 275.348 450.141 277.252 446.971 278.102L446.455 277.059ZM448.037 282.402V278.324H454.893V282.402H448.037ZM449.338 281.371H453.604V279.391H449.338V281.371Z" fill="#414651"/>
<path d="M405.422 293.174C405.417 294.452 407.119 295.537 408.784 295.784L408.473 296.45C406.985 296.198 405.529 295.403 404.949 294.253C404.369 295.403 402.914 296.198 401.447 296.45L401.114 295.784C402.774 295.537 404.471 294.452 404.477 293.174V293.109H401.415V292.422H408.473V293.109H405.422V293.174ZM400.599 297.965V297.267H409.3V297.965H405.347V301.37H404.52V297.965H400.599ZM418.85 299.437V300.146H410.105V299.437H412.275V296.864C411.459 296.439 410.965 295.752 410.965 294.882C410.965 293.405 412.415 292.433 414.456 292.422C416.497 292.433 417.947 293.405 417.947 294.882C417.947 295.736 417.469 296.413 416.68 296.837V299.437H418.85ZM411.781 294.882C411.776 295.951 412.888 296.665 414.456 296.665C416.008 296.665 417.131 295.951 417.131 294.882C417.131 293.813 416.008 293.109 414.456 293.12C412.888 293.109 411.776 293.813 411.781 294.882ZM413.103 299.437H415.831V297.165C415.417 297.272 414.956 297.331 414.456 297.331C413.967 297.331 413.511 297.277 413.103 297.17V299.437ZM429.989 292.293V293.088C429.995 293.974 429.995 294.946 429.731 296.257L428.894 296.182C429.012 295.623 429.076 295.124 429.108 294.672L423.297 294.946L423.179 294.227L429.146 294.033C429.157 293.7 429.162 293.389 429.162 293.088V292.98H423.415V292.293H429.989ZM422.384 297.589V296.901H425.929V295.494H426.777V296.901H431.074V297.589H422.384ZM423.49 301.22V298.405H424.339V300.532H430.215V301.22H423.49ZM439.99 291.831V298.985H439.185V291.831H439.99ZM432.331 297.396V292.615H435.973V293.313H433.137V294.635H435.575V295.301H433.137V296.697C434.522 296.687 435.376 296.654 436.402 296.439L436.488 297.127C435.382 297.347 434.479 297.396 432.933 297.396H432.331ZM433.76 301.166V298.19H434.619V300.457H440.28V301.166H433.76ZM436.026 295.226V294.549H437.315V292.024H438.132V298.738H437.315V295.226H436.026ZM450.131 299.437V300.146H441.387V299.437H450.131ZM441.924 297.148C443.729 296.821 445.313 295.639 445.318 294.055H442.203V293.367H445.329V292.057H446.156V293.367H449.293V294.055H446.178C446.172 295.639 447.751 296.821 449.572 297.148L449.229 297.836C447.719 297.524 446.344 296.703 445.743 295.457C445.146 296.703 443.766 297.524 442.257 297.836L441.924 297.148ZM459.079 291.82V301.37H458.263V291.82H459.079ZM451.012 295.945C451.017 293.915 451.823 292.631 453.063 292.626C454.224 292.631 455.008 293.749 455.115 295.548H456.351V292.024H457.156V300.887H456.351V296.246H455.121C455.04 298.104 454.24 299.27 453.063 299.265C451.823 299.27 451.017 297.976 451.012 295.945ZM451.807 295.945C451.796 297.492 452.29 298.47 453.063 298.459C453.842 298.47 454.336 297.492 454.331 295.945C454.336 294.393 453.842 293.421 453.063 293.421C452.29 293.421 451.796 294.393 451.807 295.945ZM466.599 293.399C466.604 294.646 467.635 295.752 469.059 296.182L468.629 296.848C467.512 296.493 466.615 295.725 466.185 294.737C465.761 295.795 464.858 296.622 463.72 297.009L463.279 296.343C464.719 295.886 465.745 294.71 465.75 293.399V293.152H463.516V292.465H468.801V293.152H466.599V293.399ZM464.858 301.241V297.46H465.696V298.62H470.208V297.46H471.046V301.241H464.858ZM465.696 300.554H470.208V299.297H465.696V300.554ZM470.208 296.987V291.82H471.046V296.987H470.208ZM481.369 296.289V296.987H477.427V298.008C479.226 298.088 480.295 298.674 480.306 299.684C480.295 300.752 479.065 301.349 477.019 301.349C474.945 301.349 473.715 300.752 473.721 299.684C473.715 298.674 474.779 298.088 476.6 298.008V296.987H472.668V296.289H481.369ZM473.162 295.043C474.816 294.871 476.412 294.028 476.471 292.959H473.463V292.271H480.596V292.959H477.566C477.625 294.028 479.205 294.871 480.886 295.043L480.574 295.709C479.011 295.521 477.545 294.817 477.019 293.759C476.492 294.817 475.037 295.521 473.463 295.709L473.162 295.043ZM474.58 299.684C474.569 300.317 475.488 300.699 477.019 300.693C478.533 300.699 479.452 300.317 479.457 299.684C479.452 299.034 478.533 298.663 477.019 298.652C475.488 298.663 474.569 299.034 474.58 299.684Z" fill="#717680"/>
<defs>
<linearGradient id="paint0_linear_267_24263" x1="254.927" y1="215" x2="254.927" y2="329" gradientUnits="userSpaceOnUse">
<stop stop-color="#EBF0FF"/>
<stop offset="0.25" stop-color="#F3F6FF"/>
<stop offset="1" stop-color="#F8FAFF"/>
</linearGradient>
<linearGradient id="paint1_linear_267_24263" x1="254.914" y1="215" x2="254.914" y2="329" gradientUnits="userSpaceOnUse">
<stop stop-color="#D9E2FF"/>
<stop offset="0.64889" stop-color="#F3F6FF"/>
<stop offset="1" stop-color="white"/>
</linearGradient>
<linearGradient id="paint2_linear_267_24263" x1="69" y1="253" x2="69" y2="321" gradientUnits="userSpaceOnUse">
<stop stop-color="#4F7BFF"/>
<stop offset="1" stop-color="#98C3FD"/>
</linearGradient>
<linearGradient id="paint3_linear_267_24263" x1="193" y1="253" x2="193" y2="321" gradientUnits="userSpaceOnUse">
<stop stop-color="#4F7BFF"/>
<stop offset="1" stop-color="#98C3FD"/>
</linearGradient>
<linearGradient id="paint4_linear_267_24263" x1="317" y1="253" x2="317" y2="321" gradientUnits="userSpaceOnUse">
<stop stop-color="#4F7BFF"/>
<stop offset="1" stop-color="#98C3FD"/>
</linearGradient>
<linearGradient id="paint5_linear_267_24263" x1="441" y1="253" x2="441" y2="321" gradientUnits="userSpaceOnUse">
<stop stop-color="#4F7BFF"/>
<stop offset="1" stop-color="#98C3FD"/>
</linearGradient>
</defs>
</svg>
