<svg width="960" height="688" viewBox="0 0 960 688" fill="none" xmlns="http://www.w3.org/2000/svg">
<g clip-path="url(#clip0_501_21266)">
<rect x="480" y="308" width="480" height="380" rx="8" fill="url(#paint0_linear_501_21266)"/>
<path d="M714.41 412H705.066L717.559 375.234H729.035L741.477 412H732.184L729.695 404.129H716.898L714.41 412ZM718.98 397.527H727.613L723.449 384.324H723.145L718.98 397.527ZM755.695 404.332C755.67 398.213 760.418 396.029 765.902 395.699C767.908 395.572 771.336 395.445 772.504 395.395V393.16C772.504 391.23 771.082 390.139 768.746 390.164C766.486 390.139 765.014 391.154 764.684 392.957H756.711C757.092 388.082 761.205 384.07 768.949 384.07C775.754 384.07 781.061 387.295 781.086 393.262V412H773.012V408.141H772.809C771.311 410.934 768.645 412.482 764.785 412.508C759.504 412.482 755.67 409.791 755.695 404.332ZM763.82 403.977C763.795 405.83 765.293 406.82 767.375 406.82C770.295 406.82 772.58 404.916 772.555 402.199V400.422C771.514 400.447 768.619 400.6 767.324 400.727C765.166 400.955 763.795 402.148 763.82 403.977Z" fill="white"/>
<path d="M717.375 444.234V445.688H704.469V444.234H717.375ZM705.531 435.969V434.578H716.25V435.969H714.188V440.469H716.203V441.844H705.578V440.469H707.562V435.969H705.531ZM709.297 440.469H712.469V435.969H709.297V440.469ZM730.062 433.266V447.406H728.344V433.266H730.062ZM719.062 435.906V434.5H725.719V439.797H720.859V442.641C723.086 442.625 725 442.508 727.203 442.141L727.359 443.562C724.961 443.977 722.852 444.07 720.312 444.062H719.078V438.422H723.953V435.906H719.062ZM744.203 433.281V443.828H742.547V433.281H744.203ZM732.719 441.734V434.375H738.094V435.781H734.391V437.359H737.562V438.688H734.391V440.312C736.078 440.312 737.25 440.258 738.625 440L738.812 441.375C737.18 441.672 735.836 441.727 733.656 441.734H732.719ZM734.828 447.109V442.672H736.578V445.703H744.594V447.109H734.828ZM738.172 438.562V437.172H739.766V433.547H741.422V443.484H739.766V438.562H738.172ZM757.016 433.266V438.625H759.188V440.047H757.016V447.406H755.281V433.266H757.016ZM746.531 443.953V434.609H753.141V436.016H748.266V442.5C750.461 442.492 752.203 442.383 754.141 442.047L754.344 443.516C752.148 443.891 750.25 443.953 747.703 443.953H746.531ZM771.25 439.891V441.281H761.344V434.5H771.141V435.906H763.062V439.891H771.25ZM759.781 445.594V444.156H772.688V445.594H759.781Z" fill="white"/>
<path d="M718.551 489.023V495.625H721.168V497.656H718.551V506.836H716.051V489.023H718.551ZM705.23 502.52V490.664H713.57V492.676H707.711V500.469C710.289 500.449 712.418 500.312 714.781 499.902L715.055 501.992C712.291 502.461 709.869 502.529 706.734 502.52H705.23ZM727.359 494.395C727.359 497.07 728.307 499.795 730.875 501.133L729.488 502.969C727.887 502.148 726.822 500.713 726.197 498.984C725.582 500.859 724.518 502.461 722.906 503.379L721.5 501.504C724.029 500.059 724.996 497.158 725.016 494.395V494.062H722.066V492.031H725.016V489.629H727.34V492.031H730.27V494.062H727.359V494.395ZM731.07 505.977V489.277H733.434V495.859H734.938V489.023H737.32V506.797H734.938V497.891H733.434V505.977H731.07ZM755.367 502.773V504.824H739.098V502.773H745.953V500.098H740.973V494.121H751.031V492.168H740.953V490.176H753.492V496.074H743.473V498.066H753.902V500.098H748.434V502.773H755.367ZM772.633 497.676V499.668H765.895V502.754H763.375V499.668H756.363V497.676H772.633ZM758.043 493.047C758.043 490.791 760.621 489.375 764.488 489.355C768.336 489.375 770.904 490.791 770.914 493.047C770.904 495.312 768.336 496.719 764.488 496.719C760.621 496.719 758.043 495.312 758.043 493.047ZM758.297 506.484V501.172H760.816V504.473H770.836V506.484H758.297ZM760.738 493.047C760.729 494.131 762.193 494.717 764.488 494.727C766.783 494.717 768.238 494.131 768.238 493.047C768.238 491.914 766.783 491.328 764.488 491.328C762.193 491.328 760.729 491.914 760.738 493.047ZM794.488 496.25V498.223H778.277V496.25H794.488ZM779 493.848C782.32 493.643 784.176 492.627 784.723 491.543H779.762V489.59H793.023V491.543H788.014C788.561 492.637 790.436 493.643 793.785 493.848L793.004 495.762C789.713 495.518 787.428 494.482 786.363 492.988C785.299 494.473 783.043 495.518 779.781 495.762L779 493.848ZM780.152 501.016V499.199H792.516V503.73H782.613V504.805H792.984V506.68H780.172V501.992H790.055V501.016H780.152ZM810.543 489.023V506.797H808.062V497.891H804.527V495.859H808.062V489.023H810.543ZM795.387 501.758C799.879 499.541 801.744 496.729 802.115 492.832H796.227V490.879H804.625C804.615 496.24 802.877 500.635 796.676 503.711L795.387 501.758ZM820.953 489.258C824.908 489.268 827.408 490.557 827.418 492.715C827.408 494.834 824.908 496.104 820.953 496.094C817.018 496.104 814.469 494.834 814.469 492.715C814.469 490.557 817.018 489.268 820.953 489.258ZM812.848 499.004V497.012H829.059V499.004H822.184V500.547H827.125V506.602H814.723V500.547H819.703V499.004H812.848ZM817.066 492.715C817.047 493.691 818.463 494.199 820.953 494.199C823.404 494.199 824.84 493.691 824.84 492.715C824.84 491.689 823.404 491.162 820.953 491.172C818.463 491.162 817.047 491.689 817.066 492.715ZM817.184 504.609H824.684V502.52H817.184V504.609ZM835.406 505V490.859H838.297V496.172H838.375C838.775 495.312 839.615 494.258 841.402 494.258C843.746 494.258 845.709 496.074 845.719 499.707C845.709 503.252 843.824 505.176 841.402 505.176C839.674 505.176 838.795 504.18 838.375 503.301H838.258V505H835.406ZM838.238 499.688C838.229 501.602 839.059 502.861 840.484 502.871C841.959 502.861 842.76 501.562 842.75 499.688C842.76 497.842 841.979 496.562 840.484 496.562C839.049 496.562 838.229 497.783 838.238 499.688ZM852.34 505.215C849.137 505.205 847.135 503.008 847.145 499.727C847.135 496.455 849.137 494.258 852.34 494.258C855.553 494.258 857.545 496.455 857.555 499.727C857.545 503.008 855.553 505.205 852.34 505.215ZM850.074 499.727C850.074 501.582 850.846 502.959 852.359 502.969C853.834 502.959 854.615 501.582 854.605 499.727C854.615 497.861 853.834 496.465 852.359 496.465C850.846 496.465 850.074 497.861 850.074 499.727ZM862.262 490.859V505H859.371V490.859H862.262ZM868.414 505.176C865.992 505.176 864.098 503.252 864.098 499.707C864.098 496.074 866.07 494.258 868.414 494.258C870.191 494.258 871.041 495.312 871.422 496.172H871.52V490.859H874.41V505H871.559V503.301H871.422C871.021 504.18 870.143 505.176 868.414 505.176ZM867.066 499.688C867.057 501.562 867.848 502.861 869.312 502.871C870.758 502.861 871.578 501.602 871.578 499.688C871.578 497.783 870.768 496.562 869.312 496.562C867.838 496.562 867.057 497.842 867.066 499.688Z" fill="#DEE2E6"/>
<path d="M718.414 529.082V535.781H721.129V537.559H718.414V546.758H716.246V529.082H718.414ZM705.309 542.441V530.762H713.57V532.52H707.477V540.625C710.221 540.615 712.398 540.479 714.82 540.059L715.074 541.895C712.33 542.363 709.957 542.441 706.773 542.441H705.309ZM727.262 534.453C727.262 537.148 728.365 539.922 730.875 541.23L729.645 542.832C728.004 541.973 726.891 540.43 726.256 538.584C725.631 540.576 724.518 542.285 722.867 543.223L721.617 541.621C724.088 540.186 725.201 537.246 725.211 534.453V533.965H722.125V532.188H725.211V529.707H727.262V532.188H730.309V533.965H727.262V534.453ZM731.246 545.879V529.395H733.297V535.996H735.113V529.082H737.184V546.738H735.113V537.793H733.297V545.879H731.246ZM755.289 542.891V544.688H739.156V542.891H746.109V540.02H741.07V534.238H751.227V532.051H741.031V530.293H753.375V535.957H743.238V538.242H753.785V540.02H748.258V542.891H755.289ZM772.555 537.812V539.551H765.738V542.793H763.531V539.551H756.422V537.812H772.555ZM758.141 533.086C758.131 530.869 760.67 529.473 764.469 529.473C768.287 529.473 770.797 530.869 770.797 533.086C770.797 535.312 768.287 536.689 764.469 536.68C760.67 536.689 758.131 535.312 758.141 533.086ZM758.395 546.387V541.152H760.582V544.609H770.777V546.387H758.395ZM760.484 533.086C760.465 534.258 762.047 534.941 764.469 534.941C766.91 534.941 768.482 534.258 768.473 533.086C768.482 531.875 766.91 531.191 764.469 531.191C762.047 531.191 760.465 531.875 760.484 533.086ZM794.566 536.367V538.105H778.473V536.367H794.566ZM779.254 534.082C782.545 533.867 784.684 532.705 785.143 531.406H779.938V529.688H793.121V531.406H787.867C788.307 532.715 790.475 533.867 793.805 534.082L793.121 535.762C789.957 535.498 787.564 534.434 786.5 532.861C785.436 534.434 783.072 535.498 779.938 535.762L779.254 534.082ZM780.367 540.898V539.297H792.555V543.633H782.516V544.922H793.043V546.582H780.387V542.09H790.426V540.898H780.367ZM810.543 529.082V546.738H808.375V537.754H804.645V535.977H808.375V529.082H810.543ZM795.641 541.855C800.211 539.609 802.174 536.631 802.535 532.676H796.461V530.957H804.723C804.703 536.172 802.857 540.557 796.773 543.555L795.641 541.855ZM821.07 529.355C824.977 529.365 827.428 530.625 827.438 532.754C827.428 534.844 824.977 536.094 821.07 536.074C817.203 536.094 814.703 534.844 814.703 532.754C814.703 530.625 817.203 529.365 821.07 529.355ZM813.043 538.887V537.148H829.137V538.887H822.145V540.586H827.184V546.523H814.938V540.586H819.996V538.887H813.043ZM816.969 532.754C816.949 533.828 818.492 534.414 821.07 534.414C823.648 534.414 825.191 533.828 825.191 532.754C825.191 531.631 823.648 531.025 821.07 531.035C818.492 531.025 816.949 531.631 816.969 532.754ZM817.086 544.766H825.074V542.305H817.086V544.766ZM841.695 537.422C841.539 536.621 840.875 536.104 839.82 536.113C838.756 536.104 837.975 536.641 837.984 537.363C837.975 537.91 838.414 538.32 839.488 538.574L841.285 538.945C843.287 539.385 844.264 540.312 844.273 541.836C844.264 543.828 842.516 545.215 839.742 545.215C837.047 545.215 835.455 544.004 835.191 541.973H837.73C837.877 542.881 838.58 543.33 839.742 543.32C840.943 543.33 841.725 542.842 841.734 542.051C841.725 541.436 841.246 541.045 840.191 540.82L838.492 540.449C836.52 540.049 835.494 539.014 835.504 537.5C835.494 535.537 837.193 534.258 839.781 534.258C842.311 534.258 843.873 535.498 844.059 537.422H841.695ZM850.875 545.215C847.682 545.215 845.719 543.086 845.719 539.766C845.719 536.484 847.711 534.258 850.738 534.258C853.336 534.258 855.582 535.889 855.582 539.609V540.391H848.18C848.219 542.197 849.283 543.271 850.895 543.262C851.988 543.271 852.721 542.803 853.043 542.168H855.484C855.035 544.004 853.336 545.215 850.875 545.215ZM848.189 538.691H853.199C853.189 537.246 852.213 536.191 850.777 536.191C849.283 536.191 848.277 537.344 848.189 538.691ZM857.516 545V534.395H859.898V536.191H860.035C860.475 534.98 861.539 534.258 862.945 534.258C864.381 534.258 865.416 534.99 865.816 536.191H865.934C866.393 535.02 867.574 534.258 869.117 534.258C871.061 534.258 872.428 535.508 872.418 537.871V545H869.938V538.262C869.938 536.943 869.137 536.348 868.121 536.348C866.9 536.348 866.188 537.178 866.188 538.379V545H863.766V538.164C863.756 537.061 863.033 536.348 861.969 536.348C860.895 536.348 860.016 537.236 860.016 538.555V545H857.516ZM874.801 545V534.395H877.301V545H874.801ZM874.625 531.523C874.625 530.781 875.279 530.176 876.07 530.176C876.861 530.176 877.516 530.781 877.516 531.523C877.516 532.275 876.861 532.881 876.07 532.891C875.279 532.881 874.625 532.275 874.625 531.523ZM879.801 545V530.859H882.301V536.133H882.398C882.779 535.381 883.551 534.258 885.426 534.258C887.877 534.258 889.811 536.172 889.82 539.707C889.811 543.193 887.936 545.186 885.445 545.195C883.609 545.186 882.789 544.102 882.398 543.32H882.242V545H879.801ZM882.242 539.688C882.242 541.758 883.15 543.145 884.742 543.145C886.402 543.145 887.271 541.689 887.281 539.688C887.271 537.715 886.422 536.299 884.742 536.289C883.131 536.299 882.242 537.627 882.242 539.688ZM896.402 545.215C893.307 545.215 891.324 543.018 891.324 539.746C891.324 536.445 893.307 534.258 896.402 534.258C899.508 534.258 901.49 536.445 901.48 539.746C901.49 543.018 899.508 545.215 896.402 545.215ZM893.844 539.727C893.844 541.67 894.693 543.223 896.422 543.223C898.121 543.223 898.971 541.67 898.961 539.727C898.971 537.783 898.121 536.221 896.422 536.23C894.693 536.221 893.844 537.783 893.844 539.727ZM905.914 530.859V545H903.414V530.859H905.914ZM912.242 545.195C909.752 545.186 907.867 543.193 907.867 539.707C907.867 536.172 909.801 534.258 912.262 534.258C914.127 534.258 914.908 535.381 915.289 536.133H915.387V530.859H917.867V545H915.426V543.32H915.289C914.889 544.102 914.078 545.186 912.242 545.195ZM910.406 539.688C910.406 541.689 911.285 543.145 912.926 543.145C914.537 543.145 915.445 541.758 915.445 539.688C915.445 537.627 914.547 536.299 912.926 536.289C911.266 536.299 910.406 537.715 910.406 539.688Z" fill="#DEE2E6"/>
<path d="M718.277 569.16V575.938H721.09V577.461H718.277V586.699H716.422V569.16H718.277ZM705.387 582.344V570.84H713.57V572.344H707.242V580.801C710.182 580.791 712.379 580.664 714.879 580.215L715.113 581.777C712.369 582.266 710.045 582.354 706.793 582.344H705.387ZM727.164 574.512C727.164 577.236 728.434 580.049 730.875 581.328L729.82 582.715C728.121 581.816 726.939 580.146 726.305 578.174C725.689 580.283 724.518 582.109 722.828 583.086L721.734 581.719C724.146 580.312 725.406 577.334 725.426 574.512V573.867H722.184V572.324H725.426V569.785H727.164V572.324H730.348V573.867H727.164V574.512ZM731.422 585.801V569.492H733.18V576.113H735.27V569.16H737.047V586.66H735.27V577.676H733.18V585.801H731.422ZM755.23 583.008V584.57H739.215V583.008H746.266V579.941H741.168V574.375H751.441V571.914H741.129V570.391H753.277V575.859H743.004V578.418H753.688V579.941H748.102V583.008H755.23ZM772.496 577.93V579.434H765.562V582.832H763.688V579.434H756.48V577.93H772.496ZM758.238 573.125C758.229 570.938 760.709 569.58 764.469 569.57C768.229 569.58 770.689 570.938 770.68 573.125C770.689 575.303 768.229 576.66 764.469 576.66C760.709 576.66 758.229 575.303 758.238 573.125ZM758.492 586.289V581.152H760.348V584.766H770.719V586.289H758.492ZM760.23 573.125C760.211 574.385 761.91 575.156 764.469 575.156C767.037 575.156 768.717 574.385 768.727 573.125C768.717 571.826 767.037 571.064 764.469 571.055C761.91 571.064 760.211 571.826 760.23 573.125ZM794.625 576.504V577.988H778.668V576.504H794.625ZM779.488 574.316C782.682 574.082 785.191 572.822 785.523 571.289H780.133V569.805H793.199V571.289H787.75C788.082 572.822 790.602 574.082 793.824 574.316L793.219 575.762C790.211 575.488 787.691 574.404 786.637 572.744C785.582 574.395 783.082 575.488 780.074 575.762L779.488 574.316ZM780.582 580.781V579.395H792.613V583.516H782.418V585.059H793.102V586.484H780.602V582.168H790.777V580.781H780.582ZM810.523 569.16V586.66H808.688V577.617H804.762V576.094H808.688V569.16H810.523ZM795.914 581.953C800.553 579.688 802.613 576.533 802.936 572.52H796.695V571.035H804.82C804.801 576.104 802.828 580.479 796.891 583.418L795.914 581.953ZM821.207 569.453C825.045 569.463 827.447 570.693 827.457 572.793C827.447 574.854 825.045 576.074 821.207 576.074C817.379 576.074 814.947 574.854 814.957 572.793C814.947 570.693 817.379 569.463 821.207 569.453ZM813.238 578.77V577.266H829.195V578.77H822.125V580.605H827.242V586.445H815.152V580.605H820.289V578.77H813.238ZM816.871 572.793C816.861 573.965 818.512 574.629 821.207 574.629C823.883 574.629 825.553 573.965 825.543 572.793C825.553 571.582 823.883 570.898 821.207 570.898C818.512 570.898 816.861 571.582 816.871 572.793ZM816.988 584.941H825.445V582.09H816.988V584.941ZM836.031 585V574.395H838.043V576.133H838.16C838.609 574.951 839.654 574.258 841.051 574.258C842.467 574.258 843.453 574.951 843.902 576.133H844.02C844.518 574.99 845.67 574.258 847.203 574.258C849.117 574.258 850.475 575.459 850.484 577.891V585H848.395V578.086C848.395 576.65 847.496 576.055 846.402 576.055C845.064 576.055 844.293 576.973 844.293 578.242V585H842.223V577.969C842.223 576.807 841.432 576.055 840.289 576.055C839.117 576.055 838.121 577.031 838.121 578.457V585H836.031ZM857.574 585.215C854.449 585.215 852.525 583.057 852.535 579.766C852.525 576.504 854.479 574.258 857.438 574.258C859.85 574.258 862.145 575.752 862.145 579.59V580.332H854.605C854.664 582.354 855.855 583.496 857.594 583.496C858.775 583.496 859.547 582.988 859.898 582.344H862.008C861.539 584.062 859.908 585.215 857.574 585.215ZM854.615 578.77H860.094C860.094 577.158 859.049 575.967 857.457 575.977C855.787 575.967 854.703 577.275 854.615 578.77ZM868.18 585.215C865.621 585.205 863.746 583.145 863.746 579.727C863.746 576.27 865.65 574.258 868.199 574.258C870.172 574.258 870.885 575.449 871.266 576.113H871.363V570.859H873.453V585H871.422V583.34H871.266C870.875 584.033 870.113 585.205 868.18 585.215ZM865.875 579.688C865.865 581.816 866.822 583.428 868.648 583.438C870.426 583.428 871.422 581.914 871.422 579.688C871.422 577.48 870.445 576.025 868.648 576.035C866.803 576.025 865.865 577.598 865.875 579.688ZM876.168 585V574.395H878.258V585H876.168ZM875.895 571.523C875.904 570.84 876.5 570.293 877.223 570.293C877.936 570.293 878.531 570.84 878.531 571.523C878.531 572.207 877.936 572.764 877.223 572.754C876.5 572.764 875.904 572.207 875.895 571.523ZM887.535 580.586V574.395H889.605V585H887.574V583.164H887.457C886.969 584.297 885.885 585.137 884.293 585.137C882.242 585.137 880.797 583.76 880.797 581.133V574.395H882.887V580.879C882.887 582.324 883.766 583.242 885.035 583.242C886.197 583.242 887.535 582.393 887.535 580.586ZM892.145 585V574.395H894.156V576.133H894.273C894.723 574.951 895.768 574.258 897.164 574.258C898.58 574.258 899.566 574.951 900.016 576.133H900.133C900.631 574.99 901.783 574.258 903.316 574.258C905.23 574.258 906.588 575.459 906.598 577.891V585H904.508V578.086C904.508 576.65 903.609 576.055 902.516 576.055C901.178 576.055 900.406 576.973 900.406 578.242V585H898.336V577.969C898.336 576.807 897.545 576.055 896.402 576.055C895.23 576.055 894.234 577.031 894.234 578.457V585H892.145Z" fill="#DEE2E6"/>
<path d="M718.141 609.219V616.094H721.051V617.383H718.141V626.621H716.617V609.219H718.141ZM705.465 622.266V610.918H713.57V612.188H706.988V620.977C710.133 620.967 712.35 620.83 714.938 620.352L715.133 621.68C712.408 622.168 710.133 622.266 706.832 622.266H705.465ZM727.066 614.551C727.076 617.324 728.492 620.176 730.875 621.445L729.977 622.598C728.248 621.65 726.998 619.863 726.363 617.773C725.748 620 724.498 621.934 722.77 622.949L721.852 621.816C724.195 620.439 725.611 617.422 725.621 614.551V613.75H722.262V612.48H725.621V609.863H727.086V612.48H730.406V613.75H727.066V614.551ZM731.598 625.703V609.59H733.062V616.25H735.426V609.219H736.91V626.582H735.426V617.559H733.062V625.703H731.598ZM755.172 623.145V624.434H739.273V623.145H746.422V619.863H741.266V614.512H751.656V611.777H741.227V610.508H753.16V615.762H742.789V618.594H753.57V619.863H747.926V623.145H755.172ZM772.438 618.047V619.316H765.387V622.871H763.844V619.316H756.539V618.047H772.438ZM758.336 613.164C758.326 611.006 760.758 609.678 764.469 609.668C768.18 609.678 770.582 611.006 770.582 613.164C770.582 615.303 768.18 616.631 764.469 616.621C760.758 616.631 758.326 615.303 758.336 613.164ZM758.59 626.211V621.133H760.133V624.902H770.66V626.211H758.59ZM759.977 613.164C759.957 614.512 761.764 615.371 764.469 615.371C767.164 615.371 768.961 614.512 768.961 613.164C768.961 611.777 767.164 610.928 764.469 610.918C761.764 610.928 759.957 611.777 759.977 613.164ZM794.684 616.621V617.891H778.863V616.621H794.684ZM779.723 614.551C782.789 614.307 785.709 612.949 785.904 611.152H780.309V609.902H793.277V611.152H787.662C787.818 612.949 790.758 614.307 793.844 614.551L793.336 615.762C790.494 615.469 787.818 614.365 786.773 612.617C785.738 614.365 783.072 615.469 780.23 615.762L779.723 614.551ZM780.777 620.664V619.492H792.652V623.418H782.34V625.176H793.18V626.387H780.816V622.266H791.148V620.664H780.777ZM810.523 609.219V626.582H809V617.48H804.859V616.211H809V609.219H810.523ZM796.168 622.051C800.865 619.775 803.043 616.426 803.355 612.363H796.93V611.113H804.898C804.889 616.035 802.809 620.4 797.008 623.281L796.168 622.051ZM821.344 609.551C825.123 609.561 827.467 610.762 827.477 612.832C827.467 614.863 825.123 616.064 821.344 616.055C817.564 616.064 815.191 614.863 815.191 612.832C815.191 610.762 817.564 609.561 821.344 609.551ZM813.434 618.652V617.383H829.254V618.652H822.086V620.645H827.32V626.348H815.367V620.645H820.582V618.652H813.434ZM816.773 612.832C816.764 614.102 818.531 614.844 821.344 614.844C824.127 614.844 825.904 614.102 825.914 612.832C825.904 611.533 824.127 610.762 821.344 610.762C818.531 610.762 816.764 611.533 816.773 612.832ZM816.891 625.098H825.816V621.875H816.891V625.098ZM836.383 625V614.395H838.004V616.016H838.121C838.502 614.941 839.605 614.229 840.855 614.219C841.109 614.229 841.539 614.238 841.734 614.258V615.957C841.607 615.928 841.158 615.84 840.719 615.84C839.195 615.84 838.062 616.895 838.062 618.32V625H836.383ZM847.477 625.215C844.41 625.225 842.516 623.037 842.516 619.785C842.516 616.523 844.439 614.258 847.32 614.258C849.547 614.258 851.9 615.625 851.891 619.551V620.254H844.195C844.283 622.5 845.592 623.73 847.477 623.73C848.746 623.73 849.547 623.174 849.938 622.52H851.734C851.236 624.131 849.664 625.225 847.477 625.215ZM844.205 618.828H850.191C850.182 617.061 849.068 615.742 847.32 615.742C845.484 615.742 844.322 617.188 844.205 618.828ZM858.375 629.199C855.807 629.199 854.068 628.076 853.883 626.113H855.641C855.865 627.197 856.871 627.734 858.375 627.734C860.191 627.734 861.305 626.943 861.305 625.195V623.047H861.168C860.807 623.633 860.133 624.834 858.082 624.844C855.504 624.834 853.57 622.891 853.57 619.551C853.57 616.289 855.436 614.258 858.102 614.258C860.162 614.258 860.826 615.508 861.207 616.074H861.344V614.395H862.984V625.293C862.975 628.027 860.963 629.199 858.375 629.199ZM855.27 619.609C855.27 621.807 856.305 623.34 858.316 623.34C860.26 623.34 861.334 621.943 861.344 619.609C861.334 617.334 860.289 615.762 858.316 615.762C856.275 615.762 855.27 617.471 855.27 619.609ZM872.359 620.645V614.395H874.02V625H872.359V623.203H872.242C871.744 624.277 870.689 625.137 869.098 625.137C867.086 625.137 865.65 623.828 865.66 621.133V614.395H867.34V621.016C867.34 622.539 868.287 623.525 869.645 623.516C870.846 623.525 872.35 622.627 872.359 620.645ZM878.395 610.859V625H876.715V610.859H878.395ZM880.562 621.992C880.562 619.561 882.711 619.004 884.547 618.867C885.23 618.818 886.939 618.721 887.418 618.711V617.852C887.418 616.504 886.617 615.723 885.016 615.723C883.678 615.723 882.867 616.338 882.633 617.148H880.875C881.09 615.439 882.75 614.258 885.094 614.258C886.48 614.258 889.088 614.668 889.078 618.008V625H887.418V623.555H887.34C886.988 624.268 886.021 625.244 884.176 625.254C882.164 625.244 880.562 624.062 880.562 621.992ZM882.242 622.07C882.252 623.193 883.18 623.76 884.469 623.75C886.363 623.76 887.418 622.49 887.418 621.152V620.088C886.92 620.117 885.25 620.244 884.742 620.273C883.219 620.371 882.252 620.908 882.242 622.07ZM891.773 625V614.395H893.395V616.016H893.512C893.893 614.941 894.996 614.229 896.246 614.219C896.5 614.229 896.93 614.238 897.125 614.258V615.957C896.998 615.928 896.549 615.84 896.109 615.84C894.586 615.84 893.453 616.895 893.453 618.32V625H891.773Z" fill="#DEE2E6"/>
<path d="M509.552 660.176C510.8 660.576 511.6 661.536 511.6 662.944C511.6 664.88 510.064 666 507.12 666H501.328V654.8H506.8C509.6 654.8 511.04 655.968 511.04 657.712C511.04 658.832 510.464 659.696 509.552 660.176ZM506.48 656.752H503.904V659.392H506.48C507.744 659.392 508.432 658.944 508.432 658.064C508.432 657.184 507.744 656.752 506.48 656.752ZM506.928 664.048C508.272 664.048 508.992 663.632 508.992 662.672C508.992 661.728 508.272 661.28 506.928 661.28H503.904V664.048H506.928ZM521.13 663.504V660.224H523.498V664.768C522.266 665.696 520.57 666.192 518.97 666.192C515.45 666.192 512.858 663.776 512.858 660.4C512.858 657.024 515.45 654.608 519.018 654.608C520.986 654.608 522.618 655.28 523.706 656.544L522.042 658.08C521.226 657.216 520.282 656.816 519.146 656.816C516.97 656.816 515.482 658.272 515.482 660.4C515.482 662.496 516.97 663.984 519.114 663.984C519.818 663.984 520.474 663.856 521.13 663.504ZM534.533 666.192C531.781 666.192 529.733 664.096 529.733 660.4C529.733 656.704 531.781 654.608 534.533 654.608C537.301 654.608 539.333 656.704 539.333 660.4C539.333 664.096 537.301 666.192 534.533 666.192ZM534.533 664C535.829 664 536.725 662.944 536.725 660.4C536.725 657.856 535.829 656.8 534.533 656.8C533.253 656.8 532.357 657.856 532.357 660.4C532.357 662.944 533.253 664 534.533 664ZM539.987 654.8H544.819V666H542.227V656.88H539.987V654.8Z" fill="white"/>
<rect x="320" width="150" height="200" rx="8" fill="url(#paint1_linear_501_21266)"/>
<path d="M348.896 175.504V172.224H351.264V176.768C350.032 177.696 348.336 178.192 346.736 178.192C343.216 178.192 340.624 175.776 340.624 172.4C340.624 169.024 343.216 166.608 346.784 166.608C348.752 166.608 350.384 167.28 351.472 168.544L349.808 170.08C348.992 169.216 348.048 168.816 346.912 168.816C344.736 168.816 343.248 170.272 343.248 172.4C343.248 174.496 344.736 175.984 346.88 175.984C347.584 175.984 348.24 175.856 348.896 175.504ZM355.88 170.528C356.488 169.696 357.512 169.264 358.84 169.264V171.568C358.632 171.552 358.472 171.536 358.28 171.536C356.904 171.536 355.992 172.288 355.992 173.936V178H353.496V169.392H355.88V170.528ZM363.749 169.264C366.373 169.264 367.893 170.48 367.893 173.088V178H365.557V176.928C365.093 177.712 364.197 178.128 362.933 178.128C360.917 178.128 359.717 177.008 359.717 175.52C359.717 174 360.789 172.944 363.413 172.944H365.397C365.397 171.872 364.757 171.248 363.413 171.248C362.501 171.248 361.557 171.552 360.933 172.048L360.037 170.304C360.981 169.632 362.373 169.264 363.749 169.264ZM363.557 176.448C364.389 176.448 365.109 176.064 365.397 175.28V174.4H363.685C362.517 174.4 362.149 174.832 362.149 175.408C362.149 176.032 362.677 176.448 363.557 176.448ZM378.955 178.192C376.203 178.192 374.155 176.096 374.155 172.4C374.155 168.704 376.203 166.608 378.955 166.608C381.723 166.608 383.755 168.704 383.755 172.4C383.755 176.096 381.723 178.192 378.955 178.192ZM378.955 176C380.251 176 381.147 174.944 381.147 172.4C381.147 169.856 380.251 168.8 378.955 168.8C377.675 168.8 376.779 169.856 376.779 172.4C376.779 174.944 377.675 176 378.955 176ZM384.409 166.8H389.241V178H386.649V168.88H384.409V166.8Z" fill="white"/>
<rect x="320" y="308" width="150" height="150" rx="8" fill="#021344"/>
<path d="M341.328 436V424.8H343.92V436H341.328ZM351.634 427.264C353.666 427.264 355.202 428.448 355.202 431.072V436H352.706V431.456C352.706 430.064 352.066 429.424 350.962 429.424C349.762 429.424 348.898 430.16 348.898 431.744V436H346.402V427.392H348.786V428.4C349.458 427.664 350.466 427.264 351.634 427.264ZM363.83 424.128H366.326V436H363.942V435.008C363.318 435.76 362.406 436.128 361.254 436.128C358.822 436.128 356.95 434.4 356.95 431.696C356.95 428.992 358.822 427.264 361.254 427.264C362.31 427.264 363.206 427.6 363.83 428.304V424.128ZM361.686 434.08C362.918 434.08 363.878 433.184 363.878 431.696C363.878 430.208 362.918 429.312 361.686 429.312C360.438 429.312 359.478 430.208 359.478 431.696C359.478 433.184 360.438 434.08 361.686 434.08ZM369.884 426.192C368.956 426.192 368.332 425.584 368.332 424.8C368.332 424.016 368.956 423.408 369.884 423.408C370.812 423.408 371.436 423.984 371.436 424.752C371.436 425.584 370.812 426.192 369.884 426.192ZM368.636 436V427.392H371.132V436H368.636ZM379.961 427.392H382.329V434.56C382.329 437.76 380.601 439.232 377.497 439.232C375.865 439.232 374.281 438.832 373.273 438.048L374.265 436.256C375.001 436.848 376.201 437.232 377.305 437.232C379.065 437.232 379.833 436.432 379.833 434.88V434.512C379.177 435.232 378.233 435.584 377.113 435.584C374.729 435.584 372.809 433.936 372.809 431.424C372.809 428.912 374.729 427.264 377.113 427.264C378.313 427.264 379.305 427.664 379.961 428.496V427.392ZM377.609 433.536C378.921 433.536 379.865 432.688 379.865 431.424C379.865 430.16 378.921 429.312 377.609 429.312C376.297 429.312 375.337 430.16 375.337 431.424C375.337 432.688 376.297 433.536 377.609 433.536ZM388.748 436.128C386.012 436.128 384.012 434.288 384.012 431.696C384.012 429.104 386.012 427.264 388.748 427.264C391.484 427.264 393.468 429.104 393.468 431.696C393.468 434.288 391.484 436.128 388.748 436.128ZM388.748 434.08C389.996 434.08 390.94 433.184 390.94 431.696C390.94 430.208 389.996 429.312 388.748 429.312C387.5 429.312 386.54 430.208 386.54 431.696C386.54 433.184 387.5 434.08 388.748 434.08Z" fill="white"/>
<rect x="160" y="308" width="150" height="150" rx="8" fill="#0017AE"/>
<path d="M189.04 424.8H191.6V436H189.472L183.888 429.2V436H181.328V424.8H183.472L189.04 431.6V424.8ZM197.546 427.264C200.17 427.264 201.69 428.48 201.69 431.088V436H199.354V434.928C198.89 435.712 197.994 436.128 196.73 436.128C194.714 436.128 193.514 435.008 193.514 433.52C193.514 432 194.586 430.944 197.21 430.944H199.194C199.194 429.872 198.554 429.248 197.21 429.248C196.298 429.248 195.354 429.552 194.73 430.048L193.834 428.304C194.778 427.632 196.17 427.264 197.546 427.264ZM197.354 434.448C198.186 434.448 198.906 434.064 199.194 433.28V432.4H197.482C196.314 432.4 195.946 432.832 195.946 433.408C195.946 434.032 196.474 434.448 197.354 434.448ZM209.937 427.392H212.337L208.705 436H206.129L202.513 427.392H205.089L207.473 433.248L209.937 427.392ZM219.296 427.392H221.696L217.808 436.528C216.976 438.608 215.792 439.232 214.24 439.232C213.36 439.232 212.4 438.944 211.84 438.448L212.752 436.672C213.136 437.008 213.664 437.216 214.16 437.216C214.848 437.216 215.232 436.912 215.568 436.144L215.6 436.064L211.872 427.392H214.448L216.864 433.232L219.296 427.392Z" fill="white"/>
<rect x="160" y="468" width="150" height="150" rx="8" fill="#F1F3F5"/>
<path d="M181.152 596V584.128H183.648V596H181.152ZM187.213 586.192C186.285 586.192 185.661 585.584 185.661 584.8C185.661 584.016 186.285 583.408 187.213 583.408C188.141 583.408 188.765 583.984 188.765 584.752C188.765 585.584 188.141 586.192 187.213 586.192ZM185.965 596V587.392H188.461V596H185.965ZM197.289 587.392H199.657V594.56C199.657 597.76 197.929 599.232 194.825 599.232C193.193 599.232 191.609 598.832 190.601 598.048L191.593 596.256C192.329 596.848 193.529 597.232 194.633 597.232C196.393 597.232 197.161 596.432 197.161 594.88V594.512C196.505 595.232 195.561 595.584 194.441 595.584C192.057 595.584 190.137 593.936 190.137 591.424C190.137 588.912 192.057 587.264 194.441 587.264C195.641 587.264 196.633 587.664 197.289 588.496V587.392ZM194.937 593.536C196.249 593.536 197.193 592.688 197.193 591.424C197.193 590.16 196.249 589.312 194.937 589.312C193.625 589.312 192.665 590.16 192.665 591.424C192.665 592.688 193.625 593.536 194.937 593.536ZM207.212 587.264C209.244 587.264 210.78 588.448 210.78 591.072V596H208.284V591.456C208.284 590.064 207.644 589.424 206.54 589.424C205.34 589.424 204.476 590.16 204.476 591.744V596H201.98V584.128H204.476V588.288C205.148 587.616 206.108 587.264 207.212 587.264ZM217.923 593.824L218.595 595.584C218.083 595.952 217.331 596.128 216.563 596.128C214.531 596.128 213.347 595.088 213.347 593.04V589.504H212.019V587.584H213.347V585.488H215.843V587.584H217.987V589.504H215.843V593.008C215.843 593.744 216.243 594.144 216.915 594.144C217.283 594.144 217.651 594.032 217.923 593.824ZM232.271 593.504V590.224H234.639V594.768C233.407 595.696 231.711 596.192 230.111 596.192C226.591 596.192 223.999 593.776 223.999 590.4C223.999 587.024 226.591 584.608 230.159 584.608C232.127 584.608 233.759 585.28 234.847 586.544L233.183 588.08C232.367 587.216 231.423 586.816 230.287 586.816C228.111 586.816 226.623 588.272 226.623 590.4C226.623 592.496 228.111 593.984 230.255 593.984C230.959 593.984 231.615 593.856 232.271 593.504ZM239.255 588.528C239.863 587.696 240.887 587.264 242.215 587.264V589.568C242.007 589.552 241.847 589.536 241.655 589.536C240.279 589.536 239.367 590.288 239.367 591.936V596H236.871V587.392H239.255V588.528ZM247.124 587.264C249.748 587.264 251.268 588.48 251.268 591.088V596H248.932V594.928C248.468 595.712 247.572 596.128 246.308 596.128C244.292 596.128 243.092 595.008 243.092 593.52C243.092 592 244.164 590.944 246.788 590.944H248.772C248.772 589.872 248.132 589.248 246.788 589.248C245.876 589.248 244.932 589.552 244.308 590.048L243.412 588.304C244.356 587.632 245.748 587.264 247.124 587.264ZM246.932 594.448C247.764 594.448 248.484 594.064 248.772 593.28V592.4H247.06C245.892 592.4 245.524 592.832 245.524 593.408C245.524 594.032 246.052 594.448 246.932 594.448ZM259.515 587.392H261.915L258.027 596.528C257.195 598.608 256.011 599.232 254.459 599.232C253.579 599.232 252.619 598.944 252.059 598.448L252.971 596.672C253.355 597.008 253.883 597.216 254.379 597.216C255.067 597.216 255.451 596.912 255.787 596.144L255.819 596.064L252.091 587.392H254.667L257.083 593.232L259.515 587.392Z" fill="#414651"/>
<path d="M675.051 118.857V131.217H673.52V118.857H675.051ZM664.811 127.812C668.051 126.274 669.541 124.183 669.814 121.373H665.439V120.17H671.359C671.359 123.848 669.931 126.972 665.604 129.029L664.811 127.812ZM687.082 119.418V120.635H683.493C683.63 121.824 685.147 122.945 687.533 123.219L686.959 124.436C684.744 124.148 683.11 123.171 682.447 121.831C681.784 123.164 680.164 124.148 677.949 124.436L677.389 123.219C679.774 122.945 681.265 121.817 681.408 120.635H677.854V119.418H687.082ZM676.828 126.609V125.365H681.695V123.547H683.199V125.365H688.094V126.609H676.828ZM678.223 130.971V127.443H679.74V129.74H686.822V130.971H678.223ZM696.666 120.102H698.43V127.061C698.43 128.975 697.151 130.137 695.244 130.137C693.508 130.137 692.175 129.193 692.182 127.375H693.959C693.966 128.182 694.513 128.667 695.312 128.674C696.174 128.667 696.659 128.113 696.666 127.061V120.102ZM699.824 121.592V120.102H707.713V121.592H704.664V130H702.887V121.592H699.824ZM709.107 130V120.102H712.895C715.041 120.102 716.101 121.195 716.107 122.672C716.101 123.875 715.342 124.545 714.371 124.777V124.873C715.424 124.928 716.49 125.803 716.49 127.307C716.49 128.845 715.376 130 713.113 130H709.107ZM710.885 128.51H712.84C714.139 128.51 714.679 127.956 714.686 127.17C714.679 126.281 713.988 125.604 712.881 125.598H710.885V128.51ZM710.885 124.312H712.676C713.612 124.312 714.323 123.772 714.33 122.891C714.323 122.132 713.776 121.578 712.717 121.578H710.885V124.312ZM724.611 123.438C724.399 122.248 723.449 121.564 722.246 121.564C720.626 121.564 719.478 122.809 719.484 125.051C719.478 127.327 720.633 128.537 722.246 128.537C723.422 128.537 724.372 127.881 724.611 126.719H726.402C726.129 128.619 724.563 130.137 722.219 130.137C719.607 130.137 717.687 128.243 717.693 125.051C717.687 121.852 719.628 119.965 722.219 119.965C724.406 119.965 726.095 121.236 726.402 123.438H724.611ZM742.043 128.523V129.781H730.75V128.523H735.617V126.514H732.09V122.467H739.199V120.936H732.062V119.705H740.703V123.67H733.607V125.27H740.99V126.514H737.121V128.523H742.043ZM752.939 119.992V121.182C752.926 122.72 752.926 124.436 752.447 127.02L750.916 126.855C751.401 124.449 751.401 122.692 751.408 121.209H744.025V119.992H752.939ZM742.85 129.617V128.373H747.006V124.08H748.51V128.373H754.115V129.617H742.85ZM762.127 121.1C762.134 122.48 762.899 123.848 764.52 124.49L763.699 125.652C762.612 125.215 761.847 124.408 761.409 123.424C760.951 124.531 760.145 125.475 758.969 125.98L758.162 124.805C759.864 124.06 760.657 122.494 760.664 121.1V119.596H762.127V121.1ZM760.377 128.154V126.938H768.84V131.217H767.322V128.154H760.377ZM764.738 126.281V119.076H766.16V121.947H767.391V118.871H768.84V126.35H767.391V123.205H766.16V126.281H764.738ZM774.746 120.826C774.746 122.378 775.751 123.848 777.658 124.449L776.838 125.639C775.505 125.188 774.548 124.285 774.008 123.137C773.475 124.449 772.477 125.481 771.055 125.98L770.234 124.791C772.224 124.101 773.222 122.453 773.229 120.689V119.514H774.746V120.826ZM771.916 128.852C771.916 127.389 773.522 126.521 776.1 126.527C778.656 126.521 780.235 127.389 780.242 128.852C780.235 130.349 778.656 131.203 776.1 131.203C773.522 131.203 771.916 130.349 771.916 128.852ZM773.434 128.852C773.434 129.617 774.404 130 776.1 130C777.788 130 778.738 129.617 778.738 128.852C778.738 128.127 777.788 127.717 776.1 127.717C774.404 127.717 773.434 128.127 773.434 128.852ZM778.602 126.254V118.857H780.119V121.865H781.842V123.123H780.119V126.254H778.602ZM795.473 118.857V123.684H797.305V124.955H795.473V131.189H793.955V118.857H795.473ZM785.725 127.812C788.732 126.309 790.359 124.217 790.66 121.4H786.395V120.143H792.205C792.198 123.772 790.694 126.965 786.586 128.988L785.725 127.812ZM808.174 118.857V131.23H806.643V118.857H808.174ZM798.289 124.121C798.282 121.455 799.643 119.76 801.516 119.76C803.368 119.76 804.735 121.455 804.742 124.121C804.735 126.808 803.368 128.496 801.516 128.496C799.643 128.496 798.282 126.808 798.289 124.121ZM799.752 124.121C799.752 126.021 800.47 127.122 801.516 127.129C802.555 127.122 803.266 126.021 803.266 124.121C803.266 122.234 802.555 121.127 801.516 121.127C800.47 121.127 799.752 122.234 799.752 124.121ZM820.027 124.654V125.871H811.359V119.938H819.932V121.168H812.863V124.654H820.027ZM809.992 129.645V128.387H821.285V129.645H809.992ZM633.099 140.76C634.958 140.76 636.298 142.455 636.312 145.121C636.298 147.808 634.958 149.496 633.099 149.496C631.219 149.496 629.879 147.808 629.886 145.121C629.879 142.455 631.219 140.76 633.099 140.76ZM631.349 145.121C631.342 147.021 632.06 148.122 633.099 148.129C634.145 148.122 634.842 147.021 634.849 145.121C634.842 143.234 634.145 142.127 633.099 142.127C632.06 142.127 631.342 143.234 631.349 145.121ZM637.938 152.217V139.857H639.456V144.602H641.356V145.887H639.456V152.217H637.938ZM652.157 139.857V152.23H650.626V139.857H652.157ZM642.272 145.121C642.266 142.455 643.626 140.76 645.499 140.76C647.352 140.76 648.719 142.455 648.726 145.121C648.719 147.808 647.352 149.496 645.499 149.496C643.626 149.496 642.266 147.808 642.272 145.121ZM643.735 145.121C643.735 147.021 644.453 148.122 645.499 148.129C646.538 148.122 647.249 147.021 647.249 145.121C647.249 143.234 646.538 142.127 645.499 142.127C644.453 142.127 643.735 143.234 643.735 145.121ZM659.308 140.855V142.072H656.026V145.873C657.346 145.866 658.453 145.798 659.731 145.545L659.854 146.734C658.316 147.042 657.045 147.069 655.356 147.076H654.536V140.855H659.308ZM656.327 151.971V147.965H657.845V150.727H664.94V151.971H656.327ZM658.556 144.424V143.207H660.688V140.104H662.124V148.662H660.688V144.424H658.556ZM663.149 148.99V139.871H664.599V148.99H663.149ZM672.979 140.924V142.168H668.29V144.369H672.487V145.572H668.29V148.115C670.313 148.108 671.858 148.033 673.636 147.746L673.786 148.977C671.838 149.284 670.102 149.346 667.825 149.346H666.786V140.924H672.979ZM674.866 152.217V139.857H676.397V152.217H674.866ZM685.079 140.924V142.168H680.39V144.369H684.587V145.572H680.39V148.115C682.413 148.108 683.958 148.033 685.735 147.746L685.886 148.977C683.938 149.284 682.201 149.346 679.925 149.346H678.886V140.924H685.079ZM686.966 152.217V139.857H688.497V152.217H686.966ZM700.05 140.418C700.036 143.672 698.348 145.668 694.417 146.625L693.87 145.463C695.716 145.039 696.898 144.39 697.603 143.576L694.116 143.836L693.884 142.674L698.225 142.51C698.327 142.223 698.396 141.922 698.43 141.607H694.513V140.418H700.05ZM695.812 147.842V146.652H703.946V149.865H697.315V150.863H704.274V152.066H695.825V148.758H702.442V147.842H695.812ZM700.077 143.863V142.619H702.429V139.857H703.946V146.16H702.429V143.863H700.077ZM716.046 139.857V152.23H714.528V145.654H712.409V144.41H714.528V139.857H716.046ZM706.106 142.168V140.938H711.698V145.463H707.651V148.061C709.49 148.054 710.967 147.992 712.628 147.691L712.751 148.936C710.912 149.257 709.258 149.325 707.132 149.332H706.147V144.232H710.208V142.168H706.106ZM729.075 145.463V146.611H717.782V145.463H729.075ZM719.095 148.416V147.35H727.708V150.166H720.626V151.027H728.077V152.08H719.108V149.182H726.204V148.416H719.095ZM719.177 141.184V140.131H727.681V142.92H720.722V143.727H727.899V144.766H719.218V141.936H726.163V141.184H719.177ZM743.54 139.857V152.217H742.009V139.857H743.54ZM733.3 148.812C736.54 147.274 738.03 145.183 738.304 142.373H733.929V141.17H739.849C739.849 144.848 738.42 147.972 734.093 150.029L733.3 148.812ZM755.571 140.418V141.635H751.989C752.126 142.804 753.637 143.911 756.022 144.191L755.448 145.395C753.233 145.128 751.6 144.15 750.937 142.817C750.273 144.144 748.653 145.128 746.438 145.395L745.878 144.191C748.264 143.911 749.754 142.797 749.897 141.635H746.343V140.418H755.571ZM745.304 147.309V146.078H756.597V147.309H751.825V149.564H750.321V147.309H745.304ZM746.671 151.971V148.43H748.188V150.74H755.353V151.971H746.671ZM763.036 140.555C765.641 140.555 767.65 141.942 767.644 144.041C767.65 146.167 765.641 147.555 763.036 147.555C760.445 147.555 758.449 146.167 758.456 144.041C758.449 141.942 760.445 140.555 763.036 140.555ZM757.417 150.658V149.414H768.71V150.658H757.417ZM759.919 144.041C759.912 145.442 761.238 146.304 763.036 146.311C764.841 146.304 766.153 145.442 766.153 144.041C766.153 142.674 764.841 141.771 763.036 141.785C761.238 141.771 759.912 142.674 759.919 144.041ZM780.81 149.523V150.781H769.517V149.523H774.384V147.514H770.856V143.467H777.966V141.936H770.829V140.705H779.47V144.67H772.374V146.27H779.757V147.514H775.888V149.523H780.81ZM784.022 150.029L782.874 153.857H781.575L782.286 150.029H784.022ZM798.187 139.857V144.547H800.087V145.791H798.187V152.23H796.669V139.857H798.187ZM789.013 149.209V141.033H794.796V142.264H790.53V147.938C792.451 147.931 793.976 147.835 795.671 147.541L795.849 148.826C793.928 149.154 792.267 149.209 790.038 149.209H789.013ZM810.628 141.006V142.482C810.628 144.28 810.628 145.976 810.081 148.594L808.563 148.457C808.816 147.377 808.953 146.427 809.035 145.552L801.755 145.928L801.55 144.697L809.104 144.41C809.131 143.747 809.138 143.111 809.138 142.482V142.236H801.919V141.006H810.628ZM800.606 150.645V149.4H811.872V150.645H800.606ZM827.321 149.469V150.713H816.028V149.469H820.896V146.775H817.272V140.814H826.022V146.775H822.399V149.469H827.321ZM818.763 145.586H824.519V142.031H818.763V145.586ZM838.163 145.654V146.871H829.495V140.938H838.067V142.168H830.999V145.654H838.163ZM828.128 150.645V149.387H839.421V150.645H828.128ZM850.304 141.102H852.095V147.568C852.088 149.694 850.488 151.15 848.075 151.15C845.648 151.15 844.062 149.694 844.056 147.568V141.102H845.833V147.418C845.84 148.669 846.708 149.558 848.075 149.564C849.442 149.558 850.304 148.669 850.304 147.418V141.102ZM855.704 141.102V151H853.927V141.102H855.704ZM654.146 160.857V165H655.814V166.258H654.146V170.51H652.629V160.857H654.146ZM644.248 168.035C645.171 168.035 646.244 168.028 647.365 167.994V167.208C645.991 167.037 645.116 166.36 645.123 165.369C645.116 164.159 646.312 163.441 648.104 163.455C649.901 163.441 651.084 164.159 651.084 165.369C651.084 166.354 650.236 167.023 648.883 167.208V167.919C649.936 167.857 650.995 167.762 651.986 167.611L652.109 168.678C649.491 169.17 646.545 169.204 644.412 169.225L644.248 168.035ZM644.562 163.045V161.938H647.365V160.816H648.883V161.938H651.658V163.045H644.562ZM646.025 172.971V169.867H647.543V171.74H654.584V172.971H646.025ZM646.586 165.369C646.572 165.902 647.146 166.217 648.104 166.217C649.061 166.217 649.635 165.902 649.635 165.369C649.635 164.788 649.061 164.474 648.104 164.48C647.146 164.474 646.572 164.788 646.586 165.369ZM666.807 160.871V168.09H665.289V166.723H662.35V165.492H665.289V164.166H662.466C661.687 166.128 659.882 167.502 657.195 168.254L656.58 167.051C659.472 166.271 661.017 164.802 661.249 162.963H657.236V161.732H662.91C662.91 162.163 662.876 162.573 662.808 162.963H665.289V160.871H666.807ZM658.521 170.688C658.521 169.17 660.183 168.233 662.719 168.227C665.221 168.233 666.889 169.17 666.889 170.688C666.889 172.205 665.221 173.155 662.719 173.148C660.183 173.155 658.521 172.205 658.521 170.688ZM660.039 170.688C660.039 171.501 661.058 171.945 662.719 171.945C664.353 171.945 665.364 171.501 665.371 170.688C665.364 169.86 664.353 169.416 662.719 169.416C661.058 169.416 660.039 169.86 660.039 170.688ZM679.221 160.857V173.217H677.758V160.857H679.221ZM668.68 166.203C668.68 163.482 669.732 161.794 671.346 161.801C672.843 161.794 673.861 163.195 674.039 165.506H675.229V161.076H676.678V172.615H675.229V166.736H674.053C673.909 169.149 672.877 170.626 671.346 170.619C669.732 170.626 668.68 168.931 668.68 166.203ZM670.088 166.203C670.081 168.138 670.56 169.177 671.346 169.17C672.166 169.177 672.651 168.138 672.658 166.203C672.651 164.275 672.166 163.229 671.346 163.236C670.56 163.229 670.081 164.275 670.088 166.203ZM690.254 161.678V167.051H684.402V161.678H690.254ZM685.127 172C687.314 171.706 688.682 170.742 688.928 169.662H685.633V168.459H693.904V169.662H690.623C690.869 170.715 692.264 171.713 694.424 172.014L693.877 173.176C691.942 172.902 690.479 172.075 689.769 170.961C689.058 172.075 687.608 172.889 685.688 173.148L685.127 172ZM685.893 165.834H688.764V162.895H685.893V165.834ZM692.209 167.83V160.857H693.727V163.633H695.449V164.891H693.727V167.83H692.209ZM706.742 160.857V173.217H705.293V160.857H706.742ZM695.982 169.525C698.539 168.015 699.715 166.08 699.947 163.592H696.611V162.361H701.451C701.451 163.558 701.301 164.679 700.966 165.725H702.682V161.158H704.117V172.629H702.682V166.941H700.467C699.749 168.356 698.587 169.594 696.844 170.605L695.982 169.525ZM722.766 167.721V168.965H711.473V167.721H716.354V166.695H712.922V161.281H721.412V162.457H714.439V163.414H721.111V164.549H714.439V165.533H721.508V166.695H717.871V167.721H722.766ZM712.895 172.971V169.635H714.385V171.74H721.604V172.971H712.895ZM730.504 162.143V163.018C730.504 164.118 730.504 165.677 730.162 167.803L728.658 167.68C728.959 165.807 728.993 164.419 729 163.359H724.146V162.143H730.504ZM723.49 169.402C724.222 169.396 725.035 169.389 725.883 169.368V165.67H727.387V169.32C728.645 169.266 729.937 169.177 731.119 169.033L731.201 170.168C728.651 170.585 725.821 170.633 723.641 170.619L723.49 169.402ZM731.762 173.217V160.857H733.293V165.889H735.084V167.174H733.293V173.217H731.762ZM749.658 160.857V173.217H748.209V166.914H746.814V172.588H745.42V161.09H746.814V165.697H748.209V160.857H749.658ZM739.404 170.332V162.32H744.025V163.551H740.936V169.047C742.275 169.033 743.383 168.965 744.641 168.732L744.75 169.977C743.253 170.277 741.961 170.318 740.238 170.332H739.404ZM761.402 160.857V173.23H759.871V160.857H761.402ZM751.777 170.318V161.869H753.295V164.959H756.289V161.869H757.793V170.318H751.777ZM753.295 169.074H756.289V166.148H753.295V169.074ZM774.5 166.463V167.611H763.207V166.463H774.5ZM764.52 169.416V168.35H773.133V171.166H766.051V172.027H773.502V173.08H764.533V170.182H771.629V169.416H764.52ZM764.602 162.184V161.131H773.105V163.92H766.146V164.727H773.324V165.766H764.643V162.936H771.588V162.184H764.602ZM789.936 170.482V171.727H778.643V170.482H783.523V167.639H785.041V170.482H789.936ZM779.135 166.955C781.596 166.545 783.428 164.877 783.469 163.1H779.586V161.855H788.965V163.1H785.068C785.116 164.877 786.948 166.504 789.484 166.887L788.883 168.09C786.798 167.714 785.082 166.606 784.282 165.062C783.489 166.627 781.794 167.769 779.736 168.158L779.135 166.955ZM801.092 160.857V168.199H799.574V165.178H797.469V163.934H799.574V160.857H801.092ZM790.701 166.969C792.69 166.285 793.736 164.624 793.736 162.99V162.895H791.166V161.664H797.838V162.895H795.281V162.977C795.281 164.48 796.279 165.998 798.193 166.641L797.428 167.844C796.054 167.379 795.083 166.436 794.536 165.273C793.996 166.586 792.964 167.652 791.494 168.172L790.701 166.969ZM792.711 170.865C792.697 169.382 794.304 168.514 796.908 168.514C799.526 168.514 801.126 169.382 801.133 170.865C801.126 172.349 799.526 173.21 796.908 173.217C794.304 173.21 792.697 172.349 792.711 170.865ZM794.215 170.865C794.208 171.631 795.192 172.048 796.908 172.041C798.638 172.048 799.615 171.631 799.615 170.865C799.615 170.093 798.638 169.676 796.908 169.676C795.192 169.676 794.208 170.093 794.215 170.865ZM808.871 162.826V164.043H802.814V162.826H805.111V161.213H806.615V162.826H808.871ZM803.17 167.57C803.156 165.889 804.298 164.692 805.863 164.699C807.436 164.692 808.557 165.889 808.557 167.57C808.557 169.286 807.436 170.482 805.863 170.482C804.298 170.482 803.156 169.286 803.17 167.57ZM804.51 167.57C804.503 168.568 805.063 169.19 805.863 169.184C806.656 169.19 807.217 168.568 807.217 167.57C807.217 166.6 806.656 165.957 805.863 165.957C805.063 165.957 804.503 166.6 804.51 167.57ZM809.391 172.656V161.117H810.812V165.943H812.016V160.857H813.465V173.217H812.016V167.174H810.812V172.656H809.391ZM828.053 160.857V163.865H829.721V165.137H828.053V168.131H826.535V160.857H828.053ZM818.154 166.887C819.084 166.887 820.157 166.887 821.271 166.859V166.237C819.884 166.094 819.022 165.526 819.029 164.617C819.022 163.619 820.198 163.031 822.01 163.031C823.821 163.031 824.99 163.619 824.99 164.617C824.99 165.513 824.149 166.087 822.789 166.23V166.805C823.842 166.75 824.901 166.668 825.893 166.531L826.016 167.488C823.37 167.933 820.472 167.953 818.318 167.953L818.154 166.887ZM818.469 162.73V161.691H821.271V160.762H822.789V161.691H825.564V162.73H818.469ZM819.795 169.648V168.623H828.053V171.289H821.34V172.082H828.49V173.107H819.822V170.346H826.535V169.648H819.795ZM820.492 164.617C820.479 165.062 821.053 165.301 822.01 165.301C822.967 165.301 823.541 165.062 823.541 164.617C823.541 164.207 822.967 163.995 822.01 163.988C821.053 163.995 820.479 164.207 820.492 164.617ZM841.629 166.805V168.021H830.363V166.805H832.988V165.239C832.052 164.843 831.525 164.221 831.525 163.414C831.525 161.931 833.255 161.062 835.982 161.062C838.703 161.062 840.433 161.931 840.439 163.414C840.433 164.228 839.899 164.85 838.963 165.239V166.805H841.629ZM831.676 170.975C831.676 169.553 833.282 168.76 835.982 168.773C838.642 168.76 840.255 169.553 840.262 170.975C840.255 172.41 838.642 173.189 835.982 173.189C833.282 173.189 831.676 172.41 831.676 170.975ZM833.111 163.414C833.098 164.166 834.157 164.569 835.982 164.562C837.801 164.569 838.867 164.166 838.867 163.414C838.867 162.655 837.801 162.231 835.982 162.238C834.157 162.231 833.098 162.655 833.111 163.414ZM833.221 170.975C833.214 171.672 834.185 172.048 835.982 172.041C837.753 172.048 838.73 171.672 838.744 170.975C838.73 170.284 837.753 169.929 835.982 169.922C834.185 169.929 833.214 170.284 833.221 170.975ZM834.52 166.805H837.445V165.629C837.001 165.69 836.509 165.725 835.982 165.725C835.456 165.725 834.964 165.69 834.52 165.629V166.805Z" fill="#A4A7AE"/>
<rect x="160" y="148" width="150" height="150" rx="8" fill="#0050FF"/>
<path d="M189.552 270.176C190.8 270.576 191.6 271.536 191.6 272.944C191.6 274.88 190.064 276 187.12 276H181.328V264.8H186.8C189.6 264.8 191.04 265.968 191.04 267.712C191.04 268.832 190.464 269.696 189.552 270.176ZM186.48 266.752H183.904V269.392H186.48C187.744 269.392 188.432 268.944 188.432 268.064C188.432 267.184 187.744 266.752 186.48 266.752ZM186.928 274.048C188.272 274.048 188.992 273.632 188.992 272.672C188.992 271.728 188.272 271.28 186.928 271.28H183.904V274.048H186.928ZM193.386 276V264.128H195.882V276H193.386ZM204.375 267.392H206.871V276H204.503V274.976C203.847 275.728 202.887 276.128 201.831 276.128C199.671 276.128 198.151 274.912 198.151 272.256V267.392H200.647V271.888C200.647 273.328 201.287 273.968 202.391 273.968C203.543 273.968 204.375 273.232 204.375 271.648V267.392ZM217.615 271.728C217.615 271.92 217.583 272.192 217.567 272.4H211.055C211.295 273.472 212.207 274.128 213.519 274.128C214.431 274.128 215.087 273.856 215.679 273.296L217.007 274.736C216.207 275.648 215.007 276.128 213.455 276.128C210.479 276.128 208.543 274.256 208.543 271.696C208.543 269.12 210.511 267.264 213.135 267.264C215.663 267.264 217.615 268.96 217.615 271.728ZM213.151 269.152C212.015 269.152 211.199 269.84 211.023 270.944H215.263C215.087 269.856 214.271 269.152 213.151 269.152Z" fill="white"/>
<rect y="148" width="150" height="150" rx="8" fill="#1D007F"/>
<path d="M26.176 264.8C29.168 264.8 31.04 266.352 31.04 268.864C31.04 271.36 29.168 272.912 26.176 272.912H23.92V276H21.328V264.8H26.176ZM26.032 270.8C27.616 270.8 28.416 270.08 28.416 268.864C28.416 267.632 27.616 266.912 26.032 266.912H23.92V270.8H26.032ZM39.0468 267.392H41.5428V276H39.1748V274.976C38.5188 275.728 37.5588 276.128 36.5028 276.128C34.3428 276.128 32.8228 274.912 32.8228 272.256V267.392H35.3188V271.888C35.3188 273.328 35.9588 273.968 37.0628 273.968C38.2148 273.968 39.0468 273.232 39.0468 271.648V267.392ZM46.2391 268.528C46.8471 267.696 47.8711 267.264 49.1991 267.264V269.568C48.9911 269.552 48.8311 269.536 48.6391 269.536C47.2631 269.536 46.3511 270.288 46.3511 271.936V276H43.8551V267.392H46.2391V268.528ZM55.7713 267.264C58.1873 267.264 60.0593 268.992 60.0593 271.696C60.0593 274.4 58.1873 276.128 55.7713 276.128C54.6993 276.128 53.8193 275.792 53.1793 275.088V279.104H50.6833V267.392H53.0673V268.384C53.6913 267.632 54.6193 267.264 55.7713 267.264ZM55.3393 274.08C56.5873 274.08 57.5312 273.184 57.5312 271.696C57.5312 270.208 56.5873 269.312 55.3393 269.312C54.0913 269.312 53.1473 270.208 53.1473 271.696C53.1473 273.184 54.0913 274.08 55.3393 274.08ZM61.7301 276V264.128H64.2261V276H61.7301ZM74.9746 271.728C74.9746 271.92 74.9426 272.192 74.9266 272.4H68.4146C68.6546 273.472 69.5666 274.128 70.8786 274.128C71.7906 274.128 72.4466 273.856 73.0386 273.296L74.3666 274.736C73.5666 275.648 72.3666 276.128 70.8146 276.128C67.8386 276.128 65.9026 274.256 65.9026 271.696C65.9026 269.12 67.8706 267.264 70.4946 267.264C73.0226 267.264 74.9746 268.96 74.9746 271.728ZM70.5106 269.152C69.3746 269.152 68.5586 269.84 68.3826 270.944H72.6226C72.4466 269.856 71.6306 269.152 70.5106 269.152Z" fill="white"/>
<path d="M8.36 17.24C4.02 17.24 0.78 14.22 0.78 10C0.78 5.78 4.02 2.76 8.38 2.76C10.8 2.76 12.82 3.64 14.14 5.24L12.06 7.16C11.12 6.08 9.94 5.52 8.54 5.52C5.92 5.52 4.06 7.36 4.06 10C4.06 12.64 5.92 14.48 8.54 14.48C9.94 14.48 11.12 13.92 12.06 12.82L14.14 14.74C12.82 16.36 10.8 17.24 8.36 17.24ZM20.8569 17.16C17.4369 17.16 14.9369 14.86 14.9369 11.62C14.9369 8.38 17.4369 6.08 20.8569 6.08C24.2769 6.08 26.7569 8.38 26.7569 11.62C26.7569 14.86 24.2769 17.16 20.8569 17.16ZM20.8569 14.6C22.4169 14.6 23.5969 13.48 23.5969 11.62C23.5969 9.76 22.4169 8.64 20.8569 8.64C19.2969 8.64 18.0969 9.76 18.0969 11.62C18.0969 13.48 19.2969 14.6 20.8569 14.6ZM28.8423 17V2.16H31.9623V17H28.8423ZM39.978 17.16C36.558 17.16 34.058 14.86 34.058 11.62C34.058 8.38 36.558 6.08 39.978 6.08C43.398 6.08 45.878 8.38 45.878 11.62C45.878 14.86 43.398 17.16 39.978 17.16ZM39.978 14.6C41.538 14.6 42.718 13.48 42.718 11.62C42.718 9.76 41.538 8.64 39.978 8.64C38.418 8.64 37.218 9.76 37.218 11.62C37.218 13.48 38.418 14.6 39.978 14.6ZM50.9434 7.66C51.7034 6.62 52.9834 6.08 54.6434 6.08V8.96C54.3834 8.94 54.1834 8.92 53.9434 8.92C52.2234 8.92 51.0834 9.86 51.0834 11.92V17H47.9634V6.24H50.9434V7.66Z" fill="#021344"/>
</g>
<defs>
<linearGradient id="paint0_linear_501_21266" x1="720" y1="308" x2="720" y2="688" gradientUnits="userSpaceOnUse">
<stop stop-color="#01113B"/>
<stop offset="1" stop-color="#051335"/>
</linearGradient>
<linearGradient id="paint1_linear_501_21266" x1="395" y1="0" x2="395" y2="200" gradientUnits="userSpaceOnUse">
<stop stop-color="#01FF8D"/>
<stop offset="1" stop-color="#0050FF"/>
</linearGradient>
<clipPath id="clip0_501_21266">
<rect width="960" height="688" fill="white"/>
</clipPath>
</defs>
</svg>
