<svg width="604" height="180" viewBox="0 0 604 180" fill="none" xmlns="http://www.w3.org/2000/svg">
<rect width="180" height="180" rx="90" fill="#F1F3F5"/>
<path d="M61.2305 84.5312V94.9492H60.3047V84.5312H61.2305ZM52.7461 92.2422C55.5645 90.9062 57.0059 88.9082 57.2109 86.418H53.2266V85.668H58.1484C58.1367 88.6621 56.7422 91.3164 53.25 92.9922L52.7461 92.2422ZM68.332 85.832C68.3262 87.1211 70.0723 88.1758 71.918 88.4102L71.5547 89.1602C69.873 88.9023 68.2969 88.0645 67.7344 86.834C67.166 88.0645 65.6016 88.9023 63.9141 89.1602L63.5742 88.4102C65.4082 88.1758 67.1426 87.1211 67.1367 85.832V85.8086H63.8555V85.0469H71.6367V85.8086H68.332V85.832ZM62.9883 90.918V90.1562H67.2773V88.4102H68.1797V90.1562H72.5156V90.918H62.9883ZM64.2188 94.7266V91.7617H65.1445V93.9531H71.4258V94.7266H64.2188ZM79.1602 85.3398C80.6953 85.3457 81.7852 86.7578 81.7969 88.9727C81.7852 91.1934 80.6953 92.5996 79.1602 92.5938C77.6133 92.5996 76.5293 91.1934 76.5352 88.9727C76.5293 86.7578 77.6133 85.3457 79.1602 85.3398ZM77.4023 88.9727C77.4082 90.666 78.1289 91.7793 79.1602 91.7734C80.2031 91.7793 80.9062 90.666 80.9062 88.9727C80.9062 87.2793 80.2031 86.166 79.1602 86.1602C78.1289 86.166 77.4082 87.2793 77.4023 88.9727ZM83.5195 94.9492V84.5312H84.4336V88.6914H86.1797V89.4883H84.4336V94.9492H83.5195ZM95.332 84.5312V94.9727H94.4062V84.5312H95.332ZM87.1289 88.9727C87.1348 86.7578 88.2363 85.3457 89.7891 85.3398C91.3359 85.3457 92.4551 86.7578 92.4492 88.9727C92.4551 91.1934 91.3359 92.5996 89.7891 92.5938C88.2363 92.5996 87.1348 91.1934 87.1289 88.9727ZM88.0195 88.9727C88.0195 90.666 88.7461 91.7793 89.7891 91.7734C90.8379 91.7793 91.5586 90.666 91.5586 88.9727C91.5586 87.2793 90.8379 86.166 89.7891 86.1602C88.7461 86.166 88.0195 87.2793 88.0195 88.9727ZM101.602 85.4688V86.2305H98.5312V89.7344C99.8496 89.7344 100.881 89.6758 102.105 89.4297L102.188 90.168C100.852 90.4375 99.7676 90.4668 98.2852 90.4727H97.6289V85.4688H101.602ZM99.1523 94.7266V91.3633H100.078V93.9531H106.301V94.7266H99.1523ZM100.945 88.1992V87.4492H103.078V84.7539H103.957V91.9492H103.078V88.1992H100.945ZM105.105 92.2539V84.543H105.984V92.2539H105.105ZM113.227 85.4805V86.2539H109.066V88.4102H112.852V89.1602H109.066V91.6797C111.012 91.6797 112.348 91.6094 113.941 91.3398L114.035 92.1016C112.389 92.377 110.988 92.4355 108.984 92.4414H108.152V85.4805H113.227ZM115.172 94.9492V84.5312H116.098V94.9492H115.172ZM123.598 85.4805V86.2539H119.438V88.4102H123.223V89.1602H119.438V91.6797C121.383 91.6797 122.719 91.6094 124.312 91.3398L124.406 92.1016C122.76 92.377 121.359 92.4355 119.355 92.4414H118.523V85.4805H123.598ZM125.543 94.9492V84.5312H126.469V94.9492H125.543Z" fill="#535862"/>
<rect x="164" width="180" height="180" rx="90" fill="#F1F3F5"/>
<path d="M227.141 85.5156V94H226.133L221.539 87.3906H221.457V94H220.402V85.5156H221.422L226.016 92.1367H226.098V85.5156H227.141ZM231.559 94.1289C229.719 94.1348 228.582 92.8223 228.582 90.8711C228.582 88.9141 229.736 87.5547 231.465 87.5547C232.801 87.5547 234.213 88.375 234.207 90.7305V91.1523H229.59C229.643 92.5 230.428 93.2383 231.559 93.2383C232.32 93.2383 232.801 92.9043 233.035 92.5117H234.113C233.814 93.4785 232.871 94.1348 231.559 94.1289ZM229.596 90.2969H233.188C233.182 89.2363 232.514 88.4453 231.465 88.4453C230.363 88.4453 229.666 89.3125 229.596 90.2969ZM236.949 94L235.016 87.6367H236.082L237.441 92.4883H237.5L238.848 87.6367H239.926L241.25 92.4648H241.32L242.68 87.6367H243.734L241.801 94H240.805L239.422 89.1484H239.328L237.957 94H236.949ZM251.539 85.6914V89.2891H248.715V91.6094C249.916 91.5977 251.053 91.5625 252.441 91.3164L252.512 92.0781C251.029 92.3418 249.834 92.377 248.516 92.3828H247.824V88.5273H250.66V86.4531H247.801V85.6914H251.539ZM252.043 89.043V88.293H253.379V84.7891H254.246V94.3984H253.379V89.043H252.043ZM255.5 94.9492V84.5312H256.379V94.9492H255.5ZM266.434 84.5312V94.9727H265.508V84.5312H266.434ZM258.23 88.9727C258.236 86.7578 259.338 85.3457 260.891 85.3398C262.438 85.3457 263.557 86.7578 263.551 88.9727C263.557 91.1934 262.438 92.5996 260.891 92.5938C259.338 92.5996 258.236 91.1934 258.23 88.9727ZM259.121 88.9727C259.121 90.666 259.848 91.7793 260.891 91.7734C261.939 91.7793 262.66 90.666 262.66 88.9727C262.66 87.2793 261.939 86.166 260.891 86.1602C259.848 86.166 259.121 87.2793 259.121 88.9727ZM271.004 85.3398C272.539 85.3457 273.629 86.7578 273.641 88.9727C273.629 91.1934 272.539 92.5996 271.004 92.5938C269.457 92.5996 268.373 91.1934 268.379 88.9727C268.373 86.7578 269.457 85.3457 271.004 85.3398ZM269.246 88.9727C269.252 90.666 269.973 91.7793 271.004 91.7734C272.047 91.7793 272.75 90.666 272.75 88.9727C272.75 87.2793 272.047 86.166 271.004 86.1602C269.973 86.166 269.252 87.2793 269.246 88.9727ZM275.363 94.9492V84.5312H276.277V88.6914H278.023V89.4883H276.277V94.9492H275.363ZM288.113 89.2891V90.0859H283.766V91.2227H282.863V90.0859H278.586V89.2891H288.113ZM279.277 94.1992C281.141 94.0059 282.84 93.1621 282.84 92.0312V91.6914H283.777V92.0312C283.783 93.1797 285.465 94.0059 287.352 94.1992L287.059 94.9023C285.412 94.7207 283.93 94.0938 283.309 93.0977C282.688 94.082 281.217 94.7207 279.582 94.9023L279.277 94.1992ZM279.641 86.6055C279.641 85.3809 281.047 84.7012 283.332 84.707C285.617 84.7012 287.006 85.3809 287.012 86.6055C287.006 87.8184 285.617 88.5156 283.332 88.5039C281.047 88.5156 279.641 87.8184 279.641 86.6055ZM280.59 86.6055C280.584 87.3438 281.627 87.7949 283.332 87.7891C285.02 87.7949 286.068 87.3438 286.074 86.6055C286.068 85.8555 285.02 85.3984 283.332 85.4102C281.627 85.3984 280.584 85.8555 280.59 86.6055Z" fill="#535862"/>
<rect x="424" width="180" height="180" rx="90" fill="#1D50CD"/>
<path d="M489.923 85.7832V87.4336H488.54V88.373H489.923V90.0234H488.54V91.3184H486.496V84.5137H488.54V85.7832H489.923ZM479.132 88.0176C479.126 86.3291 480.573 85.123 482.433 85.123C484.28 85.123 485.721 86.3291 485.721 88.0176C485.721 89.6934 484.28 90.9185 482.433 90.9121C480.573 90.9185 479.126 89.6934 479.132 88.0176ZM480.542 93.8828C480.535 92.3848 482.154 91.4707 484.642 91.4834C487.073 91.4707 488.654 92.3848 488.654 93.8828C488.654 95.3809 487.073 96.2822 484.642 96.2822C482.154 96.2822 480.535 95.3809 480.542 93.8828ZM481.125 88.0176C481.125 88.8047 481.69 89.1982 482.433 89.1982C483.157 89.1982 483.734 88.8047 483.741 88.0176C483.734 87.2495 483.157 86.8242 482.433 86.8242C481.69 86.8242 481.125 87.2495 481.125 88.0176ZM482.573 93.8828C482.573 94.4731 483.252 94.6763 484.642 94.6699C486 94.6763 486.642 94.4731 486.635 93.8828C486.642 93.3052 486 93.0703 484.642 93.0703C483.252 93.0703 482.573 93.3052 482.573 93.8828ZM500.27 84.5137V90.5059H498.239V84.5137H500.27ZM490.355 89.0967C492.132 88.6523 492.881 87.6113 493.065 86.583H490.888V84.9834H497.312V86.583H495.217C495.401 87.5288 496.125 88.481 497.858 88.9062L496.906 90.4678C495.579 90.1313 494.703 89.4331 494.176 88.5508C493.643 89.5474 492.704 90.3408 491.282 90.709L490.355 89.0967ZM492.259 92.4229V90.8994H500.283V94.251H494.278V94.6699H500.537V96.2061H492.285V92.8164H498.251V92.4229H492.259ZM505.386 85.2627C507.265 85.2563 508.7 86.5068 508.7 88.2207C508.7 89.9473 507.265 91.1851 505.386 91.1787C503.539 91.1851 502.073 89.9473 502.073 88.2207C502.073 86.5068 503.539 85.2563 505.386 85.2627ZM501.654 92.3848C503.704 92.3848 506.548 92.353 509.004 92.0166L509.157 93.4766C506.611 93.9844 503.895 94.0098 501.882 94.0098L501.654 92.3848ZM504.104 88.2207C504.098 89.0459 504.675 89.4331 505.386 89.4268C506.129 89.4331 506.713 89.0459 506.719 88.2207C506.713 87.4209 506.135 87.0146 505.386 87.0146C504.669 87.0146 504.098 87.4209 504.104 88.2207ZM509.601 96.2949V84.5137H511.62V96.2949H509.601ZM525.229 84.8945V86.0879C525.223 87.2876 525.223 88.4175 524.899 89.9473L522.893 89.7949C522.982 89.376 523.045 88.9888 523.096 88.6143L516.761 88.8555L516.533 87.2051L523.198 87.1099C523.204 86.9131 523.204 86.71 523.21 86.5068H516.875V84.8945H525.229ZM515.72 91.9912V90.417H519.453V89.1094H521.497V90.417H526.359V91.9912H515.72ZM516.875 96.0918V92.5498H518.919V94.4541H525.381V96.0918H516.875ZM537.074 84.5391V93.2861H535.144V84.5391H537.074ZM527.324 91.8262V85.377H531.792V86.9766H529.279V87.8398H531.386V89.3633H529.279V90.2012C530.313 90.1948 531.158 90.1631 532.123 90.0107L532.313 91.585C530.98 91.7944 529.85 91.8262 528.162 91.8262H527.324ZM529.076 96.0918V92.3467H531.12V94.4668H537.34V96.0918H529.076ZM531.856 89.2363V87.6367H532.795V84.7295H534.712V93.0322H532.795V89.2363H531.856ZM548.88 93.3496V94.9873H538.153V93.3496H548.88ZM538.343 90.4678C541.187 90.1377 542.247 88.7729 542.438 87.624H539.029V85.999H542.507V84.6406H544.526V85.999H548.017V87.624H544.596C544.773 88.7729 545.833 90.1377 548.703 90.4678L547.928 92.0801C545.745 91.8008 544.304 90.9185 543.504 89.7568C542.71 90.9185 541.276 91.8008 539.105 92.0801L538.343 90.4678Z" fill="white"/>
<path d="M341.333 90C341.333 91.4728 342.527 92.6667 344 92.6667C345.473 92.6667 346.667 91.4728 346.667 90C346.667 88.5272 345.473 87.3333 344 87.3333C342.527 87.3333 341.333 88.5272 341.333 90ZM424 90L419 87.1132V92.8868L424 90ZM344 90V90.5H345V90V89.5H344V90ZM347 90V90.5H349V90V89.5H347V90ZM351 90V90.5H353V90V89.5H351V90ZM355 90V90.5H357V90V89.5H355V90ZM359 90V90.5H361V90V89.5H359V90ZM363 90V90.5H365V90V89.5H363V90ZM367 90V90.5H369V90V89.5H367V90ZM371 90V90.5H373V90V89.5H371V90ZM375 90V90.5H377V90V89.5H375V90ZM379 90V90.5H381V90V89.5H379V90ZM383 90V90.5H385V90V89.5H383V90ZM387 90V90.5H389V90V89.5H387V90ZM391 90V90.5H393V90V89.5H391V90ZM395 90V90.5H397V90V89.5H395V90ZM399 90V90.5H401V90V89.5H399V90ZM403 90V90.5H405V90V89.5H403V90ZM407 90V90.5H409V90V89.5H407V90ZM411 90V90.5H413V90V89.5H411V90ZM415 90V90.5H417V90V89.5H415V90ZM419 90V90.5H421V90V89.5H419V90Z" fill="url(#paint0_linear_1069_36494)"/>
<defs>
<linearGradient id="paint0_linear_1069_36494" x1="344" y1="90.5" x2="424" y2="90.5" gradientUnits="userSpaceOnUse">
<stop stop-color="#CED4DA"/>
<stop offset="1" stop-color="#062488"/>
</linearGradient>
</defs>
</svg>
