<svg width="960" height="280" viewBox="0 0 960 280" fill="none" xmlns="http://www.w3.org/2000/svg">
<rect width="960" height="280" rx="24" fill="#FAFAFA"/>
<rect x="0.5" y="0.5" width="959" height="279" rx="23.5" stroke="black" stroke-opacity="0.06"/>
<path d="M200 159H760" stroke="url(#paint0_linear_662_24347)" stroke-width="0.5" stroke-dasharray="2 2"/>
<path d="M200 122H760" stroke="url(#paint1_linear_662_24347)" stroke-width="0.5" stroke-dasharray="2 2"/>
<path d="M200 111H760" stroke="url(#paint2_linear_662_24347)" stroke-width="0.5" stroke-dasharray="2 2"/>
<path d="M512 70H511.75V71H512H512.25V70H512ZM512 73H511.75V75H512H512.25V73H512ZM512 77H511.75V79H512H512.25V77H512ZM512 81H511.75V83H512H512.25V81H512ZM512 85H511.75V87H512H512.25V85H512ZM512 89H511.75V91H512H512.25V89H512ZM512 93H511.75V95H512H512.25V93H512ZM512 97H511.75V99H512H512.25V97H512ZM512 101H511.75V103H512H512.25V101H512ZM512 105H511.75V107H512H512.25V105H512ZM512 109H511.75V111H512H512.25V109H512ZM512 113H511.75V115H512H512.25V113H512ZM512 117H511.75V119H512H512.25V117H512ZM512 121H511.75V123H512H512.25V121H512ZM512 125H511.75V127H512H512.25V125H512ZM512 129H511.75V131H512H512.25V129H512ZM512 133H511.75V135H512H512.25V133H512ZM512 137H511.75V139H512H512.25V137H512ZM512 141H511.75V143H512H512.25V141H512ZM512 145H511.75V147H512H512.25V145H512ZM512 149H511.75V151H512H512.25V149H512ZM512 153H511.75V155H512H512.25V153H512ZM512 157H511.75V159H512H512.25V157H512ZM512 161H511.75V163H512H512.25V161H512ZM512 165H511.75V167H512H512.25V165H512ZM512 169H511.75V171H512H512.25V169H512ZM512 173H511.75V175H512H512.25V173H512ZM512 177H511.75V179H512H512.25V177H512ZM512 181H511.75V183H512H512.25V181H512ZM512 185H511.75V187H512H512.25V185H512ZM512 189H511.75V191H512H512.25V189H512ZM512 193H511.75V195H512H512.25V193H512ZM512 197H511.75V199H512H512.25V197H512ZM512 201H511.75V203H512H512.25V201H512ZM512 205H511.75V207H512H512.25V205H512ZM512 209H511.75V210H512H512.25V209H512ZM520 210H520.25V209H520H519.75V210H520ZM520 207H520.25V205H520H519.75V207H520ZM520 203H520.25V201H520H519.75V203H520ZM520 199H520.25V197H520H519.75V199H520ZM520 195H520.25V193H520H519.75V195H520ZM520 191H520.25V189H520H519.75V191H520ZM520 187H520.25V185H520H519.75V187H520ZM520 183H520.25V181H520H519.75V183H520ZM520 179H520.25V177H520H519.75V179H520ZM520 175H520.25V173H520H519.75V175H520ZM520 171H520.25V169H520H519.75V171H520ZM520 167H520.25V165H520H519.75V167H520ZM520 163H520.25V161H520H519.75V163H520ZM520 159H520.25V157H520H519.75V159H520ZM520 155H520.25V153H520H519.75V155H520ZM520 151H520.25V149H520H519.75V151H520ZM520 147H520.25V145H520H519.75V147H520ZM520 143H520.25V141H520H519.75V143H520ZM520 139H520.25V137H520H519.75V139H520ZM520 135H520.25V133H520H519.75V135H520ZM520 131H520.25V129H520H519.75V131H520ZM520 127H520.25V125H520H519.75V127H520ZM520 123H520.25V121H520H519.75V123H520ZM520 119H520.25V117H520H519.75V119H520ZM520 115H520.25V113H520H519.75V115H520ZM520 111H520.25V109H520H519.75V111H520ZM520 107H520.25V105H520H519.75V107H520ZM520 103H520.25V101H520H519.75V103H520ZM520 99H520.25V97H520H519.75V99H520ZM520 95H520.25V93H520H519.75V95H520ZM520 91H520.25V89H520H519.75V91H520ZM520 87H520.25V85H520H519.75V87H520ZM520 83H520.25V81H520H519.75V83H520ZM520 79H520.25V77H520H519.75V79H520ZM520 75H520.25V73H520H519.75V75H520ZM520 71H520.25V70H520H519.75V71H520Z" fill="url(#paint3_linear_662_24347)"/>
<path d="M528 210H528.25V209H528H527.75V210H528ZM528 207H528.25V205H528H527.75V207H528ZM528 203H528.25V201H528H527.75V203H528ZM528 199H528.25V197H528H527.75V199H528ZM528 195H528.25V193H528H527.75V195H528ZM528 191H528.25V189H528H527.75V191H528ZM528 187H528.25V185H528H527.75V187H528ZM528 183H528.25V181H528H527.75V183H528ZM528 179H528.25V177H528H527.75V179H528ZM528 175H528.25V173H528H527.75V175H528ZM528 171H528.25V169H528H527.75V171H528ZM528 167H528.25V165H528H527.75V167H528ZM528 163H528.25V161H528H527.75V163H528ZM528 159H528.25V157H528H527.75V159H528ZM528 155H528.25V153H528H527.75V155H528ZM528 151H528.25V149H528H527.75V151H528ZM528 147H528.25V145H528H527.75V147H528ZM528 143H528.25V141H528H527.75V143H528ZM528 139H528.25V137H528H527.75V139H528ZM528 135H528.25V133H528H527.75V135H528ZM528 131H528.25V129H528H527.75V131H528ZM528 127H528.25V125H528H527.75V127H528ZM528 123H528.25V121H528H527.75V123H528ZM528 119H528.25V117H528H527.75V119H528ZM528 115H528.25V113H528H527.75V115H528ZM528 111H528.25V109H528H527.75V111H528ZM528 107H528.25V105H528H527.75V107H528ZM528 103H528.25V101H528H527.75V103H528ZM528 99H528.25V97H528H527.75V99H528ZM528 95H528.25V93H528H527.75V95H528ZM528 91H528.25V89H528H527.75V91H528ZM528 87H528.25V85H528H527.75V87H528ZM528 83H528.25V81H528H527.75V83H528ZM528 79H528.25V77H528H527.75V79H528ZM528 75H528.25V73H528H527.75V75H528ZM528 71H528.25V70H528H527.75V71H528Z" fill="url(#paint4_linear_662_24347)"/>
<path d="M485 70H484.75V71H485H485.25V70H485ZM485 73H484.75V75H485H485.25V73H485ZM485 77H484.75V79H485H485.25V77H485ZM485 81H484.75V83H485H485.25V81H485ZM485 85H484.75V87H485H485.25V85H485ZM485 89H484.75V91H485H485.25V89H485ZM485 93H484.75V95H485H485.25V93H485ZM485 97H484.75V99H485H485.25V97H485ZM485 101H484.75V103H485H485.25V101H485ZM485 105H484.75V107H485H485.25V105H485ZM485 109H484.75V111H485H485.25V109H485ZM485 113H484.75V115H485H485.25V113H485ZM485 117H484.75V119H485H485.25V117H485ZM485 121H484.75V123H485H485.25V121H485ZM485 125H484.75V127H485H485.25V125H485ZM485 129H484.75V131H485H485.25V129H485ZM485 133H484.75V135H485H485.25V133H485ZM485 137H484.75V139H485H485.25V137H485ZM485 141H484.75V143H485H485.25V141H485ZM485 145H484.75V147H485H485.25V145H485ZM485 149H484.75V151H485H485.25V149H485ZM485 153H484.75V155H485H485.25V153H485ZM485 157H484.75V159H485H485.25V157H485ZM485 161H484.75V163H485H485.25V161H485ZM485 165H484.75V167H485H485.25V165H485ZM485 169H484.75V171H485H485.25V169H485ZM485 173H484.75V175H485H485.25V173H485ZM485 177H484.75V179H485H485.25V177H485ZM485 181H484.75V183H485H485.25V181H485ZM485 185H484.75V187H485H485.25V185H485ZM485 189H484.75V191H485H485.25V189H485ZM485 193H484.75V195H485H485.25V193H485ZM485 197H484.75V199H485H485.25V197H485ZM485 201H484.75V203H485H485.25V201H485ZM485 205H484.75V207H485H485.25V205H485ZM485 209H484.75V210H485H485.25V209H485ZM493 210H493.25V209H493H492.75V210H493ZM493 207H493.25V205H493H492.75V207H493ZM493 203H493.25V201H493H492.75V203H493ZM493 199H493.25V197H493H492.75V199H493ZM493 195H493.25V193H493H492.75V195H493ZM493 191H493.25V189H493H492.75V191H493ZM493 187H493.25V185H493H492.75V187H493ZM493 183H493.25V181H493H492.75V183H493ZM493 179H493.25V177H493H492.75V179H493ZM493 175H493.25V173H493H492.75V175H493ZM493 171H493.25V169H493H492.75V171H493ZM493 167H493.25V165H493H492.75V167H493ZM493 163H493.25V161H493H492.75V163H493ZM493 159H493.25V157H493H492.75V159H493ZM493 155H493.25V153H493H492.75V155H493ZM493 151H493.25V149H493H492.75V151H493ZM493 147H493.25V145H493H492.75V147H493ZM493 143H493.25V141H493H492.75V143H493ZM493 139H493.25V137H493H492.75V139H493ZM493 135H493.25V133H493H492.75V135H493ZM493 131H493.25V129H493H492.75V131H493ZM493 127H493.25V125H493H492.75V127H493ZM493 123H493.25V121H493H492.75V123H493ZM493 119H493.25V117H493H492.75V119H493ZM493 115H493.25V113H493H492.75V115H493ZM493 111H493.25V109H493H492.75V111H493ZM493 107H493.25V105H493H492.75V107H493ZM493 103H493.25V101H493H492.75V103H493ZM493 99H493.25V97H493H492.75V99H493ZM493 95H493.25V93H493H492.75V95H493ZM493 91H493.25V89H493H492.75V91H493ZM493 87H493.25V85H493H492.75V87H493ZM493 83H493.25V81H493H492.75V83H493ZM493 79H493.25V77H493H492.75V79H493ZM493 75H493.25V73H493H492.75V75H493ZM493 71H493.25V70H493H492.75V71H493Z" fill="url(#paint5_linear_662_24347)"/>
<path d="M442 70H441.75V71H442H442.25V70H442ZM442 73H441.75V75H442H442.25V73H442ZM442 77H441.75V79H442H442.25V77H442ZM442 81H441.75V83H442H442.25V81H442ZM442 85H441.75V87H442H442.25V85H442ZM442 89H441.75V91H442H442.25V89H442ZM442 93H441.75V95H442H442.25V93H442ZM442 97H441.75V99H442H442.25V97H442ZM442 101H441.75V103H442H442.25V101H442ZM442 105H441.75V107H442H442.25V105H442ZM442 109H441.75V111H442H442.25V109H442ZM442 113H441.75V115H442H442.25V113H442ZM442 117H441.75V119H442H442.25V117H442ZM442 121H441.75V123H442H442.25V121H442ZM442 125H441.75V127H442H442.25V125H442ZM442 129H441.75V131H442H442.25V129H442ZM442 133H441.75V135H442H442.25V133H442ZM442 137H441.75V139H442H442.25V137H442ZM442 141H441.75V143H442H442.25V141H442ZM442 145H441.75V147H442H442.25V145H442ZM442 149H441.75V151H442H442.25V149H442ZM442 153H441.75V155H442H442.25V153H442ZM442 157H441.75V159H442H442.25V157H442ZM442 161H441.75V163H442H442.25V161H442ZM442 165H441.75V167H442H442.25V165H442ZM442 169H441.75V171H442H442.25V169H442ZM442 173H441.75V175H442H442.25V173H442ZM442 177H441.75V179H442H442.25V177H442ZM442 181H441.75V183H442H442.25V181H442ZM442 185H441.75V187H442H442.25V185H442ZM442 189H441.75V191H442H442.25V189H442ZM442 193H441.75V195H442H442.25V193H442ZM442 197H441.75V199H442H442.25V197H442ZM442 201H441.75V203H442H442.25V201H442ZM442 205H441.75V207H442H442.25V205H442ZM442 209H441.75V210H442H442.25V209H442ZM450 210H450.25V209H450H449.75V210H450ZM450 207H450.25V205H450H449.75V207H450ZM450 203H450.25V201H450H449.75V203H450ZM450 199H450.25V197H450H449.75V199H450ZM450 195H450.25V193H450H449.75V195H450ZM450 191H450.25V189H450H449.75V191H450ZM450 187H450.25V185H450H449.75V187H450ZM450 183H450.25V181H450H449.75V183H450ZM450 179H450.25V177H450H449.75V179H450ZM450 175H450.25V173H450H449.75V175H450ZM450 171H450.25V169H450H449.75V171H450ZM450 167H450.25V165H450H449.75V167H450ZM450 163H450.25V161H450H449.75V163H450ZM450 159H450.25V157H450H449.75V159H450ZM450 155H450.25V153H450H449.75V155H450ZM450 151H450.25V149H450H449.75V151H450ZM450 147H450.25V145H450H449.75V147H450ZM450 143H450.25V141H450H449.75V143H450ZM450 139H450.25V137H450H449.75V139H450ZM450 135H450.25V133H450H449.75V135H450ZM450 131H450.25V129H450H449.75V131H450ZM450 127H450.25V125H450H449.75V127H450ZM450 123H450.25V121H450H449.75V123H450ZM450 119H450.25V117H450H449.75V119H450ZM450 115H450.25V113H450H449.75V115H450ZM450 111H450.25V109H450H449.75V111H450ZM450 107H450.25V105H450H449.75V107H450ZM450 103H450.25V101H450H449.75V103H450ZM450 99H450.25V97H450H449.75V99H450ZM450 95H450.25V93H450H449.75V95H450ZM450 91H450.25V89H450H449.75V91H450ZM450 87H450.25V85H450H449.75V87H450ZM450 83H450.25V81H450H449.75V83H450ZM450 79H450.25V77H450H449.75V79H450ZM450 75H450.25V73H450H449.75V75H450ZM450 71H450.25V70H450H449.75V71H450Z" fill="url(#paint6_linear_662_24347)"/>
<path d="M378 70H377.75V71H378H378.25V70H378ZM378 73H377.75V75H378H378.25V73H378ZM378 77H377.75V79H378H378.25V77H378ZM378 81H377.75V83H378H378.25V81H378ZM378 85H377.75V87H378H378.25V85H378ZM378 89H377.75V91H378H378.25V89H378ZM378 93H377.75V95H378H378.25V93H378ZM378 97H377.75V99H378H378.25V97H378ZM378 101H377.75V103H378H378.25V101H378ZM378 105H377.75V107H378H378.25V105H378ZM378 109H377.75V111H378H378.25V109H378ZM378 113H377.75V115H378H378.25V113H378ZM378 117H377.75V119H378H378.25V117H378ZM378 121H377.75V123H378H378.25V121H378ZM378 125H377.75V127H378H378.25V125H378ZM378 129H377.75V131H378H378.25V129H378ZM378 133H377.75V135H378H378.25V133H378ZM378 137H377.75V139H378H378.25V137H378ZM378 141H377.75V143H378H378.25V141H378ZM378 145H377.75V147H378H378.25V145H378ZM378 149H377.75V151H378H378.25V149H378ZM378 153H377.75V155H378H378.25V153H378ZM378 157H377.75V159H378H378.25V157H378ZM378 161H377.75V163H378H378.25V161H378ZM378 165H377.75V167H378H378.25V165H378ZM378 169H377.75V171H378H378.25V169H378ZM378 173H377.75V175H378H378.25V173H378ZM378 177H377.75V179H378H378.25V177H378ZM378 181H377.75V183H378H378.25V181H378ZM378 185H377.75V187H378H378.25V185H378ZM378 189H377.75V191H378H378.25V189H378ZM378 193H377.75V195H378H378.25V193H378ZM378 197H377.75V199H378H378.25V197H378ZM378 201H377.75V203H378H378.25V201H378ZM378 205H377.75V207H378H378.25V205H378ZM378 209H377.75V210H378H378.25V209H378ZM386 210H386.25V209H386H385.75V210H386ZM386 207H386.25V205H386H385.75V207H386ZM386 203H386.25V201H386H385.75V203H386ZM386 199H386.25V197H386H385.75V199H386ZM386 195H386.25V193H386H385.75V195H386ZM386 191H386.25V189H386H385.75V191H386ZM386 187H386.25V185H386H385.75V187H386ZM386 183H386.25V181H386H385.75V183H386ZM386 179H386.25V177H386H385.75V179H386ZM386 175H386.25V173H386H385.75V175H386ZM386 171H386.25V169H386H385.75V171H386ZM386 167H386.25V165H386H385.75V167H386ZM386 163H386.25V161H386H385.75V163H386ZM386 159H386.25V157H386H385.75V159H386ZM386 155H386.25V153H386H385.75V155H386ZM386 151H386.25V149H386H385.75V151H386ZM386 147H386.25V145H386H385.75V147H386ZM386 143H386.25V141H386H385.75V143H386ZM386 139H386.25V137H386H385.75V139H386ZM386 135H386.25V133H386H385.75V135H386ZM386 131H386.25V129H386H385.75V131H386ZM386 127H386.25V125H386H385.75V127H386ZM386 123H386.25V121H386H385.75V123H386ZM386 119H386.25V117H386H385.75V119H386ZM386 115H386.25V113H386H385.75V115H386ZM386 111H386.25V109H386H385.75V111H386ZM386 107H386.25V105H386H385.75V107H386ZM386 103H386.25V101H386H385.75V103H386ZM386 99H386.25V97H386H385.75V99H386ZM386 95H386.25V93H386H385.75V95H386ZM386 91H386.25V89H386H385.75V91H386ZM386 87H386.25V85H386H385.75V87H386ZM386 83H386.25V81H386H385.75V83H386ZM386 79H386.25V77H386H385.75V79H386ZM386 75H386.25V73H386H385.75V75H386ZM386 71H386.25V70H386H385.75V71H386Z" fill="url(#paint7_linear_662_24347)"/>
<circle cx="604" cy="173.5" r="36.5" stroke="url(#paint8_linear_662_24347)" stroke-width="0.5" stroke-dasharray="2 2"/>
<circle cx="602" cy="106.5" r="36.5" stroke="url(#paint9_linear_662_24347)" stroke-width="0.5" stroke-dasharray="2 2"/>
<g clip-path="url(#clip0_662_24347)">
<path d="M329.723 113.319H320.524L303.15 133.699V113.319H295.816V158.001H303.15V138.008L320.457 158.001H330.043L310.288 135.691L329.723 113.319Z" fill="#276EF1"/>
<path d="M356.275 124.246C353.526 122.746 350.461 121.996 347.072 121.996C343.682 121.996 340.613 122.746 337.868 124.246C335.124 125.746 332.958 127.891 331.371 130.672C329.784 133.462 328.99 136.653 328.99 140.255C328.99 143.857 329.765 147.101 331.309 149.867C332.853 152.633 334.976 154.773 337.677 156.297C340.378 157.821 343.4 158.581 346.751 158.581C350.103 158.581 353.239 157.821 356.05 156.297C358.861 154.773 361.08 152.623 362.71 149.833C364.34 147.048 365.158 143.857 365.158 140.255C365.158 136.653 364.364 133.462 362.777 130.672C361.19 127.886 359.019 125.746 356.28 124.246H356.275ZM356.079 146.814C355.051 148.615 353.707 149.962 352.058 150.865C350.409 151.768 348.64 152.217 346.751 152.217C343.792 152.217 341.335 151.176 339.384 149.098C337.433 147.02 336.458 144.072 336.458 140.255C336.458 137.685 336.931 135.511 337.873 133.729C338.82 131.952 340.096 130.61 341.703 129.711C343.314 128.809 345.059 128.359 346.947 128.359C348.836 128.359 350.595 128.809 352.225 129.711C353.856 130.61 355.161 131.952 356.151 133.729C357.14 135.511 357.633 137.685 357.633 140.255C357.633 142.825 357.116 145.013 356.088 146.814H356.079Z" fill="#276EF1"/>
<path d="M477.649 127.718C476.401 126.089 474.742 124.728 472.663 123.639C470.583 122.545 468.149 122 465.362 122C462.274 122 459.453 122.76 456.9 124.284C454.347 125.803 452.334 127.938 450.852 130.676C449.375 133.422 448.634 136.571 448.634 140.13C448.634 143.689 449.375 146.871 450.852 149.68C452.334 152.489 454.337 154.672 456.867 156.239C459.396 157.801 462.183 158.584 465.233 158.584C467.977 158.584 470.42 158.026 472.567 156.912C474.709 155.799 476.406 154.404 477.649 152.732V158.006H485.05V122.578H477.649V127.718ZM476.134 146.651C475.125 148.471 473.805 149.856 472.18 150.797C470.545 151.743 468.79 152.212 466.902 152.212C465.013 152.212 463.306 151.729 461.657 150.764C460.008 149.799 458.674 148.395 457.67 146.55C456.661 144.706 456.154 142.566 456.154 140.12C456.154 137.674 456.661 135.567 457.67 133.79C458.678 132.013 459.998 130.661 461.628 129.739C463.259 128.817 465.018 128.354 466.902 128.354C468.785 128.354 470.545 128.827 472.18 129.768C473.81 130.714 475.13 132.085 476.134 133.881C477.142 135.682 477.649 137.803 477.649 140.244C477.649 142.686 477.142 144.821 476.134 146.641V146.651Z" fill="#276EF1"/>
<path d="M504.403 123.505C502.624 124.518 501.195 125.917 500.124 127.718V122.578H492.79V158.002H500.124V139.356C500.124 135.759 500.865 133.227 502.342 131.77C503.824 130.312 506 129.582 508.873 129.582H510.738V122C508.294 122 506.177 122.502 504.398 123.51L504.403 123.505Z" fill="#276EF1"/>
<path d="M436.324 123.71C434.11 122.554 431.615 121.976 428.828 121.976C426.212 121.976 423.765 122.606 421.494 123.872C419.218 125.138 417.545 126.839 416.474 128.984C415.274 126.715 413.557 124.981 411.329 123.777C409.097 122.578 406.568 121.976 403.737 121.976C401.634 121.976 399.664 122.382 397.823 123.199C395.978 124.015 394.453 125.148 393.253 126.605V122.554H385.919V157.977H393.253V138.175C393.253 135.003 394.056 132.572 395.667 130.88C397.278 129.189 399.454 128.339 402.198 128.339C404.942 128.339 407.108 129.185 408.695 130.88C410.282 132.576 411.076 135.008 411.076 138.175V157.977H418.343V138.175C418.343 135.003 419.146 132.572 420.757 130.88C422.364 129.185 424.539 128.339 427.283 128.339C430.028 128.339 432.193 129.185 433.781 130.88C435.368 132.576 436.161 135.008 436.161 138.175V157.977H443.433V137.081C443.433 133.866 442.797 131.124 441.535 128.85C440.268 126.576 438.533 124.866 436.324 123.71Z" fill="#276EF1"/>
<path d="M378.154 110.416H370.82V157.993H378.154V110.416Z" fill="#276EF1"/>
</g>
<rect x="565.738" y="121.234" width="38.534" height="38.534" rx="19.267" fill="#276EF1"/>
<mask id="mask0_662_24347" style="mask-type:alpha" maskUnits="userSpaceOnUse" x="565" y="121" width="40" height="39">
<rect x="565.738" y="121.234" width="38.534" height="38.534" rx="19.267" fill="#276EF1"/>
</mask>
<g mask="url(#mask0_662_24347)">
<path d="M604.272 144.355C579.985 144.355 567.665 121.234 567.665 121.234H604.272V144.355Z" fill="url(#paint10_linear_662_24347)"/>
<path d="M604.272 136.649C579.985 136.649 567.665 159.77 567.665 159.77H604.272V136.649Z" fill="url(#paint11_linear_662_24347)"/>
</g>
<path d="M580.332 135.36C580.332 133.836 582.018 132.915 583.301 133.739L591.298 138.881C592.478 139.639 592.478 141.363 591.298 142.122L583.301 147.263C582.018 148.087 580.332 147.167 580.332 145.642V135.36Z" fill="white"/>
<path d="M653.322 122.198H662.946L651.387 157.842H640.592L633.769 136.15L626.64 157.842H615.845L604.286 122.198H614.674L621.854 144.959L629.39 122.198H638.657L645.837 145.163L653.322 122.198Z" fill="#276EF1"/>
<path d="M551.05 122.198H560.928V157.842H552.628L536.894 138.849V157.842H527.016V122.198H535.316L551.05 141.191V122.198Z" fill="#276EF1"/>
<defs>
<linearGradient id="paint0_linear_662_24347" x1="200" y1="159.5" x2="760" y2="159.5" gradientUnits="userSpaceOnUse">
<stop stop-color="#F8F9FA"/>
<stop offset="0.5" stop-color="#626B75"/>
<stop offset="1" stop-color="#F8F9FA"/>
</linearGradient>
<linearGradient id="paint1_linear_662_24347" x1="200" y1="122.5" x2="760" y2="122.5" gradientUnits="userSpaceOnUse">
<stop stop-color="#F8F9FA"/>
<stop offset="0.5" stop-color="#626B75"/>
<stop offset="1" stop-color="#F8F9FA"/>
</linearGradient>
<linearGradient id="paint2_linear_662_24347" x1="200" y1="111.5" x2="760" y2="111.5" gradientUnits="userSpaceOnUse">
<stop stop-color="#F8F9FA"/>
<stop offset="0.5" stop-color="#626B75"/>
<stop offset="1" stop-color="#F8F9FA"/>
</linearGradient>
<linearGradient id="paint3_linear_662_24347" x1="516" y1="70" x2="516" y2="210" gradientUnits="userSpaceOnUse">
<stop stop-color="#F8F9FA"/>
<stop offset="0.5" stop-color="#626B75"/>
<stop offset="1" stop-color="#F8F9FA"/>
</linearGradient>
<linearGradient id="paint4_linear_662_24347" x1="524" y1="70" x2="524" y2="210" gradientUnits="userSpaceOnUse">
<stop stop-color="#F8F9FA"/>
<stop offset="0.5" stop-color="#626B75"/>
<stop offset="1" stop-color="#F8F9FA"/>
</linearGradient>
<linearGradient id="paint5_linear_662_24347" x1="489" y1="70" x2="489" y2="210" gradientUnits="userSpaceOnUse">
<stop stop-color="#F8F9FA"/>
<stop offset="0.5" stop-color="#626B75"/>
<stop offset="1" stop-color="#F8F9FA"/>
</linearGradient>
<linearGradient id="paint6_linear_662_24347" x1="446" y1="70" x2="446" y2="210" gradientUnits="userSpaceOnUse">
<stop stop-color="#F8F9FA"/>
<stop offset="0.5" stop-color="#626B75"/>
<stop offset="1" stop-color="#F8F9FA"/>
</linearGradient>
<linearGradient id="paint7_linear_662_24347" x1="382" y1="70" x2="382" y2="210" gradientUnits="userSpaceOnUse">
<stop stop-color="#F8F9FA"/>
<stop offset="0.5" stop-color="#626B75"/>
<stop offset="1" stop-color="#F8F9FA"/>
</linearGradient>
<linearGradient id="paint8_linear_662_24347" x1="587" y1="143.5" x2="631.5" y2="219" gradientUnits="userSpaceOnUse">
<stop stop-color="#626B75"/>
<stop offset="1" stop-color="#F8F9FA"/>
</linearGradient>
<linearGradient id="paint9_linear_662_24347" x1="587.5" y1="136" x2="628" y2="59.5" gradientUnits="userSpaceOnUse">
<stop stop-color="#626B75"/>
<stop offset="1" stop-color="#F8F9FA"/>
</linearGradient>
<linearGradient id="paint10_linear_662_24347" x1="567.665" y1="123.11" x2="600.083" y2="147.947" gradientUnits="userSpaceOnUse">
<stop stop-color="#4788FF"/>
<stop offset="1" stop-color="#276EF1"/>
</linearGradient>
<linearGradient id="paint11_linear_662_24347" x1="567.665" y1="159.557" x2="611.7" y2="137.865" gradientUnits="userSpaceOnUse">
<stop stop-color="#276EF1"/>
<stop offset="1" stop-color="#0046C8"/>
</linearGradient>
<clipPath id="clip0_662_24347">
<rect width="215.791" height="48.1675" fill="white" transform="translate(296 109.935)"/>
</clipPath>
</defs>
</svg>
