<svg width="960" height="206" viewBox="0 0 960 206" fill="none" xmlns="http://www.w3.org/2000/svg">
<rect width="400" height="100" rx="10" fill="#7F56D9"/>
<path d="M16.7744 63V53.8086H20.3799C22.4683 53.8086 23.668 55.0972 23.668 56.9062C23.668 58.7407 22.4492 60.0039 20.3291 60.0039H18.6787V63H16.7744ZM18.6787 58.4678H20.0244C21.1543 58.4678 21.7065 57.833 21.7002 56.9062C21.7065 55.9922 21.1543 55.3765 20.0244 55.3701H18.6787V58.4678ZM24.8359 63V56.1064H26.6514V57.2998H26.7275C26.9751 56.4556 27.6162 56.0049 28.3906 56.0049C28.5811 56.0049 28.8223 56.0303 28.9873 56.0684V57.7441C28.8096 57.687 28.4478 57.6426 28.1875 57.6426C27.3369 57.6426 26.7085 58.2329 26.7148 59.0771V63H24.8359ZM29.9014 63V56.1064H31.7803V63H29.9014ZM29.8125 54.2529C29.8125 53.7197 30.2759 53.2944 30.8408 53.2881C31.3994 53.2944 31.8628 53.7197 31.8564 54.2529C31.8628 54.7734 31.3994 55.2051 30.8408 55.2051C30.2759 55.2051 29.8125 54.7734 29.8125 54.2529ZM33.2402 63V56.1064H35.0303V57.3125H35.1064C35.3984 56.5063 36.0967 56.0176 37.0234 56.0176C37.9692 56.0176 38.6738 56.519 38.9023 57.3125H38.9658C39.2515 56.5317 40.0386 56.0176 41.0479 56.0176C42.3237 56.0176 43.2188 56.8618 43.2188 58.3662V63H41.3398V58.7344C41.3462 57.9473 40.8765 57.5664 40.2607 57.5664C39.5562 57.5664 39.1372 58.0552 39.1436 58.7852V63H37.3154V58.6836C37.3218 58.0044 36.8901 57.5664 36.249 57.5664C35.6079 57.5664 35.1128 58.0806 35.1191 58.8613V63H33.2402ZM44.3359 61.0703C44.3423 59.5342 45.5737 59.0327 46.9004 58.9502C47.3955 58.9185 48.3223 58.874 48.6143 58.8613V58.3027C48.6079 57.7251 48.2144 57.395 47.5098 57.3887C46.8687 57.395 46.4688 57.6807 46.3672 58.1504H44.5771C44.6914 56.957 45.7324 56.0176 47.5605 56.0176C49.0649 56.0176 50.4868 56.6904 50.4805 58.3535V63H48.7031V62.0479H48.6523C48.3159 62.6826 47.6558 63.1333 46.6338 63.127C45.3135 63.1333 44.3423 62.4351 44.3359 61.0703ZM46.1387 61.0195C46.1387 61.5464 46.564 61.8257 47.167 61.832C48.0239 61.8257 48.6206 61.2671 48.6143 60.5371V60.0356C48.3286 60.0483 47.5225 60.0928 47.2051 60.1182C46.5513 60.1753 46.1387 60.4863 46.1387 61.0195ZM51.915 63V56.1064H53.7305V57.2998H53.8066C54.0542 56.4556 54.6953 56.0049 55.4697 56.0049C55.6602 56.0049 55.9014 56.0303 56.0664 56.0684V57.7441C55.8887 57.687 55.5269 57.6426 55.2666 57.6426C54.416 57.6426 53.7876 58.2329 53.7939 59.0771V63H51.915ZM58.3008 65.5898C57.9326 65.5835 57.5898 65.5771 57.3486 65.5518V64.0918C57.5898 64.1108 57.8755 64.1172 58.1104 64.1172C58.4849 64.1172 58.7832 64.0791 59.0117 63.4824L59.126 63.1904L56.6504 56.1064H58.6182L60.0654 61.1846H60.1416L61.6016 56.1064H63.5947L60.9033 63.7617C60.5098 64.8726 59.7544 65.5835 58.3008 65.5898Z" fill="white"/>
<path d="M19.9609 83L20.3477 80.6562H18.2148L17.8281 83H16.9727L17.3594 80.6562H16.1055L16.2461 79.8125H17.4941L17.8457 77.7031H16.6094L16.7383 76.8594H17.9805L18.3672 74.5156H19.2227L18.8359 76.8594H20.9688L21.3555 74.5156H22.2109L21.8242 76.8594H23.0898L22.9492 77.7031H21.6895L21.3379 79.8125H22.5859L22.4453 80.6562H21.2031L20.8164 83H19.9609ZM18.3496 79.8125H20.4824L20.834 77.7031H18.7012L18.3496 79.8125ZM24.2617 83L28.1523 75.5117V75.4531H23.6641V74.5156H29.2422V75.5L25.3633 83H24.2617ZM30.7539 83V74.5156H35.8633V75.4531H31.8086V78.2891H35.4766V79.2148H31.8086V83H30.7539ZM40.0586 83.1172C38.5293 83.1172 37.3691 82.1738 37.3047 80.8672H38.3242C38.4004 81.623 39.1387 82.1855 40.0586 82.1914C41.1602 82.1855 41.957 81.3828 41.957 80.3164C41.957 79.2148 41.1309 78.4004 39.9883 78.3945C39.2734 78.3828 38.7168 78.6055 38.4062 79.1562H37.3867L37.9844 74.5156H42.5781V75.4531H38.8633L38.5469 77.9375H38.6289C39.0098 77.6445 39.5781 77.4453 40.1758 77.4453C41.793 77.4453 42.9824 78.6406 42.9883 80.293C42.9824 81.9336 41.752 83.1172 40.0586 83.1172ZM47.4062 83.1172C45.9355 83.0996 44.3125 82.2266 44.3125 79.0859C44.3125 76.0801 45.543 74.3984 47.5352 74.3984C49.0293 74.3984 50.0723 75.3184 50.2891 76.6484H49.2461C49.0527 75.8984 48.4785 75.3359 47.5352 75.3359C46.1406 75.3359 45.3027 76.5254 45.3086 78.5703H45.4141C45.9004 77.8613 46.6797 77.4453 47.5938 77.4453C49.0996 77.4453 50.3594 78.6172 50.3594 80.2578C50.3594 81.8574 49.1934 83.1348 47.4062 83.1172ZM45.4492 80.2812C45.4551 81.2773 46.2695 82.1855 47.4062 82.1914C48.502 82.1855 49.334 81.3242 49.3398 80.2695C49.334 79.2266 48.5371 78.377 47.4297 78.3711C46.3164 78.377 45.4609 79.2793 45.4492 80.2812ZM54.5898 83H51.9531V74.5156H54.6953C57.1738 74.5156 58.6328 76.1035 58.6328 78.7461C58.6328 81.3945 57.1738 83 54.5898 83ZM53.0078 82.0625H54.5195C56.5996 82.0625 57.6016 80.8027 57.6016 78.7461C57.6016 76.6953 56.5996 75.4531 54.625 75.4531H53.0078V82.0625ZM62.8633 74.3984C64.3223 74.416 65.9453 75.2949 65.9453 78.418C65.9453 81.4355 64.709 83.1172 62.7227 83.1172C61.2285 83.1172 60.1797 82.2031 59.9688 80.8555H61.0117C61.1992 81.6172 61.7793 82.1797 62.7227 82.1797C64.1055 82.1797 64.9492 80.9844 64.9609 78.9219H64.8438C64.3574 79.625 63.5781 80.0469 62.6758 80.0469C61.1582 80.0469 59.8984 78.8809 59.8984 77.2461C59.8984 75.6641 61.0586 74.3809 62.8633 74.3984ZM60.9297 77.2344C60.9238 78.2832 61.7207 79.1211 62.8281 79.1211C63.9355 79.1211 64.7969 78.207 64.7969 77.2109C64.7969 76.2383 63.9824 75.3242 62.8633 75.3242C61.7559 75.3242 60.918 76.1855 60.9297 77.2344Z" fill="white" fill-opacity="0.78"/>
<rect x="406" width="274" height="100" rx="10" fill="#26BF9B"/>
<path d="M426.324 20.4531C426.23 19.9727 425.832 19.6621 425.199 19.668C424.561 19.6621 424.092 19.9844 424.098 20.418C424.092 20.7461 424.355 20.9922 425 21.1445L426.078 21.3672C427.279 21.6309 427.865 22.1875 427.871 23.1016C427.865 24.2969 426.816 25.1289 425.152 25.1289C423.535 25.1289 422.58 24.4023 422.422 23.1836H423.945C424.033 23.7285 424.455 23.998 425.152 23.9922C425.873 23.998 426.342 23.7051 426.348 23.2305C426.342 22.8613 426.055 22.627 425.422 22.4922L424.402 22.2695C423.219 22.0293 422.604 21.4082 422.609 20.5C422.604 19.3223 423.623 18.5547 425.176 18.5547C426.693 18.5547 427.631 19.2988 427.742 20.4531H426.324ZM431.832 25.1289C429.916 25.1289 428.738 23.8516 428.738 21.8594C428.738 19.8906 429.934 18.5547 431.75 18.5547C433.309 18.5547 434.656 19.5332 434.656 21.7656V22.2344H430.215C430.238 23.3184 430.877 23.9629 431.844 23.957C432.5 23.9629 432.939 23.6816 433.133 23.3008H434.598C434.328 24.4023 433.309 25.1289 431.832 25.1289ZM430.221 21.2148H433.227C433.221 20.3477 432.635 19.7148 431.773 19.7148C430.877 19.7148 430.273 20.4062 430.221 21.2148ZM438.594 25.1289C436.695 25.1289 435.547 23.7695 435.547 21.8477C435.547 19.8965 436.73 18.5547 438.594 18.5547C440.135 18.5547 441.219 19.457 441.324 20.8281H439.895C439.777 20.2188 439.332 19.7559 438.605 19.75C437.68 19.7559 437.059 20.5293 437.059 21.8125C437.059 23.125 437.668 23.9043 438.605 23.9102C439.268 23.9043 439.76 23.5176 439.895 22.832H441.324C441.213 24.1738 440.193 25.1289 438.594 25.1289ZM445.227 25.1289C443.369 25.1289 442.18 23.8105 442.18 21.8477C442.18 19.8672 443.369 18.5547 445.227 18.5547C447.09 18.5547 448.279 19.8672 448.273 21.8477C448.279 23.8105 447.09 25.1289 445.227 25.1289ZM443.691 21.8359C443.691 23.002 444.201 23.9336 445.238 23.9336C446.258 23.9336 446.768 23.002 446.762 21.8359C446.768 20.6699 446.258 19.7324 445.238 19.7383C444.201 19.7324 443.691 20.6699 443.691 21.8359ZM450.934 21.2734V25H449.434V18.6367H450.863V19.7148H450.945C451.232 19.0059 451.883 18.5547 452.832 18.5547C454.15 18.5547 455.018 19.4219 455.012 20.9453V25H453.523V21.1797C453.523 20.3242 453.061 19.8145 452.281 19.8203C451.49 19.8145 450.934 20.3477 450.934 21.2734ZM458.809 25.1172C457.314 25.1113 456.184 23.916 456.184 21.8242C456.184 19.7031 457.344 18.5547 458.82 18.5547C459.939 18.5547 460.408 19.2285 460.637 19.6797H460.695V16.5156H462.184V25H460.719V23.9922H460.637C460.396 24.4609 459.91 25.1113 458.809 25.1172ZM457.707 21.8125C457.707 23.0137 458.234 23.8867 459.219 23.8867C460.186 23.8867 460.73 23.0547 460.73 21.8125C460.73 20.5762 460.191 19.7793 459.219 19.7734C458.223 19.7793 457.707 20.6289 457.707 21.8125ZM463.402 23.207C463.402 21.7773 464.592 21.3613 465.77 21.2852C466.215 21.25 467.123 21.209 467.404 21.1973L467.398 20.6875C467.398 20.0547 466.994 19.6914 466.25 19.6914C465.582 19.6914 465.172 19.9961 465.055 20.4531H463.613C463.719 19.3691 464.691 18.5547 466.285 18.5547C467.492 18.5547 468.887 19.0527 468.887 20.7461V25H467.457V24.1211H467.41C467.129 24.6602 466.537 25.1289 465.535 25.1289C464.322 25.1289 463.402 24.4668 463.402 23.207ZM464.844 23.1953C464.844 23.7461 465.295 24.0273 465.922 24.0273C466.83 24.0273 467.41 23.4297 467.41 22.7148L467.404 22.1934C467.135 22.2051 466.303 22.2578 466.004 22.2812C465.295 22.3398 464.844 22.6387 464.844 23.1953ZM470.293 25V18.6367H471.746V19.6914H471.816C472.045 18.959 472.654 18.543 473.387 18.543C473.551 18.543 473.785 18.5605 473.926 18.5781V19.9609C473.791 19.9141 473.48 19.873 473.234 19.8672C472.402 19.873 471.793 20.4473 471.793 21.25V25H470.293ZM475.918 27.3906C475.619 27.3848 475.338 27.3789 475.145 27.3555V26.1602C475.326 26.1777 475.578 26.1777 475.777 26.1836C476.141 26.1777 476.445 26.1543 476.703 25.4688L476.832 25.1289L474.512 18.6367H476.094L477.57 23.4414H477.641L479.117 18.6367H480.699L478.145 25.7734C477.781 26.7871 477.113 27.3848 475.918 27.3906Z" fill="white" fill-opacity="0.6"/>
<path d="M428.881 56.7666C428.621 55.9033 427.929 55.3765 426.926 55.3701C425.504 55.3765 424.539 56.4619 424.539 58.3916C424.539 60.334 425.472 61.4321 426.938 61.4385C428.252 61.4321 429.033 60.6895 429.059 59.5342H427.065V58.0996H430.899V59.2422C430.899 61.6543 429.243 63.127 426.926 63.127C424.349 63.127 422.597 61.3242 422.597 58.417C422.597 55.4336 424.463 53.6816 426.888 53.6816C428.963 53.6816 430.557 54.9575 430.811 56.7666H428.881ZM432.258 63V56.1064H434.073V57.2998H434.149C434.397 56.4556 435.038 56.0049 435.812 56.0049C436.003 56.0049 436.244 56.0303 436.409 56.0684V57.7441C436.231 57.687 435.87 57.6426 435.609 57.6426C434.759 57.6426 434.13 58.2329 434.137 59.0771V63H432.258ZM440.23 63.1396C438.117 63.1333 436.822 61.7686 436.828 59.585C436.822 57.4585 438.136 56.0176 440.154 56.0176C441.963 56.0176 443.392 57.1602 443.392 59.5088V60.042H438.682C438.682 61.083 439.297 61.7241 440.269 61.7305C440.91 61.7241 441.367 61.4448 441.551 61.0322H443.341C443.074 62.3081 441.932 63.1333 440.23 63.1396ZM438.682 58.8613H441.614C441.608 58.0234 441.03 57.4204 440.192 57.4268C439.329 57.4204 438.72 58.0679 438.682 58.8613ZM447.695 63.1396C445.582 63.1333 444.287 61.7686 444.293 59.585C444.287 57.4585 445.601 56.0176 447.619 56.0176C449.428 56.0176 450.856 57.1602 450.856 59.5088V60.042H446.146C446.146 61.083 446.762 61.7241 447.733 61.7305C448.375 61.7241 448.832 61.4448 449.016 61.0322H450.806C450.539 62.3081 449.396 63.1333 447.695 63.1396ZM446.146 58.8613H449.079C449.073 58.0234 448.495 57.4204 447.657 57.4268C446.794 57.4204 446.185 58.0679 446.146 58.8613ZM453.916 59.0137V63H452.037V56.1064H453.827V57.3125H453.903C454.214 56.519 454.951 56.0176 455.973 56.0176C457.414 56.0176 458.353 57.0015 458.347 58.6074V63H456.48V58.9375C456.474 58.0869 456.017 57.5791 455.236 57.5791C454.456 57.5791 453.916 58.106 453.916 59.0137Z" fill="white"/>
<path d="M425.961 83L426.348 80.6562H424.215L423.828 83H422.973L423.359 80.6562H422.105L422.246 79.8125H423.494L423.846 77.7031H422.609L422.738 76.8594H423.98L424.367 74.5156H425.223L424.836 76.8594H426.969L427.355 74.5156H428.211L427.824 76.8594H429.09L428.949 77.7031H427.689L427.338 79.8125H428.586L428.445 80.6562H427.203L426.816 83H425.961ZM424.35 79.8125H426.482L426.834 77.7031H424.701L424.35 79.8125ZM429.992 83L429.98 82.2266L432.875 79.1797C433.877 78.1133 434.357 77.5391 434.363 76.7539C434.357 75.8809 433.631 75.3184 432.676 75.3125C431.662 75.3184 431.029 75.957 431.023 76.9062H430.027C430.016 75.4062 431.176 74.3984 432.711 74.3984C434.252 74.3984 435.342 75.4355 435.348 76.7539C435.342 77.7031 434.902 78.4414 433.402 79.9883L431.457 81.9922V82.0625H435.5V83H429.992ZM439.988 83.1172C438.518 83.0996 436.895 82.2266 436.895 79.0859C436.895 76.0801 438.125 74.3984 440.117 74.3984C441.611 74.3984 442.654 75.3184 442.871 76.6484H441.828C441.635 75.8984 441.061 75.3359 440.117 75.3359C438.723 75.3359 437.885 76.5254 437.891 78.5703H437.996C438.482 77.8613 439.262 77.4453 440.176 77.4453C441.682 77.4453 442.941 78.6172 442.941 80.2578C442.941 81.8574 441.775 83.1348 439.988 83.1172ZM438.031 80.2812C438.037 81.2773 438.852 82.1855 439.988 82.1914C441.084 82.1855 441.916 81.3242 441.922 80.2695C441.916 79.2266 441.119 78.377 440.012 78.3711C438.898 78.377 438.043 79.2793 438.031 80.2812ZM444.535 83V74.5156H447.512C449.293 74.5156 450.131 75.5176 450.125 76.7656C450.131 77.8555 449.48 78.3418 448.742 78.5469V78.6289C449.533 78.6758 450.459 79.4023 450.465 80.75C450.459 82.0215 449.621 83 447.617 83H444.535ZM445.59 82.0625H447.605C448.936 82.0625 449.451 81.4766 449.445 80.7383C449.451 79.877 448.754 79.1445 447.664 79.1445H445.59V82.0625ZM445.59 78.2305H447.477C448.396 78.2363 449.117 77.6621 449.117 76.7773C449.117 76.0391 448.619 75.4531 447.512 75.4531H445.59V78.2305ZM451.965 83V74.5156H457.074V75.4531H453.02V78.2891H456.688V79.2148H453.02V83H451.965ZM461.328 74.3984C462.787 74.416 464.41 75.2949 464.41 78.418C464.41 81.4355 463.174 83.1172 461.188 83.1172C459.693 83.1172 458.645 82.2031 458.434 80.8555H459.477C459.664 81.6172 460.244 82.1797 461.188 82.1797C462.57 82.1797 463.414 80.9844 463.426 78.9219H463.309C462.822 79.625 462.043 80.0469 461.141 80.0469C459.623 80.0469 458.363 78.8809 458.363 77.2461C458.363 75.6641 459.523 74.3809 461.328 74.3984ZM459.395 77.2344C459.389 78.2832 460.186 79.1211 461.293 79.1211C462.4 79.1211 463.262 78.207 463.262 77.2109C463.262 76.2383 462.447 75.3242 461.328 75.3242C460.221 75.3242 459.383 76.1855 459.395 77.2344ZM466.004 83V74.5156H468.98C470.762 74.5156 471.6 75.5176 471.594 76.7656C471.6 77.8555 470.949 78.3418 470.211 78.5469V78.6289C471.002 78.6758 471.928 79.4023 471.934 80.75C471.928 82.0215 471.09 83 469.086 83H466.004ZM467.059 82.0625H469.074C470.404 82.0625 470.92 81.4766 470.914 80.7383C470.92 79.877 470.223 79.1445 469.133 79.1445H467.059V82.0625ZM467.059 78.2305H468.945C469.865 78.2363 470.586 77.6621 470.586 76.7773C470.586 76.0391 470.088 75.4531 468.98 75.4531H467.059V78.2305Z" fill="white" fill-opacity="0.78"/>
<rect x="686" width="274" height="100" rx="10" fill="#F77750"/>
<path d="M708.919 57.0078C708.767 55.9922 707.986 55.3765 706.913 55.3701C705.485 55.3765 704.539 56.4683 704.539 58.4043C704.539 60.3848 705.498 61.4321 706.9 61.4385C707.948 61.4321 708.735 60.8608 708.919 59.8643L710.849 59.877C710.639 61.5781 709.211 63.127 706.875 63.127C704.418 63.127 702.597 61.394 702.597 58.4043C702.597 55.4019 704.45 53.6816 706.875 53.6816C708.995 53.6816 710.595 54.894 710.849 57.0078H708.919ZM715.241 63.1396C713.159 63.1333 711.858 61.7051 711.864 59.5723C711.858 57.4458 713.159 56.0176 715.241 56.0176C717.33 56.0176 718.625 57.4458 718.631 59.5723C718.625 61.7051 717.33 63.1333 715.241 63.1396ZM713.769 59.5723C713.769 60.7783 714.27 61.6733 715.254 61.6797C716.212 61.6733 716.72 60.7783 716.714 59.5723C716.72 58.3599 716.212 57.4521 715.254 57.4521C714.27 57.4521 713.769 58.3599 713.769 59.5723ZM719.812 63V56.1064H721.627V57.2998H721.703C721.951 56.4556 722.592 56.0049 723.366 56.0049C723.557 56.0049 723.798 56.0303 723.963 56.0684V57.7441C723.785 57.687 723.423 57.6426 723.163 57.6426C722.312 57.6426 721.684 58.2329 721.69 59.0771V63H719.812ZM724.356 61.0703C724.363 59.5342 725.594 59.0327 726.921 58.9502C727.416 58.9185 728.343 58.874 728.635 58.8613V58.3027C728.628 57.7251 728.235 57.395 727.53 57.3887C726.889 57.395 726.489 57.6807 726.388 58.1504H724.598C724.712 56.957 725.753 56.0176 727.581 56.0176C729.085 56.0176 730.507 56.6904 730.501 58.3535V63H728.724V62.0479H728.673C728.336 62.6826 727.676 63.1333 726.654 63.127C725.334 63.1333 724.363 62.4351 724.356 61.0703ZM726.159 61.0195C726.159 61.5464 726.584 61.8257 727.188 61.832C728.044 61.8257 728.641 61.2671 728.635 60.5371V60.0356C728.349 60.0483 727.543 60.0928 727.226 60.1182C726.572 60.1753 726.159 60.4863 726.159 61.0195ZM733.814 53.8086V63H731.936V53.8086H733.814Z" fill="white"/>
<path d="M705.961 83L706.348 80.6562H704.215L703.828 83H702.973L703.359 80.6562H702.105L702.246 79.8125H703.494L703.846 77.7031H702.609L702.738 76.8594H703.98L704.367 74.5156H705.223L704.836 76.8594H706.969L707.355 74.5156H708.211L707.824 76.8594H709.09L708.949 77.7031H707.689L707.338 79.8125H708.586L708.445 80.6562H707.203L706.816 83H705.961ZM704.35 79.8125H706.482L706.834 77.7031H704.701L704.35 79.8125ZM710.133 83V74.5156H715.242V75.4531H711.188V78.2891H714.855V79.2148H711.188V83H710.133ZM716.941 83L720.832 75.5117V75.4531H716.344V74.5156H721.922V75.5L718.043 83H716.941ZM723.797 83L727.688 75.5117V75.4531H723.199V74.5156H728.777V75.5L724.898 83H723.797ZM730.652 83L734.543 75.5117V75.4531H730.055V74.5156H735.633V75.5L731.754 83H730.652ZM739.652 83.1172C738.123 83.1172 736.963 82.1738 736.898 80.8672H737.918C737.994 81.623 738.732 82.1855 739.652 82.1914C740.754 82.1855 741.551 81.3828 741.551 80.3164C741.551 79.2148 740.725 78.4004 739.582 78.3945C738.867 78.3828 738.311 78.6055 738 79.1562H736.98L737.578 74.5156H742.172V75.4531H738.457L738.141 77.9375H738.223C738.604 77.6445 739.172 77.4453 739.77 77.4453C741.387 77.4453 742.576 78.6406 742.582 80.293C742.576 81.9336 741.346 83.1172 739.652 83.1172ZM746.824 83.1172C744.943 83.1172 743.854 81.5352 743.859 78.7578C743.854 76.0039 744.955 74.3984 746.824 74.3984C748.688 74.3984 749.789 76.0039 749.789 78.7578C749.789 81.5352 748.705 83.1172 746.824 83.1172ZM744.879 78.7578C744.885 80.9551 745.594 82.1797 746.824 82.1797C748.049 82.1797 748.764 80.9551 748.758 78.7578C748.764 76.5605 748.043 75.3184 746.824 75.3125C745.605 75.3184 744.885 76.5605 744.879 78.7578Z" fill="white" fill-opacity="0.78"/>
<rect y="106" width="99.5556" height="100" rx="10" fill="#F8F9FA"/>
<path d="M16.7852 131V122.516H20.0312C21.8711 122.516 22.7793 123.453 22.7852 124.719C22.7793 125.75 22.1289 126.324 21.2969 126.523V126.605C22.1992 126.652 23.1133 127.402 23.1133 128.691C23.1133 130.01 22.1582 131 20.2188 131H16.7852ZM18.3086 129.723H19.9844C21.0977 129.723 21.5605 129.248 21.5664 128.574C21.5605 127.812 20.9688 127.232 20.0195 127.227H18.3086V129.723ZM18.3086 126.125H19.8438C20.6465 126.125 21.2559 125.662 21.2617 124.906C21.2559 124.256 20.7871 123.781 19.8789 123.781H18.3086V126.125ZM27.0625 133.52C25.375 133.52 24.3027 132.77 24.2031 131.574H25.6914C25.7969 132.131 26.3184 132.389 27.0859 132.395C27.9824 132.389 28.5625 132.002 28.5625 131.07V129.852H28.4922C28.2578 130.32 27.748 130.906 26.6523 130.906C25.1816 130.906 24.0273 129.84 24.0273 127.766C24.0273 125.674 25.1875 124.555 26.6641 124.555C27.7832 124.555 28.2578 125.229 28.4922 125.68H28.5625V124.637H30.0391V131.105C30.0391 132.734 28.7793 133.52 27.0625 133.52ZM25.5508 127.789C25.5508 128.961 26.0781 129.734 27.0625 129.734C28.0293 129.734 28.5742 129.008 28.5742 127.789C28.5742 126.576 28.0352 125.779 27.0625 125.773C26.0664 125.779 25.5508 126.629 25.5508 127.789Z" fill="black" fill-opacity="0.32"/>
<path d="M20.6846 159.809V169H18.7676V161.624H18.7168L16.6094 162.944V161.256L18.8818 159.809H20.6846ZM26.3848 169.127C24.0806 169.127 22.6904 167.413 22.6904 164.404C22.6904 161.402 24.0933 159.682 26.3848 159.682C28.6763 159.682 30.0791 161.402 30.0791 164.404C30.0791 167.426 28.6826 169.127 26.3848 169.127ZM24.6455 164.404C24.6328 166.524 25.3184 167.553 26.3848 167.553C27.4512 167.553 28.1304 166.524 28.124 164.404C28.1304 162.303 27.4448 161.25 26.3848 161.243C25.3247 161.25 24.6455 162.303 24.6455 164.404Z" fill="black"/>
<path d="M19.9609 189L20.3477 186.656H18.2148L17.8281 189H16.9727L17.3594 186.656H16.1055L16.2461 185.812H17.4941L17.8457 183.703H16.6094L16.7383 182.859H17.9805L18.3672 180.516H19.2227L18.8359 182.859H20.9688L21.3555 180.516H22.2109L21.8242 182.859H23.0898L22.9492 183.703H21.6895L21.3379 185.812H22.5859L22.4453 186.656H21.2031L20.8164 189H19.9609ZM18.3496 185.812H20.4824L20.834 183.703H18.7012L18.3496 185.812ZM24.1328 189V180.516H29.2422V181.453H25.1875V184.289H28.8555V185.215H25.1875V189H24.1328ZM33.5078 189.117C31.7207 189.117 30.4902 188.127 30.4961 186.75C30.4902 185.654 31.252 184.746 32.2188 184.594V184.547C31.375 184.354 30.8184 183.574 30.8242 182.648C30.8184 181.354 31.9551 180.398 33.5078 180.398C35.0547 180.398 36.1914 181.354 36.2031 182.648C36.1914 183.574 35.6289 184.354 34.7969 184.547V184.594C35.7578 184.746 36.5195 185.654 36.5312 186.75C36.5195 188.127 35.2773 189.117 33.5078 189.117ZM31.5508 186.691C31.5332 187.582 32.2891 188.186 33.5078 188.191C34.7207 188.186 35.4766 187.582 35.4766 186.691C35.4766 185.754 34.6504 185.062 33.5078 185.062C32.3711 185.062 31.5332 185.754 31.5508 186.691ZM31.8438 182.73C31.8496 183.586 32.5352 184.166 33.5078 184.172C34.4746 184.166 35.1719 183.586 35.1719 182.73C35.1719 181.881 34.498 181.307 33.5078 181.312C32.5 181.307 31.8496 181.881 31.8438 182.73ZM38.0898 189V180.516H43.1992V181.453H39.1445V184.289H42.8125V185.215H39.1445V189H38.0898ZM47.4531 180.398C48.9121 180.416 50.5352 181.295 50.5352 184.418C50.5352 187.436 49.2988 189.117 47.3125 189.117C45.8184 189.117 44.7695 188.203 44.5586 186.855H45.6016C45.7891 187.617 46.3691 188.18 47.3125 188.18C48.6953 188.18 49.5391 186.984 49.5508 184.922H49.4336C48.9473 185.625 48.168 186.047 47.2656 186.047C45.748 186.047 44.4883 184.881 44.4883 183.246C44.4883 181.664 45.6484 180.381 47.4531 180.398ZM45.5195 183.234C45.5137 184.283 46.3105 185.121 47.418 185.121C48.5254 185.121 49.3867 184.207 49.3867 183.211C49.3867 182.238 48.5723 181.324 47.4531 181.324C46.3457 181.324 45.5078 182.186 45.5195 183.234ZM52.1289 189V180.516H57.2383V181.453H53.1836V184.289H56.8516V185.215H53.1836V189H52.1289ZM58.1172 189H57.0156L60.1211 180.516H61.2344L64.3398 189H63.2266L62.377 186.609H58.9668L58.1172 189ZM59.2891 185.684H62.0547L60.707 181.887H60.6367L59.2891 185.684Z" fill="black" fill-opacity="0.56"/>
<rect x="105.556" y="106" width="99.4306" height="100" rx="10" fill="#F1F3F5"/>
<path d="M122.279 169L122.267 167.616L125.567 164.582C126.424 163.763 126.888 163.255 126.888 162.525C126.888 161.707 126.272 161.199 125.428 161.205C124.564 161.199 124 161.745 124.006 162.627H122.19C122.184 160.831 123.517 159.682 125.453 159.682C127.421 159.682 128.729 160.805 128.729 162.398C128.729 163.446 128.221 164.303 126.329 166.017L124.933 167.375V167.426H128.855V169H122.279ZM133.781 169.127C131.477 169.127 130.087 167.413 130.087 164.404C130.087 161.402 131.49 159.682 133.781 159.682C136.073 159.682 137.476 161.402 137.476 164.404C137.476 167.426 136.079 169.127 133.781 169.127ZM132.042 164.404C132.029 166.524 132.715 167.553 133.781 167.553C134.848 167.553 135.527 166.524 135.521 164.404C135.527 162.303 134.841 161.25 133.781 161.243C132.721 161.25 132.042 162.303 132.042 164.404Z" fill="black"/>
<path d="M125.517 189L125.903 186.656H123.771L123.384 189H122.528L122.915 186.656H121.661L121.802 185.812H123.05L123.401 183.703H122.165L122.294 182.859H123.536L123.923 180.516H124.778L124.392 182.859H126.524L126.911 180.516H127.767L127.38 182.859H128.646L128.505 183.703H127.245L126.894 185.812H128.142L128.001 186.656H126.759L126.372 189H125.517ZM123.905 185.812H126.038L126.39 183.703H124.257L123.905 185.812ZM129.688 189V180.516H134.798V181.453H130.743V184.289H134.411V185.215H130.743V189H129.688ZM139.228 180.516V189H138.161V181.617H138.114L136.052 182.988V181.922L138.161 180.516H139.228ZM141.63 189V180.516H146.739V181.453H142.685V184.289H146.353V185.215H142.685V189H141.63ZM151.099 189.117C149.411 189.117 148.198 188.215 148.146 186.867H149.212C149.271 187.676 150.073 188.18 151.087 188.18C152.206 188.18 153.015 187.576 153.021 186.691C153.015 185.766 152.276 185.115 150.958 185.109H150.267V184.184H150.958C151.989 184.184 152.71 183.604 152.704 182.73C152.71 181.881 152.089 181.318 151.122 181.312C150.214 181.318 149.388 181.816 149.341 182.648H148.321C148.374 181.301 149.628 180.398 151.134 180.398C152.751 180.398 153.735 181.459 153.724 182.672C153.735 183.639 153.173 184.342 152.282 184.594V184.652C153.39 184.822 154.058 185.613 154.052 186.691C154.058 188.086 152.792 189.117 151.099 189.117ZM155.716 189V180.516H160.825V181.453H156.771V184.289H160.438V185.215H156.771V189H155.716ZM165.021 189.117C163.491 189.117 162.331 188.174 162.267 186.867H163.286C163.362 187.623 164.101 188.186 165.021 188.191C166.122 188.186 166.919 187.383 166.919 186.316C166.919 185.215 166.093 184.4 164.95 184.395C164.235 184.383 163.679 184.605 163.368 185.156H162.349L162.946 180.516H167.54V181.453H163.825L163.509 183.938H163.591C163.972 183.645 164.54 183.445 165.138 183.445C166.755 183.445 167.944 184.641 167.95 186.293C167.944 187.934 166.714 189.117 165.021 189.117Z" fill="black" fill-opacity="0.56"/>
<rect x="210.986" y="106" width="101.859" height="100" rx="10" fill="#E9ECEF"/>
<path d="M233.455 125.223C233.18 124.32 232.482 123.77 231.451 123.77C230.086 123.77 229.09 124.836 229.096 126.746C229.09 128.674 230.068 129.746 231.486 129.746C232.77 129.746 233.584 128.973 233.607 127.766H231.639V126.559H235.084V127.578C235.084 129.764 233.584 131.117 231.486 131.117C229.143 131.117 227.555 129.447 227.561 126.758C227.555 124.033 229.219 122.398 231.439 122.398C233.309 122.398 234.756 123.559 235.014 125.223H233.455ZM236.396 131V124.637H237.85V125.691H237.92C238.148 124.959 238.758 124.543 239.49 124.543C239.654 124.543 239.889 124.561 240.029 124.578V125.961C239.895 125.914 239.584 125.873 239.338 125.867C238.506 125.873 237.896 126.447 237.896 127.25V131H236.396ZM240.51 129.207C240.51 127.777 241.699 127.361 242.877 127.285C243.322 127.25 244.23 127.209 244.512 127.197L244.506 126.688C244.506 126.055 244.102 125.691 243.357 125.691C242.689 125.691 242.279 125.996 242.162 126.453H240.721C240.826 125.369 241.799 124.555 243.393 124.555C244.6 124.555 245.994 125.053 245.994 126.746V131H244.564V130.121H244.518C244.236 130.66 243.645 131.129 242.643 131.129C241.43 131.129 240.51 130.467 240.51 129.207ZM241.951 129.195C241.951 129.746 242.402 130.027 243.029 130.027C243.938 130.027 244.518 129.43 244.518 128.715L244.512 128.193C244.242 128.205 243.41 128.258 243.111 128.281C242.402 128.34 241.951 128.639 241.951 129.195ZM248.068 133.391C247.77 133.385 247.488 133.379 247.295 133.355V132.16C247.477 132.178 247.729 132.178 247.928 132.184C248.291 132.178 248.596 132.154 248.854 131.469L248.982 131.129L246.662 124.637H248.244L249.721 129.441H249.791L251.268 124.637H252.85L250.295 131.773C249.932 132.787 249.264 133.385 248.068 133.391Z" fill="black" fill-opacity="0.32"/>
<path d="M231.671 159.809V169H229.754V161.624H229.703L227.596 162.944V161.256L229.868 159.809H231.671ZM237.371 169.127C235.067 169.127 233.677 167.413 233.677 164.404C233.677 161.402 235.08 159.682 237.371 159.682C239.663 159.682 241.065 161.402 241.065 164.404C241.065 167.426 239.669 169.127 237.371 169.127ZM235.632 164.404C235.619 166.524 236.305 167.553 237.371 167.553C238.438 167.553 239.117 166.524 239.11 164.404C239.117 162.303 238.431 161.25 237.371 161.243C236.311 161.25 235.632 162.303 235.632 164.404Z" fill="black"/>
<path d="M230.947 189L231.334 186.656H229.201L228.814 189H227.959L228.346 186.656H227.092L227.232 185.812H228.48L228.832 183.703H227.596L227.725 182.859H228.967L229.354 180.516H230.209L229.822 182.859H231.955L232.342 180.516H233.197L232.811 182.859H234.076L233.936 183.703H232.676L232.324 185.812H233.572L233.432 186.656H232.189L231.803 189H230.947ZM229.336 185.812H231.469L231.82 183.703H229.688L229.336 185.812ZM235.119 189V180.516H240.264V181.453H236.174V184.289H239.994V185.215H236.174V188.062H240.322V189H235.119ZM244.611 180.398C246.07 180.416 247.693 181.295 247.693 184.418C247.693 187.436 246.457 189.117 244.471 189.117C242.977 189.117 241.928 188.203 241.717 186.855H242.76C242.947 187.617 243.527 188.18 244.471 188.18C245.854 188.18 246.697 186.984 246.709 184.922H246.592C246.105 185.625 245.326 186.047 244.424 186.047C242.906 186.047 241.646 184.881 241.646 183.246C241.646 181.664 242.807 180.381 244.611 180.398ZM242.678 183.234C242.672 184.283 243.469 185.121 244.576 185.121C245.684 185.121 246.545 184.207 246.545 183.211C246.545 182.238 245.73 181.324 244.611 181.324C243.504 181.324 242.666 182.186 242.678 183.234ZM249.287 189V180.516H254.432V181.453H250.342V184.289H254.162V185.215H250.342V188.062H254.49V189H249.287ZM261.885 183.188C261.639 182.016 260.637 181.383 259.518 181.383C257.982 181.383 256.793 182.566 256.787 184.758C256.793 186.943 257.982 188.127 259.518 188.133C260.637 188.127 261.633 187.5 261.885 186.34H262.939C262.635 188.074 261.24 189.117 259.518 189.117C257.338 189.117 255.762 187.441 255.768 184.758C255.762 182.074 257.338 180.398 259.518 180.398C261.234 180.398 262.623 181.424 262.939 183.188H261.885ZM264.416 189V180.516H269.561V181.453H265.471V184.289H269.291V185.215H265.471V188.062H269.619V189H264.416ZM271.225 189V180.516H276.334V181.453H272.279V184.289H275.947V185.215H272.279V189H271.225Z" fill="black" fill-opacity="0.56"/>
<rect x="318.846" y="106" width="101.859" height="100" rx="10" fill="#DEE2E6"/>
<path d="M335.569 169L335.557 167.616L338.857 164.582C339.714 163.763 340.178 163.255 340.178 162.525C340.178 161.707 339.562 161.199 338.718 161.205C337.854 161.199 337.29 161.745 337.296 162.627H335.48C335.474 160.831 336.807 159.682 338.743 159.682C340.711 159.682 342.019 160.805 342.019 162.398C342.019 163.446 341.511 164.303 339.619 166.017L338.223 167.375V167.426H342.146V169H335.569ZM347.071 169.127C344.767 169.127 343.377 167.413 343.377 164.404C343.377 161.402 344.78 159.682 347.071 159.682C349.363 159.682 350.766 161.402 350.766 164.404C350.766 167.426 349.369 169.127 347.071 169.127ZM345.332 164.404C345.319 166.524 346.005 167.553 347.071 167.553C348.138 167.553 348.817 166.524 348.811 164.404C348.817 162.303 348.131 161.25 347.071 161.243C346.011 161.25 345.332 162.303 345.332 164.404Z" fill="black"/>
<path d="M338.807 189L339.193 186.656H337.061L336.674 189H335.818L336.205 186.656H334.951L335.092 185.812H336.34L336.691 183.703H335.455L335.584 182.859H336.826L337.213 180.516H338.068L337.682 182.859H339.814L340.201 180.516H341.057L340.67 182.859H341.936L341.795 183.703H340.535L340.184 185.812H341.432L341.291 186.656H340.049L339.662 189H338.807ZM337.195 185.812H339.328L339.68 183.703H337.547L337.195 185.812ZM345.615 189H342.979V180.516H345.721C348.199 180.516 349.658 182.104 349.658 184.746C349.658 187.395 348.199 189 345.615 189ZM344.033 188.062H345.545C347.625 188.062 348.627 186.803 348.627 184.746C348.627 182.695 347.625 181.453 345.65 181.453H344.033V188.062ZM351.205 189V180.516H356.35V181.453H352.26V184.289H356.08V185.215H352.26V188.062H356.408V189H351.205ZM358.014 189V180.516H363.158V181.453H359.068V184.289H362.889V185.215H359.068V188.062H363.217V189H358.014ZM364.682 189L364.67 188.227L367.564 185.18C368.566 184.113 369.047 183.539 369.053 182.754C369.047 181.881 368.32 181.318 367.365 181.312C366.352 181.318 365.719 181.957 365.713 182.906H364.717C364.705 181.406 365.865 180.398 367.4 180.398C368.941 180.398 370.031 181.436 370.037 182.754C370.031 183.703 369.592 184.441 368.092 185.988L366.146 187.992V188.062H370.189V189H364.682ZM371.865 189V180.516H377.01V181.453H372.92V184.289H376.74V185.215H372.92V188.062H377.068V189H371.865ZM381.486 189.117C380.016 189.1 378.393 188.227 378.393 185.086C378.393 182.08 379.623 180.398 381.615 180.398C383.109 180.398 384.152 181.318 384.369 182.648H383.326C383.133 181.898 382.559 181.336 381.615 181.336C380.221 181.336 379.383 182.525 379.389 184.57H379.494C379.98 183.861 380.76 183.445 381.674 183.445C383.18 183.445 384.439 184.617 384.439 186.258C384.439 187.857 383.273 189.135 381.486 189.117ZM379.529 186.281C379.535 187.277 380.35 188.186 381.486 188.191C382.582 188.186 383.414 187.324 383.42 186.27C383.414 185.227 382.617 184.377 381.51 184.371C380.396 184.377 379.541 185.279 379.529 186.281Z" fill="black" fill-opacity="0.56"/>
<rect x="426.704" y="106" width="101.859" height="100" rx="10" fill="#CED4DA"/>
<path d="M446.83 169.127C444.812 169.127 443.364 168.016 443.326 166.41H445.256C445.288 167.096 445.954 167.546 446.843 167.553C447.757 167.546 448.411 167.039 448.404 166.296C448.411 165.547 447.744 165.02 446.665 165.014H445.814V163.604H446.665C447.573 163.604 448.208 163.109 448.201 162.386C448.208 161.681 447.668 161.199 446.855 161.205C446.043 161.199 445.376 161.656 445.345 162.36H443.517C443.548 160.78 444.97 159.682 446.855 159.682C448.772 159.682 450.048 160.818 450.042 162.271C450.048 163.3 449.331 164.03 448.303 164.214V164.29C449.655 164.455 450.397 165.274 450.385 166.423C450.397 167.997 448.906 169.127 446.83 169.127ZM455.298 169.127C452.994 169.127 451.604 167.413 451.604 164.404C451.604 161.402 453.006 159.682 455.298 159.682C457.589 159.682 458.992 161.402 458.992 164.404C458.992 167.426 457.596 169.127 455.298 169.127ZM453.559 164.404C453.546 166.524 454.231 167.553 455.298 167.553C456.364 167.553 457.043 166.524 457.037 164.404C457.043 162.303 456.358 161.25 455.298 161.243C454.238 161.25 453.559 162.303 453.559 164.404Z" fill="black"/>
<path d="M446.665 189L447.052 186.656H444.919L444.532 189H443.677L444.063 186.656H442.81L442.95 185.812H444.198L444.55 183.703H443.313L443.442 182.859H444.685L445.071 180.516H445.927L445.54 182.859H447.673L448.06 180.516H448.915L448.528 182.859H449.794L449.653 183.703H448.394L448.042 185.812H449.29L449.149 186.656H447.907L447.521 189H446.665ZM445.054 185.812H447.187L447.538 183.703H445.405L445.054 185.812ZM456.626 183.188C456.38 182.016 455.378 181.383 454.259 181.383C452.724 181.383 451.534 182.566 451.528 184.758C451.534 186.943 452.724 188.127 454.259 188.133C455.378 188.127 456.374 187.5 456.626 186.34H457.681C457.376 188.074 455.981 189.117 454.259 189.117C452.079 189.117 450.503 187.441 450.509 184.758C450.503 182.074 452.079 180.398 454.259 180.398C455.976 180.398 457.364 181.424 457.681 183.188H456.626ZM459.157 189V180.516H464.302V181.453H460.212V184.289H464.032V185.215H460.212V188.062H464.36V189H459.157ZM468.603 189H465.966V180.516H468.708C471.187 180.516 472.646 182.104 472.646 184.746C472.646 187.395 471.187 189 468.603 189ZM467.021 188.062H468.532C470.612 188.062 471.614 186.803 471.614 184.746C471.614 182.695 470.612 181.453 468.638 181.453H467.021V188.062ZM473.841 187.266V186.398L477.661 180.516H478.962V186.34H480.146V187.266H478.962V189H477.954V187.266H473.841ZM474.978 186.34H477.954V181.852H477.849L474.978 186.27V186.34ZM484.317 189H481.681V180.516H484.423C486.901 180.516 488.36 182.104 488.36 184.746C488.36 187.395 486.901 189 484.317 189ZM482.735 188.062H484.247C486.327 188.062 487.329 186.803 487.329 184.746C487.329 182.695 486.327 181.453 484.353 181.453H482.735V188.062ZM489.872 189H488.771L491.876 180.516H492.989L496.095 189H494.981L494.132 186.609H490.722L489.872 189ZM491.044 185.684H493.81L492.462 181.887H492.392L491.044 185.684Z" fill="black" fill-opacity="0.56"/>
<rect x="534.563" y="106" width="101.859" height="100" rx="10" fill="#ADB5BD"/>
<path d="M551.135 167.375V165.864L555.02 159.809H557.419V165.839H558.587V167.375H557.419V169H555.604V167.375H551.135ZM553.064 165.839H555.629V161.903H555.54L553.064 165.763V165.839ZM563.398 169.127C561.094 169.127 559.704 167.413 559.704 164.404C559.704 161.402 561.107 159.682 563.398 159.682C565.69 159.682 567.093 161.402 567.093 164.404C567.093 167.426 565.696 169.127 563.398 169.127ZM561.659 164.404C561.646 166.524 562.332 167.553 563.398 167.553C564.465 167.553 565.144 166.524 565.138 164.404C565.144 162.303 564.458 161.25 563.398 161.243C562.338 161.25 561.659 162.303 561.659 164.404Z" fill="black"/>
<path d="M554.524 189L554.911 186.656H552.778L552.392 189H551.536L551.923 186.656H550.669L550.81 185.812H552.058L552.409 183.703H551.173L551.302 182.859H552.544L552.931 180.516H553.786L553.399 182.859H555.532L555.919 180.516H556.774L556.388 182.859H557.653L557.513 183.703H556.253L555.901 185.812H557.149L557.009 186.656H555.767L555.38 189H554.524ZM552.913 185.812H555.046L555.397 183.703H553.265L552.913 185.812ZM559.071 189H557.97L561.075 180.516H562.188L565.294 189H564.181L563.331 186.609H559.921L559.071 189ZM560.243 185.684H563.009L561.661 181.887H561.591L560.243 185.684ZM569.079 189H566.442V180.516H569.185C571.663 180.516 573.122 182.104 573.122 184.746C573.122 187.395 571.663 189 569.079 189ZM567.497 188.062H569.009C571.089 188.062 572.091 186.803 572.091 184.746C572.091 182.695 571.089 181.453 569.114 181.453H567.497V188.062ZM574.669 189V180.516H577.646C579.427 180.516 580.265 181.518 580.259 182.766C580.265 183.855 579.614 184.342 578.876 184.547V184.629C579.667 184.676 580.593 185.402 580.599 186.75C580.593 188.021 579.755 189 577.751 189H574.669ZM575.724 188.062H577.739C579.069 188.062 579.585 187.477 579.579 186.738C579.585 185.877 578.888 185.145 577.798 185.145H575.724V188.062ZM575.724 184.23H577.61C578.53 184.236 579.251 183.662 579.251 182.777C579.251 182.039 578.753 181.453 577.646 181.453H575.724V184.23ZM584.724 189.117C583.194 189.117 582.034 188.174 581.97 186.867H582.989C583.065 187.623 583.804 188.186 584.724 188.191C585.825 188.186 586.622 187.383 586.622 186.316C586.622 185.215 585.796 184.4 584.653 184.395C583.938 184.383 583.382 184.605 583.071 185.156H582.052L582.649 180.516H587.243V181.453H583.528L583.212 183.938H583.294C583.675 183.645 584.243 183.445 584.841 183.445C586.458 183.445 587.647 184.641 587.653 186.293C587.647 187.934 586.417 189.117 584.724 189.117ZM589.259 189V180.516H592.235C594.017 180.516 594.854 181.518 594.849 182.766C594.854 183.855 594.204 184.342 593.466 184.547V184.629C594.257 184.676 595.183 185.402 595.188 186.75C595.183 188.021 594.345 189 592.341 189H589.259ZM590.313 188.062H592.329C593.659 188.062 594.175 187.477 594.169 186.738C594.175 185.877 593.478 185.145 592.388 185.145H590.313V188.062ZM590.313 184.23H592.2C593.12 184.236 593.841 183.662 593.841 182.777C593.841 182.039 593.343 181.453 592.235 181.453H590.313V184.23ZM599.325 189H596.688V180.516H599.431C601.909 180.516 603.368 182.104 603.368 184.746C603.368 187.395 601.909 189 599.325 189ZM597.743 188.062H599.255C601.335 188.062 602.337 186.803 602.337 184.746C602.337 182.695 601.335 181.453 599.36 181.453H597.743V188.062Z" fill="black" fill-opacity="0.56"/>
<rect x="642.423" y="106" width="101.859" height="100" rx="10" fill="#868E96"/>
<path d="M662.523 169.127C660.606 169.127 659.204 167.997 659.172 166.41H661.025C661.07 167.127 661.724 167.623 662.523 167.616C663.476 167.623 664.155 166.95 664.148 165.991C664.155 165.014 663.463 164.334 662.498 164.328C661.806 164.328 661.324 164.588 661.051 165.103H659.324L659.819 159.809H665.481V161.37H661.394L661.14 163.693H661.216C661.552 163.243 662.25 162.913 663.057 162.919C664.745 162.913 666.002 164.176 666.002 165.94C666.002 167.8 664.593 169.127 662.523 169.127ZM670.864 169.127C668.56 169.127 667.17 167.413 667.17 164.404C667.17 161.402 668.573 159.682 670.864 159.682C673.156 159.682 674.559 161.402 674.559 164.404C674.559 167.426 673.162 169.127 670.864 169.127ZM669.125 164.404C669.112 166.524 669.798 167.553 670.864 167.553C671.931 167.553 672.61 166.524 672.604 164.404C672.61 162.303 671.924 161.25 670.864 161.243C669.804 161.25 669.125 162.303 669.125 164.404Z" fill="white"/>
<path d="M662.384 189L662.771 186.656H660.638L660.251 189H659.396L659.782 186.656H658.528L658.669 185.812H659.917L660.269 183.703H659.032L659.161 182.859H660.403L660.79 180.516H661.646L661.259 182.859H663.392L663.778 180.516H664.634L664.247 182.859H665.513L665.372 183.703H664.112L663.761 185.812H665.009L664.868 186.656H663.626L663.239 189H662.384ZM660.772 185.812H662.905L663.257 183.703H661.124L660.772 185.812ZM669.251 189.117C667.464 189.117 666.233 188.127 666.239 186.75C666.233 185.654 666.995 184.746 667.962 184.594V184.547C667.118 184.354 666.562 183.574 666.567 182.648C666.562 181.354 667.698 180.398 669.251 180.398C670.798 180.398 671.935 181.354 671.946 182.648C671.935 183.574 671.372 184.354 670.54 184.547V184.594C671.501 184.746 672.263 185.654 672.274 186.75C672.263 188.127 671.021 189.117 669.251 189.117ZM667.294 186.691C667.276 187.582 668.032 188.186 669.251 188.191C670.464 188.186 671.22 187.582 671.22 186.691C671.22 185.754 670.394 185.062 669.251 185.062C668.114 185.062 667.276 185.754 667.294 186.691ZM667.587 182.73C667.593 183.586 668.278 184.166 669.251 184.172C670.218 184.166 670.915 183.586 670.915 182.73C670.915 181.881 670.241 181.307 669.251 181.312C668.243 181.307 667.593 181.881 667.587 182.73ZM676.646 189.117C675.175 189.1 673.552 188.227 673.552 185.086C673.552 182.08 674.782 180.398 676.774 180.398C678.269 180.398 679.312 181.318 679.528 182.648H678.485C678.292 181.898 677.718 181.336 676.774 181.336C675.38 181.336 674.542 182.525 674.548 184.57H674.653C675.14 183.861 675.919 183.445 676.833 183.445C678.339 183.445 679.599 184.617 679.599 186.258C679.599 187.857 678.433 189.135 676.646 189.117ZM674.688 186.281C674.694 187.277 675.509 188.186 676.646 188.191C677.741 188.186 678.573 187.324 678.579 186.27C678.573 185.227 677.776 184.377 676.669 184.371C675.556 184.377 674.7 185.279 674.688 186.281ZM683.888 189.117C682.101 189.117 680.87 188.127 680.876 186.75C680.87 185.654 681.632 184.746 682.599 184.594V184.547C681.755 184.354 681.198 183.574 681.204 182.648C681.198 181.354 682.335 180.398 683.888 180.398C685.435 180.398 686.571 181.354 686.583 182.648C686.571 183.574 686.009 184.354 685.177 184.547V184.594C686.138 184.746 686.899 185.654 686.911 186.75C686.899 188.127 685.657 189.117 683.888 189.117ZM681.931 186.691C681.913 187.582 682.669 188.186 683.888 188.191C685.101 188.186 685.856 187.582 685.856 186.691C685.856 185.754 685.03 185.062 683.888 185.062C682.751 185.062 681.913 185.754 681.931 186.691ZM682.224 182.73C682.229 183.586 682.915 184.166 683.888 184.172C684.854 184.166 685.552 183.586 685.552 182.73C685.552 181.881 684.878 181.307 683.888 181.312C682.88 181.307 682.229 181.881 682.224 182.73ZM688.47 189V180.516H693.614V181.453H689.524V184.289H693.345V185.215H689.524V188.062H693.673V189H688.47ZM697.962 180.398C699.421 180.416 701.044 181.295 701.044 184.418C701.044 187.436 699.808 189.117 697.821 189.117C696.327 189.117 695.278 188.203 695.067 186.855H696.11C696.298 187.617 696.878 188.18 697.821 188.18C699.204 188.18 700.048 186.984 700.06 184.922H699.942C699.456 185.625 698.677 186.047 697.774 186.047C696.257 186.047 694.997 184.881 694.997 183.246C694.997 181.664 696.157 180.381 697.962 180.398ZM696.028 183.234C696.022 184.283 696.819 185.121 697.927 185.121C699.034 185.121 699.896 184.207 699.896 183.211C699.896 182.238 699.081 181.324 697.962 181.324C696.854 181.324 696.017 182.186 696.028 183.234ZM705.45 189.117C703.979 189.1 702.356 188.227 702.356 185.086C702.356 182.08 703.587 180.398 705.579 180.398C707.073 180.398 708.116 181.318 708.333 182.648H707.29C707.097 181.898 706.522 181.336 705.579 181.336C704.185 181.336 703.347 182.525 703.353 184.57H703.458C703.944 183.861 704.724 183.445 705.638 183.445C707.144 183.445 708.403 184.617 708.403 186.258C708.403 187.857 707.237 189.135 705.45 189.117ZM703.493 186.281C703.499 187.277 704.313 188.186 705.45 188.191C706.546 188.186 707.378 187.324 707.384 186.27C707.378 185.227 706.581 184.377 705.474 184.371C704.36 184.377 703.505 185.279 703.493 186.281Z" fill="white" fill-opacity="0.78"/>
<rect x="750.281" y="106" width="101.859" height="100" rx="10" fill="#495057"/>
<path d="M770.56 169.127C768.662 169.121 766.846 167.984 766.853 164.62C766.859 161.516 768.338 159.682 770.636 159.682C772.483 159.682 773.752 160.85 773.937 162.36H772.058C771.905 161.719 771.378 161.319 770.636 161.319C769.385 161.319 768.731 162.443 768.719 164.252H768.808C769.233 163.433 770.141 162.957 771.156 162.957C772.813 162.957 774.044 164.195 774.038 165.928C774.044 167.794 772.635 169.133 770.56 169.127ZM768.909 165.979C768.922 166.88 769.607 167.623 770.547 167.616C771.493 167.623 772.185 166.905 772.185 165.979C772.185 165.058 771.505 164.347 770.572 164.341C769.633 164.347 768.922 165.083 768.909 165.979ZM778.926 169.127C776.622 169.127 775.231 167.413 775.231 164.404C775.231 161.402 776.634 159.682 778.926 159.682C781.217 159.682 782.62 161.402 782.62 164.404C782.62 167.426 781.224 169.127 778.926 169.127ZM777.187 164.404C777.174 166.524 777.859 167.553 778.926 167.553C779.992 167.553 780.671 166.524 780.665 164.404C780.671 162.303 779.986 161.25 778.926 161.243C777.866 161.25 777.187 162.303 777.187 164.404Z" fill="white"/>
<path d="M770.242 189L770.629 186.656H768.496L768.109 189H767.254L767.641 186.656H766.387L766.527 185.812H767.775L768.127 183.703H766.891L767.02 182.859H768.262L768.648 180.516H769.504L769.117 182.859H771.25L771.637 180.516H772.492L772.105 182.859H773.371L773.23 183.703H771.971L771.619 185.812H772.867L772.727 186.656H771.484L771.098 189H770.242ZM768.631 185.812H770.764L771.115 183.703H768.982L768.631 185.812ZM774.062 187.266V186.398L777.883 180.516H779.184V186.34H780.367V187.266H779.184V189H778.176V187.266H774.062ZM775.199 186.34H778.176V181.852H778.07L775.199 186.27V186.34ZM784.586 180.398C786.045 180.416 787.668 181.295 787.668 184.418C787.668 187.436 786.432 189.117 784.445 189.117C782.951 189.117 781.902 188.203 781.691 186.855H782.734C782.922 187.617 783.502 188.18 784.445 188.18C785.828 188.18 786.672 186.984 786.684 184.922H786.566C786.08 185.625 785.301 186.047 784.398 186.047C782.881 186.047 781.621 184.881 781.621 183.246C781.621 181.664 782.781 180.381 784.586 180.398ZM782.652 183.234C782.646 184.283 783.443 185.121 784.551 185.121C785.658 185.121 786.52 184.207 786.52 183.211C786.52 182.238 785.705 181.324 784.586 181.324C783.479 181.324 782.641 182.186 782.652 183.234ZM791.887 189.117C790.357 189.117 789.197 188.174 789.133 186.867H790.152C790.229 187.623 790.967 188.186 791.887 188.191C792.988 188.186 793.785 187.383 793.785 186.316C793.785 185.215 792.959 184.4 791.816 184.395C791.102 184.383 790.545 184.605 790.234 185.156H789.215L789.812 180.516H794.406V181.453H790.691L790.375 183.938H790.457C790.838 183.645 791.406 183.445 792.004 183.445C793.621 183.445 794.811 184.641 794.816 186.293C794.811 187.934 793.58 189.117 791.887 189.117ZM799.059 189.117C797.178 189.117 796.088 187.535 796.094 184.758C796.088 182.004 797.189 180.398 799.059 180.398C800.922 180.398 802.023 182.004 802.023 184.758C802.023 187.535 800.939 189.117 799.059 189.117ZM797.113 184.758C797.119 186.955 797.828 188.18 799.059 188.18C800.283 188.18 800.998 186.955 800.992 184.758C800.998 182.561 800.277 181.318 799.059 181.312C797.84 181.318 797.119 182.561 797.113 184.758ZM806.195 189.117C804.666 189.117 803.506 188.174 803.441 186.867H804.461C804.537 187.623 805.275 188.186 806.195 188.191C807.297 188.186 808.094 187.383 808.094 186.316C808.094 185.215 807.268 184.4 806.125 184.395C805.41 184.383 804.854 184.605 804.543 185.156H803.523L804.121 180.516H808.715V181.453H805L804.684 183.938H804.766C805.146 183.645 805.715 183.445 806.312 183.445C807.93 183.445 809.119 184.641 809.125 186.293C809.119 187.934 807.889 189.117 806.195 189.117ZM810.859 189L814.75 181.512V181.453H810.262V180.516H815.84V181.5L811.961 189H810.859Z" fill="white" fill-opacity="0.78"/>
<rect x="858.141" y="106" width="101.859" height="100" rx="10" fill="#212529"/>
<path d="M875.22 169L879.092 161.434V161.37H874.585V159.809H881.072V161.396L877.2 169H875.22ZM885.706 169.127C883.402 169.127 882.012 167.413 882.012 164.404C882.012 161.402 883.415 159.682 885.706 159.682C887.998 159.682 889.4 161.402 889.4 164.404C889.4 167.426 888.004 169.127 885.706 169.127ZM883.967 164.404C883.954 166.524 884.64 167.553 885.706 167.553C886.772 167.553 887.452 166.524 887.445 164.404C887.452 162.303 886.766 161.25 885.706 161.243C884.646 161.25 883.967 162.303 883.967 164.404Z" fill="white"/>
<path d="M878.102 189L878.488 186.656H876.355L875.969 189H875.113L875.5 186.656H874.246L874.387 185.812H875.635L875.986 183.703H874.75L874.879 182.859H876.121L876.508 180.516H877.363L876.977 182.859H879.109L879.496 180.516H880.352L879.965 182.859H881.23L881.09 183.703H879.83L879.479 185.812H880.727L880.586 186.656H879.344L878.957 189H878.102ZM876.49 185.812H878.623L878.975 183.703H876.842L876.49 185.812ZM882.133 189L882.121 188.227L885.016 185.18C886.018 184.113 886.498 183.539 886.504 182.754C886.498 181.881 885.771 181.318 884.816 181.312C883.803 181.318 883.17 181.957 883.164 182.906H882.168C882.156 181.406 883.316 180.398 884.852 180.398C886.393 180.398 887.482 181.436 887.488 182.754C887.482 183.703 887.043 184.441 885.543 185.988L883.598 187.992V188.062H887.641V189H882.133ZM892.176 180.516V189H891.109V181.617H891.062L889 182.988V181.922L891.109 180.516H892.176ZM894.438 189L894.426 188.227L897.32 185.18C898.322 184.113 898.803 183.539 898.809 182.754C898.803 181.881 898.076 181.318 897.121 181.312C896.107 181.318 895.475 181.957 895.469 182.906H894.473C894.461 181.406 895.621 180.398 897.156 180.398C898.697 180.398 899.787 181.436 899.793 182.754C899.787 183.703 899.348 184.441 897.848 185.988L895.902 187.992V188.062H899.945V189H894.438ZM904.246 189.117C902.717 189.117 901.557 188.174 901.492 186.867H902.512C902.588 187.623 903.326 188.186 904.246 188.191C905.348 188.186 906.145 187.383 906.145 186.316C906.145 185.215 905.318 184.4 904.176 184.395C903.461 184.383 902.904 184.605 902.594 185.156H901.574L902.172 180.516H906.766V181.453H903.051L902.734 183.938H902.816C903.197 183.645 903.766 183.445 904.363 183.445C905.98 183.445 907.17 184.641 907.176 186.293C907.17 187.934 905.939 189.117 904.246 189.117ZM908.641 189L908.629 188.227L911.523 185.18C912.525 184.113 913.006 183.539 913.012 182.754C913.006 181.881 912.279 181.318 911.324 181.312C910.311 181.318 909.678 181.957 909.672 182.906H908.676C908.664 181.406 909.824 180.398 911.359 180.398C912.9 180.398 913.99 181.436 913.996 182.754C913.99 183.703 913.551 184.441 912.051 185.988L910.105 187.992V188.062H914.148V189H908.641ZM918.508 180.398C919.967 180.416 921.59 181.295 921.59 184.418C921.59 187.436 920.354 189.117 918.367 189.117C916.873 189.117 915.824 188.203 915.613 186.855H916.656C916.844 187.617 917.424 188.18 918.367 188.18C919.75 188.18 920.594 186.984 920.605 184.922H920.488C920.002 185.625 919.223 186.047 918.32 186.047C916.803 186.047 915.543 184.881 915.543 183.246C915.543 181.664 916.703 180.381 918.508 180.398ZM916.574 183.234C916.568 184.283 917.365 185.121 918.473 185.121C919.58 185.121 920.441 184.207 920.441 183.211C920.441 182.238 919.627 181.324 918.508 181.324C917.4 181.324 916.562 182.186 916.574 183.234Z" fill="white" fill-opacity="0.78"/>
</svg>
