<svg width="960" height="192" viewBox="0 0 960 192" fill="none" xmlns="http://www.w3.org/2000/svg">
<path d="M3.65234 98V49.9219H23.3086C34.1328 49.9219 40.8066 56.6621 40.7734 66.457C40.8066 76.3848 34 82.9258 22.9766 82.9258H14.9414V98H3.65234ZM14.9414 73.9609H20.918C26.2637 73.9941 29.0859 71.0059 29.0859 66.457C29.0859 61.9746 26.2637 59.0859 20.918 59.0859H14.9414V73.9609ZM46.418 98V61.9414H57.3086V68.4492H57.6406C58.9688 63.7344 62.1562 61.4434 66.1406 61.4102C67.1699 61.4434 68.3984 61.6094 69.3281 61.8086V71.5703C68.2656 71.2383 66.2402 71.0059 64.8789 71.0391C60.6953 71.0059 57.6074 73.9277 57.6406 78.2773V98H46.418ZM89.5156 98.6641C78.2266 98.6641 71.3203 91.625 71.3203 80.1367C71.3203 68.9473 78.293 61.4766 89.1172 61.4766C99.2441 61.4766 106.516 67.918 106.516 79.8711V82.7266H82.3438V82.9258C82.377 87.541 85.166 90.5625 89.7148 90.5625C92.7695 90.5625 95.0605 89.2344 95.957 87.1094H106.383C105.021 94.1484 98.8457 98.6641 89.5156 98.6641ZM82.3438 76.1523H96.0898C96.0234 72.3008 93.2344 69.5781 89.3828 69.5781C85.4316 69.5781 82.5098 72.4336 82.3438 76.1523ZM132.414 61.9414V70.1758H125.84V86.7109C125.873 88.9688 127.002 89.666 128.895 89.6992C129.824 89.7656 131.617 89.666 132.879 89.5664V98.1328C131.783 98.2988 129.924 98.498 127.301 98.5312C119.365 98.498 114.617 95.2441 114.684 87.9727V70.1758H109.836V61.9414H114.684V53.3086H125.84V61.9414H132.414ZM154.594 98.6641C143.305 98.6641 136.398 91.625 136.398 80.1367C136.398 68.9473 143.371 61.4766 154.195 61.4766C164.322 61.4766 171.594 67.918 171.594 79.8711V82.7266H147.422V82.9258C147.455 87.541 150.244 90.5625 154.793 90.5625C157.848 90.5625 160.139 89.2344 161.035 87.1094H171.461C170.1 94.1484 163.924 98.6641 154.594 98.6641ZM147.422 76.1523H161.168C161.102 72.3008 158.312 69.5781 154.461 69.5781C150.51 69.5781 147.588 72.4336 147.422 76.1523ZM188.594 77.3477V98H177.371V61.9414H187.996V68.5156H188.395C190.021 64.166 194.039 61.4766 199.352 61.4766C206.955 61.4766 211.869 66.8555 211.836 75.0234V98H200.68V77.1484C200.68 73.0977 198.488 70.6738 194.77 70.6406C191.051 70.6738 188.594 73.1641 188.594 77.3477ZM232.09 98.5312C224.055 98.5312 217.613 92.2227 217.613 80.0039C217.613 67.3535 224.42 61.4766 232.023 61.4766C237.801 61.4766 240.889 64.8633 242.25 68.1172H242.516V49.9219H253.672V98H242.582V92.1562H242.25C240.789 95.4434 237.602 98.5312 232.09 98.5312ZM229.102 79.9375C229.102 85.8809 231.525 89.7656 235.875 89.7656C240.225 89.7656 242.748 85.9141 242.715 79.9375C242.748 73.9609 240.225 70.2422 235.875 70.2422C231.492 70.2422 229.102 74.0605 229.102 79.9375ZM259.25 87.9727C259.217 79.9707 265.426 77.1152 272.598 76.6836C275.221 76.5176 279.703 76.3516 281.23 76.2852V73.3633C281.23 70.8398 279.371 69.4121 276.316 69.4453C273.361 69.4121 271.436 70.7402 271.004 73.0977H260.578C261.076 66.7227 266.455 61.4766 276.582 61.4766C285.48 61.4766 292.42 65.6934 292.453 73.4961V98H281.895V92.9531H281.629C279.67 96.6055 276.184 98.6309 271.137 98.6641C264.23 98.6309 259.217 95.1113 259.25 87.9727ZM269.875 87.5078C269.842 89.9316 271.801 91.2266 274.523 91.2266C278.342 91.2266 281.33 88.7363 281.297 85.1836V82.8594C279.936 82.8926 276.15 83.0918 274.457 83.2578C271.635 83.5566 269.842 85.1172 269.875 87.5078ZM299.293 98V61.9414H310.184V68.4492H310.516C311.844 63.7344 315.031 61.4434 319.016 61.4102C320.045 61.4434 321.273 61.6094 322.203 61.8086V71.5703C321.141 71.2383 319.115 71.0059 317.754 71.0391C313.57 71.0059 310.482 73.9277 310.516 78.2773V98H299.293ZM338.805 98.5312C330.77 98.5312 324.328 92.2227 324.328 80.0039C324.328 67.3535 331.135 61.4766 338.738 61.4766C344.516 61.4766 347.604 64.8633 348.965 68.1172H349.23V49.9219H360.387V98H349.297V92.1562H348.965C347.504 95.4434 344.316 98.5312 338.805 98.5312ZM335.816 79.9375C335.816 85.8809 338.24 89.7656 342.59 89.7656C346.939 89.7656 349.463 85.9141 349.43 79.9375C349.463 73.9609 346.939 70.2422 342.59 70.2422C338.207 70.2422 335.816 74.0605 335.816 79.9375Z" fill="#212529"/>
<path d="M1.19141 149V134.859H4.12109V140.719H10.2539V134.859H13.2031V149H10.2539V143.141H4.12109V149H1.19141ZM20.1172 149L20.0977 146.871L25.1758 142.203C26.4941 140.943 27.207 140.162 27.207 139.039C27.207 137.779 26.2598 136.998 24.9609 137.008C23.6328 136.998 22.7637 137.838 22.7734 139.195H19.9805C19.9707 136.432 22.0215 134.664 25 134.664C28.0273 134.664 30.0391 136.393 30.0391 138.844C30.0391 140.455 29.2578 141.773 26.3477 144.41L24.1992 146.5V146.578H30.2344V149H20.1172ZM37.8125 149.195C34.2676 149.195 32.1289 146.559 32.1289 141.93C32.1289 137.311 34.2871 134.664 37.8125 134.664C41.3379 134.664 43.4961 137.311 43.4961 141.93C43.4961 146.578 41.3477 149.195 37.8125 149.195ZM35.1367 141.93C35.1172 145.191 36.1719 146.773 37.8125 146.773C39.4531 146.773 40.498 145.191 40.4883 141.93C40.498 138.697 39.4434 137.076 37.8125 137.066C36.1816 137.076 35.1367 138.697 35.1367 141.93ZM45.5469 152.984V138.395H48.3984V140.172H48.5156C48.916 139.312 49.7559 138.258 51.543 138.258C53.8867 138.258 55.8496 140.074 55.8398 143.707C55.8496 147.252 53.9648 149.176 51.543 149.176C49.8145 149.176 48.9258 148.18 48.5156 147.301H48.4375V152.984H45.5469ZM48.3789 143.688C48.3691 145.602 49.1895 146.861 50.625 146.871C52.0996 146.861 52.9004 145.562 52.8906 143.688C52.9004 141.842 52.1191 140.562 50.625 140.562C49.1797 140.562 48.3691 141.783 48.3789 143.688ZM59.7266 138.395L61.6992 142.125L63.7109 138.395H66.6992L63.5938 143.688L66.7773 149H63.8086L61.6992 145.309L59.6289 149H56.6211L59.7852 143.688L56.7383 138.395H59.7266Z" fill="#495057"/>
<path d="M93.0469 150V138.688H95.0781V143.484H100.344V138.688H102.391V150H100.344V145.188H95.0781V150H93.0469ZM112.766 138.688V150H110.719V140.672H110.656L108.016 142.359V140.5L110.812 138.688H112.766ZM119.75 150.156C117.539 150.141 115.336 148.828 115.344 144.656C115.344 140.789 117.102 138.531 119.875 138.531C122.055 138.531 123.555 139.898 123.812 141.734H121.797C121.594 140.867 120.906 140.289 119.875 140.297C118.234 140.289 117.32 141.742 117.312 144.125H117.422C118 143.148 119.086 142.57 120.328 142.578C122.359 142.57 123.93 144.109 123.922 146.25C123.93 148.5 122.25 150.172 119.75 150.156ZM117.531 146.312C117.547 147.492 118.469 148.508 119.75 148.516C121.008 148.508 121.945 147.539 121.953 146.297C121.945 145.094 121.039 144.125 119.781 144.125C118.508 144.125 117.547 145.133 117.531 146.312ZM125.656 153.188V141.516H127.609V142.906H127.734C128.039 142.305 128.664 141.406 130.172 141.406C132.125 141.406 133.664 142.938 133.672 145.766C133.664 148.555 132.172 150.148 130.172 150.156C128.711 150.148 128.047 149.281 127.734 148.656H127.656V153.188H125.656ZM127.609 145.75C127.617 147.406 128.336 148.516 129.625 148.516C130.945 148.516 131.641 147.352 131.641 145.75C131.641 144.172 130.961 143.039 129.625 143.031C128.32 143.039 127.617 144.102 127.609 145.75ZM136.531 141.516L138.25 144.656L140 141.516H142.109L139.547 145.75L142.156 150H140.062L138.25 146.938L136.484 150H134.359L136.953 145.75L134.422 141.516H136.531Z" fill="#495057"/>
<path d="M167.916 150V140.102H169.693V144.299H174.301V140.102H176.092V150H174.301V145.789H169.693V150H167.916ZM185.17 140.102V150H183.379V141.838H183.324L181.014 143.314V141.688L183.461 140.102H185.17ZM187.398 148.154V146.732L191.678 140.102H193.893V146.691H195.191V148.154H193.893V150H192.197V148.154H187.398ZM189.217 146.691H192.225V142.125H192.115L189.217 146.623V146.691ZM196.627 152.789V142.576H198.336V143.793H198.445C198.712 143.267 199.259 142.48 200.578 142.48C202.287 142.48 203.634 143.82 203.641 146.295C203.634 148.735 202.328 150.13 200.578 150.137C199.3 150.13 198.719 149.371 198.445 148.824H198.377V152.789H196.627ZM198.336 146.281C198.343 147.73 198.972 148.701 200.1 148.701C201.255 148.701 201.863 147.683 201.863 146.281C201.863 144.9 201.269 143.909 200.1 143.902C198.958 143.909 198.343 144.839 198.336 146.281ZM206.143 142.576L207.646 145.324L209.178 142.576H211.023L208.781 146.281L211.064 150H209.232L207.646 147.32L206.102 150H204.242L206.512 146.281L204.297 142.576H206.143Z" fill="#495057"/>
<path d="M240.113 140.809V150H238.958V142.002H238.907L236.673 143.487V142.332L238.958 140.809H240.113ZM245.737 150.127C243.909 150.127 242.595 149.149 242.538 147.689H243.693C243.757 148.565 244.626 149.111 245.725 149.111C246.937 149.111 247.813 148.458 247.819 147.499C247.813 146.496 247.013 145.792 245.585 145.785H244.836V144.782H245.585C246.702 144.782 247.483 144.154 247.477 143.208C247.483 142.288 246.81 141.678 245.763 141.672C244.779 141.678 243.884 142.218 243.833 143.119H242.729C242.786 141.659 244.144 140.682 245.775 140.682C247.527 140.682 248.594 141.831 248.581 143.145C248.594 144.192 247.984 144.954 247.02 145.227V145.29C248.219 145.474 248.943 146.331 248.937 147.499C248.943 149.01 247.572 150.127 245.737 150.127ZM250.6 152.59V143.106H251.653V144.198H251.78C252.015 143.83 252.434 143.018 253.773 143.018C255.506 143.018 256.706 144.389 256.706 146.572C256.706 148.762 255.506 150.146 253.786 150.14C252.472 150.146 252.015 149.327 251.78 148.946H251.691V152.59H250.6ZM251.666 146.547C251.672 148.096 252.364 149.162 253.634 149.162C254.941 149.162 255.614 148.013 255.614 146.547C255.614 145.106 254.96 143.995 253.634 143.995C252.345 143.995 251.672 145.017 251.666 146.547ZM258.661 143.106L260.286 145.912L261.924 143.106H263.181L260.959 146.547L263.181 150H261.937L260.286 147.334L258.661 150H257.404L259.575 146.547L257.404 143.106H258.661Z" fill="#495057"/>
<path d="M291.797 141.516V150H290.73V142.617H290.684L288.621 143.988V142.922L290.73 141.516H291.797ZM294.059 150L294.047 149.227L296.941 146.18C297.943 145.113 298.424 144.539 298.43 143.754C298.424 142.881 297.697 142.318 296.742 142.312C295.729 142.318 295.096 142.957 295.09 143.906H294.094C294.082 142.406 295.242 141.398 296.777 141.398C298.318 141.398 299.408 142.436 299.414 143.754C299.408 144.703 298.969 145.441 297.469 146.988L295.523 148.992V149.062H299.566V150H294.059ZM301.113 152.391V143.637H302.086V144.645H302.203C302.42 144.305 302.807 143.555 304.043 143.555C305.643 143.555 306.75 144.82 306.75 146.836C306.75 148.857 305.643 150.135 304.055 150.129C302.842 150.135 302.42 149.379 302.203 149.027H302.121V152.391H301.113ZM302.098 146.812C302.104 148.242 302.742 149.227 303.914 149.227C305.121 149.227 305.742 148.166 305.742 146.812C305.742 145.482 305.139 144.457 303.914 144.457C302.725 144.457 302.104 145.4 302.098 146.812ZM308.555 143.637L310.055 146.227L311.566 143.637H312.727L310.676 146.812L312.727 150H311.578L310.055 147.539L308.555 150H307.395L309.398 146.812L307.395 143.637H308.555Z" fill="#495057"/>
<path d="M501.968 49.8086V59H500.876V49.8086H501.968ZM503.707 59V52.1064H504.799V59H503.707ZM503.491 50.2402C503.485 49.834 503.834 49.5103 504.253 49.5166C504.672 49.5103 505.021 49.834 505.027 50.2402C505.021 50.6401 504.672 50.9639 504.253 50.9639C503.834 50.9639 503.485 50.6401 503.491 50.2402ZM507.63 54.8613V59H506.538V52.1064H507.592V53.1855H507.681C508.004 52.481 508.652 52.0176 509.699 52.0176C511.096 52.0176 512.029 52.8682 512.022 54.6201V59H510.931V54.6963C510.931 53.6299 510.347 52.9951 509.369 52.9951C508.366 52.9951 507.63 53.668 507.63 54.8613ZM516.669 59.1396C514.676 59.146 513.444 57.7241 513.444 55.6104C513.444 53.4902 514.695 52.0176 516.567 52.0176C518.015 52.0176 519.544 52.9062 519.538 55.458V55.915H514.536C514.593 57.375 515.444 58.1748 516.669 58.1748C517.494 58.1748 518.015 57.813 518.269 57.3877H519.437C519.113 58.4351 518.091 59.146 516.669 59.1396ZM514.542 54.9883H518.434C518.427 53.8394 517.704 52.9824 516.567 52.9824C515.374 52.9824 514.619 53.9219 514.542 54.9883ZM525.314 54.8613V59H524.223V49.8086H525.314V53.1855H525.403C525.727 52.4746 526.343 52.0176 527.435 52.0176C528.844 52.0176 529.783 52.8491 529.783 54.6201V59H528.691V54.6963C528.691 53.6108 528.095 52.9951 527.104 52.9951C526.076 52.9951 525.314 53.668 525.314 54.8613ZM534.43 59.1396C532.437 59.146 531.205 57.7241 531.205 55.6104C531.205 53.4902 532.456 52.0176 534.328 52.0176C535.775 52.0176 537.305 52.9062 537.299 55.458V55.915H532.297C532.354 57.375 533.205 58.1748 534.43 58.1748C535.255 58.1748 535.775 57.813 536.029 57.3877H537.197C536.874 58.4351 535.852 59.146 534.43 59.1396ZM532.303 54.9883H536.194C536.188 53.8394 535.464 52.9824 534.328 52.9824C533.135 52.9824 532.379 53.9219 532.303 54.9883ZM538.721 59V52.1064H539.812V59H538.721ZM538.505 50.2402C538.499 49.834 538.848 49.5103 539.267 49.5166C539.686 49.5103 540.035 49.834 540.041 50.2402C540.035 50.6401 539.686 50.9639 539.267 50.9639C538.848 50.9639 538.499 50.6401 538.505 50.2402ZM544.345 61.7295C542.675 61.7295 541.545 60.9995 541.425 59.7236H542.567C542.713 60.4282 543.367 60.7773 544.345 60.7773C545.525 60.7773 546.249 60.2632 546.249 59.127V57.7305H546.16C545.925 58.1113 545.487 58.8921 544.154 58.8984C542.479 58.8921 541.222 57.6289 541.222 55.458C541.222 53.3379 542.434 52.0176 544.167 52.0176C545.506 52.0176 545.938 52.8301 546.186 53.1982H546.274V52.1064H547.341V59.1904C547.334 60.9678 546.027 61.7295 544.345 61.7295ZM542.326 55.4961C542.326 56.9243 542.999 57.9209 544.307 57.9209C545.57 57.9209 546.268 57.0132 546.274 55.4961C546.268 54.0171 545.589 52.9951 544.307 52.9951C542.98 52.9951 542.326 54.106 542.326 55.4961ZM550.172 54.8613V59H549.08V49.8086H550.172V53.1855H550.261C550.584 52.4746 551.2 52.0176 552.292 52.0176C553.701 52.0176 554.641 52.8491 554.641 54.6201V59H553.549V54.6963C553.549 53.6108 552.952 52.9951 551.962 52.9951C550.934 52.9951 550.172 53.668 550.172 54.8613ZM559.401 52.1064V53.0205H557.954V57.0195C557.948 57.9019 558.392 58.0479 558.855 58.0479C559.052 58.0479 559.344 58.0288 559.503 58.0225V59.0381C559.332 59.0635 559.065 59.0889 558.741 59.0889C557.821 59.0889 556.856 58.5176 556.85 57.2988V53.0205H555.809V52.1064H556.85V50.4561H557.954V52.1064H559.401ZM572.478 48.7422V51.3447H574.179V52.1953H572.478V54.874H571.487V48.7422H572.478ZM563.68 54.1758C566.473 53.5093 568.136 52.0811 568.313 50.2529H564.188V49.4277H569.405C569.399 52.2588 567.393 54.1758 564.061 55.001L563.68 54.1758ZM564.911 59.876V55.458H565.838V56.8291H567.869V55.458H568.796V59.876H564.911ZM565.838 59.0762H567.869V57.6035H565.838V59.0762ZM568.859 59.2158C570.192 58.6318 570.853 57.375 570.865 56.2959V55.3438H571.817V56.2578C571.817 57.375 572.471 58.6382 573.785 59.2158L573.252 59.9775C572.306 59.5522 571.678 58.7715 571.341 57.8892C570.999 58.7715 570.357 59.5522 569.405 59.9775L568.859 59.2158ZM584.563 48.7422V60.0283H583.599V48.7422H584.563ZM575.029 53.6172C575.036 51.2178 575.988 49.7007 577.454 49.6943C578.825 49.7007 579.752 51.021 579.879 53.1475H581.339V48.9834H582.291V59.457H581.339V53.9727H579.885C579.79 56.1689 578.844 57.5464 577.454 57.54C575.988 57.5464 575.036 56.0166 575.029 53.6172ZM575.969 53.6172C575.956 55.4453 576.54 56.6006 577.454 56.5879C578.375 56.6006 578.958 55.4453 578.952 53.6172C578.958 51.7827 578.375 50.6338 577.454 50.6338C576.54 50.6338 575.956 51.7827 575.969 53.6172ZM599.036 48.7422V60.0283H598.084V54.1123H596.421V59.4443H595.507V48.9961H596.421V53.2871H598.084V48.7422H599.036ZM589.807 57.2354V50.126H594.034V50.9512H590.797V56.3848C592.352 56.3784 593.425 56.3213 594.682 56.0674L594.771 56.9053C593.412 57.1846 592.263 57.229 590.53 57.2354H589.807ZM609.446 48.7549V52.4746H611.147V53.3125H609.446V57.21H608.456V48.7549H609.446ZM600.648 50.9512V50.1387H603.518V48.7549H604.508V50.1387H607.377V50.9512H600.648ZM601.296 53.6807C601.29 52.3984 602.381 51.5732 604.013 51.5732C605.625 51.5732 606.717 52.3984 606.729 53.6807C606.717 54.9502 605.625 55.769 604.013 55.7627C602.381 55.769 601.29 54.9502 601.296 53.6807ZM602.248 53.6807C602.242 54.4741 602.946 54.9883 604.013 54.9756C605.066 54.9883 605.777 54.4741 605.79 53.6807C605.777 52.8745 605.066 52.354 604.013 52.3604C602.946 52.354 602.242 52.8745 602.248 53.6807ZM602.388 59.7871V56.5371H603.365V58.9492H609.967V59.7871H602.388ZM624.478 48.7422V55.4707H623.475V52.5127H621.202V51.6875H623.475V48.7422H624.478ZM615.172 54.5693C616.848 53.9663 618.041 52.4365 618.041 50.8242V50.4053H615.489V49.5674H621.57V50.4053H619.044V50.8115C619.044 52.2842 620.174 53.687 621.824 54.252L621.304 55.0518C620.041 54.5947 619.057 53.6426 618.568 52.481C618.085 53.8013 617.038 54.855 615.692 55.3691L615.172 54.5693ZM616.949 57.9209C616.943 56.5942 618.384 55.8198 620.732 55.8262C623.075 55.8198 624.516 56.5942 624.516 57.9209C624.516 59.2539 623.075 60.0156 620.732 60.0283C618.384 60.0156 616.943 59.2539 616.949 57.9209ZM617.939 57.9209C617.933 58.7397 619 59.2349 620.732 59.2285C622.459 59.2349 623.525 58.7397 623.525 57.9209C623.525 57.0957 622.459 56.6006 620.732 56.6006C619 56.6006 617.933 57.0957 617.939 57.9209ZM630.051 49.5674C631.822 49.5737 633.079 50.6528 633.085 52.2207C633.079 53.7949 631.822 54.8677 630.051 54.874C628.267 54.8677 626.998 53.7949 627.004 52.2207C626.998 50.6528 628.267 49.5737 630.051 49.5674ZM626.42 56.7148C628.502 56.7212 631.377 56.7021 633.872 56.334L633.948 57.0703C631.365 57.5527 628.591 57.5654 626.56 57.5654L626.42 56.7148ZM627.981 52.2207C627.975 53.2744 628.845 53.998 630.051 53.998C631.244 53.998 632.114 53.2744 632.107 52.2207C632.114 51.1733 631.244 50.4434 630.051 50.4434C628.845 50.4434 627.975 51.1733 627.981 52.2207ZM634.621 60.0537V48.7422H635.611V60.0537H634.621ZM650.173 48.7422V54.7979H649.183V48.7422H650.173ZM641.121 51.8906C641.115 50.3481 642.365 49.2881 644.079 49.3008C645.793 49.2881 647.031 50.3481 647.037 51.8906C647.031 53.4268 645.793 54.4868 644.079 54.4805C642.365 54.4868 641.115 53.4268 641.121 51.8906ZM642.099 51.8906C642.086 52.9189 642.917 53.6489 644.079 53.6553C645.228 53.6489 646.06 52.9189 646.06 51.8906C646.06 50.856 645.228 50.1323 644.079 50.1387C642.917 50.1323 642.086 50.856 642.099 51.8906ZM642.86 59.876V55.3691H643.851V56.7402H649.183V55.3691H650.173V59.876H642.86ZM643.851 59.0635H649.183V57.54H643.851V59.0635ZM661.396 48.7422V60.0283H660.405V48.7422H661.396ZM652.826 57.1211V49.8594H653.804V56.2578C655.53 56.2451 657.308 56.1118 659.199 55.7119L659.339 56.5625C657.333 56.9814 655.549 57.1211 653.74 57.1211H652.826ZM672.06 48.7422V53.2109H673.951V54.0488H672.06V60.0537H671.069V48.7422H672.06ZM663.82 57.2227V49.8467H669.089V50.6719H664.811V56.3848C666.854 56.3784 668.295 56.2896 669.978 55.9785L670.104 56.8418C668.333 57.1592 666.854 57.2227 664.709 57.2227H663.82ZM675.754 59.0762C675.31 59.0698 674.929 58.7017 674.941 58.251C674.929 57.8066 675.31 57.4385 675.754 57.4385C676.205 57.4385 676.573 57.8066 676.566 58.251C676.573 58.7017 676.205 59.0698 675.754 59.0762ZM690.43 48.7422V60.0283H689.427V48.7422H690.43ZM681.238 57.0957C684.292 55.6484 685.853 53.4839 686.075 50.7861H681.759V49.9736H687.091C687.078 53.2173 685.567 56.0928 681.784 57.9082L681.238 57.0957ZM694.695 49.1992V50.6338H700.281V49.1992H701.271V53.7061H697.971V54.9121H702.617V55.7373H692.334V54.9121H696.98V53.7061H693.705V49.1992H694.695ZM693.667 59.7871V56.6387H694.67V58.9492H701.475V59.7871H693.667ZM694.695 52.9062H700.281V51.4209H694.695V52.9062ZM710.488 49.8086V59H709.333V51.002H709.282L707.048 52.4873V51.332L709.333 49.8086H710.488ZM715.935 59.127C714.278 59.127 713.021 58.105 712.951 56.6895H714.056C714.138 57.5083 714.938 58.1177 715.935 58.124C717.128 58.1177 717.991 57.248 717.991 56.0928C717.991 54.8994 717.096 54.0171 715.858 54.0107C715.084 53.998 714.481 54.2393 714.145 54.8359H713.04L713.688 49.8086H718.664V50.8242H714.64L714.297 53.5156H714.386C714.798 53.1982 715.414 52.9824 716.062 52.9824C717.813 52.9824 719.102 54.2773 719.108 56.0674C719.102 57.8447 717.769 59.127 715.935 59.127ZM723.704 59.127C721.667 59.127 720.486 57.4131 720.492 54.4043C720.486 51.4209 721.679 49.6816 723.704 49.6816C725.723 49.6816 726.916 51.4209 726.916 54.4043C726.916 57.4131 725.742 59.127 723.704 59.127ZM721.597 54.4043C721.603 56.7847 722.371 58.1113 723.704 58.1113C725.031 58.1113 725.805 56.7847 725.799 54.4043C725.805 52.0239 725.024 50.6782 723.704 50.6719C722.384 50.6782 721.603 52.0239 721.597 54.4043ZM730.382 54.0742C729.195 54.0806 728.535 53.1792 728.541 51.8652C728.535 50.5703 729.22 49.6689 730.382 49.6689C731.588 49.6689 732.216 50.5703 732.223 51.8652C732.216 53.1792 731.562 54.0806 730.382 54.0742ZM729.442 59L735.765 49.8086H736.793L730.471 59H729.442ZM729.468 51.8652C729.468 52.7222 729.766 53.2871 730.382 53.2871C731.004 53.2871 731.296 52.7222 731.296 51.8652C731.296 51.021 731.023 50.4434 730.382 50.4561C729.779 50.4624 729.468 51.021 729.468 51.8652ZM734.152 56.9307C734.14 55.623 734.819 54.728 735.993 54.7217C737.18 54.728 737.821 55.623 737.821 56.9307C737.821 58.2383 737.167 59.1333 735.993 59.127C734.793 59.1333 734.14 58.2383 734.152 56.9307ZM735.066 56.9307C735.073 57.7812 735.371 58.3462 735.993 58.3398C736.609 58.3462 736.895 57.7812 736.895 56.9307C736.895 56.0737 736.628 55.4961 735.993 55.5088C735.377 55.5151 735.073 56.0737 735.066 56.9307ZM746.289 51.7764C746.289 53.7632 747.603 55.8135 749.209 56.6006L748.6 57.4004C747.355 56.7529 746.314 55.4136 745.813 53.8457C745.312 55.5088 744.245 56.937 742.976 57.6162L742.341 56.8164C743.991 56.0039 745.299 53.8394 745.312 51.7764V49.7197H746.289V51.7764ZM750.25 60.0283V48.7422H751.24V53.3252H753.132V54.1885H751.24V60.0283H750.25ZM764.024 54.3281V55.1533H753.741V54.3281H756.293V52.7349C755.392 52.3857 754.884 51.8145 754.884 51.0527C754.884 49.7261 756.407 48.9644 758.883 48.958C761.339 48.9644 762.863 49.7261 762.869 51.0527C762.863 51.8081 762.361 52.3794 761.473 52.7349V54.3281H764.024ZM754.985 58.0098C754.979 56.7212 756.433 56.0103 758.883 56.0166C761.301 56.0103 762.755 56.7212 762.768 58.0098C762.755 59.2983 761.301 60.0029 758.883 60.0029C756.433 60.0029 754.979 59.2983 754.985 58.0098ZM755.912 51.0527C755.906 51.8779 757.036 52.354 758.883 52.3604C760.711 52.354 761.847 51.8779 761.854 51.0527C761.847 50.2402 760.711 49.7451 758.883 49.7451C757.036 49.7451 755.906 50.2402 755.912 51.0527ZM756.001 58.0098C755.988 58.7778 757.074 59.2349 758.883 59.2285C760.673 59.2349 761.758 58.7778 761.765 58.0098C761.758 57.2417 760.673 56.791 758.883 56.7783C757.074 56.791 755.988 57.2417 756.001 58.0098ZM757.283 54.3281H760.482V53.0015C760.006 53.0903 759.473 53.1348 758.883 53.1348C758.292 53.1348 757.759 53.0903 757.283 53.0078V54.3281ZM770.118 48.9453C772.625 48.9453 774.098 49.6372 774.104 50.8877C774.098 52.1699 772.625 52.8618 770.118 52.8682C767.598 52.8618 766.119 52.1699 766.119 50.8877C766.119 49.6372 767.598 48.9453 770.118 48.9453ZM764.977 54.4424V53.6299H775.26V54.4424H764.977ZM766.221 56.1816V55.4199H773.939V57.9463H767.236V59.1143H774.282V59.9014H766.246V57.21H772.962V56.1816H766.221ZM767.16 50.8877C767.147 51.6748 768.246 52.1064 770.118 52.1064C771.991 52.1064 773.083 51.6748 773.089 50.8877C773.083 50.145 771.991 49.7007 770.118 49.6943C768.246 49.7007 767.147 50.145 767.16 50.8877ZM788.818 48.7549V57.2861H787.803V55.6992H785.314V54.8867H787.803V48.7549H788.818ZM779.398 53.2236C780.852 53.2173 782.674 53.2046 784.464 53.084C784.686 51.8398 784.724 50.9004 784.73 50.2529H780.414V49.4404H785.721V49.8848C785.727 50.5068 785.727 51.5605 785.486 53.0015C785.924 52.9634 786.355 52.9126 786.774 52.8555L786.851 53.5791C785.797 53.7568 784.692 53.8647 783.613 53.9346V56.5371H782.623V53.9854C781.512 54.0361 780.452 54.0488 779.538 54.0488L779.398 53.2236ZM781.087 59.7871V56.334H782.09V58.9492H789.098V59.7871H781.087ZM794.531 50.8877C794.538 52.3667 795.642 53.687 797.299 54.2266L796.829 55.0137C795.528 54.582 794.544 53.687 794.055 52.5508C793.573 53.8457 792.532 54.855 791.18 55.3438L790.672 54.5439C792.36 53.9727 793.541 52.519 793.554 50.8877V50.4053H790.977V49.5801H797.07V50.4053H794.531V50.8877ZM792.17 57.9209C792.176 56.6196 793.592 55.8643 795.915 55.8643C798.232 55.8643 799.635 56.6196 799.635 57.9209C799.635 59.2412 798.232 60.0029 795.915 60.0029C793.592 60.0029 792.176 59.2412 792.17 57.9209ZM793.173 57.9209C793.16 58.7334 794.214 59.2095 795.915 59.2031C797.623 59.2095 798.664 58.7334 798.67 57.9209C798.664 57.1338 797.623 56.6641 795.915 56.6641C794.214 56.6641 793.16 57.1338 793.173 57.9209ZM798.543 55.5596V48.7422H799.533V51.624H801.234V52.4619H799.533V55.5596H798.543ZM810.769 48.7422V51.6367H812.47V52.4873H810.769V55.3057H809.778V48.7422H810.769ZM801.971 50.7354V49.9102H804.84V48.6406H805.83V49.9102H808.699V50.7354H801.971ZM802.618 53.2363C802.612 52.0303 803.697 51.2622 805.335 51.2559C806.954 51.2622 808.039 52.0303 808.052 53.2363C808.039 54.4424 806.954 55.2231 805.335 55.2168C803.697 55.2231 802.612 54.4424 802.618 53.2363ZM803.57 53.2363C803.564 53.9727 804.269 54.4551 805.335 54.4551C806.389 54.4551 807.1 53.9727 807.112 53.2363C807.1 52.5063 806.389 52.0176 805.335 52.0303C804.269 52.0176 803.564 52.5063 803.57 53.2363ZM803.634 59.876V55.8008H804.624V57.0068H809.778V55.8008H810.769V59.876H803.634ZM804.624 59.0762H809.778V57.7939H804.624V59.0762ZM822.486 48.7422V60.0283H821.496V48.7422H822.486ZM813.917 57.1211V49.8594H814.895V56.2578C816.621 56.2451 818.398 56.1118 820.29 55.7119L820.43 56.5625C818.424 56.9814 816.64 57.1211 814.831 57.1211H813.917ZM833.15 48.7422V53.2109H835.042V54.0488H833.15V60.0537H832.16V48.7422H833.15ZM824.911 57.2227V49.8467H830.18V50.6719H825.901V56.3848C827.945 56.3784 829.386 56.2896 831.068 55.9785L831.195 56.8418C829.424 57.1592 827.945 57.2227 825.8 57.2227H824.911ZM836.845 59.0762C836.4 59.0698 836.02 58.7017 836.032 58.251C836.02 57.8066 836.4 57.4385 836.845 57.4385C837.295 57.4385 837.664 57.8066 837.657 58.251C837.664 58.7017 837.295 59.0698 836.845 59.0762ZM510.791 77.7432V78.5811H500.457V77.7432H505.104V74.9883H501.676V69.6943H509.509V74.9883H506.081V77.7432H510.791ZM502.653 74.1885H508.544V70.4941H502.653V74.1885ZM520.427 68.7422V73.1855H522.318V74.0488H520.427V80.0283H519.437V68.7422H520.427ZM512.162 77.3242V69.707H513.152V72.6904H516.453V69.707H517.443V77.3242H512.162ZM513.152 76.4863H516.453V73.4902H513.152V76.4863ZM526.127 69.1611C527.815 69.1675 529.041 70.1958 529.047 71.6621C529.041 73.1348 527.815 74.1504 526.127 74.1504C524.419 74.1504 523.188 73.1348 523.194 71.6621C523.188 70.1958 524.419 69.1675 526.127 69.1611ZM524.172 71.6621C524.159 72.6523 524.991 73.3379 526.127 73.3379C527.244 73.3379 528.082 72.6523 528.082 71.6621C528.082 70.6846 527.244 69.9927 526.127 69.999C524.991 69.9927 524.159 70.6846 524.172 71.6621ZM524.908 75.8896V75.0898H532.246V77.8066H525.911V79.0762H532.652V79.876H524.934V77.0576H531.256V75.8896H524.908ZM531.256 74.5439V68.7422H532.246V74.5439H531.256ZM543.837 68.7422V80.0283H542.872V68.7422H543.837ZM534.303 73.6172C534.309 71.2178 535.261 69.7007 536.728 69.6943C538.099 69.7007 539.025 71.021 539.152 73.1475H540.612V68.9834H541.564V79.457H540.612V73.9727H539.159C539.063 76.1689 538.118 77.5464 536.728 77.54C535.261 77.5464 534.309 76.0166 534.303 73.6172ZM535.242 73.6172C535.229 75.4453 535.813 76.6006 536.728 76.5879C537.648 76.6006 538.232 75.4453 538.226 73.6172C538.232 71.7827 537.648 70.6338 536.728 70.6338C535.813 70.6338 535.229 71.7827 535.242 73.6172ZM549.372 71.7764C549.366 73.8203 550.68 75.877 552.317 76.626L551.721 77.4385C550.438 76.7783 549.378 75.4326 548.877 73.8267C548.375 75.5151 547.315 76.9624 546.033 77.6416L545.386 76.8418C547.042 76.0293 548.35 73.8584 548.356 71.7764V69.7197H549.372V71.7764ZM551.086 73.4141V72.6016H553.765V68.7422H554.755V80.0537H553.765V73.4141H551.086ZM565.749 74.0361V74.8486H562.258V77.7686H566.968V78.6064H556.634V77.7686H561.28V74.8486H557.954V69.6689H565.635V70.4814H558.957V74.0361H565.749ZM571.538 79L571.525 78.1621L574.661 74.8613C575.747 73.7061 576.267 73.084 576.273 72.2334C576.267 71.2876 575.48 70.6782 574.445 70.6719C573.347 70.6782 572.662 71.3701 572.655 72.3984H571.576C571.563 70.7734 572.82 69.6816 574.483 69.6816C576.153 69.6816 577.333 70.8052 577.34 72.2334C577.333 73.2617 576.857 74.0615 575.232 75.7373L573.125 77.9082V77.9844H577.505V79H571.538ZM589.045 73.4648V74.2773H584.386V75.4199H587.725V77.9844H581.021V79.1143H588.067V79.9014H580.031V77.248H586.747V76.1816H580.006V75.4199H583.408V74.2773H578.762V73.4648H589.045ZM579.32 72.1445C581.294 71.9668 583.173 71.1099 583.332 69.9355H579.701V69.1484H588.131V69.9355H584.481C584.627 71.1035 586.512 71.9668 588.499 72.1445L588.169 72.9062C586.322 72.7158 584.583 71.9985 583.903 70.856C583.23 71.9985 581.498 72.7158 579.65 72.9062L579.32 72.1445ZM600.331 77.7939V78.6318H589.997V77.7939H594.644V75.6611H591.292V72.1826H598.046V70.4053H591.267V69.5801H599.023V72.9951H592.282V74.8359H599.29V75.6611H595.621V77.7939H600.331ZM607.644 69.415V70.2275H605.79V73.2998C606.361 73.2808 607.047 73.2236 607.796 73.0459L607.897 73.8584C606.831 74.0806 605.987 74.0996 605.295 74.0869H604.812V69.415H607.644ZM606.374 75.9404V75.1406H613.953V77.832H607.402V79.0762H614.385V79.876H606.399V77.083H612.976V75.9404H606.374ZM608.291 74.0869V69.415H611.439V70.2275H609.294V73.3062C610.259 73.2871 611.008 73.23 611.884 73.0332L611.973 73.833C610.925 74.0806 610.087 74.0996 608.862 74.0869H608.291ZM610.83 72.0049V71.2178H612.976V68.7422H613.953V74.582H612.976V72.0049H610.83ZM618.765 69.6182C620.301 69.6245 621.412 70.9448 621.564 73.0586H624.097V68.7422H625.087V80.0537H624.097V73.8838H621.577C621.469 76.0991 620.339 77.4829 618.765 77.4766C617.095 77.4829 615.927 75.9595 615.934 73.5537C615.927 71.1543 617.095 69.6245 618.765 69.6182ZM616.886 73.5537C616.892 75.3882 617.654 76.5942 618.765 76.5879C619.869 76.5942 620.644 75.3882 620.644 73.5537C620.644 71.7192 619.869 70.5132 618.765 70.5068C617.654 70.5132 616.892 71.7192 616.886 73.5537ZM631.003 72.208C631.009 74.125 632.399 76.0737 634.062 76.791L633.504 77.5781C632.184 76.9814 631.047 75.6802 630.521 74.1187C629.994 75.7754 628.851 77.21 627.562 77.8574L626.966 77.0703C628.584 76.2959 629.994 74.1631 630 72.208V70.7354H627.334V69.9102H633.694V70.7354H631.003V72.208ZM635.269 80.0283V68.7422H636.271V80.0283H635.269ZM642.238 72.208C642.245 74.125 643.635 76.0737 645.298 76.791L644.739 77.5781C643.419 76.9814 642.283 75.6802 641.756 74.1187C641.229 75.7754 640.086 77.21 638.798 77.8574L638.201 77.0703C639.82 76.2959 641.229 74.1631 641.235 72.208V70.7354H638.569V69.9102H644.93V70.7354H642.238V72.208ZM646.504 80.0283V68.7422H647.507V80.0283H646.504ZM655.848 69.3896C657.536 69.396 658.78 70.4688 658.78 71.9922C658.78 73.5347 657.536 74.6011 655.848 74.6074C654.166 74.6011 652.909 73.5347 652.915 71.9922C652.909 70.4688 654.166 69.396 655.848 69.3896ZM653.893 71.9922C653.886 73.0269 654.737 73.7822 655.848 73.7822C656.965 73.7822 657.809 73.0269 657.803 71.9922C657.809 70.9766 656.965 70.2275 655.848 70.2275C654.737 70.2275 653.886 70.9766 653.893 71.9922ZM653.905 79.7236V75.6104H654.87V78.9048C655.524 78.8794 656.394 78.7842 657.193 78.5176L657.346 79.3174C656.248 79.6792 655.175 79.73 654.438 79.7236H653.905ZM656.952 76.4355V75.6611H659.326V74.6582H660.304V75.6611H662.652V76.4355H656.952ZM657.701 78.416C657.695 77.4385 658.552 76.8164 659.796 76.8164C661.034 76.8164 661.903 77.4385 661.916 78.416C661.903 79.3936 661.034 80.0029 659.796 80.0029C658.552 80.0029 657.695 79.3936 657.701 78.416ZM658.59 78.416C658.59 78.9492 659.091 79.2856 659.796 79.292C660.5 79.2856 661.002 78.9492 661.002 78.416C661.002 77.8955 660.5 77.5464 659.796 77.54C659.091 77.5464 658.59 77.8955 658.59 78.416ZM660.532 74.3916V68.7422H661.522V71.2939H663.224V72.1191H661.522V74.3916H660.532ZM673.062 72.1699V72.9697H665.331V69.1611H666.321V72.1699H673.062ZM663.922 75.3184V74.5059H674.256V75.3184H663.922ZM665.268 79.749V76.4736H666.258V78.9238H673.126V79.749H665.268ZM677.023 78.1494L676.033 81.6025H675.094L675.792 78.1494H677.023ZM685.415 69.8086V79H684.26V71.002H684.209L681.975 72.4873V71.332L684.26 69.8086H685.415ZM697.742 73.4648V74.2773H693.083V75.4199H696.422V77.9844H689.719V79.1143H696.765V79.9014H688.729V77.248H695.444V76.1816H688.703V75.4199H692.105V74.2773H687.459V73.4648H697.742ZM688.018 72.1445C689.992 71.9668 691.871 71.1099 692.029 69.9355H688.398V69.1484H696.828V69.9355H693.178C693.324 71.1035 695.209 71.9668 697.196 72.1445L696.866 72.9062C695.019 72.7158 693.28 71.9985 692.601 70.856C691.928 71.9985 690.195 72.7158 688.348 72.9062L688.018 72.1445ZM705.067 69.4277C706.02 69.4214 706.826 69.7832 707.353 70.3799H710.311V68.7422H711.313V75.4326H710.311V73.8203H707.353C706.832 74.417 706.02 74.7788 705.067 74.7725C703.379 74.7788 702.128 73.6743 702.135 72.1064C702.128 70.5259 703.379 69.4214 705.067 69.4277ZM703.087 72.1064C703.087 73.1538 703.912 73.9282 705.067 73.9219C706.185 73.9282 707.022 73.1538 707.022 72.1064C707.022 71.0337 706.185 70.2847 705.067 70.291C703.912 70.2847 703.087 71.0337 703.087 72.1064ZM703.785 77.8447C703.779 76.4863 705.226 75.6992 707.568 75.6992C709.904 75.6992 711.352 76.4863 711.352 77.8447C711.352 79.2158 709.904 80.0029 707.568 80.0029C705.226 80.0029 703.779 79.2158 703.785 77.8447ZM704.763 77.8447C704.756 78.6953 705.835 79.2095 707.568 79.2031C709.301 79.2095 710.38 78.6953 710.374 77.8447C710.38 76.9878 709.301 76.48 707.568 76.4736C705.835 76.48 704.756 76.9878 704.763 77.8447ZM707.829 71.1924C707.93 71.4717 707.987 71.7764 707.987 72.1064C707.987 72.4238 707.93 72.7222 707.835 72.9951H710.311V71.1924H707.829ZM722.549 76.0166V80.0283H721.546V76.8164H714.957V76.0166H722.549ZM713.37 72.0811C713.364 70.5068 714.614 69.3833 716.303 69.3896C717.28 69.3833 718.112 69.7705 718.632 70.4053H721.546V68.7422H722.549V75.3945H721.546V73.7695H718.639C718.118 74.4106 717.287 74.7915 716.303 74.7852C714.614 74.7979 713.364 73.687 713.37 72.0811ZM714.322 72.0811C714.322 73.1792 715.147 73.9473 716.303 73.9473C717.414 73.9473 718.258 73.1792 718.258 72.0811C718.258 71.021 717.414 70.2402 716.303 70.2402C715.147 70.2402 714.322 71.021 714.322 72.0811ZM719.089 72.9443H721.546V71.2305H719.083C719.172 71.4971 719.223 71.7764 719.223 72.0811C719.223 72.3857 719.172 72.6777 719.089 72.9443ZM734.102 68.7422V80.0283H733.137V68.7422H734.102ZM724.567 73.6172C724.574 71.2178 725.526 69.7007 726.992 69.6943C728.363 69.7007 729.29 71.021 729.417 73.1475H730.877V68.9834H731.829V79.457H730.877V73.9727H729.423C729.328 76.1689 728.382 77.5464 726.992 77.54C725.526 77.5464 724.574 76.0166 724.567 73.6172ZM725.507 73.6172C725.494 75.4453 726.078 76.6006 726.992 76.5879C727.913 76.6006 728.497 75.4453 728.49 73.6172C728.497 71.7827 727.913 70.6338 726.992 70.6338C726.078 70.6338 725.494 71.7827 725.507 73.6172ZM748.574 68.7422V80.0283H747.622V74.1123H745.959V79.4443H745.045V68.9961H745.959V73.2871H747.622V68.7422H748.574ZM739.345 77.2354V70.126H743.572V70.9512H740.335V76.3848C741.89 76.3784 742.963 76.3213 744.22 76.0674L744.309 76.9053C742.95 77.1846 741.801 77.229 740.068 77.2354H739.345ZM755.798 70.6973V71.5098H750.136V70.6973H752.484V69.085H753.475V70.6973H755.798ZM750.542 74.8359C750.542 73.3379 751.564 72.2778 752.967 72.2715C754.389 72.2778 755.404 73.3379 755.417 74.8359C755.404 76.353 754.389 77.4194 752.967 77.4258C751.564 77.4194 750.542 76.353 750.542 74.8359ZM751.431 74.8359C751.431 75.8389 752.072 76.5562 752.967 76.5498C753.868 76.5562 754.528 75.8389 754.528 74.8359C754.528 73.8457 753.868 73.1221 752.967 73.1094C752.072 73.1221 751.431 73.8457 751.431 74.8359ZM756.382 79.4697V69.0215H757.321V73.5029H758.819V68.7422H759.771V80.0283H758.819V74.3281H757.321V79.4697H756.382ZM765.37 71.7764C765.364 73.8203 766.678 75.877 768.315 76.626L767.719 77.4385C766.437 76.7783 765.376 75.4326 764.875 73.8267C764.374 75.5151 763.313 76.9624 762.031 77.6416L761.384 76.8418C763.041 76.0293 764.348 73.8584 764.354 71.7764V69.7197H765.37V71.7764ZM767.084 73.4141V72.6016H769.763V68.7422H770.753V80.0537H769.763V73.4141H767.084ZM781.76 72.1699V72.9697H774.028V69.1611H775.019V72.1699H781.76ZM772.619 75.3184V74.5059H782.953V75.3184H772.619ZM773.965 79.749V76.4736H774.955V78.9238H781.823V79.749H773.965ZM790.786 69.8086V79H789.631V71.002H789.58L787.346 72.4873V71.332L789.631 69.8086H790.786ZM796.245 79.127C794.208 79.127 793.027 77.4131 793.033 74.4043C793.027 71.4209 794.22 69.6816 796.245 69.6816C798.264 69.6816 799.457 71.4209 799.457 74.4043C799.457 77.4131 798.283 79.127 796.245 79.127ZM794.138 74.4043C794.144 76.7847 794.912 78.1113 796.245 78.1113C797.572 78.1113 798.346 76.7847 798.34 74.4043C798.346 72.0239 797.565 70.6782 796.245 70.6719C794.925 70.6782 794.144 72.0239 794.138 74.4043ZM803.989 79.127C801.952 79.127 800.771 77.4131 800.777 74.4043C800.771 71.4209 801.964 69.6816 803.989 69.6816C806.008 69.6816 807.201 71.4209 807.201 74.4043C807.201 77.4131 806.027 79.127 803.989 79.127ZM801.882 74.4043C801.888 76.7847 802.656 78.1113 803.989 78.1113C805.316 78.1113 806.09 76.7847 806.084 74.4043C806.09 72.0239 805.31 70.6782 803.989 70.6719C802.669 70.6782 801.888 72.0239 801.882 74.4043ZM810.667 74.0742C809.48 74.0806 808.82 73.1792 808.826 71.8652C808.82 70.5703 809.505 69.6689 810.667 69.6689C811.873 69.6689 812.501 70.5703 812.508 71.8652C812.501 73.1792 811.848 74.0806 810.667 74.0742ZM809.728 79L816.05 69.8086H817.078L810.756 79H809.728ZM809.753 71.8652C809.753 72.7222 810.051 73.2871 810.667 73.2871C811.289 73.2871 811.581 72.7222 811.581 71.8652C811.581 71.021 811.308 70.4434 810.667 70.4561C810.064 70.4624 809.753 71.021 809.753 71.8652ZM814.438 76.9307C814.425 75.623 815.104 74.728 816.278 74.7217C817.465 74.728 818.106 75.623 818.106 76.9307C818.106 78.2383 817.453 79.1333 816.278 79.127C815.079 79.1333 814.425 78.2383 814.438 76.9307ZM815.352 76.9307C815.358 77.7812 815.656 78.3462 816.278 78.3398C816.894 78.3462 817.18 77.7812 817.18 76.9307C817.18 76.0737 816.913 75.4961 816.278 75.5088C815.663 75.5151 815.358 76.0737 815.352 76.9307ZM829.85 73.9854V74.7725H819.516V73.9854H829.85ZM820.76 76.4229V75.6738H828.555V78.0732H821.775V79.1523H828.923V79.876H820.772V77.3877H827.564V76.4229H820.76ZM820.823 69.8086V69.085H828.517V71.4209H821.852V72.4111H828.72V73.1348H820.861V70.7354H827.514V69.8086H820.823ZM837.949 70.8242C837.949 72.2905 839.079 73.6934 840.729 74.2646L840.209 75.0518C838.939 74.5947 837.956 73.6489 837.473 72.4873C836.984 73.7822 835.937 74.8232 834.598 75.3184L834.077 74.5312C835.74 73.9346 836.946 72.4302 836.946 70.8369V70.3418H834.395V69.5293H840.476V70.3418H837.949V70.8242ZM835.791 76.9307V76.1055H843.383V80.0283H842.38V76.9307H835.791ZM840.12 72.5381V71.7002H842.38V68.7422H843.383V75.5088H842.38V72.5381H840.12ZM855.545 74.3281V75.1533H845.262V74.3281H847.813V72.7349C846.912 72.3857 846.404 71.8145 846.404 71.0527C846.404 69.7261 847.928 68.9644 850.403 68.958C852.86 68.9644 854.383 69.7261 854.39 71.0527C854.383 71.8081 853.882 72.3794 852.993 72.7349V74.3281H855.545ZM846.506 78.0098C846.5 76.7212 847.953 76.0103 850.403 76.0166C852.822 76.0103 854.275 76.7212 854.288 78.0098C854.275 79.2983 852.822 80.0029 850.403 80.0029C847.953 80.0029 846.5 79.2983 846.506 78.0098ZM847.433 71.0527C847.426 71.8779 848.556 72.354 850.403 72.3604C852.231 72.354 853.368 71.8779 853.374 71.0527C853.368 70.2402 852.231 69.7451 850.403 69.7451C848.556 69.7451 847.426 70.2402 847.433 71.0527ZM847.521 78.0098C847.509 78.7778 848.594 79.2349 850.403 79.2285C852.193 79.2349 853.279 78.7778 853.285 78.0098C853.279 77.2417 852.193 76.791 850.403 76.7783C848.594 76.791 847.509 77.2417 847.521 78.0098ZM848.804 74.3281H852.003V73.0015C851.527 73.0903 850.994 73.1348 850.403 73.1348C849.813 73.1348 849.28 73.0903 848.804 73.0078V74.3281ZM865.32 68.7422V71.6367H867.021V72.4873H865.32V75.3057H864.33V68.7422H865.32ZM856.522 70.7354V69.9102H859.392V68.6406H860.382V69.9102H863.251V70.7354H856.522ZM857.17 73.2363C857.164 72.0303 858.249 71.2622 859.887 71.2559C861.505 71.2622 862.591 72.0303 862.604 73.2363C862.591 74.4424 861.505 75.2231 859.887 75.2168C858.249 75.2231 857.164 74.4424 857.17 73.2363ZM858.122 73.2363C858.116 73.9727 858.82 74.4551 859.887 74.4551C860.94 74.4551 861.651 73.9727 861.664 73.2363C861.651 72.5063 860.94 72.0176 859.887 72.0303C858.82 72.0176 858.116 72.5063 858.122 73.2363ZM858.186 79.876V75.8008H859.176V77.0068H864.33V75.8008H865.32V79.876H858.186ZM859.176 79.0762H864.33V77.7939H859.176V79.0762ZM877.038 68.7422V80.0283H876.048V68.7422H877.038ZM868.469 77.1211V69.8594H869.446V76.2578C871.173 76.2451 872.95 76.1118 874.842 75.7119L874.981 76.5625C872.976 76.9814 871.192 77.1211 869.383 77.1211H868.469ZM887.702 68.7422V73.2109H889.594V74.0488H887.702V80.0537H886.712V68.7422H887.702ZM879.463 77.2227V69.8467H884.731V70.6719H880.453V76.3848C882.497 76.3784 883.938 76.2896 885.62 75.9785L885.747 76.8418C883.976 77.1592 882.497 77.2227 880.352 77.2227H879.463ZM891.396 79.0762C890.952 79.0698 890.571 78.7017 890.584 78.251C890.571 77.8066 890.952 77.4385 891.396 77.4385C891.847 77.4385 892.215 77.8066 892.209 78.251C892.215 78.7017 891.847 79.0698 891.396 79.0762ZM500.863 99L500.851 98.1621L503.986 94.8613C505.072 93.7061 505.592 93.084 505.599 92.2334C505.592 91.2876 504.805 90.6782 503.771 90.6719C502.672 90.6782 501.987 91.3701 501.98 92.3984H500.901C500.889 90.7734 502.146 89.6816 503.809 89.6816C505.478 89.6816 506.659 90.8052 506.665 92.2334C506.659 93.2617 506.183 94.0615 504.558 95.7373L502.45 97.9082V97.9844H506.83V99H500.863ZM508.861 95.2295C509.274 94.7534 509.775 94.5122 510.334 94.5059C511.299 94.5122 512.175 95.2358 513.102 95.2422C513.673 95.2358 514.168 94.9692 514.549 94.4424V95.4961C514.13 95.9722 513.635 96.2197 513.076 96.2197C512.111 96.2197 511.229 95.4897 510.296 95.4834C509.737 95.4897 509.249 95.7563 508.861 96.2832V95.2295ZM519.678 99.127C517.85 99.127 516.536 98.1494 516.479 96.6895H517.634C517.697 97.5654 518.567 98.1113 519.665 98.1113C520.877 98.1113 521.753 97.4575 521.76 96.499C521.753 95.4961 520.954 94.7915 519.525 94.7852H518.776V93.7822H519.525C520.643 93.7822 521.423 93.1538 521.417 92.208C521.423 91.2876 520.75 90.6782 519.703 90.6719C518.719 90.6782 517.824 91.2178 517.773 92.1191H516.669C516.726 90.6592 518.084 89.6816 519.716 89.6816C521.468 89.6816 522.534 90.8306 522.521 92.1445C522.534 93.1919 521.925 93.9536 520.96 94.2266V94.29C522.16 94.4741 522.883 95.3311 522.877 96.499C522.883 98.0098 521.512 99.127 519.678 99.127ZM534.404 93.4648V94.2773H529.745V95.4199H533.084V97.9844H526.381V99.1143H533.427V99.9014H525.391V97.248H532.106V96.1816H525.365V95.4199H528.768V94.2773H524.121V93.4648H534.404ZM524.68 92.1445C526.654 91.9668 528.533 91.1099 528.691 89.9355H525.061V89.1484H533.49V89.9355H529.84C529.986 91.1035 531.872 91.9668 533.858 92.1445L533.528 92.9062C531.681 92.7158 529.942 91.9985 529.263 90.856C528.59 91.9985 526.857 92.7158 525.01 92.9062L524.68 92.1445ZM539.051 89.5674C540.822 89.5737 542.079 90.6528 542.085 92.2207C542.079 93.7949 540.822 94.8677 539.051 94.874C537.267 94.8677 535.998 93.7949 536.004 92.2207C535.998 90.6528 537.267 89.5737 539.051 89.5674ZM535.42 96.7148C537.502 96.7212 540.377 96.7021 542.872 96.334L542.948 97.0703C540.365 97.5527 537.591 97.5654 535.56 97.5654L535.42 96.7148ZM536.981 92.2207C536.975 93.2744 537.845 93.998 539.051 93.998C540.244 93.998 541.114 93.2744 541.107 92.2207C541.114 91.1733 540.244 90.4434 539.051 90.4434C537.845 90.4434 536.975 91.1733 536.981 92.2207ZM543.621 100.054V88.7422H544.611V100.054H543.621ZM560.176 94.5186V95.3438H555.58V97.6543H554.59V95.3438H549.842V94.5186H560.176ZM551.162 99.7871V96.5371H552.165V98.9492H559.021V99.7871H551.162ZM551.188 93.2236V89.3008H558.83V93.2236H551.188ZM552.165 92.4238H557.84V90.0879H552.165V92.4238ZM569.913 88.7422V92.1064H571.627V92.9443H569.913V96.918H568.923V88.7422H569.913ZM561.623 94.9121V89.7197H566.65V90.5576H562.613V94.0742C564.879 94.0806 566.168 94.0107 567.679 93.7061L567.806 94.5312C566.219 94.8359 564.873 94.9121 562.499 94.9121H561.623ZM562.854 99.7871V96.0928H563.832V98.9492H570.434V99.7871H562.854ZM581.999 88.7422V100.028H581.034V88.7422H581.999ZM572.465 93.6172C572.471 91.2178 573.423 89.7007 574.89 89.6943C576.261 89.7007 577.188 91.021 577.314 93.1475H578.774V88.9834H579.727V99.457H578.774V93.9727H577.321C577.226 96.1689 576.28 97.5464 574.89 97.54C573.423 97.5464 572.471 96.0166 572.465 93.6172ZM573.404 93.6172C573.392 95.4453 573.976 96.6006 574.89 96.5879C575.81 96.6006 576.394 95.4453 576.388 93.6172C576.394 91.7827 575.81 90.6338 574.89 90.6338C573.976 90.6338 573.392 91.7827 573.404 93.6172ZM587.534 91.7764C587.528 93.8203 588.842 95.877 590.479 96.626L589.883 97.4385C588.601 96.7783 587.541 95.4326 587.039 93.8267C586.538 95.5151 585.478 96.9624 584.195 97.6416L583.548 96.8418C585.205 96.0293 586.512 93.8584 586.519 91.7764V89.7197H587.534V91.7764ZM589.248 93.4141V92.6016H591.927V88.7422H592.917V100.054H591.927V93.4141H589.248ZM603.924 92.1699V92.9697H596.192V89.1611H597.183V92.1699H603.924ZM594.783 95.3184V94.5059H605.117V95.3184H594.783ZM596.129 99.749V96.4736H597.119V98.9238H603.987V99.749H596.129ZM612.95 89.8086V99H611.795V91.002H611.744L609.51 92.4873V91.332L611.795 89.8086H612.95ZM618.396 99.127C616.74 99.127 615.483 98.105 615.413 96.6895H616.518C616.6 97.5083 617.4 98.1177 618.396 98.124C619.59 98.1177 620.453 97.248 620.453 96.0928C620.453 94.8994 619.558 94.0171 618.32 94.0107C617.546 93.998 616.943 94.2393 616.606 94.8359H615.502L616.149 89.8086H621.126V90.8242H617.102L616.759 93.5156H616.848C617.26 93.1982 617.876 92.9824 618.523 92.9824C620.275 92.9824 621.564 94.2773 621.57 96.0674C621.564 97.8447 620.231 99.127 618.396 99.127ZM626.166 99.127C624.128 99.127 622.948 97.4131 622.954 94.4043C622.948 91.4209 624.141 89.6816 626.166 89.6816C628.185 89.6816 629.378 91.4209 629.378 94.4043C629.378 97.4131 628.204 99.127 626.166 99.127ZM624.059 94.4043C624.065 96.7847 624.833 98.1113 626.166 98.1113C627.493 98.1113 628.267 96.7847 628.261 94.4043C628.267 92.0239 627.486 90.6782 626.166 90.6719C624.846 90.6782 624.065 92.0239 624.059 94.4043ZM632.844 94.0742C631.657 94.0806 630.997 93.1792 631.003 91.8652C630.997 90.5703 631.682 89.6689 632.844 89.6689C634.05 89.6689 634.678 90.5703 634.685 91.8652C634.678 93.1792 634.024 94.0806 632.844 94.0742ZM631.904 99L638.227 89.8086H639.255L632.933 99H631.904ZM631.93 91.8652C631.93 92.7222 632.228 93.2871 632.844 93.2871C633.466 93.2871 633.758 92.7222 633.758 91.8652C633.758 91.021 633.485 90.4434 632.844 90.4561C632.241 90.4624 631.93 91.021 631.93 91.8652ZM636.614 96.9307C636.602 95.623 637.281 94.728 638.455 94.7217C639.642 94.728 640.283 95.623 640.283 96.9307C640.283 98.2383 639.629 99.1333 638.455 99.127C637.255 99.1333 636.602 98.2383 636.614 96.9307ZM637.528 96.9307C637.535 97.7812 637.833 98.3462 638.455 98.3398C639.071 98.3462 639.356 97.7812 639.356 96.9307C639.356 96.0737 639.09 95.4961 638.455 95.5088C637.839 95.5151 637.535 96.0737 637.528 96.9307ZM643.559 98.1494L642.568 101.603H641.629L642.327 98.1494H643.559ZM651.874 99.127C650.046 99.127 648.732 98.1494 648.675 96.6895H649.83C649.894 97.5654 650.763 98.1113 651.861 98.1113C653.074 98.1113 653.95 97.4575 653.956 96.499C653.95 95.4961 653.15 94.7915 651.722 94.7852H650.973V93.7822H651.722C652.839 93.7822 653.62 93.1538 653.613 92.208C653.62 91.2876 652.947 90.6782 651.899 90.6719C650.916 90.6782 650.021 91.2178 649.97 92.1191H648.865C648.922 90.6592 650.281 89.6816 651.912 89.6816C653.664 89.6816 654.73 90.8306 654.718 92.1445C654.73 93.1919 654.121 93.9536 653.156 94.2266V94.29C654.356 94.4741 655.08 95.3311 655.073 96.499C655.08 98.0098 653.708 99.127 651.874 99.127ZM666.601 93.4648V94.2773H661.941V95.4199H665.28V97.9844H658.577V99.1143H665.623V99.9014H657.587V97.248H664.303V96.1816H657.562V95.4199H660.964V94.2773H656.317V93.4648H666.601ZM656.876 92.1445C658.85 91.9668 660.729 91.1099 660.888 89.9355H657.257V89.1484H665.687V89.9355H662.037C662.183 91.1035 664.068 91.9668 666.055 92.1445L665.725 92.9062C663.877 92.7158 662.138 91.9985 661.459 90.856C660.786 91.9985 659.053 92.7158 657.206 92.9062L656.876 92.1445ZM680.121 88.7422V100.054H679.118V88.7422H680.121ZM671.234 93.5537C671.241 91.1543 672.434 89.6245 674.116 89.6182C675.792 89.6245 677.004 91.1543 676.998 93.5537C677.004 95.9595 675.792 97.4829 674.116 97.4766C672.434 97.4829 671.241 95.9595 671.234 93.5537ZM672.199 93.5537C672.199 95.3882 672.986 96.5942 674.116 96.5879C675.252 96.5942 676.033 95.3882 676.033 93.5537C676.033 91.7192 675.252 90.5132 674.116 90.5068C672.986 90.5132 672.199 91.7192 672.199 93.5537ZM685.821 90.5703C685.821 92.1064 686.989 93.5156 688.627 94.0742L688.081 94.8613C686.837 94.4043 685.853 93.4712 685.358 92.2905C684.875 93.6299 683.866 94.6646 682.546 95.1787L682.013 94.3789C683.701 93.7505 684.837 92.2397 684.844 90.4941V89.3262H685.821V90.5703ZM683.511 97.9463C683.517 96.6577 684.933 95.9023 687.256 95.9023C689.573 95.9023 690.976 96.6577 690.976 97.9463C690.976 99.2603 689.573 100.003 687.256 100.003C684.933 100.003 683.517 99.2603 683.511 97.9463ZM684.514 97.9463C684.501 98.7461 685.555 99.2095 687.256 99.2158C688.963 99.2095 690.004 98.7461 690.011 97.9463C690.004 97.1782 688.963 96.7021 687.256 96.7021C685.555 96.7021 684.501 97.1782 684.514 97.9463ZM689.884 95.6104V88.7422H690.874V91.6875H692.575V92.5254H690.874V95.6104H689.884ZM696.98 89.5674C698.751 89.5737 700.008 90.6528 700.015 92.2207C700.008 93.7949 698.751 94.8677 696.98 94.874C695.197 94.8677 693.927 93.7949 693.934 92.2207C693.927 90.6528 695.197 89.5737 696.98 89.5674ZM693.35 96.7148C695.432 96.7212 698.307 96.7021 700.802 96.334L700.878 97.0703C698.294 97.5527 695.521 97.5654 693.489 97.5654L693.35 96.7148ZM694.911 92.2207C694.905 93.2744 695.774 93.998 696.98 93.998C698.174 93.998 699.043 93.2744 699.037 92.2207C699.043 91.1733 698.174 90.4434 696.98 90.4434C695.774 90.4434 694.905 91.1733 694.911 92.2207ZM701.551 100.054V88.7422H702.541V100.054H701.551ZM717.09 88.7549V96.9561H716.087V88.7549H717.09ZM707.975 94.9121C710.717 94.0742 712.5 92.4619 712.716 90.4434H708.571V89.6055H713.814C713.802 92.5254 711.701 94.7026 708.381 95.7246L707.975 94.9121ZM709.739 99.7871V96.2832H710.742V98.9492H717.395V99.7871H709.739ZM731.258 89.2373V89.9609C731.258 90.7227 731.258 91.7002 731.004 92.9697H732.616V93.7695H722.282V92.9697H730.001C730.261 91.7129 730.274 90.7925 730.268 90.0498H723.59V89.2373H731.258ZM723.514 95.7119V94.9121H731.296V97.7559H724.529V99.0889H731.588V99.9014H723.526V96.9688H730.306V95.7119H723.514ZM736.628 89.4277C737.58 89.4214 738.386 89.7832 738.913 90.3799H741.871V88.7422H742.874V95.4326H741.871V93.8203H738.913C738.393 94.417 737.58 94.7788 736.628 94.7725C734.939 94.7788 733.689 93.6743 733.695 92.1064C733.689 90.5259 734.939 89.4214 736.628 89.4277ZM734.647 92.1064C734.647 93.1538 735.473 93.9282 736.628 93.9219C737.745 93.9282 738.583 93.1538 738.583 92.1064C738.583 91.0337 737.745 90.2847 736.628 90.291C735.473 90.2847 734.647 91.0337 734.647 92.1064ZM735.346 97.8447C735.339 96.4863 736.787 95.6992 739.129 95.6992C741.465 95.6992 742.912 96.4863 742.912 97.8447C742.912 99.2158 741.465 100.003 739.129 100.003C736.787 100.003 735.339 99.2158 735.346 97.8447ZM736.323 97.8447C736.317 98.6953 737.396 99.2095 739.129 99.2031C740.862 99.2095 741.941 98.6953 741.935 97.8447C741.941 96.9878 740.862 96.48 739.129 96.4736C737.396 96.48 736.317 96.9878 736.323 97.8447ZM739.389 91.1924C739.491 91.4717 739.548 91.7764 739.548 92.1064C739.548 92.4238 739.491 92.7222 739.396 92.9951H741.871V91.1924H739.389ZM754.109 96.0166V100.028H753.106V96.8164H746.518V96.0166H754.109ZM744.931 92.0811C744.924 90.5068 746.175 89.3833 747.863 89.3896C748.841 89.3833 749.672 89.7705 750.193 90.4053H753.106V88.7422H754.109V95.3945H753.106V93.7695H750.199C749.679 94.4106 748.847 94.7915 747.863 94.7852C746.175 94.7979 744.924 93.687 744.931 92.0811ZM745.883 92.0811C745.883 93.1792 746.708 93.9473 747.863 93.9473C748.974 93.9473 749.818 93.1792 749.818 92.0811C749.818 91.021 748.974 90.2402 747.863 90.2402C746.708 90.2402 745.883 91.021 745.883 92.0811ZM750.65 92.9443H753.106V91.2305H750.644C750.732 91.4971 750.783 91.7764 750.783 92.0811C750.783 92.3857 750.732 92.6777 750.65 92.9443ZM765.662 88.7422V100.028H764.697V88.7422H765.662ZM756.128 93.6172C756.134 91.2178 757.086 89.7007 758.553 89.6943C759.924 89.7007 760.851 91.021 760.978 93.1475H762.438V88.9834H763.39V99.457H762.438V93.9727H760.984C760.889 96.1689 759.943 97.5464 758.553 97.54C757.086 97.5464 756.134 96.0166 756.128 93.6172ZM757.067 93.6172C757.055 95.4453 757.639 96.6006 758.553 96.5879C759.473 96.6006 760.057 95.4453 760.051 93.6172C760.057 91.7827 759.473 90.6338 758.553 90.6338C757.639 90.6338 757.055 91.7827 757.067 93.6172ZM776.352 92.1699V92.9697H768.62V89.1611H769.61V92.1699H776.352ZM767.211 95.3184V94.5059H777.545V95.3184H767.211ZM768.557 99.749V96.4736H769.547V98.9238H776.415V99.749H768.557ZM785.378 89.8086V99H784.223V91.002H784.172L781.938 92.4873V91.332L784.223 89.8086H785.378ZM790.9 99.127C788.964 99.127 787.631 98.0542 787.638 96.5625C787.631 95.3755 788.457 94.3916 789.504 94.2266V94.1758C788.59 93.9663 787.987 93.1221 787.993 92.1191C787.987 90.7163 789.218 89.6816 790.9 89.6816C792.576 89.6816 793.808 90.7163 793.82 92.1191C793.808 93.1221 793.198 93.9663 792.297 94.1758V94.2266C793.338 94.3916 794.163 95.3755 794.176 96.5625C794.163 98.0542 792.817 99.127 790.9 99.127ZM788.78 96.499C788.761 97.4639 789.58 98.1177 790.9 98.124C792.214 98.1177 793.033 97.4639 793.033 96.499C793.033 95.4834 792.138 94.7344 790.9 94.7344C789.669 94.7344 788.761 95.4834 788.78 96.499ZM789.098 92.208C789.104 93.1348 789.847 93.7632 790.9 93.7695C791.948 93.7632 792.703 93.1348 792.703 92.208C792.703 91.2876 791.973 90.6655 790.9 90.6719C789.809 90.6655 789.104 91.2876 789.098 92.208ZM798.721 99.127C796.683 99.127 795.502 97.4131 795.509 94.4043C795.502 91.4209 796.696 89.6816 798.721 89.6816C800.739 89.6816 801.933 91.4209 801.933 94.4043C801.933 97.4131 800.758 99.127 798.721 99.127ZM796.613 94.4043C796.62 96.7847 797.388 98.1113 798.721 98.1113C800.047 98.1113 800.822 96.7847 800.815 94.4043C800.822 92.0239 800.041 90.6782 798.721 90.6719C797.4 90.6782 796.62 92.0239 796.613 94.4043ZM805.398 94.0742C804.211 94.0806 803.551 93.1792 803.558 91.8652C803.551 90.5703 804.237 89.6689 805.398 89.6689C806.604 89.6689 807.233 90.5703 807.239 91.8652C807.233 93.1792 806.579 94.0806 805.398 94.0742ZM804.459 99L810.781 89.8086H811.81L805.487 99H804.459ZM804.484 91.8652C804.484 92.7222 804.783 93.2871 805.398 93.2871C806.021 93.2871 806.312 92.7222 806.312 91.8652C806.312 91.021 806.04 90.4434 805.398 90.4561C804.795 90.4624 804.484 91.021 804.484 91.8652ZM809.169 96.9307C809.156 95.623 809.835 94.728 811.01 94.7217C812.197 94.728 812.838 95.623 812.838 96.9307C812.838 98.2383 812.184 99.1333 811.01 99.127C809.81 99.1333 809.156 98.2383 809.169 96.9307ZM810.083 96.9307C810.089 97.7812 810.388 98.3462 811.01 98.3398C811.625 98.3462 811.911 97.7812 811.911 96.9307C811.911 96.0737 811.645 95.4961 811.01 95.5088C810.394 95.5151 810.089 96.0737 810.083 96.9307ZM824.581 93.9854V94.7725H814.247V93.9854H824.581ZM815.491 96.4229V95.6738H823.286V98.0732H816.507V99.1523H823.654V99.876H815.504V97.3877H822.296V96.4229H815.491ZM815.555 89.8086V89.085H823.248V91.4209H816.583V92.4111H823.451V93.1348H815.593V90.7354H822.245V89.8086H815.555ZM832.681 90.8242C832.681 92.2905 833.811 93.6934 835.461 94.2646L834.94 95.0518C833.671 94.5947 832.687 93.6489 832.205 92.4873C831.716 93.7822 830.668 94.8232 829.329 95.3184L828.809 94.5312C830.472 93.9346 831.678 92.4302 831.678 90.8369V90.3418H829.126V89.5293H835.207V90.3418H832.681V90.8242ZM830.522 96.9307V96.1055H838.114V100.028H837.111V96.9307H830.522ZM834.852 92.5381V91.7002H837.111V88.7422H838.114V95.5088H837.111V92.5381H834.852ZM850.276 94.3281V95.1533H839.993V94.3281H842.545V92.7349C841.644 92.3857 841.136 91.8145 841.136 91.0527C841.136 89.7261 842.659 88.9644 845.135 88.958C847.591 88.9644 849.115 89.7261 849.121 91.0527C849.115 91.8081 848.613 92.3794 847.725 92.7349V94.3281H850.276ZM841.237 98.0098C841.231 96.7212 842.685 96.0103 845.135 96.0166C847.553 96.0103 849.007 96.7212 849.02 98.0098C849.007 99.2983 847.553 100.003 845.135 100.003C842.685 100.003 841.231 99.2983 841.237 98.0098ZM842.164 91.0527C842.158 91.8779 843.288 92.354 845.135 92.3604C846.963 92.354 848.099 91.8779 848.105 91.0527C848.099 90.2402 846.963 89.7451 845.135 89.7451C843.288 89.7451 842.158 90.2402 842.164 91.0527ZM842.253 98.0098C842.24 98.7778 843.326 99.2349 845.135 99.2285C846.925 99.2349 848.01 98.7778 848.017 98.0098C848.01 97.2417 846.925 96.791 845.135 96.7783C843.326 96.791 842.24 97.2417 842.253 98.0098ZM843.535 94.3281H846.734V93.0015C846.258 93.0903 845.725 93.1348 845.135 93.1348C844.544 93.1348 844.011 93.0903 843.535 93.0078V94.3281ZM860.052 88.7422V91.6367H861.753V92.4873H860.052V95.3057H859.062V88.7422H860.052ZM851.254 90.7354V89.9102H854.123V88.6406H855.113V89.9102H857.982V90.7354H851.254ZM851.901 93.2363C851.895 92.0303 852.98 91.2622 854.618 91.2559C856.237 91.2622 857.322 92.0303 857.335 93.2363C857.322 94.4424 856.237 95.2231 854.618 95.2168C852.98 95.2231 851.895 94.4424 851.901 93.2363ZM852.854 93.2363C852.847 93.9727 853.552 94.4551 854.618 94.4551C855.672 94.4551 856.383 93.9727 856.396 93.2363C856.383 92.5063 855.672 92.0176 854.618 92.0303C853.552 92.0176 852.847 92.5063 852.854 93.2363ZM852.917 99.876V95.8008H853.907V97.0068H859.062V95.8008H860.052V99.876H852.917ZM853.907 99.0762H859.062V97.7939H853.907V99.0762ZM871.77 88.7422V100.028H870.779V88.7422H871.77ZM863.2 97.1211V89.8594H864.178V96.2578C865.904 96.2451 867.682 96.1118 869.573 95.7119L869.713 96.5625C867.707 96.9814 865.923 97.1211 864.114 97.1211H863.2ZM882.434 88.7422V93.2109H884.325V94.0488H882.434V100.054H881.443V88.7422H882.434ZM874.194 97.2227V89.8467H879.463V90.6719H875.185V96.3848C877.229 96.3784 878.669 96.2896 880.352 95.9785L880.479 96.8418C878.708 97.1592 877.229 97.2227 875.083 97.2227H874.194ZM886.128 99.0762C885.684 99.0698 885.303 98.7017 885.315 98.251C885.303 97.8066 885.684 97.4385 886.128 97.4385C886.579 97.4385 886.947 97.8066 886.94 98.251C886.947 98.7017 886.579 99.0698 886.128 99.0762Z" fill="#868E96"/>
<path d="M500.943 150V142.576H502.078V143.711H502.16C502.427 142.959 503.199 142.46 504.074 142.453C504.252 142.46 504.553 142.467 504.689 142.48V143.67C504.601 143.649 504.286 143.588 503.979 143.588C502.912 143.588 502.119 144.326 502.119 145.324V150H500.943ZM508.709 150.15C506.562 150.157 505.236 148.626 505.236 146.35C505.236 144.066 506.583 142.48 508.6 142.48C510.158 142.48 511.806 143.438 511.799 146.186V146.678H506.412C506.474 148.25 507.39 149.111 508.709 149.111C509.598 149.111 510.158 148.722 510.432 148.264H511.689C511.341 149.392 510.24 150.157 508.709 150.15ZM506.419 145.68H510.609C510.603 144.442 509.823 143.52 508.6 143.52C507.314 143.52 506.501 144.531 506.419 145.68ZM516.338 152.939C514.54 152.939 513.323 152.153 513.193 150.779H514.424C514.581 151.538 515.285 151.914 516.338 151.914C517.609 151.914 518.389 151.36 518.389 150.137V148.633H518.293C518.04 149.043 517.568 149.884 516.133 149.891C514.328 149.884 512.975 148.523 512.975 146.186C512.975 143.902 514.28 142.48 516.146 142.48C517.589 142.48 518.054 143.355 518.32 143.752H518.416V142.576H519.564V150.205C519.558 152.119 518.149 152.939 516.338 152.939ZM514.164 146.227C514.164 147.765 514.889 148.838 516.297 148.838C517.657 148.838 518.409 147.86 518.416 146.227C518.409 144.634 517.678 143.533 516.297 143.533C514.868 143.533 514.164 144.729 514.164 146.227ZM526.127 146.951V142.576H527.289V150H526.127V148.742H526.045C525.696 149.494 524.958 150.096 523.844 150.096C522.436 150.096 521.431 149.18 521.438 147.293V142.576H522.613V147.211C522.613 148.277 523.276 148.968 524.227 148.961C525.067 148.968 526.12 148.339 526.127 146.951ZM530.352 140.102V150H529.176V140.102H530.352ZM531.869 147.895C531.869 146.192 533.373 145.803 534.658 145.707C535.137 145.673 536.333 145.604 536.668 145.598V144.996C536.668 144.053 536.107 143.506 534.986 143.506C534.05 143.506 533.482 143.937 533.318 144.504H532.088C532.238 143.308 533.4 142.48 535.041 142.48C536.012 142.48 537.837 142.768 537.83 145.105V150H536.668V148.988H536.613C536.367 149.487 535.69 150.171 534.398 150.178C532.99 150.171 531.869 149.344 531.869 147.895ZM533.045 147.949C533.052 148.735 533.701 149.132 534.604 149.125C535.93 149.132 536.668 148.243 536.668 147.307V146.562C536.319 146.582 535.15 146.671 534.795 146.691C533.729 146.76 533.052 147.136 533.045 147.949ZM539.717 150V142.576H540.852V143.711H540.934C541.2 142.959 541.973 142.46 542.848 142.453C543.025 142.46 543.326 142.467 543.463 142.48V143.67C543.374 143.649 543.06 143.588 542.752 143.588C541.686 143.588 540.893 144.326 540.893 145.324V150H539.717Z" fill="#495057"/>
<path d="M568.889 150V142.576H570.297V143.793H570.379C570.693 142.966 571.425 142.48 572.402 142.48C573.394 142.48 574.084 142.966 574.398 143.793H574.48C574.829 142.993 575.636 142.48 576.709 142.48C578.049 142.48 578.999 143.321 579.006 145.023V150H577.543V145.16C577.543 144.155 576.914 143.738 576.148 143.738C575.212 143.738 574.672 144.381 574.672 145.27V150H573.223V145.078C573.223 144.265 572.669 143.738 571.869 143.738C571.049 143.738 570.352 144.422 570.352 145.42V150H568.889ZM583.969 150.15C581.781 150.15 580.435 148.64 580.441 146.336C580.435 144.053 581.802 142.48 583.873 142.48C585.562 142.48 587.168 143.526 587.168 146.213V146.732H581.891C581.932 148.147 582.766 148.947 583.982 148.947C584.81 148.947 585.35 148.592 585.596 148.141H587.072C586.744 149.344 585.603 150.15 583.969 150.15ZM581.897 145.639H585.732C585.732 144.511 585.001 143.677 583.887 143.684C582.718 143.677 581.959 144.593 581.897 145.639ZM591.393 150.15C589.602 150.144 588.289 148.701 588.289 146.309C588.289 143.889 589.622 142.48 591.406 142.48C592.787 142.48 593.286 143.314 593.553 143.779H593.621V140.102H595.084V150H593.662V148.838H593.553C593.279 149.323 592.746 150.144 591.393 150.15ZM589.779 146.281C589.772 147.771 590.442 148.899 591.721 148.906C592.965 148.899 593.662 147.84 593.662 146.281C593.662 144.736 592.979 143.718 591.721 143.725C590.429 143.718 589.772 144.818 589.779 146.281ZM596.984 150V142.576H598.447V150H596.984ZM596.793 140.566C596.8 140.088 597.217 139.705 597.723 139.705C598.222 139.705 598.639 140.088 598.639 140.566C598.639 141.045 598.222 141.435 597.723 141.428C597.217 141.435 596.8 141.045 596.793 140.566ZM604.941 146.91V142.576H606.391V150H604.969V148.715H604.887C604.545 149.508 603.786 150.096 602.672 150.096C601.236 150.096 600.225 149.132 600.225 147.293V142.576H601.688V147.115C601.688 148.127 602.303 148.77 603.191 148.77C604.005 148.77 604.941 148.175 604.941 146.91ZM608.168 150V142.576H609.576V143.793H609.658C609.973 142.966 610.704 142.48 611.682 142.48C612.673 142.48 613.363 142.966 613.678 143.793H613.76C614.108 142.993 614.915 142.48 615.988 142.48C617.328 142.48 618.278 143.321 618.285 145.023V150H616.822V145.16C616.822 144.155 616.193 143.738 615.428 143.738C614.491 143.738 613.951 144.381 613.951 145.27V150H612.502V145.078C612.502 144.265 611.948 143.738 611.148 143.738C610.328 143.738 609.631 144.422 609.631 145.42V150H608.168Z" fill="#495057"/>
<path d="M649.045 144.695C648.936 144.135 648.471 143.772 647.732 143.779C646.987 143.772 646.44 144.148 646.447 144.654C646.44 145.037 646.748 145.324 647.5 145.502L648.758 145.762C650.159 146.069 650.843 146.719 650.85 147.785C650.843 149.18 649.619 150.15 647.678 150.15C645.791 150.15 644.677 149.303 644.492 147.881H646.27C646.372 148.517 646.864 148.831 647.678 148.824C648.519 148.831 649.065 148.489 649.072 147.936C649.065 147.505 648.73 147.231 647.992 147.074L646.803 146.814C645.422 146.534 644.704 145.81 644.711 144.75C644.704 143.376 645.894 142.48 647.705 142.48C649.476 142.48 650.569 143.349 650.699 144.695H649.045ZM655.471 150.15C653.235 150.15 651.861 148.66 651.861 146.336C651.861 144.039 653.256 142.48 655.375 142.48C657.193 142.48 658.766 143.622 658.766 146.227V146.773H653.584C653.611 148.038 654.356 148.79 655.484 148.783C656.25 148.79 656.763 148.462 656.988 148.018H658.697C658.383 149.303 657.193 150.15 655.471 150.15ZM653.591 145.584H657.098C657.091 144.572 656.407 143.834 655.402 143.834C654.356 143.834 653.652 144.641 653.591 145.584ZM660.119 150V142.576H661.787V143.834H661.883C662.19 142.986 662.936 142.48 663.92 142.48C664.925 142.48 665.649 142.993 665.93 143.834H666.012C666.333 143.014 667.16 142.48 668.24 142.48C669.601 142.48 670.558 143.355 670.551 145.01V150H668.814V145.283C668.814 144.36 668.254 143.943 667.543 143.943C666.688 143.943 666.189 144.524 666.189 145.365V150H664.494V145.215C664.487 144.442 663.981 143.943 663.236 143.943C662.484 143.943 661.869 144.565 661.869 145.488V150H660.119ZM672.219 150V142.576H673.969V150H672.219ZM672.096 140.566C672.096 140.047 672.554 139.623 673.107 139.623C673.661 139.623 674.119 140.047 674.119 140.566C674.119 141.093 673.661 141.517 673.107 141.523C672.554 141.517 672.096 141.093 672.096 140.566ZM675.719 150V140.102H677.469V143.793H677.537C677.804 143.267 678.344 142.48 679.656 142.48C681.372 142.48 682.726 143.82 682.732 146.295C682.726 148.735 681.413 150.13 679.67 150.137C678.385 150.13 677.811 149.371 677.537 148.824H677.428V150H675.719ZM677.428 146.281C677.428 147.73 678.063 148.701 679.178 148.701C680.34 148.701 680.948 147.683 680.955 146.281C680.948 144.9 680.354 143.909 679.178 143.902C678.05 143.909 677.428 144.839 677.428 146.281ZM687.34 150.15C685.173 150.15 683.785 148.612 683.785 146.322C683.785 144.012 685.173 142.48 687.34 142.48C689.514 142.48 690.901 144.012 690.895 146.322C690.901 148.612 689.514 150.15 687.34 150.15ZM685.549 146.309C685.549 147.669 686.144 148.756 687.354 148.756C688.543 148.756 689.138 147.669 689.131 146.309C689.138 144.948 688.543 143.854 687.354 143.861C686.144 143.854 685.549 144.948 685.549 146.309ZM693.998 140.102V150H692.248V140.102H693.998ZM698.428 150.137C696.685 150.13 695.365 148.735 695.365 146.295C695.365 143.82 696.719 142.48 698.441 142.48C699.747 142.48 700.294 143.267 700.561 143.793H700.629V140.102H702.365V150H700.656V148.824H700.561C700.28 149.371 699.713 150.13 698.428 150.137ZM697.143 146.281C697.143 147.683 697.758 148.701 698.906 148.701C700.034 148.701 700.67 147.73 700.67 146.281C700.67 144.839 700.041 143.909 698.906 143.902C697.744 143.909 697.143 144.9 697.143 146.281Z" fill="#495057"/>
<path d="M728.834 150V140.102H730.857V143.82H730.912C731.192 143.219 731.78 142.48 733.031 142.48C734.672 142.48 736.046 143.752 736.053 146.295C736.046 148.776 734.727 150.123 733.031 150.123C731.821 150.123 731.206 149.426 730.912 148.811H730.83V150H728.834ZM730.816 146.281C730.81 147.621 731.391 148.503 732.389 148.51C733.421 148.503 733.981 147.594 733.975 146.281C733.981 144.989 733.435 144.094 732.389 144.094C731.384 144.094 730.81 144.948 730.816 146.281ZM740.688 150.15C738.445 150.144 737.044 148.605 737.051 146.309C737.044 144.019 738.445 142.48 740.688 142.48C742.937 142.48 744.331 144.019 744.338 146.309C744.331 148.605 742.937 150.144 740.688 150.15ZM739.102 146.309C739.102 147.607 739.642 148.571 740.701 148.578C741.733 148.571 742.28 147.607 742.273 146.309C742.28 145.003 741.733 144.025 740.701 144.025C739.642 144.025 739.102 145.003 739.102 146.309ZM747.633 140.102V150H745.609V140.102H747.633ZM751.939 150.123C750.244 150.123 748.918 148.776 748.918 146.295C748.918 143.752 750.299 142.48 751.939 142.48C753.184 142.48 753.778 143.219 754.045 143.82H754.113V140.102H756.137V150H754.141V148.811H754.045C753.765 149.426 753.149 150.123 751.939 150.123ZM750.996 146.281C750.989 147.594 751.543 148.503 752.568 148.51C753.58 148.503 754.154 147.621 754.154 146.281C754.154 144.948 753.587 144.094 752.568 144.094C751.536 144.094 750.989 144.989 750.996 146.281Z" fill="#495057"/>
</svg>
