<svg width="604" height="180" viewBox="0 0 604 180" fill="none" xmlns="http://www.w3.org/2000/svg">
<rect width="180" height="180" rx="90" fill="#F1F3F5"/>
<path d="M56.0332 75.543V83.2422H55.1191V75.543H56.0332ZM47.6426 81.25C49.207 80.7402 50.3027 79.4336 50.3027 77.9688V77.6875H47.9004V76.9492H50.3027V75.5898H51.2285V76.9492H53.6074V77.6875H51.2168V77.9688C51.2109 79.3457 52.3301 80.5762 53.8887 81.0508L53.4316 81.7891C52.207 81.3906 51.2402 80.5645 50.7715 79.4863C50.3145 80.6465 49.3477 81.5488 48.1113 81.9766L47.6426 81.25ZM49.3066 85.7266V82.5273H50.2207V84.9531H56.3613V85.7266H49.3066ZM66.0879 76.1641V76.9727C66.0879 77.8516 66.0879 78.9062 65.8125 80.3242H67.3418V81.0977H57.8027V80.3242H64.8984C65.1797 78.8828 65.1797 77.8574 65.1738 76.9727V76.9141H59.0098V76.1641H66.0879ZM59.0684 85.7148V82.2695H59.9824V84.9414H66.4043V85.7148H59.0684ZM76.2363 75.5312V79.832H77.9824V80.5938H76.2363V85.9492H75.3223V75.5312H76.2363ZM68.1152 77.9688V77.207H70.7988V75.6602H71.7129V77.207H74.3145V77.9688H68.1152ZM68.7129 81.2266C68.707 79.8203 69.7852 78.8359 71.2676 78.8359C72.7383 78.8359 73.8105 79.8203 73.8223 81.2266C73.8105 82.6387 72.7383 83.6172 71.2676 83.6172C69.7852 83.6172 68.707 82.6387 68.7129 81.2266ZM69.5918 81.2266C69.5859 82.1758 70.2949 82.8438 71.2676 82.832C72.2285 82.8438 72.9316 82.1758 72.9434 81.2266C72.9316 80.2832 72.2285 79.6035 71.2676 79.6094C70.2949 79.6035 69.5859 80.2832 69.5918 81.2266ZM86.9004 76.5859V77.6289C86.8887 78.9062 86.8887 80.3359 86.5137 82.4336L85.5762 82.3281C85.9688 80.3359 85.9688 78.877 85.9746 77.6289V77.3477H79.5527V76.5859H86.9004ZM78.5449 84.4727V83.7109H82.2715V79.9844H83.1738V83.7109H88.0371V84.4727H78.5449ZM96.6738 82.7266C98.959 82.7207 100.248 83.2773 100.26 84.332C100.248 85.3867 98.959 85.9375 96.6738 85.9492C94.3652 85.9375 93.0703 85.3867 93.0762 84.332C93.0703 83.2773 94.3652 82.7207 96.6738 82.7266ZM91.9277 82.0117V81.2852H101.42V82.0117H91.9277ZM92.4199 77.1484V76.4336H96.2168V75.3789H97.1309V76.4336H100.869V77.1484H92.4199ZM93.2871 79.0938C93.2871 78.1152 94.5117 77.582 96.6738 77.582C98.8301 77.582 100.049 78.1152 100.049 79.0938C100.049 80.0781 98.8301 80.5996 96.6738 80.5938C94.5117 80.5996 93.2871 80.0781 93.2871 79.0938ZM94.0137 84.332C94.0195 84.9238 94.9805 85.2461 96.6738 85.2461C98.3613 85.2461 99.3223 84.9238 99.3223 84.332C99.3223 83.7402 98.3613 83.4062 96.6738 83.4062C94.9805 83.4062 94.0195 83.7402 94.0137 84.332ZM94.2715 79.0938C94.2656 79.6387 95.1445 79.9375 96.6738 79.9375C98.2031 79.9375 99.0703 79.6387 99.0762 79.0938C99.0703 78.543 98.2031 78.2266 96.6738 78.2266C95.1445 78.2266 94.2656 78.543 94.2715 79.0938ZM107.725 76.5625V83.3359H102.908V76.5625H107.725ZM103.811 82.5859H106.822V77.3008H103.811V82.5859ZM109.963 85.9727V75.5312H110.889V85.9727H109.963ZM122.209 83.8867V84.6602H112.67V83.8867H116.959V81.918H113.865V78.707H120.1V77.0664H113.842V76.3047H121.002V79.457H114.779V81.1562H121.248V81.918H117.861V83.8867H122.209ZM132.568 80.8281V81.5898H128.338V83.7227H127.412V81.5898H123.029V80.8281H132.568ZM124.107 77.8984C124.102 76.6035 125.561 75.8066 127.787 75.8008C130.014 75.8066 131.455 76.6035 131.455 77.8984C131.455 79.1816 130.014 79.9785 127.787 79.9727C125.561 79.9785 124.102 79.1816 124.107 77.8984ZM124.26 85.7266V82.6797H125.186V84.9414H131.502V85.7266H124.26ZM125.092 77.8984C125.08 78.707 126.164 79.2227 127.787 79.2227C129.404 79.2227 130.482 78.707 130.482 77.8984C130.482 77.0664 129.404 76.5566 127.787 76.5508C126.164 76.5566 125.08 77.0664 125.092 77.8984ZM66.1113 94.0469V94.9141C66.1172 95.8809 66.1172 96.9414 65.8301 98.3711L64.916 98.2891C65.0449 97.6797 65.1152 97.1348 65.1504 96.6426L58.8105 96.9414L58.6816 96.1562L65.1914 95.9453C65.2031 95.582 65.209 95.2422 65.209 94.9141V94.7969H58.9395V94.0469H66.1113ZM57.8145 99.8242V99.0742H61.6816V97.5391H62.6074V99.0742H67.2949V99.8242H57.8145ZM59.0215 103.785V100.715H59.9473V103.035H66.3574V103.785H59.0215ZM77.0215 93.543V101.348H76.1426V93.543H77.0215ZM68.666 99.6133V94.3984H72.6387V95.1602H69.5449V96.6016H72.2051V97.3281H69.5449V98.8516C71.0566 98.8398 71.9883 98.8047 73.1074 98.5703L73.2012 99.3203C71.9941 99.5605 71.0098 99.6133 69.3223 99.6133H68.666ZM70.2246 103.727V100.48H71.1621V102.953H77.3379V103.727H70.2246ZM72.6973 97.2461V96.5078H74.1035V93.7539H74.9941V101.078H74.1035V97.2461H72.6973ZM88.084 101.84V102.613H78.5449V101.84H88.084ZM79.1309 99.3438C81.0996 98.9863 82.8281 97.6973 82.834 95.9688H79.4355V95.2188H82.8457V93.7891H83.748V95.2188H87.1699V95.9688H83.7715C83.7656 97.6973 85.4883 98.9863 87.4746 99.3438L87.0996 100.094C85.4531 99.7539 83.9531 98.8574 83.2969 97.498C82.6465 98.8574 81.1406 99.7539 79.4941 100.094L79.1309 99.3438ZM98.4551 101.887V102.66H88.916V101.887H93.2051V99.918H90.1113V96.707H96.3457V95.0664H90.0879V94.3047H97.248V97.457H91.0254V99.1562H97.4941V99.918H94.1074V101.887H98.4551ZM110.537 94.2109V95.125C110.537 96.1094 110.537 97.1934 110.238 98.6875H111.791V99.4492H107.49V103.973H106.564V99.4492H102.299V98.6875H109.307C109.623 97.1875 109.623 96.0977 109.623 95.125V94.9727H103.494V94.2109H110.537ZM116.256 95.1719C116.244 96.6602 117.305 97.9668 118.834 98.4883L118.318 99.2031C117.17 98.7754 116.268 97.9258 115.816 96.8301C115.371 98.0781 114.422 99.0449 113.162 99.5195L112.658 98.7695C114.264 98.207 115.33 96.8242 115.342 95.207V94.1289H116.256V95.1719ZM114.357 101.98C114.352 100.727 115.682 100.006 117.85 100.012C120.012 100.006 121.342 100.727 121.342 101.98C121.342 103.223 120.012 103.926 117.85 103.926C115.682 103.926 114.352 103.223 114.357 101.98ZM115.271 101.98C115.266 102.736 116.25 103.193 117.85 103.188C119.443 103.193 120.428 102.736 120.428 101.98C120.428 101.201 119.443 100.738 117.85 100.738C116.25 100.738 115.266 101.201 115.271 101.98ZM118.061 96.5312V95.7695H120.381V93.5312H121.307V99.707H120.381V96.5312H118.061Z" fill="#535862"/>
<rect x="164" width="180" height="180" rx="90" fill="#F1F3F5"/>
<path d="M218.516 75.5312V85.9727H217.59V75.5312H218.516ZM210.312 79.9727C210.318 77.7578 211.42 76.3457 212.973 76.3398C214.52 76.3457 215.639 77.7578 215.633 79.9727C215.639 82.1934 214.52 83.5996 212.973 83.5938C211.42 83.5996 210.318 82.1934 210.312 79.9727ZM211.203 79.9727C211.203 81.666 211.93 82.7793 212.973 82.7734C214.021 82.7793 214.742 81.666 214.742 79.9727C214.742 78.2793 214.021 77.166 212.973 77.1602C211.93 77.166 211.203 78.2793 211.203 79.9727ZM229.836 83.8398V84.6133H220.297V83.8398H224.586V81.2969H221.422V76.4102H228.652V81.2969H225.488V83.8398H229.836ZM222.324 80.5586H227.762V77.1484H222.324V80.5586ZM236.41 76.4805V77.2539H232.25V79.4102H236.035V80.1602H232.25V82.6797C234.195 82.6797 235.531 82.6094 237.125 82.3398L237.219 83.1016C235.572 83.377 234.172 83.4355 232.168 83.4414H231.336V76.4805H236.41ZM238.355 85.9492V75.5312H239.281V85.9492H238.355ZM249.348 76.0469V76.9141C249.354 77.8809 249.354 78.9414 249.066 80.3711L248.152 80.2891C248.281 79.6797 248.352 79.1348 248.387 78.6426L242.047 78.9414L241.918 78.1562L248.428 77.9453C248.439 77.582 248.445 77.2422 248.445 76.9141V76.7969H242.176V76.0469H249.348ZM241.051 81.8242V81.0742H244.918V79.5391H245.844V81.0742H250.531V81.8242H241.051ZM242.258 85.7852V82.7148H243.184V85.0352H249.594V85.7852H242.258ZM260.047 75.5312V85.9727H259.121V80.4883H256.836V79.7266H259.121V75.5312H260.047ZM251.434 83.2188C252.963 82.5039 254.105 80.7227 254.105 78.9297V78.0977H251.715V77.3477H254.105V75.7305H255.02V77.3477H257.375V78.0977H255.008V78.9297C255.008 80.6465 256.186 82.3398 257.727 83.0312L257.199 83.7461C256.01 83.207 255.031 82.0645 254.568 80.6934C254.117 82.1465 253.15 83.3594 251.961 83.9336L251.434 83.2188ZM270.418 82.2461V85.8086H263.562V82.2461H270.418ZM262.203 76.832V76.0703H266.844V78.9531H263.141V80.4648C264.857 80.4707 266.146 80.4121 267.711 80.1602L267.793 80.9336C266.158 81.1855 264.816 81.2383 263.012 81.2266H262.227V78.2383H265.953V76.832H262.203ZM264.477 85.0586H269.504V82.9609H264.477V85.0586ZM267.512 78.6484V77.8867H269.492V75.543H270.418V81.6602H269.492V78.6484H267.512ZM287.715 83.8398V84.6133H278.176V83.8398H282.465V81.2969H279.301V76.4102H286.531V81.2969H283.367V83.8398H287.715ZM280.203 80.5586H285.641V77.1484H280.203V80.5586ZM292.109 77.4648C292.109 78.9941 293.158 80.4355 294.664 81.0273L294.148 81.7422C293.006 81.2676 292.109 80.3184 291.67 79.1348C291.225 80.4121 290.287 81.4258 289.074 81.9297L288.57 81.1914C290.123 80.5938 291.201 79.0996 291.207 77.4648V76.1289H292.109V77.4648ZM290.445 85.7266V82.5156H291.371V84.9531H297.418V85.7266H290.445ZM294.113 79.9844V79.2344H296.258V77.8516H294.113V77.0898H296.258V75.543H297.184V83.3242H296.258V79.9844H294.113ZM207.588 101.84V102.613H198.049V101.84H200.416V99.0332C199.525 98.5703 198.986 97.8203 198.986 96.8711C198.986 95.2598 200.568 94.1992 202.795 94.1875C205.021 94.1992 206.604 95.2598 206.604 96.8711C206.604 97.8027 206.082 98.541 205.221 99.0039V101.84H207.588ZM199.877 96.8711C199.871 98.0371 201.084 98.8164 202.795 98.8164C204.488 98.8164 205.713 98.0371 205.713 96.8711C205.713 95.7051 204.488 94.9375 202.795 94.9492C201.084 94.9375 199.871 95.7051 199.877 96.8711ZM201.318 101.84H204.295V99.3613C203.844 99.4785 203.34 99.543 202.795 99.543C202.262 99.543 201.764 99.4844 201.318 99.3672V101.84ZM217.959 101.828V102.59H208.42V101.828H212.686V99.2734H213.588V101.828H217.959ZM208.795 98.6289C210.617 98.3184 212.645 96.7949 212.65 95.043V94.2461H213.611V95.043C213.617 96.7832 215.674 98.3184 217.49 98.6289L217.08 99.3906C215.492 99.0625 213.816 97.9902 213.143 96.4902C212.457 97.9844 210.799 99.0625 209.205 99.3906L208.795 98.6289ZM228.318 98.3711V99.0977H218.779V98.3711H228.318ZM219.928 100.621V99.9297H227.123V102.145H220.865V103.141H227.463V103.809H219.939V101.512H226.209V100.621H219.928ZM219.986 94.5156V93.8477H227.088V96.0039H220.936V96.918H227.275V97.5859H220.021V95.3711H226.162V94.5156H219.986ZM237.482 94.5273V95.3008H233.627V100.609C235.508 100.615 236.744 100.551 238.186 100.27L238.303 101.031C236.768 101.324 235.496 101.395 233.498 101.395H232.701V94.5273H237.482ZM236.861 98.0898V97.3281H239.896V93.5312H240.822V103.973H239.896V98.0898H236.861ZM247.748 95.3359V96.0859H242.521V95.3359H244.689V93.8477H245.604V95.3359H247.748ZM242.896 99.1562C242.896 97.7734 243.84 96.7949 245.135 96.7891C246.447 96.7949 247.385 97.7734 247.396 99.1562C247.385 100.557 246.447 101.541 245.135 101.547C243.84 101.541 242.896 100.557 242.896 99.1562ZM243.717 99.1562C243.717 100.082 244.309 100.744 245.135 100.738C245.967 100.744 246.576 100.082 246.576 99.1562C246.576 98.2422 245.967 97.5742 245.135 97.5625C244.309 97.5742 243.717 98.2422 243.717 99.1562ZM248.287 103.434V93.7891H249.154V97.9258H250.537V93.5312H251.416V103.949H250.537V98.6875H249.154V103.434H248.287ZM259.033 95.6055C259.039 96.7598 259.842 97.9258 261.178 98.4297L260.697 99.1328C259.695 98.7461 258.975 98.002 258.6 97.1055C258.219 98.0957 257.469 98.9805 256.443 99.4258L255.939 98.7109C257.311 98.1133 258.148 96.7656 258.154 95.6055V94.1875H259.033V95.6055ZM257.838 102.074C257.826 100.896 259.162 100.205 261.33 100.211C263.486 100.205 264.828 100.896 264.834 102.074C264.828 103.24 263.486 103.926 261.33 103.926C259.162 103.926 257.826 103.24 257.838 102.074ZM258.752 102.074C258.74 102.783 259.73 103.217 261.33 103.211C262.912 103.217 263.908 102.783 263.92 102.074C263.908 101.354 262.912 100.92 261.33 100.914C259.73 100.92 258.74 101.354 258.752 102.074ZM261.646 99.6484V93.7422H262.514V96.3438H263.896V93.543H264.775V99.9766H263.896V97.1055H262.514V99.6484H261.646ZM275.803 98.6875V99.4258H266.299V98.6875H270.6V97.4688H267.506V94.0234H274.619V94.7617H268.408V96.7188H274.689V97.4688H271.49V98.6875H275.803ZM267.447 102.062C267.441 100.873 268.795 100.193 271.045 100.188C273.277 100.193 274.619 100.873 274.631 102.062C274.619 103.264 273.277 103.938 271.045 103.949C268.795 103.938 267.441 103.264 267.447 102.062ZM268.385 102.062C268.373 102.795 269.375 103.217 271.045 103.211C272.697 103.217 273.699 102.795 273.705 102.062C273.699 101.342 272.697 100.914 271.045 100.914C269.375 100.914 268.373 101.342 268.385 102.062ZM284.814 93.5312V96.0859H286.385V96.8477H284.814V99.4492H283.9V93.5312H284.814ZM276.658 98.8164C279.219 98.125 280.783 96.7363 280.977 94.9727H277.127V94.2109H281.967C281.955 96.8359 280.121 98.7168 277.033 99.5547L276.658 98.8164ZM278.217 103.809V99.9297H284.814V103.809H278.217ZM279.131 103.059H283.9V100.691H279.131V103.059ZM299.58 99.7188V100.469H295.232V103.949H294.33V100.469H290.041V99.7188H299.58ZM291.26 98.4531V93.9648H292.174V95.4062H297.424V93.9648H298.35V98.4531H291.26ZM292.174 97.7031H297.424V96.1562H292.174V97.7031ZM303.225 94.3398C304.18 94.3457 304.959 94.9023 305.41 95.8633H308.146V93.5312H309.061V103.973H308.146V99.9297H305.475C305.041 100.984 304.232 101.6 303.225 101.594C301.684 101.6 300.605 100.193 300.611 97.9727C300.605 95.7578 301.684 94.3457 303.225 94.3398ZM301.49 97.9727C301.496 99.666 302.199 100.779 303.225 100.773C304.244 100.779 304.959 99.666 304.959 97.9727C304.959 96.2793 304.244 95.166 303.225 95.1602C302.199 95.166 301.496 96.2793 301.49 97.9727ZM305.674 96.6367C305.773 97.041 305.826 97.4863 305.826 97.9727C305.826 98.4004 305.785 98.8047 305.709 99.168H308.146V96.6367H305.674Z" fill="#535862"/>
<rect x="424" width="180" height="180" rx="90" fill="black"/>
<path d="M489.136 74.5137V81.4834H487.105V78.8936H485.632V77.2559H487.105V74.5137H489.136ZM478.993 79.9473C480.865 79.3506 481.57 78.0239 481.697 76.7607H479.564V75.1357H485.95V76.7607H483.83C483.957 77.9351 484.636 79.1094 486.369 79.6807L485.391 81.2676C484.134 80.8804 483.303 80.1187 482.789 79.1729C482.281 80.2456 481.405 81.1152 480.046 81.5596L478.993 79.9473ZM480.96 83.9844C480.954 82.5308 482.522 81.6738 485.048 81.6738C487.606 81.6738 489.162 82.5308 489.162 83.9844C489.162 85.4316 487.606 86.2949 485.048 86.2949C482.522 86.2949 480.954 85.4316 480.96 83.9844ZM482.992 83.9844C482.979 84.5366 483.658 84.7588 485.048 84.7588C486.464 84.7588 487.137 84.5366 487.143 83.9844C487.137 83.4258 486.464 83.2036 485.048 83.21C483.658 83.2036 482.979 83.4258 482.992 83.9844ZM501.108 83.3496V84.9873H490.38V83.3496H494.722V81.4072H491.434V75.2119H493.478V76.8496H497.959V75.2119H499.991V81.4072H496.741V83.3496H501.108ZM493.478 79.7949H497.959V78.4492H493.478V79.7949ZM513.994 74.8945V76.0879C513.987 77.2876 513.987 78.4175 513.664 79.9473L511.658 79.7949C511.747 79.376 511.81 78.9888 511.861 78.6143L505.526 78.8555L505.297 77.2051L511.962 77.1099C511.969 76.9131 511.969 76.71 511.975 76.5068H505.64V74.8945H513.994ZM504.485 81.9912V80.417H508.217V79.1094H510.261V80.417H515.124V81.9912H504.485ZM505.64 86.0918V82.5498H507.684V84.4541H514.146V86.0918H505.64ZM525.838 74.5391V83.2861H523.909V74.5391H525.838ZM516.088 81.8262V75.377H520.557V76.9766H518.043V77.8398H520.151V79.3633H518.043V80.2012C519.078 80.1948 519.922 80.1631 520.887 80.0107L521.078 81.585C519.745 81.7944 518.615 81.8262 516.926 81.8262H516.088ZM517.84 86.0918V82.3467H519.884V84.4668H526.105V86.0918H517.84ZM520.621 79.2363V77.6367H521.56V74.7295H523.477V83.0322H521.56V79.2363H520.621ZM537.645 83.3496V84.9873H526.917V83.3496H537.645ZM527.108 80.4678C529.952 80.1377 531.012 78.7729 531.202 77.624H527.793V75.999H531.272V74.6406H533.291V75.999H536.782V77.624H533.36C533.538 78.7729 534.598 80.1377 537.467 80.4678L536.693 82.0801C534.509 81.8008 533.068 80.9185 532.269 79.7568C531.475 80.9185 530.041 81.8008 527.87 82.0801L527.108 80.4678ZM548.868 79.6553V81.1406H538.153V79.6553H548.868ZM539.333 86.1807V83.1973H545.605V82.8672H539.333V81.4961H547.624V84.4541H541.352V84.835H547.941V86.1807H539.333ZM539.435 75.999V74.6533H547.624V77.6113H541.466V77.9922H547.827V79.3252H539.448V76.3545H545.592V75.999H539.435ZM452.51 94.5391V103.058H450.466V94.5391H452.51ZM442.621 100.354C444.639 99.8076 445.287 98.5317 445.299 97.3193H443.103V95.7451H445.299V94.5898H447.369V95.7451H449.578V97.3193H447.356C447.375 98.4556 448.042 99.6616 450.047 100.163L449.095 101.75C447.781 101.42 446.905 100.734 446.372 99.8647C445.845 100.83 444.944 101.585 443.573 101.94L442.621 100.354ZM444.474 106.092V102.334H446.531V104.467H452.79V106.092H444.474ZM463.39 95.1484V96.2021C463.396 97.1924 463.396 98.2588 463.155 99.5918H464.571V101.204H453.843V99.5918H461.086C461.302 98.481 461.346 97.605 461.353 96.7607H455.125V95.1484H463.39ZM455.176 106.079V102.042H457.169V104.467H463.708V106.079H455.176ZM474.473 94.5391V97.9668H475.933V99.6172H474.473V103.286H472.429V94.5391H474.473ZM465.066 97.2178V95.6436H467.516V94.5137H469.56V95.6436H472.01V97.2178H465.066ZM465.574 99.8076C465.567 98.4302 466.812 97.4844 468.532 97.4844C470.252 97.4844 471.464 98.4302 471.464 99.8076C471.464 101.179 470.252 102.105 468.532 102.093C466.812 102.105 465.567 101.179 465.574 99.8076ZM466.691 106.092V102.626H468.735V104.467H474.816V106.092H466.691ZM467.567 99.8076C467.561 100.341 467.948 100.569 468.532 100.569C469.128 100.569 469.528 100.341 469.535 99.8076C469.528 99.2744 469.128 99.0269 468.532 99.0205C467.948 99.0269 467.561 99.2744 467.567 99.8076ZM489.873 103.299V104.937H479.145V103.299H489.873ZM480.199 101.585V95.2246H482.243V97.002H486.724V95.2246H488.755V101.585H480.199ZM482.243 99.998H486.724V98.5635H482.243V99.998ZM500.537 94.5391V103.223H498.607V99.376H497.998V103.045H496.106V94.7295H497.998V97.7637H498.607V94.5391H500.537ZM490.799 97.0146V95.4404H495.306V99.2871H492.78V100.119C493.878 100.106 494.69 100.049 495.624 99.8838L495.801 101.483C494.519 101.687 493.421 101.712 491.663 101.712H490.812V97.8145H493.338V97.0146H490.799ZM492.424 106.092V102.385H494.456V104.467H500.803V106.092H492.424ZM511.239 99.8203V101.433H502.809V95.4277H511.163V97.0654H504.815V99.8203H511.239ZM501.616 104.949V103.286H512.343V104.949H501.616ZM520.252 97.459C520.24 99.1982 520.932 101.255 523.007 102.194L521.89 103.781C520.621 103.223 519.77 102.163 519.256 100.899C518.748 102.309 517.872 103.483 516.533 104.086L515.365 102.486C517.485 101.515 518.183 99.3633 518.183 97.459V97.2559H515.86V95.6055H522.436V97.2559H520.252V97.459ZM523.007 106.257V94.5137H525.051V98.8301H526.638V100.519H525.051V106.257H523.007ZM531.488 96.4053C531.488 97.8335 532.097 99.2744 534.116 99.8838L533.037 101.471C531.799 101.077 530.98 100.328 530.485 99.3696C529.958 100.411 529.076 101.229 527.768 101.648L526.638 100.049C528.765 99.4331 529.425 97.8652 529.431 96.418V95.25H531.488V96.4053ZM528.517 106.092V102.232H530.586V104.467H536.68V106.092H528.517ZM534.268 103.083V94.5391H536.312V97.8018H537.772V99.5029H536.312V103.083H534.268ZM543.51 95.0215C545.999 95.0215 548.004 96.3989 548.004 98.4873C548.004 100.601 545.999 101.972 543.51 101.979C541.003 101.972 539.022 100.601 539.029 98.4873C539.022 96.3989 541.003 95.0215 543.51 95.0215ZM538.153 104.924V103.286H548.88V104.924H538.153ZM541.009 98.4873C541.009 99.6743 542.044 100.309 543.51 100.315C544.958 100.309 545.973 99.6743 545.986 98.4873C545.973 97.3257 544.958 96.6592 543.51 96.6592C542.044 96.6592 541.009 97.3257 541.009 98.4873ZM560.116 103.4V105.051H549.388V103.4H553.73V101.902H550.556V97.751H556.942V96.8369H550.543V95.2119H558.96V99.3252H552.6V100.265H559.227V101.902H555.749V103.4H560.116ZM572.976 94.5391V97.7637H574.322V99.4268H572.976V102.588H570.945V94.5391H572.976ZM563.277 100.874C564.083 100.874 564.984 100.874 565.917 100.855V100.309C564.705 100.1 563.956 99.4966 563.962 98.627C563.956 97.5415 565.13 96.8623 566.92 96.8623C568.691 96.8623 569.872 97.5415 569.866 98.627C569.872 99.4839 569.136 100.087 567.949 100.303V100.779C568.825 100.734 569.694 100.671 570.513 100.582L570.653 101.953C568.215 102.385 565.556 102.417 563.48 102.423L563.277 100.874ZM563.594 96.71V95.2627H565.917V94.4375H567.949V95.2627H570.259V96.71H563.594ZM564.8 104.53V102.969H572.976V106.257H570.945V104.53H564.8ZM565.905 98.627C565.905 98.9443 566.248 99.084 566.92 99.084C567.581 99.084 567.917 98.9443 567.923 98.627C567.917 98.2905 567.581 98.2017 566.92 98.1953C566.248 98.2017 565.905 98.2905 565.905 98.627ZM581.393 95.2627V96.8623H579.267C579.375 98.0239 580.047 99.1475 581.837 99.6426L580.885 101.229C579.635 100.868 578.791 100.169 578.27 99.2808C577.75 100.36 576.848 101.223 575.464 101.648L574.436 100.062C576.328 99.4775 577.045 98.1382 577.159 96.8623H574.969V95.2627H581.393ZM576.086 103.921C576.08 102.442 577.661 101.572 580.187 101.585C582.65 101.572 584.199 102.442 584.199 103.921C584.199 105.394 582.65 106.282 580.187 106.282C577.661 106.282 576.08 105.394 576.086 103.921ZM578.118 103.921C578.118 104.486 578.797 104.708 580.187 104.708C581.545 104.708 582.187 104.486 582.18 103.921C582.187 103.369 581.545 103.146 580.187 103.146C578.797 103.146 578.118 103.369 578.118 103.921ZM582.041 101.407V94.5137H584.084V97.0781H585.544V98.7158H584.084V101.407H582.041Z" fill="white"/>
<path d="M341.333 90C341.333 91.4728 342.527 92.6667 344 92.6667C345.473 92.6667 346.667 91.4728 346.667 90C346.667 88.5272 345.473 87.3333 344 87.3333C342.527 87.3333 341.333 88.5272 341.333 90ZM424 90L419 87.1132V92.8868L424 90ZM344 90V90.5H345V90V89.5H344V90ZM347 90V90.5H349V90V89.5H347V90ZM351 90V90.5H353V90V89.5H351V90ZM355 90V90.5H357V90V89.5H355V90ZM359 90V90.5H361V90V89.5H359V90ZM363 90V90.5H365V90V89.5H363V90ZM367 90V90.5H369V90V89.5H367V90ZM371 90V90.5H373V90V89.5H371V90ZM375 90V90.5H377V90V89.5H375V90ZM379 90V90.5H381V90V89.5H379V90ZM383 90V90.5H385V90V89.5H383V90ZM387 90V90.5H389V90V89.5H387V90ZM391 90V90.5H393V90V89.5H391V90ZM395 90V90.5H397V90V89.5H395V90ZM399 90V90.5H401V90V89.5H399V90ZM403 90V90.5H405V90V89.5H403V90ZM407 90V90.5H409V90V89.5H407V90ZM411 90V90.5H413V90V89.5H411V90ZM415 90V90.5H417V90V89.5H415V90ZM419 90V90.5H421V90V89.5H419V90Z" fill="url(#paint0_linear_1107_37143)"/>
<defs>
<linearGradient id="paint0_linear_1107_37143" x1="344" y1="90.5" x2="424" y2="90.5" gradientUnits="userSpaceOnUse">
<stop stop-color="#CED4DA"/>
<stop offset="1" stop-color="#062D88"/>
</linearGradient>
</defs>
</svg>
