<svg width="960" height="280" viewBox="0 0 960 280" fill="none" xmlns="http://www.w3.org/2000/svg">
<rect width="960" height="280" rx="24" fill="#FAFAFA"/>
<rect x="0.5" y="0.5" width="959" height="279" rx="23.5" stroke="black" stroke-opacity="0.06"/>
<path d="M60 170.95H900" stroke="url(#paint0_linear_941_35042)" stroke-width="0.75" stroke-dasharray="3 3"/>
<path d="M60 102.399H900" stroke="url(#paint1_linear_941_35042)" stroke-width="0.75" stroke-dasharray="3 3"/>
<path d="M60 167.5H900" stroke="url(#paint2_linear_941_35042)" stroke-width="0.75" stroke-dasharray="3 3"/>
<path d="M60 98.9502H900" stroke="url(#paint3_linear_941_35042)" stroke-width="0.75" stroke-dasharray="3 3"/>
<g clip-path="url(#clip0_941_35042)">
<mask id="mask0_941_35042" style="mask-type:luminance" maskUnits="userSpaceOnUse" x="316" y="99" width="126" height="73">
<path d="M441.643 99.25H316.5V171.25H441.643V99.25Z" fill="white"/>
</mask>
<g mask="url(#mask0_941_35042)">
<path d="M389.227 105.204C393.723 97.7508 405.229 97.746 409.796 105.205L427.586 134.414L416.131 141.028L415.807 141.216L415.994 141.54L418.563 145.997L418.751 146.322L419.076 146.135L430.649 139.443L439.677 154.268C444.146 161.61 438.531 170.858 429.357 170.858H352.727L361.834 151.433C365.481 152.835 369.753 152.061 372.688 149.108L372.688 149.109C376.672 145.106 376.672 138.612 372.688 134.608C368.704 130.604 362.246 130.604 358.262 134.608C354.723 138.166 354.327 143.689 357.085 147.696L346.228 170.875H328.767C319.719 170.875 314.121 161.863 318.293 154.551H333.974V148.658H321.859L348.276 105.205L348.277 105.204C352.773 97.7508 364.28 97.7461 368.847 105.205L371.444 109.468L371.313 109.534L371.517 109.881L385.923 134.35C385.915 134.357 385.907 134.364 385.899 134.371L385.658 134.608C381.675 138.612 381.675 145.106 385.658 149.109C389.643 153.113 396.101 153.114 400.085 149.109C403.944 145.231 404.064 139.016 400.446 134.991L400.085 134.608C397.679 132.184 394.347 131.226 391.221 131.733L382.266 116.532L389.048 105.385H389.117L389.227 105.204ZM361.826 138.171C363.838 136.143 367.112 136.141 369.142 138.172C371.173 140.221 371.17 143.515 369.142 145.545L369.141 145.546C367.129 147.575 363.855 147.576 361.825 145.545C359.795 143.496 359.797 140.203 361.825 138.173L361.826 138.171ZM389.24 138.171C391.252 136.143 394.526 136.142 396.556 138.173V138.172C398.57 140.204 398.583 143.516 396.556 145.545L396.555 145.546C394.543 147.574 391.269 147.576 389.239 145.546H389.24C387.225 143.514 387.21 140.202 389.238 138.173L389.24 138.171Z" stroke="black" stroke-width="0.75"/>
</g>
<path d="M540.562 107.979C544.995 107.979 548.49 109.276 550.878 111.677H550.879C553.265 114.06 554.37 117.41 554.37 121.23V166.444H541.807V121.715C541.807 121.082 541.646 120.646 541.439 120.367L541.349 120.258C541.122 120.012 540.782 119.837 540.306 119.837C539.589 119.837 538.853 120.334 538.485 121.336L538.463 121.398V121.427L524.851 156.43L524.848 156.437L524.846 156.443C523.731 159.665 522.191 162.433 519.823 164.393L519.822 164.395C517.428 166.398 514.31 167.446 510.316 167.446C505.935 167.446 502.44 166.15 500.07 163.734L500.069 163.733C497.699 161.334 496.594 157.966 496.594 154.111V121.731C496.594 121.017 496.379 120.57 496.117 120.291H496.118C495.871 120.025 495.512 119.854 495.023 119.854C494.678 119.854 494.328 119.947 494.001 120.207C493.683 120.46 493.413 120.85 493.177 121.4L493.174 121.407L493.171 121.415L476.394 165.617L476.393 165.618L476.075 166.461H462.762L463.423 164.715L480.798 118.993L480.802 118.982C481.916 115.76 483.457 112.992 485.792 111.031L485.793 111.03C488.17 109.028 491.27 107.979 495.263 107.979C499.696 107.979 503.192 109.276 505.579 111.677H505.58C507.966 114.06 509.071 117.41 509.071 121.23V153.711C509.071 154.367 509.264 154.816 509.513 155.084C509.74 155.33 510.079 155.505 510.556 155.505C510.977 155.505 511.373 155.388 511.708 155.142C512.042 154.896 512.295 154.539 512.461 154.091L512.484 154.028V153.995L526.096 118.995L526.099 118.989L526.101 118.982C527.215 115.76 528.756 112.992 531.091 111.031L531.092 111.03C533.468 109.028 536.569 107.979 540.562 107.979Z" stroke="black" stroke-width="0.75"/>
<path d="M576.229 120.904V166.461H564.758V120.904H576.229Z" stroke="black" stroke-width="0.75"/>
<mask id="path-11-inside-1_941_35042" fill="white">
<path d="M602.345 115.353L586.13 134.306C583.894 136.945 582.238 139.667 582.238 144.242C582.238 147.649 583.211 150.605 585.806 152.625C588.315 154.579 592.035 155.431 596.917 155.431H621.478V166.819H634.791V154.429H642.216V142.957H634.791V120.246C634.791 116.789 634.023 113.783 631.958 111.663C629.875 109.508 626.803 108.573 622.929 108.573H616.699C613.149 108.573 610.452 109.124 608.148 110.343C605.861 111.529 604.12 113.282 602.327 115.353M597.173 141.12V141.086L612.466 123.285C613.217 122.433 613.678 122.066 614.122 121.849C614.548 121.649 615.129 121.515 616.238 121.515H620.642C620.915 121.515 621.085 121.548 621.154 121.582C621.222 121.615 621.239 121.632 621.256 121.632C621.29 121.665 621.427 121.866 621.427 122.517V143.541H598.607C597.446 143.541 596.951 143.324 596.78 143.19C596.695 143.123 596.576 143.007 596.576 142.522C596.576 141.921 596.729 141.57 597.139 141.103"/>
</mask>
<path d="M586.13 134.306L585.56 133.819L585.558 133.822L586.13 134.306ZM585.806 152.625L585.345 153.217L585.345 153.217L585.806 152.625ZM621.478 155.431H622.228V154.681H621.478V155.431ZM621.478 166.819H620.728V167.569H621.478V166.819ZM634.791 166.819V167.569H635.541V166.819H634.791ZM634.791 154.429V153.679H634.041V154.429H634.791ZM642.216 154.429V155.179H642.966V154.429H642.216ZM642.216 142.957H642.966V142.207H642.216V142.957ZM634.791 142.957H634.041V143.707H634.791V142.957ZM631.958 111.663L631.419 112.184L631.42 112.186L631.958 111.663ZM608.148 110.343L608.493 111.009L608.498 111.006L608.148 110.343ZM597.173 141.086L596.604 140.597L596.423 140.808V141.086H597.173ZM612.466 123.285L611.903 122.789L611.897 122.796L612.466 123.285ZM614.122 121.849L613.803 121.17L613.792 121.175L614.122 121.849ZM621.256 121.632L621.781 121.096L621.562 120.882H621.256V121.632ZM621.427 143.541V144.291H622.177V143.541H621.427ZM596.78 143.19L597.243 142.6L596.78 143.19ZM602.345 115.353L601.775 114.865L585.56 133.819L586.13 134.306L586.7 134.794L602.914 115.841L602.345 115.353ZM586.13 134.306L585.558 133.822C583.253 136.541 581.488 139.429 581.488 144.242H582.238H582.988C582.988 139.904 584.535 137.348 586.702 134.791L586.13 134.306ZM582.238 144.242H581.488C581.488 147.792 582.508 151.008 585.345 153.217L585.806 152.625L586.266 152.034C583.914 150.202 582.988 147.506 582.988 144.242H582.238ZM585.806 152.625L585.345 153.217C588.05 155.324 591.975 156.181 596.917 156.181V155.431V154.681C592.096 154.681 588.579 153.834 586.266 152.033L585.806 152.625ZM596.917 155.431V156.181H621.478V155.431V154.681H596.917V155.431ZM621.478 155.431H620.728V166.819H621.478H622.228V155.431H621.478ZM621.478 166.819V167.569H634.791V166.819V166.069H621.478V166.819ZM634.791 166.819H635.541V154.429H634.791H634.041V166.819H634.791ZM634.791 154.429V155.179H642.216V154.429V153.679H634.791V154.429ZM642.216 154.429H642.966V142.957H642.216H641.466V154.429H642.216ZM642.216 142.957V142.207H634.791V142.957V143.707H642.216V142.957ZM634.791 142.957H635.541V120.246H634.791H634.041V142.957H634.791ZM634.791 120.246H635.541C635.541 116.695 634.754 113.459 632.495 111.139L631.958 111.663L631.42 112.186C633.292 114.108 634.041 116.884 634.041 120.246H634.791ZM631.958 111.663L632.497 111.141C630.219 108.784 626.911 107.823 622.929 107.823V108.573V109.323C626.695 109.323 629.532 110.232 631.419 112.184L631.958 111.663ZM622.929 108.573V107.823H616.699V108.573V109.323H622.929V108.573ZM616.699 108.573V107.823C613.071 107.823 610.243 108.387 607.797 109.68L608.148 110.343L608.498 111.006C610.661 109.862 613.227 109.323 616.699 109.323V108.573ZM608.148 110.343L607.803 109.677C605.384 110.931 603.567 112.775 601.76 114.862L602.327 115.353L602.895 115.844C604.672 113.79 606.337 112.127 608.493 111.009L608.148 110.343ZM597.173 141.12H597.923V141.086H597.173H596.423V141.12H597.173ZM597.173 141.086L597.742 141.575L613.035 123.774L612.466 123.285L611.897 122.796L596.604 140.597L597.173 141.086ZM612.466 123.285L613.028 123.781C613.756 122.956 614.139 122.675 614.451 122.523L614.122 121.849L613.792 121.175C613.217 121.457 612.678 121.91 611.903 122.789L612.466 123.285ZM614.122 121.849L614.44 122.528C614.728 122.393 615.185 122.265 616.238 122.265V121.515V120.765C615.073 120.765 614.369 120.904 613.803 121.17L614.122 121.849ZM616.238 121.515V122.265H620.642V121.515V120.765H616.238V121.515ZM620.642 121.515V122.265C620.749 122.265 620.823 122.272 620.866 122.278C620.887 122.281 620.895 122.283 620.893 122.283C620.892 122.282 620.886 122.281 620.875 122.277C620.866 122.274 620.848 122.267 620.824 122.255L621.154 121.582L621.483 120.908C621.345 120.841 621.195 120.81 621.083 120.794C620.955 120.775 620.807 120.765 620.642 120.765V121.515ZM621.154 121.582L620.824 122.255C620.835 122.261 620.835 122.261 620.858 122.274C620.864 122.277 620.905 122.301 620.957 122.322C621.017 122.347 621.122 122.382 621.256 122.382V121.632V120.882C621.382 120.882 621.478 120.914 621.528 120.935C621.552 120.945 621.57 120.954 621.578 120.958C621.586 120.963 621.592 120.966 621.59 120.965C621.583 120.961 621.54 120.936 621.483 120.908L621.154 121.582ZM621.256 121.632L620.732 122.168C620.667 122.104 620.638 122.051 620.633 122.04C620.623 122.022 620.625 122.021 620.633 122.047C620.647 122.1 620.677 122.241 620.677 122.517H621.427H622.177C622.177 122.142 622.138 121.857 622.076 121.638C622.019 121.436 621.927 121.239 621.781 121.096L621.256 121.632ZM621.427 122.517H620.677V143.541H621.427H622.177V122.517H621.427ZM621.427 143.541V142.791H598.607V143.541V144.291H621.427V143.541ZM598.607 143.541V142.791C597.503 142.791 597.215 142.578 597.243 142.6L596.78 143.19L596.318 143.781C596.687 144.07 597.389 144.291 598.607 144.291V143.541ZM596.78 143.19L597.243 142.6C597.24 142.598 597.263 142.616 597.289 142.646C597.316 142.679 597.331 142.708 597.339 142.726C597.346 142.742 597.342 142.739 597.336 142.706C597.331 142.672 597.326 142.614 597.326 142.522H596.576H595.826C595.826 142.817 595.86 143.076 595.953 143.299C596.059 143.556 596.212 143.698 596.318 143.781L596.78 143.19ZM596.576 142.522H597.326C597.326 142.289 597.355 142.152 597.399 142.044C597.445 141.931 597.527 141.798 597.703 141.597L597.139 141.103L596.575 140.609C596.341 140.875 596.142 141.152 596.008 141.481C595.873 141.816 595.826 142.155 595.826 142.522H596.576Z" fill="black" mask="url(#path-11-inside-1_941_35042)"/>
<path d="M576.313 103.054V113.977H564.758V103.054H576.313Z" stroke="black" stroke-width="0.75"/>
</g>
<circle cx="624.598" cy="118.75" r="9" stroke="#69727B" stroke-width="0.75" stroke-dasharray="2.25 2.25"/>
<circle cx="592.5" cy="144.85" r="9" stroke="#69727B" stroke-width="0.75" stroke-dasharray="2.25 2.25"/>
<circle cx="496.203" cy="116.95" r="9" stroke="#69727B" stroke-width="0.75" stroke-dasharray="2.25 2.25"/>
<circle cx="509.703" cy="157.45" r="9" stroke="#69727B" stroke-width="0.75" stroke-dasharray="2.25 2.25"/>
<circle cx="541.203" cy="116.95" r="9" stroke="#69727B" stroke-width="0.75" stroke-dasharray="2.25 2.25"/>
<circle cx="399.75" cy="109.149" r="9" stroke="#69727B" stroke-width="0.75" stroke-dasharray="2.25 2.25"/>
<circle cx="358.5" cy="109.149" r="9" stroke="#69727B" stroke-width="0.75" stroke-dasharray="2.25 2.25"/>
<circle cx="327" cy="160.149" r="9" stroke="#69727B" stroke-width="0.75" stroke-dasharray="2.25 2.25"/>
<circle cx="432" cy="160.149" r="9" stroke="#69727B" stroke-width="0.75" stroke-dasharray="2.25 2.25"/>
<defs>
<linearGradient id="paint0_linear_941_35042" x1="60" y1="171.45" x2="900" y2="171.45" gradientUnits="userSpaceOnUse">
<stop stop-color="#F8F9FA"/>
<stop offset="0.5" stop-color="#626B75"/>
<stop offset="1" stop-color="#F8F9FA"/>
</linearGradient>
<linearGradient id="paint1_linear_941_35042" x1="60" y1="102.899" x2="900" y2="102.899" gradientUnits="userSpaceOnUse">
<stop stop-color="#F8F9FA"/>
<stop offset="0.5" stop-color="#626B75"/>
<stop offset="1" stop-color="#F8F9FA"/>
</linearGradient>
<linearGradient id="paint2_linear_941_35042" x1="60" y1="168" x2="900" y2="168" gradientUnits="userSpaceOnUse">
<stop stop-color="#F8F9FA"/>
<stop offset="0.5" stop-color="#626B75"/>
<stop offset="1" stop-color="#F8F9FA"/>
</linearGradient>
<linearGradient id="paint3_linear_941_35042" x1="60" y1="99.4502" x2="900" y2="99.4502" gradientUnits="userSpaceOnUse">
<stop stop-color="#F8F9FA"/>
<stop offset="0.5" stop-color="#626B75"/>
<stop offset="1" stop-color="#F8F9FA"/>
</linearGradient>
<clipPath id="clip0_941_35042">
<rect width="325.714" height="72" fill="white" transform="translate(316.5 99.25)"/>
</clipPath>
</defs>
</svg>
