<svg width="210" height="115" viewBox="0 0 210 115" fill="none" xmlns="http://www.w3.org/2000/svg">
<g clip-path="url(#clip0_4_2)">
<path d="M194.74 30.13C198.83 30.13 202.5 28.62 205.37 25.75C208.23 22.88 209.74 19.21 209.74 15.13C209.74 11.05 208.23 7.25 205.36 4.39C202.49 1.52 198.82 0 194.73 0C190.64 0 186.85 1.52 183.99 4.39C181.12 7.25 179.6 10.97 179.6 15.13C179.6 19.29 181.12 22.89 183.98 25.75C186.85 28.62 190.56 30.13 194.72 30.13H194.74Z" fill="#6B4634"/>
<path d="M168.48 35.09C165.87 34.55 163.18 34.28 160.49 34.28C146.26 34.28 133.77 41.81 126.77 53.1C125.12 50.4 123.17 47.94 120.97 45.74C117.39 42.17 113.16 39.3 108.38 37.2C103.5 35.07 98.22 33.99 92.68 33.99C87.14 33.99 81.98 35.07 77.12 37.2C74.93 38.16 72.86 39.28 70.9 40.56C71.34 40.95 71.76 41.35 72.17 41.77C76.25 45.86 79.51 50.71 81.85 56.18C82.8 58.4 83.56 60.71 84.13 63.06C85.08 62.33 86.12 61.71 87.29 61.22C88.96 60.5 90.71 60.16 92.67 60.16C94.63 60.16 96.39 60.5 98.06 61.22C99.78 61.95 101.23 62.93 102.5 64.2C103.76 65.48 104.74 66.93 105.47 68.65C106.18 70.32 106.53 72.07 106.53 74.03C106.53 75.99 106.18 77.75 105.47 79.42C104.74 81.13 103.76 82.59 102.5 83.85C101.23 85.12 99.77 86.09 98.06 86.84C96.39 87.55 94.62 87.9 92.67 87.9C90.72 87.9 88.96 87.55 87.29 86.84C85.57 86.09 84.11 85.12 82.84 83.85C81.58 82.59 80.6 81.13 79.86 79.42C79.84 79.38 79.82 79.33 79.81 79.3V74.03C79.81 72.48 79.72 70.97 79.55 69.46C79.13 65.6 78.18 61.89 76.69 58.39C74.63 53.59 71.77 49.34 68.18 45.75C67.58 45.15 66.96 44.57 66.33 44.01C63.18 41.23 59.58 38.97 55.61 37.21C50.73 35.08 45.45 34 39.9 34C34.35 34 29.2 35.08 24.32 37.21C19.55 39.3 15.3 42.15 11.7 45.71C8.06999 49.3 5.16999 53.57 3.10999 58.39C1.02999 63.26 -0.0100098 68.51 -0.0100098 74.03V100.93C-0.0100098 104.49 1.28999 107.68 3.76999 110.15C6.24999 112.63 9.43999 113.93 13 113.93C16.56 113.93 19.76 112.63 22.24 110.15C23.91 108.48 25.04 106.49 25.62 104.27C25.89 103.2 26.03 102.08 26.03 100.92V74.02C26.03 72.06 26.38 70.31 27.08 68.64C27.83 66.91 28.8 65.47 30.07 64.19C31.32 62.92 32.79 61.95 34.52 61.21C36.19 60.49 37.94 60.15 39.9 60.15C41.86 60.15 43.61 60.49 45.28 61.21C47.01 61.94 48.46 62.92 49.73 64.19C51 65.47 51.97 66.92 52.7 68.64C52.81 68.9 52.92 69.18 53.01 69.45C53.52 70.87 53.77 72.38 53.77 74.02V100.92C53.77 104.48 55.08 107.67 57.56 110.14C60.04 112.62 63.23 113.92 66.78 113.92C70.33 113.92 73.46 112.65 75.92 110.23C76.32 110.43 76.74 110.62 77.15 110.79C82.01 112.87 87.22 113.91 92.66 113.91C98.1 113.91 103.45 112.87 108.3 110.79C113.09 108.75 117.32 105.9 120.88 102.3C121.56 108.88 127.12 114.02 133.88 114.02C141.1 114.02 146.95 108.17 146.95 100.95V73.94C146.95 66.49 153.02 60.42 160.47 60.42C161.4 60.42 162.31 60.51 163.2 60.69C170.28 62.14 177.19 57.58 178.64 50.51C180.09 43.43 175.53 36.52 168.46 35.07L168.48 35.09Z" fill="#6B4634"/>
<path d="M194.74 34.72C191.18 34.72 187.99 36.03 185.51 38.51C183.03 40.99 181.72 44.18 181.72 47.74V100.9C181.72 104.46 183.03 107.65 185.51 110.13C187.99 112.62 191.18 113.93 194.74 113.93C198.3 113.93 201.49 112.62 203.97 110.14C206.45 107.66 207.76 104.47 207.76 100.91V47.75C207.76 44.19 206.45 41 203.97 38.52C201.49 36.03 198.3 34.72 194.74 34.72Z" fill="#6B4634"/>
</g>
<defs>
<clipPath id="clip0_4_2">
<rect width="209.75" height="114.03" fill="white"/>
</clipPath>
</defs>
</svg>
