<svg width="960" height="250" viewBox="0 0 960 250" fill="none" xmlns="http://www.w3.org/2000/svg">
<rect x="103.409" y="46.0249" width="176.242" height="50.9177" rx="12.783" fill="#FCFAFF"/>
<rect x="103.409" y="46.0249" width="176.242" height="50.9177" rx="12.783" stroke="#E9D7FE" stroke-width="0.543958"/>
<path d="M137.917 65.7298V77.2563H135.357V67.9644H133.32V65.7298H137.917ZM141.411 74.5408C142.217 74.5408 142.811 75.149 142.811 75.9551C142.811 76.7613 142.217 77.3694 141.411 77.3694C140.591 77.3694 139.997 76.7613 139.997 75.9551C139.997 75.149 140.591 74.5408 141.411 74.5408ZM160.565 65.3762V74.3145H158.175V65.3762H160.565ZM153.253 70.2272C152.235 71.6274 150.75 72.5891 149.039 72.674V70.4535C150.948 70.2272 152.277 68.0917 152.32 65.4328L154.724 65.5742C154.724 66.5359 154.554 67.4835 154.243 68.3462L157.722 70.8071L156.322 72.5042L153.253 70.2272ZM152.192 75.3045H160.735V77.4543H149.76V73.2255H152.192V75.3045ZM175.244 69.7888V72.1082H173.83V77.4543H171.44V65.3762H173.83V69.7888H175.244ZM168.159 65.7015C168.159 67.5259 167.989 69.1665 167.692 70.5808L171.185 75.5025L169.233 76.8744L166.829 73.3528C165.839 75.6157 164.326 76.8744 162.487 76.8885V74.4277C164.425 74.2014 165.712 70.6657 165.726 65.6166L168.159 65.7015ZM185.44 65.3762H187.83V71.6274H185.44V69.5908H183.601C183.121 70.8495 181.763 71.6132 179.924 71.6132C177.605 71.6132 176.049 70.3969 176.049 68.5018C176.049 66.6208 177.605 65.3904 179.924 65.3904C181.735 65.3904 183.078 66.1399 183.573 67.3562H185.44V65.3762ZM179.924 69.6898C180.844 69.6898 181.423 69.2231 181.423 68.5018C181.423 67.7805 180.844 67.3138 179.924 67.3138C179.005 67.3138 178.425 67.7805 178.425 68.5018C178.425 69.2231 179.005 69.6898 179.924 69.6898ZM185.482 72.8437V72.0517H187.83V77.4543H177.166V72.0517H179.514V72.8437H185.482ZM179.514 75.5591H185.482V74.6964H179.514V75.5591ZM201.18 65.3762V70.7364H190.431V65.3762H192.765V66.2814H198.846V65.3762H201.18ZM192.765 68.9402H198.846V68.0351H192.765V68.9402ZM189.696 71.4294H201.915V73.3811H197.008V74.8237H194.603V73.3811H189.696V71.4294ZM192.836 74.06V75.4884H201.35V77.4543H190.403V74.06H192.836ZM216.057 70.1141H214.643V71.9668H216.057V74.2014H214.643V77.4543H212.253V65.3762H214.643V67.8795H216.057V70.1141ZM207.274 65.5176C209.523 65.5176 211.008 67.2997 211.008 71.2738C211.008 75.248 209.523 77.03 207.274 77.03C205.025 77.03 203.526 75.248 203.526 71.2738C203.526 67.2997 205.025 65.5176 207.274 65.5176ZM207.274 74.8378C208.052 74.8378 208.646 73.9892 208.646 71.2738C208.646 68.5725 208.052 67.7098 207.274 67.7098C206.482 67.7098 205.888 68.5725 205.888 71.2738C205.888 73.9892 206.482 74.8378 207.274 74.8378ZM232.013 71.9527L226.851 69.9585C225.493 71.189 223.471 71.9244 221.321 71.9385V69.7605C223.174 69.7322 224.984 68.9544 225.705 67.6815H221.533V65.5176H232.423V67.6815H228.35C228.307 67.8512 228.237 68.0209 228.166 68.1765L232.918 69.9727L232.013 71.9527ZM233.088 72.8154V75.0217H228.194V77.7371H225.762V75.0217H220.868V72.8154H233.088ZM241.813 74.8095H246.692V77.03H234.472V74.8095H239.38V72.8154H235.137V65.6591H246.027V67.8795H237.584V70.6091H246.169V72.8154H241.813V74.8095Z" fill="#7A4ED0"/>
<path d="M191.531 112.083C189.528 112.083 187.905 113.706 187.905 115.709C187.905 117.712 189.528 119.335 191.531 119.335C193.534 119.335 195.158 117.712 195.158 115.709C195.158 113.706 193.534 112.083 191.531 112.083ZM191.531 165.753L195.457 158.954L187.606 158.954L191.531 165.753ZM190.851 116.265C190.851 116.641 191.156 116.945 191.531 116.945C191.907 116.945 192.211 116.641 192.211 116.265L191.531 116.265L190.851 116.265ZM192.211 120.713C192.211 120.338 191.907 120.033 191.531 120.033C191.156 120.033 190.851 120.338 190.851 120.713L191.531 120.713L192.211 120.713ZM190.851 121.825C190.851 122.201 191.156 122.505 191.531 122.505C191.907 122.505 192.211 122.201 192.211 121.825L191.531 121.825L190.851 121.825ZM192.211 126.274C192.211 125.898 191.907 125.594 191.531 125.594C191.156 125.594 190.851 125.898 190.851 126.274L191.531 126.274L192.211 126.274ZM190.851 127.386C190.851 127.761 191.156 128.066 191.531 128.066C191.907 128.066 192.211 127.761 192.211 127.386L191.531 127.386L190.851 127.386ZM192.211 131.834C192.211 131.459 191.907 131.154 191.531 131.154C191.156 131.154 190.851 131.459 190.851 131.834L191.531 131.834L192.211 131.834ZM190.851 132.946C190.851 133.322 191.156 133.626 191.531 133.626C191.907 133.626 192.211 133.322 192.211 132.946L191.531 132.946L190.851 132.946ZM192.211 137.395C192.211 137.019 191.907 136.715 191.531 136.715C191.156 136.715 190.851 137.019 190.851 137.395L191.531 137.395L192.211 137.395ZM190.851 138.507C190.851 138.882 191.156 139.187 191.531 139.187C191.907 139.187 192.211 138.882 192.211 138.507L191.531 138.507L190.851 138.507ZM192.211 142.955C192.211 142.58 191.907 142.275 191.531 142.275C191.156 142.275 190.851 142.58 190.851 142.955L191.531 142.955L192.211 142.955ZM190.851 144.067C190.851 144.443 191.156 144.747 191.531 144.747C191.907 144.747 192.211 144.443 192.211 144.067L191.531 144.067L190.851 144.067ZM192.211 148.516C192.211 148.14 191.907 147.836 191.531 147.836C191.156 147.836 190.851 148.14 190.851 148.516L191.531 148.516L192.211 148.516ZM190.851 149.628C190.851 150.003 191.156 150.308 191.531 150.308C191.907 150.308 192.211 150.003 192.211 149.628L191.531 149.628L190.851 149.628ZM192.211 154.076C192.211 153.701 191.907 153.396 191.531 153.396C191.156 153.396 190.851 153.701 190.851 154.076L191.531 154.076L192.211 154.076ZM190.851 155.188C190.851 155.564 191.156 155.868 191.531 155.868C191.907 155.868 192.211 155.564 192.211 155.188L191.531 155.188L190.851 155.188ZM192.211 159.637C192.211 159.261 191.907 158.957 191.531 158.957C191.156 158.957 190.851 159.261 190.851 159.637L191.531 159.637L192.211 159.637ZM190.851 160.749C190.851 161.124 191.156 161.429 191.531 161.429C191.907 161.429 192.211 161.124 192.211 160.749L191.531 160.749L190.851 160.749ZM192.211 165.197C192.211 164.822 191.907 164.517 191.531 164.517C191.156 164.517 190.851 164.822 190.851 165.197L191.531 165.197L192.211 165.197ZM191.531 115.709L190.851 115.709L190.851 116.265L191.531 116.265L192.211 116.265L192.211 115.709L191.531 115.709ZM191.531 120.713L190.851 120.713L190.851 121.825L191.531 121.825L192.211 121.825L192.211 120.713L191.531 120.713ZM191.531 126.274L190.851 126.274L190.851 127.386L191.531 127.386L192.211 127.386L192.211 126.274L191.531 126.274ZM191.531 131.834L190.851 131.834L190.851 132.946L191.531 132.946L192.211 132.946L192.211 131.834L191.531 131.834ZM191.531 137.395L190.851 137.395L190.851 138.507L191.531 138.507L192.211 138.507L192.211 137.395L191.531 137.395ZM191.531 142.955L190.851 142.955L190.851 144.067L191.531 144.067L192.211 144.067L192.211 142.955L191.531 142.955ZM191.531 148.516L190.851 148.516L190.851 149.628L191.531 149.628L192.211 149.628L192.211 148.516L191.531 148.516ZM191.531 154.076L190.851 154.076L190.851 155.188L191.531 155.188L192.211 155.188L192.211 154.076L191.531 154.076ZM191.531 159.637L190.851 159.637L190.851 160.749L191.531 160.749L192.211 160.749L192.211 159.637L191.531 159.637ZM191.531 112.083C189.528 112.083 187.905 113.706 187.905 115.709C187.905 117.712 189.528 119.335 191.531 119.335C193.534 119.335 195.158 117.712 195.158 115.709C195.158 113.706 193.534 112.083 191.531 112.083ZM191.531 165.753L195.457 158.954L187.606 158.954L191.531 165.753ZM190.851 116.265C190.851 116.641 191.156 116.945 191.531 116.945C191.907 116.945 192.211 116.641 192.211 116.265L191.531 116.265L190.851 116.265ZM192.211 120.713C192.211 120.338 191.907 120.033 191.531 120.033C191.156 120.033 190.851 120.338 190.851 120.713L191.531 120.713L192.211 120.713ZM190.851 121.825C190.851 122.201 191.156 122.505 191.531 122.505C191.907 122.505 192.211 122.201 192.211 121.825L191.531 121.825L190.851 121.825ZM192.211 126.274C192.211 125.898 191.907 125.594 191.531 125.594C191.156 125.594 190.851 125.898 190.851 126.274L191.531 126.274L192.211 126.274ZM190.851 127.386C190.851 127.761 191.156 128.066 191.531 128.066C191.907 128.066 192.211 127.761 192.211 127.386L191.531 127.386L190.851 127.386ZM192.211 131.834C192.211 131.459 191.907 131.154 191.531 131.154C191.156 131.154 190.851 131.459 190.851 131.834L191.531 131.834L192.211 131.834ZM190.851 132.946C190.851 133.322 191.156 133.626 191.531 133.626C191.907 133.626 192.211 133.322 192.211 132.946L191.531 132.946L190.851 132.946ZM192.211 137.395C192.211 137.019 191.907 136.715 191.531 136.715C191.156 136.715 190.851 137.019 190.851 137.395L191.531 137.395L192.211 137.395ZM190.851 138.507C190.851 138.882 191.156 139.187 191.531 139.187C191.907 139.187 192.211 138.882 192.211 138.507L191.531 138.507L190.851 138.507ZM192.211 142.955C192.211 142.58 191.907 142.275 191.531 142.275C191.156 142.275 190.851 142.58 190.851 142.955L191.531 142.955L192.211 142.955ZM190.851 144.067C190.851 144.443 191.156 144.747 191.531 144.747C191.907 144.747 192.211 144.443 192.211 144.067L191.531 144.067L190.851 144.067ZM192.211 148.516C192.211 148.14 191.907 147.836 191.531 147.836C191.156 147.836 190.851 148.14 190.851 148.516L191.531 148.516L192.211 148.516ZM190.851 149.628C190.851 150.003 191.156 150.308 191.531 150.308C191.907 150.308 192.211 150.003 192.211 149.628L191.531 149.628L190.851 149.628ZM192.211 154.076C192.211 153.701 191.907 153.396 191.531 153.396C191.156 153.396 190.851 153.701 190.851 154.076L191.531 154.076L192.211 154.076ZM190.851 155.188C190.851 155.564 191.156 155.868 191.531 155.868C191.907 155.868 192.211 155.564 192.211 155.188L191.531 155.188L190.851 155.188ZM192.211 159.637C192.211 159.261 191.907 158.957 191.531 158.957C191.156 158.957 190.851 159.261 190.851 159.637L191.531 159.637L192.211 159.637ZM190.851 160.749C190.851 161.124 191.156 161.429 191.531 161.429C191.907 161.429 192.211 161.124 192.211 160.749L191.531 160.749L190.851 160.749ZM192.211 165.197C192.211 164.822 191.907 164.517 191.531 164.517C191.156 164.517 190.851 164.822 190.851 165.197L191.531 165.197L192.211 165.197ZM191.531 115.709L190.851 115.709L190.851 116.265L191.531 116.265L192.211 116.265L192.211 115.709L191.531 115.709ZM191.531 120.713L190.851 120.713L190.851 121.825L191.531 121.825L192.211 121.825L192.211 120.713L191.531 120.713ZM191.531 126.274L190.851 126.274L190.851 127.386L191.531 127.386L192.211 127.386L192.211 126.274L191.531 126.274ZM191.531 131.834L190.851 131.834L190.851 132.946L191.531 132.946L192.211 132.946L192.211 131.834L191.531 131.834ZM191.531 137.395L190.851 137.395L190.851 138.507L191.531 138.507L192.211 138.507L192.211 137.395L191.531 137.395ZM191.531 142.955L190.851 142.955L190.851 144.067L191.531 144.067L192.211 144.067L192.211 142.955L191.531 142.955ZM191.531 148.516L190.851 148.516L190.851 149.628L191.531 149.628L192.211 149.628L192.211 148.516L191.531 148.516ZM191.531 154.076L190.851 154.076L190.851 155.188L191.531 155.188L192.211 155.188L192.211 154.076L191.531 154.076ZM191.531 159.637L190.851 159.637L190.851 160.749L191.531 160.749L192.211 160.749L192.211 159.637L191.531 159.637Z" fill="#868E96"/>
<path d="M110.374 193.662L111.466 190.044H112.812L112.177 193.662H110.374ZM113.192 193.662L114.284 190.044H115.63L114.995 193.662H113.192ZM120.441 191.732C120.435 193.713 120.981 195.592 122.612 196.455L121.66 197.737C120.657 197.191 120.016 196.258 119.635 195.116C119.223 196.392 118.524 197.458 117.483 198.08L116.468 196.899C118.201 195.865 118.861 193.802 118.867 191.847V189.854H120.441V191.732ZM122.625 199.883V189.028H124.148V193.37H125.151V188.863H126.7V200.416H125.151V194.665H124.148V199.883H122.625ZM138.494 197.801V199.134H127.919V197.801H132.375V196.062H129.138V192.177H135.676V190.907H129.125V189.612H137.275V193.446H130.763V194.741H137.542V196.062H133.987V197.801H138.494ZM149.717 194.487V195.782H145.337V197.788H143.699V195.782H139.142V194.487H149.717ZM140.233 191.479C140.233 190.012 141.909 189.092 144.423 189.079C146.924 189.092 148.593 190.012 148.6 191.479C148.593 192.951 146.924 193.865 144.423 193.865C141.909 193.865 140.233 192.951 140.233 191.479ZM140.398 200.213V196.76H142.036V198.905H148.549V200.213H140.398ZM141.985 191.479C141.979 192.183 142.931 192.564 144.423 192.57C145.915 192.564 146.86 192.183 146.86 191.479C146.86 190.742 145.915 190.361 144.423 190.361C142.931 190.361 141.979 190.742 141.985 191.479ZM162.806 194.03V195.312H159.454V197.775H163.961V199.096H153.386V197.775H157.842V195.312H154.63V189.676H162.717V190.971H156.255V194.03H162.806ZM174.358 188.876V197.306H172.746V193.167H170.854V191.859H172.746V188.876H174.358ZM164.558 194.703C166.468 194.106 167.332 192.602 167.338 191.123V190.945H165.015V189.65H171.286V190.945H168.988V191.136C168.982 192.475 169.807 193.903 171.642 194.5L170.842 195.782C169.566 195.363 168.684 194.525 168.182 193.491C167.668 194.64 166.748 195.573 165.383 196.023L164.558 194.703ZM166.69 200.213V196.569H168.315V198.918H174.638V200.213H166.69ZM178.294 198.309L177.202 201.927H175.856L176.491 198.309H178.294ZM191.332 188.863V191.707H192.894V193.065H191.332V195.833H189.707V188.863H191.332ZM182.166 191.187V189.904H184.794V188.8H186.406V189.904H189.021V191.187H182.166ZM182.725 193.611C182.725 192.393 183.893 191.542 185.594 191.542C187.276 191.542 188.438 192.393 188.438 193.611C188.438 194.862 187.276 195.7 185.594 195.706C183.893 195.7 182.725 194.862 182.725 193.611ZM183.778 200.289V196.341H191.332V200.289H183.778ZM184.312 193.611C184.305 194.202 184.819 194.506 185.594 194.513C186.375 194.506 186.901 194.202 186.901 193.611C186.901 193.059 186.375 192.754 185.594 192.761C184.819 192.754 184.305 193.059 184.312 193.611ZM185.378 198.994H189.732V197.61H185.378V198.994ZM196.245 190.184C196.232 193.072 195.953 195.655 194.48 197.94L193.224 197.28C194.411 195.484 194.766 193.726 194.842 191.491H193.604V190.184H196.245ZM195.839 197.839C197.134 195.871 197.394 193.833 197.451 191.491H196.575V190.184H198.835C198.835 191.199 198.81 192.208 198.721 193.192H199.711V189.117H201.234V199.908H199.711V194.5H198.556C198.314 195.916 197.876 197.274 197.07 198.524L195.839 197.839ZM201.958 200.416V188.863H203.507V200.416H201.958ZM218.386 193.243V194.563H216.748V200.391H215.123V188.863H216.748V193.243H218.386ZM208.001 197.572V189.968H209.613V196.233C211.092 196.208 212.679 196.068 214.349 195.731L214.514 197.077C212.578 197.471 210.705 197.572 209.004 197.572H208.001ZM221.979 189.676C223.743 189.676 225.019 191.269 225.025 193.789C225.019 196.328 223.743 197.915 221.979 197.915C220.208 197.915 218.925 196.328 218.932 193.789C218.925 191.269 220.208 189.676 221.979 189.676ZM220.493 193.789C220.493 195.509 221.096 196.449 221.979 196.442C222.88 196.449 223.47 195.509 223.477 193.789C223.47 192.075 222.88 191.136 221.979 191.136C221.096 191.136 220.493 192.075 220.493 193.789ZM226.358 200.416V188.863H227.983V193.218H229.685V194.563H227.983V200.416H226.358ZM239.219 188.863V193.294H240.856V194.627H239.219V200.391H237.594V188.863H239.219ZM229.977 197.153C232.712 195.782 234.185 193.941 234.49 191.364H230.637V190.044H236.134C236.121 193.497 234.775 196.487 230.891 198.397L229.977 197.153ZM250.721 192.012V193.281H242.646V189.27H244.259V192.012H250.721ZM241.326 195.795V194.525H251.901V195.795H241.326ZM242.545 200.162V196.734H244.17V198.867H250.797V200.162H242.545ZM265.244 188.863V194.678H263.619V188.863H265.244ZM255.735 193.611C258.592 193.091 259.766 191.974 259.938 190.59H256.357V189.282H261.74C261.734 192.456 259.963 194.176 256.307 194.919L255.735 193.611ZM257.487 196.392V195.135H265.244V198.258H259.15V199.045H265.562V200.302H257.513V197.09H263.606V196.392H257.487ZM272.43 190.057L271.338 193.675H269.992L270.627 190.057H272.43ZM267.174 193.675L267.809 190.057H269.611L268.52 193.675H267.174Z" fill="#717680"/>
<rect x="295.424" y="46.0249" width="176.242" height="50.9177" rx="12.783" fill="#FCFAFF"/>
<rect x="295.424" y="46.0249" width="176.242" height="50.9177" rx="12.783" stroke="#E9D7FE" stroke-width="0.543958"/>
<path d="M340.073 65.4186C342.661 65.4186 344.189 66.9461 344.189 69.0392C344.189 70.2414 343.609 71.2738 341.586 73.367L339.932 75.0783H344.415V77.2563H336.17V75.7854L339.946 71.8961C341.332 70.4677 341.657 69.7181 341.657 69.0675C341.657 68.2189 341.19 67.6532 340.073 67.6532C339.026 67.6532 338.461 68.5018 338.461 69.3787H335.929C335.929 67.1158 337.64 65.4186 340.073 65.4186ZM347.031 74.5408C347.837 74.5408 348.431 75.149 348.431 75.9551C348.431 76.7613 347.837 77.3694 347.031 77.3694C346.211 77.3694 345.617 76.7613 345.617 75.9551C345.617 75.149 346.211 74.5408 347.031 74.5408ZM366.185 65.3762V77.4543H363.795V65.3762H366.185ZM362.211 65.6591V67.8371H357.459V74.7105H360.033C361.178 74.7105 362.423 74.4984 363.158 74.159V76.3087C362.423 76.6764 361.093 76.8885 359.934 76.8885H355.04V65.6591H362.211ZM377.399 65.3762H379.789V77.4543H377.399V65.3762ZM373.793 67.8512C373.764 68.9402 373.665 69.9444 373.496 70.8637L377.003 75.4177L375.108 76.832L372.675 73.5225C371.699 75.6723 370.158 76.8744 368.319 76.8885V74.4842C370.087 74.2862 371.303 71.7264 371.388 67.8512H368.659V65.6591H376.381V67.8512H373.793ZM391.06 71.5284V69.0251H389.547V67.0734H391.06V65.3762H393.45V71.5284H391.06ZM389.9 71.0334C389.264 71.288 388.09 71.4152 386.958 71.4152H382.051V65.5176H389.207V67.1724H384.413V67.7098H388.783V69.2231H384.413V69.7605H387.114C388.203 69.7605 389.264 69.6332 389.9 69.4069V71.0334ZM385.007 75.842H393.577V77.4543H382.659V73.9751H391.102V73.5508H382.631V71.9527H393.45V75.4035H385.007V75.842ZM407.016 67.9502H408.628V65.3762H411.018V74.3287H408.628V70.0292H407.016V67.9502ZM403.593 70.5808C402.66 71.8395 401.217 72.7447 399.492 72.7871V70.6232C401.118 70.4959 402.136 69.0958 402.349 67.5542H399.661V65.5176H407.355V67.5542H404.753C404.725 67.9361 404.654 68.3179 404.541 68.6857L407.878 70.991L406.535 72.6881L403.593 70.5808ZM402.646 75.3187H411.188V77.4543H400.213V73.2255H402.646V75.3187ZM420.917 65.8429V67.5259H412.856V65.8429H415.642V65.0085H418.103V65.8429H420.917ZM424.255 68.1624H425.641V70.3404H424.255V74.6964H421.865V65.3762H424.255V68.1624ZM421.172 73.466C420.422 73.7771 419.206 73.8902 418.004 73.8902H412.884V72.1082H415.698V71.5567C414.256 71.3445 413.294 70.7081 413.294 69.7181C413.294 68.4735 414.821 67.7947 416.9 67.7947C418.979 67.7947 420.507 68.4735 420.507 69.7181C420.507 70.7222 419.517 71.3445 418.06 71.5567V72.1082C419.177 72.1082 420.422 71.9951 421.172 71.684V73.466ZM415.529 69.7181C415.529 69.9585 416.066 70.0858 416.9 70.0858C417.735 70.0858 418.272 69.9585 418.272 69.7181C418.272 69.4635 417.735 69.3504 416.9 69.3504C416.066 69.3504 415.529 69.4635 415.529 69.7181ZM416.009 74.3711V75.6015H424.424V77.4543H413.591V74.3711H416.009Z" fill="#7A4ED0"/>
<path d="M383.547 112.083C381.544 112.083 379.92 113.706 379.92 115.709C379.92 117.712 381.544 119.335 383.547 119.335C385.55 119.335 387.173 117.712 387.173 115.709C387.173 113.706 385.55 112.083 383.547 112.083ZM383.547 165.753L387.473 158.954L379.621 158.954L383.547 165.753ZM382.867 116.265C382.867 116.641 383.171 116.945 383.547 116.945C383.922 116.945 384.227 116.641 384.227 116.265L383.547 116.265L382.867 116.265ZM384.227 120.713C384.227 120.338 383.922 120.033 383.547 120.033C383.171 120.033 382.867 120.338 382.867 120.713L383.547 120.713L384.227 120.713ZM382.867 121.825C382.867 122.201 383.171 122.505 383.547 122.505C383.922 122.505 384.227 122.201 384.227 121.825L383.547 121.825L382.867 121.825ZM384.227 126.274C384.227 125.898 383.922 125.594 383.547 125.594C383.171 125.594 382.867 125.898 382.867 126.274L383.547 126.274L384.227 126.274ZM382.867 127.386C382.867 127.761 383.171 128.066 383.547 128.066C383.922 128.066 384.227 127.761 384.227 127.386L383.547 127.386L382.867 127.386ZM384.227 131.834C384.227 131.459 383.922 131.154 383.547 131.154C383.171 131.154 382.867 131.459 382.867 131.834L383.547 131.834L384.227 131.834ZM382.867 132.946C382.867 133.322 383.171 133.626 383.547 133.626C383.922 133.626 384.227 133.322 384.227 132.946L383.547 132.946L382.867 132.946ZM384.227 137.395C384.227 137.019 383.922 136.715 383.547 136.715C383.171 136.715 382.867 137.019 382.867 137.395L383.547 137.395L384.227 137.395ZM382.867 138.507C382.867 138.882 383.171 139.187 383.547 139.187C383.922 139.187 384.227 138.882 384.227 138.507L383.547 138.507L382.867 138.507ZM384.227 142.955C384.227 142.58 383.922 142.275 383.547 142.275C383.171 142.275 382.867 142.58 382.867 142.955L383.547 142.955L384.227 142.955ZM382.867 144.067C382.867 144.443 383.171 144.747 383.547 144.747C383.922 144.747 384.227 144.443 384.227 144.067L383.547 144.067L382.867 144.067ZM384.227 148.516C384.227 148.14 383.922 147.836 383.547 147.836C383.171 147.836 382.867 148.14 382.867 148.516L383.547 148.516L384.227 148.516ZM382.867 149.628C382.867 150.003 383.171 150.308 383.547 150.308C383.922 150.308 384.227 150.003 384.227 149.628L383.547 149.628L382.867 149.628ZM384.227 154.076C384.227 153.701 383.922 153.396 383.547 153.396C383.171 153.396 382.867 153.701 382.867 154.076L383.547 154.076L384.227 154.076ZM382.867 155.188C382.867 155.564 383.171 155.868 383.547 155.868C383.922 155.868 384.227 155.564 384.227 155.188L383.547 155.188L382.867 155.188ZM384.227 159.637C384.227 159.261 383.922 158.957 383.547 158.957C383.171 158.957 382.867 159.261 382.867 159.637L383.547 159.637L384.227 159.637ZM382.867 160.749C382.867 161.124 383.171 161.429 383.547 161.429C383.922 161.429 384.227 161.124 384.227 160.749L383.547 160.749L382.867 160.749ZM384.227 165.197C384.227 164.822 383.922 164.517 383.547 164.517C383.171 164.517 382.867 164.822 382.867 165.197L383.547 165.197L384.227 165.197ZM383.547 115.709L382.867 115.709L382.867 116.265L383.547 116.265L384.227 116.265L384.227 115.709L383.547 115.709ZM383.547 120.713L382.867 120.713L382.867 121.825L383.547 121.825L384.227 121.825L384.227 120.713L383.547 120.713ZM383.547 126.274L382.867 126.274L382.867 127.386L383.547 127.386L384.227 127.386L384.227 126.274L383.547 126.274ZM383.547 131.834L382.867 131.834L382.867 132.946L383.547 132.946L384.227 132.946L384.227 131.834L383.547 131.834ZM383.547 137.395L382.867 137.395L382.867 138.507L383.547 138.507L384.227 138.507L384.227 137.395L383.547 137.395ZM383.547 142.955L382.867 142.955L382.867 144.067L383.547 144.067L384.227 144.067L384.227 142.955L383.547 142.955ZM383.547 148.516L382.867 148.516L382.867 149.628L383.547 149.628L384.227 149.628L384.227 148.516L383.547 148.516ZM383.547 154.076L382.867 154.076L382.867 155.188L383.547 155.188L384.227 155.188L384.227 154.076L383.547 154.076ZM383.547 159.637L382.867 159.637L382.867 160.749L383.547 160.749L384.227 160.749L384.227 159.637L383.547 159.637ZM383.547 112.083C381.544 112.083 379.92 113.706 379.92 115.709C379.92 117.712 381.544 119.335 383.547 119.335C385.55 119.335 387.173 117.712 387.173 115.709C387.173 113.706 385.55 112.083 383.547 112.083ZM383.547 165.753L387.473 158.954L379.621 158.954L383.547 165.753ZM382.867 116.265C382.867 116.641 383.171 116.945 383.547 116.945C383.922 116.945 384.227 116.641 384.227 116.265L383.547 116.265L382.867 116.265ZM384.227 120.713C384.227 120.338 383.922 120.033 383.547 120.033C383.171 120.033 382.867 120.338 382.867 120.713L383.547 120.713L384.227 120.713ZM382.867 121.825C382.867 122.201 383.171 122.505 383.547 122.505C383.922 122.505 384.227 122.201 384.227 121.825L383.547 121.825L382.867 121.825ZM384.227 126.274C384.227 125.898 383.922 125.594 383.547 125.594C383.171 125.594 382.867 125.898 382.867 126.274L383.547 126.274L384.227 126.274ZM382.867 127.386C382.867 127.761 383.171 128.066 383.547 128.066C383.922 128.066 384.227 127.761 384.227 127.386L383.547 127.386L382.867 127.386ZM384.227 131.834C384.227 131.459 383.922 131.154 383.547 131.154C383.171 131.154 382.867 131.459 382.867 131.834L383.547 131.834L384.227 131.834ZM382.867 132.946C382.867 133.322 383.171 133.626 383.547 133.626C383.922 133.626 384.227 133.322 384.227 132.946L383.547 132.946L382.867 132.946ZM384.227 137.395C384.227 137.019 383.922 136.715 383.547 136.715C383.171 136.715 382.867 137.019 382.867 137.395L383.547 137.395L384.227 137.395ZM382.867 138.507C382.867 138.882 383.171 139.187 383.547 139.187C383.922 139.187 384.227 138.882 384.227 138.507L383.547 138.507L382.867 138.507ZM384.227 142.955C384.227 142.58 383.922 142.275 383.547 142.275C383.171 142.275 382.867 142.58 382.867 142.955L383.547 142.955L384.227 142.955ZM382.867 144.067C382.867 144.443 383.171 144.747 383.547 144.747C383.922 144.747 384.227 144.443 384.227 144.067L383.547 144.067L382.867 144.067ZM384.227 148.516C384.227 148.14 383.922 147.836 383.547 147.836C383.171 147.836 382.867 148.14 382.867 148.516L383.547 148.516L384.227 148.516ZM382.867 149.628C382.867 150.003 383.171 150.308 383.547 150.308C383.922 150.308 384.227 150.003 384.227 149.628L383.547 149.628L382.867 149.628ZM384.227 154.076C384.227 153.701 383.922 153.396 383.547 153.396C383.171 153.396 382.867 153.701 382.867 154.076L383.547 154.076L384.227 154.076ZM382.867 155.188C382.867 155.564 383.171 155.868 383.547 155.868C383.922 155.868 384.227 155.564 384.227 155.188L383.547 155.188L382.867 155.188ZM384.227 159.637C384.227 159.261 383.922 158.957 383.547 158.957C383.171 158.957 382.867 159.261 382.867 159.637L383.547 159.637L384.227 159.637ZM382.867 160.749C382.867 161.124 383.171 161.429 383.547 161.429C383.922 161.429 384.227 161.124 384.227 160.749L383.547 160.749L382.867 160.749ZM384.227 165.197C384.227 164.822 383.922 164.517 383.547 164.517C383.171 164.517 382.867 164.822 382.867 165.197L383.547 165.197L384.227 165.197ZM383.547 115.709L382.867 115.709L382.867 116.265L383.547 116.265L384.227 116.265L384.227 115.709L383.547 115.709ZM383.547 120.713L382.867 120.713L382.867 121.825L383.547 121.825L384.227 121.825L384.227 120.713L383.547 120.713ZM383.547 126.274L382.867 126.274L382.867 127.386L383.547 127.386L384.227 127.386L384.227 126.274L383.547 126.274ZM383.547 131.834L382.867 131.834L382.867 132.946L383.547 132.946L384.227 132.946L384.227 131.834L383.547 131.834ZM383.547 137.395L382.867 137.395L382.867 138.507L383.547 138.507L384.227 138.507L384.227 137.395L383.547 137.395ZM383.547 142.955L382.867 142.955L382.867 144.067L383.547 144.067L384.227 144.067L384.227 142.955L383.547 142.955ZM383.547 148.516L382.867 148.516L382.867 149.628L383.547 149.628L384.227 149.628L384.227 148.516L383.547 148.516ZM383.547 154.076L382.867 154.076L382.867 155.188L383.547 155.188L384.227 155.188L384.227 154.076L383.547 154.076ZM383.547 159.637L382.867 159.637L382.867 160.749L383.547 160.749L384.227 160.749L384.227 159.637L383.547 159.637Z" fill="#868E96"/>
<path d="M328.39 193.662L329.481 190.044H330.827L330.192 193.662H328.39ZM331.208 193.662L332.3 190.044H333.646L333.011 193.662H331.208ZM338.952 191.479C338.946 193.548 339.828 195.636 341.682 196.531L340.704 197.826C339.466 197.21 338.628 196.068 338.152 194.678C337.645 196.169 336.756 197.395 335.448 198.042L334.445 196.734C336.407 195.833 337.327 193.624 337.327 191.479V189.752H338.952V191.479ZM342.189 200.416V188.863H343.814V193.319H345.516V194.69H343.814V200.416H342.189ZM355.101 188.876V191.605H356.662V192.951H355.101V195.731H353.476V188.876H355.101ZM346.341 190.729V189.435H351.647V192.951H347.966V193.992C349.87 193.979 351.165 193.922 352.638 193.662L352.815 194.932C351.159 195.255 349.673 195.312 347.331 195.312H346.354V191.732H350.073V190.729H346.341ZM347.534 200.289V196.214H355.101V200.289H347.534ZM349.121 198.994H353.514V197.483H349.121V198.994ZM363.67 190.019V190.945C363.657 192.031 363.657 193.453 363.353 195.376L361.753 195.249C362.02 193.573 362.045 192.335 362.058 191.313H357.678V190.019H363.67ZM357.068 196.76C357.716 196.76 358.439 196.753 359.188 196.734V193.332H360.788V196.684C361.924 196.639 363.073 196.557 364.14 196.417L364.241 197.623C361.861 198.023 359.246 198.067 357.221 198.055L357.068 196.76ZM364.686 200.416V188.863H366.323V193.51H367.897V194.855H366.323V200.416H364.686ZM381.113 188.863V200.416H379.476V188.863H381.113ZM371.439 197.141C374.423 195.731 375.737 193.903 375.997 191.339H372.062V190.069H377.647C377.641 193.573 376.416 196.487 372.29 198.436L371.439 197.141ZM388.743 189.168C388.743 190.298 390.07 191.434 392.653 191.707L392.12 192.926C390.114 192.704 388.642 191.948 387.899 190.888C387.15 191.948 385.684 192.704 383.703 192.926L383.157 191.707C385.747 191.434 387.067 190.298 387.08 189.168V188.927H388.743V189.168ZM382.637 194.678V193.408H393.174V194.678H388.705V195.439H391.892V198.423H385.455V199.121H392.196V200.34H383.868V197.28H390.292V196.671H383.855V195.439H387.08V194.678H382.637ZM399.141 189.028C401.8 189.028 403.336 189.727 403.343 190.996C403.336 192.285 401.8 192.977 399.141 192.977C396.475 192.977 394.926 192.285 394.926 190.996C394.926 189.727 396.475 189.028 399.141 189.028ZM393.872 194.805V193.522H404.409V194.805H393.872ZM395.091 196.658V195.478H403.127V198.423H396.69V199.121H403.432V200.34H395.104V197.293H401.527V196.658H395.091ZM396.627 190.996C396.621 191.561 397.446 191.783 399.141 191.783C400.848 191.783 401.667 191.561 401.667 190.996C401.667 190.482 400.848 190.209 399.141 190.209C397.446 190.209 396.621 190.482 396.627 190.996ZM417.777 188.863V196.557H416.152V188.863H417.777ZM408.281 192.393C408.281 190.736 409.64 189.574 411.442 189.574C413.239 189.574 414.597 190.736 414.604 192.393C414.597 194.056 413.239 195.23 411.442 195.224C409.64 195.23 408.281 194.056 408.281 192.393ZM409.31 199.096C411.772 198.766 412.991 197.496 412.991 196.201V195.96H414.692V196.201C414.68 197.49 415.892 198.753 418.361 199.096L417.727 200.378C415.86 200.073 414.521 199.254 413.835 198.125C413.137 199.248 411.798 200.073 409.944 200.378L409.31 199.096ZM409.868 192.393C409.855 193.307 410.516 193.853 411.442 193.853C412.344 193.853 412.998 193.307 413.004 192.393C412.998 191.479 412.344 190.952 411.442 190.958C410.516 190.952 409.855 191.479 409.868 192.393ZM428.454 188.863V193.154H430.155V194.475H428.454V200.441H426.829V188.863H428.454ZM419.796 197.636V189.93H425.217V191.237H421.408V196.303C423.084 196.29 424.468 196.201 426.004 195.935L426.182 197.293C424.385 197.598 422.811 197.642 420.773 197.636H419.796ZM432.072 199.362C431.476 199.362 430.993 198.886 431.006 198.296C430.993 197.712 431.476 197.236 432.072 197.242C432.637 197.236 433.126 197.712 433.126 198.296C433.126 198.886 432.637 199.362 432.072 199.362ZM438.636 190.057L437.544 193.675H436.198L436.833 190.057H438.636ZM433.38 193.675L434.015 190.057H435.817L434.726 193.675H433.38Z" fill="#717680"/>
<rect x="487.444" y="46.0249" width="176.242" height="50.9177" rx="12.783" fill="#FCFAFF"/>
<rect x="487.444" y="46.0249" width="176.242" height="50.9177" rx="12.783" stroke="#E9D7FE" stroke-width="0.543958"/>
<path d="M535.277 65.4186C537.668 65.4186 539.322 66.8188 539.322 68.8837C539.322 70.2131 538.346 71.189 537.385 71.3587C538.445 71.5284 539.633 72.4477 539.633 73.9327C539.633 76.1531 537.752 77.5391 535.362 77.5391C532.831 77.5391 531.261 76.1248 531.077 73.9044H533.609C533.708 74.8237 534.287 75.3753 535.362 75.3753C536.423 75.3753 537.13 74.7954 537.13 73.9468C537.13 72.9851 536.324 72.476 535.122 72.476H533.976V70.3828H535.122C536.168 70.3828 536.791 69.8171 536.791 68.9402C536.791 68.0917 536.225 67.5684 535.263 67.5684C534.259 67.5684 533.792 68.3745 533.792 69.1948H531.261C531.261 67.0026 532.916 65.4186 535.277 65.4186ZM542.262 74.5408C543.068 74.5408 543.662 75.149 543.662 75.9551C543.662 76.7613 543.068 77.3694 542.262 77.3694C541.442 77.3694 540.848 76.7613 540.848 75.9551C540.848 75.149 541.442 74.5408 542.262 74.5408ZM550.059 77.2563V65.7298H558.629V67.9644H552.633V70.3121H558.134V72.5467H552.633V75.0217H558.757V77.2563H550.059ZM564.97 65.4469C567.544 65.4469 569.467 67.0168 569.595 69.2089H566.936C566.78 68.2048 566.031 67.5967 564.8 67.5967C563.598 67.5967 562.933 68.0775 562.933 68.7705C562.933 69.6332 563.824 69.9302 566.073 70.3969C568.732 70.9485 569.637 72.2638 569.637 73.9892C569.637 76.1955 567.558 77.5391 564.984 77.5391C562.141 77.5391 560.062 75.9975 559.949 73.5367H562.594C562.735 74.6398 563.697 75.3753 565.168 75.3753C566.214 75.3753 566.992 74.852 566.992 74.1024C566.992 73.1831 566.214 72.8154 564.164 72.4335C561.66 71.9668 560.303 70.9344 560.303 68.7705C560.303 66.6915 562.368 65.4469 564.97 65.4469ZM576.806 65.4328C579.819 65.4328 581.997 67.1299 582.661 69.2938H579.833C579.352 68.4452 578.263 67.7947 576.863 67.7947C574.77 67.7947 573.214 69.3362 573.214 71.486C573.214 73.6498 574.77 75.2197 576.863 75.2197C578.659 75.2197 579.903 74.1165 580.172 72.9851H576.651V70.8071H582.916V71.486C582.916 74.9793 580.299 77.5391 576.806 77.5391C573.256 77.5391 570.64 74.9793 570.64 71.486C570.64 67.9927 573.256 65.4328 576.806 65.4328ZM597.465 72.0234V71.189H595.598V69.1524H597.465V68.3604H596.065V66.3238H597.465V65.3762H599.827V72.0234H597.465ZM595.499 67.1582C595.499 70.4818 592.486 71.8537 588.371 71.8537V69.8312C591.199 69.8029 593.066 68.9685 593.066 67.6815V67.4977H588.371V65.5176H595.499V67.1582ZM594.424 72.1931C597.507 72.1931 599.94 72.8861 599.94 74.8944C599.94 76.9027 597.507 77.5957 594.424 77.5957C591.341 77.5957 588.908 76.9027 588.908 74.8944C588.908 72.8861 591.341 72.1931 594.424 72.1931ZM594.424 75.6864C596.05 75.6864 597.366 75.4743 597.366 74.8944C597.366 74.3287 596.05 74.1024 594.424 74.1024C592.798 74.1024 591.482 74.3287 591.482 74.8944C591.482 75.4743 592.798 75.6864 594.424 75.6864ZM609.754 69.0251H611.083V68.0634H609.754L609.612 66.0268H611.083V65.3762H613.431V72.0234H611.083V71.0617H609.612L609.754 69.0251ZM609.358 68.5725C609.358 70.4959 607.816 71.7547 605.511 71.7547C603.206 71.7547 601.664 70.4959 601.664 68.5725C601.664 66.6632 603.206 65.3904 605.511 65.3904C607.816 65.3904 609.358 66.6632 609.358 68.5725ZM604.04 68.5725C604.04 69.3362 604.592 69.8171 605.511 69.8171C606.43 69.8171 606.982 69.3362 606.982 68.5725C606.982 67.8088 606.43 67.3279 605.511 67.3279C604.592 67.3279 604.04 67.8088 604.04 68.5725ZM608.099 72.1931C611.14 72.1931 613.544 72.8861 613.544 74.8944C613.544 76.9027 611.14 77.5957 608.099 77.5957C605.058 77.5957 602.654 76.9027 602.654 74.8944C602.654 72.8861 605.058 72.1931 608.099 72.1931ZM608.099 75.6864C609.683 75.6864 610.97 75.4743 610.97 74.8944C610.97 74.3287 609.683 74.1024 608.099 74.1024C606.515 74.1024 605.228 74.3287 605.228 74.8944C605.228 75.4743 606.515 75.6864 608.099 75.6864Z" fill="#7A4ED0"/>
<path d="M575.566 112.083C573.564 112.083 571.94 113.706 571.94 115.709C571.94 117.712 573.564 119.335 575.566 119.335C577.569 119.335 579.193 117.712 579.193 115.709C579.193 113.706 577.569 112.083 575.566 112.083ZM575.566 165.753L579.492 158.954L571.641 158.954L575.566 165.753ZM574.886 116.265C574.886 116.641 575.191 116.945 575.566 116.945C575.942 116.945 576.246 116.641 576.246 116.265L575.566 116.265L574.886 116.265ZM576.246 120.713C576.246 120.338 575.942 120.033 575.566 120.033C575.191 120.033 574.886 120.338 574.886 120.713L575.566 120.713L576.246 120.713ZM574.886 121.825C574.886 122.201 575.191 122.505 575.566 122.505C575.942 122.505 576.246 122.201 576.246 121.825L575.566 121.825L574.886 121.825ZM576.246 126.274C576.246 125.898 575.942 125.594 575.566 125.594C575.191 125.594 574.886 125.898 574.886 126.274L575.566 126.274L576.246 126.274ZM574.886 127.386C574.886 127.761 575.191 128.066 575.566 128.066C575.942 128.066 576.246 127.761 576.246 127.386L575.566 127.386L574.886 127.386ZM576.246 131.834C576.246 131.459 575.942 131.154 575.566 131.154C575.191 131.154 574.886 131.459 574.886 131.834L575.566 131.834L576.246 131.834ZM574.886 132.946C574.886 133.322 575.191 133.626 575.566 133.626C575.942 133.626 576.246 133.322 576.246 132.946L575.566 132.946L574.886 132.946ZM576.246 137.395C576.246 137.019 575.942 136.715 575.566 136.715C575.191 136.715 574.886 137.019 574.886 137.395L575.566 137.395L576.246 137.395ZM574.886 138.507C574.886 138.882 575.191 139.187 575.566 139.187C575.942 139.187 576.246 138.882 576.246 138.507L575.566 138.507L574.886 138.507ZM576.246 142.955C576.246 142.58 575.942 142.275 575.566 142.275C575.191 142.275 574.886 142.58 574.886 142.955L575.566 142.955L576.246 142.955ZM574.886 144.067C574.886 144.443 575.191 144.747 575.566 144.747C575.942 144.747 576.246 144.443 576.246 144.067L575.566 144.067L574.886 144.067ZM576.246 148.516C576.246 148.14 575.942 147.836 575.566 147.836C575.191 147.836 574.886 148.14 574.886 148.516L575.566 148.516L576.246 148.516ZM574.886 149.628C574.886 150.003 575.191 150.308 575.566 150.308C575.942 150.308 576.246 150.003 576.246 149.628L575.566 149.628L574.886 149.628ZM576.246 154.076C576.246 153.701 575.942 153.396 575.566 153.396C575.191 153.396 574.886 153.701 574.886 154.076L575.566 154.076L576.246 154.076ZM574.886 155.188C574.886 155.564 575.191 155.868 575.566 155.868C575.942 155.868 576.246 155.564 576.246 155.188L575.566 155.188L574.886 155.188ZM576.246 159.637C576.246 159.261 575.942 158.957 575.566 158.957C575.191 158.957 574.886 159.261 574.886 159.637L575.566 159.637L576.246 159.637ZM574.886 160.749C574.886 161.124 575.191 161.429 575.566 161.429C575.942 161.429 576.246 161.124 576.246 160.749L575.566 160.749L574.886 160.749ZM576.246 165.197C576.246 164.822 575.942 164.517 575.566 164.517C575.191 164.517 574.886 164.822 574.886 165.197L575.566 165.197L576.246 165.197ZM575.566 115.709L574.886 115.709L574.886 116.265L575.566 116.265L576.246 116.265L576.246 115.709L575.566 115.709ZM575.566 120.713L574.886 120.713L574.886 121.825L575.566 121.825L576.246 121.825L576.246 120.713L575.566 120.713ZM575.566 126.274L574.886 126.274L574.886 127.386L575.566 127.386L576.246 127.386L576.246 126.274L575.566 126.274ZM575.566 131.834L574.886 131.834L574.886 132.946L575.566 132.946L576.246 132.946L576.246 131.834L575.566 131.834ZM575.566 137.395L574.886 137.395L574.886 138.507L575.566 138.507L576.246 138.507L576.246 137.395L575.566 137.395ZM575.566 142.955L574.886 142.955L574.886 144.067L575.566 144.067L576.246 144.067L576.246 142.955L575.566 142.955ZM575.566 148.516L574.886 148.516L574.886 149.628L575.566 149.628L576.246 149.628L576.246 148.516L575.566 148.516ZM575.566 154.076L574.886 154.076L574.886 155.188L575.566 155.188L576.246 155.188L576.246 154.076L575.566 154.076ZM575.566 159.637L574.886 159.637L574.886 160.749L575.566 160.749L576.246 160.749L576.246 159.637L575.566 159.637ZM575.566 112.083C573.564 112.083 571.94 113.706 571.94 115.709C571.94 117.712 573.564 119.335 575.566 119.335C577.569 119.335 579.193 117.712 579.193 115.709C579.193 113.706 577.569 112.083 575.566 112.083ZM575.566 165.753L579.492 158.954L571.641 158.954L575.566 165.753ZM574.886 116.265C574.886 116.641 575.191 116.945 575.566 116.945C575.942 116.945 576.246 116.641 576.246 116.265L575.566 116.265L574.886 116.265ZM576.246 120.713C576.246 120.338 575.942 120.033 575.566 120.033C575.191 120.033 574.886 120.338 574.886 120.713L575.566 120.713L576.246 120.713ZM574.886 121.825C574.886 122.201 575.191 122.505 575.566 122.505C575.942 122.505 576.246 122.201 576.246 121.825L575.566 121.825L574.886 121.825ZM576.246 126.274C576.246 125.898 575.942 125.594 575.566 125.594C575.191 125.594 574.886 125.898 574.886 126.274L575.566 126.274L576.246 126.274ZM574.886 127.386C574.886 127.761 575.191 128.066 575.566 128.066C575.942 128.066 576.246 127.761 576.246 127.386L575.566 127.386L574.886 127.386ZM576.246 131.834C576.246 131.459 575.942 131.154 575.566 131.154C575.191 131.154 574.886 131.459 574.886 131.834L575.566 131.834L576.246 131.834ZM574.886 132.946C574.886 133.322 575.191 133.626 575.566 133.626C575.942 133.626 576.246 133.322 576.246 132.946L575.566 132.946L574.886 132.946ZM576.246 137.395C576.246 137.019 575.942 136.715 575.566 136.715C575.191 136.715 574.886 137.019 574.886 137.395L575.566 137.395L576.246 137.395ZM574.886 138.507C574.886 138.882 575.191 139.187 575.566 139.187C575.942 139.187 576.246 138.882 576.246 138.507L575.566 138.507L574.886 138.507ZM576.246 142.955C576.246 142.58 575.942 142.275 575.566 142.275C575.191 142.275 574.886 142.58 574.886 142.955L575.566 142.955L576.246 142.955ZM574.886 144.067C574.886 144.443 575.191 144.747 575.566 144.747C575.942 144.747 576.246 144.443 576.246 144.067L575.566 144.067L574.886 144.067ZM576.246 148.516C576.246 148.14 575.942 147.836 575.566 147.836C575.191 147.836 574.886 148.14 574.886 148.516L575.566 148.516L576.246 148.516ZM574.886 149.628C574.886 150.003 575.191 150.308 575.566 150.308C575.942 150.308 576.246 150.003 576.246 149.628L575.566 149.628L574.886 149.628ZM576.246 154.076C576.246 153.701 575.942 153.396 575.566 153.396C575.191 153.396 574.886 153.701 574.886 154.076L575.566 154.076L576.246 154.076ZM574.886 155.188C574.886 155.564 575.191 155.868 575.566 155.868C575.942 155.868 576.246 155.564 576.246 155.188L575.566 155.188L574.886 155.188ZM576.246 159.637C576.246 159.261 575.942 158.957 575.566 158.957C575.191 158.957 574.886 159.261 574.886 159.637L575.566 159.637L576.246 159.637ZM574.886 160.749C574.886 161.124 575.191 161.429 575.566 161.429C575.942 161.429 576.246 161.124 576.246 160.749L575.566 160.749L574.886 160.749ZM576.246 165.197C576.246 164.822 575.942 164.517 575.566 164.517C575.191 164.517 574.886 164.822 574.886 165.197L575.566 165.197L576.246 165.197ZM575.566 115.709L574.886 115.709L574.886 116.265L575.566 116.265L576.246 116.265L576.246 115.709L575.566 115.709ZM575.566 120.713L574.886 120.713L574.886 121.825L575.566 121.825L576.246 121.825L576.246 120.713L575.566 120.713ZM575.566 126.274L574.886 126.274L574.886 127.386L575.566 127.386L576.246 127.386L576.246 126.274L575.566 126.274ZM575.566 131.834L574.886 131.834L574.886 132.946L575.566 132.946L576.246 132.946L576.246 131.834L575.566 131.834ZM575.566 137.395L574.886 137.395L574.886 138.507L575.566 138.507L576.246 138.507L576.246 137.395L575.566 137.395ZM575.566 142.955L574.886 142.955L574.886 144.067L575.566 144.067L576.246 144.067L576.246 142.955L575.566 142.955ZM575.566 148.516L574.886 148.516L574.886 149.628L575.566 149.628L576.246 149.628L576.246 148.516L575.566 148.516ZM575.566 154.076L574.886 154.076L574.886 155.188L575.566 155.188L576.246 155.188L576.246 154.076L575.566 154.076ZM575.566 159.637L574.886 159.637L574.886 160.749L575.566 160.749L576.246 160.749L576.246 159.637L575.566 159.637Z" fill="#868E96"/>
<path d="M508.909 193.662L510.001 190.044H511.347L510.712 193.662H508.909ZM511.728 193.662L512.819 190.044H514.165L513.53 193.662H511.728ZM524.385 188.863V191.707H525.946V193.065H524.385V195.833H522.76V188.863H524.385ZM515.219 191.187V189.904H517.847V188.8H519.459V189.904H522.074V191.187H515.219ZM515.777 193.611C515.777 192.393 516.945 191.542 518.646 191.542C520.329 191.542 521.49 192.393 521.49 193.611C521.49 194.862 520.329 195.7 518.646 195.706C516.945 195.7 515.777 194.862 515.777 193.611ZM516.831 200.289V196.341H524.385V200.289H516.831ZM517.364 193.611C517.358 194.202 517.872 194.506 518.646 194.513C519.427 194.506 519.954 194.202 519.954 193.611C519.954 193.059 519.427 192.754 518.646 192.761C517.872 192.754 517.358 193.059 517.364 193.611ZM518.431 198.994H522.785V197.61H518.431V198.994ZM529.298 190.184C529.285 193.072 529.006 195.655 527.533 197.94L526.276 197.28C527.463 195.484 527.819 193.726 527.895 191.491H526.657V190.184H529.298ZM528.892 197.839C530.187 195.871 530.447 193.833 530.504 191.491H529.628V190.184H531.888C531.888 191.199 531.862 192.208 531.773 193.192H532.764V189.117H534.287V199.908H532.764V194.5H531.608C531.367 195.916 530.929 197.274 530.123 198.524L528.892 197.839ZM535.011 200.416V188.863H536.56V200.416H535.011ZM546.576 189.815V195.363H541.028V189.815H546.576ZM542.361 200.213V196.468H543.974V198.918H550.271V200.213H542.361ZM542.628 194.094H544.977V191.11H542.628V194.094ZM548.227 197.293V188.863H549.852V192.189H551.413V193.522H549.852V197.293H548.227ZM561.341 194.208V195.503H553.165V189.828H561.252V191.136H554.765V194.208H561.341ZM551.921 199.007V197.674H562.496V199.007H551.921ZM572.538 192.012V193.281H564.464V189.27H566.076V192.012H572.538ZM563.144 195.795V194.525H573.719V195.795H563.144ZM564.362 200.162V196.734H565.987V198.867H572.614V200.162H564.362ZM581.869 192.012C581.863 193.878 582.828 195.877 584.764 196.684L583.888 197.953C582.529 197.375 581.59 196.227 581.069 194.83C580.549 196.347 579.59 197.617 578.226 198.245L577.299 196.963C579.216 196.106 580.206 193.967 580.206 192.012V191.301H577.756V189.98H584.281V191.301H581.869V192.012ZM585.424 200.416V188.863H587.062V200.416H585.424ZM599.16 194.487V195.782H588.623V194.487H593.079V192.951H594.679V194.487H599.16ZM589.169 192.38C591.721 192.056 593.047 190.736 593.054 189.435V189.054H594.704V189.435C594.698 190.787 595.993 192.056 598.602 192.38L597.979 193.637C596.024 193.345 594.59 192.526 593.86 191.371C593.124 192.52 591.689 193.351 589.74 193.637L589.169 192.38ZM589.791 197.852V196.595H597.878V200.416H596.266V197.852H589.791ZM611.97 188.863V193.294H613.607V194.627H611.97V200.391H610.345V188.863H611.97ZM602.728 197.153C605.463 195.782 606.936 193.941 607.241 191.364H603.388V190.044H608.885C608.872 193.497 607.526 196.487 603.642 198.397L602.728 197.153ZM623.459 191.758V193.053H615.423V189.041H617.035V191.758H623.459ZM614.09 195.363V194.043H624.652V195.363H614.09ZM615.296 198.232C615.296 196.868 616.819 196.093 619.346 196.087C621.853 196.093 623.357 196.868 623.37 198.232C623.357 199.61 621.853 200.378 619.346 200.378C616.819 200.378 615.296 199.61 615.296 198.232ZM616.946 198.232C616.94 198.835 617.746 199.14 619.346 199.146C620.914 199.14 621.739 198.835 621.745 198.232C621.739 197.617 620.914 197.356 619.346 197.344C617.746 197.356 616.94 197.617 616.946 198.232ZM629.692 190.438C629.686 191.98 630.479 193.408 632.333 193.979L631.482 195.249C630.238 194.817 629.394 194.024 628.905 192.983C628.397 194.189 627.464 195.135 626.074 195.604L625.224 194.31C627.198 193.675 628.048 192.126 628.055 190.514V189.46H629.692V190.438ZM627.141 198.182C627.141 196.76 628.651 195.928 631.114 195.935C633.583 195.928 635.094 196.76 635.101 198.182C635.094 199.61 633.583 200.422 631.114 200.416C628.651 200.422 627.141 199.61 627.141 198.182ZM628.753 198.182C628.753 198.823 629.584 199.159 631.114 199.159C632.65 199.159 633.482 198.823 633.488 198.182C633.482 197.521 632.65 197.191 631.114 197.191C629.584 197.191 628.753 197.521 628.753 198.182ZM631.279 192.304V190.983H633.45V188.863H635.062V195.63H633.45V192.304H631.279ZM642.185 190.057L641.093 193.675H639.747L640.382 190.057H642.185ZM636.929 193.675L637.563 190.057H639.366L638.274 193.675H636.929Z" fill="#717680"/>
<rect x="679.459" y="46.0249" width="176.242" height="50.9177" rx="12.783" fill="#FCFAFF"/>
<rect x="679.459" y="46.0249" width="176.242" height="50.9177" rx="12.783" stroke="#E9D7FE" stroke-width="0.543958"/>
<path d="M716.258 77.2563V74.9368H711.082V72.8154L715.537 65.7298H718.691V72.8154H720.204V74.9368H718.691V77.2563H716.258ZM713.543 72.8154H716.258V68.3745L713.543 72.8154ZM722.282 74.5408C723.088 74.5408 723.682 75.149 723.682 75.9551C723.682 76.7613 723.088 77.3694 722.282 77.3694C721.462 77.3694 720.868 76.7613 720.868 75.9551C720.868 75.149 721.462 74.5408 722.282 74.5408ZM737.561 66.1399V67.9644H729.712V66.1399H732.625V65.1641H735.058V66.1399H737.561ZM739.145 65.3762H741.493V73.0417H739.145V71.9244H737.971V69.9302H739.145V69.0958H737.971V67.1017H739.145V65.3762ZM733.799 73.0417C731.805 73.0417 730.164 72.2214 730.164 70.6515C730.164 69.0958 731.805 68.2614 733.799 68.2614C735.793 68.2614 737.434 69.0958 737.434 70.6515C737.434 72.2214 735.793 73.0417 733.799 73.0417ZM733.799 69.9585C732.936 69.9585 732.427 70.2414 732.427 70.6515C732.427 71.0617 732.936 71.3445 733.799 71.3445C734.662 71.3445 735.171 71.0617 735.171 70.6515C735.171 70.2414 734.662 69.9585 733.799 69.9585ZM730.631 75.4601V73.466H741.493V77.5957H739.06V75.4601H730.631ZM755.04 65.3762V74.3145H752.65V65.3762H755.04ZM747.728 70.2272C746.71 71.6274 745.225 72.5891 743.514 72.674V70.4535C745.423 70.2272 746.753 68.0917 746.795 65.4328L749.199 65.5742C749.199 66.5359 749.03 67.4835 748.718 68.3462L752.198 70.8071L750.797 72.5042L747.728 70.2272ZM746.668 75.3045H755.21V77.4543H744.235V73.2255H746.668V75.3045ZM772.608 65.3762V77.4543H770.218V65.3762H772.608ZM768.351 65.6591V68.9261C768.351 73.8337 765.622 76.8885 761.393 76.8885V74.6257C764.321 74.5974 765.905 72.4194 765.905 68.9261V67.8371H761.393V65.6591H768.351ZM785.831 69.7464L780.612 67.9219C779.226 69.0109 777.147 69.6757 774.884 69.7181V67.8371C777.19 67.7239 779.452 66.6915 779.848 65.0368L782.267 65.4611C782.182 65.8146 782.055 66.1399 781.885 66.4511L786.58 67.9927L785.831 69.7464ZM786.75 71.8112H781.828V72.3345H786.043V75.5167H777.586V75.941H786.17V77.4543H775.252V74.258H783.709V73.8337H775.224V72.3345H779.452V71.8112H774.531V70.0717H786.75V71.8112ZM801.857 65.3762H804.12V77.4543H801.857V72.08H800.768V77.2421H798.534V65.4328H800.768V69.8171H801.857V65.3762ZM792.269 67.8088V65.6591H797.572V69.2655C797.572 74.3852 795.125 76.8461 792.269 76.8885V74.654C794.093 74.5125 795.281 72.7447 795.281 69.3504V67.8088H792.269ZM817.046 67.0734H818.46V69.2514H817.046V71.4294H814.656V65.3762H817.046V67.0734ZM813.34 65.5176V71.1748H805.972V65.5176H808.291V66.5076H811.021V65.5176H813.34ZM808.291 69.3221H811.021V68.3179H808.291V69.3221ZM808.744 75.3894V75.8561H817.173V77.4543H806.396V73.9185H814.698V73.4518H806.368V71.8537H817.046V75.3894H808.744Z" fill="#7A4ED0"/>
<path d="M767.582 112.083C765.579 112.083 763.956 113.706 763.956 115.709C763.956 117.712 765.579 119.335 767.582 119.335C769.585 119.335 771.208 117.712 771.208 115.709C771.208 113.706 769.585 112.083 767.582 112.083ZM767.582 165.753L771.508 158.954L763.656 158.954L767.582 165.753ZM766.902 116.265C766.902 116.641 767.207 116.945 767.582 116.945C767.958 116.945 768.262 116.641 768.262 116.265L767.582 116.265L766.902 116.265ZM768.262 120.713C768.262 120.338 767.958 120.033 767.582 120.033C767.207 120.033 766.902 120.338 766.902 120.713L767.582 120.713L768.262 120.713ZM766.902 121.825C766.902 122.201 767.207 122.505 767.582 122.505C767.958 122.505 768.262 122.201 768.262 121.825L767.582 121.825L766.902 121.825ZM768.262 126.274C768.262 125.898 767.958 125.594 767.582 125.594C767.207 125.594 766.902 125.898 766.902 126.274L767.582 126.274L768.262 126.274ZM766.902 127.386C766.902 127.761 767.207 128.066 767.582 128.066C767.958 128.066 768.262 127.761 768.262 127.386L767.582 127.386L766.902 127.386ZM768.262 131.834C768.262 131.459 767.958 131.154 767.582 131.154C767.207 131.154 766.902 131.459 766.902 131.834L767.582 131.834L768.262 131.834ZM766.902 132.946C766.902 133.322 767.207 133.626 767.582 133.626C767.958 133.626 768.262 133.322 768.262 132.946L767.582 132.946L766.902 132.946ZM768.262 137.395C768.262 137.019 767.958 136.715 767.582 136.715C767.207 136.715 766.902 137.019 766.902 137.395L767.582 137.395L768.262 137.395ZM766.902 138.507C766.902 138.882 767.207 139.187 767.582 139.187C767.958 139.187 768.262 138.882 768.262 138.507L767.582 138.507L766.902 138.507ZM768.262 142.955C768.262 142.58 767.958 142.275 767.582 142.275C767.207 142.275 766.902 142.58 766.902 142.955L767.582 142.955L768.262 142.955ZM766.902 144.067C766.902 144.443 767.207 144.747 767.582 144.747C767.958 144.747 768.262 144.443 768.262 144.067L767.582 144.067L766.902 144.067ZM768.262 148.516C768.262 148.14 767.958 147.836 767.582 147.836C767.207 147.836 766.902 148.14 766.902 148.516L767.582 148.516L768.262 148.516ZM766.902 149.628C766.902 150.003 767.207 150.308 767.582 150.308C767.958 150.308 768.262 150.003 768.262 149.628L767.582 149.628L766.902 149.628ZM768.262 154.076C768.262 153.701 767.958 153.396 767.582 153.396C767.207 153.396 766.902 153.701 766.902 154.076L767.582 154.076L768.262 154.076ZM766.902 155.188C766.902 155.564 767.207 155.868 767.582 155.868C767.958 155.868 768.262 155.564 768.262 155.188L767.582 155.188L766.902 155.188ZM768.262 159.637C768.262 159.261 767.958 158.957 767.582 158.957C767.207 158.957 766.902 159.261 766.902 159.637L767.582 159.637L768.262 159.637ZM766.902 160.749C766.902 161.124 767.207 161.429 767.582 161.429C767.958 161.429 768.262 161.124 768.262 160.749L767.582 160.749L766.902 160.749ZM768.262 165.197C768.262 164.822 767.958 164.517 767.582 164.517C767.207 164.517 766.902 164.822 766.902 165.197L767.582 165.197L768.262 165.197ZM767.582 115.709L766.902 115.709L766.902 116.265L767.582 116.265L768.262 116.265L768.262 115.709L767.582 115.709ZM767.582 120.713L766.902 120.713L766.902 121.825L767.582 121.825L768.262 121.825L768.262 120.713L767.582 120.713ZM767.582 126.274L766.902 126.274L766.902 127.386L767.582 127.386L768.262 127.386L768.262 126.274L767.582 126.274ZM767.582 131.834L766.902 131.834L766.902 132.946L767.582 132.946L768.262 132.946L768.262 131.834L767.582 131.834ZM767.582 137.395L766.902 137.395L766.902 138.507L767.582 138.507L768.262 138.507L768.262 137.395L767.582 137.395ZM767.582 142.955L766.902 142.955L766.902 144.067L767.582 144.067L768.262 144.067L768.262 142.955L767.582 142.955ZM767.582 148.516L766.902 148.516L766.902 149.628L767.582 149.628L768.262 149.628L768.262 148.516L767.582 148.516ZM767.582 154.076L766.902 154.076L766.902 155.188L767.582 155.188L768.262 155.188L768.262 154.076L767.582 154.076ZM767.582 159.637L766.902 159.637L766.902 160.749L767.582 160.749L768.262 160.749L768.262 159.637L767.582 159.637ZM767.582 112.083C765.579 112.083 763.956 113.706 763.956 115.709C763.956 117.712 765.579 119.335 767.582 119.335C769.585 119.335 771.208 117.712 771.208 115.709C771.208 113.706 769.585 112.083 767.582 112.083ZM767.582 165.753L771.508 158.954L763.656 158.954L767.582 165.753ZM766.902 116.265C766.902 116.641 767.207 116.945 767.582 116.945C767.958 116.945 768.262 116.641 768.262 116.265L767.582 116.265L766.902 116.265ZM768.262 120.713C768.262 120.338 767.958 120.033 767.582 120.033C767.207 120.033 766.902 120.338 766.902 120.713L767.582 120.713L768.262 120.713ZM766.902 121.825C766.902 122.201 767.207 122.505 767.582 122.505C767.958 122.505 768.262 122.201 768.262 121.825L767.582 121.825L766.902 121.825ZM768.262 126.274C768.262 125.898 767.958 125.594 767.582 125.594C767.207 125.594 766.902 125.898 766.902 126.274L767.582 126.274L768.262 126.274ZM766.902 127.386C766.902 127.761 767.207 128.066 767.582 128.066C767.958 128.066 768.262 127.761 768.262 127.386L767.582 127.386L766.902 127.386ZM768.262 131.834C768.262 131.459 767.958 131.154 767.582 131.154C767.207 131.154 766.902 131.459 766.902 131.834L767.582 131.834L768.262 131.834ZM766.902 132.946C766.902 133.322 767.207 133.626 767.582 133.626C767.958 133.626 768.262 133.322 768.262 132.946L767.582 132.946L766.902 132.946ZM768.262 137.395C768.262 137.019 767.958 136.715 767.582 136.715C767.207 136.715 766.902 137.019 766.902 137.395L767.582 137.395L768.262 137.395ZM766.902 138.507C766.902 138.882 767.207 139.187 767.582 139.187C767.958 139.187 768.262 138.882 768.262 138.507L767.582 138.507L766.902 138.507ZM768.262 142.955C768.262 142.58 767.958 142.275 767.582 142.275C767.207 142.275 766.902 142.58 766.902 142.955L767.582 142.955L768.262 142.955ZM766.902 144.067C766.902 144.443 767.207 144.747 767.582 144.747C767.958 144.747 768.262 144.443 768.262 144.067L767.582 144.067L766.902 144.067ZM768.262 148.516C768.262 148.14 767.958 147.836 767.582 147.836C767.207 147.836 766.902 148.14 766.902 148.516L767.582 148.516L768.262 148.516ZM766.902 149.628C766.902 150.003 767.207 150.308 767.582 150.308C767.958 150.308 768.262 150.003 768.262 149.628L767.582 149.628L766.902 149.628ZM768.262 154.076C768.262 153.701 767.958 153.396 767.582 153.396C767.207 153.396 766.902 153.701 766.902 154.076L767.582 154.076L768.262 154.076ZM766.902 155.188C766.902 155.564 767.207 155.868 767.582 155.868C767.958 155.868 768.262 155.564 768.262 155.188L767.582 155.188L766.902 155.188ZM768.262 159.637C768.262 159.261 767.958 158.957 767.582 158.957C767.207 158.957 766.902 159.261 766.902 159.637L767.582 159.637L768.262 159.637ZM766.902 160.749C766.902 161.124 767.207 161.429 767.582 161.429C767.958 161.429 768.262 161.124 768.262 160.749L767.582 160.749L766.902 160.749ZM768.262 165.197C768.262 164.822 767.958 164.517 767.582 164.517C767.207 164.517 766.902 164.822 766.902 165.197L767.582 165.197L768.262 165.197ZM767.582 115.709L766.902 115.709L766.902 116.265L767.582 116.265L768.262 116.265L768.262 115.709L767.582 115.709ZM767.582 120.713L766.902 120.713L766.902 121.825L767.582 121.825L768.262 121.825L768.262 120.713L767.582 120.713ZM767.582 126.274L766.902 126.274L766.902 127.386L767.582 127.386L768.262 127.386L768.262 126.274L767.582 126.274ZM767.582 131.834L766.902 131.834L766.902 132.946L767.582 132.946L768.262 132.946L768.262 131.834L767.582 131.834ZM767.582 137.395L766.902 137.395L766.902 138.507L767.582 138.507L768.262 138.507L768.262 137.395L767.582 137.395ZM767.582 142.955L766.902 142.955L766.902 144.067L767.582 144.067L768.262 144.067L768.262 142.955L767.582 142.955ZM767.582 148.516L766.902 148.516L766.902 149.628L767.582 149.628L768.262 149.628L768.262 148.516L767.582 148.516ZM767.582 154.076L766.902 154.076L766.902 155.188L767.582 155.188L768.262 155.188L768.262 154.076L767.582 154.076ZM767.582 159.637L766.902 159.637L766.902 160.749L767.582 160.749L768.262 160.749L768.262 159.637L767.582 159.637Z" fill="#868E96"/>
<path d="M718.925 193.662L720.017 190.044H721.362L720.728 193.662H718.925ZM721.743 193.662L722.835 190.044H724.181L723.546 193.662H721.743ZM728.522 189.206C730.281 189.2 731.601 190.304 731.607 191.847C731.601 193.376 730.281 194.468 728.522 194.475C726.739 194.468 725.412 193.376 725.412 191.847C725.412 190.304 726.739 189.2 728.522 189.206ZM726.986 191.847C726.974 192.672 727.627 193.161 728.522 193.167C729.398 193.161 730.04 192.672 730.046 191.847C730.04 191.015 729.398 190.526 728.522 190.526C727.634 190.526 726.974 191.015 726.986 191.847ZM727.151 196.379V195.135H734.908V198.271H728.764V199.02H735.226V200.289H727.177V197.09H733.296V196.379H727.151ZM733.283 194.652V188.863H734.908V194.652H733.283ZM740.685 190.679C740.678 192.082 741.497 193.427 743.325 193.992L742.462 195.249C741.237 194.843 740.38 194.056 739.885 193.046C739.383 194.208 738.488 195.122 737.168 195.566L736.292 194.297C738.222 193.656 739.047 192.12 739.06 190.526V189.473H740.685V190.679ZM737.892 198.182C737.885 196.779 739.415 195.947 741.853 195.947C744.246 195.947 745.744 196.779 745.75 198.182C745.744 199.597 744.246 200.422 741.853 200.416C739.415 200.422 737.885 199.597 737.892 198.182ZM739.517 198.182C739.504 198.835 740.335 199.146 741.853 199.146C743.351 199.146 744.15 198.835 744.15 198.182C744.15 197.553 743.351 197.217 741.853 197.217C740.335 197.217 739.504 197.553 739.517 198.182ZM744.011 195.719V188.863H745.636V191.567H747.197V192.913H745.636V195.719H744.011ZM751.45 189.638C753.285 189.631 754.643 190.812 754.649 192.469C754.643 194.132 753.285 195.306 751.45 195.312C749.628 195.306 748.232 194.132 748.238 192.469C748.232 190.812 749.628 189.631 751.45 189.638ZM747.756 196.76C749.819 196.766 752.675 196.741 755.145 196.392L755.271 197.56C752.707 198.061 749.965 198.08 747.946 198.08L747.756 196.76ZM749.851 192.469C749.844 193.383 750.536 193.91 751.45 193.903C752.371 193.91 753.069 193.383 753.075 192.469C753.069 191.567 752.371 191.034 751.45 191.034C750.536 191.034 749.844 191.567 749.851 192.469ZM755.805 200.441V188.863H757.417V200.441H755.805ZM768.5 189.536V190.831H766.202C766.208 192.183 767.021 193.573 768.894 194.17L768.068 195.427C766.786 195.008 765.904 194.183 765.402 193.154C764.888 194.278 763.961 195.179 762.622 195.617L761.759 194.373C763.669 193.757 764.545 192.272 764.564 190.831H762.203V189.536H768.5ZM763.32 197.61V196.328H771.103V200.416H769.478V197.61H763.32ZM769.478 195.833V188.863H771.103V191.669H772.664V193.015H771.103V195.833H769.478ZM783.709 194.767V196.062H773.172V194.767H783.709ZM774.226 191.58C774.226 190.107 775.895 189.206 778.44 189.219C780.967 189.206 782.636 190.107 782.643 191.58C782.636 193.059 780.967 193.967 778.44 193.967C775.895 193.967 774.226 193.059 774.226 191.58ZM774.441 200.213V196.836H776.066V198.918H782.516V200.213H774.441ZM775.914 191.58C775.901 192.297 776.834 192.659 778.44 192.659C780.034 192.659 780.967 192.297 780.967 191.58C780.967 190.882 780.034 190.501 778.44 190.488C776.834 190.501 775.901 190.882 775.914 191.58ZM793.853 189.854V191.123H787.429V189.854H789.917V188.762H791.529V189.854H793.853ZM788 193.764C787.987 192.462 789.149 191.548 790.704 191.542C792.272 191.548 793.434 192.462 793.446 193.764C793.434 195.027 792.272 195.96 790.704 195.96C789.149 195.96 787.987 195.027 788 193.764ZM789.206 198.029V196.747H797.141V200.416H795.528V198.029H789.206ZM789.511 193.764C789.504 194.36 790 194.729 790.704 194.729C791.402 194.729 791.936 194.36 791.936 193.764C791.936 193.135 791.402 192.761 790.704 192.761C789.993 192.761 789.504 193.135 789.511 193.764ZM793.954 194.982V193.675H795.528V192.735H793.979V191.453H795.528V188.863H797.141V196.201H795.528V194.982H793.954ZM808.312 188.876V197.306H806.688V188.876H808.312ZM798.601 194.449C800.537 193.802 801.381 192.196 801.381 190.628V189.511H803.069V190.628C803.057 192.158 803.875 193.649 805.773 194.259L804.948 195.528C803.641 195.097 802.746 194.233 802.231 193.135C801.711 194.316 800.791 195.268 799.438 195.731L798.601 194.449ZM800.568 200.213V196.493H802.206V198.918H808.617V200.213H800.568ZM815.498 190.057L814.406 193.675H813.061L813.695 190.057H815.498ZM810.242 193.675L810.877 190.057H812.68L811.588 193.675H810.242Z" fill="#717680"/>
</svg>
