<svg width="960" height="312" viewBox="0 0 960 312" fill="none" xmlns="http://www.w3.org/2000/svg">
<rect width="420" height="100" rx="10" fill="#8670FF"/>
<path d="M16.7744 63V53.8086H20.3799C22.4683 53.8086 23.668 55.0972 23.668 56.9062C23.668 58.7407 22.4492 60.0039 20.3291 60.0039H18.6787V63H16.7744ZM18.6787 58.4678H20.0244C21.1543 58.4678 21.7065 57.833 21.7002 56.9062C21.7065 55.9922 21.1543 55.3765 20.0244 55.3701H18.6787V58.4678ZM29.2539 60.0674V56.1064H31.1328V63H29.3301V61.7559H29.2539C28.9429 62.5557 28.2002 63.0889 27.1592 63.0889C25.7817 63.0889 24.8359 62.1113 24.8359 60.499V56.1064H26.7148V60.1689C26.7148 60.9878 27.1846 61.4956 27.9209 61.502C28.6064 61.4956 29.2539 61.0068 29.2539 60.0674ZM32.5928 63V56.1064H34.4082V57.2998H34.4844C34.7319 56.4556 35.373 56.0049 36.1475 56.0049C36.3379 56.0049 36.5791 56.0303 36.7441 56.0684V57.7441C36.5664 57.687 36.2046 57.6426 35.9443 57.6426C35.0938 57.6426 34.4653 58.2329 34.4717 59.0771V63H32.5928ZM37.6582 65.5898V56.1064H39.5117V57.2617H39.5879C39.8481 56.7031 40.394 56.0176 41.5557 56.0176C43.0791 56.0176 44.355 57.1982 44.3486 59.5596C44.355 61.8638 43.1299 63.1143 41.5557 63.1143C40.4321 63.1143 39.8545 62.4668 39.5879 61.8955H39.5371V65.5898H37.6582ZM39.499 59.5469C39.4927 60.791 40.0259 61.6099 40.959 61.6162C41.9175 61.6099 42.438 60.7656 42.4316 59.5469C42.438 58.3472 41.9302 57.5156 40.959 57.5156C40.0195 57.5156 39.4927 58.3091 39.499 59.5469ZM47.4463 53.8086V63H45.5674V53.8086H47.4463ZM52.0293 63.1396C49.9155 63.1333 48.6206 61.7686 48.627 59.585C48.6206 57.4585 49.9346 56.0176 51.9531 56.0176C53.7622 56.0176 55.1904 57.1602 55.1904 59.5088V60.042H50.4805C50.4805 61.083 51.0962 61.7241 52.0674 61.7305C52.7085 61.7241 53.1655 61.4448 53.3496 61.0322H55.1396C54.873 62.3081 53.7305 63.1333 52.0293 63.1396ZM50.4805 58.8613H53.4131C53.4067 58.0234 52.8291 57.4204 51.9912 57.4268C51.1279 57.4204 50.5186 58.0679 50.4805 58.8613Z" fill="white"/>
<path d="M19.9609 83L20.3477 80.6562H18.2148L17.8281 83H16.9727L17.3594 80.6562H16.1055L16.2461 79.8125H17.4941L17.8457 77.7031H16.6094L16.7383 76.8594H17.9805L18.3672 74.5156H19.2227L18.8359 76.8594H20.9688L21.3555 74.5156H22.2109L21.8242 76.8594H23.0898L22.9492 77.7031H21.6895L21.3379 79.8125H22.5859L22.4453 80.6562H21.2031L20.8164 83H19.9609ZM18.3496 79.8125H20.4824L20.834 77.7031H18.7012L18.3496 79.8125ZM26.8281 83.1172C25.041 83.1172 23.8105 82.127 23.8164 80.75C23.8105 79.6543 24.5723 78.7461 25.5391 78.5938V78.5469C24.6953 78.3535 24.1387 77.5742 24.1445 76.6484C24.1387 75.3535 25.2754 74.3984 26.8281 74.3984C28.375 74.3984 29.5117 75.3535 29.5234 76.6484C29.5117 77.5742 28.9492 78.3535 28.1172 78.5469V78.5938C29.0781 78.7461 29.8398 79.6543 29.8516 80.75C29.8398 82.127 28.5977 83.1172 26.8281 83.1172ZM24.8711 80.6914C24.8535 81.582 25.6094 82.1855 26.8281 82.1914C28.041 82.1855 28.7969 81.582 28.7969 80.6914C28.7969 79.7539 27.9707 79.0625 26.8281 79.0625C25.6914 79.0625 24.8535 79.7539 24.8711 80.6914ZM25.1641 76.7305C25.1699 77.5859 25.8555 78.166 26.8281 78.1719C27.7949 78.166 28.4922 77.5859 28.4922 76.7305C28.4922 75.8809 27.8184 75.3066 26.8281 75.3125C25.8203 75.3066 25.1699 75.8809 25.1641 76.7305ZM34.2227 83.1172C32.752 83.0996 31.1289 82.2266 31.1289 79.0859C31.1289 76.0801 32.3594 74.3984 34.3516 74.3984C35.8457 74.3984 36.8887 75.3184 37.1055 76.6484H36.0625C35.8691 75.8984 35.2949 75.3359 34.3516 75.3359C32.957 75.3359 32.1191 76.5254 32.125 78.5703H32.2305C32.7168 77.8613 33.4961 77.4453 34.4102 77.4453C35.916 77.4453 37.1758 78.6172 37.1758 80.2578C37.1758 81.8574 36.0098 83.1348 34.2227 83.1172ZM32.2656 80.2812C32.2715 81.2773 33.0859 82.1855 34.2227 82.1914C35.3184 82.1855 36.1504 81.3242 36.1562 80.2695C36.1504 79.2266 35.3535 78.377 34.2461 78.3711C33.1328 78.377 32.2773 79.2793 32.2656 80.2812ZM38.8984 83L42.7891 75.5117V75.4531H38.3008V74.5156H43.8789V75.5L40 83H38.8984ZM47.8398 83.1172C45.959 83.1172 44.8691 81.5352 44.875 78.7578C44.8691 76.0039 45.9707 74.3984 47.8398 74.3984C49.7031 74.3984 50.8047 76.0039 50.8047 78.7578C50.8047 81.5352 49.7207 83.1172 47.8398 83.1172ZM45.8945 78.7578C45.9004 80.9551 46.6094 82.1797 47.8398 82.1797C49.0645 82.1797 49.7793 80.9551 49.7734 78.7578C49.7793 76.5605 49.0586 75.3184 47.8398 75.3125C46.6211 75.3184 45.9004 76.5605 45.8945 78.7578ZM52.3516 83V74.5156H57.4609V75.4531H53.4062V78.2891H57.0742V79.2148H53.4062V83H52.3516ZM59.0312 83V74.5156H64.1406V75.4531H60.0859V78.2891H63.7539V79.2148H60.0859V83H59.0312Z" fill="white" fill-opacity="0.78"/>
<rect x="426" width="129" height="100" rx="10" fill="#26BF9B"/>
<path d="M446.324 20.4531C446.23 19.9727 445.832 19.6621 445.199 19.668C444.561 19.6621 444.092 19.9844 444.098 20.418C444.092 20.7461 444.355 20.9922 445 21.1445L446.078 21.3672C447.279 21.6309 447.865 22.1875 447.871 23.1016C447.865 24.2969 446.816 25.1289 445.152 25.1289C443.535 25.1289 442.58 24.4023 442.422 23.1836H443.945C444.033 23.7285 444.455 23.998 445.152 23.9922C445.873 23.998 446.342 23.7051 446.348 23.2305C446.342 22.8613 446.055 22.627 445.422 22.4922L444.402 22.2695C443.219 22.0293 442.604 21.4082 442.609 20.5C442.604 19.3223 443.623 18.5547 445.176 18.5547C446.693 18.5547 447.631 19.2988 447.742 20.4531H446.324ZM451.832 25.1289C449.916 25.1289 448.738 23.8516 448.738 21.8594C448.738 19.8906 449.934 18.5547 451.75 18.5547C453.309 18.5547 454.656 19.5332 454.656 21.7656V22.2344H450.215C450.238 23.3184 450.877 23.9629 451.844 23.957C452.5 23.9629 452.939 23.6816 453.133 23.3008H454.598C454.328 24.4023 453.309 25.1289 451.832 25.1289ZM450.221 21.2148H453.227C453.221 20.3477 452.635 19.7148 451.773 19.7148C450.877 19.7148 450.273 20.4062 450.221 21.2148ZM458.594 25.1289C456.695 25.1289 455.547 23.7695 455.547 21.8477C455.547 19.8965 456.73 18.5547 458.594 18.5547C460.135 18.5547 461.219 19.457 461.324 20.8281H459.895C459.777 20.2188 459.332 19.7559 458.605 19.75C457.68 19.7559 457.059 20.5293 457.059 21.8125C457.059 23.125 457.668 23.9043 458.605 23.9102C459.268 23.9043 459.76 23.5176 459.895 22.832H461.324C461.213 24.1738 460.193 25.1289 458.594 25.1289ZM465.227 25.1289C463.369 25.1289 462.18 23.8105 462.18 21.8477C462.18 19.8672 463.369 18.5547 465.227 18.5547C467.09 18.5547 468.279 19.8672 468.273 21.8477C468.279 23.8105 467.09 25.1289 465.227 25.1289ZM463.691 21.8359C463.691 23.002 464.201 23.9336 465.238 23.9336C466.258 23.9336 466.768 23.002 466.762 21.8359C466.768 20.6699 466.258 19.7324 465.238 19.7383C464.201 19.7324 463.691 20.6699 463.691 21.8359ZM470.934 21.2734V25H469.434V18.6367H470.863V19.7148H470.945C471.232 19.0059 471.883 18.5547 472.832 18.5547C474.15 18.5547 475.018 19.4219 475.012 20.9453V25H473.523V21.1797C473.523 20.3242 473.061 19.8145 472.281 19.8203C471.49 19.8145 470.934 20.3477 470.934 21.2734ZM478.809 25.1172C477.314 25.1113 476.184 23.916 476.184 21.8242C476.184 19.7031 477.344 18.5547 478.82 18.5547C479.939 18.5547 480.408 19.2285 480.637 19.6797H480.695V16.5156H482.184V25H480.719V23.9922H480.637C480.396 24.4609 479.91 25.1113 478.809 25.1172ZM477.707 21.8125C477.707 23.0137 478.234 23.8867 479.219 23.8867C480.186 23.8867 480.73 23.0547 480.73 21.8125C480.73 20.5762 480.191 19.7793 479.219 19.7734C478.223 19.7793 477.707 20.6289 477.707 21.8125ZM483.402 23.207C483.402 21.7773 484.592 21.3613 485.77 21.2852C486.215 21.25 487.123 21.209 487.404 21.1973L487.398 20.6875C487.398 20.0547 486.994 19.6914 486.25 19.6914C485.582 19.6914 485.172 19.9961 485.055 20.4531H483.613C483.719 19.3691 484.691 18.5547 486.285 18.5547C487.492 18.5547 488.887 19.0527 488.887 20.7461V25H487.457V24.1211H487.41C487.129 24.6602 486.537 25.1289 485.535 25.1289C484.322 25.1289 483.402 24.4668 483.402 23.207ZM484.844 23.1953C484.844 23.7461 485.295 24.0273 485.922 24.0273C486.83 24.0273 487.41 23.4297 487.41 22.7148L487.404 22.1934C487.135 22.2051 486.303 22.2578 486.004 22.2812C485.295 22.3398 484.844 22.6387 484.844 23.1953ZM490.293 25V18.6367H491.746V19.6914H491.816C492.045 18.959 492.654 18.543 493.387 18.543C493.551 18.543 493.785 18.5605 493.926 18.5781V19.9609C493.791 19.9141 493.48 19.873 493.234 19.8672C492.402 19.873 491.793 20.4473 491.793 21.25V25H490.293ZM495.918 27.3906C495.619 27.3848 495.338 27.3789 495.145 27.3555V26.1602C495.326 26.1777 495.578 26.1777 495.777 26.1836C496.141 26.1777 496.445 26.1543 496.703 25.4688L496.832 25.1289L494.512 18.6367H496.094L497.57 23.4414H497.641L499.117 18.6367H500.699L498.145 25.7734C497.781 26.7871 497.113 27.3848 495.918 27.3906Z" fill="white" fill-opacity="0.6"/>
<path d="M448.881 56.7666C448.621 55.9033 447.929 55.3765 446.926 55.3701C445.504 55.3765 444.539 56.4619 444.539 58.3916C444.539 60.334 445.472 61.4321 446.938 61.4385C448.252 61.4321 449.033 60.6895 449.059 59.5342H447.065V58.0996H450.899V59.2422C450.899 61.6543 449.243 63.127 446.926 63.127C444.349 63.127 442.597 61.3242 442.597 58.417C442.597 55.4336 444.463 53.6816 446.888 53.6816C448.963 53.6816 450.557 54.9575 450.811 56.7666H448.881ZM452.258 63V56.1064H454.073V57.2998H454.149C454.397 56.4556 455.038 56.0049 455.812 56.0049C456.003 56.0049 456.244 56.0303 456.409 56.0684V57.7441C456.231 57.687 455.87 57.6426 455.609 57.6426C454.759 57.6426 454.13 58.2329 454.137 59.0771V63H452.258ZM460.23 63.1396C458.117 63.1333 456.822 61.7686 456.828 59.585C456.822 57.4585 458.136 56.0176 460.154 56.0176C461.963 56.0176 463.392 57.1602 463.392 59.5088V60.042H458.682C458.682 61.083 459.297 61.7241 460.269 61.7305C460.91 61.7241 461.367 61.4448 461.551 61.0322H463.341C463.074 62.3081 461.932 63.1333 460.23 63.1396ZM458.682 58.8613H461.614C461.608 58.0234 461.03 57.4204 460.192 57.4268C459.329 57.4204 458.72 58.0679 458.682 58.8613ZM467.695 63.1396C465.582 63.1333 464.287 61.7686 464.293 59.585C464.287 57.4585 465.601 56.0176 467.619 56.0176C469.428 56.0176 470.856 57.1602 470.856 59.5088V60.042H466.146C466.146 61.083 466.762 61.7241 467.733 61.7305C468.375 61.7241 468.832 61.4448 469.016 61.0322H470.806C470.539 62.3081 469.396 63.1333 467.695 63.1396ZM466.146 58.8613H469.079C469.073 58.0234 468.495 57.4204 467.657 57.4268C466.794 57.4204 466.185 58.0679 466.146 58.8613ZM473.916 59.0137V63H472.037V56.1064H473.827V57.3125H473.903C474.214 56.519 474.951 56.0176 475.973 56.0176C477.414 56.0176 478.353 57.0015 478.347 58.6074V63H476.48V58.9375C476.474 58.0869 476.017 57.5791 475.236 57.5791C474.456 57.5791 473.916 58.106 473.916 59.0137Z" fill="white"/>
<path d="M445.961 83L446.348 80.6562H444.215L443.828 83H442.973L443.359 80.6562H442.105L442.246 79.8125H443.494L443.846 77.7031H442.609L442.738 76.8594H443.98L444.367 74.5156H445.223L444.836 76.8594H446.969L447.355 74.5156H448.211L447.824 76.8594H449.09L448.949 77.7031H447.689L447.338 79.8125H448.586L448.445 80.6562H447.203L446.816 83H445.961ZM444.35 79.8125H446.482L446.834 77.7031H444.701L444.35 79.8125ZM449.992 83L449.98 82.2266L452.875 79.1797C453.877 78.1133 454.357 77.5391 454.363 76.7539C454.357 75.8809 453.631 75.3184 452.676 75.3125C451.662 75.3184 451.029 75.957 451.023 76.9062H450.027C450.016 75.4062 451.176 74.3984 452.711 74.3984C454.252 74.3984 455.342 75.4355 455.348 76.7539C455.342 77.7031 454.902 78.4414 453.402 79.9883L451.457 81.9922V82.0625H455.5V83H449.992ZM459.988 83.1172C458.518 83.0996 456.895 82.2266 456.895 79.0859C456.895 76.0801 458.125 74.3984 460.117 74.3984C461.611 74.3984 462.654 75.3184 462.871 76.6484H461.828C461.635 75.8984 461.061 75.3359 460.117 75.3359C458.723 75.3359 457.885 76.5254 457.891 78.5703H457.996C458.482 77.8613 459.262 77.4453 460.176 77.4453C461.682 77.4453 462.941 78.6172 462.941 80.2578C462.941 81.8574 461.775 83.1348 459.988 83.1172ZM458.031 80.2812C458.037 81.2773 458.852 82.1855 459.988 82.1914C461.084 82.1855 461.916 81.3242 461.922 80.2695C461.916 79.2266 461.119 78.377 460.012 78.3711C458.898 78.377 458.043 79.2793 458.031 80.2812ZM464.535 83V74.5156H467.512C469.293 74.5156 470.131 75.5176 470.125 76.7656C470.131 77.8555 469.48 78.3418 468.742 78.5469V78.6289C469.533 78.6758 470.459 79.4023 470.465 80.75C470.459 82.0215 469.621 83 467.617 83H464.535ZM465.59 82.0625H467.605C468.936 82.0625 469.451 81.4766 469.445 80.7383C469.451 79.877 468.754 79.1445 467.664 79.1445H465.59V82.0625ZM465.59 78.2305H467.477C468.396 78.2363 469.117 77.6621 469.117 76.7773C469.117 76.0391 468.619 75.4531 467.512 75.4531H465.59V78.2305ZM471.965 83V74.5156H477.074V75.4531H473.02V78.2891H476.688V79.2148H473.02V83H471.965ZM481.328 74.3984C482.787 74.416 484.41 75.2949 484.41 78.418C484.41 81.4355 483.174 83.1172 481.188 83.1172C479.693 83.1172 478.645 82.2031 478.434 80.8555H479.477C479.664 81.6172 480.244 82.1797 481.188 82.1797C482.57 82.1797 483.414 80.9844 483.426 78.9219H483.309C482.822 79.625 482.043 80.0469 481.141 80.0469C479.623 80.0469 478.363 78.8809 478.363 77.2461C478.363 75.6641 479.523 74.3809 481.328 74.3984ZM479.395 77.2344C479.389 78.2832 480.186 79.1211 481.293 79.1211C482.4 79.1211 483.262 78.207 483.262 77.2109C483.262 76.2383 482.447 75.3242 481.328 75.3242C480.221 75.3242 479.383 76.1855 479.395 77.2344ZM486.004 83V74.5156H488.98C490.762 74.5156 491.6 75.5176 491.594 76.7656C491.6 77.8555 490.949 78.3418 490.211 78.5469V78.6289C491.002 78.6758 491.928 79.4023 491.934 80.75C491.928 82.0215 491.09 83 489.086 83H486.004ZM487.059 82.0625H489.074C490.404 82.0625 490.92 81.4766 490.914 80.7383C490.92 79.877 490.223 79.1445 489.133 79.1445H487.059V82.0625ZM487.059 78.2305H488.945C489.865 78.2363 490.586 77.6621 490.586 76.7773C490.586 76.0391 490.088 75.4531 488.98 75.4531H487.059V78.2305Z" fill="white" fill-opacity="0.78"/>
<rect x="561" width="129" height="100" rx="10" fill="#00A0FF"/>
<path d="M582.764 56.4365C582.688 55.7065 582.11 55.2812 581.177 55.2812C580.212 55.2812 579.672 55.7256 579.666 56.335C579.66 57.0015 580.345 57.2998 581.139 57.4775L581.964 57.6807C583.538 58.0425 584.712 58.8423 584.719 60.3721C584.712 62.0542 583.405 63.1333 581.164 63.127C578.942 63.1333 577.527 62.105 577.47 60.1309H579.323C579.387 61.0576 580.123 61.5273 581.139 61.5273C582.142 61.5273 582.789 61.0576 582.789 60.3721C582.789 59.7437 582.218 59.4517 581.215 59.2041L580.212 58.9629C578.663 58.582 577.711 57.8076 577.711 56.4619C577.705 54.7925 579.177 53.6816 581.189 53.6816C583.227 53.6816 584.566 54.8115 584.592 56.4365H582.764ZM585.925 63V53.8086H587.804V58.7471H587.905L590.14 56.1064H592.298L589.727 59.0898L592.438 63H590.229L588.331 60.1943L587.804 60.791V63H585.925ZM594.38 65.5898C594.012 65.5835 593.669 65.5771 593.428 65.5518V64.0918C593.669 64.1108 593.955 64.1172 594.189 64.1172C594.564 64.1172 594.862 64.0791 595.091 63.4824L595.205 63.1904L592.729 56.1064H594.697L596.145 61.1846H596.221L597.681 56.1064H599.674L596.982 63.7617C596.589 64.8726 595.833 65.5835 594.38 65.5898Z" fill="white"/>
<path d="M580.961 83L581.348 80.6562H579.215L578.828 83H577.973L578.359 80.6562H577.105L577.246 79.8125H578.494L578.846 77.7031H577.609L577.738 76.8594H578.98L579.367 74.5156H580.223L579.836 76.8594H581.969L582.355 74.5156H583.211L582.824 76.8594H584.09L583.949 77.7031H582.689L582.338 79.8125H583.586L583.445 80.6562H582.203L581.816 83H580.961ZM579.35 79.8125H581.482L581.834 77.7031H579.701L579.35 79.8125ZM587.77 83.1172C585.889 83.1172 584.799 81.5352 584.805 78.7578C584.799 76.0039 585.9 74.3984 587.77 74.3984C589.633 74.3984 590.734 76.0039 590.734 78.7578C590.734 81.5352 589.65 83.1172 587.77 83.1172ZM585.824 78.7578C585.83 80.9551 586.539 82.1797 587.77 82.1797C588.994 82.1797 589.709 80.9551 589.703 78.7578C589.709 76.5605 588.988 75.3184 587.77 75.3125C586.551 75.3184 585.83 76.5605 585.824 78.7578ZM594.918 83.1172C593.037 83.1172 591.947 81.5352 591.953 78.7578C591.947 76.0039 593.049 74.3984 594.918 74.3984C596.781 74.3984 597.883 76.0039 597.883 78.7578C597.883 81.5352 596.799 83.1172 594.918 83.1172ZM592.973 78.7578C592.979 80.9551 593.688 82.1797 594.918 82.1797C596.143 82.1797 596.857 80.9551 596.852 78.7578C596.857 76.5605 596.137 75.3184 594.918 75.3125C593.699 75.3184 592.979 76.5605 592.973 78.7578ZM599.805 83H598.703L601.809 74.5156H602.922L606.027 83H604.914L604.064 80.6094H600.654L599.805 83ZM600.977 79.6836H603.742L602.395 75.8867H602.324L600.977 79.6836ZM609.812 83.1172C607.932 83.1172 606.842 81.5352 606.848 78.7578C606.842 76.0039 607.943 74.3984 609.812 74.3984C611.676 74.3984 612.777 76.0039 612.777 78.7578C612.777 81.5352 611.693 83.1172 609.812 83.1172ZM607.867 78.7578C607.873 80.9551 608.582 82.1797 609.812 82.1797C611.037 82.1797 611.752 80.9551 611.746 78.7578C611.752 76.5605 611.031 75.3184 609.812 75.3125C608.594 75.3184 607.873 76.5605 607.867 78.7578ZM614.324 83V74.5156H619.434V75.4531H615.379V78.2891H619.047V79.2148H615.379V83H614.324ZM621.004 83V74.5156H626.113V75.4531H622.059V78.2891H625.727V79.2148H622.059V83H621.004Z" fill="white" fill-opacity="0.78"/>
<rect x="696" width="129" height="100" rx="10" fill="#F54337"/>
<path d="M712.774 63V53.8086H716.38C718.468 53.8086 719.668 54.9829 719.668 56.8047C719.668 58.0615 719.09 58.9756 718.043 59.4263L719.998 63H717.891L716.132 59.7373H714.679V63H712.774ZM714.679 58.1885H716.024C717.154 58.1885 717.707 57.7251 717.7 56.8047C717.707 55.8779 717.154 55.3765 716.024 55.3701H714.679V58.1885ZM723.959 63.1396C721.845 63.1333 720.55 61.7686 720.557 59.585C720.55 57.4585 721.864 56.0176 723.883 56.0176C725.692 56.0176 727.12 57.1602 727.12 59.5088V60.042H722.41C722.41 61.083 723.026 61.7241 723.997 61.7305C724.638 61.7241 725.095 61.4448 725.279 61.0322H727.069C726.803 62.3081 725.66 63.1333 723.959 63.1396ZM722.41 58.8613H725.343C725.336 58.0234 724.759 57.4204 723.921 57.4268C723.058 57.4204 722.448 58.0679 722.41 58.8613ZM730.84 63.1143C729.266 63.1143 728.034 61.8638 728.034 59.5596C728.034 57.1982 729.316 56.0176 730.84 56.0176C731.995 56.0176 732.547 56.7031 732.795 57.2617H732.858V53.8086H734.737V63H732.884V61.8955H732.795C732.535 62.4668 731.963 63.1143 730.84 63.1143ZM729.964 59.5469C729.958 60.7656 730.472 61.6099 731.424 61.6162C732.363 61.6099 732.896 60.791 732.896 59.5469C732.896 58.3091 732.37 57.5156 731.424 57.5156C730.465 57.5156 729.958 58.3472 729.964 59.5469Z" fill="white"/>
<path d="M715.961 83L716.348 80.6562H714.215L713.828 83H712.973L713.359 80.6562H712.105L712.246 79.8125H713.494L713.846 77.7031H712.609L712.738 76.8594H713.98L714.367 74.5156H715.223L714.836 76.8594H716.969L717.355 74.5156H718.211L717.824 76.8594H719.09L718.949 77.7031H717.689L717.338 79.8125H718.586L718.445 80.6562H717.203L716.816 83H715.961ZM714.35 79.8125H716.482L716.834 77.7031H714.701L714.35 79.8125ZM720.133 83V74.5156H725.242V75.4531H721.188V78.2891H724.855V79.2148H721.188V83H720.133ZM729.438 83.1172C727.908 83.1172 726.748 82.1738 726.684 80.8672H727.703C727.779 81.623 728.518 82.1855 729.438 82.1914C730.539 82.1855 731.336 81.3828 731.336 80.3164C731.336 79.2148 730.51 78.4004 729.367 78.3945C728.652 78.3828 728.096 78.6055 727.785 79.1562H726.766L727.363 74.5156H731.957V75.4531H728.242L727.926 77.9375H728.008C728.389 77.6445 728.957 77.4453 729.555 77.4453C731.172 77.4453 732.361 78.6406 732.367 80.293C732.361 81.9336 731.131 83.1172 729.438 83.1172ZM733.621 81.2656V80.3984L737.441 74.5156H738.742V80.3398H739.926V81.2656H738.742V83H737.734V81.2656H733.621ZM734.758 80.3398H737.734V75.8516H737.629L734.758 80.2695V80.3398ZM744.25 83.1172C742.562 83.1172 741.35 82.2148 741.297 80.8672H742.363C742.422 81.6758 743.225 82.1797 744.238 82.1797C745.357 82.1797 746.166 81.5762 746.172 80.6914C746.166 79.7656 745.428 79.1152 744.109 79.1094H743.418V78.1836H744.109C745.141 78.1836 745.861 77.6035 745.855 76.7305C745.861 75.8809 745.24 75.3184 744.273 75.3125C743.365 75.3184 742.539 75.8164 742.492 76.6484H741.473C741.525 75.3008 742.779 74.3984 744.285 74.3984C745.902 74.3984 746.887 75.459 746.875 76.6719C746.887 77.6387 746.324 78.3418 745.434 78.5938V78.6523C746.541 78.8223 747.209 79.6133 747.203 80.6914C747.209 82.0859 745.943 83.1172 744.25 83.1172ZM751.656 83.1172C749.969 83.1172 748.756 82.2148 748.703 80.8672H749.77C749.828 81.6758 750.631 82.1797 751.645 82.1797C752.764 82.1797 753.572 81.5762 753.578 80.6914C753.572 79.7656 752.834 79.1152 751.516 79.1094H750.824V78.1836H751.516C752.547 78.1836 753.268 77.6035 753.262 76.7305C753.268 75.8809 752.646 75.3184 751.68 75.3125C750.771 75.3184 749.945 75.8164 749.898 76.6484H748.879C748.932 75.3008 750.186 74.3984 751.691 74.3984C753.309 74.3984 754.293 75.459 754.281 76.6719C754.293 77.6387 753.73 78.3418 752.84 78.5938V78.6523C753.947 78.8223 754.615 79.6133 754.609 80.6914C754.615 82.0859 753.35 83.1172 751.656 83.1172ZM756.402 83L760.293 75.5117V75.4531H755.805V74.5156H761.383V75.5L757.504 83H756.402Z" fill="white" fill-opacity="0.78"/>
<rect x="831" width="129" height="100" rx="10" fill="#FFCB02"/>
<path d="M847.216 53.8086H849.361L851.481 57.7695H851.57L853.678 53.8086H855.823L852.472 59.7246V63H850.567V59.7246L847.216 53.8086ZM858.477 63.1396C856.363 63.1333 855.068 61.7686 855.074 59.585C855.068 57.4585 856.382 56.0176 858.4 56.0176C860.209 56.0176 861.638 57.1602 861.638 59.5088V60.042H856.928C856.928 61.083 857.543 61.7241 858.515 61.7305C859.156 61.7241 859.613 61.4448 859.797 61.0322H861.587C861.32 62.3081 860.178 63.1333 858.477 63.1396ZM856.928 58.8613H859.86C859.854 58.0234 859.276 57.4204 858.438 57.4268C857.575 57.4204 856.966 58.0679 856.928 58.8613ZM864.697 53.8086V63H862.818V53.8086H864.697ZM868.036 53.8086V63H866.157V53.8086H868.036ZM872.594 63.1396C870.512 63.1333 869.21 61.7051 869.217 59.5723C869.21 57.4458 870.512 56.0176 872.594 56.0176C874.682 56.0176 875.977 57.4458 875.983 59.5723C875.977 61.7051 874.682 63.1333 872.594 63.1396ZM871.121 59.5723C871.121 60.7783 871.623 61.6733 872.606 61.6797C873.565 61.6733 874.073 60.7783 874.066 59.5723C874.073 58.3599 873.565 57.4521 872.606 57.4521C871.623 57.4521 871.121 58.3599 871.121 59.5723ZM878.345 63L876.466 56.1064H878.37L879.449 60.7656H879.513L880.643 56.1064H882.509L883.651 60.7402H883.715L884.781 56.1064H886.686L884.794 63H882.813L881.62 58.6201H881.531L880.338 63H878.345Z" fill="black"/>
<path d="M850.961 83L851.348 80.6562H849.215L848.828 83H847.973L848.359 80.6562H847.105L847.246 79.8125H848.494L848.846 77.7031H847.609L847.738 76.8594H848.98L849.367 74.5156H850.223L849.836 76.8594H851.969L852.355 74.5156H853.211L852.824 76.8594H854.09L853.949 77.7031H852.689L852.338 79.8125H853.586L853.445 80.6562H852.203L851.816 83H850.961ZM849.35 79.8125H851.482L851.834 77.7031H849.701L849.35 79.8125ZM855.133 83V74.5156H860.242V75.4531H856.188V78.2891H859.855V79.2148H856.188V83H855.133ZM861.812 83V74.5156H866.922V75.4531H862.867V78.2891H866.535V79.2148H862.867V83H861.812ZM874.281 77.1875C874.035 76.0156 873.033 75.3828 871.914 75.3828C870.379 75.3828 869.189 76.5664 869.184 78.7578C869.189 80.9434 870.379 82.127 871.914 82.1328C873.033 82.127 874.029 81.5 874.281 80.3398H875.336C875.031 82.0742 873.637 83.1172 871.914 83.1172C869.734 83.1172 868.158 81.4414 868.164 78.7578C868.158 76.0742 869.734 74.3984 871.914 74.3984C873.631 74.3984 875.02 75.4238 875.336 77.1875H874.281ZM876.812 83V74.5156H879.789C881.57 74.5156 882.408 75.5176 882.402 76.7656C882.408 77.8555 881.758 78.3418 881.02 78.5469V78.6289C881.811 78.6758 882.736 79.4023 882.742 80.75C882.736 82.0215 881.898 83 879.895 83H876.812ZM877.867 82.0625H879.883C881.213 82.0625 881.729 81.4766 881.723 80.7383C881.729 79.877 881.031 79.1445 879.941 79.1445H877.867V82.0625ZM877.867 78.2305H879.754C880.674 78.2363 881.395 77.6621 881.395 76.7773C881.395 76.0391 880.896 75.4531 879.789 75.4531H877.867V78.2305ZM886.879 83.1172C884.998 83.1172 883.908 81.5352 883.914 78.7578C883.908 76.0039 885.01 74.3984 886.879 74.3984C888.742 74.3984 889.844 76.0039 889.844 78.7578C889.844 81.5352 888.76 83.1172 886.879 83.1172ZM884.934 78.7578C884.939 80.9551 885.648 82.1797 886.879 82.1797C888.104 82.1797 888.818 80.9551 888.812 78.7578C888.818 76.5605 888.098 75.3184 886.879 75.3125C885.66 75.3184 884.939 76.5605 884.934 78.7578ZM891.25 83L891.238 82.2266L894.133 79.1797C895.135 78.1133 895.615 77.5391 895.621 76.7539C895.615 75.8809 894.889 75.3184 893.934 75.3125C892.92 75.3184 892.287 75.957 892.281 76.9062H891.285C891.273 75.4062 892.434 74.3984 893.969 74.3984C895.51 74.3984 896.6 75.4355 896.605 76.7539C896.6 77.7031 896.16 78.4414 894.66 79.9883L892.715 81.9922V82.0625H896.758V83H891.25Z" fill="black" fill-opacity="0.56"/>
<rect y="106" width="101.333" height="100" rx="10" fill="#EEF3F7"/>
<path d="M22.4688 125.223C22.1934 124.32 21.4961 123.77 20.4648 123.77C19.0996 123.77 18.1035 124.836 18.1094 126.746C18.1035 128.674 19.082 129.746 20.5 129.746C21.7832 129.746 22.5977 128.973 22.6211 127.766H20.6523V126.559H24.0977V127.578C24.0977 129.764 22.5977 131.117 20.5 131.117C18.1562 131.117 16.5684 129.447 16.5742 126.758C16.5684 124.033 18.2324 122.398 20.4531 122.398C22.3223 122.398 23.7695 123.559 24.0273 125.223H22.4688ZM25.4102 131V124.637H26.8633V125.691H26.9336C27.1621 124.959 27.7715 124.543 28.5039 124.543C28.668 124.543 28.9023 124.561 29.043 124.578V125.961C28.9082 125.914 28.5977 125.873 28.3516 125.867C27.5195 125.873 26.9102 126.447 26.9102 127.25V131H25.4102ZM29.5234 129.207C29.5234 127.777 30.7129 127.361 31.8906 127.285C32.3359 127.25 33.2441 127.209 33.5254 127.197L33.5195 126.688C33.5195 126.055 33.1152 125.691 32.3711 125.691C31.7031 125.691 31.293 125.996 31.1758 126.453H29.7344C29.8398 125.369 30.8125 124.555 32.4062 124.555C33.6133 124.555 35.0078 125.053 35.0078 126.746V131H33.5781V130.121H33.5312C33.25 130.66 32.6582 131.129 31.6562 131.129C30.4434 131.129 29.5234 130.467 29.5234 129.207ZM30.9648 129.195C30.9648 129.746 31.416 130.027 32.043 130.027C32.9512 130.027 33.5312 129.43 33.5312 128.715L33.5254 128.193C33.2559 128.205 32.4238 128.258 32.125 128.281C31.416 128.34 30.9648 128.639 30.9648 129.195ZM37.082 133.391C36.7832 133.385 36.502 133.379 36.3086 133.355V132.16C36.4902 132.178 36.7422 132.178 36.9414 132.184C37.3047 132.178 37.6094 132.154 37.8672 131.469L37.9961 131.129L35.6758 124.637H37.2578L38.7344 129.441H38.8047L40.2812 124.637H41.8633L39.3086 131.773C38.9453 132.787 38.2773 133.385 37.082 133.391Z" fill="black" fill-opacity="0.32"/>
<path d="M20.6846 159.809V169H18.7676V161.624H18.7168L16.6094 162.944V161.256L18.8818 159.809H20.6846ZM26.3848 169.127C24.0806 169.127 22.6904 167.413 22.6904 164.404C22.6904 161.402 24.0933 159.682 26.3848 159.682C28.6763 159.682 30.0791 161.402 30.0791 164.404C30.0791 167.426 28.6826 169.127 26.3848 169.127ZM24.6455 164.404C24.6328 166.524 25.3184 167.553 26.3848 167.553C27.4512 167.553 28.1304 166.524 28.124 164.404C28.1304 162.303 27.4448 161.25 26.3848 161.243C25.3247 161.25 24.6455 162.303 24.6455 164.404Z" fill="black"/>
<path d="M19.9609 189L20.3477 186.656H18.2148L17.8281 189H16.9727L17.3594 186.656H16.1055L16.2461 185.812H17.4941L17.8457 183.703H16.6094L16.7383 182.859H17.9805L18.3672 180.516H19.2227L18.8359 182.859H20.9688L21.3555 180.516H22.2109L21.8242 182.859H23.0898L22.9492 183.703H21.6895L21.3379 185.812H22.5859L22.4453 186.656H21.2031L20.8164 189H19.9609ZM18.3496 185.812H20.4824L20.834 183.703H18.7012L18.3496 185.812ZM24.1328 189V180.516H29.2773V181.453H25.1875V184.289H29.0078V185.215H25.1875V188.062H29.3359V189H24.1328ZM30.9414 189V180.516H36.0859V181.453H31.9961V184.289H35.8164V185.215H31.9961V188.062H36.1445V189H30.9414ZM37.75 189V180.516H42.8594V181.453H38.8047V184.289H42.4727V185.215H38.8047V189H37.75ZM47.2188 189.117C45.5312 189.117 44.3184 188.215 44.2656 186.867H45.332C45.3906 187.676 46.1934 188.18 47.207 188.18C48.3262 188.18 49.1348 187.576 49.1406 186.691C49.1348 185.766 48.3965 185.115 47.0781 185.109H46.3867V184.184H47.0781C48.1094 184.184 48.8301 183.604 48.8242 182.73C48.8301 181.881 48.209 181.318 47.2422 181.312C46.334 181.318 45.5078 181.816 45.4609 182.648H44.4414C44.4941 181.301 45.748 180.398 47.2539 180.398C48.8711 180.398 49.8555 181.459 49.8438 182.672C49.8555 183.639 49.293 184.342 48.4023 184.594V184.652C49.5098 184.822 50.1777 185.613 50.1719 186.691C50.1777 188.086 48.9121 189.117 47.2188 189.117ZM51.8359 189V180.516H56.9453V181.453H52.8906V184.289H56.5586V185.215H52.8906V189H51.8359ZM58.6445 189L62.5352 181.512V181.453H58.0469V180.516H63.625V181.5L59.7461 189H58.6445Z" fill="black" fill-opacity="0.56"/>
<rect x="107.332" y="106" width="101.333" height="100" rx="10" fill="#DAE3EB"/>
<path d="M124.056 169L124.043 167.616L127.344 164.582C128.201 163.763 128.664 163.255 128.664 162.525C128.664 161.707 128.048 161.199 127.204 161.205C126.341 161.199 125.776 161.745 125.782 162.627H123.967C123.96 160.831 125.293 159.682 127.229 159.682C129.197 159.682 130.505 160.805 130.505 162.398C130.505 163.446 129.997 164.303 128.105 166.017L126.709 167.375V167.426H130.632V169H124.056ZM135.558 169.127C133.253 169.127 131.863 167.413 131.863 164.404C131.863 161.402 133.266 159.682 135.558 159.682C137.849 159.682 139.252 161.402 139.252 164.404C139.252 167.426 137.855 169.127 135.558 169.127ZM133.818 164.404C133.806 166.524 134.491 167.553 135.558 167.553C136.624 167.553 137.303 166.524 137.297 164.404C137.303 162.303 136.618 161.25 135.558 161.243C134.498 161.25 133.818 162.303 133.818 164.404Z" fill="black"/>
<path d="M127.293 189L127.68 186.656H125.547L125.16 189H124.305L124.691 186.656H123.438L123.578 185.812H124.826L125.178 183.703H123.941L124.07 182.859H125.312L125.699 180.516H126.555L126.168 182.859H128.301L128.688 180.516H129.543L129.156 182.859H130.422L130.281 183.703H129.021L128.67 185.812H129.918L129.777 186.656H128.535L128.148 189H127.293ZM125.682 185.812H127.814L128.166 183.703H126.033L125.682 185.812ZM134.102 189H131.465V180.516H134.207C136.686 180.516 138.145 182.104 138.145 184.746C138.145 187.395 136.686 189 134.102 189ZM132.52 188.062H134.031C136.111 188.062 137.113 186.803 137.113 184.746C137.113 182.695 136.111 181.453 134.137 181.453H132.52V188.062ZM139.656 189H138.555L141.66 180.516H142.773L145.879 189H144.766L143.916 186.609H140.506L139.656 189ZM140.828 185.684H143.594L142.246 181.887H142.176L140.828 185.684ZM147.027 189V180.516H152.172V181.453H148.082V184.289H151.902V185.215H148.082V188.062H152.23V189H147.027ZM156.625 189.117C154.938 189.117 153.725 188.215 153.672 186.867H154.738C154.797 187.676 155.6 188.18 156.613 188.18C157.732 188.18 158.541 187.576 158.547 186.691C158.541 185.766 157.803 185.115 156.484 185.109H155.793V184.184H156.484C157.516 184.184 158.236 183.604 158.23 182.73C158.236 181.881 157.615 181.318 156.648 181.312C155.74 181.318 154.914 181.816 154.867 182.648H153.848C153.9 181.301 155.154 180.398 156.66 180.398C158.277 180.398 159.262 181.459 159.25 182.672C159.262 183.639 158.699 184.342 157.809 184.594V184.652C158.916 184.822 159.584 185.613 159.578 186.691C159.584 188.086 158.318 189.117 156.625 189.117ZM161.242 189V180.516H166.387V181.453H162.297V184.289H166.117V185.215H162.297V188.062H166.445V189H161.242ZM168.051 189V180.516H171.027C172.809 180.516 173.646 181.518 173.641 182.766C173.646 183.855 172.996 184.342 172.258 184.547V184.629C173.049 184.676 173.975 185.402 173.98 186.75C173.975 188.021 173.137 189 171.133 189H168.051ZM169.105 188.062H171.121C172.451 188.062 172.967 187.477 172.961 186.738C172.967 185.877 172.27 185.145 171.18 185.145H169.105V188.062ZM169.105 184.23H170.992C171.912 184.236 172.633 183.662 172.633 182.777C172.633 182.039 172.135 181.453 171.027 181.453H169.105V184.23Z" fill="black" fill-opacity="0.56"/>
<rect x="214.668" y="106" width="101.333" height="100" rx="10" fill="#C5D1DB"/>
<path d="M234.794 169.127C232.775 169.127 231.328 168.016 231.29 166.41H233.22C233.251 167.096 233.918 167.546 234.807 167.553C235.721 167.546 236.375 167.039 236.368 166.296C236.375 165.547 235.708 165.02 234.629 165.014H233.778V163.604H234.629C235.537 163.604 236.171 163.109 236.165 162.386C236.171 161.681 235.632 161.199 234.819 161.205C234.007 161.199 233.34 161.656 233.309 162.36H231.48C231.512 160.78 232.934 159.682 234.819 159.682C236.736 159.682 238.012 160.818 238.006 162.271C238.012 163.3 237.295 164.03 236.267 164.214V164.29C237.619 164.455 238.361 165.274 238.349 166.423C238.361 167.997 236.87 169.127 234.794 169.127ZM243.262 169.127C240.958 169.127 239.567 167.413 239.567 164.404C239.567 161.402 240.97 159.682 243.262 159.682C245.553 159.682 246.956 161.402 246.956 164.404C246.956 167.426 245.56 169.127 243.262 169.127ZM241.522 164.404C241.51 166.524 242.195 167.553 243.262 167.553C244.328 167.553 245.007 166.524 245.001 164.404C245.007 162.303 244.322 161.25 243.262 161.243C242.202 161.25 241.522 162.303 241.522 164.404Z" fill="black"/>
<path d="M234.629 189L235.016 186.656H232.883L232.496 189H231.641L232.027 186.656H230.773L230.914 185.812H232.162L232.514 183.703H231.277L231.406 182.859H232.648L233.035 180.516H233.891L233.504 182.859H235.637L236.023 180.516H236.879L236.492 182.859H237.758L237.617 183.703H236.357L236.006 185.812H237.254L237.113 186.656H235.871L235.484 189H234.629ZM233.018 185.812H235.15L235.502 183.703H233.369L233.018 185.812ZM244.59 183.188C244.344 182.016 243.342 181.383 242.223 181.383C240.688 181.383 239.498 182.566 239.492 184.758C239.498 186.943 240.688 188.127 242.223 188.133C243.342 188.127 244.338 187.5 244.59 186.34H245.645C245.34 188.074 243.945 189.117 242.223 189.117C240.043 189.117 238.467 187.441 238.473 184.758C238.467 182.074 240.043 180.398 242.223 180.398C243.939 180.398 245.328 181.424 245.645 183.188H244.59ZM249.746 189.117C248.217 189.117 247.057 188.174 246.992 186.867H248.012C248.088 187.623 248.826 188.186 249.746 188.191C250.848 188.186 251.645 187.383 251.645 186.316C251.645 185.215 250.818 184.4 249.676 184.395C248.961 184.383 248.404 184.605 248.094 185.156H247.074L247.672 180.516H252.266V181.453H248.551L248.234 183.938H248.316C248.697 183.645 249.266 183.445 249.863 183.445C251.48 183.445 252.67 184.641 252.676 186.293C252.67 187.934 251.439 189.117 249.746 189.117ZM256.918 189H254.281V180.516H257.023C259.502 180.516 260.961 182.104 260.961 184.746C260.961 187.395 259.502 189 256.918 189ZM255.336 188.062H256.848C258.928 188.062 259.93 186.803 259.93 184.746C259.93 182.695 258.928 181.453 256.953 181.453H255.336V188.062ZM265.367 180.516V189H264.301V181.617H264.254L262.191 182.988V181.922L264.301 180.516H265.367ZM270.406 189H267.77V180.516H270.512C272.99 180.516 274.449 182.104 274.449 184.746C274.449 187.395 272.99 189 270.406 189ZM268.824 188.062H270.336C272.416 188.062 273.418 186.803 273.418 184.746C273.418 182.695 272.416 181.453 270.441 181.453H268.824V188.062ZM275.996 189V180.516H278.973C280.754 180.516 281.592 181.518 281.586 182.766C281.592 183.855 280.941 184.342 280.203 184.547V184.629C280.994 184.676 281.92 185.402 281.926 186.75C281.92 188.021 281.082 189 279.078 189H275.996ZM277.051 188.062H279.066C280.396 188.062 280.912 187.477 280.906 186.738C280.912 185.877 280.215 185.145 279.125 185.145H277.051V188.062ZM277.051 184.23H278.938C279.857 184.236 280.578 183.662 280.578 182.777C280.578 182.039 280.08 181.453 278.973 181.453H277.051V184.23Z" fill="black" fill-opacity="0.56"/>
<rect x="322" y="106" width="101.333" height="100" rx="10" fill="#B8C3CC"/>
<path d="M338.571 167.375V165.864L342.456 159.809H344.855V165.839H346.023V167.375H344.855V169H343.04V167.375H338.571ZM340.501 165.839H343.065V161.903H342.977L340.501 165.763V165.839ZM350.835 169.127C348.531 169.127 347.141 167.413 347.141 164.404C347.141 161.402 348.543 159.682 350.835 159.682C353.126 159.682 354.529 161.402 354.529 164.404C354.529 167.426 353.133 169.127 350.835 169.127ZM349.096 164.404C349.083 166.524 349.769 167.553 350.835 167.553C351.901 167.553 352.581 166.524 352.574 164.404C352.581 162.303 351.895 161.25 350.835 161.243C349.775 161.25 349.096 162.303 349.096 164.404Z" fill="black"/>
<path d="M341.961 189L342.348 186.656H340.215L339.828 189H338.973L339.359 186.656H338.105L338.246 185.812H339.494L339.846 183.703H338.609L338.738 182.859H339.98L340.367 180.516H341.223L340.836 182.859H342.969L343.355 180.516H344.211L343.824 182.859H345.09L344.949 183.703H343.689L343.338 185.812H344.586L344.445 186.656H343.203L342.816 189H341.961ZM340.35 185.812H342.482L342.834 183.703H340.701L340.35 185.812ZM346.133 189V180.516H349.109C350.891 180.516 351.729 181.518 351.723 182.766C351.729 183.855 351.078 184.342 350.34 184.547V184.629C351.131 184.676 352.057 185.402 352.062 186.75C352.057 188.021 351.219 189 349.215 189H346.133ZM347.188 188.062H349.203C350.533 188.062 351.049 187.477 351.043 186.738C351.049 185.877 350.352 185.145 349.262 185.145H347.188V188.062ZM347.188 184.23H349.074C349.994 184.236 350.715 183.662 350.715 182.777C350.715 182.039 350.217 181.453 349.109 181.453H347.188V184.23ZM356.258 189.117C354.471 189.117 353.24 188.127 353.246 186.75C353.24 185.654 354.002 184.746 354.969 184.594V184.547C354.125 184.354 353.568 183.574 353.574 182.648C353.568 181.354 354.705 180.398 356.258 180.398C357.805 180.398 358.941 181.354 358.953 182.648C358.941 183.574 358.379 184.354 357.547 184.547V184.594C358.508 184.746 359.27 185.654 359.281 186.75C359.27 188.127 358.027 189.117 356.258 189.117ZM354.301 186.691C354.283 187.582 355.039 188.186 356.258 188.191C357.471 188.186 358.227 187.582 358.227 186.691C358.227 185.754 357.4 185.062 356.258 185.062C355.121 185.062 354.283 185.754 354.301 186.691ZM354.594 182.73C354.6 183.586 355.285 184.166 356.258 184.172C357.225 184.166 357.922 183.586 357.922 182.73C357.922 181.881 357.248 181.307 356.258 181.312C355.25 181.307 354.6 181.881 354.594 182.73ZM366.629 183.188C366.383 182.016 365.381 181.383 364.262 181.383C362.727 181.383 361.537 182.566 361.531 184.758C361.537 186.943 362.727 188.127 364.262 188.133C365.381 188.127 366.377 187.5 366.629 186.34H367.684C367.379 188.074 365.984 189.117 364.262 189.117C362.082 189.117 360.506 187.441 360.512 184.758C360.506 182.074 362.082 180.398 364.262 180.398C365.979 180.398 367.367 181.424 367.684 183.188H366.629ZM371.949 189.117C370.262 189.117 369.049 188.215 368.996 186.867H370.062C370.121 187.676 370.924 188.18 371.938 188.18C373.057 188.18 373.865 187.576 373.871 186.691C373.865 185.766 373.127 185.115 371.809 185.109H371.117V184.184H371.809C372.84 184.184 373.561 183.604 373.555 182.73C373.561 181.881 372.939 181.318 371.973 181.312C371.064 181.318 370.238 181.816 370.191 182.648H369.172C369.225 181.301 370.479 180.398 371.984 180.398C373.602 180.398 374.586 181.459 374.574 182.672C374.586 183.639 374.023 184.342 373.133 184.594V184.652C374.24 184.822 374.908 185.613 374.902 186.691C374.908 188.086 373.643 189.117 371.949 189.117ZM382.355 183.188C382.109 182.016 381.107 181.383 379.988 181.383C378.453 181.383 377.264 182.566 377.258 184.758C377.264 186.943 378.453 188.127 379.988 188.133C381.107 188.127 382.104 187.5 382.355 186.34H383.41C383.105 188.074 381.711 189.117 379.988 189.117C377.809 189.117 376.232 187.441 376.238 184.758C376.232 182.074 377.809 180.398 379.988 180.398C381.705 180.398 383.094 181.424 383.41 183.188H382.355ZM390.676 183.188C390.43 182.016 389.428 181.383 388.309 181.383C386.773 181.383 385.584 182.566 385.578 184.758C385.584 186.943 386.773 188.127 388.309 188.133C389.428 188.127 390.424 187.5 390.676 186.34H391.73C391.426 188.074 390.031 189.117 388.309 189.117C386.129 189.117 384.553 187.441 384.559 184.758C384.553 182.074 386.129 180.398 388.309 180.398C390.025 180.398 391.414 181.424 391.73 183.188H390.676Z" fill="black" fill-opacity="0.56"/>
<rect x="429.332" y="106" width="101.333" height="100" rx="10" fill="#959EA6"/>
<path d="M449.433 169.127C447.516 169.127 446.113 167.997 446.081 166.41H447.935C447.979 167.127 448.633 167.623 449.433 167.616C450.385 167.623 451.064 166.95 451.058 165.991C451.064 165.014 450.372 164.334 449.407 164.328C448.715 164.328 448.233 164.588 447.96 165.103H446.233L446.729 159.809H452.391V161.37H448.303L448.049 163.693H448.125C448.461 163.243 449.16 162.913 449.966 162.919C451.654 162.913 452.911 164.176 452.911 165.94C452.911 167.8 451.502 169.127 449.433 169.127ZM457.773 169.127C455.469 169.127 454.079 167.413 454.079 164.404C454.079 161.402 455.482 159.682 457.773 159.682C460.065 159.682 461.468 161.402 461.468 164.404C461.468 167.426 460.071 169.127 457.773 169.127ZM456.034 164.404C456.021 166.524 456.707 167.553 457.773 167.553C458.84 167.553 459.519 166.524 459.513 164.404C459.519 162.303 458.833 161.25 457.773 161.243C456.713 161.25 456.034 162.303 456.034 164.404Z" fill="white"/>
<path d="M449.293 189L449.68 186.656H447.547L447.16 189H446.305L446.691 186.656H445.438L445.578 185.812H446.826L447.178 183.703H445.941L446.07 182.859H447.312L447.699 180.516H448.555L448.168 182.859H450.301L450.688 180.516H451.543L451.156 182.859H452.422L452.281 183.703H451.021L450.67 185.812H451.918L451.777 186.656H450.535L450.148 189H449.293ZM447.682 185.812H449.814L450.166 183.703H448.033L447.682 185.812ZM456.148 180.398C457.607 180.416 459.23 181.295 459.23 184.418C459.23 187.436 457.994 189.117 456.008 189.117C454.514 189.117 453.465 188.203 453.254 186.855H454.297C454.484 187.617 455.064 188.18 456.008 188.18C457.391 188.18 458.234 186.984 458.246 184.922H458.129C457.643 185.625 456.863 186.047 455.961 186.047C454.443 186.047 453.184 184.881 453.184 183.246C453.184 181.664 454.344 180.381 456.148 180.398ZM454.215 183.234C454.209 184.283 455.006 185.121 456.113 185.121C457.221 185.121 458.082 184.207 458.082 183.211C458.082 182.238 457.268 181.324 456.148 181.324C455.041 181.324 454.203 182.186 454.215 183.234ZM463.449 189.117C461.92 189.117 460.76 188.174 460.695 186.867H461.715C461.791 187.623 462.529 188.186 463.449 188.191C464.551 188.186 465.348 187.383 465.348 186.316C465.348 185.215 464.521 184.4 463.379 184.395C462.664 184.383 462.107 184.605 461.797 185.156H460.777L461.375 180.516H465.969V181.453H462.254L461.938 183.938H462.02C462.4 183.645 462.969 183.445 463.566 183.445C465.184 183.445 466.373 184.641 466.379 186.293C466.373 187.934 465.143 189.117 463.449 189.117ZM470.668 180.398C472.127 180.416 473.75 181.295 473.75 184.418C473.75 187.436 472.514 189.117 470.527 189.117C469.033 189.117 467.984 188.203 467.773 186.855H468.816C469.004 187.617 469.584 188.18 470.527 188.18C471.91 188.18 472.754 186.984 472.766 184.922H472.648C472.162 185.625 471.383 186.047 470.48 186.047C468.963 186.047 467.703 184.881 467.703 183.246C467.703 181.664 468.863 180.381 470.668 180.398ZM468.734 183.234C468.729 184.283 469.525 185.121 470.633 185.121C471.74 185.121 472.602 184.207 472.602 183.211C472.602 182.238 471.787 181.324 470.668 181.324C469.561 181.324 468.723 182.186 468.734 183.234ZM475.344 189V180.516H480.488V181.453H476.398V184.289H480.219V185.215H476.398V188.062H480.547V189H475.344ZM482.527 189H481.426L484.531 180.516H485.645L488.75 189H487.637L486.787 186.609H483.377L482.527 189ZM483.699 185.684H486.465L485.117 181.887H485.047L483.699 185.684ZM492.711 189.117C491.24 189.1 489.617 188.227 489.617 185.086C489.617 182.08 490.848 180.398 492.84 180.398C494.334 180.398 495.377 181.318 495.594 182.648H494.551C494.357 181.898 493.783 181.336 492.84 181.336C491.445 181.336 490.607 182.525 490.613 184.57H490.719C491.205 183.861 491.984 183.445 492.898 183.445C494.404 183.445 495.664 184.617 495.664 186.258C495.664 187.857 494.498 189.135 492.711 189.117ZM490.754 186.281C490.76 187.277 491.574 188.186 492.711 188.191C493.807 188.186 494.639 187.324 494.645 186.27C494.639 185.227 493.842 184.377 492.734 184.371C491.621 184.377 490.766 185.279 490.754 186.281Z" fill="white" fill-opacity="0.78"/>
<rect x="536.668" y="106" width="101.333" height="100" rx="10" fill="#858D94"/>
<path d="M556.946 169.127C555.048 169.121 553.233 167.984 553.239 164.62C553.246 161.516 554.725 159.682 557.022 159.682C558.87 159.682 560.139 160.85 560.323 162.36H558.444C558.292 161.719 557.765 161.319 557.022 161.319C555.772 161.319 555.118 162.443 555.105 164.252H555.194C555.62 163.433 556.527 162.957 557.543 162.957C559.2 162.957 560.431 164.195 560.425 165.928C560.431 167.794 559.022 169.133 556.946 169.127ZM555.296 165.979C555.309 166.88 555.994 167.623 556.934 167.616C557.879 167.623 558.571 166.905 558.571 165.979C558.571 165.058 557.892 164.347 556.959 164.341C556.02 164.347 555.309 165.083 555.296 165.979ZM565.312 169.127C563.008 169.127 561.618 167.413 561.618 164.404C561.618 161.402 563.021 159.682 565.312 159.682C567.604 159.682 569.007 161.402 569.007 164.404C569.007 167.426 567.61 169.127 565.312 169.127ZM563.573 164.404C563.561 166.524 564.246 167.553 565.312 167.553C566.379 167.553 567.058 166.524 567.052 164.404C567.058 162.303 566.373 161.25 565.312 161.243C564.252 161.25 563.573 162.303 563.573 164.404Z" fill="white"/>
<path d="M556.629 189L557.016 186.656H554.883L554.496 189H553.641L554.027 186.656H552.773L552.914 185.812H554.162L554.514 183.703H553.277L553.406 182.859H554.648L555.035 180.516H555.891L555.504 182.859H557.637L558.023 180.516H558.879L558.492 182.859H559.758L559.617 183.703H558.357L558.006 185.812H559.254L559.113 186.656H557.871L557.484 189H556.629ZM555.018 185.812H557.15L557.502 183.703H555.369L555.018 185.812ZM563.496 189.117C561.709 189.117 560.479 188.127 560.484 186.75C560.479 185.654 561.24 184.746 562.207 184.594V184.547C561.363 184.354 560.807 183.574 560.812 182.648C560.807 181.354 561.943 180.398 563.496 180.398C565.043 180.398 566.18 181.354 566.191 182.648C566.18 183.574 565.617 184.354 564.785 184.547V184.594C565.746 184.746 566.508 185.654 566.52 186.75C566.508 188.127 565.266 189.117 563.496 189.117ZM561.539 186.691C561.521 187.582 562.277 188.186 563.496 188.191C564.709 188.186 565.465 187.582 565.465 186.691C565.465 185.754 564.639 185.062 563.496 185.062C562.359 185.062 561.521 185.754 561.539 186.691ZM561.832 182.73C561.838 183.586 562.523 184.166 563.496 184.172C564.463 184.166 565.16 183.586 565.16 182.73C565.16 181.881 564.486 181.307 563.496 181.312C562.488 181.307 561.838 181.881 561.832 182.73ZM570.703 189.117C569.174 189.117 568.014 188.174 567.949 186.867H568.969C569.045 187.623 569.783 188.186 570.703 188.191C571.805 188.186 572.602 187.383 572.602 186.316C572.602 185.215 571.775 184.4 570.633 184.395C569.918 184.383 569.361 184.605 569.051 185.156H568.031L568.629 180.516H573.223V181.453H569.508L569.191 183.938H569.273C569.654 183.645 570.223 183.445 570.82 183.445C572.438 183.445 573.627 184.641 573.633 186.293C573.627 187.934 572.396 189.117 570.703 189.117ZM577.934 189.117C576.146 189.117 574.916 188.127 574.922 186.75C574.916 185.654 575.678 184.746 576.645 184.594V184.547C575.801 184.354 575.244 183.574 575.25 182.648C575.244 181.354 576.381 180.398 577.934 180.398C579.48 180.398 580.617 181.354 580.629 182.648C580.617 183.574 580.055 184.354 579.223 184.547V184.594C580.184 184.746 580.945 185.654 580.957 186.75C580.945 188.127 579.703 189.117 577.934 189.117ZM575.977 186.691C575.959 187.582 576.715 188.186 577.934 188.191C579.146 188.186 579.902 187.582 579.902 186.691C579.902 185.754 579.076 185.062 577.934 185.062C576.797 185.062 575.959 185.754 575.977 186.691ZM576.27 182.73C576.275 183.586 576.961 184.166 577.934 184.172C578.9 184.166 579.598 183.586 579.598 182.73C579.598 181.881 578.924 181.307 577.934 181.312C576.926 181.307 576.275 181.881 576.27 182.73ZM585.152 189H582.516V180.516H585.258C587.736 180.516 589.195 182.104 589.195 184.746C589.195 187.395 587.736 189 585.152 189ZM583.57 188.062H585.082C587.162 188.062 588.164 186.803 588.164 184.746C588.164 182.695 587.162 181.453 585.188 181.453H583.57V188.062ZM593.426 180.398C594.885 180.416 596.508 181.295 596.508 184.418C596.508 187.436 595.271 189.117 593.285 189.117C591.791 189.117 590.742 188.203 590.531 186.855H591.574C591.762 187.617 592.342 188.18 593.285 188.18C594.668 188.18 595.512 186.984 595.523 184.922H595.406C594.92 185.625 594.141 186.047 593.238 186.047C591.721 186.047 590.461 184.881 590.461 183.246C590.461 181.664 591.621 180.381 593.426 180.398ZM591.492 183.234C591.486 184.283 592.283 185.121 593.391 185.121C594.498 185.121 595.359 184.207 595.359 183.211C595.359 182.238 594.545 181.324 593.426 181.324C592.318 181.324 591.48 182.186 591.492 183.234ZM597.75 187.266V186.398L601.57 180.516H602.871V186.34H604.055V187.266H602.871V189H601.863V187.266H597.75ZM598.887 186.34H601.863V181.852H601.758L598.887 186.27V186.34Z" fill="white" fill-opacity="0.78"/>
<rect x="644" y="106" width="101.333" height="100" rx="10" fill="#6A7075"/>
<path d="M661.079 169L664.951 161.434V161.37H660.444V159.809H666.932V161.396L663.06 169H661.079ZM671.565 169.127C669.261 169.127 667.871 167.413 667.871 164.404C667.871 161.402 669.274 159.682 671.565 159.682C673.857 159.682 675.26 161.402 675.26 164.404C675.26 167.426 673.863 169.127 671.565 169.127ZM669.826 164.404C669.813 166.524 670.499 167.553 671.565 167.553C672.632 167.553 673.311 166.524 673.305 164.404C673.311 162.303 672.625 161.25 671.565 161.243C670.505 161.25 669.826 162.303 669.826 164.404Z" fill="white"/>
<path d="M663.961 189L664.348 186.656H662.215L661.828 189H660.973L661.359 186.656H660.105L660.246 185.812H661.494L661.846 183.703H660.609L660.738 182.859H661.98L662.367 180.516H663.223L662.836 182.859H664.969L665.355 180.516H666.211L665.824 182.859H667.09L666.949 183.703H665.689L665.338 185.812H666.586L666.445 186.656H665.203L664.816 189H663.961ZM662.35 185.812H664.482L664.834 183.703H662.701L662.35 185.812ZM670.945 189.117C669.475 189.1 667.852 188.227 667.852 185.086C667.852 182.08 669.082 180.398 671.074 180.398C672.568 180.398 673.611 181.318 673.828 182.648H672.785C672.592 181.898 672.018 181.336 671.074 181.336C669.68 181.336 668.842 182.525 668.848 184.57H668.953C669.439 183.861 670.219 183.445 671.133 183.445C672.639 183.445 673.898 184.617 673.898 186.258C673.898 187.857 672.732 189.135 670.945 189.117ZM668.988 186.281C668.994 187.277 669.809 188.186 670.945 188.191C672.041 188.186 672.873 187.324 672.879 186.27C672.873 185.227 672.076 184.377 670.969 184.371C669.855 184.377 669 185.279 668.988 186.281ZM675.867 189H674.766L677.871 180.516H678.984L682.09 189H680.977L680.127 186.609H676.717L675.867 189ZM677.039 185.684H679.805L678.457 181.887H678.387L677.039 185.684ZM683.367 189L687.258 181.512V181.453H682.77V180.516H688.348V181.5L684.469 189H683.367ZM692.309 189.117C690.428 189.117 689.338 187.535 689.344 184.758C689.338 182.004 690.439 180.398 692.309 180.398C694.172 180.398 695.273 182.004 695.273 184.758C695.273 187.535 694.189 189.117 692.309 189.117ZM690.363 184.758C690.369 186.955 691.078 188.18 692.309 188.18C693.533 188.18 694.248 186.955 694.242 184.758C694.248 182.561 693.527 181.318 692.309 181.312C691.09 181.318 690.369 182.561 690.363 184.758ZM696.715 189L700.605 181.512V181.453H696.117V180.516H701.695V181.5L697.816 189H696.715ZM705.715 189.117C704.186 189.117 703.025 188.174 702.961 186.867H703.98C704.057 187.623 704.795 188.186 705.715 188.191C706.816 188.186 707.613 187.383 707.613 186.316C707.613 185.215 706.787 184.4 705.645 184.395C704.93 184.383 704.373 184.605 704.062 185.156H703.043L703.641 180.516H708.234V181.453H704.52L704.203 183.938H704.285C704.666 183.645 705.234 183.445 705.832 183.445C707.449 183.445 708.639 184.641 708.645 186.293C708.639 187.934 707.408 189.117 705.715 189.117Z" fill="white" fill-opacity="0.78"/>
<rect x="751.332" y="106" width="101.333" height="100" rx="10" fill="#45494D"/>
<path d="M771.509 169.127C769.408 169.127 767.903 168.022 767.903 166.524C767.903 165.369 768.792 164.43 769.935 164.252V164.188C768.938 163.998 768.252 163.167 768.259 162.157C768.252 160.729 769.63 159.682 771.509 159.682C773.388 159.682 774.765 160.729 774.771 162.157C774.765 163.167 774.061 163.998 773.096 164.188V164.252C774.213 164.43 775.114 165.369 775.114 166.524C775.114 168.022 773.604 169.127 771.509 169.127ZM769.896 166.334C769.89 167.121 770.538 167.673 771.509 167.667C772.48 167.673 773.127 167.121 773.121 166.334C773.127 165.541 772.442 164.957 771.509 164.95C770.576 164.957 769.89 165.534 769.896 166.334ZM770.125 162.348C770.119 163.084 770.696 163.598 771.509 163.604C772.315 163.598 772.899 163.084 772.905 162.348C772.899 161.63 772.328 161.129 771.509 161.129C770.684 161.129 770.119 161.63 770.125 162.348ZM779.989 169.127C777.685 169.127 776.295 167.413 776.295 164.404C776.295 161.402 777.698 159.682 779.989 159.682C782.281 159.682 783.684 161.402 783.684 164.404C783.684 167.426 782.287 169.127 779.989 169.127ZM778.25 164.404C778.237 166.524 778.923 167.553 779.989 167.553C781.056 167.553 781.735 166.524 781.729 164.404C781.735 162.303 781.049 161.25 779.989 161.243C778.929 161.25 778.25 162.303 778.25 164.404Z" fill="white"/>
<path d="M771.293 189L771.68 186.656H769.547L769.16 189H768.305L768.691 186.656H767.438L767.578 185.812H768.826L769.178 183.703H767.941L768.07 182.859H769.312L769.699 180.516H770.555L770.168 182.859H772.301L772.688 180.516H773.543L773.156 182.859H774.422L774.281 183.703H773.021L772.67 185.812H773.918L773.777 186.656H772.535L772.148 189H771.293ZM769.682 185.812H771.814L772.166 183.703H770.033L769.682 185.812ZM775.113 187.266V186.398L778.934 180.516H780.234V186.34H781.418V187.266H780.234V189H779.227V187.266H775.113ZM776.25 186.34H779.227V181.852H779.121L776.25 186.27V186.34ZM785.578 189.117C784.049 189.117 782.889 188.174 782.824 186.867H783.844C783.92 187.623 784.658 188.186 785.578 188.191C786.68 188.186 787.477 187.383 787.477 186.316C787.477 185.215 786.65 184.4 785.508 184.395C784.793 184.383 784.236 184.605 783.926 185.156H782.906L783.504 180.516H788.098V181.453H784.383L784.066 183.938H784.148C784.529 183.645 785.098 183.445 785.695 183.445C787.312 183.445 788.502 184.641 788.508 186.293C788.502 187.934 787.271 189.117 785.578 189.117ZM789.762 187.266V186.398L793.582 180.516H794.883V186.34H796.066V187.266H794.883V189H793.875V187.266H789.762ZM790.898 186.34H793.875V181.852H793.77L790.898 186.27V186.34ZM800.285 180.398C801.744 180.416 803.367 181.295 803.367 184.418C803.367 187.436 802.131 189.117 800.145 189.117C798.65 189.117 797.602 188.203 797.391 186.855H798.434C798.621 187.617 799.201 188.18 800.145 188.18C801.527 188.18 802.371 186.984 802.383 184.922H802.266C801.779 185.625 801 186.047 800.098 186.047C798.58 186.047 797.32 184.881 797.32 183.246C797.32 181.664 798.48 180.381 800.285 180.398ZM798.352 183.234C798.346 184.283 799.143 185.121 800.25 185.121C801.357 185.121 802.219 184.207 802.219 183.211C802.219 182.238 801.404 181.324 800.285 181.324C799.178 181.324 798.34 182.186 798.352 183.234ZM804.609 187.266V186.398L808.43 180.516H809.73V186.34H810.914V187.266H809.73V189H808.723V187.266H804.609ZM805.746 186.34H808.723V181.852H808.617L805.746 186.27V186.34ZM815.086 189H812.449V180.516H815.191C817.67 180.516 819.129 182.104 819.129 184.746C819.129 187.395 817.67 189 815.086 189ZM813.504 188.062H815.016C817.096 188.062 818.098 186.803 818.098 184.746C818.098 182.695 817.096 181.453 815.121 181.453H813.504V188.062Z" fill="white" fill-opacity="0.78"/>
<rect x="858.668" y="106" width="101.333" height="100" rx="10" fill="#20272E"/>
<path d="M878.743 159.682C880.647 159.688 882.45 160.824 882.45 164.163C882.457 167.286 880.978 169.127 878.667 169.127C876.82 169.127 875.55 167.965 875.366 166.41H877.245C877.404 167.089 877.931 167.489 878.667 167.489C879.917 167.489 880.578 166.366 880.584 164.531H880.508C880.076 165.344 879.168 165.826 878.146 165.826C876.496 165.826 875.277 164.582 875.265 162.868C875.265 161.021 876.667 159.675 878.743 159.682ZM877.131 162.817C877.131 163.725 877.797 164.43 878.743 164.43C879.676 164.43 880.394 163.687 880.394 162.805C880.381 161.929 879.695 161.186 878.756 161.18C877.816 161.186 877.118 161.903 877.131 162.817ZM887.312 169.127C885.008 169.127 883.618 167.413 883.618 164.404C883.618 161.402 885.021 159.682 887.312 159.682C889.604 159.682 891.007 161.402 891.007 164.404C891.007 167.426 889.61 169.127 887.312 169.127ZM885.573 164.404C885.561 166.524 886.246 167.553 887.312 167.553C888.379 167.553 889.058 166.524 889.052 164.404C889.058 162.303 888.373 161.25 887.312 161.243C886.252 161.25 885.573 162.303 885.573 164.404Z" fill="white"/>
<path d="M878.629 189L879.016 186.656H876.883L876.496 189H875.641L876.027 186.656H874.773L874.914 185.812H876.162L876.514 183.703H875.277L875.406 182.859H876.648L877.035 180.516H877.891L877.504 182.859H879.637L880.023 180.516H880.879L880.492 182.859H881.758L881.617 183.703H880.357L880.006 185.812H881.254L881.113 186.656H879.871L879.484 189H878.629ZM877.018 185.812H879.15L879.502 183.703H877.369L877.018 185.812ZM882.66 189L882.648 188.227L885.543 185.18C886.545 184.113 887.025 183.539 887.031 182.754C887.025 181.881 886.299 181.318 885.344 181.312C884.33 181.318 883.697 181.957 883.691 182.906H882.695C882.684 181.406 883.844 180.398 885.379 180.398C886.92 180.398 888.01 181.436 888.016 182.754C888.01 183.703 887.57 184.441 886.07 185.988L884.125 187.992V188.062H888.168V189H882.66ZM892.48 189.117C890.6 189.117 889.51 187.535 889.516 184.758C889.51 182.004 890.611 180.398 892.48 180.398C894.344 180.398 895.445 182.004 895.445 184.758C895.445 187.535 894.361 189.117 892.48 189.117ZM890.535 184.758C890.541 186.955 891.25 188.18 892.48 188.18C893.705 188.18 894.42 186.955 894.414 184.758C894.42 182.561 893.699 181.318 892.48 181.312C891.262 181.318 890.541 182.561 890.535 184.758ZM896.852 189L896.84 188.227L899.734 185.18C900.736 184.113 901.217 183.539 901.223 182.754C901.217 181.881 900.49 181.318 899.535 181.312C898.521 181.318 897.889 181.957 897.883 182.906H896.887C896.875 181.406 898.035 180.398 899.57 180.398C901.111 180.398 902.201 181.436 902.207 182.754C902.201 183.703 901.762 184.441 900.262 185.988L898.316 187.992V188.062H902.359V189H896.852ZM904.164 189L908.055 181.512V181.453H903.566V180.516H909.145V181.5L905.266 189H904.164ZM910.516 189L910.504 188.227L913.398 185.18C914.4 184.113 914.881 183.539 914.887 182.754C914.881 181.881 914.154 181.318 913.199 181.312C912.186 181.318 911.553 181.957 911.547 182.906H910.551C910.539 181.406 911.699 180.398 913.234 180.398C914.775 180.398 915.865 181.436 915.871 182.754C915.865 183.703 915.426 184.441 913.926 185.988L911.98 187.992V188.062H916.023V189H910.516ZM917.699 189V180.516H922.844V181.453H918.754V184.289H922.574V185.215H918.754V188.062H922.902V189H917.699Z" fill="white" fill-opacity="0.78"/>
<rect y="212" width="316" height="100" rx="10" fill="#F9F9F9"/>
<path d="M16.7852 237V228.516H20.0312C21.8711 228.516 22.7793 229.453 22.7852 230.719C22.7793 231.75 22.1289 232.324 21.2969 232.523V232.605C22.1992 232.652 23.1133 233.402 23.1133 234.691C23.1133 236.01 22.1582 237 20.2188 237H16.7852ZM18.3086 235.723H19.9844C21.0977 235.723 21.5605 235.248 21.5664 234.574C21.5605 233.812 20.9688 233.232 20.0195 233.227H18.3086V235.723ZM18.3086 232.125H19.8438C20.6465 232.125 21.2559 231.662 21.2617 230.906C21.2559 230.256 20.7871 229.781 19.8789 229.781H18.3086V232.125ZM27.0625 239.52C25.375 239.52 24.3027 238.77 24.2031 237.574H25.6914C25.7969 238.131 26.3184 238.389 27.0859 238.395C27.9824 238.389 28.5625 238.002 28.5625 237.07V235.852H28.4922C28.2578 236.32 27.748 236.906 26.6523 236.906C25.1816 236.906 24.0273 235.84 24.0273 233.766C24.0273 231.674 25.1875 230.555 26.6641 230.555C27.7832 230.555 28.2578 231.229 28.4922 231.68H28.5625V230.637H30.0391V237.105C30.0391 238.734 28.7793 239.52 27.0625 239.52ZM25.5508 233.789C25.5508 234.961 26.0781 235.734 27.0625 235.734C28.0293 235.734 28.5742 235.008 28.5742 233.789C28.5742 232.576 28.0352 231.779 27.0625 231.773C26.0664 231.779 25.5508 232.629 25.5508 233.789Z" fill="black" fill-opacity="0.32"/>
<path d="M20.6846 265.809V275H18.7676V267.624H18.7168L16.6094 268.944V267.256L18.8818 265.809H20.6846ZM26.3848 275.127C24.0806 275.127 22.6904 273.413 22.6904 270.404C22.6904 267.402 24.0933 265.682 26.3848 265.682C28.6763 265.682 30.0791 267.402 30.0791 270.404C30.0791 273.426 28.6826 275.127 26.3848 275.127ZM24.6455 270.404C24.6328 272.524 25.3184 273.553 26.3848 273.553C27.4512 273.553 28.1304 272.524 28.124 270.404C28.1304 268.303 27.4448 267.25 26.3848 267.243C25.3247 267.25 24.6455 268.303 24.6455 270.404Z" fill="black"/>
<path d="M19.9609 295L20.3477 292.656H18.2148L17.8281 295H16.9727L17.3594 292.656H16.1055L16.2461 291.812H17.4941L17.8457 289.703H16.6094L16.7383 288.859H17.9805L18.3672 286.516H19.2227L18.8359 288.859H20.9688L21.3555 286.516H22.2109L21.8242 288.859H23.0898L22.9492 289.703H21.6895L21.3379 291.812H22.5859L22.4453 292.656H21.2031L20.8164 295H19.9609ZM18.3496 291.812H20.4824L20.834 289.703H18.7012L18.3496 291.812ZM24.1328 295V286.516H29.2422V287.453H25.1875V290.289H28.8555V291.215H25.1875V295H24.1328ZM33.4961 286.398C34.9551 286.416 36.5781 287.295 36.5781 290.418C36.5781 293.436 35.3418 295.117 33.3555 295.117C31.8613 295.117 30.8125 294.203 30.6016 292.855H31.6445C31.832 293.617 32.4121 294.18 33.3555 294.18C34.7383 294.18 35.582 292.984 35.5938 290.922H35.4766C34.9902 291.625 34.2109 292.047 33.3086 292.047C31.791 292.047 30.5312 290.881 30.5312 289.246C30.5312 287.664 31.6914 286.381 33.4961 286.398ZM31.5625 289.234C31.5566 290.283 32.3535 291.121 33.4609 291.121C34.5684 291.121 35.4297 290.207 35.4297 289.211C35.4297 288.238 34.6152 287.324 33.4961 287.324C32.3887 287.324 31.5508 288.186 31.5625 289.234ZM38.1719 295V286.516H43.2812V287.453H39.2266V290.289H42.8945V291.215H39.2266V295H38.1719ZM47.5352 286.398C48.9941 286.416 50.6172 287.295 50.6172 290.418C50.6172 293.436 49.3809 295.117 47.3945 295.117C45.9004 295.117 44.8516 294.203 44.6406 292.855H45.6836C45.8711 293.617 46.4512 294.18 47.3945 294.18C48.7773 294.18 49.6211 292.984 49.6328 290.922H49.5156C49.0293 291.625 48.25 292.047 47.3477 292.047C45.8301 292.047 44.5703 290.881 44.5703 289.246C44.5703 287.664 45.7305 286.381 47.5352 286.398ZM45.6016 289.234C45.5957 290.283 46.3926 291.121 47.5 291.121C48.6074 291.121 49.4688 290.207 49.4688 289.211C49.4688 288.238 48.6543 287.324 47.5352 287.324C46.4277 287.324 45.5898 288.186 45.6016 289.234ZM52.2109 295V286.516H57.3203V287.453H53.2656V290.289H56.9336V291.215H53.2656V295H52.2109ZM61.5742 286.398C63.0332 286.416 64.6562 287.295 64.6562 290.418C64.6562 293.436 63.4199 295.117 61.4336 295.117C59.9395 295.117 58.8906 294.203 58.6797 292.855H59.7227C59.9102 293.617 60.4902 294.18 61.4336 294.18C62.8164 294.18 63.6602 292.984 63.6719 290.922H63.5547C63.0684 291.625 62.2891 292.047 61.3867 292.047C59.8691 292.047 58.6094 290.881 58.6094 289.246C58.6094 287.664 59.7695 286.381 61.5742 286.398ZM59.6406 289.234C59.6348 290.283 60.4316 291.121 61.5391 291.121C62.6465 291.121 63.5078 290.207 63.5078 289.211C63.5078 288.238 62.6934 287.324 61.5742 287.324C60.4668 287.324 59.6289 288.186 59.6406 289.234Z" fill="black" fill-opacity="0.56"/>
<rect x="322" y="212" width="316" height="100" rx="10" fill="#F6F6F6"/>
<path d="M338.724 275L338.711 273.616L342.012 270.582C342.869 269.763 343.332 269.255 343.332 268.525C343.332 267.707 342.716 267.199 341.872 267.205C341.009 267.199 340.444 267.745 340.45 268.627H338.635C338.628 266.831 339.961 265.682 341.897 265.682C343.865 265.682 345.173 266.805 345.173 268.398C345.173 269.446 344.665 270.303 342.773 272.017L341.377 273.375V273.426H345.3V275H338.724ZM350.226 275.127C347.921 275.127 346.531 273.413 346.531 270.404C346.531 267.402 347.934 265.682 350.226 265.682C352.517 265.682 353.92 267.402 353.92 270.404C353.92 273.426 352.523 275.127 350.226 275.127ZM348.486 270.404C348.474 272.524 349.159 273.553 350.226 273.553C351.292 273.553 351.971 272.524 351.965 270.404C351.971 268.303 351.286 267.25 350.226 267.243C349.166 267.25 348.486 268.303 348.486 270.404Z" fill="black"/>
<path d="M341.961 295L342.348 292.656H340.215L339.828 295H338.973L339.359 292.656H338.105L338.246 291.812H339.494L339.846 289.703H338.609L338.738 288.859H339.98L340.367 286.516H341.223L340.836 288.859H342.969L343.355 286.516H344.211L343.824 288.859H345.09L344.949 289.703H343.689L343.338 291.812H344.586L344.445 292.656H343.203L342.816 295H341.961ZM340.35 291.812H342.482L342.834 289.703H340.701L340.35 291.812ZM346.133 295V286.516H351.242V287.453H347.188V290.289H350.855V291.215H347.188V295H346.133ZM355.625 295.117C354.154 295.1 352.531 294.227 352.531 291.086C352.531 288.08 353.762 286.398 355.754 286.398C357.248 286.398 358.291 287.318 358.508 288.648H357.465C357.271 287.898 356.697 287.336 355.754 287.336C354.359 287.336 353.521 288.525 353.527 290.57H353.633C354.119 289.861 354.898 289.445 355.812 289.445C357.318 289.445 358.578 290.617 358.578 292.258C358.578 293.857 357.412 295.135 355.625 295.117ZM353.668 292.281C353.674 293.277 354.488 294.186 355.625 294.191C356.721 294.186 357.553 293.324 357.559 292.27C357.553 291.227 356.756 290.377 355.648 290.371C354.535 290.377 353.68 291.279 353.668 292.281ZM360.172 295V286.516H365.281V287.453H361.227V290.289H364.895V291.215H361.227V295H360.172ZM369.664 295.117C368.193 295.1 366.57 294.227 366.57 291.086C366.57 288.08 367.801 286.398 369.793 286.398C371.287 286.398 372.33 287.318 372.547 288.648H371.504C371.311 287.898 370.736 287.336 369.793 287.336C368.398 287.336 367.561 288.525 367.566 290.57H367.672C368.158 289.861 368.938 289.445 369.852 289.445C371.357 289.445 372.617 290.617 372.617 292.258C372.617 293.857 371.451 295.135 369.664 295.117ZM367.707 292.281C367.713 293.277 368.527 294.186 369.664 294.191C370.76 294.186 371.592 293.324 371.598 292.27C371.592 291.227 370.795 290.377 369.688 290.371C368.574 290.377 367.719 291.279 367.707 292.281ZM374.211 295V286.516H379.32V287.453H375.266V290.289H378.934V291.215H375.266V295H374.211ZM383.703 295.117C382.232 295.1 380.609 294.227 380.609 291.086C380.609 288.08 381.84 286.398 383.832 286.398C385.326 286.398 386.369 287.318 386.586 288.648H385.543C385.35 287.898 384.775 287.336 383.832 287.336C382.438 287.336 381.6 288.525 381.605 290.57H381.711C382.197 289.861 382.977 289.445 383.891 289.445C385.396 289.445 386.656 290.617 386.656 292.258C386.656 293.857 385.49 295.135 383.703 295.117ZM381.746 292.281C381.752 293.277 382.566 294.186 383.703 294.191C384.799 294.186 385.631 293.324 385.637 292.27C385.631 291.227 384.834 290.377 383.727 290.371C382.613 290.377 381.758 291.279 381.746 292.281Z" fill="black" fill-opacity="0.56"/>
<rect x="644" y="212" width="316" height="100" rx="10" fill="#E9ECEF"/>
<path d="M660.785 237V228.516H662.309V235.711H666.059V237H660.785ZM667.207 237V230.637H668.707V237H667.207ZM667.102 228.914C667.102 228.469 667.494 228.105 667.969 228.105C668.443 228.105 668.836 228.469 668.836 228.914C668.836 229.365 668.443 229.729 667.969 229.734C667.494 229.729 667.102 229.365 667.102 228.914ZM671.637 233.273V237H670.137V230.637H671.566V231.715H671.648C671.936 231.006 672.586 230.555 673.535 230.555C674.854 230.555 675.721 231.422 675.715 232.945V237H674.227V233.18C674.227 232.324 673.764 231.814 672.984 231.82C672.193 231.814 671.637 232.348 671.637 233.273ZM679.969 237.129C678.053 237.129 676.875 235.852 676.875 233.859C676.875 231.891 678.07 230.555 679.887 230.555C681.445 230.555 682.793 231.533 682.793 233.766V234.234H678.352C678.375 235.318 679.014 235.963 679.98 235.957C680.637 235.963 681.076 235.682 681.27 235.301H682.734C682.465 236.402 681.445 237.129 679.969 237.129ZM678.357 233.215H681.363C681.357 232.348 680.771 231.715 679.91 231.715C679.014 231.715 678.41 232.406 678.357 233.215Z" fill="black" fill-opacity="0.32"/>
<path d="M664.685 265.809V275H662.768V267.624H662.717L660.609 268.944V267.256L662.882 265.809H664.685ZM670.385 275.127C668.081 275.127 666.69 273.413 666.69 270.404C666.69 267.402 668.093 265.682 670.385 265.682C672.676 265.682 674.079 267.402 674.079 270.404C674.079 273.426 672.683 275.127 670.385 275.127ZM668.646 270.404C668.633 272.524 669.318 273.553 670.385 273.553C671.451 273.553 672.13 272.524 672.124 270.404C672.13 268.303 671.445 267.25 670.385 267.243C669.325 267.25 668.646 268.303 668.646 270.404Z" fill="black"/>
<path d="M663.961 295L664.348 292.656H662.215L661.828 295H660.973L661.359 292.656H660.105L660.246 291.812H661.494L661.846 289.703H660.609L660.738 288.859H661.98L662.367 286.516H663.223L662.836 288.859H664.969L665.355 286.516H666.211L665.824 288.859H667.09L666.949 289.703H665.689L665.338 291.812H666.586L666.445 292.656H665.203L664.816 295H663.961ZM662.35 291.812H664.482L664.834 289.703H662.701L662.35 291.812ZM668.133 295V286.516H673.242V287.453H669.188V290.289H672.855V291.215H669.188V295H668.133ZM677.449 295.117C675.568 295.117 674.479 293.535 674.484 290.758C674.479 288.004 675.58 286.398 677.449 286.398C679.312 286.398 680.414 288.004 680.414 290.758C680.414 293.535 679.33 295.117 677.449 295.117ZM675.504 290.758C675.51 292.955 676.219 294.18 677.449 294.18C678.674 294.18 679.389 292.955 679.383 290.758C679.389 288.561 678.668 287.318 677.449 287.312C676.23 287.318 675.51 288.561 675.504 290.758ZM681.961 295V286.516H687.07V287.453H683.016V290.289H686.684V291.215H683.016V295H681.961ZM691.277 295.117C689.396 295.117 688.307 293.535 688.312 290.758C688.307 288.004 689.408 286.398 691.277 286.398C693.141 286.398 694.242 288.004 694.242 290.758C694.242 293.535 693.158 295.117 691.277 295.117ZM689.332 290.758C689.338 292.955 690.047 294.18 691.277 294.18C692.502 294.18 693.217 292.955 693.211 290.758C693.217 288.561 692.496 287.318 691.277 287.312C690.059 287.318 689.338 288.561 689.332 290.758ZM695.789 295V286.516H700.898V287.453H696.844V290.289H700.512V291.215H696.844V295H695.789ZM705.105 295.117C703.225 295.117 702.135 293.535 702.141 290.758C702.135 288.004 703.236 286.398 705.105 286.398C706.969 286.398 708.07 288.004 708.07 290.758C708.07 293.535 706.986 295.117 705.105 295.117ZM703.16 290.758C703.166 292.955 703.875 294.18 705.105 294.18C706.33 294.18 707.045 292.955 707.039 290.758C707.045 288.561 706.324 287.318 705.105 287.312C703.887 287.318 703.166 288.561 703.16 290.758Z" fill="black" fill-opacity="0.56"/>
</svg>
