<svg width="960" height="312" viewBox="0 0 960 312" fill="none" xmlns="http://www.w3.org/2000/svg">
<g clip-path="url(#clip0_914_63145)">
<rect width="960" height="312" rx="16" fill="#F9F9F9"/>
<path d="M38.1992 61.7998V63.1992C38.1992 63.5305 37.9308 63.7996 37.5996 63.7998H35.999C35.6677 63.7997 35.3994 63.5305 35.3994 63.1992V61.7998H38.1992Z" fill="#855CFF" stroke="#855CFF" stroke-width="0.4"/>
<path d="M60.6016 61.7998V63.1992C60.6016 63.5305 60.3331 63.7996 60.002 63.7998H58.4014C58.0701 63.7997 57.8018 63.5305 57.8018 63.1992V61.7998H60.6016Z" fill="#855CFF" stroke="#855CFF" stroke-width="0.4"/>
<mask id="mask0_914_63145" style="mask-type:alpha" maskUnits="userSpaceOnUse" x="32" y="32" width="32" height="30">
<rect x="32" y="32" width="32" height="29.6" rx="2.4" fill="#5CE5A5"/>
</mask>
<g mask="url(#mask0_914_63145)">
<rect x="32" y="32" width="9.6" height="29.6" fill="#EDEBF2"/>
<path d="M41.6016 32H51.2016V61.6H41.6016V32Z" fill="#DCDAE0"/>
<path d="M51.1992 32H63.9992V45.6H51.1992V32Z" fill="#9E8CFF"/>
<path d="M51.1992 45.5996H63.9992V53.5996H51.1992V45.5996Z" fill="#EDEBF2"/>
<path d="M51.1992 53.5996H63.9992V61.5996H51.1992V53.5996Z" fill="#EDEBF2"/>
<rect x="38.8008" y="44.7998" width="1.6" height="3.2" rx="0.8" fill="#9E8CFF"/>
<rect x="42.8008" y="44.7998" width="1.6" height="3.2" rx="0.8" fill="#9E8CFF"/>
<rect x="59.1992" y="46.4004" width="1.6" height="3.2" rx="0.8" transform="rotate(90 59.1992 46.4004)" fill="#9E8CFF"/>
<rect x="59.1992" y="54.4004" width="1.6" height="3.2" rx="0.8" transform="rotate(90 59.1992 54.4004)" fill="#9E8CFF"/>
</g>
<rect x="102" y="44.7998" width="36" height="3.2" rx="1.6" fill="#C7C6CC"/>
<path d="M104 48H106.4V63.2C106.4 63.6418 106.042 64 105.6 64H104.8C104.358 64 104 63.6418 104 63.2V48Z" fill="#C7C6CC"/>
<path d="M133.602 48H136.002V63.2C136.002 63.6418 135.643 64 135.202 64H134.402C133.96 64 133.602 63.6418 133.602 63.2V48Z" fill="#C7C6CC"/>
<rect x="106.398" y="48" width="27.2" height="12" fill="#DCDAE0"/>
<rect x="124" y="48" width="9.6" height="12" fill="#EDEBF2"/>
<rect x="130.398" y="50.4004" width="1.6" height="3.2" rx="0.8" transform="rotate(90 130.398 50.4004)" fill="#9E8CFF"/>
<rect x="130.398" y="56" width="1.6" height="3.2" rx="0.8" transform="rotate(90 130.398 56)" fill="#9E8CFF"/>
<path d="M176 42.4C176 41.0745 177.075 40 178.4 40H205.6C206.925 40 208 41.0745 208 42.4V42.4H176V42.4Z" fill="#C7C6CC"/>
<rect x="176" y="52.4004" width="32" height="2.4" fill="#C7C6CC"/>
<path d="M176 42.4004H178.4V63.2004C178.4 63.6422 178.042 64.0004 177.6 64.0004H176.8C176.358 64.0004 176 63.6422 176 63.2004V42.4004Z" fill="#C7C6CC"/>
<path d="M205.602 42.4004H208.002V63.2004C208.002 63.6422 207.643 64.0004 207.202 64.0004H206.402C205.96 64.0004 205.602 63.6422 205.602 63.2004V42.4004Z" fill="#C7C6CC"/>
<path d="M181.199 51.52C181.199 50.062 184.279 49.76 184.499 48H187.599C187.82 48 187.999 48.179 187.999 48.3999C187.999 48.6903 187.999 49.074 187.999 49.32V51.96C187.999 52.203 187.802 52.4 187.559 52.4H181.639C181.396 52.4 181.199 52.203 181.199 51.96V51.52Z" fill="#9E8CFF"/>
<mask id="mask1_914_63145" style="mask-type:alpha" maskUnits="userSpaceOnUse" x="181" y="48" width="7" height="5">
<path d="M181.199 51.52C181.199 50.062 184.279 49.76 184.499 48H187.599C187.82 48 187.999 48.179 187.999 48.3999C187.999 48.6903 187.999 49.074 187.999 49.32V51.96C187.999 52.203 187.802 52.4 187.559 52.4H181.639C181.396 52.4 181.199 52.203 181.199 51.96V51.52Z" fill="#8670FF"/>
</mask>
<g mask="url(#mask1_914_63145)">
<rect x="181.199" y="51.0801" width="7.04" height="1.32" fill="#855CFF"/>
</g>
<path d="M188 39.1196C188 37.6616 191.08 37.3596 191.3 35.5996H194.4C194.621 35.5996 194.8 35.7786 194.8 35.9995C194.8 36.2899 194.8 36.6736 194.8 36.9196V39.5596C194.8 39.8026 194.603 39.9996 194.36 39.9996H188.44C188.197 39.9996 188 39.8026 188 39.5596V39.1196Z" fill="#9E8CFF"/>
<mask id="mask2_914_63145" style="mask-type:alpha" maskUnits="userSpaceOnUse" x="188" y="35" width="7" height="5">
<path d="M188 39.1196C188 37.6616 191.08 37.3596 191.3 35.5996H194.4C194.621 35.5996 194.8 35.7786 194.8 35.9995C194.8 36.2899 194.8 36.6736 194.8 36.9196V39.5596C194.8 39.8026 194.603 39.9996 194.36 39.9996H188.44C188.197 39.9996 188 39.8026 188 39.5596V39.1196Z" fill="#8670FF"/>
</mask>
<g mask="url(#mask2_914_63145)">
<rect x="188" y="38.6797" width="7.04" height="1.32" fill="#855CFF"/>
</g>
<path d="M189.199 51.52C189.199 50.062 192.279 49.76 192.499 48H195.599C195.82 48 195.999 48.179 195.999 48.3999C195.999 48.6903 195.999 49.074 195.999 49.32V51.96C195.999 52.203 195.802 52.4 195.559 52.4H189.639C189.396 52.4 189.199 52.203 189.199 51.96V51.52Z" fill="#9E8CFF"/>
<mask id="mask3_914_63145" style="mask-type:alpha" maskUnits="userSpaceOnUse" x="189" y="48" width="7" height="5">
<path d="M189.199 51.52C189.199 50.062 192.279 49.76 192.499 48H195.599C195.82 48 195.999 48.179 195.999 48.3999C195.999 48.6903 195.999 49.074 195.999 49.32V51.96C195.999 52.203 195.802 52.4 195.559 52.4H189.639C189.396 52.4 189.199 52.203 189.199 51.96V51.52Z" fill="#8670FF"/>
</mask>
<g mask="url(#mask3_914_63145)">
<rect x="189.199" y="51.0801" width="7.04" height="1.32" fill="#855CFF"/>
</g>
<path d="M196 39.1196C196 37.6616 199.08 37.3596 199.3 35.5996H202.4C202.621 35.5996 202.8 35.7786 202.8 35.9995C202.8 36.2899 202.8 36.6736 202.8 36.9196V39.5596C202.8 39.8026 202.603 39.9996 202.36 39.9996H196.44C196.197 39.9996 196 39.8026 196 39.5596V39.1196Z" fill="#9E8CFF"/>
<mask id="mask4_914_63145" style="mask-type:alpha" maskUnits="userSpaceOnUse" x="196" y="35" width="7" height="5">
<path d="M196 39.1196C196 37.6616 199.08 37.3596 199.3 35.5996H202.4C202.621 35.5996 202.8 35.7786 202.8 35.9995C202.8 36.2899 202.8 36.6736 202.8 36.9196V39.5596C202.8 39.8026 202.603 39.9996 202.36 39.9996H196.44C196.197 39.9996 196 39.8026 196 39.5596V39.1196Z" fill="#8670FF"/>
</mask>
<g mask="url(#mask4_914_63145)">
<rect x="196" y="38.6797" width="7.04" height="1.32" fill="#855CFF"/>
</g>
<rect x="255.602" y="54.4004" width="16.8" height="1.6" fill="#855CFF"/>
<path d="M253.956 49.5996H257.2L255.433 62.6085C255.325 63.4053 254.645 63.9996 253.841 63.9996C252.867 63.9996 252.117 63.1407 252.248 62.1758L253.956 49.5996Z" fill="#855CFF"/>
<path d="M274.044 49.5996H270.8L272.567 62.6085C272.675 63.4053 273.355 63.9996 274.159 63.9996C275.133 63.9996 275.883 63.1407 275.752 62.1758L274.044 49.5996Z" fill="#855CFF"/>
<rect x="248" y="40" width="32" height="3.2" rx="0.8" fill="#9E8CFF"/>
<path d="M250.398 43.2002H277.598V47.2002C277.598 48.5257 276.524 49.6002 275.198 49.6002H252.798C251.473 49.6002 250.398 48.5257 250.398 47.2002V43.2002Z" fill="#C7C6CC"/>
<rect x="265.602" y="45.5996" width="1.6" height="3.2" rx="0.8" transform="rotate(90 265.602 45.5996)" fill="#9E8CFF"/>
<path d="M320 45.6002C320 44.2747 321.075 43.2002 322.4 43.2002H349.6C350.925 43.2002 352 44.2747 352 45.6002V51.2002H320V45.6002Z" fill="#EDEBF2"/>
<path d="M323.199 61.5996H326.399V63.1996C326.399 63.6414 326.041 63.9996 325.599 63.9996H323.999C323.557 63.9996 323.199 63.6414 323.199 63.1996V61.5996Z" fill="#855CFF"/>
<path d="M345.602 61.5996H348.802V63.1996C348.802 63.6414 348.443 63.9996 348.002 63.9996H346.402C345.96 63.9996 345.602 63.6414 345.602 63.1996V61.5996Z" fill="#855CFF"/>
<path d="M325.602 49.6002C325.602 48.2747 326.676 47.2002 328.002 47.2002H332.002C333.327 47.2002 334.402 48.2747 334.402 49.6002V51.2002H325.602V49.6002Z" fill="#855CFF"/>
<path d="M337.602 49.6002C337.602 48.2747 338.676 47.2002 340.002 47.2002H344.002C345.327 47.2002 346.402 48.2747 346.402 49.6002V51.2002H337.602V49.6002Z" fill="#855CFF"/>
<path d="M318 58.4004H354V60.8004C354 61.2422 353.642 61.6004 353.2 61.6004H318.8C318.358 61.6004 318 61.2422 318 60.8004V58.4004Z" fill="#855CFF"/>
<path d="M318 53.6002C318 52.2747 319.075 51.2002 320.4 51.2002H351.6C352.925 51.2002 354 52.2747 354 53.6002V58.4002H318V53.6002Z" fill="#C8BFFF"/>
<path d="M395.199 61.5996H398.399V63.1996C398.399 63.6414 398.041 63.9996 397.599 63.9996H395.999C395.557 63.9996 395.199 63.6414 395.199 63.1996V61.5996Z" fill="#855CFF"/>
<path d="M417.602 61.5996H420.802V63.1996C420.802 63.6414 420.443 63.9996 420.002 63.9996H418.402C417.96 63.9996 417.602 63.6414 417.602 63.1996V61.5996Z" fill="#855CFF"/>
<mask id="mask5_914_63145" style="mask-type:alpha" maskUnits="userSpaceOnUse" x="392" y="43" width="32" height="19">
<path d="M392 43.2002H424V59.2002C424 60.5257 422.925 61.6002 421.6 61.6002H394.4C393.075 61.6002 392 60.5257 392 59.2002V43.2002Z" fill="#D9D9D9"/>
</mask>
<g mask="url(#mask5_914_63145)">
<rect x="392" y="43.2002" width="16" height="18.4" fill="#EDEBF2"/>
<path d="M408 43.2002H424V61.6002H408V43.2002Z" fill="#DCDAE0"/>
</g>
<rect x="405.199" y="48.4004" width="1.6" height="3.2" rx="0.8" fill="#9E8CFF"/>
<rect x="409.199" y="48.4004" width="1.6" height="3.2" rx="0.8" fill="#9E8CFF"/>
<rect x="390" y="40" width="36" height="3.2" rx="1.6" fill="#9E8CFF"/>
<rect x="464" y="32" width="32" height="32" rx="2.4" fill="#C7C6CC"/>
<path d="M465.602 35.1996C465.602 34.316 466.318 33.5996 467.202 33.5996H492.802C493.685 33.5996 494.402 34.316 494.402 35.1996V60.7996C494.402 61.6833 493.685 62.3996 492.802 62.3996H467.202C466.318 62.3996 465.602 61.6833 465.602 60.7996V35.1996Z" fill="#EDEBF2"/>
<path d="M465.602 52H494.402V53.6H465.602V52Z" fill="#C7C6CC"/>
<path d="M465.602 42.4004H494.402V44.0004H465.602V42.4004Z" fill="#C7C6CC"/>
<path d="M486.398 45.5998C486.398 45.158 486.757 44.7998 487.198 44.7998H488.798C489.24 44.7998 489.598 45.158 489.598 45.5998V51.1998C489.598 51.6416 489.24 51.9998 488.798 51.9998H487.198C486.757 51.9998 486.398 51.6416 486.398 51.1998V45.5998Z" fill="#855CFF"/>
<path d="M483.199 45.5998C483.199 45.158 483.557 44.7998 483.999 44.7998H485.599C486.041 44.7998 486.399 45.158 486.399 45.5998V51.1998C486.399 51.6416 486.041 51.9998 485.599 51.9998H483.999C483.557 51.9998 483.199 51.6416 483.199 51.1998V45.5998Z" fill="#9E8CFF"/>
<path d="M471.602 56.0002C471.602 55.5584 471.96 55.2002 472.402 55.2002H474.002C474.443 55.2002 474.802 55.5584 474.802 56.0002V61.6002C474.802 62.042 474.443 62.4002 474.002 62.4002H472.402C471.96 62.4002 471.602 62.042 471.602 61.6002V56.0002Z" fill="#9E8CFF"/>
<path d="M478 56.0002C478 55.5584 478.358 55.2002 478.8 55.2002H480.4C480.842 55.2002 481.2 55.5584 481.2 56.0002V61.6002C481.2 62.042 480.842 62.4002 480.4 62.4002H478.8C478.358 62.4002 478 62.042 478 61.6002V56.0002Z" fill="#9E8CFF"/>
<path d="M474.801 56.0002C474.801 55.5584 475.159 55.2002 475.601 55.2002H477.201C477.643 55.2002 478.001 55.5584 478.001 56.0002V61.6002C478.001 62.042 477.643 62.4002 477.201 62.4002H475.601C475.159 62.4002 474.801 62.042 474.801 61.6002V56.0002Z" fill="#855CFF"/>
<path d="M467.199 36.0002C467.199 35.5584 467.557 35.2002 467.999 35.2002H469.599C470.041 35.2002 470.399 35.5584 470.399 36.0002V41.6002C470.399 42.042 470.041 42.4002 469.599 42.4002H467.999C467.557 42.4002 467.199 42.042 467.199 41.6002V36.0002Z" fill="#9E8CFF"/>
<path d="M470.398 36.0002C470.398 35.5584 470.757 35.2002 471.198 35.2002H472.798C473.24 35.2002 473.598 35.5584 473.598 36.0002V41.6002C473.598 42.042 473.24 42.4002 472.798 42.4002H471.198C470.757 42.4002 470.398 42.042 470.398 41.6002V36.0002Z" fill="#855CFF"/>
<path d="M473.518 36.809C473.342 36.4037 473.528 35.9325 473.933 35.7564L475.4 35.119C475.806 34.9429 476.277 35.1287 476.453 35.534L478.684 40.6703C478.86 41.0755 478.674 41.5467 478.269 41.7228L476.802 42.3603C476.396 42.5363 475.925 42.3505 475.749 41.9453L473.518 36.809Z" fill="#9E8CFF"/>
<path d="M537.602 34.4C537.602 33.0745 538.676 32 540.002 32H564.002C565.327 32 566.402 33.0745 566.402 34.4V53.6H537.602V34.4Z" fill="#9E8CFF"/>
<mask id="mask6_914_63145" style="mask-type:alpha" maskUnits="userSpaceOnUse" x="537" y="32" width="30" height="30">
<rect x="537.602" y="32" width="28.8" height="29.6" rx="2.4" fill="#5CE5A5"/>
</mask>
<g mask="url(#mask6_914_63145)">
<rect x="539.199" y="33.5996" width="11.6" height="18.4" rx="1.6" fill="#EDEBF2"/>
<rect x="553.199" y="33.5996" width="11.6" height="18.4" rx="1.6" fill="#EDEBF2"/>
<rect x="550.801" y="38.7998" width="1.6" height="11.6" transform="rotate(90 550.801 38.7998)" fill="#9E8CFF"/>
<rect x="564.801" y="38.7998" width="1.6" height="11.6" transform="rotate(90 564.801 38.7998)" fill="#9E8CFF"/>
<rect x="550.801" y="45.2002" width="1.6" height="11.6" transform="rotate(90 550.801 45.2002)" fill="#9E8CFF"/>
<rect x="564.801" y="45.2002" width="1.6" height="11.6" transform="rotate(90 564.801 45.2002)" fill="#9E8CFF"/>
<path d="M537.602 53.5996H552.002V61.5996H537.602V53.5996Z" fill="#EDEBF2"/>
<path d="M552 53.5996H566.4V61.5996H552V53.5996Z" fill="#DCDAE0"/>
</g>
<rect x="550.801" y="58.4004" width="1.6" height="3.2" rx="0.8" transform="rotate(-180 550.801 58.4004)" fill="#9E8CFF"/>
<rect x="554.801" y="58.4004" width="1.6" height="3.2" rx="0.8" transform="rotate(-180 554.801 58.4004)" fill="#9E8CFF"/>
<path d="M540.801 61.5996H544.001V63.1996C544.001 63.6414 543.643 63.9996 543.201 63.9996H541.601C541.159 63.9996 540.801 63.6414 540.801 63.1996V61.5996Z" fill="#855CFF"/>
<path d="M560 61.5996H563.2V63.1996C563.2 63.6414 562.842 63.9996 562.4 63.9996H560.8C560.358 63.9996 560 63.6414 560 63.1996V61.5996Z" fill="#855CFF"/>
<path d="M614 46C614 40.4772 618.477 36 624 36V36C629.523 36 634 40.4772 634 46V53.6H614V46Z" fill="#C8BFFF"/>
<path d="M614.199 61.7998V63.1992C614.199 63.5305 613.931 63.7996 613.6 63.7998H611.999C611.668 63.7997 611.399 63.5305 611.399 63.1992V61.7998H614.199Z" fill="#855CFF" stroke="#855CFF" stroke-width="0.4"/>
<path d="M636.602 61.7998V63.1992C636.602 63.5305 636.333 63.7996 636.002 63.7998H634.401C634.07 63.7997 633.802 63.5305 633.802 63.1992V61.7998H636.602Z" fill="#855CFF" stroke="#855CFF" stroke-width="0.4"/>
<path d="M606 44.8004C606 43.4749 607.075 42.4004 608.4 42.4004H611.6C612.925 42.4004 614 43.4749 614 44.8004V60.4004H606V44.8004Z" fill="#9E8CFF"/>
<path d="M634 44.8004C634 43.4749 635.075 42.4004 636.4 42.4004H639.6C640.925 42.4004 642 43.4749 642 44.8004V60.4004H634V44.8004Z" fill="#9E8CFF"/>
<path d="M606 53.5996H642V59.1996C642 60.5251 640.925 61.5996 639.6 61.5996H608.4C607.075 61.5996 606 60.5251 606 59.1996V53.5996Z" fill="#9E8CFF"/>
<path d="M686.199 61.7998V63.1992C686.199 63.5305 685.931 63.7996 685.6 63.7998H683.999C683.668 63.7997 683.399 63.5305 683.399 63.1992V61.7998H686.199Z" fill="#855CFF" stroke="#855CFF" stroke-width="0.4"/>
<path d="M708.602 61.7998V63.1992C708.602 63.5305 708.333 63.7996 708.002 63.7998H706.401C706.07 63.7997 705.802 63.5305 705.802 63.1992V61.7998H708.602Z" fill="#855CFF" stroke="#855CFF" stroke-width="0.4"/>
<path d="M680 40H712V59.2C712 60.5255 710.925 61.6 709.6 61.6H682.4C681.075 61.6 680 60.5255 680 59.2V40Z" fill="#C7C6CC"/>
<path d="M681.602 42.3996C681.602 41.9578 681.96 41.5996 682.402 41.5996H709.602C710.043 41.5996 710.402 41.9578 710.402 42.3996V46.3996C710.402 46.8414 710.043 47.1996 709.602 47.1996H682.402C681.96 47.1996 681.602 46.8414 681.602 46.3996V42.3996Z" fill="#EDEBF2"/>
<path d="M681.602 48.8C681.602 48.3582 681.96 48 682.402 48H709.602C710.043 48 710.402 48.3582 710.402 48.8V52.8C710.402 53.2418 710.043 53.6 709.602 53.6H682.402C681.96 53.6 681.602 53.2418 681.602 52.8V48.8Z" fill="#EDEBF2"/>
<path d="M681.602 55.2004C681.602 54.7586 681.96 54.4004 682.402 54.4004H709.602C710.043 54.4004 710.402 54.7586 710.402 55.2004V59.2004C710.402 59.6422 710.043 60.0004 709.602 60.0004H682.402C681.96 60.0004 681.602 59.6422 681.602 59.2004V55.2004Z" fill="#EDEBF2"/>
<rect x="697.602" y="43.5996" width="1.6" height="3.2" rx="0.8" transform="rotate(90 697.602 43.5996)" fill="#9E8CFF"/>
<rect x="697.602" y="50" width="1.6" height="3.2" rx="0.8" transform="rotate(90 697.602 50)" fill="#9E8CFF"/>
<rect x="697.602" y="56.4004" width="1.6" height="3.2" rx="0.8" transform="rotate(90 697.602 56.4004)" fill="#9E8CFF"/>
<rect x="678" y="37.2002" width="36" height="2.8" rx="1.4" fill="#9E8CFF"/>
<rect x="753.602" y="57.5996" width="28.8" height="1.6" fill="#855CFF"/>
<path d="M756 52.7998H759.2V52.7998C759.2 54.5671 757.767 55.9998 756 55.9998V55.9998V52.7998Z" fill="#855CFF"/>
<rect x="755.199" y="52.7998" width="0.8" height="3.2" fill="#855CFF"/>
<rect x="780" y="52.7998" width="0.8" height="3.2" fill="#855CFF"/>
<path d="M776.801 52.7998H780.001V55.9998V55.9998C778.233 55.9998 776.801 54.5671 776.801 52.7998V52.7998Z" fill="#855CFF"/>
<path d="M753.202 52.7998H756.002L754.572 62.8099C754.474 63.4927 753.889 63.9998 753.2 63.9998C752.356 63.9998 751.708 63.2528 751.828 62.4179L753.202 52.7998Z" fill="#855CFF"/>
<path d="M782.798 52.7998H779.998L781.428 62.8099C781.526 63.4927 782.111 63.9998 782.8 63.9998C783.644 63.9998 784.292 63.2528 784.172 62.4179L782.798 52.7998Z" fill="#855CFF"/>
<rect x="750" y="48" width="36" height="3.2" rx="0.8" fill="#C7C6CC"/>
<path d="M752 51.2002H784V51.2002C784 52.0839 783.284 52.8002 782.4 52.8002H753.6C752.716 52.8002 752 52.0839 752 51.2002V51.2002Z" fill="#855CFF"/>
<rect x="828.801" y="32" width="22.4" height="32" rx="2.4" fill="#C7C6CC"/>
<rect x="831.199" y="34.4004" width="17.6" height="12" rx="1.6" fill="#EDEBF2"/>
<rect x="831.199" y="49.5996" width="17.6" height="12" rx="1.6" fill="#EDEBF2"/>
<rect x="849.8" y="47.4002" width="1.2" height="2.8" rx="0.6" transform="rotate(90 849.8 47.4002)" fill="#855CFF" stroke="#855CFF" stroke-width="0.4"/>
<path d="M894 50.4C894 49.0745 895.075 48 896.4 48H927.6C928.925 48 930 49.0745 930 50.4V51.2H894V50.4Z" fill="#C7C6CC"/>
<rect x="896.398" y="51.2002" width="31.2" height="2.4" fill="#9E8CFF"/>
<path d="M927.602 51.2002H930.002V63.2002C930.002 63.642 929.643 64.0002 929.202 64.0002H928.402C927.96 64.0002 927.602 63.642 927.602 63.2002V51.2002Z" fill="#C7C6CC"/>
<path d="M894 51.2002H896.4V63.2002C896.4 63.642 896.042 64.0002 895.6 64.0002H894.8C894.358 64.0002 894 63.642 894 63.2002V51.2002Z" fill="#C7C6CC"/>
<path d="M908 43.2002H913.6V46.4002C913.6 47.2839 912.884 48.0002 912 48.0002H909.6C908.716 48.0002 908 47.2839 908 46.4002V43.2002Z" fill="#855CFF"/>
<path d="M913.199 44.4004H914.599C915.152 44.4004 915.599 44.8481 915.599 45.4004V45.4004C915.599 45.9527 915.152 46.4004 914.599 46.4004H913.199V44.4004Z" stroke="#855CFF" stroke-width="1.2"/>
<rect x="33.6016" y="104" width="28.8" height="30" rx="2.4" fill="#C7C6CC"/>
<path d="M36 134H60V135.2C60 135.642 59.6418 136 59.2 136H36.8C36.3582 136 36 135.642 36 135.2V134Z" fill="#9E8CFF"/>
<path d="M35.1992 120C35.1992 119.117 35.9156 118.4 36.7992 118.4H59.1992C60.0829 118.4 60.7992 119.117 60.7992 120V128C60.7992 128.884 60.0829 129.6 59.1992 129.6H36.7992C35.9156 129.6 35.1992 128.884 35.1992 128V120Z" fill="#EDEBF2"/>
<path d="M46 120H50L50 120.4C50 121.505 49.1046 122.4 48 122.4V122.4C46.8954 122.4 46 121.505 46 120.4L46 120Z" fill="#855CFF"/>
<rect x="36.8008" y="125.6" width="22.4" height="0.8" rx="0.4" fill="#C7C6CC"/>
<rect x="36.8008" y="127.2" width="22.4" height="0.8" rx="0.4" fill="#C7C6CC"/>
<path d="M35.1992 107.2C35.1992 106.316 35.9156 105.6 36.7992 105.6H59.1992C60.0829 105.6 60.7992 106.316 60.7992 107.2V115.2C60.7992 116.083 60.0829 116.8 59.1992 116.8H36.7992C35.9156 116.8 35.1992 116.083 35.1992 115.2V107.2Z" fill="#EDEBF2"/>
<path d="M46 107.2H50L50 107.6C50 108.705 49.1046 109.6 48 109.6V109.6C46.8954 109.6 46 108.705 46 107.6L46 107.2Z" fill="#855CFF"/>
<rect x="36.8008" y="112.8" width="22.4" height="0.8" rx="0.4" fill="#C7C6CC"/>
<rect x="36.8008" y="114.4" width="22.4" height="0.8" rx="0.4" fill="#C7C6CC"/>
<rect x="105.602" y="104" width="28.8" height="29.6" rx="2.4" fill="#C7C6CC"/>
<path d="M107.199 118.4C107.199 117.516 107.916 116.8 108.799 116.8H117.599C118.483 116.8 119.199 117.516 119.199 118.4V130.4C119.199 131.283 118.483 132 117.599 132H108.799C107.916 132 107.199 131.283 107.199 130.4V118.4Z" fill="#EDEBF2"/>
<path d="M107.199 107.2C107.199 106.316 107.916 105.6 108.799 105.6H117.599C118.483 105.6 119.199 106.316 119.199 107.2V113.6C119.199 114.483 118.483 115.2 117.599 115.2H108.799C107.916 115.2 107.199 114.483 107.199 113.6V107.2Z" fill="#EDEBF2"/>
<path d="M120.801 107.2C120.801 106.316 121.517 105.6 122.401 105.6H131.201C132.084 105.6 132.801 106.316 132.801 107.2V113.6C132.801 114.483 132.084 115.2 131.201 115.2H122.401C121.517 115.2 120.801 114.483 120.801 113.6V107.2Z" fill="#EDEBF2"/>
<path d="M120.801 118.4C120.801 117.516 121.517 116.8 122.401 116.8H131.201C132.084 116.8 132.801 117.516 132.801 118.4V130.4C132.801 131.283 132.084 132 131.201 132H122.401C121.517 132 120.801 131.283 120.801 130.4V118.4Z" fill="#EDEBF2"/>
<path d="M108.801 133.6H112.001V135.2C112.001 135.641 111.643 136 111.201 136H109.601C109.159 136 108.801 135.641 108.801 135.2V133.6Z" fill="#855CFF"/>
<path d="M128 133.6H131.2V135.2C131.2 135.641 130.842 136 130.4 136H128.8C128.358 136 128 135.641 128 135.2V133.6Z" fill="#855CFF"/>
<rect x="116.398" y="122.4" width="1.6" height="3.2" rx="0.8" fill="#9E8CFF"/>
<rect x="116.398" y="108.8" width="1.6" height="3.2" rx="0.8" fill="#9E8CFF"/>
<rect x="122" y="108.8" width="1.6" height="3.2" rx="0.8" fill="#9E8CFF"/>
<rect x="122" y="122.4" width="1.6" height="3.2" rx="0.8" fill="#9E8CFF"/>
<path d="M184 106.4C184 105.075 185.075 104 186.4 104H197.6C198.925 104 200 105.075 200 106.4V134.4H184V106.4Z" fill="#EDEBF2"/>
<rect x="185.602" y="121.6" width="12.8" height="11.2" rx="1.6" fill="#9E8CFF"/>
<rect x="186.801" y="108.4" width="10.4" height="10.4" rx="5.2" fill="#855CFF"/>
<path d="M194.202 111L192.002 114L189.602 112.2" stroke="#C8BFFF" stroke-width="0.8" stroke-linecap="round" stroke-linejoin="round"/>
<rect x="190.398" y="128" width="3.2" height="3.2" rx="1.6" fill="#855CFF"/>
<path d="M184 134.4H200V135.2C200 135.642 199.642 136 199.2 136H184.8C184.358 136 184 135.642 184 135.2V134.4Z" fill="#855CFF"/>
<rect x="182.398" y="104" width="19.2" height="2.4" rx="1.2" fill="#9E8CFF"/>
<path d="M192 121.6L192 128.4" stroke="#855CFF" stroke-width="1.2"/>
<path d="M255.801 133.8V135.199C255.801 135.53 255.532 135.8 255.201 135.8H253.601C253.269 135.8 253.001 135.531 253.001 135.199V133.8H255.801Z" fill="#855CFF" stroke="#855CFF" stroke-width="0.4"/>
<path d="M275 133.8V135.199C275 135.53 274.732 135.8 274.4 135.8H272.8C272.469 135.8 272.2 135.531 272.2 135.199V133.8H275Z" fill="#855CFF" stroke="#855CFF" stroke-width="0.4"/>
<rect x="249.602" y="104" width="28.8" height="29.6" rx="2.4" fill="#C7C6CC"/>
<rect x="251.199" y="108.4" width="25.6" height="23.6" rx="1.6" fill="#EDEBF2"/>
<rect x="276.801" y="114.8" width="1.6" height="25.6" transform="rotate(90 276.801 114.8)" fill="#C7C6CC"/>
<rect x="276.801" y="123.6" width="1.6" height="25.6" transform="rotate(90 276.801 123.6)" fill="#C7C6CC"/>
<path d="M253.602 120.8H259.202V122C259.202 122.883 258.485 123.6 257.602 123.6H255.202C254.318 123.6 253.602 122.883 253.602 122V120.8Z" fill="#855CFF"/>
<path d="M261.602 112H267.202V113.2C267.202 114.084 266.485 114.8 265.602 114.8H263.202C262.318 114.8 261.602 114.084 261.602 113.2V112Z" fill="#855CFF"/>
<path d="M260.801 120.8H266.401V122C266.401 122.883 265.684 123.6 264.801 123.6H262.401C261.517 123.6 260.801 122.883 260.801 122V120.8Z" fill="#855CFF"/>
<path d="M268.801 112H274.401V113.2C274.401 114.084 273.684 114.8 272.801 114.8H270.401C269.517 114.8 268.801 114.084 268.801 113.2V112Z" fill="#855CFF"/>
<rect x="248" y="104" width="32" height="2.8" rx="1.4" fill="#9E8CFF"/>
<rect x="320" y="112" width="32" height="24" rx="2.4" fill="#C7C6CC"/>
<path d="M321.602 115.2C321.602 114.316 322.318 113.6 323.202 113.6H348.802C349.685 113.6 350.402 114.316 350.402 115.2V132.8C350.402 133.683 349.685 134.4 348.802 134.4H323.202C322.318 134.4 321.602 133.683 321.602 132.8V115.2Z" fill="#EDEBF2"/>
<path d="M321.602 123.2H350.402V124.8H321.602V123.2Z" fill="#C7C6CC"/>
<path d="M324 116.8C324 116.358 324.358 116 324.8 116H326.4C326.842 116 327.2 116.358 327.2 116.8V122.4C327.2 122.842 326.842 123.2 326.4 123.2H324.8C324.358 123.2 324 122.842 324 122.4V116.8Z" fill="#9E8CFF"/>
<path d="M342.398 128C342.398 127.558 342.757 127.2 343.198 127.2H344.798C345.24 127.2 345.598 127.558 345.598 128V133.6C345.598 134.042 345.24 134.4 344.798 134.4H343.198C342.757 134.4 342.398 134.042 342.398 133.6V128Z" fill="#855CFF"/>
<path d="M327.199 116.8C327.199 116.358 327.557 116 327.999 116H329.599C330.041 116 330.399 116.358 330.399 116.8V122.4C330.399 122.842 330.041 123.2 329.599 123.2H327.999C327.557 123.2 327.199 122.842 327.199 122.4V116.8Z" fill="#855CFF"/>
<path d="M339.199 128C339.199 127.558 339.557 127.2 339.999 127.2H341.599C342.041 127.2 342.399 127.558 342.399 128V133.6C342.399 134.042 342.041 134.4 341.599 134.4H339.999C339.557 134.4 339.199 134.042 339.199 133.6V128Z" fill="#9E8CFF"/>
<path d="M330.319 117.609C330.143 117.204 330.329 116.732 330.734 116.556L332.201 115.919C332.607 115.743 333.078 115.929 333.254 116.334L335.485 121.47C335.661 121.875 335.475 122.347 335.07 122.523L333.602 123.16C333.197 123.336 332.726 123.15 332.55 122.745L330.319 117.609Z" fill="#9E8CFF"/>
<path d="M417.837 135.064L414.773 117.332C414.758 117.245 414.729 117.16 414.686 117.083L413.314 114.591C412.929 113.891 411.869 114.126 411.815 114.923L410.456 135.147C410.425 135.608 410.791 136 411.254 136H417.048C417.545 136 417.921 135.553 417.837 135.064Z" fill="#855CFF"/>
<path d="M406.985 105C411.179 105 414.476 108.584 414.127 112.763L412.317 134.45C412.291 134.761 412.031 135 411.719 135H398.54C398.189 135 397.913 134.699 397.942 134.35L399.844 111.57C400.154 107.856 403.259 105 406.985 105Z" fill="#C7C6CC" stroke="#9E8CFF" stroke-width="2"/>
<path d="M414.689 111.805L398.414 128.195L397.969 134.829H401.957L413.353 123.317L414.689 111.805Z" fill="#EDEBF2"/>
<path d="M406.985 105C411.179 105 414.476 108.584 414.127 112.763L412.317 134.45C412.291 134.761 412.031 135 411.719 135H398.54C398.189 135 397.913 134.699 397.942 134.35L399.844 111.57C400.154 107.856 403.259 105 406.985 105Z" stroke="#9E8CFF" stroke-width="2"/>
<rect x="472" y="104" width="16" height="32" rx="2.4" fill="#C7C6CC"/>
<path d="M473.602 122.4C473.602 121.516 474.318 120.8 475.202 120.8H484.802C485.685 120.8 486.402 121.516 486.402 122.4V133.6H473.602V122.4Z" fill="#EDEBF2"/>
<path d="M472 133.6H488V135.2C488 135.641 487.642 136 487.2 136H472.8C472.358 136 472 135.641 472 135.2V133.6Z" fill="#9E8CFF"/>
<path d="M472 106.4C472 105.075 473.075 104 474.4 104H485.6C486.925 104 488 105.075 488 106.4V106.4H472V106.4Z" fill="#9E8CFF"/>
<path d="M479.199 123.2C479.199 122.759 479.557 122.4 479.999 122.4V122.4C480.441 122.4 480.799 122.759 480.799 123.2V124.8C480.799 125.242 480.441 125.6 479.999 125.6V125.6C479.557 125.6 479.199 125.242 479.199 124.8V123.2Z" fill="#855CFF"/>
<path d="M476.398 123.2C476.398 122.759 476.757 122.4 477.198 122.4V122.4C477.64 122.4 477.998 122.759 477.998 123.2V124.8C477.998 125.242 477.64 125.6 477.198 125.6V125.6C476.757 125.6 476.398 125.242 476.398 124.8V123.2Z" fill="#855CFF"/>
<path d="M476.398 128.4C476.398 127.958 476.757 127.6 477.198 127.6H482.798C483.24 127.6 483.598 127.958 483.598 128.4V130.4C483.598 130.841 483.24 131.2 482.798 131.2H477.198C476.757 131.2 476.398 130.841 476.398 130.4V128.4Z" fill="#C7C6CC"/>
<path d="M478 114.4C478 113.516 478.716 112.8 479.6 112.8H480.4C481.284 112.8 482 113.516 482 114.4V120.8H478V114.4Z" fill="#9E8CFF"/>
<path d="M482 123.2C482 122.759 482.358 122.4 482.8 122.4V122.4C483.242 122.4 483.6 122.759 483.6 123.2V124.8C483.6 125.242 483.242 125.6 482.8 125.6V125.6C482.358 125.6 482 125.242 482 124.8V123.2Z" fill="#855CFF"/>
<rect x="534" y="116" width="36" height="4" rx="2" fill="#C7C6CC"/>
<path d="M536 120H538.4V135.2C538.4 135.642 538.042 136 537.6 136H536.8C536.358 136 536 135.642 536 135.2V120Z" fill="#C7C6CC"/>
<path d="M565.602 120H568.002V135.2C568.002 135.642 567.643 136 567.202 136H566.402C565.96 136 565.602 135.642 565.602 135.2V120Z" fill="#C7C6CC"/>
<rect x="538.398" y="122.8" width="27.2" height="1.6" fill="#855CFF"/>
<path d="M632.091 108.767C632.152 108.327 632.529 108 632.973 108C633.515 108 633.931 108.479 633.856 109.015L632.306 120.033C632.244 120.473 631.868 120.8 631.424 120.8C630.882 120.8 630.466 120.321 630.541 119.785L632.091 108.767Z" fill="#9E8CFF"/>
<rect x="617.199" y="128.8" width="13.6" height="1.6" fill="#855CFF"/>
<path d="M616.176 123.2H618.398L616.752 135.051C616.677 135.595 616.212 136 615.662 136C614.994 136 614.48 135.41 614.572 134.748L616.176 123.2Z" fill="#9E8CFF"/>
<path d="M631.965 105.309C632.068 104.559 632.708 104 633.465 104C634.382 104 635.088 104.809 634.964 105.718L633.631 115.491C633.529 116.241 632.889 116.8 632.132 116.8C631.215 116.8 630.509 115.991 630.633 115.082L631.965 105.309Z" fill="#C7C6CC"/>
<path d="M631.824 123.2H629.602L631.248 135.051C631.323 135.595 631.788 136 632.338 136C633.006 136 633.52 135.41 633.428 134.748L631.824 123.2Z" fill="#9E8CFF"/>
<rect x="614.398" y="120" width="19.2" height="3.2" rx="0.8" fill="#C7C6CC"/>
<path d="M684.801 106.4C684.801 105.075 685.875 104 687.201 104H704.801C706.126 104 707.201 105.075 707.201 106.4V135.2C707.201 135.642 706.843 136 706.401 136H685.601C685.159 136 684.801 135.642 684.801 135.2V106.4Z" fill="#EDEBF2"/>
<path d="M684.801 106.4C684.801 105.075 685.875 104 687.201 104H704.801C706.126 104 707.201 105.075 707.201 106.4V107.2H684.801V106.4Z" fill="#9E8CFF"/>
<rect x="688" y="107.2" width="16" height="28.8" fill="#C7C6CC"/>
<rect x="688" y="109.6" width="16" height="1.6" fill="#9E8CFF"/>
<path d="M688 132.4H694.4C695.284 132.4 696 133.117 696 134V134C696 134.884 695.284 135.6 694.4 135.6H688V132.4Z" fill="#855CFF"/>
<path d="M688 128.8H692C692.884 128.8 693.6 129.516 693.6 130.4V130.4C693.6 131.283 692.884 132 692 132H688V128.8Z" fill="#855CFF"/>
<rect x="754.398" y="120" width="1.6" height="14.4" rx="0.8" fill="#EDEBF2"/>
<rect x="760" y="116" width="7.2" height="18.4" rx="2.4" fill="#9E8CFF"/>
<rect x="768.801" y="116" width="7.2" height="18.4" rx="2.4" fill="#9E8CFF"/>
<path d="M762 114.4C762 113.958 762.358 113.6 762.8 113.6H764.4C764.842 113.6 765.2 113.958 765.2 114.4V116H762V114.4Z" fill="#855CFF"/>
<path d="M770.801 114.4C770.801 113.958 771.159 113.6 771.601 113.6H773.201C773.643 113.6 774.001 113.958 774.001 114.4V116H770.801V114.4Z" fill="#855CFF"/>
<rect x="780" y="120" width="1.6" height="14.4" rx="0.8" fill="#EDEBF2"/>
<rect x="752" y="120" width="32" height="2.4" rx="1.2" fill="#C7C6CC"/>
<rect x="752" y="129.6" width="32" height="4.8" rx="0.8" fill="#C7C6CC"/>
<path d="M824 131.2H856V135.2C856 135.642 855.642 136 855.2 136H824.8C824.358 136 824 135.642 824 135.2V131.2Z" fill="#855CFF"/>
<rect x="822" y="109.2" width="36" height="2.4" rx="0.8" fill="#9E8CFF"/>
<rect x="822" y="128.8" width="36" height="2.4" rx="0.8" fill="#9E8CFF"/>
<rect x="824" y="111.6" width="32" height="17.2" fill="#EDEBF2"/>
<path d="M848.398 111.6H854.798L846.798 128.8H840.398L848.398 111.6Z" fill="#DCDAE0"/>
<rect x="826.398" y="124.8" width="6.4" height="3.2" rx="1.6" fill="#855CFF"/>
<rect x="833.602" y="124.8" width="6.4" height="3.2" rx="1.6" fill="#855CFF"/>
<rect x="830" y="120.8" width="6.4" height="3.2" rx="1.6" fill="#855CFF"/>
<mask id="mask7_914_63145" style="mask-type:alpha" maskUnits="userSpaceOnUse" x="896" y="120" width="32" height="14">
<path d="M896 120H928V131.2C928 132.525 926.925 133.6 925.6 133.6H898.4C897.075 133.6 896 132.525 896 131.2V120Z" fill="#D9D9D9"/>
</mask>
<g mask="url(#mask7_914_63145)">
<rect x="896" y="120" width="16" height="13.6" fill="#EDEBF2"/>
<path d="M912 120H928V133.6H912V120Z" fill="#DCDAE0"/>
</g>
<path d="M902.199 133.8V135.199C902.199 135.53 901.931 135.8 901.6 135.8H899.999C899.668 135.8 899.399 135.531 899.399 135.199V133.8H902.199Z" fill="#855CFF" stroke="#855CFF" stroke-width="0.4"/>
<path d="M924.602 133.8V135.199C924.602 135.53 924.333 135.8 924.002 135.8H922.401C922.07 135.8 921.802 135.531 921.802 135.199V133.8H924.602Z" fill="#855CFF" stroke="#855CFF" stroke-width="0.4"/>
<rect x="894" y="117.6" width="36" height="2.4" rx="0.8" fill="#9E8CFF"/>
<path d="M904 117.6C904 116.495 904.895 115.6 906 115.6H907.2C908.305 115.6 909.2 116.495 909.2 117.6V117.6H904V117.6Z" fill="#855CFF"/>
<path d="M914.801 117.6C914.801 116.495 915.696 115.6 916.801 115.6H918.001C919.105 115.6 920.001 116.495 920.001 117.6V117.6H914.801V117.6Z" fill="#855CFF"/>
<path d="M910.798 116.4V117.6H913.198V116.4H911.998H910.798ZM911.998 109.38H913.198L913.198 109.372L911.998 109.38ZM903.198 109.38C903.198 110.042 903.736 110.58 904.398 110.58C905.061 110.58 905.598 110.042 905.598 109.38L904.398 109.38L903.198 109.38ZM911.998 116.4H913.198V109.38H911.998H910.798V116.4H911.998ZM911.998 109.38L913.198 109.372C913.194 108.58 913.04 107.355 912.301 106.297C911.509 105.162 910.172 104.4 908.198 104.4V105.6V106.8C909.482 106.8 910.041 107.252 910.333 107.67C910.678 108.164 910.795 108.829 910.798 109.387L911.998 109.38ZM908.198 105.6V104.4C906.222 104.4 904.883 105.161 904.09 106.297C903.35 107.357 903.198 108.583 903.198 109.38L904.398 109.38L905.598 109.38C905.598 108.826 905.714 108.163 906.058 107.67C906.349 107.253 906.91 106.8 908.198 106.8V105.6Z" fill="#C7C6CC"/>
<rect x="32" y="176.8" width="31.2" height="28" rx="2.4" stroke="#C7C6CC" stroke-width="1.6"/>
<rect x="34.3984" y="179.2" width="26.4" height="23.2" rx="1.6" fill="#C8BFFF"/>
<path d="M38.1992 205.8V207.199C38.1992 207.53 37.9308 207.8 37.5996 207.8H35.999C35.6677 207.8 35.3994 207.531 35.3994 207.199V205.8H38.1992Z" fill="#855CFF" stroke="#855CFF" stroke-width="0.4"/>
<path d="M60.6016 205.8V207.199C60.6016 207.53 60.3331 207.8 60.002 207.8H58.4014C58.0701 207.8 57.8018 207.531 57.8018 207.199V205.8H60.6016Z" fill="#855CFF" stroke="#855CFF" stroke-width="0.4"/>
<path d="M112 188C112 184.465 114.865 181.6 118.4 181.6H121.6C125.135 181.6 128 184.465 128 188V205.6C128 206.925 126.925 208 125.6 208H114.4C113.075 208 112 206.925 112 205.6V188Z" fill="#EDEBF2"/>
<path d="M112 198.8H128V204.8H112V198.8Z" fill="#9E8CFF"/>
<path d="M118 178C118 177.117 118.716 176.4 119.6 176.4H120.4C121.284 176.4 122 177.117 122 178V181.6H118V178Z" fill="#855CFF"/>
<path d="M121.199 178.8H126.14C127.129 178.8 128.611 179 129.599 180.8" stroke="#855CFF" stroke-width="1.6" stroke-linecap="round"/>
<path d="M114.801 178H120.001V179.6H114.801V178Z" fill="#855CFF"/>
<path d="M109.358 181.206C108.862 181.306 108.398 180.927 108.398 180.422L108.398 177.179C108.398 176.673 108.862 176.295 109.358 176.395L114.158 177.37C114.531 177.446 114.798 177.774 114.798 178.154L114.798 179.447C114.798 179.827 114.531 180.155 114.158 180.231L109.358 181.206Z" fill="#C8BFFF"/>
<circle cx="122.401" cy="176" r="1.6" stroke="#855CFF" stroke-width="1.6"/>
<path d="M176 179.6C176 178.716 176.716 178 177.6 178H206.4C207.284 178 208 178.716 208 179.6V202.8H176V179.6Z" fill="#C7C6CC"/>
<path d="M185.998 183.2L183.398 186.4L180.398 184.6V182.2L183.398 180.8L185.998 183.2Z" fill="#EDEBF2"/>
<path d="M181.199 188.4L182.999 190.2L181.599 192.2L179.199 190.6L179.399 188.6L181.199 188.4Z" fill="#9E8CFF"/>
<path d="M179.801 200.2L178.801 197.6L181.401 195.2L185.001 195.4L185.801 198.8L179.801 200.2Z" fill="#EDEBF2"/>
<path d="M191.2 180.8L190 183.8L193.6 186.2L195.8 183.8L194.2 181.6L191.2 180.8Z" fill="#9E8CFF"/>
<path d="M201.802 180.4L199.602 182.6L201.402 184.4L203.802 184.2V181.8L201.802 180.4Z" fill="#EDEBF2"/>
<path d="M190.799 189.6L188.399 188L187.199 189.8V192.2L189.999 192L190.799 189.6Z" fill="#EDEBF2"/>
<path d="M196.6 188L194 189.6L194.8 192.2L197.8 192L198 189.4L196.6 188Z" fill="#9E8CFF"/>
<path d="M203.199 191.2L201.199 190L201.799 187.8L203.399 187.2L204.999 188.6L203.199 191.2Z" fill="#EDEBF2"/>
<path d="M194.799 199L192.599 201L189.199 198.4L190.599 196L192.599 196.4L194.799 199Z" fill="#EDEBF2"/>
<path d="M201.199 195.6L199.199 196.8L199.799 200.4L202.999 200.2V197.2L201.199 195.6Z" fill="#9E8CFF"/>
<path d="M176 202.8H208V202.8C208 203.683 207.284 204.4 206.4 204.4H177.6C176.716 204.4 176 203.683 176 202.8V202.8Z" fill="#EDEBF2"/>
<path d="M254.91 185.75V177.766H261.297V185.75" fill="#9E8CFF"/>
<path d="M266.926 198.658V190.674H273.312V198.658" fill="#9E8CFF"/>
<path d="M254.91 198.658V190.674H261.297V198.658" fill="#9E8CFF"/>
<path d="M259.742 180.937V180.442C259.742 180.285 259.615 180.158 259.458 180.158H256.833C256.676 180.158 256.549 180.285 256.549 180.442V180.937C256.549 181.094 256.676 181.221 256.833 181.221H259.458C259.615 181.221 259.742 181.094 259.742 180.937Z" fill="#855CFF"/>
<path d="M271.715 193.577V193.083C271.715 192.926 271.588 192.799 271.431 192.799H268.806C268.649 192.799 268.522 192.926 268.522 193.083V193.577C268.522 193.734 268.649 193.862 268.806 193.862H271.431C271.588 193.862 271.715 193.734 271.715 193.577Z" fill="#855CFF"/>
<path d="M277.309 180.168C277.306 180.168 277.303 180.171 277.303 180.174V184.949C277.303 185.391 276.945 185.749 276.503 185.749H251.501C251.059 185.749 250.701 185.391 250.701 184.949V180.968C250.701 180.526 250.343 180.168 249.901 180.168H249.37C248.928 180.168 248.57 180.526 248.57 180.968V205.431C248.57 205.873 248.928 206.231 249.37 206.231H249.901C250.343 206.231 250.701 205.873 250.701 205.431V201.45C250.701 201.008 251.059 200.65 251.501 200.65H276.509C276.951 200.65 277.309 201.008 277.309 201.45V205.431C277.309 205.873 277.667 206.231 278.109 206.231H278.64C279.081 206.231 279.44 205.873 279.44 205.431V180.968C279.44 180.526 279.081 180.168 278.64 180.168H277.309ZM277.303 198.519H251.501C251.059 198.519 250.701 198.161 250.701 197.719V188.675C250.701 188.233 251.059 187.875 251.501 187.875H276.509C276.951 187.875 277.309 188.233 277.309 188.675V198.513C277.309 198.516 277.306 198.519 277.303 198.519Z" fill="#C7C6CC"/>
<rect width="2.4" height="4" rx="1.2" transform="matrix(1 0 0 -1 324 207.6)" fill="#8670FF"/>
<rect width="2.4" height="4" rx="1.2" transform="matrix(1 0 0 -1 345.602 207.6)" fill="#8670FF"/>
<rect x="318.801" y="182.8" width="34.4" height="22.4" rx="2.4" fill="#EDEBF2"/>
<rect x="321.199" y="185.2" width="29.6" height="17.6" rx="1.6" fill="#9E8CFF"/>
<mask id="mask8_914_63145" style="mask-type:alpha" maskUnits="userSpaceOnUse" x="332" y="184" width="19" height="20">
<path d="M350.8 203.126V184.874H337.345L332 203.126H350.8Z" fill="#8670FF"/>
</mask>
<g mask="url(#mask8_914_63145)">
<rect x="322" y="185.2" width="28.8" height="17.6" rx="1.6" fill="#855CFF"/>
</g>
<path d="M328.402 176.8L336.002 183.6L343.602 176.8" stroke="#EDEBF2" stroke-width="1.6" stroke-linecap="round"/>
<path d="M394.398 178C394.398 176.674 395.473 175.6 396.798 175.6H419.198C420.524 175.6 421.598 176.674 421.598 178V207.2C421.598 207.641 421.24 208 420.798 208H395.198C394.757 208 394.398 207.641 394.398 207.2V178Z" fill="#EDEBF2"/>
<path d="M394.398 184H421.598" stroke="#DCDAE0" stroke-width="0.8"/>
<path d="M403.199 175.6L403.199 184" stroke="#DCDAE0" stroke-width="0.8"/>
<circle cx="407.998" cy="196" r="9.6" fill="#9E8CFF"/>
<circle cx="408.001" cy="196" r="7.2" fill="#855CFF"/>
<g clip-path="url(#clip1_914_63145)">
<path d="M399.57 195.971C399.57 195.971 401.49 192.984 405.683 195.322C408.978 197.152 412.756 199.864 416.834 195.971" stroke="#9E8CFF" stroke-width="0.8" stroke-linecap="round" stroke-linejoin="round"/>
</g>
<circle cx="411.998" cy="180" r="1.6" fill="#9E8CFF"/>
<circle cx="417.6" cy="180" r="1.6" fill="#9E8CFF"/>
<rect x="476.758" y="196.8" width="6.84" height="7.56" fill="#DCDAE0"/>
<rect x="465.602" y="202.561" width="28.8" height="3.6" rx="1.8" fill="#EDEBF2"/>
<rect x="462.801" y="178" width="34.4" height="22.4" rx="2.4" fill="#EDEBF2"/>
<rect x="465.199" y="180.4" width="29.6" height="17.6" rx="1.6" fill="#9E8CFF"/>
<mask id="mask9_914_63145" style="mask-type:alpha" maskUnits="userSpaceOnUse" x="476" y="180" width="19" height="19">
<path d="M494.8 198.326V180.074H481.345L476 198.326H494.8Z" fill="#8670FF"/>
</mask>
<g mask="url(#mask9_914_63145)">
<rect x="466" y="180.4" width="28.8" height="17.6" rx="1.6" fill="#855CFF"/>
</g>
<path d="M540.801 207.6H544.001V209.2C544.001 209.641 543.643 210 543.201 210H541.601C541.159 210 540.801 209.641 540.801 209.2V207.6Z" fill="#855CFF"/>
<path d="M560 207.6H563.2V209.2C563.2 209.641 562.842 210 562.4 210H560.8C560.358 210 560 209.641 560 209.2V207.6Z" fill="#855CFF"/>
<rect x="538.398" y="173.6" width="27.2" height="34.4" rx="2.4" fill="#EDEBF2"/>
<rect x="540.801" y="178.4" width="13.2" height="20.4" rx="1.6" fill="#B2A3FB"/>
<path d="M539.602 183.6H555.402" stroke="#EDEBF2" stroke-width="0.8"/>
<path d="M539.602 190H555.402" stroke="#EDEBF2" stroke-width="0.8"/>
<path d="M539.602 196.4H555.402" stroke="#EDEBF2" stroke-width="0.8"/>
<rect x="540.801" y="201.2" width="13.2" height="4.4" rx="1.6" fill="#9E8CFF"/>
<rect x="556.398" y="188.4" width="6.8" height="2.8" rx="0.8" fill="#855CFF"/>
<rect x="556.398" y="178.4" width="1.2" height="2" rx="0.6" fill="#855CFF"/>
<rect x="556.398" y="181.2" width="1.2" height="2" rx="0.6" fill="#855CFF"/>
<rect x="556.398" y="184" width="1.2" height="2" rx="0.6" fill="#855CFF"/>
<rect x="559.199" y="178.4" width="1.2" height="2" rx="0.6" fill="#855CFF"/>
<rect x="559.199" y="181.2" width="1.2" height="2" rx="0.6" fill="#855CFF"/>
<rect x="559.199" y="184" width="1.2" height="2" rx="0.6" fill="#855CFF"/>
<rect x="562" y="178.4" width="1.2" height="2" rx="0.6" fill="#855CFF"/>
<rect x="562" y="181.2" width="1.2" height="2" rx="0.6" fill="#855CFF"/>
<rect x="562" y="184" width="1.2" height="2" rx="0.6" fill="#855CFF"/>
<path d="M612.801 205.6H616.001V207.2C616.001 207.641 615.643 208 615.201 208H613.601C613.159 208 612.801 207.641 612.801 207.2V205.6Z" fill="#B2A3FB"/>
<path d="M632 205.6H635.2V207.2C635.2 207.641 634.842 208 634.4 208H632.8C632.358 208 632 207.641 632 207.2V205.6Z" fill="#B2A3FB"/>
<path d="M610.398 180.8H635.198C636.524 180.8 637.598 181.874 637.598 183.2V203.6C637.598 204.925 636.524 206 635.198 206H612.798C611.473 206 610.398 204.925 610.398 203.6V180.8Z" fill="#EDEBF2"/>
<path d="M610.398 178.4C610.398 177.075 611.473 176 612.798 176H623.998V180.8H610.398V178.4Z" fill="#EDEBF2"/>
<rect x="612.801" y="185.2" width="10.4" height="2" rx="1" fill="#B2A3FB"/>
<path d="M624 176H636C636.884 176 637.6 176.716 637.6 177.6V177.6H624V176Z" fill="#B2A3FB"/>
<rect x="622" y="190" width="4" height="0.8" rx="0.4" fill="#855CFF"/>
<rect x="622" y="195.2" width="4" height="0.8" rx="0.4" fill="#855CFF"/>
<rect x="622" y="200.4" width="4" height="0.8" rx="0.4" fill="#855CFF"/>
<path d="M610.398 183.6L637.598 183.6" stroke="#B2A3FB" stroke-width="0.9"/>
<path d="M610.398 188.8L637.598 188.8" stroke="#B2A3FB" stroke-width="0.9"/>
<path d="M610.398 194L637.598 194" stroke="#B2A3FB" stroke-width="0.9"/>
<path d="M610.398 199.2L637.598 199.2" stroke="#B2A3FB" stroke-width="0.9"/>
<circle cx="634.199" cy="186.2" r="1" fill="#855CFF"/>
<circle cx="630.199" cy="186.2" r="1" fill="#855CFF"/>
<rect x="683.199" y="174" width="25.6" height="36" rx="2.4" fill="#EDEBF2"/>
<rect x="685.199" y="186.977" width="8.4" height="10.0465" rx="0.8" fill="#B2A3FB"/>
<path d="M685.199 194.93H693.599V196.223C693.599 196.665 693.241 197.023 692.799 197.023H685.999C685.557 197.023 685.199 196.665 685.199 196.223V194.93Z" fill="#855CFF"/>
<rect x="698.398" y="186.977" width="8.4" height="10.0465" rx="0.8" fill="#B2A3FB"/>
<path d="M696 174L696 210" stroke="#DCDAE0" stroke-width="0.8"/>
<path d="M704 188.651H701.2" stroke="#855CFF" stroke-width="0.8" stroke-linecap="round"/>
<path d="M693.602 189.488H685.202" stroke="#EDEBF2" stroke-width="0.8" stroke-linecap="square"/>
<path d="M687.199 189.488H688.399V190.981C688.399 191.313 688.131 191.581 687.799 191.581V191.581C687.468 191.581 687.199 191.313 687.199 190.981V189.488Z" fill="#EDEBF2"/>
<path d="M690.398 189.488H691.598V190.981C691.598 191.313 691.33 191.581 690.998 191.581V191.581C690.667 191.581 690.398 191.313 690.398 190.981V189.488Z" fill="#EDEBF2"/>
<rect x="756.801" y="176" width="22.4" height="22.8" rx="1.6" fill="#B2A3FB"/>
<path d="M756.801 207.6H760.001V209.2C760.001 209.641 759.643 210 759.201 210H757.601C757.159 210 756.801 209.641 756.801 209.2V207.6Z" fill="#B2A3FB"/>
<path d="M776 207.6H779.2V209.2C779.2 209.641 778.842 210 778.4 210H776.8C776.358 210 776 209.641 776 209.2V207.6Z" fill="#B2A3FB"/>
<rect x="754.398" y="183.6" width="27.2" height="24.4" rx="2.4" fill="#EDEBF2"/>
<rect x="756.801" y="192" width="22.4" height="13.6" rx="1.6" fill="#B2A3FB"/>
<rect x="760" y="193.6" width="15.6" height="1.6" rx="0.8" fill="#855CFF"/>
<rect x="759.602" y="182.8" width="4.8" height="0.8" rx="0.4" fill="#E6E6E6"/>
<rect x="771.602" y="182.8" width="4.8" height="0.8" rx="0.4" fill="#E6E6E6"/>
<circle cx="760.199" cy="187.8" r="1" fill="#855CFF"/>
<circle cx="775.801" cy="187.8" r="1" fill="#855CFF"/>
<circle cx="771.801" cy="187.8" r="1" fill="#855CFF"/>
<circle cx="764.199" cy="187.8" r="1" fill="#855CFF"/>
<g clip-path="url(#clip2_914_63145)">
<path d="M845.487 179.866L843.75 190.743H833.628L831.891 179.866" fill="#C8BFFF"/>
<path d="M827.801 178.053H849.32C851.659 178.053 853.553 179.947 853.553 182.286V202.118C853.553 204.456 851.659 206.351 849.32 206.351H828.649C829.152 204.515 830.82 203.237 832.723 203.237H842.794C845.196 203.237 847.195 201.397 847.399 199.009L848.935 180.994C848.98 180.477 848.573 180.033 848.056 180.033H830.802C829.496 180.033 828.314 179.254 827.797 178.053H827.801Z" fill="#EDEBF2"/>
<path d="M832.227 195.597H829.113L826.852 200.124" stroke="#855CFF" stroke-width="0.8" stroke-linecap="round" stroke-linejoin="round"/>
<path d="M832.889 193.05H844.492L846.313 198.887C846.694 201.167 844.936 203.238 842.629 203.238H834.756C832.445 203.238 830.691 201.162 831.072 198.887L832.894 193.05H832.889Z" fill="#855CFF"/>
<mask id="mask10_914_63145" style="mask-type:alpha" maskUnits="userSpaceOnUse" x="830" y="196" width="18" height="5">
<path d="M830.398 197.567C830.398 197.567 833.865 195.202 838.798 198.777C843.737 202.351 847.198 198.906 847.198 198.906" stroke="#E6E6E6" stroke-width="0.8" stroke-linecap="round" stroke-linejoin="round"/>
</mask>
<g mask="url(#mask10_914_63145)">
<path d="M832.889 193.05H844.492L846.313 198.887C846.694 201.167 844.936 203.238 842.629 203.238H834.756C832.445 203.238 830.691 201.162 831.072 198.887L832.894 193.05H832.889Z" fill="#EDEBF2"/>
</g>
</g>
<path d="M923.547 176.4V180.736C923.547 181.806 923.064 182.819 922.232 183.492L916.102 188.455" stroke="#855CFF" stroke-width="2.83636" stroke-linecap="round"/>
<path d="M920.711 184.909L924.611 202.991" stroke="#855CFF" stroke-width="2.83636" stroke-linecap="round"/>
<path d="M896.246 204.808C896.246 203.374 897.333 202.173 898.76 202.03L923.711 199.535C926.09 199.297 928.155 201.166 928.155 203.558C928.155 205.79 926.345 207.6 924.113 207.6H899.038C897.496 207.6 896.246 206.35 896.246 204.808Z" fill="#EDEBF2"/>
<path d="M36.8008 278.4H40.0008V280C40.0008 280.442 39.6426 280.8 39.2008 280.8H37.6008C37.159 280.8 36.8008 280.442 36.8008 280V278.4Z" fill="#855CFF"/>
<path d="M56 278.4H59.2V280C59.2 280.442 58.8418 280.8 58.4 280.8H56.8C56.3582 280.8 56 280.442 56 280V278.4Z" fill="#855CFF"/>
<rect x="34" y="247.2" width="28" height="32" rx="2.4" fill="#EDEBF2"/>
<rect x="36.3984" y="254.8" width="23.2" height="22" rx="1.6" fill="#9E8CFF"/>
<circle cx="51.6008" cy="250.8" r="0.8" fill="#9E8CFF"/>
<circle cx="54.4016" cy="250.8" r="0.8" fill="#9E8CFF"/>
<circle cx="57.1984" cy="250.8" r="0.8" fill="#9E8CFF"/>
<rect x="38" y="250" width="6" height="1.6" rx="0.8" fill="#9E8CFF"/>
<rect x="40" y="257.2" width="15.6" height="1.6" rx="0.8" fill="#855CFF"/>
<circle cx="50.4016" cy="268.8" r="6.8" fill="#EDEBF2"/>
<circle cx="50.4008" cy="268.8" r="5.4" stroke="#DCDAE0" stroke-width="0.4"/>
<circle cx="45.6008" cy="268.8" r="6.8" fill="#EDEBF2"/>
<circle cx="45.6" cy="268.8" r="5.4" stroke="#DCDAE0" stroke-width="0.4"/>
<mask id="mask11_914_63145" style="mask-type:alpha" maskUnits="userSpaceOnUse" x="35" y="265" width="27" height="7">
<path d="M35.6016 268.272C35.6016 268.272 38.4485 263.874 44.6663 267.316C49.5517 270.012 55.1546 274.006 61.2016 268.272" stroke="#855CFF" stroke-width="0.8" stroke-linecap="round" stroke-linejoin="round"/>
</mask>
<g mask="url(#mask11_914_63145)">
<rect x="36.3984" y="254.8" width="23.2" height="22" rx="1.6" fill="#855CFF"/>
</g>
<rect x="106" y="247.2" width="28" height="32" rx="2.4" fill="#EDEBF2"/>
<rect x="108.398" y="249.6" width="23.2" height="22" rx="1.6" fill="#9E8CFF"/>
<circle cx="123.601" cy="276" r="0.8" fill="#9E8CFF"/>
<circle cx="126.402" cy="276" r="0.8" fill="#9E8CFF"/>
<circle cx="129.198" cy="276" r="0.8" fill="#9E8CFF"/>
<rect x="110" y="275.2" width="6" height="1.6" rx="0.8" fill="#9E8CFF"/>
<rect x="112" y="252" width="15.6" height="1.6" rx="0.8" fill="#855CFF"/>
<circle cx="122.402" cy="263.6" r="6.8" fill="#EDEBF2"/>
<circle cx="122.401" cy="263.6" r="5.4" stroke="#DCDAE0" stroke-width="0.4"/>
<circle cx="117.601" cy="263.6" r="6.8" fill="#EDEBF2"/>
<circle cx="117.6" cy="263.6" r="5.4" stroke="#DCDAE0" stroke-width="0.4"/>
<rect x="174" y="252" width="10.4" height="24" rx="1.71429" fill="#EDEBF2"/>
<circle cx="179.202" cy="270.8" r="3.6" fill="#9E8CFF"/>
<circle cx="179.201" cy="262.8" r="2.4" fill="#855CFF"/>
<circle cx="179.201" cy="256" r="2.4" fill="#9E8CFF"/>
<rect x="199.602" y="252" width="10.4" height="24" rx="1.71429" fill="#EDEBF2"/>
<rect x="186.801" y="259.6" width="10.4" height="16.4" rx="1.71429" fill="#EDEBF2"/>
<circle cx="204.799" cy="270.8" r="3.6" fill="#9E8CFF"/>
<circle cx="191.998" cy="270.8" r="3.6" fill="#9E8CFF"/>
<rect x="188.801" y="262.8" width="6.4" height="1.6" rx="0.8" fill="#855CFF"/>
<circle cx="204.798" cy="262.8" r="2.4" fill="#855CFF"/>
<circle cx="204.798" cy="256" r="2.4" fill="#9E8CFF"/>
<path d="M252.801 277.6H256.001V279.2C256.001 279.641 255.643 280 255.201 280H253.601C253.159 280 252.801 279.641 252.801 279.2V277.6Z" fill="#855CFF"/>
<path d="M272 277.6H275.2V279.2C275.2 279.641 274.842 280 274.4 280H272.8C272.358 280 272 279.641 272 279.2V277.6Z" fill="#855CFF"/>
<rect x="250" y="248.4" width="28" height="30.4" rx="2.4" fill="#EDEBF2"/>
<rect x="252.398" y="255.6" width="23.2" height="20.8" rx="1.6" fill="#9E8CFF"/>
<path d="M257.602 248.4H270.402L269.88 250.747C269.717 251.48 269.068 252 268.318 252H259.685C258.935 252 258.286 251.48 258.123 250.747L257.602 248.4Z" fill="#855CFF"/>
<rect x="257.602" y="262" width="4" height="2" rx="0.8" fill="#D9D9D9"/>
<path d="M258.191 259.357C258.092 258.862 258.471 258.4 258.976 258.4H260.224C260.729 258.4 261.108 258.862 261.009 259.357L260.529 261.757C260.454 262.131 260.126 262.4 259.744 262.4H259.456C259.074 262.4 258.746 262.131 258.671 261.757L258.191 259.357Z" fill="#D9D9D9"/>
<path d="M266.992 259.357C266.893 258.862 267.272 258.4 267.777 258.4H269.025C269.53 258.4 269.908 258.862 269.809 259.357L269.329 261.757C269.255 262.131 268.926 262.4 268.545 262.4H268.257C267.875 262.4 267.547 262.131 267.472 261.757L266.992 259.357Z" fill="#D9D9D9"/>
<rect x="258.801" y="263.2" width="1.6" height="3.6" rx="0.8" fill="#D9D9D9"/>
<rect x="267.602" y="263.2" width="1.6" height="3.6" rx="0.8" fill="#D9D9D9"/>
<rect x="266.398" y="262" width="4" height="2" rx="0.8" fill="#D9D9D9"/>
<path d="M320 255.2C320 253.874 321.075 252.8 322.4 252.8H349.6C350.925 252.8 352 253.874 352 255.2V265.2C352 265.642 351.642 266 351.2 266H320.8C320.358 266 320 265.642 320 265.2V255.2Z" fill="#EDEBF2"/>
<path d="M322.398 253.3C322.398 253.024 322.622 252.8 322.898 252.8H349.098C349.375 252.8 349.598 253.024 349.598 253.3V253.3C349.598 254.128 348.927 254.8 348.098 254.8H323.898C323.07 254.8 322.398 254.128 322.398 253.3V253.3Z" fill="#855CFF"/>
<path d="M322.398 262.4C322.398 261.075 323.473 260 324.798 260H347.198C348.524 260 349.598 261.075 349.598 262.4V266H322.398V262.4Z" fill="#9E8CFF"/>
<g clip-path="url(#clip3_914_63145)">
<path d="M331.485 269.6C330.533 270.528 330.581 272.072 331.589 272.936C332.561 273.776 332.645 275.252 331.773 276.192" stroke="#855CFF" stroke-width="0.8" stroke-linecap="round" stroke-linejoin="round"/>
<path d="M335.981 269.6C335.029 270.528 335.077 272.072 336.085 272.936C337.057 273.776 337.141 275.252 336.269 276.192" stroke="#855CFF" stroke-width="0.8" stroke-linecap="round" stroke-linejoin="round"/>
<path d="M340.473 269.6C339.521 270.528 339.569 272.072 340.577 272.936C341.549 273.776 341.633 275.252 340.761 276.192" stroke="#855CFF" stroke-width="0.8" stroke-linecap="round" stroke-linejoin="round"/>
</g>
<path d="M321.398 262.2H350.998" stroke="#EDEBF2" stroke-width="0.8" stroke-linecap="round"/>
<path d="M321.398 264.4H350.998" stroke="#EDEBF2" stroke-width="0.8" stroke-linecap="round"/>
<rect x="333.602" y="258" width="4.8" height="0.8" rx="0.4" fill="#855CFF"/>
<circle cx="348.998" cy="258.2" r="0.6" fill="#855CFF"/>
<circle cx="346.6" cy="258.2" r="0.6" fill="#855CFF"/>
<circle cx="398.398" cy="259.2" r="2" fill="#9E8CFF"/>
<path fill-rule="evenodd" clip-rule="evenodd" d="M395.6 276.4C397.809 276.4 399.6 274.609 399.6 272.4C399.6 270.191 397.809 268.4 395.6 268.4C393.391 268.4 391.6 270.191 391.6 272.4C391.6 274.609 393.391 276.4 395.6 276.4ZM395.6 280C399.797 280 403.2 276.597 403.2 272.4C403.2 268.202 399.797 264.8 395.6 264.8C391.403 264.8 388 268.202 388 272.4C388 276.597 391.403 280 395.6 280Z" fill="#855CFF"/>
<path fill-rule="evenodd" clip-rule="evenodd" d="M420.401 276.4C422.61 276.4 424.401 274.609 424.401 272.4C424.401 270.191 422.61 268.4 420.401 268.4C418.192 268.4 416.401 270.191 416.401 272.4C416.401 274.609 418.192 276.4 420.401 276.4ZM420.401 280C424.598 280 428.001 276.597 428.001 272.4C428.001 268.202 424.598 264.8 420.401 264.8C416.203 264.8 412.801 268.202 412.801 272.4C412.801 276.597 416.203 280 420.401 280Z" fill="#855CFF"/>
<path d="M404.801 256.6H401.201L399.588 261.2M395.801 272L399.588 261.2M399.588 261.2H414.001M399.588 261.2L408.401 272M414.001 261.2L420.401 272H408.401M414.001 261.2L408.401 272M414.001 261.2L415.601 258" stroke="#C7C6CC" stroke-width="2.4" stroke-linecap="round" stroke-linejoin="round"/>
<rect x="412.398" y="255.2" width="8" height="3.2" rx="1.6" fill="#9E8CFF"/>
<path d="M467.199 262.4H492.799V265.6C492.799 268.251 490.65 270.4 487.999 270.4H471.999C469.348 270.4 467.199 268.251 467.199 265.6V262.4Z" fill="#C7C6CC"/>
<rect x="465.602" y="260.8" width="28.8" height="1.6" rx="0.8" fill="#EDEBF2"/>
<rect x="467.199" y="272.8" width="7.2" height="7.2" rx="3.6" fill="#855CFF"/>
<rect x="485.602" y="272.8" width="7.2" height="7.2" rx="3.6" fill="#855CFF"/>
<path d="M489.2 276.4L481.2 268.4L479.2 266.4M464 255.2H468L479.2 266.4M479.2 266.4L470.8 276.4" stroke="#9E8CFF" stroke-width="2" stroke-linecap="round"/>
<path d="M492.8 260.8C492.8 259.119 492.469 257.455 491.826 255.902C491.182 254.349 490.24 252.938 489.051 251.749C487.862 250.56 486.451 249.618 484.898 248.974C483.345 248.331 481.681 248 480 248L480 260.8H492.8Z" fill="#9E8CFF"/>
<path d="M560.398 254.4L553.198 254.4L553.198 252.8C553.198 250.812 554.81 249.2 556.798 249.2V249.2C558.787 249.2 560.398 250.812 560.398 252.8L560.398 254.4Z" stroke="#855CFF" stroke-width="1.6"/>
<path d="M545.602 263.2C545.602 257.014 550.616 252 556.802 252V252C562.987 252 568.002 257.014 568.002 263.2V277.6C568.002 278.925 566.927 280 565.602 280H548.002C546.676 280 545.602 278.925 545.602 277.6V263.2Z" fill="#C7C6CC"/>
<rect x="548" y="268.8" width="17.6" height="9.6" rx="1.6" fill="#EDEBF2"/>
<path d="M551.602 269.2L542.002 269.2L542.002 265.6C542.002 262.949 544.151 260.8 546.802 260.8V260.8C549.453 260.8 551.602 262.949 551.602 265.6L551.602 269.2Z" stroke="#855CFF" stroke-width="1.6"/>
<path d="M537.224 267.762C537.347 266.535 538.379 265.601 539.612 265.601H553.988C555.221 265.601 556.253 266.535 556.376 267.762L557.336 277.362C557.477 278.775 556.368 280.001 554.948 280.001H538.652C537.232 280.001 536.123 278.775 536.264 277.362L537.224 267.762Z" fill="#9E8CFF"/>
<rect x="544.398" y="270" width="4.8" height="2.4" rx="1.2" fill="#C8BFFF"/>
<path d="M609.395 253.809C609.569 252.818 610.371 252.074 611.371 251.955C613.754 251.671 618.268 251.2 622.001 251.2C625.734 251.2 630.248 251.671 632.631 251.955C633.63 252.074 634.432 252.818 634.606 253.809C634.869 255.31 635.201 257.567 635.201 259.4C635.201 261.234 634.869 263.49 634.606 264.991C634.432 265.983 633.63 266.727 632.631 266.846C630.248 267.13 625.734 267.6 622.001 267.6C618.268 267.6 613.754 267.13 611.371 266.846C610.371 266.727 609.569 265.983 609.395 264.991C609.133 263.49 608.801 261.234 608.801 259.4C608.801 257.567 609.133 255.31 609.395 253.809Z" fill="#C8BFFF"/>
<rect x="607.602" y="252.8" width="2.85633" height="3.80844" rx="1.42816" transform="rotate(-45 607.602 252.8)" fill="#C8BFFF"/>
<rect x="634" y="250.8" width="2.85633" height="3.80844" rx="1.42816" transform="rotate(45 634 250.8)" fill="#C8BFFF"/>
<rect x="631.199" y="265.6" width="2.85633" height="3.80844" rx="1.42816" transform="rotate(-45 631.199 265.6)" fill="#C8BFFF"/>
<rect x="610.398" y="263.6" width="2.85633" height="3.80844" rx="1.42816" transform="rotate(45 610.398 263.6)" fill="#C8BFFF"/>
<rect x="628.129" y="266.4" width="3.6" height="8" rx="1.8" transform="rotate(60 628.129 266.4)" fill="#855CFF"/>
<rect x="627.098" y="271.6" width="4" height="8" rx="2" transform="rotate(15 627.098 271.6)" fill="#855CFF"/>
<rect x="630.402" y="272.8" width="4" height="8" rx="2" transform="rotate(-15 630.402 272.8)" fill="#855CFF"/>
<rect x="640.73" y="270.4" width="3.6" height="8" rx="1.8" transform="rotate(120 640.73 270.4)" fill="#855CFF"/>
<circle cx="630.799" cy="272.4" r="5.6" fill="#9E8CFF"/>
<path d="M624.404 259.604C625.327 258.682 626.589 258.678 627.233 259.322C627.877 259.966 627.872 261.228 626.95 262.15C626.027 263.073 624.765 263.077 624.121 262.434C623.477 261.79 623.481 260.527 624.404 259.604Z" fill="#855CFF" stroke="#9E8CFF" stroke-width="1.2"/>
<path d="M636.95 259.604C637.873 260.527 637.877 261.789 637.233 262.433C636.589 263.077 635.327 263.073 634.404 262.15C633.482 261.227 633.478 259.966 634.121 259.322C634.765 258.678 636.027 258.681 636.95 259.604Z" fill="#855CFF" stroke="#9E8CFF" stroke-width="1.2"/>
<ellipse cx="630.8" cy="265.6" rx="6.8" ry="6" fill="#9E8CFF"/>
<ellipse cx="630.802" cy="266.8" rx="2.4" ry="2" fill="#855CFF"/>
<path d="M705.258 249.2C707.688 249.2 709.658 251.17 709.658 253.6V271.814C709.658 272.256 709.3 272.614 708.858 272.614H699.531C699.09 272.614 698.731 272.256 698.731 271.814V258.401C698.731 257.959 698.373 257.601 697.931 257.601H688C687.558 257.601 687.2 257.959 687.2 258.401V260C687.2 260.442 686.842 260.8 686.4 260.8H680.8C680.358 260.8 680 260.442 680 260V254.8C680 251.707 682.507 249.2 685.6 249.2H705.258Z" fill="#EDEBF2"/>
<path d="M680 271.073C680 270.632 680.358 270.273 680.8 270.273H709.659V278.059C709.659 278.501 709.3 278.859 708.859 278.859H680.8C680.358 278.859 680 278.501 680 278.059V271.073Z" fill="#9E8CFF"/>
<circle cx="704.193" cy="258.566" r="2.34146" fill="#855CFF"/>
<circle cx="704.193" cy="265.59" r="2.34146" fill="#855CFF"/>
<path d="M680 273.396H687.61C688.256 273.396 688.78 273.92 688.78 274.566V274.566C688.78 275.213 688.256 275.737 687.61 275.737H680V273.396Z" fill="#855CFF"/>
<path d="M682.344 260.907H684.685V262.858C684.685 263.505 684.161 264.029 683.514 264.029V264.029C682.868 264.029 682.344 263.505 682.344 262.858V260.907Z" fill="#855CFF"/>
<path d="M709.656 253.883H710.798C711.46 253.883 711.998 254.42 711.998 255.083V260.488C711.998 261.15 711.46 261.688 710.798 261.688H709.656V253.883Z" fill="#855CFF"/>
<path d="M752 255.2H784V274.8C784 275.684 783.284 276.4 782.4 276.4H753.6C752.716 276.4 752 275.684 752 274.8V255.2Z" fill="#EDEBF2"/>
<rect width="34.4" height="2.4" rx="0.8" transform="matrix(1 0 0 -1 750.801 255.2)" fill="#9E8CFF"/>
<path d="M756.398 252.8H779.598V252.4C779.598 251.958 779.24 251.6 778.798 251.6H757.198C756.757 251.6 756.398 251.958 756.398 252.4V252.8Z" fill="#855CFF"/>
<path d="M768.777 261.6C768.777 262.972 766.577 264.4 764.391 264.4C762.206 264.4 760.844 261.6 760.844 261.6C760.844 261.6 762.191 258.8 764.391 258.8C766.592 258.8 768.777 260.228 768.777 261.6Z" fill="#855CFF"/>
<circle cx="767.377" cy="261.599" r="0.466667" fill="#EDEBF2"/>
<path d="M757.742 258.847L759.087 261.6L757.742 264.369L761.668 261.6L757.742 258.847Z" fill="#855CFF"/>
<path d="M778.667 269.6C778.667 270.58 777.095 271.6 775.534 271.6C773.973 271.6 773 269.6 773 269.6C773 269.6 773.962 267.6 775.534 267.6C777.106 267.6 778.667 268.619 778.667 269.6Z" fill="#855CFF"/>
<circle cx="777.669" cy="269.6" r="0.333333" fill="#EDEBF2"/>
<path d="M770.789 267.633L771.75 269.599L770.789 271.577L773.594 269.599L770.789 267.633Z" fill="#855CFF"/>
<path d="M830.801 252C830.801 249.791 832.592 248 834.801 248H844.401C846.61 248 848.401 249.791 848.401 252V279.6H830.801V252Z" fill="#C7C6CC"/>
<rect x="833.199" y="253.6" width="12.8" height="26" rx="0.8" fill="#9E8CFF"/>
<rect x="835.199" y="250" width="8.8" height="2.4" rx="0.8" fill="#EDEBF2"/>
<rect x="829.199" y="278.4" width="21.2" height="1.2" rx="0.6" fill="#C7C6CC"/>
<circle cx="835.198" cy="266" r="0.8" fill="#855CFF"/>
<path d="M924.234 277.591H899.765C899.202 277.591 898.746 278.052 898.746 278.62C898.746 279.188 899.202 279.649 899.765 279.649H924.234C924.797 279.649 925.253 279.188 925.253 278.62C925.253 278.052 924.797 277.591 924.234 277.591Z" fill="#C7C6CC"/>
<path d="M907.474 255.999H904.469V277.555H907.474V255.999Z" fill="#C7C6CC"/>
<path d="M921.275 250.314H918.27V277.554H921.275V250.314Z" fill="#C7C6CC"/>
<path d="M911.248 254.971H900.698C900.136 254.971 899.68 255.431 899.68 256C899.68 256.568 900.136 257.029 900.698 257.029H911.248C911.811 257.029 912.267 256.568 912.267 256C912.267 255.431 911.811 254.971 911.248 254.971Z" fill="#C7C6CC"/>
<path d="M923.301 248.751H916.241C915.679 248.751 915.223 249.212 915.223 249.78C915.223 250.348 915.679 250.809 916.241 250.809H923.301C923.863 250.809 924.319 250.348 924.319 249.78C924.319 249.212 923.863 248.751 923.301 248.751Z" fill="#C7C6CC"/>
<path d="M918.27 272.587H907.477V274.645H918.27V272.587Z" fill="#9E8CFF"/>
<path d="M907.477 260.15H921.872C922.701 260.15 923.37 260.83 923.37 261.665V267.947C923.37 268.785 922.698 269.462 921.872 269.462H907.477V260.146V260.15Z" fill="#9E8CFF"/>
<path d="M912.27 262.003C913.801 262.003 915.043 263.259 915.043 264.808V267.614H909.5V264.808C909.5 263.259 910.742 262.003 912.273 262.003H912.27Z" fill="#855CFF"/>
</g>
<rect x="0.5" y="0.5" width="959" height="311" rx="15.5" stroke="#F6F6F6"/>
<defs>
<clipPath id="clip0_914_63145">
<rect width="960" height="312" rx="16" fill="white"/>
</clipPath>
<clipPath id="clip1_914_63145">
<rect width="18.8" height="5.2" fill="white" transform="translate(398.801 193.6)"/>
</clipPath>
<clipPath id="clip2_914_63145">
<rect width="28" height="29.2" fill="white" transform="translate(826 177.6)"/>
</clipPath>
<clipPath id="clip3_914_63145">
<rect width="11.364" height="7.396" fill="white" transform="translate(330.398 269.2)"/>
</clipPath>
</defs>
</svg>
