<svg width="960" height="209" viewBox="0 0 960 209" fill="none" xmlns="http://www.w3.org/2000/svg">
<rect y="1.2793" width="235.5" height="100" rx="10" fill="#BB162B"/>
<path d="M16.7852 26.2793V17.7949H19.9727C21.918 17.7949 22.9551 18.9785 22.9609 20.6074C22.9551 22.2305 21.9062 23.4082 19.9492 23.4082H18.3086V26.2793H16.7852ZM18.3086 22.1543H19.7383C20.8867 22.1484 21.4023 21.5039 21.4023 20.6074C21.4023 19.6992 20.8867 19.0723 19.7383 19.0723H18.3086V22.1543ZM24.1211 26.2793V19.916H25.5742V20.9707H25.6445C25.873 20.2383 26.4824 19.8223 27.2148 19.8223C27.3789 19.8223 27.6133 19.8398 27.7539 19.8574V21.2402C27.6191 21.1934 27.3086 21.1523 27.0625 21.1465C26.2305 21.1523 25.6211 21.7266 25.6211 22.5293V26.2793H24.1211ZM28.6445 26.2793V19.916H30.1445V26.2793H28.6445ZM28.5391 18.1934C28.5391 17.748 28.9316 17.3848 29.4062 17.3848C29.8809 17.3848 30.2734 17.748 30.2734 18.1934C30.2734 18.6445 29.8809 19.0078 29.4062 19.0137C28.9316 19.0078 28.5391 18.6445 28.5391 18.1934ZM31.5742 26.2793V19.916H33.0039V20.9941H33.0859C33.3496 20.2676 33.9883 19.834 34.832 19.834C35.6934 19.834 36.3145 20.2734 36.5547 20.9941H36.625C36.9004 20.291 37.6094 19.834 38.5352 19.834C39.7012 19.834 40.5215 20.584 40.5156 22.002V26.2793H39.0273V22.2363C39.0273 21.4453 38.5469 21.0879 37.9375 21.0879C37.2051 21.0879 36.7773 21.5859 36.7773 22.3066V26.2793H35.3242V22.1777C35.3184 21.5156 34.8848 21.0879 34.2461 21.0879C33.6016 21.0879 33.0742 21.6211 33.0742 22.4121V26.2793H31.5742ZM41.6523 24.4863C41.6523 23.0566 42.8418 22.6406 44.0195 22.5645C44.4648 22.5293 45.373 22.4883 45.6543 22.4766L45.6484 21.9668C45.6484 21.334 45.2441 20.9707 44.5 20.9707C43.832 20.9707 43.4219 21.2754 43.3047 21.7324H41.8633C41.9688 20.6484 42.9414 19.834 44.5352 19.834C45.7422 19.834 47.1367 20.332 47.1367 22.0254V26.2793H45.707V25.4004H45.6602C45.3789 25.9395 44.7871 26.4082 43.7852 26.4082C42.5723 26.4082 41.6523 25.7461 41.6523 24.4863ZM43.0938 24.4746C43.0938 25.0254 43.5449 25.3066 44.1719 25.3066C45.0801 25.3066 45.6602 24.709 45.6602 23.9941L45.6543 23.4727C45.3848 23.4844 44.5527 23.5371 44.2539 23.5605C43.5449 23.6191 43.0938 23.918 43.0938 24.4746ZM48.543 26.2793V19.916H49.9961V20.9707H50.0664C50.2949 20.2383 50.9043 19.8223 51.6367 19.8223C51.8008 19.8223 52.0352 19.8398 52.1758 19.8574V21.2402C52.041 21.1934 51.7305 21.1523 51.4844 21.1465C50.6523 21.1523 50.043 21.7266 50.043 22.5293V26.2793H48.543ZM54.168 28.6699C53.8691 28.6641 53.5879 28.6582 53.3945 28.6348V27.4395C53.5762 27.457 53.8281 27.457 54.0273 27.4629C54.3906 27.457 54.6953 27.4336 54.9531 26.748L55.082 26.4082L52.7617 19.916H54.3438L55.8203 24.7207H55.8906L57.3672 19.916H58.9492L56.3945 27.0527C56.0312 28.0664 55.3633 28.6641 54.168 28.6699Z" fill="white" fill-opacity="0.6"/>
<path d="M16.7744 64.2793V55.0879H18.6787V59.1631H18.8057L22.1445 55.0879H24.4424L21.0146 59.2012L24.4805 64.2793H22.1953L19.6436 60.4834L18.6787 61.6514V64.2793H16.7744ZM25.7881 64.2793V57.3857H27.667V64.2793H25.7881ZM25.6992 55.5322C25.6992 54.999 26.1626 54.5737 26.7275 54.5674C27.2861 54.5737 27.7495 54.999 27.7432 55.5322C27.7495 56.0527 27.2861 56.4844 26.7275 56.4844C26.1626 56.4844 25.6992 56.0527 25.6992 55.5322ZM28.7969 62.3496C28.8032 60.8135 30.0347 60.312 31.3613 60.2295C31.8564 60.1978 32.7832 60.1533 33.0752 60.1406V59.582C33.0688 59.0044 32.6753 58.6743 31.9707 58.668C31.3296 58.6743 30.9297 58.96 30.8281 59.4297H29.0381C29.1523 58.2363 30.1934 57.2969 32.0215 57.2969C33.5259 57.2969 34.9478 57.9697 34.9414 59.6328V64.2793H33.1641V63.3271H33.1133C32.7769 63.9619 32.1167 64.4126 31.0947 64.4062C29.7744 64.4126 28.8032 63.7144 28.7969 62.3496ZM30.5996 62.2988C30.5996 62.8257 31.0249 63.105 31.6279 63.1113C32.4849 63.105 33.0815 62.5464 33.0752 61.8164V61.3149C32.7896 61.3276 31.9834 61.3721 31.666 61.3975C31.0122 61.4546 30.5996 61.7656 30.5996 62.2988ZM39.4102 64.2793V55.0879H43.0156C45.104 55.0879 46.3037 56.2622 46.3037 58.084C46.3037 59.3408 45.7261 60.2549 44.6787 60.7056L46.6338 64.2793H44.5264L42.7681 61.0166H41.3145V64.2793H39.4102ZM41.3145 59.4678H42.6602C43.79 59.4678 44.3423 59.0044 44.3359 58.084C44.3423 57.1572 43.79 56.6558 42.6602 56.6494H41.3145V59.4678ZM50.5947 64.4189C48.481 64.4126 47.186 63.0479 47.1924 60.8643C47.186 58.7378 48.5 57.2969 50.5186 57.2969C52.3276 57.2969 53.7559 58.4395 53.7559 60.7881V61.3213H49.0459C49.0459 62.3623 49.6616 63.0034 50.6328 63.0098C51.2739 63.0034 51.731 62.7241 51.915 62.3115H53.7051C53.4385 63.5874 52.2959 64.4126 50.5947 64.4189ZM49.0459 60.1406H51.9785C51.9722 59.3027 51.3945 58.6997 50.5566 58.7061C49.6934 58.6997 49.084 59.3472 49.0459 60.1406ZM57.4756 64.3936C55.9014 64.3936 54.6699 63.1431 54.6699 60.8389C54.6699 58.4775 55.9521 57.2969 57.4756 57.2969C58.6309 57.2969 59.1831 57.9824 59.4307 58.541H59.4941V55.0879H61.373V64.2793H59.5195V63.1748H59.4307C59.1704 63.7461 58.5991 64.3936 57.4756 64.3936ZM56.5996 60.8262C56.5933 62.0449 57.1074 62.8892 58.0596 62.8955C58.999 62.8892 59.5322 62.0703 59.5322 60.8262C59.5322 59.5884 59.0054 58.7949 58.0596 58.7949C57.1011 58.7949 56.5933 59.6265 56.5996 60.8262Z" fill="white"/>
<path d="M19.9609 84.2793L20.3477 81.9355H18.2148L17.8281 84.2793H16.9727L17.3594 81.9355H16.1055L16.2461 81.0918H17.4941L17.8457 78.9824H16.6094L16.7383 78.1387H17.9805L18.3672 75.7949H19.2227L18.8359 78.1387H20.9688L21.3555 75.7949H22.2109L21.8242 78.1387H23.0898L22.9492 78.9824H21.6895L21.3379 81.0918H22.5859L22.4453 81.9355H21.2031L20.8164 84.2793H19.9609ZM18.3496 81.0918H20.4824L20.834 78.9824H18.7012L18.3496 81.0918ZM24.1328 84.2793V75.7949H27.1094C28.8906 75.7949 29.7285 76.7969 29.7227 78.0449C29.7285 79.1348 29.0781 79.6211 28.3398 79.8262V79.9082C29.1309 79.9551 30.0566 80.6816 30.0625 82.0293C30.0566 83.3008 29.2188 84.2793 27.2148 84.2793H24.1328ZM25.1875 83.3418H27.2031C28.5332 83.3418 29.0488 82.7559 29.043 82.0176C29.0488 81.1562 28.3516 80.4238 27.2617 80.4238H25.1875V83.3418ZM25.1875 79.5098H27.0742C27.9941 79.5156 28.7148 78.9414 28.7148 78.0566C28.7148 77.3184 28.2168 76.7324 27.1094 76.7324H25.1875V79.5098ZM31.5625 84.2793V75.7949H34.5391C36.3203 75.7949 37.1582 76.7969 37.1523 78.0449C37.1582 79.1348 36.5078 79.6211 35.7695 79.8262V79.9082C36.5605 79.9551 37.4863 80.6816 37.4922 82.0293C37.4863 83.3008 36.6484 84.2793 34.6445 84.2793H31.5625ZM32.6172 83.3418H34.6328C35.9629 83.3418 36.4785 82.7559 36.4727 82.0176C36.4785 81.1562 35.7812 80.4238 34.6914 80.4238H32.6172V83.3418ZM32.6172 79.5098H34.5039C35.4238 79.5156 36.1445 78.9414 36.1445 78.0566C36.1445 77.3184 35.6465 76.7324 34.5391 76.7324H32.6172V79.5098ZM41.8516 75.7949V84.2793H40.7852V76.8965H40.7383L38.6758 78.2676V77.2012L40.7852 75.7949H41.8516ZM47.0664 84.3965C45.5957 84.3789 43.9727 83.5059 43.9727 80.3652C43.9727 77.3594 45.2031 75.6777 47.1953 75.6777C48.6895 75.6777 49.7324 76.5977 49.9492 77.9277H48.9062C48.7129 77.1777 48.1387 76.6152 47.1953 76.6152C45.8008 76.6152 44.9629 77.8047 44.9688 79.8496H45.0742C45.5605 79.1406 46.3398 78.7246 47.2539 78.7246C48.7598 78.7246 50.0195 79.8965 50.0195 81.5371C50.0195 83.1367 48.8535 84.4141 47.0664 84.3965ZM45.1094 81.5605C45.1152 82.5566 45.9297 83.4648 47.0664 83.4707C48.1621 83.4648 48.9941 82.6035 49 81.5488C48.9941 80.5059 48.1973 79.6562 47.0898 79.6504C45.9766 79.6562 45.1211 80.5586 45.1094 81.5605ZM51.4727 84.2793L51.4609 83.5059L54.3555 80.459C55.3574 79.3926 55.8379 78.8184 55.8438 78.0332C55.8379 77.1602 55.1113 76.5977 54.1562 76.5918C53.1426 76.5977 52.5098 77.2363 52.5039 78.1855H51.5078C51.4961 76.6855 52.6562 75.6777 54.1914 75.6777C55.7324 75.6777 56.8223 76.7148 56.8281 78.0332C56.8223 78.9824 56.3828 79.7207 54.8828 81.2676L52.9375 83.2715V83.3418H56.9805V84.2793H51.4727ZM58.6562 84.2793V75.7949H61.6328C63.4141 75.7949 64.252 76.7969 64.2461 78.0449C64.252 79.1348 63.6016 79.6211 62.8633 79.8262V79.9082C63.6543 79.9551 64.5801 80.6816 64.5859 82.0293C64.5801 83.3008 63.7422 84.2793 61.7383 84.2793H58.6562ZM59.7109 83.3418H61.7266C63.0566 83.3418 63.5723 82.7559 63.5664 82.0176C63.5723 81.1562 62.875 80.4238 61.7852 80.4238H59.7109V83.3418ZM59.7109 79.5098H61.5977C62.5176 79.5156 63.2383 78.9414 63.2383 78.0566C63.2383 77.3184 62.7402 76.7324 61.6328 76.7324H59.7109V79.5098Z" fill="white" fill-opacity="0.78"/>
<rect x="241.5" y="1.2793" width="235.5" height="100" rx="10" fill="#7E8083"/>
<path d="M258.274 64.2793V55.0879H260.179V59.1631H260.306L263.645 55.0879H265.942L262.515 59.2012L265.98 64.2793H263.695L261.144 60.4834L260.179 61.6514V64.2793H258.274ZM267.288 64.2793V57.3857H269.167V64.2793H267.288ZM267.199 55.5322C267.199 54.999 267.663 54.5737 268.228 54.5674C268.786 54.5737 269.25 54.999 269.243 55.5322C269.25 56.0527 268.786 56.4844 268.228 56.4844C267.663 56.4844 267.199 56.0527 267.199 55.5322ZM270.297 62.3496C270.303 60.8135 271.535 60.312 272.861 60.2295C273.356 60.1978 274.283 60.1533 274.575 60.1406V59.582C274.569 59.0044 274.175 58.6743 273.471 58.668C272.83 58.6743 272.43 58.96 272.328 59.4297H270.538C270.652 58.2363 271.693 57.2969 273.521 57.2969C275.026 57.2969 276.448 57.9697 276.441 59.6328V64.2793H274.664V63.3271H274.613C274.277 63.9619 273.617 64.4126 272.595 64.4062C271.274 64.4126 270.303 63.7144 270.297 62.3496ZM272.1 62.2988C272.1 62.8257 272.525 63.105 273.128 63.1113C273.985 63.105 274.582 62.5464 274.575 61.8164V61.3149C274.29 61.3276 273.483 61.3721 273.166 61.3975C272.512 61.4546 272.1 61.7656 272.1 62.2988ZM284.147 64.2793H280.91V55.0879H284.186C286.953 55.0879 288.648 56.8081 288.642 59.6709C288.648 62.5464 286.953 64.2793 284.147 64.2793ZM282.814 62.6416H284.071C285.823 62.6416 286.737 61.7339 286.737 59.6709C286.737 57.627 285.823 56.7256 284.084 56.7256H282.814V62.6416ZM289.657 62.3496C289.664 60.8135 290.895 60.312 292.222 60.2295C292.717 60.1978 293.644 60.1533 293.936 60.1406V59.582C293.929 59.0044 293.536 58.6743 292.831 58.668C292.19 58.6743 291.79 58.96 291.688 59.4297H289.898C290.013 58.2363 291.054 57.2969 292.882 57.2969C294.386 57.2969 295.808 57.9697 295.802 59.6328V64.2793H294.024V63.3271H293.974C293.637 63.9619 292.977 64.4126 291.955 64.4062C290.635 64.4126 289.664 63.7144 289.657 62.3496ZM291.46 62.2988C291.46 62.8257 291.885 63.105 292.488 63.1113C293.345 63.105 293.942 62.5464 293.936 61.8164V61.3149C293.65 61.3276 292.844 61.3721 292.526 61.3975C291.873 61.4546 291.46 61.7656 291.46 62.2988ZM297.236 64.2793V57.3857H299.052V58.5791H299.128C299.375 57.7349 300.017 57.2842 300.791 57.2842C300.981 57.2842 301.223 57.3096 301.388 57.3477V59.0234C301.21 58.9663 300.848 58.9219 300.588 58.9219C299.737 58.9219 299.109 59.5122 299.115 60.3564V64.2793H297.236ZM302.302 64.2793V55.0879H304.181V60.0264H304.282L306.517 57.3857H308.675L306.104 60.3691L308.814 64.2793H306.605L304.708 61.4736L304.181 62.0703V64.2793H302.302ZM315.645 67.0088C313.74 67.0088 312.566 66.1519 312.458 64.8506H314.312C314.413 65.4028 314.934 65.6504 315.683 65.6504C316.552 65.6504 317.136 65.2759 317.143 64.3174V63.0605H317.054C316.806 63.6191 316.197 64.1841 315.086 64.1777C313.531 64.1841 312.28 63.0859 312.28 60.7881C312.28 58.4585 313.562 57.2969 315.086 57.2969C316.241 57.2969 316.8 57.9824 317.054 58.541H317.13V57.3857H318.996V64.3555C318.99 66.1138 317.606 67.0088 315.645 67.0088ZM314.21 60.8135C314.204 62.0068 314.718 62.7622 315.67 62.7686C316.609 62.7622 317.143 62.0386 317.143 60.8135C317.143 59.5884 316.616 58.7949 315.67 58.7949C314.711 58.7949 314.204 59.6265 314.21 60.8135ZM320.456 64.2793V57.3857H322.271V58.5791H322.348C322.595 57.7349 323.236 57.2842 324.011 57.2842C324.201 57.2842 324.442 57.3096 324.607 57.3477V59.0234C324.43 58.9663 324.068 58.9219 323.808 58.9219C322.957 58.9219 322.329 59.5122 322.335 60.3564V64.2793H320.456ZM325.001 62.3496C325.007 60.8135 326.239 60.312 327.565 60.2295C328.061 60.1978 328.987 60.1533 329.279 60.1406V59.582C329.273 59.0044 328.879 58.6743 328.175 58.668C327.534 58.6743 327.134 58.96 327.032 59.4297H325.242C325.356 58.2363 326.397 57.2969 328.226 57.2969C329.73 57.2969 331.152 57.9697 331.146 59.6328V64.2793H329.368V63.3271H329.317C328.981 63.9619 328.321 64.4126 327.299 64.4062C325.979 64.4126 325.007 63.7144 325.001 62.3496ZM326.804 62.2988C326.804 62.8257 327.229 63.105 327.832 63.1113C328.689 63.105 329.286 62.5464 329.279 61.8164V61.3149C328.994 61.3276 328.188 61.3721 327.87 61.3975C327.216 61.4546 326.804 61.7656 326.804 62.2988ZM333.431 66.8691C333.062 66.8628 332.72 66.8564 332.479 66.8311V65.3711C332.72 65.3901 333.005 65.3965 333.24 65.3965C333.615 65.3965 333.913 65.3584 334.142 64.7617L334.256 64.4697L331.78 57.3857H333.748L335.195 62.4639H335.271L336.731 57.3857H338.725L336.033 65.041C335.64 66.1519 334.884 66.8628 333.431 66.8691Z" fill="white"/>
<path d="M261.461 84.2793L261.848 81.9355H259.715L259.328 84.2793H258.473L258.859 81.9355H257.605L257.746 81.0918H258.994L259.346 78.9824H258.109L258.238 78.1387H259.48L259.867 75.7949H260.723L260.336 78.1387H262.469L262.855 75.7949H263.711L263.324 78.1387H264.59L264.449 78.9824H263.189L262.838 81.0918H264.086L263.945 81.9355H262.703L262.316 84.2793H261.461ZM259.85 81.0918H261.982L262.334 78.9824H260.201L259.85 81.0918ZM265.762 84.2793L269.652 76.791V76.7324H265.164V75.7949H270.742V76.7793L266.863 84.2793H265.762ZM272.254 84.2793V75.7949H277.398V76.7324H273.309V79.5684H277.129V80.4941H273.309V83.3418H277.457V84.2793H272.254ZM281.758 84.3965C279.971 84.3965 278.74 83.4062 278.746 82.0293C278.74 80.9336 279.502 80.0254 280.469 79.873V79.8262C279.625 79.6328 279.068 78.8535 279.074 77.9277C279.068 76.6328 280.205 75.6777 281.758 75.6777C283.305 75.6777 284.441 76.6328 284.453 77.9277C284.441 78.8535 283.879 79.6328 283.047 79.8262V79.873C284.008 80.0254 284.77 80.9336 284.781 82.0293C284.77 83.4062 283.527 84.3965 281.758 84.3965ZM279.801 81.9707C279.783 82.8613 280.539 83.4648 281.758 83.4707C282.971 83.4648 283.727 82.8613 283.727 81.9707C283.727 81.0332 282.9 80.3418 281.758 80.3418C280.621 80.3418 279.783 81.0332 279.801 81.9707ZM280.094 78.0098C280.1 78.8652 280.785 79.4453 281.758 79.4512C282.725 79.4453 283.422 78.8652 283.422 78.0098C283.422 77.1602 282.748 76.5859 281.758 76.5918C280.75 76.5859 280.1 77.1602 280.094 78.0098ZM288.977 84.3965C287.096 84.3965 286.006 82.8145 286.012 80.0371C286.006 77.2832 287.107 75.6777 288.977 75.6777C290.84 75.6777 291.941 77.2832 291.941 80.0371C291.941 82.8145 290.857 84.3965 288.977 84.3965ZM287.031 80.0371C287.037 82.2344 287.746 83.459 288.977 83.459C290.201 83.459 290.916 82.2344 290.91 80.0371C290.916 77.8398 290.195 76.5977 288.977 76.5918C287.758 76.5977 287.037 77.8398 287.031 80.0371ZM296.184 84.3965C294.396 84.3965 293.166 83.4062 293.172 82.0293C293.166 80.9336 293.928 80.0254 294.895 79.873V79.8262C294.051 79.6328 293.494 78.8535 293.5 77.9277C293.494 76.6328 294.631 75.6777 296.184 75.6777C297.73 75.6777 298.867 76.6328 298.879 77.9277C298.867 78.8535 298.305 79.6328 297.473 79.8262V79.873C298.434 80.0254 299.195 80.9336 299.207 82.0293C299.195 83.4062 297.953 84.3965 296.184 84.3965ZM294.227 81.9707C294.209 82.8613 294.965 83.4648 296.184 83.4707C297.396 83.4648 298.152 82.8613 298.152 81.9707C298.152 81.0332 297.326 80.3418 296.184 80.3418C295.047 80.3418 294.209 81.0332 294.227 81.9707ZM294.52 78.0098C294.525 78.8652 295.211 79.4453 296.184 79.4512C297.15 79.4453 297.848 78.8652 297.848 78.0098C297.848 77.1602 297.174 76.5859 296.184 76.5918C295.176 76.5859 294.525 77.1602 294.52 78.0098ZM303.555 84.3965C301.867 84.3965 300.654 83.4941 300.602 82.1465H301.668C301.727 82.9551 302.529 83.459 303.543 83.459C304.662 83.459 305.471 82.8555 305.477 81.9707C305.471 81.0449 304.732 80.3945 303.414 80.3887H302.723V79.4629H303.414C304.445 79.4629 305.166 78.8828 305.16 78.0098C305.166 77.1602 304.545 76.5977 303.578 76.5918C302.67 76.5977 301.844 77.0957 301.797 77.9277H300.777C300.83 76.5801 302.084 75.6777 303.59 75.6777C305.207 75.6777 306.191 76.7383 306.18 77.9512C306.191 78.918 305.629 79.6211 304.738 79.873V79.9316C305.846 80.1016 306.514 80.8926 306.508 81.9707C306.514 83.3652 305.248 84.3965 303.555 84.3965Z" fill="white" fill-opacity="0.78"/>
<rect x="483" width="235.5" height="102.558" rx="10.2558" fill="#7689A5"/>
<path d="M503.845 20.6435C503.749 20.1507 503.34 19.8322 502.691 19.8382C502.036 19.8322 501.555 20.1627 501.561 20.6074C501.555 20.9439 501.826 21.1963 502.487 21.3526L503.593 21.5809C504.824 21.8513 505.425 22.4222 505.431 23.3596C505.425 24.5855 504.35 25.4388 502.643 25.4388C500.985 25.4388 500.005 24.6937 499.843 23.4438H501.405C501.495 24.0026 501.928 24.2791 502.643 24.2731C503.382 24.2791 503.863 23.9786 503.869 23.4919C503.863 23.1133 503.569 22.8729 502.92 22.7347L501.874 22.5063C500.66 22.26 500.029 21.623 500.035 20.6915C500.029 19.4837 501.075 18.6965 502.667 18.6965C504.224 18.6965 505.185 19.4596 505.299 20.6435H503.845ZM509.494 25.4388C507.529 25.4388 506.321 24.1288 506.321 22.0857C506.321 20.0666 507.547 18.6965 509.41 18.6965C511.008 18.6965 512.39 19.7 512.39 21.9895V22.4703H507.835C507.859 23.582 508.514 24.243 509.506 24.237C510.179 24.243 510.629 23.9546 510.828 23.564H512.33C512.054 24.6937 511.008 25.4388 509.494 25.4388ZM507.841 21.4247H510.924C510.918 20.5353 510.317 19.8863 509.434 19.8863C508.514 19.8863 507.895 20.5954 507.841 21.4247ZM516.428 25.4388C514.481 25.4388 513.304 24.0447 513.304 22.0737C513.304 20.0726 514.517 18.6965 516.428 18.6965C518.009 18.6965 519.12 19.6219 519.229 21.0281H517.762C517.642 20.4031 517.185 19.9284 516.44 19.9224C515.491 19.9284 514.854 20.7216 514.854 22.0376C514.854 23.3837 515.479 24.1829 516.44 24.1889C517.119 24.1829 517.624 23.7863 517.762 23.0832H519.229C519.114 24.4593 518.069 25.4388 516.428 25.4388ZM523.231 25.4388C521.326 25.4388 520.106 24.0868 520.106 22.0737C520.106 20.0425 521.326 18.6965 523.231 18.6965C525.142 18.6965 526.362 20.0425 526.356 22.0737C526.362 24.0868 525.142 25.4388 523.231 25.4388ZM521.656 22.0617C521.656 23.2575 522.179 24.213 523.243 24.213C524.288 24.213 524.811 23.2575 524.805 22.0617C524.811 20.8658 524.288 19.9043 523.243 19.9103C522.179 19.9043 521.656 20.8658 521.656 22.0617ZM529.084 21.4848V25.3066H527.545V18.7806H529.012V19.8863H529.096C529.39 19.1592 530.057 18.6965 531.031 18.6965C532.383 18.6965 533.272 19.5858 533.266 21.1482V25.3066H531.74V21.3886C531.74 20.5113 531.265 19.9885 530.466 19.9945C529.655 19.9885 529.084 20.5353 529.084 21.4848ZM537.16 25.4268C535.628 25.4208 534.468 24.1949 534.468 22.0496C534.468 19.8743 535.658 18.6965 537.172 18.6965C538.32 18.6965 538.801 19.3875 539.035 19.8503H539.095V16.6053H540.622V25.3066H539.119V24.2731H539.035C538.789 24.7538 538.29 25.4208 537.16 25.4268ZM536.03 22.0376C536.03 23.2695 536.571 24.1649 537.581 24.1649C538.572 24.1649 539.131 23.3116 539.131 22.0376C539.131 20.7697 538.578 19.9524 537.581 19.9464C536.559 19.9524 536.03 20.8237 536.03 22.0376ZM541.871 23.4678C541.871 22.0016 543.091 21.5749 544.299 21.4968C544.756 21.4607 545.687 21.4187 545.976 21.4066L545.97 20.8838C545.97 20.2348 545.555 19.8623 544.792 19.8623C544.107 19.8623 543.686 20.1747 543.566 20.6435H542.088C542.196 19.5318 543.193 18.6965 544.828 18.6965C546.066 18.6965 547.496 19.2073 547.496 20.9439V25.3066H546.03V24.4053H545.982C545.693 24.9581 545.086 25.4388 544.059 25.4388C542.815 25.4388 541.871 24.7598 541.871 23.4678ZM543.35 23.4558C543.35 24.0207 543.812 24.3091 544.455 24.3091C545.387 24.3091 545.982 23.6962 545.982 22.963L545.976 22.4282C545.699 22.4402 544.846 22.4943 544.54 22.5184C543.812 22.5784 543.35 22.8849 543.35 23.4558ZM548.938 25.3066V18.7806H550.429V19.8623H550.501C550.735 19.1111 551.36 18.6845 552.111 18.6845C552.279 18.6845 552.52 18.7025 552.664 18.7205V20.1387C552.526 20.0906 552.207 20.0486 551.955 20.0425C551.102 20.0486 550.477 20.6375 550.477 21.4607V25.3066H548.938ZM554.707 27.7584C554.401 27.7524 554.112 27.7464 553.914 27.7224V26.4965C554.1 26.5145 554.359 26.5145 554.563 26.5205C554.936 26.5145 555.248 26.4905 555.512 25.7874L555.645 25.4388L553.265 18.7806H554.887L556.402 23.7082H556.474L557.988 18.7806H559.611L556.991 26.0999C556.618 27.1395 555.933 27.7524 554.707 27.7584Z" fill="white" fill-opacity="0.6"/>
<path d="M500.204 65.1992V55.7727H503.954C506.031 55.7727 507.085 56.7753 507.079 58.1944C507.085 59.3011 506.356 59.9977 505.386 60.2126V60.3037C506.447 60.3558 507.45 61.2021 507.457 62.5952C507.45 64.0925 506.33 65.1992 504.202 65.1992H500.204ZM502.157 63.5847H503.811C504.944 63.5912 505.432 63.1225 505.425 62.4129C505.432 61.6187 504.826 61.0589 503.863 61.0589H502.157V63.5847ZM502.157 59.7178H503.668C504.488 59.7243 505.106 59.2621 505.1 58.5069C505.106 57.8234 504.599 57.3612 503.707 57.3612H502.157V59.7178ZM510.581 55.7727V65.1992H508.654V55.7727H510.581ZM516.61 62.1916V58.1293H518.537V65.1992H516.688V63.9233H516.61C516.291 64.7435 515.529 65.2904 514.461 65.2904C513.049 65.2904 512.079 64.2878 512.079 62.6343V58.1293H514.006V62.2958C514.006 63.1355 514.487 63.6563 515.242 63.6629C515.946 63.6563 516.61 63.1551 516.61 62.1916ZM523.237 65.3424C521.069 65.3359 519.741 63.9363 519.747 61.6968C519.741 59.516 521.088 58.0382 523.159 58.0382C525.014 58.0382 526.479 59.21 526.479 61.6187V62.1656H521.648C521.648 63.2332 522.28 63.8907 523.276 63.8972C523.933 63.8907 524.402 63.6043 524.591 63.1811H526.427C526.153 64.4896 524.981 65.3359 523.237 65.3424ZM521.648 60.9547H524.656C524.649 60.0954 524.057 59.4769 523.198 59.4834C522.312 59.4769 521.687 60.1409 521.648 60.9547Z" fill="white"/>
<path d="M503.472 85.25L503.869 82.8463H501.682L501.285 85.25H500.408L500.804 82.8463H499.518L499.663 81.981H500.943L501.303 79.8176H500.035L500.167 78.9523H501.441L501.838 76.5486H502.715L502.319 78.9523H504.506L504.903 76.5486H505.78L505.383 78.9523H506.681L506.537 79.8176H505.245L504.885 81.981H506.165L506.02 82.8463H504.746L504.35 85.25H503.472ZM501.82 81.981H504.007L504.368 79.8176H502.18L501.82 81.981ZM507.883 85.25L511.873 77.5702V77.5101H507.27V76.5486H512.991V77.5582L509.013 85.25H507.883ZM517.234 85.3702C515.725 85.3522 514.061 84.4568 514.061 81.2358C514.061 78.1531 515.323 76.4284 517.366 76.4284C518.898 76.4284 519.968 77.3719 520.19 78.736H519.12C518.922 77.9668 518.333 77.3899 517.366 77.3899C515.936 77.3899 515.076 78.6098 515.082 80.707H515.19C515.689 79.9799 516.488 79.5532 517.426 79.5532C518.97 79.5532 520.262 80.7551 520.262 82.4377C520.262 84.0782 519.066 85.3882 517.234 85.3702ZM515.226 82.4617C515.232 83.4833 516.068 84.4147 517.234 84.4207C518.357 84.4147 519.211 83.5314 519.217 82.4497C519.211 81.38 518.393 80.5087 517.258 80.5027C516.116 80.5087 515.238 81.4341 515.226 82.4617ZM524.661 85.3702C522.828 85.3702 521.566 84.3546 521.572 82.9425C521.566 81.8187 522.347 80.8873 523.339 80.7311V80.683C522.474 80.4847 521.903 79.6854 521.909 78.736C521.903 77.4079 523.069 76.4284 524.661 76.4284C526.247 76.4284 527.413 77.4079 527.425 78.736C527.413 79.6854 526.836 80.4847 525.983 80.683V80.7311C526.969 80.8873 527.75 81.8187 527.762 82.9425C527.75 84.3546 526.476 85.3702 524.661 85.3702ZM522.654 82.8824C522.636 83.7958 523.411 84.4147 524.661 84.4207C525.905 84.4147 526.68 83.7958 526.68 82.8824C526.68 81.9209 525.833 81.2118 524.661 81.2118C523.495 81.2118 522.636 81.9209 522.654 82.8824ZM522.954 78.8201C522.96 79.6975 523.663 80.2924 524.661 80.2984C525.653 80.2924 526.368 79.6975 526.368 78.8201C526.368 77.9488 525.677 77.3599 524.661 77.3659C523.627 77.3599 522.96 77.9488 522.954 78.8201ZM532.112 76.4284C533.609 76.4465 535.273 77.3478 535.273 80.5508C535.273 83.6455 534.005 85.3702 531.968 85.3702C530.436 85.3702 529.36 84.4327 529.144 83.0506H530.214C530.406 83.8318 531.001 84.4087 531.968 84.4087C533.386 84.4087 534.252 83.1828 534.264 81.0676H534.144C533.645 81.7887 532.846 82.2213 531.92 82.2213C530.364 82.2213 529.072 81.0255 529.072 79.3489C529.072 77.7264 530.262 76.4104 532.112 76.4284ZM530.129 79.3369C530.123 80.4126 530.941 81.2719 532.076 81.2719C533.212 81.2719 534.095 80.3344 534.095 79.3129C534.095 78.3153 533.26 77.3779 532.112 77.3779C530.977 77.3779 530.117 78.2613 530.129 79.3369ZM537.292 85.25H536.163L539.348 76.5486H540.489L543.674 85.25H542.532L541.661 82.7982H538.164L537.292 85.25ZM538.494 81.8488H541.331L539.948 77.9548H539.876L538.494 81.8488ZM547.544 85.3702C545.976 85.3702 544.786 84.4027 544.72 83.0626H545.765C545.844 83.8378 546.601 84.4147 547.544 84.4207C548.674 84.4147 549.491 83.5914 549.491 82.4978C549.491 81.368 548.644 80.5327 547.472 80.5267C546.739 80.5147 546.168 80.7431 545.85 81.3079H544.804L545.417 76.5486H550.128V77.5101H546.318L545.994 80.058H546.078C546.469 79.7576 547.051 79.5532 547.664 79.5532C549.323 79.5532 550.543 80.7791 550.549 82.4737C550.543 84.1563 549.281 85.3702 547.544 85.3702Z" fill="white" fill-opacity="0.78"/>
<rect x="724.5" width="235.5" height="102.558" rx="10.2558" fill="#3E4B61"/>
<path d="M749.568 55.7727V65.1992H747.876L743.736 59.21H743.657V65.1992H741.704V55.7727H743.423L747.537 61.7619H747.628V55.7727H749.568ZM750.779 63.2202C750.786 61.6448 752.049 61.1305 753.409 61.0458C753.917 61.0133 754.868 60.9677 755.167 60.9547V60.3818C755.161 59.7894 754.757 59.4509 754.034 59.4444C753.377 59.4509 752.967 59.7438 752.863 60.2256H751.027C751.144 59.0017 752.212 58.0382 754.086 58.0382C755.629 58.0382 757.088 58.7283 757.081 60.4339V65.1992H755.258V64.2227H755.206C754.861 64.8737 754.184 65.3359 753.136 65.3294C751.782 65.3359 750.786 64.6198 750.779 63.2202ZM752.628 63.1681C752.628 63.7084 753.064 63.9949 753.683 64.0014C754.562 63.9949 755.174 63.422 755.167 62.6733V62.159C754.874 62.1721 754.047 62.2176 753.722 62.2437C753.051 62.3023 752.628 62.6213 752.628 63.1681ZM764.854 58.1293L762.367 65.1992H760.206L757.732 58.1293H759.763L761.247 63.2072H761.326L762.81 58.1293H764.854ZM766.924 67.8553C766.547 67.8488 766.195 67.8423 765.948 67.8162V66.3189C766.195 66.3385 766.488 66.345 766.729 66.345C767.113 66.345 767.419 66.3059 767.653 65.694L767.77 65.3945L765.232 58.1293H767.25L768.734 63.3374H768.812L770.309 58.1293H772.354L769.593 65.9804C769.19 67.1197 768.415 67.8488 766.924 67.8553Z" fill="white"/>
<path d="M744.972 85.25L745.369 82.8463H743.182L742.785 85.25H741.908L742.304 82.8463H741.018L741.163 81.981H742.443L742.803 79.8176H741.535L741.667 78.9523H742.941L743.338 76.5486H744.215L743.819 78.9523H746.006L746.403 76.5486H747.28L746.883 78.9523H748.181L748.037 79.8176H746.745L746.385 81.981H747.665L747.52 82.8463H746.246L745.85 85.25H744.972ZM743.32 81.981H745.507L745.868 79.8176H743.68L743.32 81.981ZM752.111 85.3702C750.381 85.3702 749.137 84.4448 749.083 83.0626H750.176C750.236 83.8919 751.06 84.4087 752.099 84.4087C753.247 84.4087 754.076 83.7898 754.082 82.8824C754.076 81.9329 753.319 81.2659 751.967 81.2599H751.258V80.3104H751.967C753.025 80.3104 753.764 79.7155 753.758 78.8201C753.764 77.9488 753.127 77.3719 752.135 77.3659C751.204 77.3719 750.357 77.8827 750.309 78.736H749.263C749.317 77.3539 750.603 76.4284 752.147 76.4284C753.806 76.4284 754.816 77.5161 754.804 78.76C754.816 79.7515 754.239 80.4727 753.325 80.7311V80.7911C754.461 80.9654 755.146 81.7767 755.14 82.8824C755.146 84.3126 753.848 85.3702 752.111 85.3702ZM756.847 85.25V76.5486H762.123V77.5101H757.928V80.4186H761.846V81.368H757.928V84.2885H762.183V85.25H756.847ZM763.469 83.4713V82.5819L767.387 76.5486H768.721V82.5218H769.935V83.4713H768.721V85.25H767.687V83.4713H763.469ZM764.635 82.5218H767.687V77.9187H767.579L764.635 82.4497V82.5218ZM771.509 85.25V76.5486H774.562C776.389 76.5486 777.248 77.5762 777.242 78.8562C777.248 79.9739 776.581 80.4727 775.824 80.683V80.7671C776.635 80.8152 777.585 81.5603 777.591 82.9425C777.585 84.2465 776.725 85.25 774.67 85.25H771.509ZM772.591 84.2885H774.658C776.022 84.2885 776.551 83.6876 776.545 82.9304C776.551 82.0471 775.836 81.2959 774.718 81.2959H772.591V84.2885ZM772.591 80.3585H774.526C775.469 80.3645 776.208 79.7756 776.208 78.8682C776.208 78.111 775.698 77.5101 774.562 77.5101H772.591V80.3585ZM782.013 85.3702C780.505 85.3522 778.84 84.4568 778.84 81.2358C778.84 78.1531 780.102 76.4284 782.146 76.4284C783.678 76.4284 784.748 77.3719 784.97 78.736H783.9C783.702 77.9668 783.113 77.3899 782.146 77.3899C780.715 77.3899 779.856 78.6098 779.862 80.707H779.97C780.469 79.9799 781.268 79.5532 782.206 79.5532C783.75 79.5532 785.042 80.7551 785.042 82.4377C785.042 84.0782 783.846 85.3882 782.013 85.3702ZM780.006 82.4617C780.012 83.4833 780.848 84.4147 782.013 84.4207C783.137 84.4147 783.99 83.5314 783.996 82.4497C783.99 81.38 783.173 80.5087 782.037 80.5027C780.896 80.5087 780.018 81.4341 780.006 82.4617ZM789.609 76.5486V85.25H788.515V77.6784H788.467L786.352 79.0845V77.9908L788.515 76.5486H789.609Z" fill="white" fill-opacity="0.78"/>
<rect y="108.559" width="187.2" height="100" rx="10" fill="#E6E6E6"/>
<path d="M20.6846 144.367V153.559H18.7676V146.183H18.7168L16.6094 147.503V145.814L18.8818 144.367H20.6846ZM26.3848 153.686C24.0806 153.686 22.6904 151.972 22.6904 148.963C22.6904 145.96 24.0933 144.24 26.3848 144.24C28.6763 144.24 30.0791 145.96 30.0791 148.963C30.0791 151.984 28.6826 153.686 26.3848 153.686ZM24.6455 148.963C24.6328 151.083 25.3184 152.111 26.3848 152.111C27.4512 152.111 28.1304 151.083 28.124 148.963C28.1304 146.862 27.4448 145.808 26.3848 145.802C25.3247 145.808 24.6455 146.862 24.6455 148.963Z" fill="black"/>
<path d="M19.9609 173.559L20.3477 171.215H18.2148L17.8281 173.559H16.9727L17.3594 171.215H16.1055L16.2461 170.371H17.4941L17.8457 168.262H16.6094L16.7383 167.418H17.9805L18.3672 165.074H19.2227L18.8359 167.418H20.9688L21.3555 165.074H22.2109L21.8242 167.418H23.0898L22.9492 168.262H21.6895L21.3379 170.371H22.5859L22.4453 171.215H21.2031L20.8164 173.559H19.9609ZM18.3496 170.371H20.4824L20.834 168.262H18.7012L18.3496 170.371ZM24.1328 173.559V165.074H29.2773V166.012H25.1875V168.848H29.0078V169.773H25.1875V172.621H29.3359V173.559H24.1328ZM33.7539 173.676C32.2832 173.658 30.6602 172.785 30.6602 169.645C30.6602 166.639 31.8906 164.957 33.8828 164.957C35.377 164.957 36.4199 165.877 36.6367 167.207H35.5938C35.4004 166.457 34.8262 165.895 33.8828 165.895C32.4883 165.895 31.6504 167.084 31.6562 169.129H31.7617C32.248 168.42 33.0273 168.004 33.9414 168.004C35.4473 168.004 36.707 169.176 36.707 170.816C36.707 172.416 35.541 173.693 33.7539 173.676ZM31.7969 170.84C31.8027 171.836 32.6172 172.744 33.7539 172.75C34.8496 172.744 35.6816 171.883 35.6875 170.828C35.6816 169.785 34.8848 168.936 33.7773 168.93C32.6641 168.936 31.8086 169.838 31.7969 170.84ZM38.3008 173.559V165.074H43.4453V166.012H39.3555V168.848H43.1758V169.773H39.3555V172.621H43.5039V173.559H38.3008ZM47.9219 173.676C46.4512 173.658 44.8281 172.785 44.8281 169.645C44.8281 166.639 46.0586 164.957 48.0508 164.957C49.5449 164.957 50.5879 165.877 50.8047 167.207H49.7617C49.5684 166.457 48.9941 165.895 48.0508 165.895C46.6562 165.895 45.8184 167.084 45.8242 169.129H45.9297C46.416 168.42 47.1953 168.004 48.1094 168.004C49.6152 168.004 50.875 169.176 50.875 170.816C50.875 172.416 49.709 173.693 47.9219 173.676ZM45.9648 170.84C45.9707 171.836 46.7852 172.744 47.9219 172.75C49.0176 172.744 49.8496 171.883 49.8555 170.828C49.8496 169.785 49.0527 168.936 47.9453 168.93C46.832 168.936 45.9766 169.838 45.9648 170.84ZM52.4688 173.559V165.074H57.6133V166.012H53.5234V168.848H57.3438V169.773H53.5234V172.621H57.6719V173.559H52.4688ZM62.0898 173.676C60.6191 173.658 58.9961 172.785 58.9961 169.645C58.9961 166.639 60.2266 164.957 62.2188 164.957C63.7129 164.957 64.7559 165.877 64.9727 167.207H63.9297C63.7363 166.457 63.1621 165.895 62.2188 165.895C60.8242 165.895 59.9863 167.084 59.9922 169.129H60.0977C60.584 168.42 61.3633 168.004 62.2773 168.004C63.7832 168.004 65.043 169.176 65.043 170.816C65.043 172.416 63.877 173.693 62.0898 173.676ZM60.1328 170.84C60.1387 171.836 60.9531 172.744 62.0898 172.75C63.1855 172.744 64.0176 171.883 64.0234 170.828C64.0176 169.785 63.2207 168.936 62.1133 168.93C61 168.936 60.1445 169.838 60.1328 170.84Z" fill="black" fill-opacity="0.56"/>
<rect x="193.199" y="108.559" width="187.2" height="100" rx="10" fill="#DADADA"/>
<path d="M209.923 171.559L209.91 170.175L213.211 167.141C214.068 166.322 214.531 165.814 214.531 165.084C214.531 164.265 213.916 163.757 213.071 163.764C212.208 163.757 211.643 164.303 211.649 165.186H209.834C209.828 163.389 211.161 162.24 213.097 162.24C215.064 162.24 216.372 163.364 216.372 164.957C216.372 166.004 215.864 166.861 213.973 168.575L212.576 169.934V169.984H216.499V171.559H209.923ZM221.425 171.686C219.121 171.686 217.73 169.972 217.73 166.963C217.73 163.96 219.133 162.24 221.425 162.24C223.716 162.24 225.119 163.96 225.119 166.963C225.119 169.984 223.723 171.686 221.425 171.686ZM219.686 166.963C219.673 169.083 220.358 170.111 221.425 170.111C222.491 170.111 223.17 169.083 223.164 166.963C223.17 164.862 222.485 163.808 221.425 163.802C220.365 163.808 219.686 164.862 219.686 166.963Z" fill="black"/>
<path d="M213.16 191.559L213.547 189.215H211.414L211.027 191.559H210.172L210.559 189.215H209.305L209.445 188.371H210.693L211.045 186.262H209.809L209.938 185.418H211.18L211.566 183.074H212.422L212.035 185.418H214.168L214.555 183.074H215.41L215.023 185.418H216.289L216.148 186.262H214.889L214.537 188.371H215.785L215.645 189.215H214.402L214.016 191.559H213.16ZM211.549 188.371H213.682L214.033 186.262H211.9L211.549 188.371ZM219.969 191.559H217.332V183.074H220.074C222.553 183.074 224.012 184.662 224.012 187.305C224.012 189.953 222.553 191.559 219.969 191.559ZM218.387 190.621H219.898C221.979 190.621 222.98 189.361 222.98 187.305C222.98 185.254 221.979 184.012 220.004 184.012H218.387V190.621ZM225.523 191.559H224.422L227.527 183.074H228.641L231.746 191.559H230.633L229.783 189.168H226.373L225.523 191.559ZM226.695 188.242H229.461L228.113 184.445H228.043L226.695 188.242ZM235.531 191.559H232.895V183.074H235.637C238.115 183.074 239.574 184.662 239.574 187.305C239.574 189.953 238.115 191.559 235.531 191.559ZM233.949 190.621H235.461C237.541 190.621 238.543 189.361 238.543 187.305C238.543 185.254 237.541 184.012 235.566 184.012H233.949V190.621ZM241.086 191.559H239.984L243.09 183.074H244.203L247.309 191.559H246.195L245.346 189.168H241.936L241.086 191.559ZM242.258 188.242H245.023L243.676 184.445H243.605L242.258 188.242ZM251.094 191.559H248.457V183.074H251.199C253.678 183.074 255.137 184.662 255.137 187.305C255.137 189.953 253.678 191.559 251.094 191.559ZM249.512 190.621H251.023C253.104 190.621 254.105 189.361 254.105 187.305C254.105 185.254 253.104 184.012 251.129 184.012H249.512V190.621ZM256.648 191.559H255.547L258.652 183.074H259.766L262.871 191.559H261.758L260.908 189.168H257.498L256.648 191.559ZM257.82 188.242H260.586L259.238 184.445H259.168L257.82 188.242Z" fill="black" fill-opacity="0.56"/>
<rect x="386.4" y="108.559" width="187.2" height="100" rx="10" fill="#7F7F7F"/>
<path d="M406.501 171.686C404.584 171.686 403.181 170.556 403.149 168.969H405.003C405.047 169.686 405.701 170.181 406.501 170.175C407.453 170.181 408.132 169.508 408.126 168.55C408.132 167.572 407.44 166.893 406.476 166.887C405.784 166.887 405.301 167.147 405.028 167.661H403.302L403.797 162.367H409.459V163.929H405.371L405.117 166.252H405.193C405.53 165.801 406.228 165.471 407.034 165.478C408.723 165.471 409.979 166.734 409.979 168.499C409.979 170.359 408.57 171.686 406.501 171.686ZM414.842 171.686C412.538 171.686 411.147 169.972 411.147 166.963C411.147 163.96 412.55 162.24 414.842 162.24C417.133 162.24 418.536 163.96 418.536 166.963C418.536 169.984 417.14 171.686 414.842 171.686ZM413.103 166.963C413.09 169.083 413.775 170.111 414.842 170.111C415.908 170.111 416.587 169.083 416.581 166.963C416.587 164.862 415.902 163.808 414.842 163.802C413.782 163.808 413.103 164.862 413.103 166.963Z" fill="white"/>
<path d="M406.361 191.559L406.748 189.215H404.615L404.229 191.559H403.373L403.76 189.215H402.506L402.646 188.371H403.895L404.246 186.262H403.01L403.139 185.418H404.381L404.768 183.074H405.623L405.236 185.418H407.369L407.756 183.074H408.611L408.225 185.418H409.49L409.35 186.262H408.09L407.738 188.371H408.986L408.846 189.215H407.604L407.217 191.559H406.361ZM404.75 188.371H406.883L407.234 186.262H405.102L404.75 188.371ZM410.662 191.559L414.553 184.07V184.012H410.064V183.074H415.643V184.059L411.764 191.559H410.662ZM417.154 191.559V183.074H422.264V184.012H418.209V186.848H421.877V187.773H418.209V191.559H417.154ZM423.963 191.559L427.854 184.07V184.012H423.365V183.074H428.943V184.059L425.064 191.559H423.963ZM430.455 191.559V183.074H435.564V184.012H431.51V186.848H435.178V187.773H431.51V191.559H430.455ZM437.264 191.559L441.154 184.07V184.012H436.666V183.074H442.244V184.059L438.365 191.559H437.264ZM443.756 191.559V183.074H448.865V184.012H444.811V186.848H448.479V187.773H444.811V191.559H443.756Z" fill="white" fill-opacity="0.78"/>
<rect x="579.6" y="108.559" width="187.2" height="100" rx="10" fill="#666666"/>
<path d="M599.878 171.686C597.98 171.679 596.165 170.543 596.171 167.179C596.177 164.075 597.656 162.24 599.954 162.24C601.801 162.24 603.071 163.408 603.255 164.919H601.376C601.224 164.278 600.697 163.878 599.954 163.878C598.704 163.878 598.05 165.001 598.037 166.811H598.126C598.551 165.992 599.459 165.516 600.475 165.516C602.131 165.516 603.363 166.753 603.356 168.486C603.363 170.353 601.954 171.692 599.878 171.686ZM598.228 168.537C598.24 169.438 598.926 170.181 599.865 170.175C600.811 170.181 601.503 169.464 601.503 168.537C601.503 167.617 600.824 166.906 599.891 166.899C598.951 166.906 598.24 167.642 598.228 168.537ZM608.244 171.686C605.94 171.686 604.55 169.972 604.55 166.963C604.55 163.96 605.953 162.24 608.244 162.24C610.536 162.24 611.938 163.96 611.938 166.963C611.938 169.984 610.542 171.686 608.244 171.686ZM606.505 166.963C606.492 169.083 607.178 170.111 608.244 170.111C609.311 170.111 609.99 169.083 609.983 166.963C609.99 164.862 609.304 163.808 608.244 163.802C607.184 163.808 606.505 164.862 606.505 166.963Z" fill="white"/>
<path d="M599.561 191.559L599.947 189.215H597.814L597.428 191.559H596.572L596.959 189.215H595.705L595.846 188.371H597.094L597.445 186.262H596.209L596.338 185.418H597.58L597.967 183.074H598.822L598.436 185.418H600.568L600.955 183.074H601.811L601.424 185.418H602.689L602.549 186.262H601.289L600.938 188.371H602.186L602.045 189.215H600.803L600.416 191.559H599.561ZM597.949 188.371H600.082L600.434 186.262H598.301L597.949 188.371ZM606.545 191.676C605.074 191.658 603.451 190.785 603.451 187.645C603.451 184.639 604.682 182.957 606.674 182.957C608.168 182.957 609.211 183.877 609.428 185.207H608.385C608.191 184.457 607.617 183.895 606.674 183.895C605.279 183.895 604.441 185.084 604.447 187.129H604.553C605.039 186.42 605.818 186.004 606.732 186.004C608.238 186.004 609.498 187.176 609.498 188.816C609.498 190.416 608.332 191.693 606.545 191.676ZM604.588 188.84C604.594 189.836 605.408 190.744 606.545 190.75C607.641 190.744 608.473 189.883 608.479 188.828C608.473 187.785 607.676 186.936 606.568 186.93C605.455 186.936 604.6 187.838 604.588 188.84ZM613.904 191.676C612.434 191.658 610.811 190.785 610.811 187.645C610.811 184.639 612.041 182.957 614.033 182.957C615.527 182.957 616.57 183.877 616.787 185.207H615.744C615.551 184.457 614.977 183.895 614.033 183.895C612.639 183.895 611.801 185.084 611.807 187.129H611.912C612.398 186.42 613.178 186.004 614.092 186.004C615.598 186.004 616.857 187.176 616.857 188.816C616.857 190.416 615.691 191.693 613.904 191.676ZM611.947 188.84C611.953 189.836 612.768 190.744 613.904 190.75C615 190.744 615.832 189.883 615.838 188.828C615.832 187.785 615.035 186.936 613.928 186.93C612.814 186.936 611.959 187.838 611.947 188.84ZM621.264 191.676C619.793 191.658 618.17 190.785 618.17 187.645C618.17 184.639 619.4 182.957 621.393 182.957C622.887 182.957 623.93 183.877 624.146 185.207H623.104C622.91 184.457 622.336 183.895 621.393 183.895C619.998 183.895 619.16 185.084 619.166 187.129H619.271C619.758 186.42 620.537 186.004 621.451 186.004C622.957 186.004 624.217 187.176 624.217 188.816C624.217 190.416 623.051 191.693 621.264 191.676ZM619.307 188.84C619.312 189.836 620.127 190.744 621.264 190.75C622.359 190.744 623.191 189.883 623.197 188.828C623.191 187.785 622.395 186.936 621.287 186.93C620.174 186.936 619.318 187.838 619.307 188.84ZM628.623 191.676C627.152 191.658 625.529 190.785 625.529 187.645C625.529 184.639 626.76 182.957 628.752 182.957C630.246 182.957 631.289 183.877 631.506 185.207H630.463C630.27 184.457 629.695 183.895 628.752 183.895C627.357 183.895 626.52 185.084 626.525 187.129H626.631C627.117 186.42 627.896 186.004 628.811 186.004C630.316 186.004 631.576 187.176 631.576 188.816C631.576 190.416 630.41 191.693 628.623 191.676ZM626.666 188.84C626.672 189.836 627.486 190.744 628.623 190.75C629.719 190.744 630.551 189.883 630.557 188.828C630.551 187.785 629.754 186.936 628.646 186.93C627.533 186.936 626.678 187.838 626.666 188.84ZM635.982 191.676C634.512 191.658 632.889 190.785 632.889 187.645C632.889 184.639 634.119 182.957 636.111 182.957C637.605 182.957 638.648 183.877 638.865 185.207H637.822C637.629 184.457 637.055 183.895 636.111 183.895C634.717 183.895 633.879 185.084 633.885 187.129H633.99C634.477 186.42 635.256 186.004 636.17 186.004C637.676 186.004 638.936 187.176 638.936 188.816C638.936 190.416 637.77 191.693 635.982 191.676ZM634.025 188.84C634.031 189.836 634.846 190.744 635.982 190.75C637.078 190.744 637.91 189.883 637.916 188.828C637.91 187.785 637.113 186.936 636.006 186.93C634.893 186.936 634.037 187.838 634.025 188.84ZM643.342 191.676C641.871 191.658 640.248 190.785 640.248 187.645C640.248 184.639 641.479 182.957 643.471 182.957C644.965 182.957 646.008 183.877 646.225 185.207H645.182C644.988 184.457 644.414 183.895 643.471 183.895C642.076 183.895 641.238 185.084 641.244 187.129H641.35C641.836 186.42 642.615 186.004 643.529 186.004C645.035 186.004 646.295 187.176 646.295 188.816C646.295 190.416 645.129 191.693 643.342 191.676ZM641.385 188.84C641.391 189.836 642.205 190.744 643.342 190.75C644.438 190.744 645.27 189.883 645.275 188.828C645.27 187.785 644.473 186.936 643.365 186.93C642.252 186.936 641.396 187.838 641.385 188.84Z" fill="white" fill-opacity="0.78"/>
<rect x="772.801" y="108.559" width="187.2" height="100" rx="10" fill="#333333"/>
<path d="M789.88 171.559L793.752 163.992V163.929H789.245V162.367H795.732V163.954L791.86 171.559H789.88ZM800.366 171.686C798.062 171.686 796.672 169.972 796.672 166.963C796.672 163.96 798.075 162.24 800.366 162.24C802.658 162.24 804.061 163.96 804.061 166.963C804.061 169.984 802.664 171.686 800.366 171.686ZM798.627 166.963C798.614 169.083 799.3 170.111 800.366 170.111C801.433 170.111 802.112 169.083 802.105 166.963C802.112 164.862 801.426 163.808 800.366 163.802C799.306 163.808 798.627 164.862 798.627 166.963Z" fill="white"/>
<path d="M792.762 191.559L793.148 189.215H791.016L790.629 191.559H789.773L790.16 189.215H788.906L789.047 188.371H790.295L790.646 186.262H789.41L789.539 185.418H790.781L791.168 183.074H792.023L791.637 185.418H793.77L794.156 183.074H795.012L794.625 185.418H795.891L795.75 186.262H794.49L794.139 188.371H795.387L795.246 189.215H794.004L793.617 191.559H792.762ZM791.15 188.371H793.283L793.635 186.262H791.502L791.15 188.371ZM799.723 191.676C798.035 191.676 796.822 190.773 796.77 189.426H797.836C797.895 190.234 798.697 190.738 799.711 190.738C800.83 190.738 801.639 190.135 801.645 189.25C801.639 188.324 800.9 187.674 799.582 187.668H798.891V186.742H799.582C800.613 186.742 801.334 186.162 801.328 185.289C801.334 184.439 800.713 183.877 799.746 183.871C798.838 183.877 798.012 184.375 797.965 185.207H796.945C796.998 183.859 798.252 182.957 799.758 182.957C801.375 182.957 802.359 184.018 802.348 185.23C802.359 186.197 801.797 186.9 800.906 187.152V187.211C802.014 187.381 802.682 188.172 802.676 189.25C802.682 190.645 801.416 191.676 799.723 191.676ZM807.129 191.676C805.441 191.676 804.229 190.773 804.176 189.426H805.242C805.301 190.234 806.104 190.738 807.117 190.738C808.236 190.738 809.045 190.135 809.051 189.25C809.045 188.324 808.307 187.674 806.988 187.668H806.297V186.742H806.988C808.02 186.742 808.74 186.162 808.734 185.289C808.74 184.439 808.119 183.877 807.152 183.871C806.244 183.877 805.418 184.375 805.371 185.207H804.352C804.404 183.859 805.658 182.957 807.164 182.957C808.781 182.957 809.766 184.018 809.754 185.23C809.766 186.197 809.203 186.9 808.312 187.152V187.211C809.42 187.381 810.088 188.172 810.082 189.25C810.088 190.645 808.822 191.676 807.129 191.676ZM814.535 191.676C812.848 191.676 811.635 190.773 811.582 189.426H812.648C812.707 190.234 813.51 190.738 814.523 190.738C815.643 190.738 816.451 190.135 816.457 189.25C816.451 188.324 815.713 187.674 814.395 187.668H813.703V186.742H814.395C815.426 186.742 816.146 186.162 816.141 185.289C816.146 184.439 815.525 183.877 814.559 183.871C813.65 183.877 812.824 184.375 812.777 185.207H811.758C811.811 183.859 813.064 182.957 814.57 182.957C816.188 182.957 817.172 184.018 817.16 185.23C817.172 186.197 816.609 186.9 815.719 187.152V187.211C816.826 187.381 817.494 188.172 817.488 189.25C817.494 190.645 816.229 191.676 814.535 191.676ZM821.941 191.676C820.254 191.676 819.041 190.773 818.988 189.426H820.055C820.113 190.234 820.916 190.738 821.93 190.738C823.049 190.738 823.857 190.135 823.863 189.25C823.857 188.324 823.119 187.674 821.801 187.668H821.109V186.742H821.801C822.832 186.742 823.553 186.162 823.547 185.289C823.553 184.439 822.932 183.877 821.965 183.871C821.057 183.877 820.23 184.375 820.184 185.207H819.164C819.217 183.859 820.471 182.957 821.977 182.957C823.594 182.957 824.578 184.018 824.566 185.23C824.578 186.197 824.016 186.9 823.125 187.152V187.211C824.232 187.381 824.9 188.172 824.895 189.25C824.9 190.645 823.635 191.676 821.941 191.676ZM829.348 191.676C827.66 191.676 826.447 190.773 826.395 189.426H827.461C827.52 190.234 828.322 190.738 829.336 190.738C830.455 190.738 831.264 190.135 831.27 189.25C831.264 188.324 830.525 187.674 829.207 187.668H828.516V186.742H829.207C830.238 186.742 830.959 186.162 830.953 185.289C830.959 184.439 830.338 183.877 829.371 183.871C828.463 183.877 827.637 184.375 827.59 185.207H826.57C826.623 183.859 827.877 182.957 829.383 182.957C831 182.957 831.984 184.018 831.973 185.23C831.984 186.197 831.422 186.9 830.531 187.152V187.211C831.639 187.381 832.307 188.172 832.301 189.25C832.307 190.645 831.041 191.676 829.348 191.676ZM836.754 191.676C835.066 191.676 833.854 190.773 833.801 189.426H834.867C834.926 190.234 835.729 190.738 836.742 190.738C837.861 190.738 838.67 190.135 838.676 189.25C838.67 188.324 837.932 187.674 836.613 187.668H835.922V186.742H836.613C837.645 186.742 838.365 186.162 838.359 185.289C838.365 184.439 837.744 183.877 836.777 183.871C835.869 183.877 835.043 184.375 834.996 185.207H833.977C834.029 183.859 835.283 182.957 836.789 182.957C838.406 182.957 839.391 184.018 839.379 185.23C839.391 186.197 838.828 186.9 837.938 187.152V187.211C839.045 187.381 839.713 188.172 839.707 189.25C839.713 190.645 838.447 191.676 836.754 191.676Z" fill="white" fill-opacity="0.78"/>
</svg>
