<svg width="960" height="206" viewBox="0 0 960 206" fill="none" xmlns="http://www.w3.org/2000/svg">
<rect width="400" height="100" rx="10" fill="#4667FA"/>
<path d="M16.7744 63V53.8086H20.3799C22.4683 53.8086 23.668 55.0972 23.668 56.9062C23.668 58.7407 22.4492 60.0039 20.3291 60.0039H18.6787V63H16.7744ZM18.6787 58.4678H20.0244C21.1543 58.4678 21.7065 57.833 21.7002 56.9062C21.7065 55.9922 21.1543 55.3765 20.0244 55.3701H18.6787V58.4678ZM24.8359 63V56.1064H26.6514V57.2998H26.7275C26.9751 56.4556 27.6162 56.0049 28.3906 56.0049C28.5811 56.0049 28.8223 56.0303 28.9873 56.0684V57.7441C28.8096 57.687 28.4478 57.6426 28.1875 57.6426C27.3369 57.6426 26.7085 58.2329 26.7148 59.0771V63H24.8359ZM29.9014 63V56.1064H31.7803V63H29.9014ZM29.8125 54.2529C29.8125 53.7197 30.2759 53.2944 30.8408 53.2881C31.3994 53.2944 31.8628 53.7197 31.8564 54.2529C31.8628 54.7734 31.3994 55.2051 30.8408 55.2051C30.2759 55.2051 29.8125 54.7734 29.8125 54.2529ZM33.2402 63V56.1064H35.0303V57.3125H35.1064C35.3984 56.5063 36.0967 56.0176 37.0234 56.0176C37.9692 56.0176 38.6738 56.519 38.9023 57.3125H38.9658C39.2515 56.5317 40.0386 56.0176 41.0479 56.0176C42.3237 56.0176 43.2188 56.8618 43.2188 58.3662V63H41.3398V58.7344C41.3462 57.9473 40.8765 57.5664 40.2607 57.5664C39.5562 57.5664 39.1372 58.0552 39.1436 58.7852V63H37.3154V58.6836C37.3218 58.0044 36.8901 57.5664 36.249 57.5664C35.6079 57.5664 35.1128 58.0806 35.1191 58.8613V63H33.2402ZM44.3359 61.0703C44.3423 59.5342 45.5737 59.0327 46.9004 58.9502C47.3955 58.9185 48.3223 58.874 48.6143 58.8613V58.3027C48.6079 57.7251 48.2144 57.395 47.5098 57.3887C46.8687 57.395 46.4688 57.6807 46.3672 58.1504H44.5771C44.6914 56.957 45.7324 56.0176 47.5605 56.0176C49.0649 56.0176 50.4868 56.6904 50.4805 58.3535V63H48.7031V62.0479H48.6523C48.3159 62.6826 47.6558 63.1333 46.6338 63.127C45.3135 63.1333 44.3423 62.4351 44.3359 61.0703ZM46.1387 61.0195C46.1387 61.5464 46.564 61.8257 47.167 61.832C48.0239 61.8257 48.6206 61.2671 48.6143 60.5371V60.0356C48.3286 60.0483 47.5225 60.0928 47.2051 60.1182C46.5513 60.1753 46.1387 60.4863 46.1387 61.0195ZM51.915 63V56.1064H53.7305V57.2998H53.8066C54.0542 56.4556 54.6953 56.0049 55.4697 56.0049C55.6602 56.0049 55.9014 56.0303 56.0664 56.0684V57.7441C55.8887 57.687 55.5269 57.6426 55.2666 57.6426C54.416 57.6426 53.7876 58.2329 53.7939 59.0771V63H51.915ZM58.3008 65.5898C57.9326 65.5835 57.5898 65.5771 57.3486 65.5518V64.0918C57.5898 64.1108 57.8755 64.1172 58.1104 64.1172C58.4849 64.1172 58.7832 64.0791 59.0117 63.4824L59.126 63.1904L56.6504 56.1064H58.6182L60.0654 61.1846H60.1416L61.6016 56.1064H63.5947L60.9033 63.7617C60.5098 64.8726 59.7544 65.5835 58.3008 65.5898Z" fill="white"/>
<path d="M19.9609 83L20.3477 80.6562H18.2148L17.8281 83H16.9727L17.3594 80.6562H16.1055L16.2461 79.8125H17.4941L17.8457 77.7031H16.6094L16.7383 76.8594H17.9805L18.3672 74.5156H19.2227L18.8359 76.8594H20.9688L21.3555 74.5156H22.2109L21.8242 76.8594H23.0898L22.9492 77.7031H21.6895L21.3379 79.8125H22.5859L22.4453 80.6562H21.2031L20.8164 83H19.9609ZM18.3496 79.8125H20.4824L20.834 77.7031H18.7012L18.3496 79.8125ZM26.7695 83.1172C24.8887 83.1172 23.7988 81.5352 23.8047 78.7578C23.7988 76.0039 24.9004 74.3984 26.7695 74.3984C28.6328 74.3984 29.7344 76.0039 29.7344 78.7578C29.7344 81.5352 28.6504 83.1172 26.7695 83.1172ZM24.8242 78.7578C24.8301 80.9551 25.5391 82.1797 26.7695 82.1797C27.9941 82.1797 28.709 80.9551 28.7031 78.7578C28.709 76.5605 27.9883 75.3184 26.7695 75.3125C25.5508 75.3184 24.8301 76.5605 24.8242 78.7578ZM33.918 83.1172C32.0371 83.1172 30.9473 81.5352 30.9531 78.7578C30.9473 76.0039 32.0488 74.3984 33.918 74.3984C35.7812 74.3984 36.8828 76.0039 36.8828 78.7578C36.8828 81.5352 35.7988 83.1172 33.918 83.1172ZM31.9727 78.7578C31.9785 80.9551 32.6875 82.1797 33.918 82.1797C35.1426 82.1797 35.8574 80.9551 35.8516 78.7578C35.8574 76.5605 35.1367 75.3184 33.918 75.3125C32.6992 75.3184 31.9785 76.5605 31.9727 78.7578ZM41.0664 83.1172C39.1855 83.1172 38.0957 81.5352 38.1016 78.7578C38.0957 76.0039 39.1973 74.3984 41.0664 74.3984C42.9297 74.3984 44.0312 76.0039 44.0312 78.7578C44.0312 81.5352 42.9473 83.1172 41.0664 83.1172ZM39.1211 78.7578C39.127 80.9551 39.8359 82.1797 41.0664 82.1797C42.291 82.1797 43.0059 80.9551 43 78.7578C43.0059 76.5605 42.2852 75.3184 41.0664 75.3125C39.8477 75.3184 39.127 76.5605 39.1211 78.7578ZM48.2148 83.1172C46.334 83.1172 45.2441 81.5352 45.25 78.7578C45.2441 76.0039 46.3457 74.3984 48.2148 74.3984C50.0781 74.3984 51.1797 76.0039 51.1797 78.7578C51.1797 81.5352 50.0957 83.1172 48.2148 83.1172ZM46.2695 78.7578C46.2754 80.9551 46.9844 82.1797 48.2148 82.1797C49.4395 82.1797 50.1543 80.9551 50.1484 78.7578C50.1543 76.5605 49.4336 75.3184 48.2148 75.3125C46.9961 75.3184 46.2754 76.5605 46.2695 78.7578ZM55.3633 83.1172C53.4824 83.1172 52.3926 81.5352 52.3984 78.7578C52.3926 76.0039 53.4941 74.3984 55.3633 74.3984C57.2266 74.3984 58.3281 76.0039 58.3281 78.7578C58.3281 81.5352 57.2441 83.1172 55.3633 83.1172ZM53.418 78.7578C53.4238 80.9551 54.1328 82.1797 55.3633 82.1797C56.5879 82.1797 57.3027 80.9551 57.2969 78.7578C57.3027 76.5605 56.582 75.3184 55.3633 75.3125C54.1445 75.3184 53.4238 76.5605 53.418 78.7578ZM62.5117 83.1172C60.6309 83.1172 59.541 81.5352 59.5469 78.7578C59.541 76.0039 60.6426 74.3984 62.5117 74.3984C64.375 74.3984 65.4766 76.0039 65.4766 78.7578C65.4766 81.5352 64.3926 83.1172 62.5117 83.1172ZM60.5664 78.7578C60.5723 80.9551 61.2812 82.1797 62.5117 82.1797C63.7363 82.1797 64.4512 80.9551 64.4453 78.7578C64.4512 76.5605 63.7305 75.3184 62.5117 75.3125C61.293 75.3184 60.5723 76.5605 60.5664 78.7578Z" fill="white" fill-opacity="0.78"/>
<rect x="406" width="134" height="100" rx="10" fill="#26BF9B"/>
<path d="M426.324 20.4531C426.23 19.9727 425.832 19.6621 425.199 19.668C424.561 19.6621 424.092 19.9844 424.098 20.418C424.092 20.7461 424.355 20.9922 425 21.1445L426.078 21.3672C427.279 21.6309 427.865 22.1875 427.871 23.1016C427.865 24.2969 426.816 25.1289 425.152 25.1289C423.535 25.1289 422.58 24.4023 422.422 23.1836H423.945C424.033 23.7285 424.455 23.998 425.152 23.9922C425.873 23.998 426.342 23.7051 426.348 23.2305C426.342 22.8613 426.055 22.627 425.422 22.4922L424.402 22.2695C423.219 22.0293 422.604 21.4082 422.609 20.5C422.604 19.3223 423.623 18.5547 425.176 18.5547C426.693 18.5547 427.631 19.2988 427.742 20.4531H426.324ZM431.832 25.1289C429.916 25.1289 428.738 23.8516 428.738 21.8594C428.738 19.8906 429.934 18.5547 431.75 18.5547C433.309 18.5547 434.656 19.5332 434.656 21.7656V22.2344H430.215C430.238 23.3184 430.877 23.9629 431.844 23.957C432.5 23.9629 432.939 23.6816 433.133 23.3008H434.598C434.328 24.4023 433.309 25.1289 431.832 25.1289ZM430.221 21.2148H433.227C433.221 20.3477 432.635 19.7148 431.773 19.7148C430.877 19.7148 430.273 20.4062 430.221 21.2148ZM438.594 25.1289C436.695 25.1289 435.547 23.7695 435.547 21.8477C435.547 19.8965 436.73 18.5547 438.594 18.5547C440.135 18.5547 441.219 19.457 441.324 20.8281H439.895C439.777 20.2188 439.332 19.7559 438.605 19.75C437.68 19.7559 437.059 20.5293 437.059 21.8125C437.059 23.125 437.668 23.9043 438.605 23.9102C439.268 23.9043 439.76 23.5176 439.895 22.832H441.324C441.213 24.1738 440.193 25.1289 438.594 25.1289ZM445.227 25.1289C443.369 25.1289 442.18 23.8105 442.18 21.8477C442.18 19.8672 443.369 18.5547 445.227 18.5547C447.09 18.5547 448.279 19.8672 448.273 21.8477C448.279 23.8105 447.09 25.1289 445.227 25.1289ZM443.691 21.8359C443.691 23.002 444.201 23.9336 445.238 23.9336C446.258 23.9336 446.768 23.002 446.762 21.8359C446.768 20.6699 446.258 19.7324 445.238 19.7383C444.201 19.7324 443.691 20.6699 443.691 21.8359ZM450.934 21.2734V25H449.434V18.6367H450.863V19.7148H450.945C451.232 19.0059 451.883 18.5547 452.832 18.5547C454.15 18.5547 455.018 19.4219 455.012 20.9453V25H453.523V21.1797C453.523 20.3242 453.061 19.8145 452.281 19.8203C451.49 19.8145 450.934 20.3477 450.934 21.2734ZM458.809 25.1172C457.314 25.1113 456.184 23.916 456.184 21.8242C456.184 19.7031 457.344 18.5547 458.82 18.5547C459.939 18.5547 460.408 19.2285 460.637 19.6797H460.695V16.5156H462.184V25H460.719V23.9922H460.637C460.396 24.4609 459.91 25.1113 458.809 25.1172ZM457.707 21.8125C457.707 23.0137 458.234 23.8867 459.219 23.8867C460.186 23.8867 460.73 23.0547 460.73 21.8125C460.73 20.5762 460.191 19.7793 459.219 19.7734C458.223 19.7793 457.707 20.6289 457.707 21.8125ZM463.402 23.207C463.402 21.7773 464.592 21.3613 465.77 21.2852C466.215 21.25 467.123 21.209 467.404 21.1973L467.398 20.6875C467.398 20.0547 466.994 19.6914 466.25 19.6914C465.582 19.6914 465.172 19.9961 465.055 20.4531H463.613C463.719 19.3691 464.691 18.5547 466.285 18.5547C467.492 18.5547 468.887 19.0527 468.887 20.7461V25H467.457V24.1211H467.41C467.129 24.6602 466.537 25.1289 465.535 25.1289C464.322 25.1289 463.402 24.4668 463.402 23.207ZM464.844 23.1953C464.844 23.7461 465.295 24.0273 465.922 24.0273C466.83 24.0273 467.41 23.4297 467.41 22.7148L467.404 22.1934C467.135 22.2051 466.303 22.2578 466.004 22.2812C465.295 22.3398 464.844 22.6387 464.844 23.1953ZM470.293 25V18.6367H471.746V19.6914H471.816C472.045 18.959 472.654 18.543 473.387 18.543C473.551 18.543 473.785 18.5605 473.926 18.5781V19.9609C473.791 19.9141 473.48 19.873 473.234 19.8672C472.402 19.873 471.793 20.4473 471.793 21.25V25H470.293ZM475.918 27.3906C475.619 27.3848 475.338 27.3789 475.145 27.3555V26.1602C475.326 26.1777 475.578 26.1777 475.777 26.1836C476.141 26.1777 476.445 26.1543 476.703 25.4688L476.832 25.1289L474.512 18.6367H476.094L477.57 23.4414H477.641L479.117 18.6367H480.699L478.145 25.7734C477.781 26.7871 477.113 27.3848 475.918 27.3906Z" fill="white" fill-opacity="0.6"/>
<path d="M428.881 56.7666C428.621 55.9033 427.929 55.3765 426.926 55.3701C425.504 55.3765 424.539 56.4619 424.539 58.3916C424.539 60.334 425.472 61.4321 426.938 61.4385C428.252 61.4321 429.033 60.6895 429.059 59.5342H427.065V58.0996H430.899V59.2422C430.899 61.6543 429.243 63.127 426.926 63.127C424.349 63.127 422.597 61.3242 422.597 58.417C422.597 55.4336 424.463 53.6816 426.888 53.6816C428.963 53.6816 430.557 54.9575 430.811 56.7666H428.881ZM432.258 63V56.1064H434.073V57.2998H434.149C434.397 56.4556 435.038 56.0049 435.812 56.0049C436.003 56.0049 436.244 56.0303 436.409 56.0684V57.7441C436.231 57.687 435.87 57.6426 435.609 57.6426C434.759 57.6426 434.13 58.2329 434.137 59.0771V63H432.258ZM440.23 63.1396C438.117 63.1333 436.822 61.7686 436.828 59.585C436.822 57.4585 438.136 56.0176 440.154 56.0176C441.963 56.0176 443.392 57.1602 443.392 59.5088V60.042H438.682C438.682 61.083 439.297 61.7241 440.269 61.7305C440.91 61.7241 441.367 61.4448 441.551 61.0322H443.341C443.074 62.3081 441.932 63.1333 440.23 63.1396ZM438.682 58.8613H441.614C441.608 58.0234 441.03 57.4204 440.192 57.4268C439.329 57.4204 438.72 58.0679 438.682 58.8613ZM447.695 63.1396C445.582 63.1333 444.287 61.7686 444.293 59.585C444.287 57.4585 445.601 56.0176 447.619 56.0176C449.428 56.0176 450.856 57.1602 450.856 59.5088V60.042H446.146C446.146 61.083 446.762 61.7241 447.733 61.7305C448.375 61.7241 448.832 61.4448 449.016 61.0322H450.806C450.539 62.3081 449.396 63.1333 447.695 63.1396ZM446.146 58.8613H449.079C449.073 58.0234 448.495 57.4204 447.657 57.4268C446.794 57.4204 446.185 58.0679 446.146 58.8613ZM453.916 59.0137V63H452.037V56.1064H453.827V57.3125H453.903C454.214 56.519 454.951 56.0176 455.973 56.0176C457.414 56.0176 458.353 57.0015 458.347 58.6074V63H456.48V58.9375C456.474 58.0869 456.017 57.5791 455.236 57.5791C454.456 57.5791 453.916 58.106 453.916 59.0137Z" fill="white"/>
<path d="M425.961 83L426.348 80.6562H424.215L423.828 83H422.973L423.359 80.6562H422.105L422.246 79.8125H423.494L423.846 77.7031H422.609L422.738 76.8594H423.98L424.367 74.5156H425.223L424.836 76.8594H426.969L427.355 74.5156H428.211L427.824 76.8594H429.09L428.949 77.7031H427.689L427.338 79.8125H428.586L428.445 80.6562H427.203L426.816 83H425.961ZM424.35 79.8125H426.482L426.834 77.7031H424.701L424.35 79.8125ZM429.992 83L429.98 82.2266L432.875 79.1797C433.877 78.1133 434.357 77.5391 434.363 76.7539C434.357 75.8809 433.631 75.3184 432.676 75.3125C431.662 75.3184 431.029 75.957 431.023 76.9062H430.027C430.016 75.4062 431.176 74.3984 432.711 74.3984C434.252 74.3984 435.342 75.4355 435.348 76.7539C435.342 77.7031 434.902 78.4414 433.402 79.9883L431.457 81.9922V82.0625H435.5V83H429.992ZM439.988 83.1172C438.518 83.0996 436.895 82.2266 436.895 79.0859C436.895 76.0801 438.125 74.3984 440.117 74.3984C441.611 74.3984 442.654 75.3184 442.871 76.6484H441.828C441.635 75.8984 441.061 75.3359 440.117 75.3359C438.723 75.3359 437.885 76.5254 437.891 78.5703H437.996C438.482 77.8613 439.262 77.4453 440.176 77.4453C441.682 77.4453 442.941 78.6172 442.941 80.2578C442.941 81.8574 441.775 83.1348 439.988 83.1172ZM438.031 80.2812C438.037 81.2773 438.852 82.1855 439.988 82.1914C441.084 82.1855 441.916 81.3242 441.922 80.2695C441.916 79.2266 441.119 78.377 440.012 78.3711C438.898 78.377 438.043 79.2793 438.031 80.2812ZM444.535 83V74.5156H447.512C449.293 74.5156 450.131 75.5176 450.125 76.7656C450.131 77.8555 449.48 78.3418 448.742 78.5469V78.6289C449.533 78.6758 450.459 79.4023 450.465 80.75C450.459 82.0215 449.621 83 447.617 83H444.535ZM445.59 82.0625H447.605C448.936 82.0625 449.451 81.4766 449.445 80.7383C449.451 79.877 448.754 79.1445 447.664 79.1445H445.59V82.0625ZM445.59 78.2305H447.477C448.396 78.2363 449.117 77.6621 449.117 76.7773C449.117 76.0391 448.619 75.4531 447.512 75.4531H445.59V78.2305ZM451.965 83V74.5156H457.074V75.4531H453.02V78.2891H456.688V79.2148H453.02V83H451.965ZM461.328 74.3984C462.787 74.416 464.41 75.2949 464.41 78.418C464.41 81.4355 463.174 83.1172 461.188 83.1172C459.693 83.1172 458.645 82.2031 458.434 80.8555H459.477C459.664 81.6172 460.244 82.1797 461.188 82.1797C462.57 82.1797 463.414 80.9844 463.426 78.9219H463.309C462.822 79.625 462.043 80.0469 461.141 80.0469C459.623 80.0469 458.363 78.8809 458.363 77.2461C458.363 75.6641 459.523 74.3809 461.328 74.3984ZM459.395 77.2344C459.389 78.2832 460.186 79.1211 461.293 79.1211C462.4 79.1211 463.262 78.207 463.262 77.2109C463.262 76.2383 462.447 75.3242 461.328 75.3242C460.221 75.3242 459.383 76.1855 459.395 77.2344ZM466.004 83V74.5156H468.98C470.762 74.5156 471.6 75.5176 471.594 76.7656C471.6 77.8555 470.949 78.3418 470.211 78.5469V78.6289C471.002 78.6758 471.928 79.4023 471.934 80.75C471.928 82.0215 471.09 83 469.086 83H466.004ZM467.059 82.0625H469.074C470.404 82.0625 470.92 81.4766 470.914 80.7383C470.92 79.877 470.223 79.1445 469.133 79.1445H467.059V82.0625ZM467.059 78.2305H468.945C469.865 78.2363 470.586 77.6621 470.586 76.7773C470.586 76.0391 470.088 75.4531 468.98 75.4531H467.059V78.2305Z" fill="white" fill-opacity="0.78"/>
<rect x="546" width="134" height="100" rx="10" fill="#00A0FF"/>
<path d="M567.764 56.4365C567.688 55.7065 567.11 55.2812 566.177 55.2812C565.212 55.2812 564.672 55.7256 564.666 56.335C564.66 57.0015 565.345 57.2998 566.139 57.4775L566.964 57.6807C568.538 58.0425 569.712 58.8423 569.719 60.3721C569.712 62.0542 568.405 63.1333 566.164 63.127C563.942 63.1333 562.527 62.105 562.47 60.1309H564.323C564.387 61.0576 565.123 61.5273 566.139 61.5273C567.142 61.5273 567.789 61.0576 567.789 60.3721C567.789 59.7437 567.218 59.4517 566.215 59.2041L565.212 58.9629C563.663 58.582 562.711 57.8076 562.711 56.4619C562.705 54.7925 564.177 53.6816 566.189 53.6816C568.227 53.6816 569.566 54.8115 569.592 56.4365H567.764ZM570.925 63V53.8086H572.804V58.7471H572.905L575.14 56.1064H577.298L574.727 59.0898L577.438 63H575.229L573.331 60.1943L572.804 60.791V63H570.925ZM579.38 65.5898C579.012 65.5835 578.669 65.5771 578.428 65.5518V64.0918C578.669 64.1108 578.955 64.1172 579.189 64.1172C579.564 64.1172 579.862 64.0791 580.091 63.4824L580.205 63.1904L577.729 56.1064H579.697L581.145 61.1846H581.221L582.681 56.1064H584.674L581.982 63.7617C581.589 64.8726 580.833 65.5835 579.38 65.5898Z" fill="white"/>
<path d="M565.961 83L566.348 80.6562H564.215L563.828 83H562.973L563.359 80.6562H562.105L562.246 79.8125H563.494L563.846 77.7031H562.609L562.738 76.8594H563.98L564.367 74.5156H565.223L564.836 76.8594H566.969L567.355 74.5156H568.211L567.824 76.8594H569.09L568.949 77.7031H567.689L567.338 79.8125H568.586L568.445 80.6562H567.203L566.816 83H565.961ZM564.35 79.8125H566.482L566.834 77.7031H564.701L564.35 79.8125ZM572.77 83.1172C570.889 83.1172 569.799 81.5352 569.805 78.7578C569.799 76.0039 570.9 74.3984 572.77 74.3984C574.633 74.3984 575.734 76.0039 575.734 78.7578C575.734 81.5352 574.65 83.1172 572.77 83.1172ZM570.824 78.7578C570.83 80.9551 571.539 82.1797 572.77 82.1797C573.994 82.1797 574.709 80.9551 574.703 78.7578C574.709 76.5605 573.988 75.3184 572.77 75.3125C571.551 75.3184 570.83 76.5605 570.824 78.7578ZM579.918 83.1172C578.037 83.1172 576.947 81.5352 576.953 78.7578C576.947 76.0039 578.049 74.3984 579.918 74.3984C581.781 74.3984 582.883 76.0039 582.883 78.7578C582.883 81.5352 581.799 83.1172 579.918 83.1172ZM577.973 78.7578C577.979 80.9551 578.688 82.1797 579.918 82.1797C581.143 82.1797 581.857 80.9551 581.852 78.7578C581.857 76.5605 581.137 75.3184 579.918 75.3125C578.699 75.3184 577.979 76.5605 577.973 78.7578ZM584.805 83H583.703L586.809 74.5156H587.922L591.027 83H589.914L589.064 80.6094H585.654L584.805 83ZM585.977 79.6836H588.742L587.395 75.8867H587.324L585.977 79.6836ZM594.812 83.1172C592.932 83.1172 591.842 81.5352 591.848 78.7578C591.842 76.0039 592.943 74.3984 594.812 74.3984C596.676 74.3984 597.777 76.0039 597.777 78.7578C597.777 81.5352 596.693 83.1172 594.812 83.1172ZM592.867 78.7578C592.873 80.9551 593.582 82.1797 594.812 82.1797C596.037 82.1797 596.752 80.9551 596.746 78.7578C596.752 76.5605 596.031 75.3184 594.812 75.3125C593.594 75.3184 592.873 76.5605 592.867 78.7578ZM599.324 83V74.5156H604.434V75.4531H600.379V78.2891H604.047V79.2148H600.379V83H599.324ZM606.004 83V74.5156H611.113V75.4531H607.059V78.2891H610.727V79.2148H607.059V83H606.004Z" fill="white" fill-opacity="0.78"/>
<rect x="686" width="134" height="100" rx="10" fill="#832EE5"/>
<path d="M704.387 53.8086L706.621 60.8164H706.71L708.957 53.8086H711.064L707.891 63H705.44L702.254 53.8086H704.387ZM712.067 63V56.1064H713.946V63H712.067ZM711.979 54.2529C711.979 53.7197 712.442 53.2944 713.007 53.2881C713.565 53.2944 714.029 53.7197 714.022 54.2529C714.029 54.7734 713.565 55.2051 713.007 55.2051C712.442 55.2051 711.979 54.7734 711.979 54.2529ZM718.504 63.1396C716.422 63.1333 715.121 61.7051 715.127 59.5723C715.121 57.4458 716.422 56.0176 718.504 56.0176C720.592 56.0176 721.887 57.4458 721.894 59.5723C721.887 61.7051 720.592 63.1333 718.504 63.1396ZM717.031 59.5723C717.031 60.7783 717.533 61.6733 718.517 61.6797C719.475 61.6733 719.983 60.7783 719.977 59.5723C719.983 58.3599 719.475 57.4521 718.517 57.4521C717.533 57.4521 717.031 58.3599 717.031 59.5723ZM724.953 53.8086V63H723.074V53.8086H724.953ZM729.536 63.1396C727.422 63.1333 726.127 61.7686 726.134 59.585C726.127 57.4585 727.441 56.0176 729.46 56.0176C731.269 56.0176 732.697 57.1602 732.697 59.5088V60.042H727.987C727.987 61.083 728.603 61.7241 729.574 61.7305C730.215 61.7241 730.672 61.4448 730.856 61.0322H732.646C732.38 62.3081 731.237 63.1333 729.536 63.1396ZM727.987 58.8613H730.92C730.914 58.0234 730.336 57.4204 729.498 57.4268C728.635 57.4204 728.025 58.0679 727.987 58.8613ZM737.509 56.1064V57.5156H736.214V60.8799C736.208 61.4321 736.48 61.5654 736.861 61.5781C737.052 61.5781 737.382 61.5591 737.61 61.54V63.0254C737.407 63.0571 737.071 63.0952 736.607 63.0889C735.249 63.0952 734.322 62.4858 734.335 61.1465V57.5156H733.383V56.1064H734.335V54.4561H736.214V56.1064H737.509Z" fill="white"/>
<path d="M705.961 83L706.348 80.6562H704.215L703.828 83H702.973L703.359 80.6562H702.105L702.246 79.8125H703.494L703.846 77.7031H702.609L702.738 76.8594H703.98L704.367 74.5156H705.223L704.836 76.8594H706.969L707.355 74.5156H708.211L707.824 76.8594H709.09L708.949 77.7031H707.689L707.338 79.8125H708.586L708.445 80.6562H707.203L706.816 83H705.961ZM704.35 79.8125H706.482L706.834 77.7031H704.701L704.35 79.8125ZM712.828 83.1172C711.041 83.1172 709.811 82.127 709.816 80.75C709.811 79.6543 710.572 78.7461 711.539 78.5938V78.5469C710.695 78.3535 710.139 77.5742 710.145 76.6484C710.139 75.3535 711.275 74.3984 712.828 74.3984C714.375 74.3984 715.512 75.3535 715.523 76.6484C715.512 77.5742 714.949 78.3535 714.117 78.5469V78.5938C715.078 78.7461 715.84 79.6543 715.852 80.75C715.84 82.127 714.598 83.1172 712.828 83.1172ZM710.871 80.6914C710.854 81.582 711.609 82.1855 712.828 82.1914C714.041 82.1855 714.797 81.582 714.797 80.6914C714.797 79.7539 713.971 79.0625 712.828 79.0625C711.691 79.0625 710.854 79.7539 710.871 80.6914ZM711.164 76.7305C711.17 77.5859 711.855 78.166 712.828 78.1719C713.795 78.166 714.492 77.5859 714.492 76.7305C714.492 75.8809 713.818 75.3066 712.828 75.3125C711.82 75.3066 711.17 75.8809 711.164 76.7305ZM720.199 83.1172C718.512 83.1172 717.299 82.2148 717.246 80.8672H718.312C718.371 81.6758 719.174 82.1797 720.188 82.1797C721.307 82.1797 722.115 81.5762 722.121 80.6914C722.115 79.7656 721.377 79.1152 720.059 79.1094H719.367V78.1836H720.059C721.09 78.1836 721.811 77.6035 721.805 76.7305C721.811 75.8809 721.189 75.3184 720.223 75.3125C719.314 75.3184 718.488 75.8164 718.441 76.6484H717.422C717.475 75.3008 718.729 74.3984 720.234 74.3984C721.852 74.3984 722.836 75.459 722.824 76.6719C722.836 77.6387 722.273 78.3418 721.383 78.5938V78.6523C722.49 78.8223 723.158 79.6133 723.152 80.6914C723.158 82.0859 721.893 83.1172 720.199 83.1172ZM724.676 83L724.664 82.2266L727.559 79.1797C728.561 78.1133 729.041 77.5391 729.047 76.7539C729.041 75.8809 728.314 75.3184 727.359 75.3125C726.346 75.3184 725.713 75.957 725.707 76.9062H724.711C724.699 75.4062 725.859 74.3984 727.395 74.3984C728.936 74.3984 730.025 75.4355 730.031 76.7539C730.025 77.7031 729.586 78.4414 728.086 79.9883L726.141 81.9922V82.0625H730.184V83H724.676ZM731.859 83V74.5156H737.004V75.4531H732.914V78.2891H736.734V79.2148H732.914V82.0625H737.062V83H731.859ZM738.668 83V74.5156H743.812V75.4531H739.723V78.2891H743.543V79.2148H739.723V82.0625H743.871V83H738.668ZM748.102 83.1172C746.572 83.1172 745.412 82.1738 745.348 80.8672H746.367C746.443 81.623 747.182 82.1855 748.102 82.1914C749.203 82.1855 750 81.3828 750 80.3164C750 79.2148 749.174 78.4004 748.031 78.3945C747.316 78.3828 746.76 78.6055 746.449 79.1562H745.43L746.027 74.5156H750.621V75.4531H746.906L746.59 77.9375H746.672C747.053 77.6445 747.621 77.4453 748.219 77.4453C749.836 77.4453 751.025 78.6406 751.031 80.293C751.025 81.9336 749.795 83.1172 748.102 83.1172Z" fill="white" fill-opacity="0.78"/>
<rect x="826" width="134" height="100" rx="10" fill="#FFCB02"/>
<path d="M842.216 53.8086H844.361L846.481 57.7695H846.57L848.678 53.8086H850.823L847.472 59.7246V63H845.567V59.7246L842.216 53.8086ZM853.477 63.1396C851.363 63.1333 850.068 61.7686 850.074 59.585C850.068 57.4585 851.382 56.0176 853.4 56.0176C855.209 56.0176 856.638 57.1602 856.638 59.5088V60.042H851.928C851.928 61.083 852.543 61.7241 853.515 61.7305C854.156 61.7241 854.613 61.4448 854.797 61.0322H856.587C856.32 62.3081 855.178 63.1333 853.477 63.1396ZM851.928 58.8613H854.86C854.854 58.0234 854.276 57.4204 853.438 57.4268C852.575 57.4204 851.966 58.0679 851.928 58.8613ZM859.697 53.8086V63H857.818V53.8086H859.697ZM863.036 53.8086V63H861.157V53.8086H863.036ZM867.594 63.1396C865.512 63.1333 864.21 61.7051 864.217 59.5723C864.21 57.4458 865.512 56.0176 867.594 56.0176C869.682 56.0176 870.977 57.4458 870.983 59.5723C870.977 61.7051 869.682 63.1333 867.594 63.1396ZM866.121 59.5723C866.121 60.7783 866.623 61.6733 867.606 61.6797C868.565 61.6733 869.073 60.7783 869.066 59.5723C869.073 58.3599 868.565 57.4521 867.606 57.4521C866.623 57.4521 866.121 58.3599 866.121 59.5723ZM873.345 63L871.466 56.1064H873.37L874.449 60.7656H874.513L875.643 56.1064H877.509L878.651 60.7402H878.715L879.781 56.1064H881.686L879.794 63H877.813L876.62 58.6201H876.531L875.338 63H873.345Z" fill="black"/>
<path d="M845.961 83L846.348 80.6562H844.215L843.828 83H842.973L843.359 80.6562H842.105L842.246 79.8125H843.494L843.846 77.7031H842.609L842.738 76.8594H843.98L844.367 74.5156H845.223L844.836 76.8594H846.969L847.355 74.5156H848.211L847.824 76.8594H849.09L848.949 77.7031H847.689L847.338 79.8125H848.586L848.445 80.6562H847.203L846.816 83H845.961ZM844.35 79.8125H846.482L846.834 77.7031H844.701L844.35 79.8125ZM850.133 83V74.5156H855.242V75.4531H851.188V78.2891H854.855V79.2148H851.188V83H850.133ZM856.812 83V74.5156H861.922V75.4531H857.867V78.2891H861.535V79.2148H857.867V83H856.812ZM869.281 77.1875C869.035 76.0156 868.033 75.3828 866.914 75.3828C865.379 75.3828 864.189 76.5664 864.184 78.7578C864.189 80.9434 865.379 82.127 866.914 82.1328C868.033 82.127 869.029 81.5 869.281 80.3398H870.336C870.031 82.0742 868.637 83.1172 866.914 83.1172C864.734 83.1172 863.158 81.4414 863.164 78.7578C863.158 76.0742 864.734 74.3984 866.914 74.3984C868.631 74.3984 870.02 75.4238 870.336 77.1875H869.281ZM871.812 83V74.5156H874.789C876.57 74.5156 877.408 75.5176 877.402 76.7656C877.408 77.8555 876.758 78.3418 876.02 78.5469V78.6289C876.811 78.6758 877.736 79.4023 877.742 80.75C877.736 82.0215 876.898 83 874.895 83H871.812ZM872.867 82.0625H874.883C876.213 82.0625 876.729 81.4766 876.723 80.7383C876.729 79.877 876.031 79.1445 874.941 79.1445H872.867V82.0625ZM872.867 78.2305H874.754C875.674 78.2363 876.395 77.6621 876.395 76.7773C876.395 76.0391 875.896 75.4531 874.789 75.4531H872.867V78.2305ZM881.879 83.1172C879.998 83.1172 878.908 81.5352 878.914 78.7578C878.908 76.0039 880.01 74.3984 881.879 74.3984C883.742 74.3984 884.844 76.0039 884.844 78.7578C884.844 81.5352 883.76 83.1172 881.879 83.1172ZM879.934 78.7578C879.939 80.9551 880.648 82.1797 881.879 82.1797C883.104 82.1797 883.818 80.9551 883.812 78.7578C883.818 76.5605 883.098 75.3184 881.879 75.3125C880.66 75.3184 879.939 76.5605 879.934 78.7578ZM886.25 83L886.238 82.2266L889.133 79.1797C890.135 78.1133 890.615 77.5391 890.621 76.7539C890.615 75.8809 889.889 75.3184 888.934 75.3125C887.92 75.3184 887.287 75.957 887.281 76.9062H886.285C886.273 75.4062 887.434 74.3984 888.969 74.3984C890.51 74.3984 891.6 75.4355 891.605 76.7539C891.6 77.7031 891.16 78.4414 889.66 79.9883L887.715 81.9922V82.0625H891.758V83H886.25Z" fill="black" fill-opacity="0.56"/>
<rect y="106" width="99.5556" height="100" rx="10" fill="#F8F9FA"/>
<path d="M16.7852 131V122.516H20.0312C21.8711 122.516 22.7793 123.453 22.7852 124.719C22.7793 125.75 22.1289 126.324 21.2969 126.523V126.605C22.1992 126.652 23.1133 127.402 23.1133 128.691C23.1133 130.01 22.1582 131 20.2188 131H16.7852ZM18.3086 129.723H19.9844C21.0977 129.723 21.5605 129.248 21.5664 128.574C21.5605 127.812 20.9688 127.232 20.0195 127.227H18.3086V129.723ZM18.3086 126.125H19.8438C20.6465 126.125 21.2559 125.662 21.2617 124.906C21.2559 124.256 20.7871 123.781 19.8789 123.781H18.3086V126.125ZM27.0625 133.52C25.375 133.52 24.3027 132.77 24.2031 131.574H25.6914C25.7969 132.131 26.3184 132.389 27.0859 132.395C27.9824 132.389 28.5625 132.002 28.5625 131.07V129.852H28.4922C28.2578 130.32 27.748 130.906 26.6523 130.906C25.1816 130.906 24.0273 129.84 24.0273 127.766C24.0273 125.674 25.1875 124.555 26.6641 124.555C27.7832 124.555 28.2578 125.229 28.4922 125.68H28.5625V124.637H30.0391V131.105C30.0391 132.734 28.7793 133.52 27.0625 133.52ZM25.5508 127.789C25.5508 128.961 26.0781 129.734 27.0625 129.734C28.0293 129.734 28.5742 129.008 28.5742 127.789C28.5742 126.576 28.0352 125.779 27.0625 125.773C26.0664 125.779 25.5508 126.629 25.5508 127.789Z" fill="black" fill-opacity="0.32"/>
<path d="M20.6846 159.809V169H18.7676V161.624H18.7168L16.6094 162.944V161.256L18.8818 159.809H20.6846ZM26.3848 169.127C24.0806 169.127 22.6904 167.413 22.6904 164.404C22.6904 161.402 24.0933 159.682 26.3848 159.682C28.6763 159.682 30.0791 161.402 30.0791 164.404C30.0791 167.426 28.6826 169.127 26.3848 169.127ZM24.6455 164.404C24.6328 166.524 25.3184 167.553 26.3848 167.553C27.4512 167.553 28.1304 166.524 28.124 164.404C28.1304 162.303 27.4448 161.25 26.3848 161.243C25.3247 161.25 24.6455 162.303 24.6455 164.404Z" fill="black"/>
<path d="M19.9609 189L20.3477 186.656H18.2148L17.8281 189H16.9727L17.3594 186.656H16.1055L16.2461 185.812H17.4941L17.8457 183.703H16.6094L16.7383 182.859H17.9805L18.3672 180.516H19.2227L18.8359 182.859H20.9688L21.3555 180.516H22.2109L21.8242 182.859H23.0898L22.9492 183.703H21.6895L21.3379 185.812H22.5859L22.4453 186.656H21.2031L20.8164 189H19.9609ZM18.3496 185.812H20.4824L20.834 183.703H18.7012L18.3496 185.812ZM24.1328 189V180.516H29.2422V181.453H25.1875V184.289H28.8555V185.215H25.1875V189H24.1328ZM33.5078 189.117C31.7207 189.117 30.4902 188.127 30.4961 186.75C30.4902 185.654 31.252 184.746 32.2188 184.594V184.547C31.375 184.354 30.8184 183.574 30.8242 182.648C30.8184 181.354 31.9551 180.398 33.5078 180.398C35.0547 180.398 36.1914 181.354 36.2031 182.648C36.1914 183.574 35.6289 184.354 34.7969 184.547V184.594C35.7578 184.746 36.5195 185.654 36.5312 186.75C36.5195 188.127 35.2773 189.117 33.5078 189.117ZM31.5508 186.691C31.5332 187.582 32.2891 188.186 33.5078 188.191C34.7207 188.186 35.4766 187.582 35.4766 186.691C35.4766 185.754 34.6504 185.062 33.5078 185.062C32.3711 185.062 31.5332 185.754 31.5508 186.691ZM31.8438 182.73C31.8496 183.586 32.5352 184.166 33.5078 184.172C34.4746 184.166 35.1719 183.586 35.1719 182.73C35.1719 181.881 34.498 181.307 33.5078 181.312C32.5 181.307 31.8496 181.881 31.8438 182.73ZM38.0898 189V180.516H43.1992V181.453H39.1445V184.289H42.8125V185.215H39.1445V189H38.0898ZM47.4531 180.398C48.9121 180.416 50.5352 181.295 50.5352 184.418C50.5352 187.436 49.2988 189.117 47.3125 189.117C45.8184 189.117 44.7695 188.203 44.5586 186.855H45.6016C45.7891 187.617 46.3691 188.18 47.3125 188.18C48.6953 188.18 49.5391 186.984 49.5508 184.922H49.4336C48.9473 185.625 48.168 186.047 47.2656 186.047C45.748 186.047 44.4883 184.881 44.4883 183.246C44.4883 181.664 45.6484 180.381 47.4531 180.398ZM45.5195 183.234C45.5137 184.283 46.3105 185.121 47.418 185.121C48.5254 185.121 49.3867 184.207 49.3867 183.211C49.3867 182.238 48.5723 181.324 47.4531 181.324C46.3457 181.324 45.5078 182.186 45.5195 183.234ZM52.1289 189V180.516H57.2383V181.453H53.1836V184.289H56.8516V185.215H53.1836V189H52.1289ZM58.1172 189H57.0156L60.1211 180.516H61.2344L64.3398 189H63.2266L62.377 186.609H58.9668L58.1172 189ZM59.2891 185.684H62.0547L60.707 181.887H60.6367L59.2891 185.684Z" fill="black" fill-opacity="0.56"/>
<rect x="105.555" y="106" width="99.4306" height="100" rx="10" fill="#F1F3F5"/>
<path d="M122.278 169L122.266 167.616L125.566 164.582C126.423 163.763 126.887 163.255 126.887 162.525C126.887 161.707 126.271 161.199 125.427 161.205C124.563 161.199 123.999 161.745 124.005 162.627H122.189C122.183 160.831 123.516 159.682 125.452 159.682C127.42 159.682 128.728 160.805 128.728 162.398C128.728 163.446 128.22 164.303 126.328 166.017L124.932 167.375V167.426H128.854V169H122.278ZM133.78 169.127C131.476 169.127 130.086 167.413 130.086 164.404C130.086 161.402 131.489 159.682 133.78 159.682C136.072 159.682 137.475 161.402 137.475 164.404C137.475 167.426 136.078 169.127 133.78 169.127ZM132.041 164.404C132.028 166.524 132.714 167.553 133.78 167.553C134.847 167.553 135.526 166.524 135.52 164.404C135.526 162.303 134.84 161.25 133.78 161.243C132.72 161.25 132.041 162.303 132.041 164.404Z" fill="black"/>
<path d="M125.516 189L125.902 186.656H123.77L123.383 189H122.527L122.914 186.656H121.66L121.801 185.812H123.049L123.4 183.703H122.164L122.293 182.859H123.535L123.922 180.516H124.777L124.391 182.859H126.523L126.91 180.516H127.766L127.379 182.859H128.645L128.504 183.703H127.244L126.893 185.812H128.141L128 186.656H126.758L126.371 189H125.516ZM123.904 185.812H126.037L126.389 183.703H124.256L123.904 185.812ZM129.688 189V180.516H134.797V181.453H130.742V184.289H134.41V185.215H130.742V189H129.688ZM139.227 180.516V189H138.16V181.617H138.113L136.051 182.988V181.922L138.16 180.516H139.227ZM141.629 189V180.516H146.738V181.453H142.684V184.289H146.352V185.215H142.684V189H141.629ZM151.098 189.117C149.41 189.117 148.197 188.215 148.145 186.867H149.211C149.27 187.676 150.072 188.18 151.086 188.18C152.205 188.18 153.014 187.576 153.02 186.691C153.014 185.766 152.275 185.115 150.957 185.109H150.266V184.184H150.957C151.988 184.184 152.709 183.604 152.703 182.73C152.709 181.881 152.088 181.318 151.121 181.312C150.213 181.318 149.387 181.816 149.34 182.648H148.32C148.373 181.301 149.627 180.398 151.133 180.398C152.75 180.398 153.734 181.459 153.723 182.672C153.734 183.639 153.172 184.342 152.281 184.594V184.652C153.389 184.822 154.057 185.613 154.051 186.691C154.057 188.086 152.791 189.117 151.098 189.117ZM155.715 189V180.516H160.824V181.453H156.77V184.289H160.438V185.215H156.77V189H155.715ZM165.02 189.117C163.49 189.117 162.33 188.174 162.266 186.867H163.285C163.361 187.623 164.1 188.186 165.02 188.191C166.121 188.186 166.918 187.383 166.918 186.316C166.918 185.215 166.092 184.4 164.949 184.395C164.234 184.383 163.678 184.605 163.367 185.156H162.348L162.945 180.516H167.539V181.453H163.824L163.508 183.938H163.59C163.971 183.645 164.539 183.445 165.137 183.445C166.754 183.445 167.943 184.641 167.949 186.293C167.943 187.934 166.713 189.117 165.02 189.117Z" fill="black" fill-opacity="0.56"/>
<rect x="210.986" y="106" width="101.859" height="100" rx="10" fill="#E9ECEF"/>
<path d="M233.455 125.223C233.18 124.32 232.482 123.77 231.451 123.77C230.086 123.77 229.09 124.836 229.096 126.746C229.09 128.674 230.068 129.746 231.486 129.746C232.77 129.746 233.584 128.973 233.607 127.766H231.639V126.559H235.084V127.578C235.084 129.764 233.584 131.117 231.486 131.117C229.143 131.117 227.555 129.447 227.561 126.758C227.555 124.033 229.219 122.398 231.439 122.398C233.309 122.398 234.756 123.559 235.014 125.223H233.455ZM236.396 131V124.637H237.85V125.691H237.92C238.148 124.959 238.758 124.543 239.49 124.543C239.654 124.543 239.889 124.561 240.029 124.578V125.961C239.895 125.914 239.584 125.873 239.338 125.867C238.506 125.873 237.896 126.447 237.896 127.25V131H236.396ZM240.51 129.207C240.51 127.777 241.699 127.361 242.877 127.285C243.322 127.25 244.23 127.209 244.512 127.197L244.506 126.688C244.506 126.055 244.102 125.691 243.357 125.691C242.689 125.691 242.279 125.996 242.162 126.453H240.721C240.826 125.369 241.799 124.555 243.393 124.555C244.6 124.555 245.994 125.053 245.994 126.746V131H244.564V130.121H244.518C244.236 130.66 243.645 131.129 242.643 131.129C241.43 131.129 240.51 130.467 240.51 129.207ZM241.951 129.195C241.951 129.746 242.402 130.027 243.029 130.027C243.938 130.027 244.518 129.43 244.518 128.715L244.512 128.193C244.242 128.205 243.41 128.258 243.111 128.281C242.402 128.34 241.951 128.639 241.951 129.195ZM248.068 133.391C247.77 133.385 247.488 133.379 247.295 133.355V132.16C247.477 132.178 247.729 132.178 247.928 132.184C248.291 132.178 248.596 132.154 248.854 131.469L248.982 131.129L246.662 124.637H248.244L249.721 129.441H249.791L251.268 124.637H252.85L250.295 131.773C249.932 132.787 249.264 133.385 248.068 133.391Z" fill="black" fill-opacity="0.32"/>
<path d="M231.671 159.809V169H229.754V161.624H229.703L227.596 162.944V161.256L229.868 159.809H231.671ZM237.371 169.127C235.067 169.127 233.677 167.413 233.677 164.404C233.677 161.402 235.08 159.682 237.371 159.682C239.663 159.682 241.065 161.402 241.065 164.404C241.065 167.426 239.669 169.127 237.371 169.127ZM235.632 164.404C235.619 166.524 236.305 167.553 237.371 167.553C238.438 167.553 239.117 166.524 239.11 164.404C239.117 162.303 238.431 161.25 237.371 161.243C236.311 161.25 235.632 162.303 235.632 164.404Z" fill="black"/>
<path d="M230.947 189L231.334 186.656H229.201L228.814 189H227.959L228.346 186.656H227.092L227.232 185.812H228.48L228.832 183.703H227.596L227.725 182.859H228.967L229.354 180.516H230.209L229.822 182.859H231.955L232.342 180.516H233.197L232.811 182.859H234.076L233.936 183.703H232.676L232.324 185.812H233.572L233.432 186.656H232.189L231.803 189H230.947ZM229.336 185.812H231.469L231.82 183.703H229.688L229.336 185.812ZM235.119 189V180.516H240.264V181.453H236.174V184.289H239.994V185.215H236.174V188.062H240.322V189H235.119ZM244.611 180.398C246.07 180.416 247.693 181.295 247.693 184.418C247.693 187.436 246.457 189.117 244.471 189.117C242.977 189.117 241.928 188.203 241.717 186.855H242.76C242.947 187.617 243.527 188.18 244.471 188.18C245.854 188.18 246.697 186.984 246.709 184.922H246.592C246.105 185.625 245.326 186.047 244.424 186.047C242.906 186.047 241.646 184.881 241.646 183.246C241.646 181.664 242.807 180.381 244.611 180.398ZM242.678 183.234C242.672 184.283 243.469 185.121 244.576 185.121C245.684 185.121 246.545 184.207 246.545 183.211C246.545 182.238 245.73 181.324 244.611 181.324C243.504 181.324 242.666 182.186 242.678 183.234ZM249.287 189V180.516H254.432V181.453H250.342V184.289H254.162V185.215H250.342V188.062H254.49V189H249.287ZM261.885 183.188C261.639 182.016 260.637 181.383 259.518 181.383C257.982 181.383 256.793 182.566 256.787 184.758C256.793 186.943 257.982 188.127 259.518 188.133C260.637 188.127 261.633 187.5 261.885 186.34H262.939C262.635 188.074 261.24 189.117 259.518 189.117C257.338 189.117 255.762 187.441 255.768 184.758C255.762 182.074 257.338 180.398 259.518 180.398C261.234 180.398 262.623 181.424 262.939 183.188H261.885ZM264.416 189V180.516H269.561V181.453H265.471V184.289H269.291V185.215H265.471V188.062H269.619V189H264.416ZM271.225 189V180.516H276.334V181.453H272.279V184.289H275.947V185.215H272.279V189H271.225Z" fill="black" fill-opacity="0.56"/>
<rect x="318.846" y="106" width="101.859" height="100" rx="10" fill="#DEE2E6"/>
<path d="M335.569 169L335.557 167.616L338.857 164.582C339.714 163.763 340.178 163.255 340.178 162.525C340.178 161.707 339.562 161.199 338.718 161.205C337.854 161.199 337.29 161.745 337.296 162.627H335.48C335.474 160.831 336.807 159.682 338.743 159.682C340.711 159.682 342.019 160.805 342.019 162.398C342.019 163.446 341.511 164.303 339.619 166.017L338.223 167.375V167.426H342.146V169H335.569ZM347.071 169.127C344.767 169.127 343.377 167.413 343.377 164.404C343.377 161.402 344.78 159.682 347.071 159.682C349.363 159.682 350.766 161.402 350.766 164.404C350.766 167.426 349.369 169.127 347.071 169.127ZM345.332 164.404C345.319 166.524 346.005 167.553 347.071 167.553C348.138 167.553 348.817 166.524 348.811 164.404C348.817 162.303 348.131 161.25 347.071 161.243C346.011 161.25 345.332 162.303 345.332 164.404Z" fill="black"/>
<path d="M338.807 189L339.193 186.656H337.061L336.674 189H335.818L336.205 186.656H334.951L335.092 185.812H336.34L336.691 183.703H335.455L335.584 182.859H336.826L337.213 180.516H338.068L337.682 182.859H339.814L340.201 180.516H341.057L340.67 182.859H341.936L341.795 183.703H340.535L340.184 185.812H341.432L341.291 186.656H340.049L339.662 189H338.807ZM337.195 185.812H339.328L339.68 183.703H337.547L337.195 185.812ZM345.615 189H342.979V180.516H345.721C348.199 180.516 349.658 182.104 349.658 184.746C349.658 187.395 348.199 189 345.615 189ZM344.033 188.062H345.545C347.625 188.062 348.627 186.803 348.627 184.746C348.627 182.695 347.625 181.453 345.65 181.453H344.033V188.062ZM351.205 189V180.516H356.35V181.453H352.26V184.289H356.08V185.215H352.26V188.062H356.408V189H351.205ZM358.014 189V180.516H363.158V181.453H359.068V184.289H362.889V185.215H359.068V188.062H363.217V189H358.014ZM364.682 189L364.67 188.227L367.564 185.18C368.566 184.113 369.047 183.539 369.053 182.754C369.047 181.881 368.32 181.318 367.365 181.312C366.352 181.318 365.719 181.957 365.713 182.906H364.717C364.705 181.406 365.865 180.398 367.4 180.398C368.941 180.398 370.031 181.436 370.037 182.754C370.031 183.703 369.592 184.441 368.092 185.988L366.146 187.992V188.062H370.189V189H364.682ZM371.865 189V180.516H377.01V181.453H372.92V184.289H376.74V185.215H372.92V188.062H377.068V189H371.865ZM381.486 189.117C380.016 189.1 378.393 188.227 378.393 185.086C378.393 182.08 379.623 180.398 381.615 180.398C383.109 180.398 384.152 181.318 384.369 182.648H383.326C383.133 181.898 382.559 181.336 381.615 181.336C380.221 181.336 379.383 182.525 379.389 184.57H379.494C379.98 183.861 380.76 183.445 381.674 183.445C383.18 183.445 384.439 184.617 384.439 186.258C384.439 187.857 383.273 189.135 381.486 189.117ZM379.529 186.281C379.535 187.277 380.35 188.186 381.486 188.191C382.582 188.186 383.414 187.324 383.42 186.27C383.414 185.227 382.617 184.377 381.51 184.371C380.396 184.377 379.541 185.279 379.529 186.281Z" fill="black" fill-opacity="0.56"/>
<rect x="426.705" y="106" width="101.859" height="100" rx="10" fill="#CED4DA"/>
<path d="M446.831 169.127C444.812 169.127 443.365 168.016 443.327 166.41H445.257C445.289 167.096 445.955 167.546 446.844 167.553C447.758 167.546 448.412 167.039 448.405 166.296C448.412 165.547 447.745 165.02 446.666 165.014H445.815V163.604H446.666C447.574 163.604 448.208 163.109 448.202 162.386C448.208 161.681 447.669 161.199 446.856 161.205C446.044 161.199 445.377 161.656 445.346 162.36H443.518C443.549 160.78 444.971 159.682 446.856 159.682C448.773 159.682 450.049 160.818 450.043 162.271C450.049 163.3 449.332 164.03 448.304 164.214V164.29C449.656 164.455 450.398 165.274 450.386 166.423C450.398 167.997 448.907 169.127 446.831 169.127ZM455.299 169.127C452.995 169.127 451.604 167.413 451.604 164.404C451.604 161.402 453.007 159.682 455.299 159.682C457.59 159.682 458.993 161.402 458.993 164.404C458.993 167.426 457.597 169.127 455.299 169.127ZM453.56 164.404C453.547 166.524 454.232 167.553 455.299 167.553C456.365 167.553 457.044 166.524 457.038 164.404C457.044 162.303 456.359 161.25 455.299 161.243C454.239 161.25 453.56 162.303 453.56 164.404Z" fill="black"/>
<path d="M446.666 189L447.053 186.656H444.92L444.533 189H443.678L444.064 186.656H442.811L442.951 185.812H444.199L444.551 183.703H443.314L443.443 182.859H444.686L445.072 180.516H445.928L445.541 182.859H447.674L448.061 180.516H448.916L448.529 182.859H449.795L449.654 183.703H448.395L448.043 185.812H449.291L449.15 186.656H447.908L447.521 189H446.666ZM445.055 185.812H447.188L447.539 183.703H445.406L445.055 185.812ZM456.627 183.188C456.381 182.016 455.379 181.383 454.26 181.383C452.725 181.383 451.535 182.566 451.529 184.758C451.535 186.943 452.725 188.127 454.26 188.133C455.379 188.127 456.375 187.5 456.627 186.34H457.682C457.377 188.074 455.982 189.117 454.26 189.117C452.08 189.117 450.504 187.441 450.51 184.758C450.504 182.074 452.08 180.398 454.26 180.398C455.977 180.398 457.365 181.424 457.682 183.188H456.627ZM459.158 189V180.516H464.303V181.453H460.213V184.289H464.033V185.215H460.213V188.062H464.361V189H459.158ZM468.604 189H465.967V180.516H468.709C471.188 180.516 472.646 182.104 472.646 184.746C472.646 187.395 471.188 189 468.604 189ZM467.021 188.062H468.533C470.613 188.062 471.615 186.803 471.615 184.746C471.615 182.695 470.613 181.453 468.639 181.453H467.021V188.062ZM473.842 187.266V186.398L477.662 180.516H478.963V186.34H480.146V187.266H478.963V189H477.955V187.266H473.842ZM474.979 186.34H477.955V181.852H477.85L474.979 186.27V186.34ZM484.318 189H481.682V180.516H484.424C486.902 180.516 488.361 182.104 488.361 184.746C488.361 187.395 486.902 189 484.318 189ZM482.736 188.062H484.248C486.328 188.062 487.33 186.803 487.33 184.746C487.33 182.695 486.328 181.453 484.354 181.453H482.736V188.062ZM489.873 189H488.771L491.877 180.516H492.99L496.096 189H494.982L494.133 186.609H490.723L489.873 189ZM491.045 185.684H493.811L492.463 181.887H492.393L491.045 185.684Z" fill="black" fill-opacity="0.56"/>
<rect x="534.562" y="106" width="101.859" height="100" rx="10" fill="#ADB5BD"/>
<path d="M551.134 167.375V165.864L555.019 159.809H557.418V165.839H558.586V167.375H557.418V169H555.603V167.375H551.134ZM553.063 165.839H555.628V161.903H555.539L553.063 165.763V165.839ZM563.397 169.127C561.093 169.127 559.703 167.413 559.703 164.404C559.703 161.402 561.106 159.682 563.397 159.682C565.689 159.682 567.092 161.402 567.092 164.404C567.092 167.426 565.695 169.127 563.397 169.127ZM561.658 164.404C561.646 166.524 562.331 167.553 563.397 167.553C564.464 167.553 565.143 166.524 565.137 164.404C565.143 162.303 564.458 161.25 563.397 161.243C562.337 161.25 561.658 162.303 561.658 164.404Z" fill="black"/>
<path d="M554.523 189L554.91 186.656H552.777L552.391 189H551.535L551.922 186.656H550.668L550.809 185.812H552.057L552.408 183.703H551.172L551.301 182.859H552.543L552.93 180.516H553.785L553.398 182.859H555.531L555.918 180.516H556.773L556.387 182.859H557.652L557.512 183.703H556.252L555.9 185.812H557.148L557.008 186.656H555.766L555.379 189H554.523ZM552.912 185.812H555.045L555.396 183.703H553.264L552.912 185.812ZM559.07 189H557.969L561.074 180.516H562.188L565.293 189H564.18L563.33 186.609H559.92L559.07 189ZM560.242 185.684H563.008L561.66 181.887H561.59L560.242 185.684ZM569.078 189H566.441V180.516H569.184C571.662 180.516 573.121 182.104 573.121 184.746C573.121 187.395 571.662 189 569.078 189ZM567.496 188.062H569.008C571.088 188.062 572.09 186.803 572.09 184.746C572.09 182.695 571.088 181.453 569.113 181.453H567.496V188.062ZM574.668 189V180.516H577.645C579.426 180.516 580.264 181.518 580.258 182.766C580.264 183.855 579.613 184.342 578.875 184.547V184.629C579.666 184.676 580.592 185.402 580.598 186.75C580.592 188.021 579.754 189 577.75 189H574.668ZM575.723 188.062H577.738C579.068 188.062 579.584 187.477 579.578 186.738C579.584 185.877 578.887 185.145 577.797 185.145H575.723V188.062ZM575.723 184.23H577.609C578.529 184.236 579.25 183.662 579.25 182.777C579.25 182.039 578.752 181.453 577.645 181.453H575.723V184.23ZM584.723 189.117C583.193 189.117 582.033 188.174 581.969 186.867H582.988C583.064 187.623 583.803 188.186 584.723 188.191C585.824 188.186 586.621 187.383 586.621 186.316C586.621 185.215 585.795 184.4 584.652 184.395C583.938 184.383 583.381 184.605 583.07 185.156H582.051L582.648 180.516H587.242V181.453H583.527L583.211 183.938H583.293C583.674 183.645 584.242 183.445 584.84 183.445C586.457 183.445 587.646 184.641 587.652 186.293C587.646 187.934 586.416 189.117 584.723 189.117ZM589.258 189V180.516H592.234C594.016 180.516 594.854 181.518 594.848 182.766C594.854 183.855 594.203 184.342 593.465 184.547V184.629C594.256 184.676 595.182 185.402 595.188 186.75C595.182 188.021 594.344 189 592.34 189H589.258ZM590.312 188.062H592.328C593.658 188.062 594.174 187.477 594.168 186.738C594.174 185.877 593.477 185.145 592.387 185.145H590.312V188.062ZM590.312 184.23H592.199C593.119 184.236 593.84 183.662 593.84 182.777C593.84 182.039 593.342 181.453 592.234 181.453H590.312V184.23ZM599.324 189H596.688V180.516H599.43C601.908 180.516 603.367 182.104 603.367 184.746C603.367 187.395 601.908 189 599.324 189ZM597.742 188.062H599.254C601.334 188.062 602.336 186.803 602.336 184.746C602.336 182.695 601.334 181.453 599.359 181.453H597.742V188.062Z" fill="black" fill-opacity="0.56"/>
<rect x="642.422" y="106" width="101.859" height="100" rx="10" fill="#868E96"/>
<path d="M662.522 169.127C660.605 169.127 659.203 167.997 659.171 166.41H661.024C661.069 167.127 661.723 167.623 662.522 167.616C663.475 167.623 664.154 166.95 664.147 165.991C664.154 165.014 663.462 164.334 662.497 164.328C661.805 164.328 661.323 164.588 661.05 165.103H659.323L659.818 159.809H665.48V161.37H661.393L661.139 163.693H661.215C661.551 163.243 662.25 162.913 663.056 162.919C664.744 162.913 666.001 164.176 666.001 165.94C666.001 167.8 664.592 169.127 662.522 169.127ZM670.863 169.127C668.559 169.127 667.169 167.413 667.169 164.404C667.169 161.402 668.572 159.682 670.863 159.682C673.155 159.682 674.558 161.402 674.558 164.404C674.558 167.426 673.161 169.127 670.863 169.127ZM669.124 164.404C669.111 166.524 669.797 167.553 670.863 167.553C671.93 167.553 672.609 166.524 672.603 164.404C672.609 162.303 671.923 161.25 670.863 161.243C669.803 161.25 669.124 162.303 669.124 164.404Z" fill="white"/>
<path d="M662.383 189L662.77 186.656H660.637L660.25 189H659.395L659.781 186.656H658.527L658.668 185.812H659.916L660.268 183.703H659.031L659.16 182.859H660.402L660.789 180.516H661.645L661.258 182.859H663.391L663.777 180.516H664.633L664.246 182.859H665.512L665.371 183.703H664.111L663.76 185.812H665.008L664.867 186.656H663.625L663.238 189H662.383ZM660.771 185.812H662.904L663.256 183.703H661.123L660.771 185.812ZM669.25 189.117C667.463 189.117 666.232 188.127 666.238 186.75C666.232 185.654 666.994 184.746 667.961 184.594V184.547C667.117 184.354 666.561 183.574 666.566 182.648C666.561 181.354 667.697 180.398 669.25 180.398C670.797 180.398 671.934 181.354 671.945 182.648C671.934 183.574 671.371 184.354 670.539 184.547V184.594C671.5 184.746 672.262 185.654 672.273 186.75C672.262 188.127 671.02 189.117 669.25 189.117ZM667.293 186.691C667.275 187.582 668.031 188.186 669.25 188.191C670.463 188.186 671.219 187.582 671.219 186.691C671.219 185.754 670.393 185.062 669.25 185.062C668.113 185.062 667.275 185.754 667.293 186.691ZM667.586 182.73C667.592 183.586 668.277 184.166 669.25 184.172C670.217 184.166 670.914 183.586 670.914 182.73C670.914 181.881 670.24 181.307 669.25 181.312C668.242 181.307 667.592 181.881 667.586 182.73ZM676.645 189.117C675.174 189.1 673.551 188.227 673.551 185.086C673.551 182.08 674.781 180.398 676.773 180.398C678.268 180.398 679.311 181.318 679.527 182.648H678.484C678.291 181.898 677.717 181.336 676.773 181.336C675.379 181.336 674.541 182.525 674.547 184.57H674.652C675.139 183.861 675.918 183.445 676.832 183.445C678.338 183.445 679.598 184.617 679.598 186.258C679.598 187.857 678.432 189.135 676.645 189.117ZM674.688 186.281C674.693 187.277 675.508 188.186 676.645 188.191C677.74 188.186 678.572 187.324 678.578 186.27C678.572 185.227 677.775 184.377 676.668 184.371C675.555 184.377 674.699 185.279 674.688 186.281ZM683.887 189.117C682.1 189.117 680.869 188.127 680.875 186.75C680.869 185.654 681.631 184.746 682.598 184.594V184.547C681.754 184.354 681.197 183.574 681.203 182.648C681.197 181.354 682.334 180.398 683.887 180.398C685.434 180.398 686.57 181.354 686.582 182.648C686.57 183.574 686.008 184.354 685.176 184.547V184.594C686.137 184.746 686.898 185.654 686.91 186.75C686.898 188.127 685.656 189.117 683.887 189.117ZM681.93 186.691C681.912 187.582 682.668 188.186 683.887 188.191C685.1 188.186 685.855 187.582 685.855 186.691C685.855 185.754 685.029 185.062 683.887 185.062C682.75 185.062 681.912 185.754 681.93 186.691ZM682.223 182.73C682.229 183.586 682.914 184.166 683.887 184.172C684.854 184.166 685.551 183.586 685.551 182.73C685.551 181.881 684.877 181.307 683.887 181.312C682.879 181.307 682.229 181.881 682.223 182.73ZM688.469 189V180.516H693.613V181.453H689.523V184.289H693.344V185.215H689.523V188.062H693.672V189H688.469ZM697.961 180.398C699.42 180.416 701.043 181.295 701.043 184.418C701.043 187.436 699.807 189.117 697.82 189.117C696.326 189.117 695.277 188.203 695.066 186.855H696.109C696.297 187.617 696.877 188.18 697.82 188.18C699.203 188.18 700.047 186.984 700.059 184.922H699.941C699.455 185.625 698.676 186.047 697.773 186.047C696.256 186.047 694.996 184.881 694.996 183.246C694.996 181.664 696.156 180.381 697.961 180.398ZM696.027 183.234C696.021 184.283 696.818 185.121 697.926 185.121C699.033 185.121 699.895 184.207 699.895 183.211C699.895 182.238 699.08 181.324 697.961 181.324C696.854 181.324 696.016 182.186 696.027 183.234ZM705.449 189.117C703.979 189.1 702.355 188.227 702.355 185.086C702.355 182.08 703.586 180.398 705.578 180.398C707.072 180.398 708.115 181.318 708.332 182.648H707.289C707.096 181.898 706.521 181.336 705.578 181.336C704.184 181.336 703.346 182.525 703.352 184.57H703.457C703.943 183.861 704.723 183.445 705.637 183.445C707.143 183.445 708.402 184.617 708.402 186.258C708.402 187.857 707.236 189.135 705.449 189.117ZM703.492 186.281C703.498 187.277 704.312 188.186 705.449 188.191C706.545 188.186 707.377 187.324 707.383 186.27C707.377 185.227 706.58 184.377 705.473 184.371C704.359 184.377 703.504 185.279 703.492 186.281Z" fill="white" fill-opacity="0.78"/>
<rect x="750.281" y="106" width="101.859" height="100" rx="10" fill="#495057"/>
<path d="M770.56 169.127C768.662 169.121 766.846 167.984 766.853 164.62C766.859 161.516 768.338 159.682 770.636 159.682C772.483 159.682 773.752 160.85 773.937 162.36H772.058C771.905 161.719 771.378 161.319 770.636 161.319C769.385 161.319 768.731 162.443 768.719 164.252H768.808C769.233 163.433 770.141 162.957 771.156 162.957C772.813 162.957 774.044 164.195 774.038 165.928C774.044 167.794 772.635 169.133 770.56 169.127ZM768.909 165.979C768.922 166.88 769.607 167.623 770.547 167.616C771.493 167.623 772.185 166.905 772.185 165.979C772.185 165.058 771.505 164.347 770.572 164.341C769.633 164.347 768.922 165.083 768.909 165.979ZM778.926 169.127C776.622 169.127 775.231 167.413 775.231 164.404C775.231 161.402 776.634 159.682 778.926 159.682C781.217 159.682 782.62 161.402 782.62 164.404C782.62 167.426 781.224 169.127 778.926 169.127ZM777.187 164.404C777.174 166.524 777.859 167.553 778.926 167.553C779.992 167.553 780.671 166.524 780.665 164.404C780.671 162.303 779.986 161.25 778.926 161.243C777.866 161.25 777.187 162.303 777.187 164.404Z" fill="white"/>
<path d="M770.242 189L770.629 186.656H768.496L768.109 189H767.254L767.641 186.656H766.387L766.527 185.812H767.775L768.127 183.703H766.891L767.02 182.859H768.262L768.648 180.516H769.504L769.117 182.859H771.25L771.637 180.516H772.492L772.105 182.859H773.371L773.23 183.703H771.971L771.619 185.812H772.867L772.727 186.656H771.484L771.098 189H770.242ZM768.631 185.812H770.764L771.115 183.703H768.982L768.631 185.812ZM774.062 187.266V186.398L777.883 180.516H779.184V186.34H780.367V187.266H779.184V189H778.176V187.266H774.062ZM775.199 186.34H778.176V181.852H778.07L775.199 186.27V186.34ZM784.586 180.398C786.045 180.416 787.668 181.295 787.668 184.418C787.668 187.436 786.432 189.117 784.445 189.117C782.951 189.117 781.902 188.203 781.691 186.855H782.734C782.922 187.617 783.502 188.18 784.445 188.18C785.828 188.18 786.672 186.984 786.684 184.922H786.566C786.08 185.625 785.301 186.047 784.398 186.047C782.881 186.047 781.621 184.881 781.621 183.246C781.621 181.664 782.781 180.381 784.586 180.398ZM782.652 183.234C782.646 184.283 783.443 185.121 784.551 185.121C785.658 185.121 786.52 184.207 786.52 183.211C786.52 182.238 785.705 181.324 784.586 181.324C783.479 181.324 782.641 182.186 782.652 183.234ZM791.887 189.117C790.357 189.117 789.197 188.174 789.133 186.867H790.152C790.229 187.623 790.967 188.186 791.887 188.191C792.988 188.186 793.785 187.383 793.785 186.316C793.785 185.215 792.959 184.4 791.816 184.395C791.102 184.383 790.545 184.605 790.234 185.156H789.215L789.812 180.516H794.406V181.453H790.691L790.375 183.938H790.457C790.838 183.645 791.406 183.445 792.004 183.445C793.621 183.445 794.811 184.641 794.816 186.293C794.811 187.934 793.58 189.117 791.887 189.117ZM799.059 189.117C797.178 189.117 796.088 187.535 796.094 184.758C796.088 182.004 797.189 180.398 799.059 180.398C800.922 180.398 802.023 182.004 802.023 184.758C802.023 187.535 800.939 189.117 799.059 189.117ZM797.113 184.758C797.119 186.955 797.828 188.18 799.059 188.18C800.283 188.18 800.998 186.955 800.992 184.758C800.998 182.561 800.277 181.318 799.059 181.312C797.84 181.318 797.119 182.561 797.113 184.758ZM806.195 189.117C804.666 189.117 803.506 188.174 803.441 186.867H804.461C804.537 187.623 805.275 188.186 806.195 188.191C807.297 188.186 808.094 187.383 808.094 186.316C808.094 185.215 807.268 184.4 806.125 184.395C805.41 184.383 804.854 184.605 804.543 185.156H803.523L804.121 180.516H808.715V181.453H805L804.684 183.938H804.766C805.146 183.645 805.715 183.445 806.312 183.445C807.93 183.445 809.119 184.641 809.125 186.293C809.119 187.934 807.889 189.117 806.195 189.117ZM810.859 189L814.75 181.512V181.453H810.262V180.516H815.84V181.5L811.961 189H810.859Z" fill="white" fill-opacity="0.78"/>
<rect x="858.141" y="106" width="101.859" height="100" rx="10" fill="#212529"/>
<path d="M875.22 169L879.092 161.434V161.37H874.585V159.809H881.072V161.396L877.2 169H875.22ZM885.706 169.127C883.402 169.127 882.012 167.413 882.012 164.404C882.012 161.402 883.415 159.682 885.706 159.682C887.998 159.682 889.4 161.402 889.4 164.404C889.4 167.426 888.004 169.127 885.706 169.127ZM883.967 164.404C883.954 166.524 884.64 167.553 885.706 167.553C886.772 167.553 887.452 166.524 887.445 164.404C887.452 162.303 886.766 161.25 885.706 161.243C884.646 161.25 883.967 162.303 883.967 164.404Z" fill="white"/>
<path d="M878.102 189L878.488 186.656H876.355L875.969 189H875.113L875.5 186.656H874.246L874.387 185.812H875.635L875.986 183.703H874.75L874.879 182.859H876.121L876.508 180.516H877.363L876.977 182.859H879.109L879.496 180.516H880.352L879.965 182.859H881.23L881.09 183.703H879.83L879.479 185.812H880.727L880.586 186.656H879.344L878.957 189H878.102ZM876.49 185.812H878.623L878.975 183.703H876.842L876.49 185.812ZM882.133 189L882.121 188.227L885.016 185.18C886.018 184.113 886.498 183.539 886.504 182.754C886.498 181.881 885.771 181.318 884.816 181.312C883.803 181.318 883.17 181.957 883.164 182.906H882.168C882.156 181.406 883.316 180.398 884.852 180.398C886.393 180.398 887.482 181.436 887.488 182.754C887.482 183.703 887.043 184.441 885.543 185.988L883.598 187.992V188.062H887.641V189H882.133ZM892.176 180.516V189H891.109V181.617H891.062L889 182.988V181.922L891.109 180.516H892.176ZM894.438 189L894.426 188.227L897.32 185.18C898.322 184.113 898.803 183.539 898.809 182.754C898.803 181.881 898.076 181.318 897.121 181.312C896.107 181.318 895.475 181.957 895.469 182.906H894.473C894.461 181.406 895.621 180.398 897.156 180.398C898.697 180.398 899.787 181.436 899.793 182.754C899.787 183.703 899.348 184.441 897.848 185.988L895.902 187.992V188.062H899.945V189H894.438ZM904.246 189.117C902.717 189.117 901.557 188.174 901.492 186.867H902.512C902.588 187.623 903.326 188.186 904.246 188.191C905.348 188.186 906.145 187.383 906.145 186.316C906.145 185.215 905.318 184.4 904.176 184.395C903.461 184.383 902.904 184.605 902.594 185.156H901.574L902.172 180.516H906.766V181.453H903.051L902.734 183.938H902.816C903.197 183.645 903.766 183.445 904.363 183.445C905.98 183.445 907.17 184.641 907.176 186.293C907.17 187.934 905.939 189.117 904.246 189.117ZM908.641 189L908.629 188.227L911.523 185.18C912.525 184.113 913.006 183.539 913.012 182.754C913.006 181.881 912.279 181.318 911.324 181.312C910.311 181.318 909.678 181.957 909.672 182.906H908.676C908.664 181.406 909.824 180.398 911.359 180.398C912.9 180.398 913.99 181.436 913.996 182.754C913.99 183.703 913.551 184.441 912.051 185.988L910.105 187.992V188.062H914.148V189H908.641ZM918.508 180.398C919.967 180.416 921.59 181.295 921.59 184.418C921.59 187.436 920.354 189.117 918.367 189.117C916.873 189.117 915.824 188.203 915.613 186.855H916.656C916.844 187.617 917.424 188.18 918.367 188.18C919.75 188.18 920.594 186.984 920.605 184.922H920.488C920.002 185.625 919.223 186.047 918.32 186.047C916.803 186.047 915.543 184.881 915.543 183.246C915.543 181.664 916.703 180.381 918.508 180.398ZM916.574 183.234C916.568 184.283 917.365 185.121 918.473 185.121C919.58 185.121 920.441 184.207 920.441 183.211C920.441 182.238 919.627 181.324 918.508 181.324C917.4 181.324 916.562 182.186 916.574 183.234Z" fill="white" fill-opacity="0.78"/>
</svg>
