<svg width="474" height="237" viewBox="0 0 474 237" fill="none" xmlns="http://www.w3.org/2000/svg">
<path d="M55.293 114.908V116.754H40.6504V114.908H43.9199V110.988C42.6807 110.241 41.9336 109.107 41.9336 107.701C41.9336 105.108 44.4648 103.403 47.9453 103.395C51.4082 103.403 53.9658 105.108 53.9746 107.701C53.9658 109.081 53.2451 110.197 52.041 110.944V114.908H55.293ZM44.1484 107.701C44.1484 109.266 45.6514 110.232 47.9453 110.232C50.2041 110.232 51.751 109.266 51.7598 107.701C51.751 106.093 50.2041 105.161 47.9453 105.17C45.6514 105.161 44.1484 106.093 44.1484 107.701ZM46.1348 114.908H49.7734V111.797C49.2021 111.911 48.5869 111.973 47.9453 111.973C47.3037 111.973 46.6973 111.911 46.1348 111.806V114.908ZM65.3301 104.291V106.049H62.0957C62.1221 107.692 63.3174 109.362 65.8926 110.021L64.8555 111.744C63.0273 111.287 61.7529 110.276 61.0234 108.976C60.3291 110.452 59.0459 111.621 57.1562 112.166L56.1016 110.426C58.6592 109.688 59.8457 107.859 59.8633 106.049H56.6465V104.291H59.8633V102.551H62.1309V104.291H65.3301ZM58.7207 115.559C58.7207 113.643 60.8301 112.562 64.2227 112.553C67.6328 112.562 69.7334 113.643 69.7422 115.559C69.7334 117.501 67.6328 118.626 64.2227 118.617C60.8301 118.626 58.7207 117.501 58.7207 115.559ZM60.9531 115.559C60.9531 116.438 62.1045 116.912 64.2227 116.912C66.3848 116.912 67.501 116.438 67.5098 115.559C67.501 114.706 66.3848 114.275 64.2227 114.275C62.1045 114.275 60.9531 114.706 60.9531 115.559ZM64.8555 108.703V106.91H67.457V102.621H69.6895V112.289H67.457V108.703H64.8555ZM79.0586 102.85C82.7412 102.85 84.8682 103.816 84.877 105.574C84.8682 107.358 82.7412 108.316 79.0586 108.316C75.3672 108.316 73.2227 107.358 73.2227 105.574C73.2227 103.816 75.3672 102.85 79.0586 102.85ZM71.7637 110.848V109.072H86.3535V110.848H71.7637ZM73.4512 113.414V111.779H84.5781V115.857H75.666V116.824H85V118.512H73.4688V114.293H82.3633V113.414H73.4512ZM75.5781 105.574C75.5693 106.356 76.7119 106.664 79.0586 106.664C81.4229 106.664 82.5566 106.356 82.5566 105.574C82.5566 104.862 81.4229 104.484 79.0586 104.484C76.7119 104.484 75.5693 104.862 75.5781 105.574ZM104.986 102.621V118.652H102.736V110.566H99.8535V108.773H102.736V102.621H104.986ZM91.3984 113.906C93.9736 112.755 95.2217 110.03 95.2305 107.631V107.016H91.9082V105.223H95.2305V102.973H97.4805V105.223H100.715V107.016H97.4629V107.631C97.4541 109.942 98.7373 112.526 101.348 113.66L100.152 115.383C98.333 114.627 97.0586 113.098 96.3555 111.278C95.6699 113.212 94.4043 114.838 92.5762 115.629L91.3984 113.906ZM120.438 102.621V118.652H118.205V102.621H120.438ZM107.869 105.768V103.957H115.48V110.127H110.207V113.062C112.65 113.045 114.716 112.922 117.062 112.535L117.256 114.346C114.628 114.812 112.246 114.908 109.328 114.908H107.887V108.352H113.195V105.768H107.869ZM135.273 102.586V106.066H137.436V107.859H135.273V111.252H133.023V102.586H135.273ZM122.582 105.521V103.816H126.221V102.516H128.453V103.816H132.074V105.521H122.582ZM123.355 108.527C123.355 106.928 124.946 105.917 127.328 105.908C129.728 105.917 131.266 106.928 131.266 108.527C131.266 110.162 129.728 111.138 127.328 111.146C124.946 111.138 123.355 110.162 123.355 108.527ZM124.656 113.52V111.902H135.273V115.945H126.889V116.859H135.73V118.512H124.691V114.416H133.041V113.52H124.656ZM125.553 108.527C125.544 109.213 126.221 109.538 127.328 109.547C128.444 109.538 129.139 109.213 129.139 108.527C129.139 107.851 128.444 107.481 127.328 107.49C126.221 107.481 125.544 107.851 125.553 108.527ZM150.777 103.869C150.769 105.759 152.702 107.842 156.367 108.299L155.488 110.109C152.693 109.705 150.646 108.413 149.6 106.682C148.545 108.404 146.506 109.705 143.746 110.109L142.85 108.299C146.488 107.842 148.413 105.759 148.422 103.869V103.096H150.777V103.869ZM142.287 113.15V111.322H156.877V113.15H150.654V118.617H148.439V113.15H142.287ZM165.842 111.973V113.572H167.564V111.973H169.639V116.833C171.414 116.024 172.17 114.53 172.17 113.08V111.85H174.42V113.08C174.411 114.715 175.193 116.262 177.197 116.912L176.037 118.582C174.657 118.107 173.77 117.193 173.26 116.042C172.732 117.158 171.854 118.081 170.553 118.582L169.639 117.202V118.441H163.768V111.973H165.842ZM162.203 106.98C162.186 104.783 163.996 103.228 166.457 103.219C168.487 103.228 170.113 104.353 170.553 106.049H173.242V102.621H175.475V111.094H173.242V107.895H170.562C170.131 109.626 168.496 110.777 166.457 110.777C163.996 110.777 162.186 109.213 162.203 106.98ZM164.33 106.98C164.321 108.193 165.2 108.94 166.457 108.949C167.67 108.94 168.54 108.193 168.549 106.98C168.54 105.803 167.67 105.073 166.457 105.064C165.2 105.073 164.321 105.803 164.33 106.98ZM165.842 116.736H167.564V115.225H165.842V116.736ZM181.469 112.219V113.572H188.061V112.219H190.293V118.441H179.254V112.219H181.469ZM177.549 111.41V109.6H192.139V111.41H177.549ZM178.27 107.139C181.838 106.708 183.684 104.968 183.701 103.324V102.779H186.004V103.324C186.004 104.924 187.841 106.734 191.418 107.139L190.627 108.896C187.876 108.545 185.872 107.402 184.844 105.855C183.807 107.402 181.803 108.545 179.078 108.896L178.27 107.139ZM181.469 116.684H188.061V115.277H181.469V116.684ZM206.553 102.621V118.617H204.32V102.621H206.553ZM193.967 114.662V104.15H196.182V112.755C198.344 112.72 200.664 112.518 203.02 112.061L203.301 113.906C200.497 114.495 197.843 114.671 195.373 114.662H193.967ZM221.283 102.621V108.562H223.639V110.391H221.283V118.652H219.033V102.621H221.283ZM209.295 114.768V104.098H216.801V105.908H211.527V112.922C213.848 112.904 215.764 112.781 217.891 112.412L218.137 114.293C215.649 114.715 213.47 114.776 210.648 114.768H209.295ZM226.293 117.158C225.467 117.158 224.799 116.499 224.816 115.682C224.799 114.873 225.467 114.214 226.293 114.223C227.075 114.214 227.752 114.873 227.752 115.682C227.752 116.499 227.075 117.158 226.293 117.158Z" fill="black"/>
<path d="M46.6328 138.242V138.75H43.8047V140.172H43.1953V138.75H40.2734V138.242H46.6328ZM41.0859 141.484V139.484H41.7031V140.969H45.9219V141.484H41.0859ZM41.1016 137.445V135.031H45.8047V137.445H41.1016ZM41.7031 136.953H45.1953V135.516H41.7031V136.953ZM53.1328 134.688V141.633H52.5469V134.688H53.1328ZM47.1094 139.781C48.0781 139.203 48.6445 137.934 48.6406 136.672V136.016H47.3047V135.508H50.5078V136.016H49.2344V136.672C49.2344 137.871 49.7773 139.07 50.7344 139.625L50.3594 140.078C49.6758 139.668 49.1914 138.918 48.9492 138.035C48.6992 138.992 48.1953 139.809 47.5 140.242L47.1094 139.781ZM49.9766 137.695V137.195H51.1484V134.859H51.7266V141.273H51.1484V137.695H49.9766ZM59.4844 134.688V137.516H60.6094V138.031H59.4844V141.633H58.875V134.688H59.4844ZM54.1562 139.828C55.9492 138.938 56.9258 137.598 57.0664 135.953H54.4766V135.438H57.6875C57.6836 137.402 56.7617 139.195 54.5 140.312L54.1562 139.828ZM63.9297 134.984V135.984H65.9531V134.984H66.5625V138.008H63.3281V134.984H63.9297ZM63.9297 137.508H65.9531V136.461H63.9297V137.508ZM64.0312 139.102V138.609H68.4609V140.289H64.6484V141.055H68.7188V141.555H64.0469V139.82H67.8516V139.102H64.0312ZM67.8516 138.281V134.688H68.4609V136.195H69.5078V136.711H68.4609V138.281H67.8516ZM72.0156 136.07C72.0195 136.84 72.5547 137.617 73.4453 137.953L73.125 138.422C72.457 138.164 71.9766 137.668 71.7266 137.07C71.4727 137.73 70.9727 138.32 70.2891 138.617L69.9531 138.141C70.8672 137.742 71.4258 136.844 71.4297 136.07V135.125H72.0156V136.07ZM71.2188 140.383C71.2109 139.598 72.1016 139.137 73.5469 139.141C74.9844 139.137 75.8789 139.598 75.8828 140.383C75.8789 141.16 74.9844 141.617 73.5469 141.617C72.1016 141.617 71.2109 141.16 71.2188 140.383ZM71.8281 140.383C71.8203 140.855 72.4805 141.145 73.5469 141.141C74.6016 141.145 75.2656 140.855 75.2734 140.383C75.2656 139.902 74.6016 139.613 73.5469 139.609C72.4805 139.613 71.8203 139.902 71.8281 140.383ZM73.7578 138.766V134.828H74.3359V136.562H75.2578V134.695H75.8438V138.984H75.2578V137.07H74.3359V138.766H73.7578ZM82.7578 134.695V139H82.1719V137.117H81.2656V138.891H80.6797V134.805H81.2656V136.609H82.1719V134.695H82.7578ZM76.8203 135.992V135.484H78.3047V134.719H78.9141V135.484H80.3828V135.992H76.8203ZM77.125 137.531C77.1211 136.801 77.7344 136.344 78.6094 136.344C79.4883 136.344 80.0977 136.801 80.1016 137.531C80.0977 138.242 79.4883 138.719 78.6094 138.719C77.7344 138.719 77.1211 138.242 77.125 137.531ZM77.3047 141.086C78.1758 140.789 78.7148 140.078 78.7188 139.445V139.195H79.3203V139.445C79.3125 140.039 79.6367 140.66 80.293 141.016C80.9531 140.625 81.2891 139.953 81.2969 139.445V139.195H81.8984V139.445C81.8945 140.121 82.4219 140.812 83.3125 141.086L83.0234 141.555C82.3242 141.312 81.832 140.84 81.5898 140.273C81.3789 140.82 80.957 141.348 80.3047 141.609C79.6367 141.359 79.2109 140.867 79 140.305C78.7461 140.844 78.2656 141.312 77.6016 141.555L77.3047 141.086ZM77.6719 137.531C77.6719 137.969 78.0547 138.254 78.6094 138.258C79.1641 138.254 79.5469 137.969 79.5469 137.531C79.5469 137.082 79.1641 136.801 78.6094 136.805C78.0547 136.801 77.6719 137.082 77.6719 137.531ZM85.1875 138.859V139.672H88.6562V138.859H89.2734V141.539H84.5781V138.859H85.1875ZM83.7734 138.367V137.859H90.1016V138.367H83.7734ZM84.1328 136.875C85.3711 136.707 86.625 135.977 86.625 135.094V134.766H87.2578V135.094C87.2539 135.949 88.5195 136.719 89.7422 136.875L89.5156 137.367C88.4414 137.207 87.3828 136.66 86.9414 135.883C86.5 136.664 85.4375 137.207 84.3672 137.367L84.1328 136.875ZM85.1875 141.047H88.6562V140.156H85.1875V141.047ZM96.4141 134.688V141.633H95.8047V134.688H96.4141ZM91.1406 139.844V135.375H91.7422V139.312C92.8047 139.305 93.8984 139.223 95.0625 138.977L95.1484 139.5C93.9141 139.758 92.8164 139.844 91.7031 139.844H91.1406ZM102.977 134.688V137.438H104.141V137.953H102.977V141.648H102.367V134.688H102.977ZM97.9062 139.906V135.367H101.148V135.875H98.5156V139.391C99.7734 139.387 100.66 139.332 101.695 139.141L101.773 139.672C100.684 139.867 99.7734 139.906 98.4531 139.906H97.9062ZM105.25 141.047C104.977 141.043 104.742 140.816 104.75 140.539C104.742 140.266 104.977 140.039 105.25 140.039C105.527 140.039 105.754 140.266 105.75 140.539C105.754 140.816 105.527 141.043 105.25 141.047ZM110.891 135.945C110.883 136.867 111.566 137.695 112.602 138.039L112.289 138.531C111.496 138.258 110.887 137.691 110.59 136.984C110.289 137.77 109.652 138.391 108.828 138.695L108.508 138.195C109.555 137.84 110.27 136.949 110.273 135.953V135.68H108.695V135.18H112.438V135.68H110.891V135.945ZM109.586 141.539V139.102H113.969V141.539H109.586ZM110.188 141.039H113.359V139.594H110.188V141.039ZM113.359 138.781V134.688H113.969V136.422H115.016V136.938H113.969V138.781H113.359ZM117.922 136.555C117.918 137.824 118.781 139.098 119.805 139.562L119.43 140.047C118.637 139.664 117.953 138.84 117.621 137.852C117.301 138.898 116.617 139.777 115.805 140.188L115.414 139.672C116.449 139.199 117.305 137.871 117.312 136.555V135.289H117.922V136.555ZM120.562 141.648V134.688H121.18V141.648H120.562ZM130.336 135.484V135.992H124.703V135.484H127.234V134.648H127.836V135.484H130.336ZM124.375 139.695V139.188H130.734V139.695H127.836V141.648H127.234V139.695H124.375ZM125.273 137.555C125.266 136.805 126.117 136.391 127.539 136.391C128.949 136.391 129.801 136.805 129.805 137.555C129.801 138.289 128.949 138.703 127.539 138.711C126.117 138.703 125.266 138.289 125.273 137.555ZM125.906 137.555C125.898 137.984 126.504 138.238 127.539 138.234C128.562 138.238 129.164 137.984 129.172 137.555C129.164 137.117 128.562 136.863 127.539 136.859C126.504 136.863 125.898 137.117 125.906 137.555ZM138.672 134.688V137.438H139.836V137.953H138.672V141.648H138.062V134.688H138.672ZM133.602 139.906V135.367H136.844V135.875H134.211V139.391C135.469 139.387 136.355 139.332 137.391 139.141L137.469 139.672C136.379 139.867 135.469 139.906 134.148 139.906H133.602ZM142.68 136.555C142.676 137.824 143.539 139.098 144.562 139.562L144.188 140.047C143.395 139.664 142.711 138.84 142.379 137.852C142.059 138.898 141.375 139.777 140.562 140.188L140.172 139.672C141.207 139.199 142.062 137.871 142.07 136.555V135.289H142.68V136.555ZM145.32 141.648V134.688H145.938V141.648H145.32ZM151.602 136.555C151.598 137.824 152.461 139.098 153.484 139.562L153.109 140.047C152.316 139.664 151.633 138.84 151.301 137.852C150.98 138.898 150.297 139.777 149.484 140.188L149.094 139.672C150.129 139.199 150.984 137.871 150.992 136.555V135.289H151.602V136.555ZM154.242 141.648V134.688H154.859V141.648H154.242ZM161.656 137.945V138.445H159.508V140.242H162.406V140.758H156.047V140.242H158.906V138.445H156.859V135.258H161.586V135.758H157.477V137.945H161.656ZM168.336 134.688V137.555H169.5V138.062H168.336V141.633H167.727V134.688H168.336ZM162.922 136.312V135.805H164.711V134.773H165.32V135.805H167.055V136.312H162.922ZM163.32 138.484C163.316 137.547 164.035 136.891 165.023 136.891C166.004 136.891 166.719 137.547 166.727 138.484C166.719 139.426 166.004 140.078 165.023 140.078C164.035 140.078 163.316 139.426 163.32 138.484ZM163.906 138.484C163.902 139.117 164.375 139.562 165.023 139.555C165.664 139.562 166.133 139.117 166.141 138.484C166.133 137.855 165.664 137.402 165.023 137.406C164.375 137.402 163.902 137.855 163.906 138.484ZM175.625 134.688V141.633H175.016V137.992H173.359V137.484H175.016V134.688H175.625ZM169.883 139.82C171.762 138.91 172.633 137.57 172.758 135.945H170.188V135.445H173.375C173.371 137.414 172.539 139.16 170.219 140.312L169.883 139.82ZM183.289 137.461V137.977H182.164V141.633H181.555V134.688H182.164V137.461H183.289ZM177.078 139.867V135.375H177.688V139.352C178.703 139.352 179.738 139.273 180.883 139.031L180.961 139.555C179.762 139.797 178.684 139.867 177.633 139.867H177.078ZM44.1328 147.227V147.594C44.1289 148.051 44.1289 148.742 43.9531 149.648L43.3359 149.602C43.5039 148.773 43.5195 148.184 43.5273 147.742H40.6719V147.227H44.1328ZM40.2422 150.297C40.6914 150.297 41.1992 150.293 41.7344 150.277V148.766H42.3438V150.258C43.1133 150.227 43.9102 150.172 44.6328 150.07L44.6719 150.523C43.2148 150.773 41.543 150.801 40.3047 150.805L40.2422 150.297ZM41.3125 153.484V151.445H41.9297V152.969H45.9531V153.484H41.3125ZM45.1016 151.914V146.688H45.7266V148.953H46.7422V149.477H45.7266V151.914H45.1016ZM52.9297 146.688V153.648H52.3203V146.688H52.9297ZM47.5859 147.844V147.336H50.8203V149.805H48.2266V151.445C49.3789 151.449 50.4062 151.395 51.6484 151.195L51.7109 151.711C50.4336 151.91 49.3789 151.961 48.1797 151.961H47.6016V149.305H50.2031V147.844H47.5859ZM56.4609 148.82C56.4531 149.934 57.2578 151.16 58.2656 151.641L57.9141 152.125C57.1328 151.742 56.4727 150.922 56.1602 149.98C55.8398 151 55.1445 151.898 54.3672 152.297L53.9922 151.812C54.9922 151.324 55.8516 150.004 55.8594 148.82V147.914H54.2422V147.406H58.0234V147.914H56.4609V148.82ZM58.875 153.633V146.688H59.4844V149.5H60.6484V150.023H59.4844V153.633H58.875ZM66.9766 146.688V153.633H66.3828V146.688H66.9766ZM61.1094 149.688C61.1133 148.211 61.6992 147.277 62.6016 147.273C63.4453 147.277 64.0156 148.09 64.0938 149.398H64.9922V146.836H65.5781V153.281H64.9922V149.906H64.0977C64.0391 151.258 63.457 152.105 62.6016 152.102C61.6992 152.105 61.1133 151.164 61.1094 149.688ZM61.6875 149.688C61.6797 150.812 62.0391 151.523 62.6016 151.516C63.168 151.523 63.5273 150.812 63.5234 149.688C63.5273 148.559 63.168 147.852 62.6016 147.852C62.0391 147.852 61.6797 148.559 61.6875 149.688ZM73.8828 146.688V153.633H73.2969V146.688H73.8828ZM67.9453 151.688C69.4531 150.793 70.2109 149.539 70.3281 148.086H68.2422V147.578H70.9375C70.9375 148.262 70.8281 148.922 70.5898 149.539H71.8359V146.875H72.4219V153.281H71.8359V150.039H70.3633C69.9453 150.848 69.2734 151.562 68.3047 152.133L67.9453 151.688ZM83.2109 150.242V150.75H80.3828V152.172H79.7734V150.75H76.8516V150.242H83.2109ZM77.6641 153.484V151.484H78.2812V152.969H82.5V153.484H77.6641ZM77.6797 149.445V147.031H82.3828V149.445H77.6797ZM78.2812 148.953H81.7734V147.516H78.2812V148.953ZM86.0469 147.195C87.1367 147.199 87.9102 147.863 87.9141 148.828C87.9102 149.797 87.1367 150.457 86.0469 150.461C84.9492 150.457 84.168 149.797 84.1719 148.828C84.168 147.863 84.9492 147.199 86.0469 147.195ZM83.8125 151.594C85.0938 151.598 86.8633 151.586 88.3984 151.359L88.4453 151.812C86.8555 152.109 85.1484 152.117 83.8984 152.117L83.8125 151.594ZM84.7734 148.828C84.7695 149.477 85.3047 149.922 86.0469 149.922C86.7812 149.922 87.3164 149.477 87.3125 148.828C87.3164 148.184 86.7812 147.734 86.0469 147.734C85.3047 147.734 84.7695 148.184 84.7734 148.828ZM88.8594 153.648V146.688H89.4688V153.648H88.8594ZM94.1562 147.891V148.391H90.6719V147.891H92.1172V146.898H92.7266V147.891H94.1562ZM90.9219 150.438C90.9219 149.516 91.5508 148.863 92.4141 148.859C93.2891 148.863 93.9141 149.516 93.9219 150.438C93.9141 151.371 93.2891 152.027 92.4141 152.031C91.5508 152.027 90.9219 151.371 90.9219 150.438ZM91.4688 150.438C91.4688 151.055 91.8633 151.496 92.4141 151.492C92.9688 151.496 93.375 151.055 93.375 150.438C93.375 149.828 92.9688 149.383 92.4141 149.375C91.8633 149.383 91.4688 149.828 91.4688 150.438ZM94.5156 153.289V146.859H95.0938V149.617H96.0156V146.688H96.6016V153.633H96.0156V150.125H95.0938V153.289H94.5156ZM103.117 147.672C103.113 148.602 104.352 149.391 105.562 149.57L105.336 150.055C104.254 149.871 103.195 149.293 102.773 148.457C102.352 149.293 101.293 149.871 100.227 150.055L99.9844 149.57C101.191 149.391 102.426 148.602 102.43 147.672V147.625H100.203V147.125H105.336V147.625H103.117V147.672ZM99.6094 151.156V150.648H105.938V151.156H103.062V153.633H102.461V151.156H99.6094ZM108.586 148.664C108.586 149.77 109.125 150.961 110.047 151.508L109.695 151.984C109.023 151.578 108.543 150.836 108.301 149.988C108.047 150.914 107.531 151.711 106.836 152.133L106.445 151.672C107.406 151.109 107.992 149.879 107.992 148.688V147.344H108.586V148.664ZM109.281 149.703V149.18H110.461V146.836H111.039V153.281H110.461V149.703H109.281ZM111.883 153.633V146.688H112.477V153.633H111.883ZM119.797 152.227V152.742H113.438V152.227H115.016V150.355C114.422 150.047 114.062 149.547 114.062 148.914C114.062 147.84 115.117 147.133 116.602 147.125C118.086 147.133 119.141 147.84 119.141 148.914C119.141 149.535 118.793 150.027 118.219 150.336V152.227H119.797ZM114.656 148.914C114.652 149.691 115.461 150.211 116.602 150.211C117.73 150.211 118.547 149.691 118.547 148.914C118.547 148.137 117.73 147.625 116.602 147.633C115.461 147.625 114.652 148.137 114.656 148.914ZM115.617 152.227H117.602V150.574C117.301 150.652 116.965 150.695 116.602 150.695C116.246 150.695 115.914 150.656 115.617 150.578V152.227ZM121.086 153.047C120.812 153.043 120.578 152.816 120.586 152.539C120.578 152.266 120.812 152.039 121.086 152.039C121.363 152.039 121.59 152.266 121.586 152.539C121.59 152.816 121.363 153.043 121.086 153.047Z" fill="#495057"/>
<rect x="40.25" y="184.25" width="26.5" height="15.5" rx="2.75" fill="white"/>
<rect x="40.25" y="184.25" width="26.5" height="15.5" rx="2.75" stroke="#DEE2E6" stroke-width="0.5"/>
<path d="M49.8152 193.326V194.938H45.9304V193.326H49.8152ZM45.302 192.894V192.494H47.6252V192.059C46.6096 192.021 46.0383 191.755 46.0383 191.263C46.0383 190.739 46.7017 190.469 47.8728 190.463C49.0408 190.469 49.7009 190.739 49.7009 191.263C49.7009 191.755 49.1328 192.021 48.1204 192.059V192.494H50.4436V192.894H45.302ZM45.5686 190.234V189.847H47.6252V189.289H48.1204V189.847H50.1453V190.234H45.5686ZM46.4255 194.551H49.3264V193.713H46.4255V194.551ZM46.5715 191.263C46.5684 191.552 47.0444 191.713 47.8728 191.713C48.7012 191.713 49.1709 191.552 49.1741 191.263C49.1709 190.971 48.7012 190.818 47.8728 190.812C47.0444 190.818 46.5684 190.971 46.5715 191.263ZM53.4905 189.739C54.668 189.742 55.5535 190.358 55.5535 191.288C55.5535 192.228 54.668 192.843 53.4905 192.837C52.313 192.843 51.4275 192.228 51.4275 191.288C51.4275 190.358 52.313 189.742 53.4905 189.739ZM50.9197 194.265V193.846H56.0867V194.265H50.9197ZM51.9036 191.288C51.8972 191.974 52.5796 192.431 53.4905 192.431C54.395 192.431 55.071 191.974 55.071 191.288C55.071 190.612 54.395 190.142 53.4905 190.146C52.5796 190.142 51.8972 190.612 51.9036 191.288ZM61.7043 193.897V194.316H56.5374V193.897H58.8606V192.831H57.1848V191.091H60.5618V190.203H57.1721V189.79H61.0505V191.498H57.6799V192.418H61.1838V192.831H59.3494V193.897H61.7043Z" fill="#495057"/>
<rect x="73" y="184" width="35" height="16" rx="3" fill="#212529"/>
<path d="M83.1113 189.352V191.555H84.0254V192.05H83.1113V195.052H82.5083V189.352H83.1113ZM78.9219 193.637V189.898H81.5815V190.387H79.5249V193.135C80.4802 193.132 81.1943 193.091 82.0068 192.945L82.083 193.453C81.1912 193.611 80.4358 193.64 79.3789 193.637H78.9219ZM86.3867 190.799C86.3804 191.837 87.0088 192.885 87.8911 193.275L87.5293 193.751C86.8755 193.44 86.3582 192.802 86.0916 192.024C85.8281 192.859 85.3044 193.545 84.6221 193.878L84.2539 193.37C85.1489 192.973 85.7773 191.885 85.7773 190.799V189.828H86.3867V190.799ZM88.4053 195.052V189.352H89.0083V195.052H88.4053ZM93.5913 190.799C93.585 191.837 94.2134 192.885 95.0957 193.275L94.7339 193.751C94.0801 193.44 93.5627 192.802 93.2961 192.024C93.0327 192.859 92.509 193.545 91.8267 193.878L91.4585 193.37C92.3535 192.973 92.9819 191.885 92.9819 190.799V189.828H93.5913V190.799ZM95.6099 195.052V189.352H96.2129V195.052H95.6099ZM101.729 191.974V192.456H100.009V193.846H102.326V194.341H97.1206V193.846H99.4121V192.456H97.7681V189.79H101.678V190.279H98.3711V191.974H101.729Z" fill="white"/>
</svg>
