<svg width="474" height="237" viewBox="0 0 474 237" fill="none" xmlns="http://www.w3.org/2000/svg">
<path d="M54.6426 102.621V118.617H52.4805V102.621H54.6426ZM40.4746 113.115H41.8105V106.242H40.7734V104.432H48.1035V106.242H47.084V112.896C47.5322 112.852 47.9629 112.808 48.3672 112.746L48.5254 114.363C45.9941 114.899 42.7246 114.961 40.7207 114.961L40.4746 113.115ZM43.7969 113.08C44.21 113.071 44.623 113.054 45.0449 113.036V106.242H43.7969V113.08ZM47.7344 110.443V108.439H49.2812V102.938H51.4082V117.861H49.2812V110.443H47.7344ZM69.6016 102.621V118.652H67.334V102.621H69.6016ZM56.6816 109.441C56.6729 105.952 58.457 103.746 60.918 103.746C63.3262 103.746 65.1191 105.952 65.1191 109.441C65.1191 112.957 63.3262 115.154 60.918 115.154C58.457 115.154 56.6729 112.957 56.6816 109.441ZM58.8438 109.441C58.835 111.823 59.6699 113.124 60.918 113.115C62.1309 113.124 62.9482 111.823 62.957 109.441C62.9482 107.068 62.1309 105.768 60.918 105.768C59.6699 105.768 58.835 107.068 58.8438 109.441ZM77.9688 106.98C77.96 109.564 79.2959 112.333 81.9766 113.449L80.7637 115.207C78.8828 114.407 77.582 112.816 76.8613 110.883C76.1406 112.983 74.8135 114.741 72.9238 115.611L71.6406 113.836C74.2949 112.649 75.666 109.688 75.666 106.98V105.996H72.2734V104.168H81.3086V105.996H77.9688V106.98ZM82.8906 118.617V102.621H85.1582V118.617H82.8906ZM101.945 109.793V111.463H87.3027V109.793H101.945ZM88.9727 113.801V112.254H100.188V116.033H91.2227V116.947H100.662V118.477H88.9902V114.609H97.9727V113.801H88.9727ZM89.0957 104.432V102.902H100.17V106.664H91.3633V107.525H100.451V109.037H89.1309V105.24H97.9199V104.432H89.0957ZM116.148 104.168V105.943H112.914C112.958 107.525 114.101 109.125 116.658 109.775L115.674 111.498C113.819 111.032 112.545 110.03 111.824 108.747C111.112 110.162 109.829 111.27 107.957 111.797L106.902 110.021C109.46 109.362 110.646 107.666 110.682 105.943H107.465V104.168H110.682V102.551H112.949V104.168H116.148ZM108.449 116.842C111.253 116.499 112.817 115.392 113.23 114.188H109.135V112.43H119.91V114.188H115.832C116.245 115.365 117.827 116.508 120.613 116.877L119.822 118.582C117.247 118.239 115.445 117.22 114.514 115.849C113.6 117.211 111.807 118.213 109.258 118.547L108.449 116.842ZM117.467 111.744V102.621H119.717V106.207H121.879V108.053H119.717V111.744H117.467ZM129.877 102.85C133.56 102.85 135.687 103.816 135.695 105.574C135.687 107.358 133.56 108.316 129.877 108.316C126.186 108.316 124.041 107.358 124.041 105.574C124.041 103.816 126.186 102.85 129.877 102.85ZM122.582 110.848V109.072H137.172V110.848H122.582ZM124.27 113.414V111.779H135.396V115.857H126.484V116.824H135.818V118.512H124.287V114.293H133.182V113.414H124.27ZM126.396 105.574C126.388 106.356 127.53 106.664 129.877 106.664C132.241 106.664 133.375 106.356 133.375 105.574C133.375 104.862 132.241 104.484 129.877 104.484C127.53 104.484 126.388 104.862 126.396 105.574ZM150.777 103.869C150.769 105.759 152.702 107.842 156.367 108.299L155.488 110.109C152.693 109.705 150.646 108.413 149.6 106.682C148.545 108.404 146.506 109.705 143.746 110.109L142.85 108.299C146.488 107.842 148.413 105.759 148.422 103.869V103.096H150.777V103.869ZM142.287 113.15V111.322H156.877V113.15H150.654V118.617H148.439V113.15H142.287ZM165.842 111.973V113.572H167.564V111.973H169.639V116.833C171.414 116.024 172.17 114.53 172.17 113.08V111.85H174.42V113.08C174.411 114.715 175.193 116.262 177.197 116.912L176.037 118.582C174.657 118.107 173.77 117.193 173.26 116.042C172.732 117.158 171.854 118.081 170.553 118.582L169.639 117.202V118.441H163.768V111.973H165.842ZM162.203 106.98C162.186 104.783 163.996 103.228 166.457 103.219C168.487 103.228 170.113 104.353 170.553 106.049H173.242V102.621H175.475V111.094H173.242V107.895H170.562C170.131 109.626 168.496 110.777 166.457 110.777C163.996 110.777 162.186 109.213 162.203 106.98ZM164.33 106.98C164.321 108.193 165.2 108.94 166.457 108.949C167.67 108.94 168.54 108.193 168.549 106.98C168.54 105.803 167.67 105.073 166.457 105.064C165.2 105.073 164.321 105.803 164.33 106.98ZM165.842 116.736H167.564V115.225H165.842V116.736ZM181.469 112.219V113.572H188.061V112.219H190.293V118.441H179.254V112.219H181.469ZM177.549 111.41V109.6H192.139V111.41H177.549ZM178.27 107.139C181.838 106.708 183.684 104.968 183.701 103.324V102.779H186.004V103.324C186.004 104.924 187.841 106.734 191.418 107.139L190.627 108.896C187.876 108.545 185.872 107.402 184.844 105.855C183.807 107.402 181.803 108.545 179.078 108.896L178.27 107.139ZM181.469 116.684H188.061V115.277H181.469V116.684ZM206.553 102.621V118.617H204.32V102.621H206.553ZM193.967 114.662V104.15H196.182V112.755C198.344 112.72 200.664 112.518 203.02 112.061L203.301 113.906C200.497 114.495 197.843 114.671 195.373 114.662H193.967ZM221.283 102.621V108.562H223.639V110.391H221.283V118.652H219.033V102.621H221.283ZM209.295 114.768V104.098H216.801V105.908H211.527V112.922C213.848 112.904 215.764 112.781 217.891 112.412L218.137 114.293C215.649 114.715 213.47 114.776 210.648 114.768H209.295ZM226.293 117.158C225.467 117.158 224.799 116.499 224.816 115.682C224.799 114.873 225.467 114.214 226.293 114.223C227.075 114.214 227.752 114.873 227.752 115.682C227.752 116.499 227.075 117.158 226.293 117.158Z" fill="black"/>
<path d="M46.2578 134.688V141.633H45.6641V134.688H46.2578ZM40.2031 139.391C40.418 139.391 40.668 139.391 40.9375 139.387V136.086H40.3516V135.578H43.5469V136.086H42.9609V139.305C43.2227 139.281 43.4727 139.258 43.7031 139.227L43.7422 139.68C42.6445 139.883 41.1875 139.918 40.2812 139.914L40.2031 139.391ZM41.5 139.375C41.7891 139.367 42.0938 139.355 42.3906 139.34V136.086H41.5V139.375ZM43.3438 137.883V137.328H44.3125V134.859H44.8984V141.266H44.3125V137.883H43.3438ZM52.9219 134.688V141.648H52.3047V134.688H52.9219ZM47.4531 137.648C47.457 136.172 48.1914 135.23 49.2266 135.227C50.2578 135.23 51.0039 136.172 51 137.648C51.0039 139.129 50.2578 140.066 49.2266 140.062C48.1914 140.066 47.457 139.129 47.4531 137.648ZM48.0469 137.648C48.0469 138.777 48.5312 139.52 49.2266 139.516C49.9258 139.52 50.4062 138.777 50.4062 137.648C50.4062 136.52 49.9258 135.777 49.2266 135.773C48.5312 135.777 48.0469 136.52 48.0469 137.648ZM56.5938 136.82C56.5977 138 57.4531 139.199 58.4766 139.641L58.1328 140.125C57.3203 139.758 56.6211 138.957 56.2969 137.996C55.9727 139.016 55.2695 139.898 54.4766 140.297L54.1094 139.812C55.1055 139.336 55.9727 138.023 55.9766 136.82V135.914H54.3359V135.406H58.25V135.914H56.5938V136.82ZM59.2188 141.633V134.688H59.8359V141.633H59.2188ZM66.5391 135.672C66.5352 136.602 67.7734 137.391 68.9844 137.57L68.7578 138.055C67.6758 137.871 66.6172 137.293 66.1953 136.457C65.7734 137.293 64.7148 137.871 63.6484 138.055L63.4062 137.57C64.6133 137.391 65.8477 136.602 65.8516 135.672V135.625H63.625V135.125H68.7578V135.625H66.5391V135.672ZM63.0312 139.156V138.648H69.3594V139.156H66.4844V141.633H65.8828V139.156H63.0312ZM76.3047 140.219V140.727H69.9453V140.219H72.7891V138.516H73.3906V140.219H76.3047ZM70.1953 138.086C71.4102 137.879 72.7617 136.863 72.7656 135.695V135.164H73.4062V135.695C73.4102 136.855 74.7812 137.879 75.9922 138.086L75.7188 138.594C74.6602 138.375 73.543 137.66 73.0938 136.66C72.6367 137.656 71.5312 138.375 70.4688 138.594L70.1953 138.086ZM82.2344 134.688V137.516H83.3594V138.031H82.2344V141.633H81.625V134.688H82.2344ZM76.9062 139.828C78.6992 138.938 79.6758 137.598 79.8164 135.953H77.2266V135.438H80.4375C80.4336 137.402 79.5117 139.195 77.25 140.312L76.9062 139.828ZM88.9453 134.773C90.4883 134.773 91.3945 135.203 91.3984 135.977C91.3945 136.707 90.6016 137.129 89.2344 137.18V137.711H92.1094V138.211H85.7812V137.711H88.6328V137.18C87.2734 137.121 86.4844 136.703 86.4844 135.977C86.4844 135.203 87.3945 134.773 88.9453 134.773ZM86.5469 139.273V138.797H91.2969V140.352H87.1719V141.07H91.5078V141.555H86.5625V139.898H90.6953V139.273H86.5469ZM87.125 135.977C87.1172 136.453 87.793 136.711 88.9453 136.719C90.0977 136.711 90.7695 136.453 90.7734 135.977C90.7695 135.52 90.0977 135.25 88.9453 135.242C87.793 135.25 87.1172 135.52 87.125 135.977ZM98.0703 134.688V137.422H99.2344V137.953H98.0703V141.633H97.4609V134.688H98.0703ZM92.9844 139.969V135.281H93.5938V137.117H95.625V135.281H96.2344V139.969H92.9844ZM93.5938 139.453H95.625V137.609H93.5938V139.453ZM105.969 140.242V140.758H99.6094V140.242H105.969ZM100.391 135.727V135.219H105.164V137.32H101.016V138.461H105.328V138.953H100.406V136.82H104.562V135.727H100.391ZM109.008 136.82C109.012 138 109.867 139.199 110.891 139.641L110.547 140.125C109.734 139.758 109.035 138.957 108.711 137.996C108.387 139.016 107.684 139.898 106.891 140.297L106.523 139.812C107.52 139.336 108.387 138.023 108.391 136.82V135.914H106.75V135.406H110.664V135.914H109.008V136.82ZM111.633 141.633V134.688H112.25V141.633H111.633ZM117.383 135.086C118.422 135.09 119.188 135.75 119.188 136.688C119.188 137.637 118.422 138.293 117.383 138.297C116.348 138.293 115.574 137.637 115.578 136.688C115.574 135.75 116.348 135.09 117.383 135.086ZM116.18 136.688C116.176 137.324 116.699 137.789 117.383 137.789C118.07 137.789 118.59 137.324 118.586 136.688C118.59 136.062 118.07 135.602 117.383 135.602C116.699 135.602 116.176 136.062 116.18 136.688ZM116.188 141.445V138.914H116.781V140.941C117.184 140.926 117.719 140.867 118.211 140.703L118.305 141.195C117.629 141.418 116.969 141.449 116.516 141.445H116.188ZM118.062 139.422V138.945H119.523V138.328H120.125V138.945H121.57V139.422H118.062ZM118.523 140.641C118.52 140.039 119.047 139.656 119.812 139.656C120.574 139.656 121.109 140.039 121.117 140.641C121.109 141.242 120.574 141.617 119.812 141.617C119.047 141.617 118.52 141.242 118.523 140.641ZM119.07 140.641C119.07 140.969 119.379 141.176 119.812 141.18C120.246 141.176 120.555 140.969 120.555 140.641C120.555 140.32 120.246 140.105 119.812 140.102C119.379 140.105 119.07 140.32 119.07 140.641ZM120.266 138.164V134.688H120.875V136.258H121.922V136.766H120.875V138.164H120.266ZM128.109 134.688V141.633H127.5V137.992H125.844V137.484H127.5V134.688H128.109ZM122.367 139.82C124.246 138.91 125.117 137.57 125.242 135.945H122.672V135.445H125.859C125.855 137.414 125.023 139.16 122.703 140.312L122.367 139.82ZM135.773 137.461V137.977H134.648V141.633H134.039V134.688H134.648V137.461H135.773ZM129.562 139.867V135.375H130.172V139.352C131.188 139.352 132.223 139.273 133.367 139.031L133.445 139.555C132.246 139.797 131.168 139.867 130.117 139.867H129.562ZM137.328 140.477L136.719 142.602H136.141L136.57 140.477H137.328ZM46.0391 146.695V151.836H45.4219V149.969H43.7812V150.648H40.6328V147.156H41.2422V148.391H43.1797V147.156H43.7812V147.969H45.4219V146.695H46.0391ZM41.2422 150.141H43.1797V148.875H41.2422V150.141ZM41.5469 153.484V151.328H42.1641V152.969H46.1953V153.484H41.5469ZM43.7812 149.461H45.4219V148.484H43.7812V149.461ZM52.9531 146.695V150.867H52.3359V149.93H50.4922V149.422H52.3359V148.484H50.5625C50.1055 149.602 49.0352 150.41 47.5469 150.852L47.2891 150.367C48.9648 149.871 50.0156 148.93 50.1367 147.727H47.6406V147.211H50.8047C50.8047 147.484 50.7734 147.746 50.7148 147.992H52.3359V146.695H52.9531ZM48.3594 152.266C48.3555 151.438 49.2578 150.938 50.6797 150.938C52.0859 150.938 52.9922 151.438 52.9922 152.266C52.9922 153.098 52.0859 153.602 50.6797 153.602C49.2578 153.602 48.3555 153.098 48.3594 152.266ZM48.9609 152.266C48.9648 152.789 49.6328 153.105 50.6797 153.102C51.7109 153.105 52.3789 152.789 52.3828 152.266C52.3789 151.742 51.7109 151.426 50.6797 151.43C49.6328 151.426 48.9648 151.742 48.9609 152.266ZM61.9688 149.914V150.414H59.4531V147.352H61.8828V147.852H60.0703V149.914H61.9688ZM56.1172 152.742V152.234H58.9688V150.766H59.5703V152.234H62.4766V152.742H56.1172ZM56.6719 150.414V147.352H59.0312V147.859H57.2812V149.906C57.8672 149.902 58.4492 149.859 59.0938 149.711L59.1484 150.227C58.3867 150.398 57.7461 150.418 57.0547 150.414H56.6719ZM68.6484 148.797V149.289H63.8906V146.945H64.5V148.797H68.6484ZM63.0234 150.734V150.234H69.3828V150.734H63.0234ZM63.8516 153.461V151.445H64.4609V152.953H68.6875V153.461H63.8516ZM74.2891 147.805C74.2852 148.75 75.0039 149.617 76.0234 149.969L75.7031 150.453C74.9141 150.176 74.3008 149.59 74 148.855C73.707 149.664 73.082 150.289 72.2578 150.594L71.9375 150.102C72.9883 149.73 73.6836 148.816 73.6875 147.766V147.047H74.2891V147.805ZM72.8359 151.742V151.242H77.3828V153.633H76.7734V151.742H72.8359ZM76.7734 150.898V146.688H77.3828V148.531H78.4297V149.055H77.3828V150.898H76.7734ZM84.8047 146.688V153.633H84.2188V146.688H84.8047ZM78.7812 151.781C79.75 151.203 80.3164 149.934 80.3125 148.672V148.016H78.9766V147.508H82.1797V148.016H80.9062V148.672C80.9062 149.871 81.4492 151.07 82.4062 151.625L82.0312 152.078C81.3477 151.668 80.8633 150.918 80.6211 150.035C80.3711 150.992 79.8672 151.809 79.1719 152.242L78.7812 151.781ZM81.6484 149.695V149.195H82.8203V146.859H83.3984V153.273H82.8203V149.695H81.6484ZM89.9219 149.688V150.195H88.3984V151.562C89.0781 151.535 89.7617 151.488 90.4062 151.414L90.4531 151.875C88.9141 152.098 87.2344 152.129 85.9062 152.125L85.8203 151.609C86.4258 151.609 87.0977 151.605 87.7891 151.586V150.195H86.3516V147.352H89.8906V147.852H86.9531V149.688H89.9219ZM90.8672 153.648V146.688H91.4766V153.648H90.8672ZM94.5625 147.227C95.5078 147.23 96.1914 148.043 96.2852 149.344H97.8438V146.688H98.4531V153.648H97.8438V149.852H96.293C96.2266 151.215 95.5312 152.066 94.5625 152.062C93.5352 152.066 92.8164 151.129 92.8203 149.648C92.8164 148.172 93.5352 147.23 94.5625 147.227ZM93.4062 149.648C93.4102 150.777 93.8789 151.52 94.5625 151.516C95.2422 151.52 95.7188 150.777 95.7188 149.648C95.7188 148.52 95.2422 147.777 94.5625 147.773C93.8789 147.777 93.4102 148.52 93.4062 149.648ZM103.945 148.555C103.945 149.777 104.754 151.039 105.742 151.523L105.367 152.016C104.602 151.617 103.961 150.793 103.652 149.828C103.344 150.852 102.688 151.73 101.906 152.148L101.516 151.656C102.531 151.156 103.336 149.824 103.344 148.555V147.289H103.945V148.555ZM106.383 153.633V146.688H106.992V149.508H108.156V150.039H106.992V153.633H106.383ZM114.859 150.125V150.633H108.531V150.125H110.102V149.145C109.547 148.93 109.234 148.578 109.234 148.109C109.234 147.293 110.172 146.824 111.695 146.82C113.207 146.824 114.145 147.293 114.148 148.109C114.145 148.574 113.836 148.926 113.289 149.145V150.125H114.859ZM109.297 152.391C109.293 151.598 110.188 151.16 111.695 151.164C113.184 151.16 114.078 151.598 114.086 152.391C114.078 153.184 113.184 153.617 111.695 153.617C110.188 153.617 109.293 153.184 109.297 152.391ZM109.867 148.109C109.863 148.617 110.559 148.91 111.695 148.914C112.82 148.91 113.52 148.617 113.523 148.109C113.52 147.609 112.82 147.305 111.695 147.305C110.559 147.305 109.863 147.609 109.867 148.109ZM109.922 152.391C109.914 152.863 110.582 153.145 111.695 153.141C112.797 153.145 113.465 152.863 113.469 152.391C113.465 151.918 112.797 151.641 111.695 151.633C110.582 151.641 109.914 151.918 109.922 152.391ZM110.711 150.125H112.68V149.309C112.387 149.363 112.059 149.391 111.695 149.391C111.332 149.391 111.004 149.363 110.711 149.312V150.125ZM120.875 146.664V148.352H121.93V148.859H120.875V150.508H120.266V146.664H120.875ZM115.461 147.812V147.32H117.227V146.617H117.836V147.32H119.602V147.812H115.461ZM115.859 149.266C115.855 148.562 116.52 148.129 117.531 148.125C118.539 148.129 119.195 148.562 119.203 149.266C119.195 149.973 118.539 150.402 117.531 150.406C116.52 150.402 115.855 149.973 115.859 149.266ZM116.445 151.328V150.867H120.875V152.406H117.062V153.086H121.133V153.555H116.461V151.953H120.266V151.328H116.445ZM116.445 149.266C116.441 149.684 116.871 149.945 117.531 149.945C118.188 149.945 118.617 149.684 118.625 149.266C118.617 148.852 118.188 148.582 117.531 148.578C116.871 148.582 116.441 148.852 116.445 149.266ZM127.852 147.336C127.855 148.316 129.129 149.16 130.383 149.336L130.133 149.836C129.055 149.656 127.984 149.059 127.539 148.207C127.094 149.066 126.027 149.656 124.945 149.836L124.695 149.336C125.949 149.16 127.219 148.332 127.219 147.336V146.938H127.852V147.336ZM124.367 151.117V150.602H130.695V151.117H127.82V153.633H127.219V151.117H124.367ZM134.672 150.766V151.633H135.938V150.766H136.508V153.539H134.094V150.766H134.672ZM133.398 148.594C133.395 147.645 134.145 147 135.203 147C136.137 147 136.844 147.527 136.977 148.328H138.43V146.688H139.047V150.367H138.43V148.836H136.98C136.859 149.656 136.145 150.195 135.203 150.195C134.145 150.195 133.395 149.547 133.398 148.594ZM133.984 148.594C133.984 149.23 134.488 149.684 135.203 149.688C135.902 149.684 136.406 149.23 136.406 148.594C136.406 147.961 135.902 147.516 135.203 147.516C134.488 147.516 133.984 147.961 133.984 148.594ZM134.672 153.055H135.938V152.102H134.672V153.055ZM136.602 153.125C137.438 152.777 137.879 152.016 137.883 151.312V150.719H138.492V151.312C138.484 152.043 138.926 152.812 139.773 153.125L139.453 153.594C138.812 153.34 138.395 152.848 138.18 152.273C137.961 152.84 137.535 153.332 136.922 153.594L136.602 153.125ZM141.617 150.859V151.672H145.086V150.859H145.703V153.539H141.008V150.859H141.617ZM140.203 150.367V149.859H146.531V150.367H140.203ZM140.562 148.875C141.801 148.707 143.055 147.977 143.055 147.094V146.766H143.688V147.094C143.684 147.949 144.949 148.719 146.172 148.875L145.945 149.367C144.871 149.207 143.812 148.66 143.371 147.883C142.93 148.664 141.867 149.207 140.797 149.367L140.562 148.875ZM141.617 153.047H145.086V152.156H141.617V153.047ZM152.844 146.688V153.633H152.234V146.688H152.844ZM147.57 151.844V147.375H148.172V151.312C149.234 151.305 150.328 151.223 151.492 150.977L151.578 151.5C150.344 151.758 149.246 151.844 148.133 151.844H147.57ZM159.406 146.688V149.438H160.57V149.953H159.406V153.648H158.797V146.688H159.406ZM154.336 151.906V147.367H157.578V147.875H154.945V151.391C156.203 151.387 157.09 151.332 158.125 151.141L158.203 151.672C157.113 151.867 156.203 151.906 154.883 151.906H154.336ZM161.68 153.047C161.406 153.043 161.172 152.816 161.18 152.539C161.172 152.266 161.406 152.039 161.68 152.039C161.957 152.039 162.184 152.266 162.18 152.539C162.184 152.816 161.957 153.043 161.68 153.047Z" fill="#495057"/>
<rect x="40.25" y="184.25" width="26.5" height="15.5" rx="2.75" fill="white"/>
<rect x="40.25" y="184.25" width="26.5" height="15.5" rx="2.75" stroke="#DEE2E6" stroke-width="0.5"/>
<path d="M49.8152 193.326V194.938H45.9304V193.326H49.8152ZM45.302 192.894V192.494H47.6252V192.059C46.6096 192.021 46.0383 191.755 46.0383 191.263C46.0383 190.739 46.7017 190.469 47.8728 190.463C49.0408 190.469 49.7009 190.739 49.7009 191.263C49.7009 191.755 49.1328 192.021 48.1204 192.059V192.494H50.4436V192.894H45.302ZM45.5686 190.234V189.847H47.6252V189.289H48.1204V189.847H50.1453V190.234H45.5686ZM46.4255 194.551H49.3264V193.713H46.4255V194.551ZM46.5715 191.263C46.5684 191.552 47.0444 191.713 47.8728 191.713C48.7012 191.713 49.1709 191.552 49.1741 191.263C49.1709 190.971 48.7012 190.818 47.8728 190.812C47.0444 190.818 46.5684 190.971 46.5715 191.263ZM53.4905 189.739C54.668 189.742 55.5535 190.358 55.5535 191.288C55.5535 192.228 54.668 192.843 53.4905 192.837C52.313 192.843 51.4275 192.228 51.4275 191.288C51.4275 190.358 52.313 189.742 53.4905 189.739ZM50.9197 194.265V193.846H56.0867V194.265H50.9197ZM51.9036 191.288C51.8972 191.974 52.5796 192.431 53.4905 192.431C54.395 192.431 55.071 191.974 55.071 191.288C55.071 190.612 54.395 190.142 53.4905 190.146C52.5796 190.142 51.8972 190.612 51.9036 191.288ZM61.7043 193.897V194.316H56.5374V193.897H58.8606V192.831H57.1848V191.091H60.5618V190.203H57.1721V189.79H61.0505V191.498H57.6799V192.418H61.1838V192.831H59.3494V193.897H61.7043Z" fill="#495057"/>
<rect x="73" y="184" width="33" height="16" rx="3" fill="#212529"/>
<path d="M83.1841 189.352V195.052H82.5811V189.352H83.1841ZM78.6709 191.771C78.6709 190.555 79.2834 189.781 80.1436 189.777C80.9878 189.781 81.6099 190.555 81.6099 191.771C81.6099 192.999 80.9878 193.773 80.1436 193.77C79.2834 193.773 78.6709 192.999 78.6709 191.771ZM79.2549 191.771C79.2517 192.675 79.6135 193.23 80.1436 193.23C80.6641 193.23 81.0259 192.675 81.0259 191.771C81.0259 190.879 80.6641 190.32 80.1436 190.317C79.6135 190.32 79.2517 190.879 79.2549 191.771ZM88.8335 189.358V193.522H88.2305V191.383H87.145V190.895H88.2305V189.358H88.8335ZM84.0981 192.335C84.9709 192.04 85.5168 191.291 85.5137 190.507V190.285H84.2822V189.79H87.3481V190.285H86.1294V190.507C86.1262 191.215 86.6404 191.929 87.5005 192.215L87.1895 192.697C86.5515 192.475 86.0786 192.018 85.8311 191.453C85.5835 192.082 85.0852 192.583 84.4092 192.824L84.0981 192.335ZM85.1392 194.919V193.148H85.7422V194.43H88.9858V194.919H85.1392ZM92.2993 189.695C93.4927 189.695 94.4004 190.326 94.4004 191.282C94.4004 192.243 93.4927 192.872 92.2993 192.869C91.1091 192.872 90.2014 192.243 90.2046 191.282C90.2014 190.326 91.1091 189.695 92.2993 189.695ZM89.7095 194.303V193.802H94.9146V194.303H89.7095ZM90.7822 191.282C90.7791 191.945 91.4265 192.374 92.2993 192.374C93.1689 192.374 93.8132 191.945 93.8164 191.282C93.8132 190.622 93.1689 190.18 92.2993 190.184C91.4265 190.18 90.7791 190.622 90.7822 191.282ZM100.532 193.853V194.36H95.3271V193.853H97.6187V192.856H95.9619V191.047H99.3008V190.247H95.9492V189.752H99.8975V191.529H96.5586V192.361H100.031V192.856H98.2153V193.853H100.532Z" fill="white"/>
</svg>
