<svg width="474" height="237" viewBox="0 0 474 237" fill="none" xmlns="http://www.w3.org/2000/svg">
<path d="M49.7383 103.553V105.346H46.5566C46.5654 107.218 47.6904 109.143 50.2832 109.969L49.1406 111.709C47.3652 111.129 46.1436 109.986 45.4492 108.562C44.7373 110.118 43.4541 111.366 41.5996 111.973L40.4043 110.25C43.0498 109.397 44.2627 107.341 44.2891 105.346H41.0195V103.553H49.7383ZM42.5664 114.732V112.957H53.3418V118.617H51.0918V114.732H42.5664ZM51.0918 112.271V102.621H53.3418V106.506H55.5039V108.369H53.3418V112.271H51.0918ZM60.6719 103.307C62.7109 103.289 64.3369 104.458 64.7764 106.172H67.457V102.621H69.6895V111.217H67.457V107.965H64.7852C64.3721 109.723 62.7285 110.918 60.6719 110.918C58.2109 110.918 56.4004 109.318 56.418 107.086C56.4004 104.897 58.2109 103.289 60.6719 103.307ZM58.5449 107.086C58.5361 108.281 59.415 109.037 60.6719 109.037C61.8848 109.037 62.7549 108.281 62.7637 107.086C62.7549 105.891 61.8848 105.161 60.6719 105.17C59.415 105.161 58.5361 105.891 58.5449 107.086ZM59.0195 118.441V111.92H61.2344V113.467H67.457V111.92H69.6895V118.441H59.0195ZM61.2344 116.631H67.457V115.189H61.2344V116.631ZM79.0586 102.85C82.7412 102.85 84.8682 103.816 84.877 105.574C84.8682 107.358 82.7412 108.316 79.0586 108.316C75.3672 108.316 73.2227 107.358 73.2227 105.574C73.2227 103.816 75.3672 102.85 79.0586 102.85ZM71.7637 110.848V109.072H86.3535V110.848H71.7637ZM73.4512 113.414V111.779H84.5781V115.857H75.666V116.824H85V118.512H73.4688V114.293H82.3633V113.414H73.4512ZM75.5781 105.574C75.5693 106.356 76.7119 106.664 79.0586 106.664C81.4229 106.664 82.5566 106.356 82.5566 105.574C82.5566 104.862 81.4229 104.484 79.0586 104.484C76.7119 104.484 75.5693 104.862 75.5781 105.574ZM96.2852 103.271C98.623 103.28 100.302 104.59 100.311 106.523C100.302 108.088 99.1592 109.283 97.4453 109.652V110.821C98.7021 110.742 99.9502 110.628 101.119 110.461L101.295 112.096C97.999 112.676 94.334 112.755 91.6621 112.746L91.4336 110.971C92.541 110.971 93.833 110.962 95.1953 110.927V109.67C93.4287 109.318 92.251 108.114 92.2598 106.523C92.251 104.59 93.9297 103.28 96.2852 103.271ZM93.543 118.318V113.766H95.793V116.525H104.811V118.318H93.543ZM94.3516 106.523C94.334 107.499 95.1514 108.062 96.2852 108.07C97.4365 108.062 98.2012 107.499 98.2012 106.523C98.2012 105.521 97.4277 104.977 96.2852 104.959C95.1514 104.977 94.334 105.521 94.3516 106.523ZM102.016 114.838V102.639H104.266V107.666H106.305V109.529H104.266V114.838H102.016ZM121.668 114.996V116.842H107.025V114.996H110.77V112.553H108.713V107.174H117.766V105.451H108.695V103.658H119.98V108.967H110.963V110.742H120.35V112.553H118.082V114.996H121.668ZM112.949 114.996H115.885V112.553H112.949V114.996ZM135.273 102.586V106.066H137.436V107.859H135.273V111.252H133.023V102.586H135.273ZM122.582 105.521V103.816H126.221V102.516H128.453V103.816H132.074V105.521H122.582ZM123.355 108.527C123.355 106.928 124.946 105.917 127.328 105.908C129.728 105.917 131.266 106.928 131.266 108.527C131.266 110.162 129.728 111.138 127.328 111.146C124.946 111.138 123.355 110.162 123.355 108.527ZM124.656 113.52V111.902H135.273V115.945H126.889V116.859H135.73V118.512H124.691V114.416H133.041V113.52H124.656ZM125.553 108.527C125.544 109.213 126.221 109.538 127.328 109.547C128.444 109.538 129.139 109.213 129.139 108.527C129.139 107.851 128.444 107.481 127.328 107.49C126.221 107.481 125.544 107.851 125.553 108.527ZM150.777 103.869C150.769 105.759 152.702 107.842 156.367 108.299L155.488 110.109C152.693 109.705 150.646 108.413 149.6 106.682C148.545 108.404 146.506 109.705 143.746 110.109L142.85 108.299C146.488 107.842 148.413 105.759 148.422 103.869V103.096H150.777V103.869ZM142.287 113.15V111.322H156.877V113.15H150.654V118.617H148.439V113.15H142.287ZM165.842 111.973V113.572H167.564V111.973H169.639V116.833C171.414 116.024 172.17 114.53 172.17 113.08V111.85H174.42V113.08C174.411 114.715 175.193 116.262 177.197 116.912L176.037 118.582C174.657 118.107 173.77 117.193 173.26 116.042C172.732 117.158 171.854 118.081 170.553 118.582L169.639 117.202V118.441H163.768V111.973H165.842ZM162.203 106.98C162.186 104.783 163.996 103.228 166.457 103.219C168.487 103.228 170.113 104.353 170.553 106.049H173.242V102.621H175.475V111.094H173.242V107.895H170.562C170.131 109.626 168.496 110.777 166.457 110.777C163.996 110.777 162.186 109.213 162.203 106.98ZM164.33 106.98C164.321 108.193 165.2 108.94 166.457 108.949C167.67 108.94 168.54 108.193 168.549 106.98C168.54 105.803 167.67 105.073 166.457 105.064C165.2 105.073 164.321 105.803 164.33 106.98ZM165.842 116.736H167.564V115.225H165.842V116.736ZM181.469 112.219V113.572H188.061V112.219H190.293V118.441H179.254V112.219H181.469ZM177.549 111.41V109.6H192.139V111.41H177.549ZM178.27 107.139C181.838 106.708 183.684 104.968 183.701 103.324V102.779H186.004V103.324C186.004 104.924 187.841 106.734 191.418 107.139L190.627 108.896C187.876 108.545 185.872 107.402 184.844 105.855C183.807 107.402 181.803 108.545 179.078 108.896L178.27 107.139ZM181.469 116.684H188.061V115.277H181.469V116.684ZM206.553 102.621V118.617H204.32V102.621H206.553ZM193.967 114.662V104.15H196.182V112.755C198.344 112.72 200.664 112.518 203.02 112.061L203.301 113.906C200.497 114.495 197.843 114.671 195.373 114.662H193.967ZM221.283 102.621V108.562H223.639V110.391H221.283V118.652H219.033V102.621H221.283ZM209.295 114.768V104.098H216.801V105.908H211.527V112.922C213.848 112.904 215.764 112.781 217.891 112.412L218.137 114.293C215.649 114.715 213.47 114.776 210.648 114.768H209.295ZM226.293 117.158C225.467 117.158 224.799 116.499 224.816 115.682C224.799 114.873 225.467 114.214 226.293 114.223C227.075 114.214 227.752 114.873 227.752 115.682C227.752 116.499 227.075 117.158 226.293 117.158Z" fill="black"/>
<path d="M41.2344 135.445V139.336C41.9883 139.328 42.6992 139.285 43.5312 139.109L43.6172 139.641C42.6914 139.836 41.9102 139.871 41.0625 139.875H40.625V135.445H41.2344ZM42.5703 137.539V137.031H44.1562V134.859H44.7422V141.281H44.1562V137.539H42.5703ZM45.6406 141.633V134.688H46.2266V141.633H45.6406ZM52.8203 138.445V138.945H48.0156V135.289H52.7422V135.805H48.6406V136.836H52.5938V137.328H48.6406V138.445H52.8203ZM47.1953 140.727V140.219H53.5547V140.727H47.1953ZM59.8594 134.695V141.641H59.2344V139.914H57.6328V139.445H59.2344V134.695H59.8594ZM54.0781 138.352C55.4023 138.348 57.1641 138.344 58.6953 138.125L58.7344 138.586C58.0469 138.703 57.332 138.77 56.6406 138.812V141.422H56.0234V138.844C55.3594 138.867 54.7227 138.875 54.1641 138.875L54.0781 138.352ZM54.6094 136.406C54.6055 135.59 55.3242 135.039 56.3672 135.039C57.3984 135.039 58.1211 135.59 58.1172 136.406C58.1211 137.23 57.3984 137.762 56.3672 137.766C55.3242 137.762 54.6055 137.23 54.6094 136.406ZM55.1875 136.406C55.1836 136.934 55.668 137.293 56.3672 137.289C57.0508 137.293 57.5352 136.934 57.5391 136.406C57.5352 135.883 57.0508 135.52 56.3672 135.516C55.668 135.52 55.1836 135.883 55.1875 136.406ZM66.5625 135.398V136.258C66.5664 137.281 66.5664 138.227 66.2734 139.633L65.6562 139.578C65.8125 138.91 65.8867 138.332 65.9258 137.793L61.6875 138.023L61.6016 137.516L65.9531 137.336C65.9648 136.969 65.9688 136.613 65.9688 136.258V135.914H61.7891V135.398H66.5625ZM61.0234 140.656V140.141H67.3516V140.656H61.0234ZM72.2656 135.812C72.2656 136.758 72.9844 137.625 73.9922 137.969L73.6562 138.453C72.8906 138.172 72.2852 137.598 71.9805 136.871C71.6836 137.695 71.0625 138.332 70.25 138.648L69.9219 138.156C70.9609 137.77 71.6602 136.84 71.6641 135.766V135.047H72.2656V135.812ZM70.8438 140.352C70.8477 139.559 71.7188 139.094 73.1484 139.094C74.5742 139.094 75.4375 139.559 75.4375 140.352C75.4375 141.16 74.5742 141.617 73.1484 141.617C71.7188 141.617 70.8477 141.16 70.8438 140.352ZM71.4609 140.352C71.4531 140.844 72.1016 141.129 73.1484 141.133C74.1992 141.129 74.8398 140.844 74.8438 140.352C74.8398 139.879 74.1992 139.586 73.1484 139.586C72.1016 139.586 71.4531 139.879 71.4609 140.352ZM74.7656 138.914V134.688H75.375V136.5H76.4219V137.016H75.375V138.914H74.7656ZM79.8906 135.492V135.992H77.7266V137.328H79.7891V137.82H77.7266V139.391C78.7578 139.387 79.3984 139.355 80.1562 139.219L80.2109 139.727C79.3945 139.883 78.7266 139.918 77.5859 139.914H77.1406V135.492H79.8906ZM80.6719 141.281V134.836H81.2656V137.484H82.2188V134.688H82.8125V141.633H82.2188V137.992H81.2656V141.281H80.6719ZM90.125 137.914V138.398H83.7656V137.914H90.125ZM84.5312 139.414V138.953H89.3281V140.43H85.1562V141.094H89.5547V141.539H84.5391V140.008H88.7188V139.414H84.5312ZM84.5703 135.344V134.898H89.3047V136.336H85.2031V136.945H89.4297V137.391H84.5938V135.914H88.6875V135.344H84.5703ZM98.1172 134.695V136.797H99.1562V137.312H98.1172V139.352H97.5V134.695H98.1172ZM92.6641 138.641C93.2188 138.641 93.8672 138.641 94.5469 138.621V138.109C93.7383 138.035 93.2148 137.664 93.2188 137.086C93.2148 136.453 93.8672 136.062 94.8438 136.062C95.8281 136.062 96.4688 136.453 96.4766 137.086C96.4688 137.66 95.9609 138.031 95.1562 138.109V138.598C95.8047 138.566 96.4609 138.512 97.0703 138.422L97.125 138.867C95.6172 139.133 93.957 139.145 92.7344 139.141L92.6641 138.641ZM92.8359 135.797V135.328H94.5469V134.633H95.1562V135.328H96.8594V135.797H92.8359ZM93.5156 140.188V139.695H98.1172V141.633H97.5V140.188H93.5156ZM93.8047 137.086C93.8008 137.449 94.2031 137.695 94.8438 137.688C95.4844 137.695 95.8906 137.449 95.8906 137.086C95.8906 136.719 95.4844 136.492 94.8438 136.5C94.2031 136.492 93.8008 136.719 93.8047 137.086ZM105.344 134.695V139.773H104.734V134.695H105.344ZM99.7734 136.883C99.7695 135.883 100.555 135.184 101.594 135.18C102.633 135.184 103.41 135.883 103.414 136.883C103.41 137.895 102.633 138.598 101.594 138.594C100.555 138.598 99.7695 137.895 99.7734 136.883ZM100.375 136.883C100.367 137.574 100.891 138.055 101.594 138.055C102.285 138.055 102.812 137.574 102.812 136.883C102.812 136.203 102.285 135.719 101.594 135.719C100.891 135.719 100.367 136.203 100.375 136.883ZM100.859 141.484V139.258H101.469V140.969H105.562V141.484H100.859ZM111.898 134.688V137.555H113.062V138.062H111.898V141.633H111.289V134.688H111.898ZM106.484 136.312V135.805H108.273V134.773H108.883V135.805H110.617V136.312H106.484ZM106.883 138.484C106.879 137.547 107.598 136.891 108.586 136.891C109.566 136.891 110.281 137.547 110.289 138.484C110.281 139.426 109.566 140.078 108.586 140.078C107.598 140.078 106.879 139.426 106.883 138.484ZM107.469 138.484C107.465 139.117 107.938 139.562 108.586 139.555C109.227 139.562 109.695 139.117 109.703 138.484C109.695 137.855 109.227 137.402 108.586 137.406C107.938 137.402 107.465 137.855 107.469 138.484ZM119.188 134.688V141.633H118.578V137.992H116.922V137.484H118.578V134.688H119.188ZM113.445 139.82C115.324 138.91 116.195 137.57 116.32 135.945H113.75V135.445H116.938C116.934 137.414 116.102 139.16 113.781 140.312L113.445 139.82ZM126.852 137.461V137.977H125.727V141.633H125.117V134.688H125.727V137.461H126.852ZM120.641 139.867V135.375H121.25V139.352C122.266 139.352 123.301 139.273 124.445 139.031L124.523 139.555C123.324 139.797 122.246 139.867 121.195 139.867H120.641ZM128.406 140.477L127.797 142.602H127.219L127.648 140.477H128.406ZM42.6328 147.945C42.625 148.867 43.3086 149.695 44.3438 150.039L44.0312 150.531C43.2383 150.258 42.6289 149.691 42.332 148.984C42.0312 149.77 41.3945 150.391 40.5703 150.695L40.25 150.195C41.2969 149.84 42.0117 148.949 42.0156 147.953V147.68H40.4375V147.18H44.1797V147.68H42.6328V147.945ZM41.3281 153.539V151.102H45.7109V153.539H41.3281ZM41.9297 153.039H45.1016V151.594H41.9297V153.039ZM45.1016 150.781V146.688H45.7109V148.422H46.7578V148.938H45.7109V150.781H45.1016ZM49.6641 148.555C49.6602 149.824 50.5234 151.098 51.5469 151.562L51.1719 152.047C50.3789 151.664 49.6953 150.84 49.3633 149.852C49.043 150.898 48.3594 151.777 47.5469 152.188L47.1562 151.672C48.1914 151.199 49.0469 149.871 49.0547 148.555V147.289H49.6641V148.555ZM52.3047 153.648V146.688H52.9219V153.648H52.3047ZM62.0781 147.484V147.992H56.4453V147.484H58.9766V146.648H59.5781V147.484H62.0781ZM56.1172 151.695V151.188H62.4766V151.695H59.5781V153.648H58.9766V151.695H56.1172ZM57.0156 149.555C57.0078 148.805 57.8594 148.391 59.2812 148.391C60.6914 148.391 61.543 148.805 61.5469 149.555C61.543 150.289 60.6914 150.703 59.2812 150.711C57.8594 150.703 57.0078 150.289 57.0156 149.555ZM57.6484 149.555C57.6406 149.984 58.2461 150.238 59.2812 150.234C60.3047 150.238 60.9062 149.984 60.9141 149.555C60.9062 149.117 60.3047 148.863 59.2812 148.859C58.2461 148.863 57.6406 149.117 57.6484 149.555ZM70.4141 146.688V149.438H71.5781V149.953H70.4141V153.648H69.8047V146.688H70.4141ZM65.3438 151.906V147.367H68.5859V147.875H65.9531V151.391C67.2109 151.387 68.0977 151.332 69.1328 151.141L69.2109 151.672C68.1211 151.867 67.2109 151.906 65.8906 151.906H65.3438ZM74.4219 148.555C74.418 149.824 75.2812 151.098 76.3047 151.562L75.9297 152.047C75.1367 151.664 74.4531 150.84 74.1211 149.852C73.8008 150.898 73.1172 151.777 72.3047 152.188L71.9141 151.672C72.9492 151.199 73.8047 149.871 73.8125 148.555V147.289H74.4219V148.555ZM77.0625 153.648V146.688H77.6797V153.648H77.0625ZM83.3438 148.555C83.3398 149.824 84.2031 151.098 85.2266 151.562L84.8516 152.047C84.0586 151.664 83.375 150.84 83.043 149.852C82.7227 150.898 82.0391 151.777 81.2266 152.188L80.8359 151.672C81.8711 151.199 82.7266 149.871 82.7344 148.555V147.289H83.3438V148.555ZM85.9844 153.648V146.688H86.6016V153.648H85.9844ZM93.3984 149.945V150.445H91.25V152.242H94.1484V152.758H87.7891V152.242H90.6484V150.445H88.6016V147.258H93.3281V147.758H89.2188V149.945H93.3984ZM98.1719 147.891V148.391H94.6875V147.891H96.1328V146.898H96.7422V147.891H98.1719ZM94.9375 150.438C94.9375 149.516 95.5664 148.863 96.4297 148.859C97.3047 148.863 97.9297 149.516 97.9375 150.438C97.9297 151.371 97.3047 152.027 96.4297 152.031C95.5664 152.027 94.9375 151.371 94.9375 150.438ZM95.4844 150.438C95.4844 151.055 95.8789 151.496 96.4297 151.492C96.9844 151.496 97.3906 151.055 97.3906 150.438C97.3906 149.828 96.9844 149.383 96.4297 149.375C95.8789 149.383 95.4844 149.828 95.4844 150.438ZM98.5312 153.289V146.859H99.1094V149.617H100.031V146.688H100.617V153.633H100.031V150.125H99.1094V153.289H98.5312ZM107.133 147.672C107.129 148.602 108.367 149.391 109.578 149.57L109.352 150.055C108.27 149.871 107.211 149.293 106.789 148.457C106.367 149.293 105.309 149.871 104.242 150.055L104 149.57C105.207 149.391 106.441 148.602 106.445 147.672V147.625H104.219V147.125H109.352V147.625H107.133V147.672ZM103.625 151.156V150.648H109.953V151.156H107.078V153.633H106.477V151.156H103.625ZM112.602 148.664C112.602 149.77 113.141 150.961 114.062 151.508L113.711 151.984C113.039 151.578 112.559 150.836 112.316 149.988C112.062 150.914 111.547 151.711 110.852 152.133L110.461 151.672C111.422 151.109 112.008 149.879 112.008 148.688V147.344H112.602V148.664ZM113.297 149.703V149.18H114.477V146.836H115.055V153.281H114.477V149.703H113.297ZM115.898 153.633V146.688H116.492V153.633H115.898ZM123.812 152.227V152.742H117.453V152.227H119.031V150.355C118.438 150.047 118.078 149.547 118.078 148.914C118.078 147.84 119.133 147.133 120.617 147.125C122.102 147.133 123.156 147.84 123.156 148.914C123.156 149.535 122.809 150.027 122.234 150.336V152.227H123.812ZM118.672 148.914C118.668 149.691 119.477 150.211 120.617 150.211C121.746 150.211 122.562 149.691 122.562 148.914C122.562 148.137 121.746 147.625 120.617 147.633C119.477 147.625 118.668 148.137 118.672 148.914ZM119.633 152.227H121.617V150.574C121.316 150.652 120.98 150.695 120.617 150.695C120.262 150.695 119.93 150.656 119.633 150.578V152.227ZM125.102 153.047C124.828 153.043 124.594 152.816 124.602 152.539C124.594 152.266 124.828 152.039 125.102 152.039C125.379 152.039 125.605 152.266 125.602 152.539C125.605 152.816 125.379 153.043 125.102 153.047Z" fill="#495057"/>
<rect x="40.25" y="184.25" width="26.5" height="15.5" rx="2.75" fill="white"/>
<rect x="40.25" y="184.25" width="26.5" height="15.5" rx="2.75" stroke="#DEE2E6" stroke-width="0.5"/>
<path d="M49.8152 193.326V194.938H45.9304V193.326H49.8152ZM45.302 192.894V192.494H47.6252V192.059C46.6096 192.021 46.0383 191.755 46.0383 191.263C46.0383 190.739 46.7017 190.469 47.8728 190.463C49.0408 190.469 49.7009 190.739 49.7009 191.263C49.7009 191.755 49.1328 192.021 48.1204 192.059V192.494H50.4436V192.894H45.302ZM45.5686 190.234V189.847H47.6252V189.289H48.1204V189.847H50.1453V190.234H45.5686ZM46.4255 194.551H49.3264V193.713H46.4255V194.551ZM46.5715 191.263C46.5684 191.552 47.0444 191.713 47.8728 191.713C48.7012 191.713 49.1709 191.552 49.1741 191.263C49.1709 190.971 48.7012 190.818 47.8728 190.812C47.0444 190.818 46.5684 190.971 46.5715 191.263ZM53.4905 189.739C54.668 189.742 55.5535 190.358 55.5535 191.288C55.5535 192.228 54.668 192.843 53.4905 192.837C52.313 192.843 51.4275 192.228 51.4275 191.288C51.4275 190.358 52.313 189.742 53.4905 189.739ZM50.9197 194.265V193.846H56.0867V194.265H50.9197ZM51.9036 191.288C51.8972 191.974 52.5796 192.431 53.4905 192.431C54.395 192.431 55.071 191.974 55.071 191.288C55.071 190.612 54.395 190.142 53.4905 190.146C52.5796 190.142 51.8972 190.612 51.9036 191.288ZM61.7043 193.897V194.316H56.5374V193.897H58.8606V192.831H57.1848V191.091H60.5618V190.203H57.1721V189.79H61.0505V191.498H57.6799V192.418H61.1838V192.831H59.3494V193.897H61.7043Z" fill="#495057"/>
<rect x="73" y="184" width="33" height="16" rx="3" fill="#212529"/>
<path d="M83.1841 189.352V195.052H82.5811V189.352H83.1841ZM78.6709 191.771C78.6709 190.555 79.2834 189.781 80.1436 189.777C80.9878 189.781 81.6099 190.555 81.6099 191.771C81.6099 192.999 80.9878 193.773 80.1436 193.77C79.2834 193.773 78.6709 192.999 78.6709 191.771ZM79.2549 191.771C79.2517 192.675 79.6135 193.23 80.1436 193.23C80.6641 193.23 81.0259 192.675 81.0259 191.771C81.0259 190.879 80.6641 190.32 80.1436 190.317C79.6135 190.32 79.2517 190.879 79.2549 191.771ZM88.8335 189.358V193.522H88.2305V191.383H87.145V190.895H88.2305V189.358H88.8335ZM84.0981 192.335C84.9709 192.04 85.5168 191.291 85.5137 190.507V190.285H84.2822V189.79H87.3481V190.285H86.1294V190.507C86.1262 191.215 86.6404 191.929 87.5005 192.215L87.1895 192.697C86.5515 192.475 86.0786 192.018 85.8311 191.453C85.5835 192.082 85.0852 192.583 84.4092 192.824L84.0981 192.335ZM85.1392 194.919V193.148H85.7422V194.43H88.9858V194.919H85.1392ZM92.2993 189.695C93.4927 189.695 94.4004 190.326 94.4004 191.282C94.4004 192.243 93.4927 192.872 92.2993 192.869C91.1091 192.872 90.2014 192.243 90.2046 191.282C90.2014 190.326 91.1091 189.695 92.2993 189.695ZM89.7095 194.303V193.802H94.9146V194.303H89.7095ZM90.7822 191.282C90.7791 191.945 91.4265 192.374 92.2993 192.374C93.1689 192.374 93.8132 191.945 93.8164 191.282C93.8132 190.622 93.1689 190.18 92.2993 190.184C91.4265 190.18 90.7791 190.622 90.7822 191.282ZM100.532 193.853V194.36H95.3271V193.853H97.6187V192.856H95.9619V191.047H99.3008V190.247H95.9492V189.752H99.8975V191.529H96.5586V192.361H100.031V192.856H98.2153V193.853H100.532Z" fill="white"/>
</svg>
