<svg width="474" height="237" viewBox="0 0 474 237" fill="none" xmlns="http://www.w3.org/2000/svg">
<path d="M45.71 106.646C45.7012 109.239 46.4219 111.911 48.6104 113.309L47.3975 115.049C46.0088 114.214 45.1387 112.825 44.6289 111.19C44.0576 113.001 43.0996 114.521 41.6494 115.4L40.2783 113.748C42.6514 112.28 43.5303 109.459 43.5303 106.752V103.992H45.71V106.646ZM46.9229 109.846V108.018H48.9971V102.85H51.0889V117.879H48.9971V109.846H46.9229ZM52.3018 118.617V102.621H54.4463V118.617H52.3018ZM62.1279 105.381C62.1279 107.596 63.2266 109.784 65.749 110.725L64.501 112.465C62.8223 111.806 61.6709 110.54 61.0117 108.967C60.3174 110.646 59.0781 111.973 57.2588 112.658L56.0635 110.9C58.6914 109.969 59.8516 107.728 59.8604 105.381V103.535H62.1279V105.381ZM58.9639 118.336V113.361H61.2314V116.543H69.9502V118.336H58.9639ZM64.6416 109.617V107.807H67.3838V106.523H64.6416V104.713H67.3838V102.639H69.6162V114.504H67.3838V109.617H64.6416ZM85.085 102.621V118.652H82.8174V102.621H85.085ZM72.165 109.441C72.1562 105.952 73.9404 103.746 76.4014 103.746C78.8096 103.746 80.6025 105.952 80.6025 109.441C80.6025 112.957 78.8096 115.154 76.4014 115.154C73.9404 115.154 72.1562 112.957 72.165 109.441ZM74.3271 109.441C74.3184 111.823 75.1533 113.124 76.4014 113.115C77.6143 113.124 78.4316 111.823 78.4404 109.441C78.4316 107.068 77.6143 105.768 76.4014 105.768C75.1533 105.768 74.3184 107.068 74.3271 109.441ZM99.5518 103.939V111.621H91.8701V103.939H99.5518ZM93.7158 118.336V113.15H95.9482V116.543H104.667V118.336H93.7158ZM94.085 109.863H97.3369V105.732H94.085V109.863ZM101.837 114.293V102.621H104.087V107.227H106.249V109.072H104.087V114.293H101.837ZM121.595 114.996V116.842H106.952V114.996H110.696V112.553H108.64V107.174H117.692V105.451H108.622V103.658H119.907V108.967H110.89V110.742H120.276V112.553H118.009V114.996H121.595ZM112.876 114.996H115.812V112.553H112.876V114.996ZM132.036 109.125V110.918H128.925V113.546C130.243 113.493 131.562 113.405 132.81 113.273L132.985 114.908C129.487 115.444 125.849 115.471 122.843 115.471L122.579 113.643C123.854 113.651 125.242 113.651 126.675 113.616V110.918H123.634V104.045H131.948V105.82H125.866V109.125H132.036ZM133.724 118.652V102.621H135.956V118.652H133.724ZM144.095 112.834C144.086 114.144 144.622 115.488 145.932 116.394C147.25 115.427 147.786 114.021 147.804 112.834V112.184H150.001V112.834C150.01 114.504 150.88 116.086 153.06 116.754L151.917 118.406C150.396 117.879 149.412 116.886 148.858 115.646C148.331 116.877 147.391 117.967 145.94 118.547C144.473 118.002 143.532 116.956 143.005 115.708C142.434 116.903 141.449 117.87 139.999 118.406L138.909 116.754C141.019 116.051 141.906 114.425 141.915 112.834V112.184H144.095V112.834ZM138.259 107.262C138.259 105.056 140.087 103.43 142.53 103.447C144.552 103.43 146.195 104.607 146.635 106.33H149.315V102.621H151.548V111.586H149.315V108.158H146.644C146.222 109.925 144.569 111.12 142.53 111.111C140.087 111.12 138.259 109.512 138.259 107.262ZM140.421 107.262C140.403 108.483 141.3 109.257 142.53 109.248C143.726 109.257 144.613 108.483 144.622 107.262C144.613 106.04 143.726 105.302 142.53 105.311C141.3 105.302 140.403 106.04 140.421 107.262ZM157.542 112.219V113.572H164.134V112.219H166.366V118.441H155.327V112.219H157.542ZM153.622 111.41V109.6H168.212V111.41H153.622ZM154.343 107.139C157.911 106.708 159.757 104.968 159.774 103.324V102.779H162.077V103.324C162.077 104.924 163.914 106.734 167.491 107.139L166.7 108.896C163.949 108.545 161.945 107.402 160.917 105.855C159.88 107.402 157.876 108.545 155.151 108.896L154.343 107.139ZM157.542 116.684H164.134V115.277H157.542V116.684ZM182.626 102.621V118.617H180.394V102.621H182.626ZM170.04 114.662V104.15H172.255V112.755C174.417 112.72 176.737 112.518 179.093 112.061L179.374 113.906C176.57 114.495 173.916 114.671 171.446 114.662H170.04ZM197.356 102.621V108.562H199.712V110.391H197.356V118.652H195.106V102.621H197.356ZM185.368 114.768V104.098H192.874V105.908H187.601V112.922C189.921 112.904 191.837 112.781 193.964 112.412L194.21 114.293C191.723 114.715 189.543 114.776 186.722 114.768H185.368ZM202.366 117.158C201.54 117.158 200.872 116.499 200.89 115.682C200.872 114.873 201.54 114.214 202.366 114.223C203.148 114.214 203.825 114.873 203.825 115.682C203.825 116.499 203.148 117.158 202.366 117.158Z" fill="black"/>
<path d="M46.6406 140.234V140.742H40.2812V140.234H43.1406V138.734H41.0312V135.18H41.6484V136.438H45.2578V135.18H45.8594V138.734H43.7422V140.234H46.6406ZM41.6484 138.234H45.2578V136.938H41.6484V138.234ZM52.625 134.688V136.805H53.6719V137.32H52.625V139.812H52.0156V134.688H52.625ZM47.3281 136.891C47.3242 135.883 48.1133 135.184 49.1484 135.18C50.1914 135.184 50.9688 135.883 50.9766 136.891C50.9688 137.895 50.1914 138.602 49.1484 138.602C48.1133 138.602 47.3242 137.895 47.3281 136.891ZM47.9297 136.891C47.9258 137.574 48.4609 138.062 49.1484 138.062C49.8477 138.062 50.3711 137.574 50.375 136.891C50.3711 136.203 49.8477 135.719 49.1484 135.719C48.4609 135.719 47.9258 136.203 47.9297 136.891ZM48.2812 141.484V139.281H48.8828V140.969H52.9453V141.484H48.2812ZM57.2734 134.812C58.8164 134.812 59.7227 135.238 59.7266 136.008C59.7227 136.797 58.8164 137.223 57.2734 137.227C55.7227 137.223 54.8125 136.797 54.8125 136.008C54.8125 135.238 55.7227 134.812 57.2734 134.812ZM54.1094 138.195V137.695H60.4375V138.195H54.1094ZM54.875 139.266V138.797H59.625V140.352H55.5V141.07H59.8359V141.555H54.8906V139.898H59.0234V139.266H54.875ZM55.4531 136.008C55.4453 136.492 56.1211 136.758 57.2734 136.758C58.4258 136.758 59.0977 136.492 59.1016 136.008C59.0977 135.551 58.4258 135.277 57.2734 135.273C56.1211 135.277 55.4453 135.551 55.4531 136.008ZM65.3203 135.031C66.3594 135.023 67.1055 135.598 67.1016 136.445C67.1055 137.293 66.3594 137.871 65.3203 137.867C64.2812 137.871 63.5391 137.293 63.5391 136.445C63.5391 135.598 64.2812 135.023 65.3203 135.031ZM63.0156 138.461C64.3203 138.465 66.1055 138.438 67.6484 138.211L67.6875 138.672C67.0234 138.793 66.3359 138.867 65.6641 138.91V141.422H65.0547V138.945C64.3477 138.977 63.6797 138.98 63.1016 138.984L63.0156 138.461ZM64.1406 136.445C64.1328 136.988 64.6289 137.363 65.3203 137.359C66.0195 137.363 66.5195 136.988 66.5156 136.445C66.5195 135.906 66.0195 135.523 65.3203 135.531C64.6289 135.523 64.1328 135.906 64.1406 136.445ZM68.1562 141.641V134.695H68.7578V141.641H68.1562ZM73.4141 135.891V136.391H69.9297V135.891H71.375V134.898H71.9844V135.891H73.4141ZM70.1797 138.438C70.1797 137.516 70.8086 136.863 71.6719 136.859C72.5469 136.863 73.1719 137.516 73.1797 138.438C73.1719 139.371 72.5469 140.027 71.6719 140.031C70.8086 140.027 70.1797 139.371 70.1797 138.438ZM70.7266 138.438C70.7266 139.055 71.1211 139.496 71.6719 139.492C72.2266 139.496 72.6328 139.055 72.6328 138.438C72.6328 137.828 72.2266 137.383 71.6719 137.375C71.1211 137.383 70.7266 137.828 70.7266 138.438ZM73.7734 141.289V134.859H74.3516V137.617H75.2734V134.688H75.8594V141.633H75.2734V138.125H74.3516V141.289H73.7734ZM85.2266 140.258V140.773H78.8672V140.258H81.7266V138.945H79.6641V136.805H83.8203V135.711H79.6484V135.203H84.4219V137.305H80.2734V138.438H84.5859V138.945H82.3281V140.258H85.2266ZM91.2578 135.43V136.125C91.2578 137 91.2578 137.988 91 139.5L90.375 139.438C90.6562 138.016 90.6562 136.977 90.6562 136.125V135.938H86.4688V135.43H91.2578ZM85.7812 140.609V140.102H92.1094V140.609H85.7812ZM94.5547 135.227C95.5781 135.23 96.3047 136.172 96.3125 137.648C96.3047 139.129 95.5781 140.066 94.5547 140.062C93.5234 140.066 92.8008 139.129 92.8047 137.648C92.8008 136.172 93.5234 135.23 94.5547 135.227ZM93.3828 137.648C93.3867 138.777 93.8672 139.52 94.5547 139.516C95.25 139.52 95.7188 138.777 95.7188 137.648C95.7188 136.52 95.25 135.777 94.5547 135.773C93.8672 135.777 93.3867 136.52 93.3828 137.648ZM97.4609 141.633V134.688H98.0703V137.461H99.2344V137.992H98.0703V141.633H97.4609ZM105.961 137.859V138.391H103.062V139.148H102.461V138.391H99.6094V137.859H105.961ZM100.07 141.133C101.312 141.004 102.445 140.441 102.445 139.688V139.461H103.07V139.688C103.074 140.453 104.195 141.004 105.453 141.133L105.258 141.602C104.16 141.48 103.172 141.062 102.758 140.398C102.344 141.055 101.363 141.48 100.273 141.602L100.07 141.133ZM100.312 136.07C100.312 135.254 101.25 134.801 102.773 134.805C104.297 134.801 105.223 135.254 105.227 136.07C105.223 136.879 104.297 137.344 102.773 137.336C101.25 137.344 100.312 136.879 100.312 136.07ZM100.945 136.07C100.941 136.562 101.637 136.863 102.773 136.859C103.898 136.863 104.598 136.562 104.602 136.07C104.598 135.57 103.898 135.266 102.773 135.273C101.637 135.266 100.941 135.57 100.945 136.07ZM110.664 137.688V138.195H109.141V139.562C109.82 139.535 110.504 139.488 111.148 139.414L111.195 139.875C109.656 140.098 107.977 140.129 106.648 140.125L106.562 139.609C107.168 139.609 107.84 139.605 108.531 139.586V138.195H107.094V135.352H110.633V135.852H107.695V137.688H110.664ZM111.609 141.648V134.688H112.219V141.648H111.609ZM115.828 139.344C115.824 139.969 116.156 140.621 116.816 141.004C117.484 140.586 117.824 139.879 117.828 139.344V138.922H118.43V139.344C118.426 140.062 118.945 140.785 119.852 141.086L119.531 141.547C118.84 141.293 118.355 140.809 118.121 140.223C117.902 140.789 117.477 141.328 116.828 141.602C116.164 141.344 115.734 140.832 115.523 140.246C115.273 140.805 114.797 141.293 114.133 141.547L113.828 141.086C114.707 140.77 115.234 140.016 115.242 139.344V138.922H115.828V139.344ZM113.555 136.711C113.555 135.758 114.312 135.082 115.352 135.086C116.266 135.082 116.98 135.633 117.117 136.438H118.578V134.688H119.195V138.656H118.578V136.945H117.121C117.004 137.773 116.281 138.336 115.352 138.336C114.312 138.336 113.555 137.668 113.555 136.711ZM114.148 136.711C114.141 137.355 114.652 137.824 115.352 137.828C116.035 137.824 116.547 137.355 116.547 136.711C116.547 136.066 116.035 135.602 115.352 135.609C114.652 135.602 114.141 136.066 114.148 136.711ZM121.766 138.859V139.672H125.234V138.859H125.852V141.539H121.156V138.859H121.766ZM120.352 138.367V137.859H126.68V138.367H120.352ZM120.711 136.875C121.949 136.707 123.203 135.977 123.203 135.094V134.766H123.836V135.094C123.832 135.949 125.098 136.719 126.32 136.875L126.094 137.367C125.02 137.207 123.961 136.66 123.52 135.883C123.078 136.664 122.016 137.207 120.945 137.367L120.711 136.875ZM121.766 141.047H125.234V140.156H121.766V141.047ZM132.992 134.688V141.633H132.383V134.688H132.992ZM127.719 139.844V135.375H128.32V139.312C129.383 139.305 130.477 139.223 131.641 138.977L131.727 139.5C130.492 139.758 129.395 139.844 128.281 139.844H127.719ZM139.555 134.688V137.438H140.719V137.953H139.555V141.648H138.945V134.688H139.555ZM134.484 139.906V135.367H137.727V135.875H135.094V139.391C136.352 139.387 137.238 139.332 138.273 139.141L138.352 139.672C137.262 139.867 136.352 139.906 135.031 139.906H134.484ZM141.828 141.047C141.555 141.043 141.32 140.816 141.328 140.539C141.32 140.266 141.555 140.039 141.828 140.039C142.105 140.039 142.332 140.266 142.328 140.539C142.332 140.816 142.105 141.043 141.828 141.047ZM45.6562 146.688V149.438H46.8203V149.953H45.6562V153.648H45.0469V146.688H45.6562ZM40.5859 151.906V147.367H43.8281V147.875H41.1953V151.391C42.4531 151.387 43.3398 151.332 44.375 151.141L44.4531 151.672C43.3633 151.867 42.4531 151.906 41.1328 151.906H40.5859ZM49.6641 148.555C49.6602 149.824 50.5234 151.098 51.5469 151.562L51.1719 152.047C50.3789 151.664 49.6953 150.84 49.3633 149.852C49.043 150.898 48.3594 151.777 47.5469 152.188L47.1562 151.672C48.1914 151.199 49.0469 149.871 49.0547 148.555V147.289H49.6641V148.555ZM52.3047 153.648V146.688H52.9219V153.648H52.3047ZM62.4766 152.258V152.773H56.1172V152.258H58.9766V150.945H56.9141V148.805H61.0703V147.711H56.8984V147.203H61.6719V149.305H57.5234V150.438H61.8359V150.945H59.5781V152.258H62.4766ZM68.5078 147.43V148.125C68.5078 149 68.5078 149.988 68.25 151.5L67.625 151.438C67.9062 150.016 67.9062 148.977 67.9062 148.125V147.938H63.7188V147.43H68.5078ZM63.0312 152.609V152.102H69.3594V152.609H63.0312ZM75.6797 146.695V151.773H75.0703V146.695H75.6797ZM70.1094 148.883C70.1055 147.883 70.8906 147.184 71.9297 147.18C72.9688 147.184 73.7461 147.883 73.75 148.883C73.7461 149.895 72.9688 150.598 71.9297 150.594C70.8906 150.598 70.1055 149.895 70.1094 148.883ZM70.7109 148.883C70.7031 149.574 71.2266 150.055 71.9297 150.055C72.6211 150.055 73.1484 149.574 73.1484 148.883C73.1484 148.203 72.6211 147.719 71.9297 147.719C71.2266 147.719 70.7031 148.203 70.7109 148.883ZM71.1953 153.484V151.258H71.8047V152.969H75.8984V153.484H71.1953ZM80.3281 147.891V148.391H76.8438V147.891H78.2891V146.898H78.8984V147.891H80.3281ZM77.0938 150.438C77.0938 149.516 77.7227 148.863 78.5859 148.859C79.4609 148.863 80.0859 149.516 80.0938 150.438C80.0859 151.371 79.4609 152.027 78.5859 152.031C77.7227 152.027 77.0938 151.371 77.0938 150.438ZM77.6406 150.438C77.6406 151.055 78.0352 151.496 78.5859 151.492C79.1406 151.496 79.5469 151.055 79.5469 150.438C79.5469 149.828 79.1406 149.383 78.5859 149.375C78.0352 149.383 77.6406 149.828 77.6406 150.438ZM80.6875 153.289V146.859H81.2656V149.617H82.1875V146.688H82.7734V153.633H82.1875V150.125H81.2656V153.289H80.6875ZM89.2891 147.672C89.2852 148.602 90.5234 149.391 91.7344 149.57L91.5078 150.055C90.4258 149.871 89.3672 149.293 88.9453 148.457C88.5234 149.293 87.4648 149.871 86.3984 150.055L86.1562 149.57C87.3633 149.391 88.5977 148.602 88.6016 147.672V147.625H86.375V147.125H91.5078V147.625H89.2891V147.672ZM85.7812 151.156V150.648H92.1094V151.156H89.2344V153.633H88.6328V151.156H85.7812ZM94.7578 148.664C94.7578 149.77 95.2969 150.961 96.2188 151.508L95.8672 151.984C95.1953 151.578 94.7148 150.836 94.4727 149.988C94.2188 150.914 93.7031 151.711 93.0078 152.133L92.6172 151.672C93.5781 151.109 94.1641 149.879 94.1641 148.688V147.344H94.7578V148.664ZM95.4531 149.703V149.18H96.6328V146.836H97.2109V153.281H96.6328V149.703H95.4531ZM98.0547 153.633V146.688H98.6484V153.633H98.0547ZM105.969 152.227V152.742H99.6094V152.227H101.188V150.355C100.594 150.047 100.234 149.547 100.234 148.914C100.234 147.84 101.289 147.133 102.773 147.125C104.258 147.133 105.312 147.84 105.312 148.914C105.312 149.535 104.965 150.027 104.391 150.336V152.227H105.969ZM100.828 148.914C100.824 149.691 101.633 150.211 102.773 150.211C103.902 150.211 104.719 149.691 104.719 148.914C104.719 148.137 103.902 147.625 102.773 147.633C101.633 147.625 100.824 148.137 100.828 148.914ZM101.789 152.227H103.773V150.574C103.473 150.652 103.137 150.695 102.773 150.695C102.418 150.695 102.086 150.656 101.789 150.578V152.227ZM107.258 153.047C106.984 153.043 106.75 152.816 106.758 152.539C106.75 152.266 106.984 152.039 107.258 152.039C107.535 152.039 107.762 152.266 107.758 152.539C107.762 152.816 107.535 153.043 107.258 153.047Z" fill="#495057"/>
<rect x="41" y="184.25" width="26.5" height="15.5" rx="2.75" fill="white"/>
<rect x="41" y="184.25" width="26.5" height="15.5" rx="2.75" stroke="#DEE2E6" stroke-width="0.5"/>
<path d="M50.5652 193.326V194.938H46.6804V193.326H50.5652ZM46.052 192.894V192.494H48.3752V192.059C47.3596 192.021 46.7883 191.755 46.7883 191.263C46.7883 190.739 47.4517 190.469 48.6228 190.463C49.7908 190.469 50.4509 190.739 50.4509 191.263C50.4509 191.755 49.8828 192.021 48.8704 192.059V192.494H51.1936V192.894H46.052ZM46.3186 190.234V189.847H48.3752V189.289H48.8704V189.847H50.8953V190.234H46.3186ZM47.1755 194.551H50.0764V193.713H47.1755V194.551ZM47.3215 191.263C47.3184 191.552 47.7944 191.713 48.6228 191.713C49.4512 191.713 49.9209 191.552 49.9241 191.263C49.9209 190.971 49.4512 190.818 48.6228 190.812C47.7944 190.818 47.3184 190.971 47.3215 191.263ZM54.2405 189.739C55.418 189.742 56.3035 190.358 56.3035 191.288C56.3035 192.228 55.418 192.843 54.2405 192.837C53.063 192.843 52.1775 192.228 52.1775 191.288C52.1775 190.358 53.063 189.742 54.2405 189.739ZM51.6697 194.265V193.846H56.8367V194.265H51.6697ZM52.6536 191.288C52.6472 191.974 53.3296 192.431 54.2405 192.431C55.145 192.431 55.821 191.974 55.821 191.288C55.821 190.612 55.145 190.142 54.2405 190.146C53.3296 190.142 52.6472 190.612 52.6536 191.288ZM62.4543 193.897V194.316H57.2874V193.897H59.6106V192.831H57.9348V191.091H61.3118V190.203H57.9221V189.79H61.8005V191.498H58.4299V192.418H61.9338V192.831H60.0994V193.897H62.4543Z" fill="#495057"/>
<rect x="73.75" y="184" width="39" height="16" rx="3" fill="#212529"/>
<path d="M84.6204 193.853V194.36H79.4153V193.853H81.7068V192.856H80.05V191.047H83.3889V190.247H80.0374V189.752H83.9856V191.529H80.6467V192.361H84.1189V192.856H82.3035V193.853H84.6204ZM89.5398 189.93V190.539C89.5398 191.275 89.5398 192.072 89.3303 193.288L88.7146 193.23C88.9431 192.091 88.9431 191.256 88.9431 190.539V190.425H85.5916V189.93H89.5398ZM85.033 194.233V193.732H90.219V194.233H85.033ZM95.3669 189.358V193.491H94.7639V189.358H95.3669ZM90.7649 191.148C90.7681 190.326 91.4219 189.742 92.282 189.739C93.1389 189.742 93.7927 190.326 93.7927 191.148C93.7927 191.983 93.1389 192.564 92.282 192.564C91.4219 192.564 90.7681 191.983 90.7649 191.148ZM91.3552 191.148C91.3521 191.685 91.752 192.037 92.282 192.037C92.8025 192.037 93.2024 191.685 93.2024 191.148C93.2024 190.625 92.8025 190.266 92.282 190.266C91.752 190.266 91.3521 190.625 91.3552 191.148ZM91.6472 194.919V193.072H92.2566V194.43H95.5383V194.919H91.6472ZM100.699 189.352V191.656H101.613V192.158H100.699V195.04H100.102V189.352H100.699ZM96.2366 190.736V190.241H97.6394V189.428H98.2424V190.241H99.6072V190.736H96.2366ZM96.5286 192.475C96.5286 191.701 97.1252 191.155 97.9441 191.155C98.7598 191.155 99.3564 191.701 99.3596 192.475C99.3564 193.256 98.7598 193.799 97.9441 193.802C97.1252 193.799 96.5286 193.256 96.5286 192.475ZM97.1062 192.475C97.103 192.97 97.4585 193.3 97.9441 193.294C98.4265 193.3 98.7788 192.97 98.782 192.475C98.7788 191.99 98.4265 191.653 97.9441 191.65C97.4585 191.653 97.103 191.99 97.1062 192.475ZM106.615 189.352V195.04H106.006V189.352H106.615ZM101.943 193.516C103.454 192.796 104.193 191.771 104.311 190.444H102.216V189.961H104.92C104.92 191.628 104.212 193.069 102.26 194.005L101.943 193.516Z" fill="white"/>
</svg>
