<svg width="802" height="180" viewBox="0 0 802 180" fill="none" xmlns="http://www.w3.org/2000/svg">
<rect width="180" height="180" rx="90" fill="#FFF8F6"/>
<path d="M52.9487 66.8086V69.8174H54.104V65.7803H55.6274V76.6348H54.104V71.1123H52.9487V74.2607H48.353V66.8086H52.9487ZM49.8638 72.9912H51.438V68.0908H49.8638V72.9912ZM56.4907 77.168V65.6152H58.0396V77.168H56.4907ZM68.9321 65.6279V73.9307H67.3071V65.6279H68.9321ZM59.436 69.2715C59.436 67.5767 60.8198 66.3579 62.5972 66.3643C64.3682 66.3579 65.752 67.5767 65.7583 69.2715C65.752 70.9917 64.3682 72.2041 62.5972 72.2041C60.8198 72.2041 59.436 70.9917 59.436 69.2715ZM61.0229 69.2715C61.0103 70.2363 61.6895 70.7949 62.5972 70.7949C63.4731 70.7949 64.1523 70.2363 64.1587 69.2715C64.1523 68.332 63.4731 67.7671 62.5972 67.7734C61.6895 67.7671 61.0103 68.332 61.0229 69.2715ZM61.188 76.9648V73.0928H62.8257V75.6699H69.2368V76.9648H61.188ZM82.7954 66.2881V67.3291C82.7891 68.4082 82.7891 69.5825 82.4971 71.2012H84.0269V72.5088H79.52V77.1807H77.895V72.5088H73.4897V71.2012H80.853C81.1514 69.7158 81.1768 68.5796 81.1831 67.583H74.6958V66.2881H82.7954ZM95.3003 74.5146V75.8223H84.7251V74.5146H89.1938V71.9375H90.8188V74.5146H95.3003ZM85.1567 71.1631C87.5562 70.7759 88.9907 69.3286 89.1304 67.7988H85.6011V66.4912H94.3735V67.7988H90.8569C90.9839 69.3223 92.4312 70.7378 94.9067 71.0996L94.272 72.3818C92.2471 72.0264 90.749 71.0425 90 69.6714C89.27 71.0615 87.7847 72.0835 85.7915 72.4453L85.1567 71.1631ZM109.037 65.6152V77.168H107.488V71.3789H106.51V76.6348H104.974V73.3276L104.06 74.54C102.987 73.9751 102.295 73.0166 101.883 71.8423C101.502 73.1943 100.823 74.2988 99.7183 74.959L98.7153 73.7148C100.474 72.7246 101.058 70.6807 101.064 68.4717V68.1035H99.1089V66.8086H104.403V68.1035H102.638V68.4717C102.638 70.4839 103.235 72.4009 104.974 73.3022V65.7803H106.51V70.0586H107.488V65.6152H109.037ZM119.929 65.6152V71.4932H118.317V68.624H116.146V67.3418H118.317V65.6152H119.929ZM110.103 70.2998C112.02 69.7349 112.877 68.3257 112.883 66.834V65.9961H114.521V66.834C114.515 68.2114 115.321 69.5508 117.162 70.0967L116.311 71.3408C115.073 70.9473 114.21 70.1729 113.708 69.1826C113.201 70.2935 112.293 71.1567 110.941 71.582L110.103 70.2998ZM112.249 73.2197V71.9756H119.929V75.0605H113.861V75.7715H120.259V77.041H112.261V73.8799H118.33V73.2197H112.249ZM131.444 65.6152V77.168H129.92V65.6152H131.444ZM121.25 73.626C123.592 72.2422 124.62 70.5601 124.842 68.2939H121.922V66.9863H126.455C126.455 67.564 126.417 68.1226 126.347 68.6621H127.496V65.8691H129.032V76.6602H127.496V72.8516H125.858V71.5439H127.496V69.9697H126.08C125.541 71.8804 124.36 73.4863 122.202 74.7686L121.25 73.626Z" fill="#D9433E"/>
<path d="M51.8896 94.7754C51.8799 96.167 52.8857 97.7002 54.1455 98.3008L53.7061 98.9062C52.7295 98.4277 51.9043 97.4023 51.5137 96.2256C51.1133 97.5 50.2441 98.623 49.2725 99.1211L48.8037 98.5156C50.0537 97.9053 51.1279 96.2549 51.1377 94.7754V93.6426H49.1162V93.0078H53.8428V93.6426H51.8896V94.7754ZM54.9072 100.791V92.1094H55.6689V95.625H57.124V96.2793H55.6689V100.791H54.9072ZM61.9775 93.3398C61.9727 94.502 63.5205 95.4883 65.0342 95.7129L64.751 96.3184C63.3984 96.0889 62.0752 95.3662 61.5479 94.3213C61.0205 95.3662 59.6973 96.0889 58.3643 96.3184L58.0615 95.7129C59.5703 95.4883 61.1133 94.502 61.1182 93.3398V93.2812H58.335V92.6562H64.751V93.2812H61.9775V93.3398ZM57.5928 97.6953V97.0605H65.5029V97.6953H61.9092V100.791H61.1572V97.6953H57.5928ZM71.6553 94.4434C71.6553 95.9717 72.666 97.5488 73.9014 98.1543L73.4326 98.7695C72.4756 98.2715 71.6748 97.2412 71.2891 96.0352C70.9033 97.3145 70.083 98.4131 69.1064 98.9355L68.6182 98.3203C69.8877 97.6953 70.8936 96.0303 70.9033 94.4434V92.8613H71.6553V94.4434ZM74.7021 100.791V92.1094H75.4639V95.6348H76.9189V96.2988H75.4639V100.791H74.7021ZM85.2979 96.4062V97.041H77.3877V96.4062H79.3506V95.1807C78.6572 94.9121 78.2666 94.4727 78.2666 93.8867C78.2666 92.8662 79.4385 92.2803 81.3428 92.2754C83.2324 92.2803 84.4043 92.8662 84.4092 93.8867C84.4043 94.4678 84.0186 94.9072 83.335 95.1807V96.4062H85.2979ZM78.3447 99.2383C78.3398 98.2471 79.458 97.7002 81.3428 97.7051C83.2031 97.7002 84.3213 98.2471 84.3311 99.2383C84.3213 100.229 83.2031 100.771 81.3428 100.771C79.458 100.771 78.3398 100.229 78.3447 99.2383ZM79.0576 93.8867C79.0527 94.5215 79.9219 94.8877 81.3428 94.8926C82.749 94.8877 83.623 94.5215 83.6279 93.8867C83.623 93.2617 82.749 92.8809 81.3428 92.8809C79.9219 92.8809 79.0527 93.2617 79.0576 93.8867ZM79.126 99.2383C79.1162 99.8291 79.9512 100.181 81.3428 100.176C82.7197 100.181 83.5547 99.8291 83.5596 99.2383C83.5547 98.6475 82.7197 98.3008 81.3428 98.291C79.9512 98.3008 79.1162 98.6475 79.126 99.2383ZM80.1123 96.4062H82.5732V95.3857C82.207 95.4541 81.7969 95.4883 81.3428 95.4883C80.8887 95.4883 80.4785 95.4541 80.1123 95.3906V96.4062ZM92.749 92.1094V95.6934H94.2041V96.3281H92.749V100.791H91.9873V92.1094H92.749ZM85.9814 94.1406V93.5059H88.2178V92.2168H88.9795V93.5059H91.1475V94.1406H85.9814ZM86.4795 96.8555C86.4746 95.6836 87.373 94.8633 88.6084 94.8633C89.834 94.8633 90.7275 95.6836 90.7373 96.8555C90.7275 98.0322 89.834 98.8477 88.6084 98.8477C87.373 98.8477 86.4746 98.0322 86.4795 96.8555ZM87.2119 96.8555C87.207 97.6465 87.7979 98.2031 88.6084 98.1934C89.4092 98.2031 89.9951 97.6465 90.0049 96.8555C89.9951 96.0693 89.4092 95.5029 88.6084 95.5078C87.7979 95.5029 87.207 96.0693 87.2119 96.8555ZM101.694 94.7461V95.3613H95.7471V92.4316H96.5088V94.7461H101.694ZM94.6631 97.168V96.543H102.612V97.168H94.6631ZM95.6982 100.576V98.0566H96.46V99.9414H101.743V100.576H95.6982ZM113.003 92.1094V100.791H112.231V92.1094H113.003ZM105.933 98.5352C108.281 97.4219 109.482 95.7568 109.653 93.6816H106.333V93.0566H110.435C110.425 95.5518 109.263 97.7637 106.353 99.1602L105.933 98.5352ZM121.479 94.541V95.1758H115.552V92.2852H116.313V94.541H121.479ZM114.468 96.8262V96.1914H122.388V96.8262H114.468ZM115.425 99.1797C115.42 98.1689 116.548 97.6025 118.423 97.6074C120.283 97.6025 121.401 98.1689 121.411 99.1797C121.401 100.186 120.283 100.752 118.423 100.752C116.548 100.752 115.42 100.186 115.425 99.1797ZM116.206 99.1797C116.196 99.7852 117.031 100.151 118.423 100.156C119.8 100.151 120.635 99.7852 120.64 99.1797C120.635 98.5645 119.8 98.2178 118.423 98.2129C117.031 98.2178 116.196 98.5645 116.206 99.1797ZM127.925 93.0762V93.5254C127.92 94.2139 127.92 95.3613 127.671 96.9727L126.899 96.9043C127.139 95.4492 127.158 94.3945 127.153 93.7012H123.511V93.0762H127.925ZM123.022 98.2422C123.594 98.2373 124.229 98.2324 124.897 98.2178V95.5566H125.649V98.1934C126.611 98.1592 127.598 98.0957 128.501 97.9883L128.54 98.5645C126.714 98.8477 124.673 98.8867 123.12 98.877L123.022 98.2422ZM129.048 100.791V92.1094H129.81V95.7422H131.216V96.4062H129.81V100.791H129.048ZM49.0332 108.135V108.76H44.5801V108.135H46.4355V107.158H47.1973V108.135H49.0332ZM44.9609 110.742C44.9561 109.814 45.7227 109.199 46.8164 109.199C47.915 109.199 48.6768 109.814 48.6816 110.742C48.6768 111.65 47.915 112.266 46.8164 112.266C45.7227 112.266 44.9561 111.65 44.9609 110.742ZM45.6445 110.742C45.6445 111.299 46.123 111.68 46.8164 111.68C47.5098 111.68 47.9883 111.299 47.9883 110.742C47.9883 110.166 47.5098 109.785 46.8164 109.775C46.123 109.785 45.6445 110.166 45.6445 110.742ZM46.1523 113.652V113.027H52.002V115.791H51.25V113.652H46.1523ZM49.4043 112.451V107.266H50.1367V109.561H51.2695V107.119H52.002V112.51H51.2695V110.195H50.1367V112.451H49.4043ZM60.4395 107.119V112.051H59.6777V107.119H60.4395ZM53.3398 111.221C54.6533 110.762 55.5664 109.585 55.5664 108.311V107.461H56.3477V108.311C56.3379 109.536 57.2754 110.62 58.5547 111.074L58.1641 111.66C57.1582 111.313 56.3525 110.581 55.9619 109.634C55.5762 110.64 54.7656 111.44 53.7305 111.826L53.3398 111.221ZM54.7949 115.674V112.549H60.4395V115.674H54.7949ZM55.5469 115.049H59.6875V113.174H55.5469V115.049ZM71.3477 107.539V108.262C71.3525 109.067 71.3525 109.951 71.1133 111.143L70.3516 111.074C70.459 110.566 70.5176 110.112 70.5469 109.702L65.2637 109.951L65.1562 109.297L70.5811 109.121C70.5908 108.818 70.5957 108.535 70.5957 108.262V108.164H65.3711V107.539H71.3477ZM64.4336 112.354V111.729H67.6562V110.449H68.4277V111.729H72.334V112.354H64.4336ZM65.4395 115.654V113.096H66.2109V115.029H71.5527V115.654H65.4395ZM80.4395 107.119V113.623H79.707V107.119H80.4395ZM73.4766 112.178V107.832H76.7871V108.467H74.209V109.668H76.4258V110.273H74.209V111.543C75.4688 111.533 76.2451 111.504 77.1777 111.309L77.2559 111.934C76.25 112.134 75.4297 112.178 74.0234 112.178H73.4766ZM74.7754 115.605V112.9H75.5566V114.961H80.7031V115.605H74.7754ZM76.8359 110.205V109.59H78.0078V107.295H78.75V113.398H78.0078V110.205H76.8359ZM89.6582 114.033V114.678H81.709V114.033H89.6582ZM82.1973 111.953C83.8379 111.655 85.2783 110.581 85.2832 109.141H82.4512V108.516H85.293V107.324H86.0449V108.516H88.8965V109.141H86.0645C86.0596 110.581 87.4951 111.655 89.1504 111.953L88.8379 112.578C87.4658 112.295 86.2158 111.548 85.6689 110.415C85.127 111.548 83.8721 112.295 82.5 112.578L82.1973 111.953ZM100.771 111.172V111.807H97.1875V112.734C98.8232 112.808 99.7949 113.34 99.8047 114.258C99.7949 115.229 98.6768 115.771 96.8164 115.771C94.9316 115.771 93.8135 115.229 93.8184 114.258C93.8135 113.34 94.7803 112.808 96.4355 112.734V111.807H92.8613V111.172H100.771ZM93.3105 110.039C94.8145 109.883 96.2646 109.116 96.3184 108.145H93.584V107.52H100.068V108.145H97.3145C97.3682 109.116 98.8037 109.883 100.332 110.039L100.049 110.645C98.6279 110.474 97.2949 109.834 96.8164 108.872C96.3379 109.834 95.0146 110.474 93.584 110.645L93.3105 110.039ZM94.5996 114.258C94.5898 114.834 95.4248 115.181 96.8164 115.176C98.1934 115.181 99.0283 114.834 99.0332 114.258C99.0283 113.667 98.1934 113.33 96.8164 113.32C95.4248 113.33 94.5898 113.667 94.5996 114.258ZM108.672 107.119V112.051H107.91V107.119H108.672ZM101.572 111.221C102.886 110.762 103.799 109.585 103.799 108.311V107.461H104.58V108.311C104.57 109.536 105.508 110.62 106.787 111.074L106.396 111.66C105.391 111.313 104.585 110.581 104.194 109.634C103.809 110.64 102.998 111.44 101.963 111.826L101.572 111.221ZM103.027 115.674V112.549H108.672V115.674H103.027ZM103.779 115.049H107.92V113.174H103.779V115.049ZM112.988 107.744C114.351 107.749 115.317 108.579 115.322 109.785C115.317 110.996 114.351 111.821 112.988 111.826C111.616 111.821 110.64 110.996 110.645 109.785C110.64 108.579 111.616 107.749 112.988 107.744ZM110.195 113.242C111.797 113.247 114.009 113.232 115.928 112.949L115.986 113.516C113.999 113.887 111.865 113.896 110.303 113.896L110.195 113.242ZM111.396 109.785C111.392 110.596 112.061 111.152 112.988 111.152C113.906 111.152 114.575 110.596 114.57 109.785C114.575 108.979 113.906 108.418 112.988 108.418C112.061 108.418 111.392 108.979 111.396 109.785ZM116.504 115.811V107.109H117.266V115.811H116.504ZM124.941 108.125V110.391H126.26V107.295H126.992V115.352H126.26V111.025H124.941V113.457H121.621V108.125H124.941ZM122.344 112.842H124.219V108.74H122.344V112.842ZM127.998 115.791V107.109H128.74V115.791H127.998ZM137.109 107.119V113.467H136.348V107.119H137.109ZM130.146 109.854C130.142 108.604 131.123 107.729 132.422 107.725C133.721 107.729 134.692 108.604 134.697 109.854C134.692 111.118 133.721 111.997 132.422 111.992C131.123 111.997 130.142 111.118 130.146 109.854ZM130.898 109.854C130.889 110.718 131.543 111.318 132.422 111.318C133.286 111.318 133.945 110.718 133.945 109.854C133.945 109.004 133.286 108.398 132.422 108.398C131.543 108.398 130.889 109.004 130.898 109.854ZM131.504 115.605V112.822H132.266V114.961H137.383V115.605H131.504Z" fill="#717680"/>
<rect x="164" width="180" height="180" rx="90" fill="#FFF2EF"/>
<path d="M227.378 65.6152V72.4707H225.766V69.7412H223.963V68.4336H225.766V65.6152H227.378ZM217.564 71.2012C219.456 70.5664 220.319 69.0557 220.357 67.6084H218.034V66.3135H224.306V67.6084H222.008C222.04 68.9541 222.865 70.3125 224.661 70.9092L223.861 72.1787C222.592 71.7661 221.709 70.9282 221.208 69.8936C220.7 71.0679 219.773 72.0137 218.402 72.4834L217.564 71.2012ZM219.456 74.959C219.456 73.5562 220.967 72.731 223.43 72.7246C225.899 72.731 227.41 73.5562 227.416 74.959C227.41 76.3618 225.899 77.1807 223.43 77.1807C220.967 77.1807 219.456 76.3618 219.456 74.959ZM221.068 74.959C221.068 75.6191 221.9 75.9492 223.43 75.9492C224.966 75.9492 225.797 75.6191 225.804 74.959C225.797 74.2925 224.966 73.9624 223.43 73.9688C221.9 73.9624 221.068 74.2925 221.068 74.959ZM239.451 74.502V75.8223H228.876V74.502H233.332V72.3691H229.993V66.3516H231.618V68.1416H236.658V66.3516H238.271V72.3691H234.944V74.502H239.451ZM231.618 71.0742H236.658V69.4365H231.618V71.0742ZM246.878 66.0977C248.643 66.085 249.925 67.0942 249.925 68.5479C249.925 69.9888 248.643 71.0107 246.878 70.998C245.12 71.0107 243.837 69.9888 243.844 68.5479C243.837 67.0942 245.12 66.085 246.878 66.0977ZM243.133 71.709C245.183 71.7026 248.084 71.6646 250.547 71.29L250.648 72.4834C249.696 72.6738 248.719 72.7944 247.754 72.8706V76.8252H246.142V72.9658C245.126 73.0103 244.167 73.0166 243.336 73.0293L243.133 71.709ZM245.405 68.5479C245.399 69.2715 246.015 69.6904 246.878 69.6777C247.767 69.6904 248.389 69.2715 248.389 68.5479C248.389 67.8115 247.767 67.3862 246.878 67.3926C246.015 67.3862 245.399 67.8115 245.405 68.5479ZM251.245 77.168V65.6279H252.845V77.168H251.245ZM264.359 65.6152V77.168H262.836V65.6152H264.359ZM254.165 73.626C256.507 72.2422 257.536 70.5601 257.758 68.2939H254.838V66.9863H259.37C259.37 67.564 259.332 68.1226 259.262 68.6621H260.411V65.8691H261.947V76.6602H260.411V72.8516H258.773V71.5439H260.411V69.9697H258.996C258.456 71.8804 257.275 73.4863 255.117 74.7686L254.165 73.626ZM277.74 65.6152V68.332H279.302V69.6523H277.74V72.3184H276.115V65.6152H277.74ZM268.498 71.2646C271.043 70.5918 272.497 69.2715 272.751 67.6719H269.044V66.377H274.516C274.522 69.4556 272.586 71.6138 269.146 72.5723L268.498 71.2646ZM270.06 74.8193C270.047 73.3721 271.621 72.458 273.97 72.458C276.325 72.458 277.861 73.3721 277.867 74.8193C277.861 76.2793 276.325 77.1807 273.97 77.1807C271.621 77.1807 270.047 76.2793 270.06 74.8193ZM271.659 74.8193C271.653 75.5176 272.516 75.9175 273.97 75.9111C275.404 75.9175 276.268 75.5176 276.268 74.8193C276.268 74.1084 275.404 73.7148 273.97 73.7148C272.516 73.7148 271.653 74.1084 271.659 74.8193ZM289.052 65.6152V70.3125H290.562V71.6582H289.052V77.168H287.414V65.6152H289.052ZM279.67 73.9053C280.514 73.9053 281.498 73.9053 282.526 73.8799V72.8896C281.301 72.6484 280.501 71.8677 280.508 70.7949C280.501 69.5063 281.669 68.624 283.352 68.624C285.002 68.624 286.183 69.5063 286.195 70.7949C286.183 71.8677 285.37 72.6548 284.151 72.8896V73.8228C285.065 73.772 285.986 73.6958 286.843 73.5752L286.944 74.7559C284.488 75.2129 281.834 75.2319 279.886 75.2256L279.67 73.9053ZM279.898 68.167V66.8975H282.526V65.6787H284.151V66.8975H286.754V68.167H279.898ZM282.044 70.7949C282.038 71.4043 282.558 71.7344 283.352 71.7344C284.12 71.7344 284.634 71.4043 284.634 70.7949C284.634 70.1982 284.12 69.8618 283.352 69.8555C282.558 69.8618 282.038 70.1982 282.044 70.7949Z" fill="#D9433E"/>
<path d="M211.095 92.1191V94.9805H212.403V95.625H211.095V98.623H210.333V92.1191H211.095ZM204.327 93.8086V93.1836H206.534V92.1191H207.296V93.1836H209.503V93.8086H204.327ZM204.825 95.9082C204.82 94.9219 205.66 94.2871 206.915 94.2871C208.155 94.2871 208.995 94.9219 209.005 95.9082C208.995 96.8848 208.155 97.5146 206.915 97.5098C205.66 97.5146 204.82 96.8848 204.825 95.9082ZM205.558 95.9082C205.553 96.5186 206.095 96.9141 206.915 96.9043C207.726 96.9141 208.272 96.5186 208.282 95.9082C208.272 95.2881 207.726 94.8877 206.915 94.8926C206.095 94.8877 205.553 95.2881 205.558 95.9082ZM205.665 100.605V98.1055H206.417V99.9609H211.495V100.605H205.665ZM219.854 92.5391V93.1641C219.854 93.8086 219.854 94.5898 219.64 95.6348H220.899V96.2598H217.286V97.8613H219.913V100.791H219.142V98.4961H213.771V97.8613H216.524V96.2598H212.95V95.6348H218.868C219.098 94.5752 219.098 93.8086 219.093 93.1641H213.956V92.5391H219.854ZM226.407 92.7832V93.2422C226.402 93.8135 226.402 94.6777 226.183 95.8105L225.411 95.752C225.621 94.7168 225.641 93.9795 225.65 93.4277H222.081V92.7832H226.407ZM221.544 96.6211C222.105 96.6211 222.74 96.6162 223.409 96.5967V94.707H224.171V96.5723C225.133 96.5332 226.129 96.4648 227.032 96.3379L227.081 96.9043C225.26 97.2168 223.17 97.251 221.622 97.2559L221.544 96.6211ZM222.882 100.605V98.0566H223.653V99.9609H228.683V100.605H222.882ZM227.618 98.6426V92.1094H228.399V94.9414H229.669V95.5957H228.399V98.6426H227.618ZM235.05 92.6562V93.125C235.045 93.667 235.045 94.4531 234.815 95.4785L234.054 95.4102C234.259 94.4922 234.278 93.8184 234.278 93.3008H230.724V92.6562H235.05ZM230.187 96.2891C230.753 96.2891 231.388 96.2842 232.052 96.2646V94.541H232.813V96.2451C233.78 96.2061 234.771 96.1426 235.675 96.0254L235.724 96.5918C233.902 96.8848 231.832 96.9336 230.265 96.9336L230.187 96.2891ZM231.329 99.1895C231.329 98.2178 232.423 97.6465 234.22 97.6465C236.017 97.6465 237.115 98.2178 237.11 99.1895C237.115 100.195 236.017 100.767 234.22 100.762C232.423 100.767 231.329 100.195 231.329 99.1895ZM232.101 99.1895C232.096 99.8047 232.906 100.151 234.22 100.156C235.528 100.151 236.334 99.8047 236.339 99.1895C236.334 98.6035 235.528 98.2471 234.22 98.2422C232.906 98.2471 232.096 98.6035 232.101 99.1895ZM236.261 97.5391V92.1094H237.042V94.4922H238.312V95.1367H237.042V97.5391H236.261ZM242.804 97.5977C244.664 97.5977 245.846 98.1836 245.851 99.1895C245.846 100.186 244.664 100.771 242.804 100.771C240.943 100.771 239.762 100.186 239.767 99.1895C239.762 98.1836 240.943 97.5977 242.804 97.5977ZM238.888 96.7871V96.1621H242.159V94.4824H242.911V96.1621H246.788V96.7871H238.888ZM239.825 93.1836V92.5586H245.782V93.291C245.777 93.9941 245.777 94.6973 245.538 95.5957L244.786 95.5078C245.021 94.6143 245.021 93.9697 245.021 93.291V93.1836H239.825ZM240.528 99.1895C240.523 99.7949 241.422 100.166 242.804 100.166C244.19 100.166 245.079 99.7949 245.089 99.1895C245.079 98.5693 244.19 98.1885 242.804 98.1836C241.422 98.1885 240.523 98.5693 240.528 99.1895ZM250.431 94.4434C250.431 95.9717 251.441 97.5488 252.677 98.1543L252.208 98.7695C251.251 98.2715 250.45 97.2412 250.064 96.0352C249.679 97.3145 248.858 98.4131 247.882 98.9355L247.394 98.3203C248.663 97.6953 249.669 96.0303 249.679 94.4434V92.8613H250.431V94.4434ZM253.478 100.791V92.1094H254.239V95.6348H255.694V96.2988H254.239V100.791H253.478ZM265.87 92.1191V98.4863H265.099V95.1562H263.312V94.5215H265.099V92.1191H265.87ZM258.712 96.748C259.991 96.2988 260.919 95.1514 260.919 93.9062V93.457H258.956V92.8223H263.634V93.457H261.69V93.9062C261.69 95.0293 262.56 96.1182 263.829 96.5527L263.429 97.168C262.452 96.8115 261.695 96.084 261.319 95.1855C260.943 96.1914 260.143 96.9873 259.112 97.373L258.712 96.748ZM260.294 100.605V97.9102H261.065V99.9609H266.114V100.605H260.294ZM275.226 96.4062V97.041H267.315V96.4062H269.278V95.1807C268.585 94.9121 268.194 94.4727 268.194 93.8867C268.194 92.8662 269.366 92.2803 271.271 92.2754C273.16 92.2803 274.332 92.8662 274.337 93.8867C274.332 94.4678 273.946 94.9072 273.263 95.1807V96.4062H275.226ZM268.272 99.2383C268.268 98.2471 269.386 97.7002 271.271 97.7051C273.131 97.7002 274.249 98.2471 274.259 99.2383C274.249 100.229 273.131 100.771 271.271 100.771C269.386 100.771 268.268 100.229 268.272 99.2383ZM268.985 93.8867C268.98 94.5215 269.85 94.8877 271.271 94.8926C272.677 94.8877 273.551 94.5215 273.556 93.8867C273.551 93.2617 272.677 92.8809 271.271 92.8809C269.85 92.8809 268.98 93.2617 268.985 93.8867ZM269.054 99.2383C269.044 99.8291 269.879 100.181 271.271 100.176C272.647 100.181 273.482 99.8291 273.487 99.2383C273.482 98.6475 272.647 98.3008 271.271 98.291C269.879 98.3008 269.044 98.6475 269.054 99.2383ZM270.04 96.4062H272.501V95.3857C272.135 95.4541 271.725 95.4883 271.271 95.4883C270.816 95.4883 270.406 95.4541 270.04 95.3906V96.4062ZM282.96 92.5391C282.955 94.7168 281.7 96.1816 279.005 96.8945L278.722 96.2891C280.177 95.918 281.119 95.332 281.642 94.5801L278.81 94.7852L278.683 94.1699L281.944 94.0234C282.057 93.75 282.12 93.4619 282.149 93.1543H279.122V92.5391H282.96ZM280.04 97.6172V97.002H285.665V99.082H280.812V100.059H285.958V100.674H280.06V98.5059H284.903V97.6172H280.04ZM282.989 94.8438V94.209H284.894V92.1094H285.665V96.6113H284.894V94.8438H282.989ZM294.298 92.1094V100.811H293.536V96.0938H291.847V95.4492H293.536V92.1094H294.298ZM287.413 93.5547V92.9199H291.319V95.957H288.204V98.0664C289.703 98.0664 290.787 98.0176 292.052 97.7832L292.11 98.4277C290.807 98.6621 289.679 98.7158 288.106 98.7207H287.442V95.3223H290.577V93.5547H287.413ZM303.692 96.1426V96.748H295.743V96.1426H303.692ZM296.7 98.0176V97.4414H302.696V99.2871H297.481V100.117H302.979V100.674H296.71V98.7598H301.935V98.0176H296.7ZM296.749 92.9297V92.373H302.667V94.1699H297.54V94.9316H302.823V95.4883H296.778V93.6426H301.896V92.9297H296.749ZM214.552 107.109V115.791H213.78V107.109H214.552ZM207.481 113.535C209.83 112.422 211.031 110.757 211.202 108.682H207.882V108.057H211.983C211.974 110.552 210.812 112.764 207.901 114.16L207.481 113.535ZM223.028 109.541V110.176H217.101V107.285H217.862V109.541H223.028ZM216.017 111.826V111.191H223.937V111.826H216.017ZM216.974 114.18C216.969 113.169 218.097 112.603 219.972 112.607C221.832 112.603 222.95 113.169 222.96 114.18C222.95 115.186 221.832 115.752 219.972 115.752C218.097 115.752 216.969 115.186 216.974 114.18ZM217.755 114.18C217.745 114.785 218.58 115.151 219.972 115.156C221.349 115.151 222.184 114.785 222.188 114.18C222.184 113.564 221.349 113.218 219.972 113.213C218.58 113.218 217.745 113.564 217.755 114.18ZM227.677 108.711C227.677 109.839 228.546 110.918 229.815 111.357L229.415 111.963C228.438 111.611 227.682 110.884 227.311 109.99C226.935 110.986 226.129 111.787 225.099 112.168L224.698 111.562C225.978 111.104 226.905 109.946 226.905 108.721V108.34H224.942V107.715H229.62V108.34H227.677V108.711ZM226.017 113.408V112.773H231.856V115.791H231.085V113.408H226.017ZM229.347 110.029V109.385H231.085V107.109H231.856V112.314H231.085V110.029H229.347ZM242.677 107.676V108.438C242.677 109.258 242.677 110.161 242.428 111.406H243.722V112.041H240.138V115.811H239.366V112.041H235.812V111.406H241.651C241.915 110.156 241.915 109.248 241.915 108.438V108.311H236.808V107.676H242.677ZM252.394 111.709V112.334H248.858V114.033H248.097V112.334H244.444V111.709H252.394ZM245.46 115.605V113.232H246.222V114.961H251.505V115.605H245.46ZM245.509 110.859V107.393H246.271V108.506H250.567V107.393H251.329V110.859H245.509ZM246.271 110.234H250.567V109.092H246.271V110.234ZM263.556 114.033V114.678H255.606V114.033H257.579V111.694C256.837 111.309 256.388 110.684 256.388 109.893C256.388 108.55 257.706 107.666 259.562 107.656C261.417 107.666 262.735 108.55 262.735 109.893C262.735 110.669 262.301 111.284 261.583 111.67V114.033H263.556ZM257.13 109.893C257.125 110.864 258.136 111.514 259.562 111.514C260.973 111.514 261.993 110.864 261.993 109.893C261.993 108.921 260.973 108.281 259.562 108.291C258.136 108.281 257.125 108.921 257.13 109.893ZM258.331 114.033H260.812V111.968C260.436 112.065 260.016 112.119 259.562 112.119C259.117 112.119 258.702 112.07 258.331 111.973V114.033ZM272.198 114.023V114.658H264.249V114.023H267.804V111.895H268.556V114.023H272.198ZM264.562 111.357C266.08 111.099 267.77 109.829 267.774 108.369V107.705H268.575V108.369C268.58 109.819 270.294 111.099 271.808 111.357L271.466 111.992C270.143 111.719 268.746 110.825 268.185 109.575C267.613 110.82 266.231 111.719 264.903 111.992L264.562 111.357ZM280.841 114.072V114.717H272.892V114.072H276.466V112.432H273.888V109.756H279.083V108.389H273.868V107.754H279.835V110.381H274.649V111.797H280.04V112.432H277.218V114.072H280.841ZM290.821 107.109V109.336H292.12V109.99H290.821V112.236H290.05V107.109H290.821ZM284.005 111.455C284.698 111.455 285.509 111.455 286.358 111.431V110.894C285.338 110.811 284.693 110.405 284.698 109.746C284.693 109.033 285.494 108.618 286.729 108.623C287.965 108.618 288.761 109.033 288.771 109.746C288.761 110.4 288.131 110.806 287.12 110.894V111.401C287.931 111.362 288.751 111.299 289.513 111.191L289.581 111.709C287.706 112.017 285.621 112.031 284.093 112.031L284.005 111.455ZM284.22 108.33V107.773H286.358V107.031H287.12V107.773H289.249V108.33H284.22ZM285.167 113.174V112.627H290.821V114.375H285.948V115.146H291.153V115.693H285.187V113.857H290.06V113.174H285.167ZM285.431 109.746C285.426 110.137 285.929 110.386 286.729 110.391C287.53 110.386 288.038 110.137 288.038 109.746C288.038 109.365 287.53 109.136 286.729 109.131C285.929 109.136 285.426 109.365 285.431 109.746ZM300.597 111.406V112.041H292.687V111.406H294.649V110.181C293.956 109.912 293.565 109.473 293.565 108.887C293.565 107.866 294.737 107.28 296.642 107.275C298.531 107.28 299.703 107.866 299.708 108.887C299.703 109.468 299.317 109.907 298.634 110.181V111.406H300.597ZM293.644 114.238C293.639 113.247 294.757 112.7 296.642 112.705C298.502 112.7 299.62 113.247 299.63 114.238C299.62 115.229 298.502 115.771 296.642 115.771C294.757 115.771 293.639 115.229 293.644 114.238ZM294.356 108.887C294.352 109.521 295.221 109.888 296.642 109.893C298.048 109.888 298.922 109.521 298.927 108.887C298.922 108.262 298.048 107.881 296.642 107.881C295.221 107.881 294.352 108.262 294.356 108.887ZM294.425 114.238C294.415 114.829 295.25 115.181 296.642 115.176C298.019 115.181 298.854 114.829 298.858 114.238C298.854 113.647 298.019 113.301 296.642 113.291C295.25 113.301 294.415 113.647 294.425 114.238ZM295.411 111.406H297.872V110.386C297.506 110.454 297.096 110.488 296.642 110.488C296.188 110.488 295.777 110.454 295.411 110.391V111.406Z" fill="#717680"/>
<rect x="328" width="180" height="180" rx="90" fill="#FFEEEE"/>
<path d="M374.899 68.2305C374.893 70.3506 375.858 72.4771 377.819 73.3086L376.867 74.6035C375.547 74.0068 374.633 72.8516 374.106 71.4233C373.585 72.9849 372.64 74.2417 371.23 74.8828L370.253 73.5371C372.271 72.6865 373.255 70.4712 373.262 68.2305V66.5039H374.899V68.2305ZM378.441 77.1934V65.6152H380.079V77.1934H378.441ZM387.722 67.1387C387.715 68.8335 389.22 70.6426 391.835 71.0869L391.124 72.4326C389.105 72.0327 387.614 70.8965 386.865 69.4175C386.103 70.8838 384.605 72.0264 382.605 72.4326L381.907 71.0869C384.478 70.6299 385.982 68.8145 385.995 67.1387V66.3008H387.722V67.1387ZM381.641 75.7461V74.4131H392.216V75.7461H381.641ZM397.738 66.3008V67.6084H394.882V68.5225H397.307V69.7666H394.882V70.7759C396.139 70.7568 397.059 70.6997 398.132 70.5283L398.297 71.7852C396.97 72.0137 395.866 72.0581 394.12 72.0518H393.333V66.3008H397.738ZM394.92 77.041V72.9658H402.804V77.041H394.92ZM396.532 75.7461H401.204V74.2354H396.532V75.7461ZM397.802 69.6904V68.3955H398.97V65.793H400.506V72.4326H398.97V69.6904H397.802ZM401.268 72.5088V65.6152H402.804V72.5088H401.268ZM410.396 65.958C412.154 65.9517 413.474 67.0562 413.48 68.5986C413.474 70.1284 412.154 71.2202 410.396 71.2266C408.612 71.2202 407.285 70.1284 407.285 68.5986C407.285 67.0562 408.612 65.9517 410.396 65.958ZM408.859 68.5986C408.847 69.4238 409.5 69.9126 410.396 69.9189C411.271 69.9126 411.913 69.4238 411.919 68.5986C411.913 67.7671 411.271 67.2783 410.396 67.2783C409.507 67.2783 408.847 67.7671 408.859 68.5986ZM409.024 73.1309V71.8867H416.781V75.0225H410.637V75.7715H417.099V77.041H409.05V73.8418H415.169V73.1309H409.024ZM415.156 71.4043V65.6152H416.781V71.4043H415.156ZM424.817 66.4531V67.1768C424.817 67.9766 424.817 69.1318 424.551 70.5664L422.964 70.4141C423.173 69.3096 423.224 68.4653 423.237 67.7734H418.876V66.4531H424.817ZM418.19 71.4043C418.838 71.4043 419.568 71.4043 420.336 71.3853V69.1191H421.948V71.3345C423.104 71.2837 424.278 71.1948 425.363 71.0361L425.452 72.2041C423.046 72.6484 420.342 72.6929 418.33 72.6992L418.19 71.4043ZM419.892 76.9648V73.4863H421.517V75.6699H428.004V76.9648H419.892ZM425.985 74.2607V65.6152H427.648V69.1318H429.045V70.4902H427.648V74.2607H425.985ZM433.945 67.1895C433.939 68.7319 434.732 70.1602 436.586 70.7314L435.735 72.001C434.491 71.5693 433.647 70.7759 433.158 69.7349C432.65 70.9409 431.717 71.8867 430.327 72.3564L429.477 71.0615C431.451 70.4268 432.301 68.8779 432.308 67.2656V66.2119H433.945V67.1895ZM431.394 74.9336C431.394 73.5117 432.904 72.6802 435.367 72.6865C437.836 72.6802 439.347 73.5117 439.354 74.9336C439.347 76.3618 437.836 77.1743 435.367 77.168C432.904 77.1743 431.394 76.3618 431.394 74.9336ZM433.006 74.9336C433.006 75.5747 433.837 75.9111 435.367 75.9111C436.903 75.9111 437.735 75.5747 437.741 74.9336C437.735 74.2734 436.903 73.9434 435.367 73.9434C433.837 73.9434 433.006 74.2734 433.006 74.9336ZM435.532 69.0557V67.7354H437.703V65.6152H439.315V72.3818H437.703V69.0557H435.532ZM453.052 65.6279V68.9287H454.524V70.2617H453.052V73.4736H451.427V65.6279H453.052ZM443.683 71.9883C444.527 71.9883 445.485 71.9883 446.488 71.9629V71.3154C445.231 71.1377 444.451 70.522 444.457 69.6396C444.451 68.5669 445.574 67.9067 447.288 67.9131C448.989 67.9067 450.113 68.5669 450.119 69.6396C450.113 70.522 449.338 71.1313 448.101 71.3091V71.9058C449.053 71.855 450.005 71.7852 450.894 71.6709L451.008 72.7881C448.564 73.2197 445.885 73.2451 443.848 73.2451L443.683 71.9883ZM443.987 67.6465V66.4658H446.488V65.5264H448.101V66.4658H450.602V67.6465H443.987ZM445.155 75.1875V73.9434H453.052V77.168H451.427V75.1875H445.155ZM446.006 69.6396C446 70.0586 446.463 70.3062 447.288 70.2998C448.101 70.3062 448.564 70.0586 448.57 69.6396C448.564 69.189 448.101 68.9922 447.288 68.9922C446.463 68.9922 446 69.189 446.006 69.6396ZM465.62 74.502V75.8223H455.045V74.502H459.501V72.3691H456.162V66.3516H457.787V68.1416H462.827V66.3516H464.439V72.3691H461.113V74.502H465.62ZM457.787 71.0742H462.827V69.4365H457.787V71.0742Z" fill="#D9433E"/>
<path d="M385.93 92.1094V100.811H385.168V95.9766H383.088V98.6133H379.084V92.793H379.855V95.0586H382.336V92.793H383.088V95.3418H385.168V92.1094H385.93ZM379.855 97.9785H382.336V95.6738H379.855V97.9785ZM395.285 96.9238V97.5488H387.365V96.9238H395.285ZM388.4 100.605V98.1836H389.162V99.9609H394.455V100.605H388.4ZM388.42 96.1035V92.4414H394.299V93.0566H389.191V93.9648H394.064V94.5605H389.191V95.498H394.348V96.1035H388.42ZM396.936 97.5391C396.594 97.5342 396.301 97.251 396.311 96.9043C396.301 96.5625 396.594 96.2793 396.936 96.2793C397.282 96.2793 397.565 96.5625 397.561 96.9043C397.565 97.251 397.282 97.5342 396.936 97.5391ZM403.059 93.0176C403.054 95.5225 402.199 97.8174 399.074 99.3555L398.645 98.7695C400.275 97.9736 401.257 96.9678 401.784 95.8008L398.811 96.084L398.684 95.4102L402.019 95.1855C402.175 94.6973 402.263 94.1846 402.297 93.6523H399.123V93.0176H403.059ZM404.514 100.791V92.1094H405.275V95.6445H406.682V96.2891H405.275V100.791H404.514ZM414.211 96.2891V96.9238H408.215V92.9199H414.123V93.5547H408.977V96.2891H414.211ZM407.199 99.6094V98.9648H415.148V99.6094H407.199ZM416.76 97.5391C416.418 97.5342 416.125 97.251 416.135 96.9043C416.125 96.5625 416.418 96.2793 416.76 96.2793C417.106 96.2793 417.39 96.5625 417.385 96.9043C417.39 97.251 417.106 97.5342 416.76 97.5391ZM420.705 92.7832C421.984 92.7881 422.893 93.9648 422.902 95.8105C422.893 97.6611 421.984 98.833 420.705 98.8281C419.416 98.833 418.513 97.6611 418.518 95.8105C418.513 93.9648 419.416 92.7881 420.705 92.7832ZM419.24 95.8105C419.245 97.2217 419.846 98.1494 420.705 98.1445C421.574 98.1494 422.16 97.2217 422.16 95.8105C422.16 94.3994 421.574 93.4717 420.705 93.4668C419.846 93.4717 419.245 94.3994 419.24 95.8105ZM424.338 100.791V92.1094H425.1V95.5762H426.555V96.2402H425.1V100.791H424.338ZM434.182 92.1094V100.811H433.41V92.1094H434.182ZM427.346 95.8105C427.351 93.9648 428.269 92.7881 429.562 92.7832C430.852 92.7881 431.784 93.9648 431.779 95.8105C431.784 97.6611 430.852 98.833 429.562 98.8281C428.269 98.833 427.351 97.6611 427.346 95.8105ZM428.088 95.8105C428.088 97.2217 428.693 98.1494 429.562 98.1445C430.437 98.1494 431.037 97.2217 431.037 95.8105C431.037 94.3994 430.437 93.4717 429.562 93.4668C428.693 93.4717 428.088 94.3994 428.088 95.8105ZM442.59 92.5391V93.2617C442.595 94.0674 442.595 94.9512 442.355 96.1426L441.594 96.0742C441.701 95.5664 441.76 95.1123 441.789 94.7021L436.506 94.9512L436.398 94.2969L441.823 94.1211C441.833 93.8184 441.838 93.5352 441.838 93.2617V93.1641H436.613V92.5391H442.59ZM435.676 97.3535V96.7285H438.898V95.4492H439.67V96.7285H443.576V97.3535H435.676ZM436.682 100.654V98.0957H437.453V100.029H442.795V100.654H436.682ZM457.248 96.2402V96.8848H449.328V96.2402H457.248ZM450.285 99.209C450.28 98.2129 451.408 97.6465 453.283 97.6465C455.144 97.6465 456.262 98.2129 456.271 99.209C456.262 100.215 455.144 100.771 453.283 100.771C451.408 100.771 450.28 100.215 450.285 99.209ZM450.334 95.4102V92.4609H456.262V93.1055H451.086V94.7852H456.32V95.4102H450.334ZM451.066 99.209C451.057 99.8193 451.892 100.166 453.283 100.166C454.66 100.166 455.495 99.8193 455.5 99.209C455.495 98.6035 454.66 98.252 453.283 98.2422C451.892 98.252 451.057 98.6035 451.066 99.209ZM372.956 107.109V115.811H372.185V107.109H372.956ZM366.364 113.652V107.939H370.495V108.584H367.136V112.988C368.825 112.988 369.934 112.939 371.237 112.705L371.315 113.35C369.968 113.589 368.825 113.647 367.067 113.652H366.364ZM377.38 109.775C377.37 111.167 378.376 112.7 379.636 113.301L379.196 113.906C378.22 113.428 377.395 112.402 377.004 111.226C376.604 112.5 375.734 113.623 374.763 114.121L374.294 113.516C375.544 112.905 376.618 111.255 376.628 109.775V108.643H374.606V108.008H379.333V108.643H377.38V109.775ZM380.397 115.791V107.109H381.159V110.625H382.614V111.279H381.159V115.791H380.397ZM390.251 107.119V113.467H389.489V107.119H390.251ZM383.288 109.854C383.283 108.604 384.265 107.729 385.563 107.725C386.862 107.729 387.834 108.604 387.839 109.854C387.834 111.118 386.862 111.997 385.563 111.992C384.265 111.997 383.283 111.118 383.288 109.854ZM384.04 109.854C384.03 110.718 384.685 111.318 385.563 111.318C386.428 111.318 387.087 110.718 387.087 109.854C387.087 109.004 386.428 108.398 385.563 108.398C384.685 108.398 384.03 109.004 384.04 109.854ZM384.646 115.605V112.822H385.407V114.961H390.524V115.605H384.646ZM398.562 108.389C398.566 109.878 400.266 111.201 401.774 111.484L401.423 112.129C400.109 111.826 398.732 110.894 398.171 109.619C397.604 110.894 396.232 111.821 394.919 112.129L394.567 111.484C396.071 111.196 397.756 109.883 397.761 108.389V107.725H398.562V108.389ZM394.235 114.609V113.975H402.185V114.609H394.235ZM407.331 107.9V108.545H404.03V110.342H407.136V110.967H404.03V113.066C405.598 113.066 406.696 113.008 407.995 112.783L408.083 113.418C406.726 113.647 405.588 113.696 403.942 113.701H403.259V107.9H407.331ZM408.835 115.791V107.109H409.597V110.605H411.052V111.26H409.597V115.791H408.835ZM413.981 107.432C415.28 107.437 416.223 108.228 416.228 109.355C416.223 110.488 415.28 111.27 413.981 111.27C412.668 111.27 411.721 110.488 411.726 109.355C411.721 108.228 412.668 107.437 413.981 107.432ZM412.478 109.355C412.468 110.117 413.107 110.645 413.981 110.645C414.841 110.645 415.485 110.117 415.485 109.355C415.485 108.604 414.841 108.071 413.981 108.076C413.107 108.071 412.468 108.604 412.478 109.355ZM413.044 112.607V111.992H418.688V114.082H413.815V115.059H419.001V115.674H413.063V113.506H417.927V112.607H413.044ZM417.927 111.572V107.109H418.688V111.572H417.927ZM430.085 107.109V115.791H429.333V111.25H428.132V115.361H427.399V107.344H428.132V110.615H429.333V107.109H430.085ZM422.683 113.389C424.699 112.261 425.529 110.674 425.661 108.877H423.015V108.242H426.413C426.403 110.449 425.627 112.534 423.132 113.926L422.683 113.389ZM438.513 107.109V113.574H437.741V111.055H436.257V110.41H437.741V109.404H436.257V108.77H437.741V107.109H438.513ZM431.335 111.602C431.682 111.602 432.058 111.597 432.458 111.592V108.447H431.579V107.822H436.188V108.447H435.3V111.489C435.7 111.465 436.096 111.431 436.472 111.387L436.511 111.963C434.826 112.222 432.844 112.251 431.433 112.256L431.335 111.602ZM432.917 115.605V113.037H433.688V114.961H438.747V115.605H432.917ZM433.2 111.577C433.645 111.567 434.104 111.553 434.558 111.533V108.447H433.2V111.577ZM446.999 107.676V111.211H442.927V107.676H446.999ZM443.552 115.166C445.046 115 446.481 114.155 446.481 113.291H443.913V112.695H446.491V111.846H447.253V112.695H449.851V113.291H447.272C447.268 114.136 448.664 114.98 450.153 115.166L449.89 115.762C448.586 115.581 447.395 114.966 446.877 114.165C446.354 114.985 445.134 115.581 443.825 115.762L443.552 115.166ZM443.679 110.605H446.247V108.301H443.679V110.605ZM448.874 112.1V107.109H449.626V112.1H448.874ZM461.53 111.719V112.344H453.61V111.719H457.185V110.859H454.665V107.363H460.544V107.988H455.437V108.799H460.31V109.385H455.437V110.244H460.593V110.859H457.946V111.719H461.53ZM454.577 114.385C454.572 113.481 455.651 112.988 457.575 112.998C459.479 112.988 460.554 113.481 460.563 114.385C460.554 115.298 459.479 115.771 457.575 115.771C455.651 115.771 454.572 115.298 454.577 114.385ZM455.349 114.385C455.339 114.912 456.14 115.186 457.575 115.176C458.996 115.186 459.787 114.912 459.792 114.385C459.787 113.867 458.996 113.579 457.575 113.574C456.14 113.579 455.339 113.867 455.349 114.385ZM464.724 107.432C466.022 107.437 466.965 108.228 466.97 109.355C466.965 110.488 466.022 111.27 464.724 111.27C463.41 111.27 462.463 110.488 462.468 109.355C462.463 108.228 463.41 107.437 464.724 107.432ZM463.22 109.355C463.21 110.117 463.85 110.645 464.724 110.645C465.583 110.645 466.228 110.117 466.228 109.355C466.228 108.604 465.583 108.071 464.724 108.076C463.85 108.071 463.21 108.604 463.22 109.355ZM463.786 112.607V111.992H469.431V114.082H464.558V115.059H469.743V115.674H463.806V113.506H468.669V112.607H463.786ZM468.669 111.572V107.109H469.431V111.572H468.669Z" fill="#717680"/>
<path fill-rule="evenodd" clip-rule="evenodd" d="M562.22 84.9697C562.513 84.6768 562.987 84.6768 563.28 84.9697L567.78 89.4697C568.073 89.7626 568.073 90.2374 567.78 90.5303L563.28 95.0303C562.987 95.3232 562.513 95.3232 562.22 95.0303C561.927 94.7374 561.927 94.2626 562.22 93.9697L566.189 90L562.22 86.0303C561.927 85.7374 561.927 85.2626 562.22 84.9697Z" fill="#1D2329"/>
<rect x="622" width="180" height="180" rx="90" fill="url(#paint0_linear_781_45250)"/>
<path d="M693.332 64.4512V65.7715H682.756V64.4512H693.332ZM683.874 62.5215V56.3516H685.499V58.2686H690.539V56.3516H692.151V62.5215H683.874ZM685.499 61.252H690.539V59.5254H685.499V61.252ZM703.919 55.6279V64.1973H702.383V60.2109H701.38V63.9561H699.87V55.8311H701.38V58.9033H702.383V55.6279H703.919ZM694.449 57.8242V56.5547H698.854V60.1475H696.023V61.3345C697.286 61.3218 698.232 61.2583 699.324 61.0488L699.463 62.3311C698.111 62.5723 696.975 62.6104 695.261 62.6104H694.461V58.9541H697.292V57.8242H694.449ZM696.086 66.9648V63.3848H697.711V65.6699H704.211V66.9648H696.086ZM714.647 60.96V62.2549H706.471V56.5801H714.558V57.8877H708.071V60.96H714.647ZM705.227 65.7588V64.4258H715.802V65.7588H705.227ZM725.514 56.1104C725.514 59.2271 723.972 61.0552 720.246 61.9248L719.674 60.6934C721.274 60.3442 722.309 59.8301 722.95 59.189L719.954 59.3984L719.725 58.1924L723.654 58.0591C723.724 57.8369 723.775 57.6021 723.8 57.3672H720.309V56.1104H725.514ZM721.515 63.1436V61.8994H729.196V65.0225H723.127V65.7715H729.45V67.041H721.528V63.8545H727.596V63.1436H721.515ZM725.54 59.4111V58.0908H727.583V55.6152H729.196V61.4678H727.583V59.4111H725.54ZM740.431 55.6152V67.1934H738.819V61.0996H736.953V59.7793H738.819V55.6152H740.431ZM731.075 57.8877V56.5801H736.305V60.9092H732.712V63.1689C734.306 63.1562 735.651 63.0991 737.143 62.8389L737.27 64.1592C735.556 64.4448 733.988 64.5083 732.052 64.502H731.1V59.627H734.731V57.8877H731.075ZM670.721 81.6201V80.0586H676.891V81.6201H670.721ZM670.721 84.5908V83.0293H676.891V84.5908H670.721ZM691.123 75.6152V82.4707H689.51V79.7412H687.708V78.4336H689.51V75.6152H691.123ZM681.309 81.2012C683.201 80.5664 684.064 79.0557 684.102 77.6084H681.779V76.3135H688.05V77.6084H685.752C685.784 78.9541 686.609 80.3125 688.406 80.9092L687.606 82.1787C686.336 81.7661 685.454 80.9282 684.953 79.8936C684.445 81.0679 683.518 82.0137 682.147 82.4834L681.309 81.2012ZM683.201 84.959C683.201 83.5562 684.711 82.731 687.174 82.7246C689.644 82.731 691.154 83.5562 691.161 84.959C691.154 86.3618 689.644 87.1807 687.174 87.1807C684.711 87.1807 683.201 86.3618 683.201 84.959ZM684.813 84.959C684.813 85.6191 685.645 85.9492 687.174 85.9492C688.71 85.9492 689.542 85.6191 689.548 84.959C689.542 84.2925 688.71 83.9624 687.174 83.9688C685.645 83.9624 684.813 84.2925 684.813 84.959ZM703.196 84.502V85.8223H692.621V84.502H697.077V82.3691H693.738V76.3516H695.363V78.1416H700.403V76.3516H702.015V82.3691H698.689V84.502H703.196ZM695.363 81.0742H700.403V79.4365H695.363V81.0742ZM716.526 75.6279V83.9307H714.901V75.6279H716.526ZM707.03 79.2715C707.03 77.5767 708.414 76.3579 710.191 76.3643C711.962 76.3579 713.346 77.5767 713.352 79.2715C713.346 80.9917 711.962 82.2041 710.191 82.2041C708.414 82.2041 707.03 80.9917 707.03 79.2715ZM708.617 79.2715C708.604 80.2363 709.283 80.7949 710.191 80.7949C711.067 80.7949 711.746 80.2363 711.752 79.2715C711.746 78.332 711.067 77.7671 710.191 77.7734C709.283 77.7671 708.604 78.332 708.617 79.2715ZM708.782 86.9648V83.0928H710.419V85.6699H716.831V86.9648H708.782ZM722.569 78.7637C722.562 80.6299 723.527 82.6294 725.463 83.4355L724.587 84.7051C723.229 84.1274 722.29 82.9785 721.769 81.582C721.249 83.0991 720.29 84.3687 718.925 84.9971L717.999 83.7148C719.916 82.8579 720.906 80.7188 720.906 78.7637V78.0527H718.456V76.7324H724.981V78.0527H722.569V78.7637ZM726.124 87.168V75.6152H727.761V87.168H726.124ZM741.739 80.7822V82.0645H738.387V84.5273H742.894V85.8477H732.319V84.5273H736.775V82.0645H733.563V76.4277H741.65V77.7227H735.188V80.7822H741.739ZM752.86 76.2881V77.3291C752.854 78.4082 752.854 79.5825 752.562 81.2012H754.091V82.5088H749.584V87.1807H747.959V82.5088H743.554V81.2012H750.917C751.216 79.7158 751.241 78.5796 751.248 77.583H744.76V76.2881H752.86Z" fill="white"/>
<path d="M657.234 109.521V107.627H655.35V106.836H657.234V104.951H658.025V106.836H659.92V107.627H658.025V109.521H657.234ZM667.986 102.676V103.438C667.986 104.258 667.986 105.161 667.737 106.406H669.031V107.041H665.447V110.811H664.676V107.041H661.121V106.406H666.961C667.225 105.156 667.225 104.248 667.225 103.438V103.311H662.117V102.676H667.986ZM677.713 109.033V109.678H669.764V109.033H673.348V106.924H674.119V109.033H677.713ZM670.154 106.611C671.624 106.362 673.328 105.146 673.328 103.76V103.545H670.418V102.9H677.029V103.545H674.119V103.76C674.124 105.146 675.833 106.338 677.332 106.582L677.02 107.188C675.691 106.924 674.29 106.079 673.733 104.878C673.177 106.094 671.78 106.958 670.477 107.227L670.154 106.611ZM688.826 106.172V106.807H685.242V107.734C686.878 107.808 687.85 108.34 687.859 109.258C687.85 110.229 686.731 110.771 684.871 110.771C682.986 110.771 681.868 110.229 681.873 109.258C681.868 108.34 682.835 107.808 684.49 107.734V106.807H680.916V106.172H688.826ZM681.365 105.039C682.869 104.883 684.319 104.116 684.373 103.145H681.639V102.52H688.123V103.145H685.369C685.423 104.116 686.858 104.883 688.387 105.039L688.104 105.645C686.683 105.474 685.35 104.834 684.871 103.872C684.393 104.834 683.069 105.474 681.639 105.645L681.365 105.039ZM682.654 109.258C682.645 109.834 683.479 110.181 684.871 110.176C686.248 110.181 687.083 109.834 687.088 109.258C687.083 108.667 686.248 108.33 684.871 108.32C683.479 108.33 682.645 108.667 682.654 109.258ZM696.727 102.119V107.051H695.965V102.119H696.727ZM689.627 106.221C690.94 105.762 691.854 104.585 691.854 103.311V102.461H692.635V103.311C692.625 104.536 693.562 105.62 694.842 106.074L694.451 106.66C693.445 106.313 692.64 105.581 692.249 104.634C691.863 105.64 691.053 106.44 690.018 106.826L689.627 106.221ZM691.082 110.674V107.549H696.727V110.674H691.082ZM691.834 110.049H695.975V108.174H691.834V110.049ZM701.043 102.744C702.405 102.749 703.372 103.579 703.377 104.785C703.372 105.996 702.405 106.821 701.043 106.826C699.671 106.821 698.694 105.996 698.699 104.785C698.694 103.579 699.671 102.749 701.043 102.744ZM698.25 108.242C699.852 108.247 702.063 108.232 703.982 107.949L704.041 108.516C702.054 108.887 699.92 108.896 698.357 108.896L698.25 108.242ZM699.451 104.785C699.446 105.596 700.115 106.152 701.043 106.152C701.961 106.152 702.63 105.596 702.625 104.785C702.63 103.979 701.961 103.418 701.043 103.418C700.115 103.418 699.446 103.979 699.451 104.785ZM704.559 110.811V102.109H705.32V110.811H704.559ZM712.742 103.076V106.074H710.389V108.008C711.39 107.998 712.337 107.969 713.494 107.764L713.553 108.398C712.317 108.618 711.321 108.647 710.223 108.652H709.646V105.439H712.01V103.711H709.627V103.076H712.742ZM713.162 105.869V105.244H714.275V102.324H714.998V110.332H714.275V105.869H713.162ZM716.043 110.791V102.109H716.775V110.791H716.043ZM725.154 102.109V110.811H724.383V102.109H725.154ZM718.318 105.811C718.323 103.965 719.241 102.788 720.535 102.783C721.824 102.788 722.757 103.965 722.752 105.811C722.757 107.661 721.824 108.833 720.535 108.828C719.241 108.833 718.323 107.661 718.318 105.811ZM719.061 105.811C719.061 107.222 719.666 108.149 720.535 108.145C721.409 108.149 722.01 107.222 722.01 105.811C722.01 104.399 721.409 103.472 720.535 103.467C719.666 103.472 719.061 104.399 719.061 105.811ZM728.963 102.783C730.242 102.788 731.15 103.965 731.16 105.811C731.15 107.661 730.242 108.833 728.963 108.828C727.674 108.833 726.771 107.661 726.775 105.811C726.771 103.965 727.674 102.788 728.963 102.783ZM727.498 105.811C727.503 107.222 728.104 108.149 728.963 108.145C729.832 108.149 730.418 107.222 730.418 105.811C730.418 104.399 729.832 103.472 728.963 103.467C728.104 103.472 727.503 104.399 727.498 105.811ZM732.596 110.791V102.109H733.357V105.576H734.812V106.24H733.357V110.791H732.596ZM743.221 106.074V106.738H739.598V107.686H738.846V106.738H735.281V106.074H743.221ZM735.857 110.166C737.41 110.005 738.826 109.302 738.826 108.359V108.076H739.607V108.359C739.612 109.316 741.014 110.005 742.586 110.166L742.342 110.752C740.97 110.601 739.734 110.078 739.217 109.248C738.699 110.068 737.474 110.601 736.111 110.752L735.857 110.166ZM736.16 103.838C736.16 102.817 737.332 102.251 739.236 102.256C741.141 102.251 742.298 102.817 742.303 103.838C742.298 104.849 741.141 105.43 739.236 105.42C737.332 105.43 736.16 104.849 736.16 103.838ZM736.951 103.838C736.946 104.453 737.815 104.829 739.236 104.824C740.643 104.829 741.517 104.453 741.521 103.838C741.517 103.213 740.643 102.832 739.236 102.842C737.815 102.832 736.946 103.213 736.951 103.838ZM753.631 102.109V106.602H752.859V104.346H750.926V103.711H752.859V102.109H753.631ZM746.424 106.006C747.732 105.571 748.631 104.482 748.641 103.213V102.393H749.393V103.213C749.383 104.351 750.281 105.396 751.551 105.811L751.141 106.406C750.179 106.064 749.412 105.381 749.026 104.502C748.655 105.493 747.869 106.25 746.844 106.621L746.424 106.006ZM748.006 107.656V107.041H753.631V109.111H748.777V110.059H753.953V110.674H748.025V108.525H752.869V107.656H748.006ZM762.508 102.109V110.791H761.775V102.109H762.508ZM755.066 108.359C756.956 107.241 757.903 105.674 758.055 103.857H755.457V103.223H758.816C758.816 103.667 758.777 104.106 758.699 104.531H760.018V102.344H760.75V110.352H760.018V107.344H758.406V106.709H760.018V105.166H758.548C758.128 106.636 757.176 107.935 755.535 108.916L755.066 108.359ZM771.668 109.072V109.717H763.719V109.072H767.293V107.432H764.715V104.756H769.91V103.389H764.695V102.754H770.662V105.381H765.477V106.797H770.867V107.432H768.045V109.072H771.668ZM681.985 117.52C683.147 117.515 684.036 118.193 684.202 119.189H686.019V117.109H686.79V121.768H686.019V119.824H684.207C684.056 120.85 683.162 121.533 681.985 121.533C680.662 121.533 679.725 120.713 679.729 119.521C679.725 118.345 680.662 117.515 681.985 117.52ZM680.462 119.521C680.462 120.312 681.092 120.884 681.985 120.889C682.859 120.884 683.489 120.312 683.489 119.521C683.489 118.721 682.859 118.164 681.985 118.174C681.092 118.164 680.462 118.721 680.462 119.521ZM681.194 125.674V122.207H681.966V123.311H686.019V122.207H686.79V125.674H681.194ZM681.966 125.049H686.019V123.926H681.966V125.049ZM696.175 122.158V122.793H692.552V125.791H691.8V122.793H688.226V122.158H696.175ZM689.251 120.977V117.598H695.14V120.977H689.251ZM690.003 120.371H694.378V118.223H690.003V120.371ZM706.888 118.408V119.043H699.778V118.408H702.962V117.256H703.714V118.408H706.888ZM699.388 124.795V124.16H701.487V122.554C700.843 122.28 700.486 121.831 700.491 121.24C700.481 120.205 701.57 119.604 703.343 119.609C705.101 119.604 706.199 120.205 706.194 121.24C706.199 121.831 705.833 122.28 705.188 122.554V124.16H707.337V124.795H699.388ZM701.263 121.24C701.253 121.87 702.049 122.251 703.343 122.256C704.622 122.251 705.418 121.87 705.413 121.24C705.418 120.596 704.622 120.215 703.343 120.215C702.049 120.215 701.253 120.596 701.263 121.24ZM702.259 124.16H704.437V122.769C704.109 122.832 703.743 122.861 703.343 122.861C702.947 122.861 702.581 122.832 702.259 122.773V124.16ZM711.985 117.217C713.914 117.217 715.047 117.754 715.052 118.721C715.047 119.697 713.914 120.229 711.985 120.234C710.047 120.229 708.909 119.697 708.909 118.721C708.909 117.754 710.047 117.217 711.985 117.217ZM708.03 121.387V120.762H715.94V121.387H713.733V122.246H714.925V124.189H709.769V125.088H715.188V125.693H709.007V123.623H714.173V122.832H708.987V122.246H710.188V121.387H708.03ZM709.71 118.721C709.7 119.316 710.545 119.639 711.985 119.648C713.426 119.639 714.266 119.316 714.271 118.721C714.266 118.149 713.426 117.812 711.985 117.803C710.545 117.812 709.7 118.149 709.71 118.721ZM710.94 122.246H712.972V121.387H710.94V122.246ZM719.661 118.477C719.651 119.717 720.535 120.806 721.81 121.24L721.38 121.836C720.423 121.479 719.671 120.771 719.295 119.858C718.924 120.898 718.133 121.704 717.083 122.1L716.663 121.475C718.001 121.006 718.89 119.854 718.899 118.506V117.607H719.661V118.477ZM718.079 124.15C718.074 123.105 719.183 122.505 720.989 122.51C722.791 122.505 723.899 123.105 723.899 124.15C723.899 125.186 722.791 125.771 720.989 125.771C719.183 125.771 718.074 125.186 718.079 124.15ZM718.841 124.15C718.836 124.78 719.656 125.161 720.989 125.156C722.317 125.161 723.138 124.78 723.138 124.15C723.138 123.501 722.317 123.115 720.989 123.115C719.656 123.115 718.836 123.501 718.841 124.15ZM721.165 119.609V118.975H723.099V117.109H723.87V122.256H723.099V119.609H721.165ZM735.901 118.633V119.268H734.612V120.469H735.901V121.113H734.612V122.715H733.851V117.109H734.612V118.633H735.901ZM727.845 118.711V118.105H730.052V117.041H730.813V118.105H733.021V118.711H727.845ZM728.343 120.693C728.338 119.766 729.173 119.165 730.433 119.16C731.678 119.165 732.513 119.766 732.522 120.693C732.513 121.631 731.678 122.231 730.433 122.227C729.173 122.231 728.338 121.631 728.343 120.693ZM729.026 124.277C729.021 123.33 730.096 122.778 731.868 122.773C733.636 122.778 734.71 123.33 734.71 124.277C734.71 125.22 733.636 125.771 731.868 125.771C730.096 125.771 729.021 125.22 729.026 124.277ZM729.075 120.693C729.07 121.265 729.612 121.631 730.433 121.631C731.243 121.631 731.79 121.265 731.8 120.693C731.79 120.122 731.243 119.746 730.433 119.736C729.612 119.746 729.07 120.122 729.075 120.693ZM729.788 124.277C729.778 124.839 730.569 125.181 731.868 125.176C733.162 125.181 733.953 124.839 733.948 124.277C733.953 123.701 733.162 123.379 731.868 123.379C730.569 123.379 729.778 123.701 729.788 124.277ZM739.368 118.516C739.368 119.697 740.267 120.781 741.526 121.211L741.106 121.816C740.149 121.465 739.393 120.747 739.012 119.839C738.641 120.869 737.864 121.665 736.849 122.061L736.438 121.445C737.737 120.962 738.611 119.8 738.616 118.457V117.559H739.368V118.516ZM737.591 124.189C737.596 123.198 738.685 122.617 740.472 122.617C742.254 122.617 743.333 123.198 743.333 124.189C743.333 125.2 742.254 125.771 740.472 125.771C738.685 125.771 737.596 125.2 737.591 124.189ZM738.362 124.189C738.353 124.805 739.163 125.161 740.472 125.166C741.785 125.161 742.586 124.805 742.591 124.189C742.586 123.599 741.785 123.232 740.472 123.232C739.163 123.232 738.353 123.599 738.362 124.189ZM742.493 122.393V117.109H743.255V119.375H744.563V120.02H743.255V122.393H742.493Z" fill="#E9EAEB"/>
<defs>
<linearGradient id="paint0_linear_781_45250" x1="712" y1="0" x2="712" y2="180" gradientUnits="userSpaceOnUse">
<stop stop-color="#FF524D"/>
<stop offset="1" stop-color="#E13C36"/>
</linearGradient>
</defs>
</svg>
