<?xml version="1.0" encoding="UTF-8"?>
<svg id="Layer_1" xmlns="http://www.w3.org/2000/svg" version="1.1" viewBox="0 0 180 178">
  <!-- Generator: Adobe Illustrator 30.2.1, SVG Export Plug-In . SVG Version: 2.1.1 Build 1)  -->
  <defs>
    <style>
      .st0 {
        fill: #fff;
      }

      .st1 {
        fill: #d02027;
      }
    </style>
  </defs>
  <path class="st1" d="M2,0l178,31.8v2.2l-25.9,144h-2.1L0,151V0h2ZM128.3,118.7l3.3,16.4,11.9,1.7-12.7-71.5-12.5-2.1-27.4,44.8-9.6-51.4c-3.8-.7-7.3-1.3-10.8-1.7l-27.3,44.7-9.4-51.4c-4.4-.9-8.2-1.5-12.6-2l13.5,71.6,10.3,1.8,27.4-44.2,9.8,50.8,10.5,1.7,28.4-45.8,4.8,23.4-8.8-1.1-6.5,10.9,17.6,3.4Z"/>
  <path class="st0" d="M128.3,118.7l-17.6-3.4,6.5-10.9,8.8,1.1-4.8-23.4-28.4,45.8-10.5-1.7-9.8-50.8-27.4,44.2-10.3-1.8-13.5-71.6c4.4.5,8.2,1.1,12.6,2l9.4,51.4,27.3-44.7c3.5.4,7,.9,10.8,1.7l9.6,51.4,27.4-44.8,12.5,2.1,12.7,71.5-11.9-1.7-3.3-16.4Z"/>
</svg>