<svg width="32" height="32" viewBox="0 0 32 32" fill="none" xmlns="http://www.w3.org/2000/svg">
<path d="M28.0625 6H3.75C2.7835 6 2 6.7835 2 7.75V24.1875C2 25.154 2.7835 25.9375 3.75 25.9375H28.0625C29.029 25.9375 29.8125 25.154 29.8125 24.1875V7.75C29.8125 6.7835 29.029 6 28.0625 6Z" fill="url(#paint0_linear_1797_67739)"/>
<path d="M28.0625 6H3.75C2.7835 6 2 6.7835 2 7.75V24.1875C2 25.154 2.7835 25.9375 3.75 25.9375H28.0625C29.029 25.9375 29.8125 25.154 29.8125 24.1875V7.75C29.8125 6.7835 29.029 6 28.0625 6Z" fill="url(#paint1_linear_1797_67739)"/>
<path d="M15.9062 6V25.9375H3.75C2.78351 25.9375 2 25.154 2 24.1875V7.75C2 6.7835 2.78351 6 3.75 6H15.9062Z" fill="url(#paint2_linear_1797_67739)"/>
<path d="M15.9062 6V25.9375H3.75C2.78351 25.9375 2 25.154 2 24.1875V7.75C2 6.7835 2.78351 6 3.75 6H15.9062Z" fill="url(#paint3_radial_1797_67739)"/>
<path d="M15.9062 6V25.9375H28.0625C29.029 25.9375 29.8125 25.154 29.8125 24.1875V7.75C29.8125 6.7835 29.029 6 28.0625 6H15.9062Z" fill="url(#paint4_linear_1797_67739)"/>
<path d="M15.9062 6V25.9375H28.0625C29.029 25.9375 29.8125 25.154 29.8125 24.1875V7.75C29.8125 6.7835 29.029 6 28.0625 6H15.9062Z" fill="url(#paint5_linear_1797_67739)"/>
<path d="M15.9062 6V25.9375H28.0625C29.029 25.9375 29.8125 25.154 29.8125 24.1875V7.75C29.8125 6.7835 29.029 6 28.0625 6H15.9062Z" fill="url(#paint6_linear_1797_67739)"/>
<path d="M15.9062 6V25.9375H28.0625C29.029 25.9375 29.8125 25.154 29.8125 24.1875V7.75C29.8125 6.7835 29.029 6 28.0625 6H15.9062Z" fill="url(#paint7_linear_1797_67739)"/>
<g filter="url(#filter0_i_1797_67739)">
<path d="M2 24.1859C2 23.9234 2.1352 23.6795 2.35776 23.5404L15.6861 15.2092C15.8159 15.1281 15.9808 15.1282 16.1105 15.2095L29.4834 23.5912C29.6882 23.7195 29.8125 23.9442 29.8125 24.1859C29.8125 25.1524 29.029 25.9359 28.0625 25.9359H3.75C2.78351 25.9359 2 25.1524 2 24.1859Z" fill="url(#paint8_linear_1797_67739)"/>
</g>
<path d="M2 24.1859C2 23.9234 2.1352 23.6795 2.35776 23.5404L15.6861 15.2092C15.8159 15.1281 15.9808 15.1282 16.1105 15.2095L29.4834 23.5912C29.6882 23.7195 29.8125 23.9442 29.8125 24.1859C29.8125 25.1524 29.029 25.9359 28.0625 25.9359H3.75C2.78351 25.9359 2 25.1524 2 24.1859Z" fill="url(#paint9_linear_1797_67739)"/>
<path d="M2 24.1859C2 23.9234 2.1352 23.6795 2.35776 23.5404L15.6861 15.2092C15.8159 15.1281 15.9808 15.1282 16.1105 15.2095L29.4834 23.5912C29.6882 23.7195 29.8125 23.9442 29.8125 24.1859C29.8125 25.1524 29.029 25.9359 28.0625 25.9359H3.75C2.78351 25.9359 2 25.1524 2 24.1859Z" fill="url(#paint10_linear_1797_67739)"/>
<g filter="url(#filter1_ii_1797_67739)">
<path d="M2 7.75C2 8.0125 2.1352 8.2564 2.35776 8.3955L15.6861 16.7267C15.8159 16.8078 15.9808 16.8077 16.1105 16.7264L29.4834 8.3447C29.6882 8.2164 29.8125 7.9917 29.8125 7.75C29.8125 6.7835 29.029 6 28.0625 6H3.75C2.78351 6 2 6.7835 2 7.75Z" fill="url(#paint11_linear_1797_67739)"/>
<path d="M2 7.75C2 8.0125 2.1352 8.2564 2.35776 8.3955L15.6861 16.7267C15.8159 16.8078 15.9808 16.8077 16.1105 16.7264L29.4834 8.3447C29.6882 8.2164 29.8125 7.9917 29.8125 7.75C29.8125 6.7835 29.029 6 28.0625 6H3.75C2.78351 6 2 6.7835 2 7.75Z" fill="url(#paint12_linear_1797_67739)"/>
<path d="M2 7.75C2 8.0125 2.1352 8.2564 2.35776 8.3955L15.6861 16.7267C15.8159 16.8078 15.9808 16.8077 16.1105 16.7264L29.4834 8.3447C29.6882 8.2164 29.8125 7.9917 29.8125 7.75C29.8125 6.7835 29.029 6 28.0625 6H3.75C2.78351 6 2 6.7835 2 7.75Z" fill="url(#paint13_linear_1797_67739)"/>
<path d="M2 7.75C2 8.0125 2.1352 8.2564 2.35776 8.3955L15.6861 16.7267C15.8159 16.8078 15.9808 16.8077 16.1105 16.7264L29.4834 8.3447C29.6882 8.2164 29.8125 7.9917 29.8125 7.75C29.8125 6.7835 29.029 6 28.0625 6H3.75C2.78351 6 2 6.7835 2 7.75Z" fill="url(#paint14_radial_1797_67739)"/>
</g>
<defs>
<filter id="filter0_i_1797_67739" x="2" y="14.3984" width="27.8125" height="11.5391" filterUnits="userSpaceOnUse" color-interpolation-filters="sRGB">
<feFlood flood-opacity="0" result="BackgroundImageFix"/>
<feBlend mode="normal" in="SourceGraphic" in2="BackgroundImageFix" result="shape"/>
<feColorMatrix in="SourceAlpha" type="matrix" values="0 0 0 0 0 0 0 0 0 0 0 0 0 0 0 0 0 0 127 0" result="hardAlpha"/>
<feOffset dy="-0.75"/>
<feGaussianBlur stdDeviation="0.75"/>
<feComposite in2="hardAlpha" operator="arithmetic" k2="-1" k3="1"/>
<feColorMatrix type="matrix" values="0 0 0 0 0.819608 0 0 0 0 0.654902 0 0 0 0 0.933333 0 0 0 1 0"/>
<feBlend mode="normal" in2="shape" result="effect1_innerShadow_1797_67739"/>
</filter>
<filter id="filter1_ii_1797_67739" x="2" y="5.85" width="27.8125" height="11.1891" filterUnits="userSpaceOnUse" color-interpolation-filters="sRGB">
<feFlood flood-opacity="0" result="BackgroundImageFix"/>
<feBlend mode="normal" in="SourceGraphic" in2="BackgroundImageFix" result="shape"/>
<feColorMatrix in="SourceAlpha" type="matrix" values="0 0 0 0 0 0 0 0 0 0 0 0 0 0 0 0 0 0 127 0" result="hardAlpha"/>
<feOffset dy="-0.15"/>
<feGaussianBlur stdDeviation="0.225"/>
<feComposite in2="hardAlpha" operator="arithmetic" k2="-1" k3="1"/>
<feColorMatrix type="matrix" values="0 0 0 0 0.827451 0 0 0 0 0.686275 0 0 0 0 0.913725 0 0 0 1 0"/>
<feBlend mode="normal" in2="shape" result="effect1_innerShadow_1797_67739"/>
<feColorMatrix in="SourceAlpha" type="matrix" values="0 0 0 0 0 0 0 0 0 0 0 0 0 0 0 0 0 0 127 0" result="hardAlpha"/>
<feOffset dy="0.25"/>
<feGaussianBlur stdDeviation="0.3"/>
<feComposite in2="hardAlpha" operator="arithmetic" k2="-1" k3="1"/>
<feColorMatrix type="matrix" values="0 0 0 0 0.870588 0 0 0 0 0.858824 0 0 0 0 0.854902 0 0 0 1 0"/>
<feBlend mode="normal" in2="effect1_innerShadow_1797_67739" result="effect2_innerShadow_1797_67739"/>
</filter>
<linearGradient id="paint0_linear_1797_67739" x1="4" y1="17.125" x2="29.8126" y2="16.9375" gradientUnits="userSpaceOnUse">
<stop stop-color="#DFD0E6"/>
<stop offset="1" stop-color="#EEE5F8"/>
</linearGradient>
<linearGradient id="paint1_linear_1797_67739" x1="2" y1="17.0637" x2="5.03821" y2="17.0637" gradientUnits="userSpaceOnUse">
<stop stop-color="#D6BABD"/>
<stop offset="1" stop-color="#DCC9DD" stop-opacity="0"/>
</linearGradient>
<linearGradient id="paint2_linear_1797_67739" x1="10.7436" y1="18.9419" x2="9.98175" y2="17.7548" gradientUnits="userSpaceOnUse">
<stop offset="0.113759" stop-color="#DAC3DF"/>
<stop offset="1" stop-color="#DAC3DF" stop-opacity="0"/>
</linearGradient>
<radialGradient id="paint3_radial_1797_67739" cx="0" cy="0" r="1" gradientUnits="userSpaceOnUse" gradientTransform="translate(12.0298 13.3494) rotate(123.69) scale(2.72523 19.1395)">
<stop offset="0.342267" stop-color="#C8A6D7"/>
<stop offset="1" stop-color="#D1BBDD" stop-opacity="0"/>
</radialGradient>
<linearGradient id="paint4_linear_1797_67739" x1="21" y1="19.25" x2="21.8308" y2="17.7548" gradientUnits="userSpaceOnUse">
<stop offset="0.113759" stop-color="#F6EFFE"/>
<stop offset="1" stop-color="#F3EAFD" stop-opacity="0"/>
</linearGradient>
<linearGradient id="paint5_linear_1797_67739" x1="20.0625" y1="13.9063" x2="21.1249" y2="15.3438" gradientUnits="userSpaceOnUse">
<stop stop-color="#E3CDF7"/>
<stop offset="1" stop-color="#E9D9F8" stop-opacity="0"/>
</linearGradient>
<linearGradient id="paint6_linear_1797_67739" x1="30" y1="19.5312" x2="26.2813" y2="19.5312" gradientUnits="userSpaceOnUse">
<stop stop-color="#F7F3FB"/>
<stop offset="1" stop-color="#F0E9F8" stop-opacity="0"/>
</linearGradient>
<linearGradient id="paint7_linear_1797_67739" x1="30.0001" y1="19.5312" x2="28.7747" y2="19.5312" gradientUnits="userSpaceOnUse">
<stop offset="0.199295" stop-color="#EBE9ED"/>
<stop offset="1" stop-color="#EBE9ED" stop-opacity="0"/>
</linearGradient>
<linearGradient id="paint8_linear_1797_67739" x1="15.9063" y1="27.6859" x2="15.9063" y2="16.8734" gradientUnits="userSpaceOnUse">
<stop stop-color="#DDC5F1"/>
<stop offset="1" stop-color="#E6DAF1"/>
</linearGradient>
<linearGradient id="paint9_linear_1797_67739" x1="7.39234" y1="20.0736" x2="7.84867" y2="20.758" gradientUnits="userSpaceOnUse">
<stop offset="0.0734082" stop-color="#DDC2C8"/>
<stop offset="1" stop-color="#DFCDDA" stop-opacity="0"/>
</linearGradient>
<linearGradient id="paint10_linear_1797_67739" x1="22.4871" y1="19.1257" x2="22.2003" y2="19.5731" gradientUnits="userSpaceOnUse">
<stop offset="0.139796" stop-color="#F8F3FD"/>
<stop offset="1" stop-color="#F1EAF9" stop-opacity="0"/>
</linearGradient>
<linearGradient id="paint11_linear_1797_67739" x1="15.9063" y1="6" x2="15.9063" y2="16.7875" gradientUnits="userSpaceOnUse">
<stop stop-color="#E9E4E9"/>
<stop offset="1" stop-color="#E7DCF0"/>
</linearGradient>
<linearGradient id="paint12_linear_1797_67739" x1="9.71595" y1="12.8467" x2="13.3305" y2="6.3616" gradientUnits="userSpaceOnUse">
<stop stop-color="#E1D5E7"/>
<stop offset="1" stop-color="#E1D5E7" stop-opacity="0"/>
</linearGradient>
<linearGradient id="paint13_linear_1797_67739" x1="2" y1="7.6374" x2="4.93189" y2="7.6374" gradientUnits="userSpaceOnUse">
<stop stop-color="#E1C1BC"/>
<stop offset="1" stop-color="#E9D1CD" stop-opacity="0"/>
</linearGradient>
<radialGradient id="paint14_radial_1797_67739" cx="0" cy="0" r="1" gradientUnits="userSpaceOnUse" gradientTransform="translate(27.3637 10.0826) rotate(-138.233) scale(6.12906 27.1579)">
<stop stop-color="#FBF9FE"/>
<stop offset="1" stop-color="#F0ECF1" stop-opacity="0"/>
</radialGradient>
</defs>
</svg>
