<svg width="120" height="120" viewBox="0 0 120 120" fill="none" xmlns="http://www.w3.org/2000/svg">
<rect width="120" height="120" rx="40" fill="url(#paint0_linear_1376_49246)"/>
<path d="M54.7617 36.6641V62.6641H49.0742V36.6641H54.7617ZM17.3359 49.8164C17.3359 43.3418 22.6172 38.873 29.7266 38.8477C36.8105 38.873 42.0918 43.3418 42.0664 49.8164C42.0918 56.1387 36.8105 60.6836 29.7266 60.6836C22.6172 60.6836 17.3359 56.1387 17.3359 49.8164ZM22.8711 49.8164C22.8457 53.5234 25.7148 55.9355 29.7266 55.9102C33.6621 55.9355 36.5312 53.5234 36.5312 49.8164C36.5312 46.0078 33.6621 43.6211 29.7266 43.6211C25.7148 43.6211 22.8457 46.0078 22.8711 49.8164ZM24.293 81.9609V64.8984H54.7617V81.9609H24.293ZM29.8789 77.3906H49.2266V69.3672H29.8789V77.3906ZM74.2109 38.0352C78.0449 38.0352 81.3203 39.3809 83.5039 41.6406H94.2695V36.6133H99.9062V59.8203H94.2695V55.4023H83.5547C81.3965 57.7129 78.0703 59.084 74.2109 59.1094C67.2539 59.084 62.0742 54.7676 62.0742 48.5469C62.0742 42.3262 67.2539 38.0352 74.2109 38.0352ZM67.457 48.5469C67.457 52.2031 70.2754 54.5137 74.2109 54.5391C78.0195 54.5137 80.8379 52.2031 80.8633 48.5469C80.8379 44.9414 78.0195 42.6055 74.2109 42.6055C70.2754 42.6055 67.457 44.9414 67.457 48.5469ZM69.6406 66.2695V61.9023H99.9062V73.7852H75.3281V77.4922H101.379V81.9609H69.6914V69.6211H94.2695V66.2695H69.6406ZM85.916 46.0078C86.1191 46.8203 86.2461 47.6582 86.2461 48.5469C86.2461 49.3848 86.1445 50.2227 85.9414 50.9844H94.2695V46.0078H85.916Z" fill="white"/>
<defs>
<linearGradient id="paint0_linear_1376_49246" x1="60" y1="0" x2="60" y2="120" gradientUnits="userSpaceOnUse">
<stop stop-color="#9E77ED"/>
<stop offset="1" stop-color="#5B3FA8"/>
</linearGradient>
</defs>
</svg>
