<svg width="20" height="20" viewBox="0 0 20 20" fill="none" xmlns="http://www.w3.org/2000/svg">
<path d="M9.7699 2.11458C9.9204 2.07321 10.0794 2.07321 10.2299 2.11458C10.4005 2.16148 10.5547 2.28376 10.8636 2.52767L16.8295 7.23763C17.2282 7.55239 17.428 7.7095 17.5717 7.90657C17.6988 8.0812 17.7942 8.27846 17.8519 8.48763C17.9169 8.72361 17.9164 8.98008 17.9164 9.49251V15.0599C17.9164 16.0597 17.9167 16.5597 17.725 16.9417C17.5564 17.2776 17.2873 17.5508 16.9564 17.722C16.5801 17.9166 16.0871 17.9163 15.1019 17.9163H4.89783C3.91302 17.9163 3.42055 17.9165 3.04431 17.722C2.71328 17.5508 2.44344 17.2777 2.27478 16.9417C2.0831 16.5597 2.08337 16.0597 2.08337 15.0599V9.49251C2.08337 8.97995 2.08377 8.72366 2.1488 8.48763C2.20648 8.27846 2.30085 8.0812 2.4281 7.90657C2.57175 7.70945 2.77153 7.55245 3.17029 7.23763L9.13611 2.52767C9.44497 2.28381 9.59935 2.16153 9.7699 2.11458ZM7.36072 13.5189C6.87524 13.5191 6.48202 13.9123 6.48181 14.3978C6.48181 14.8834 6.87511 15.2774 7.36072 15.2777H12.639C13.1248 15.2776 13.5189 14.8835 13.5189 14.3978C13.5187 13.9122 13.1246 13.519 12.639 13.5189H7.36072Z" fill="white"/>
</svg>
