<svg width="20" height="20" viewBox="0 0 20 20" fill="none" xmlns="http://www.w3.org/2000/svg">
<path d="M14.1666 2.78333C15.4235 3.50905 16.4691 4.55044 17.1998 5.80442C17.9305 7.0584 18.3211 8.48148 18.3328 9.93278C18.3445 11.3841 17.977 12.8133 17.2666 14.0789C16.5563 15.3445 15.5277 16.4027 14.2827 17.1486C13.0377 17.8945 11.6194 18.3024 10.1684 18.3317C8.71732 18.3611 7.28375 18.011 6.00959 17.316C4.73543 16.6211 3.66485 15.6054 2.90385 14.3696C2.14284 13.1338 1.7178 11.7206 1.67079 10.27L1.66663 10L1.67079 9.73C1.71746 8.29082 2.13625 6.8883 2.88633 5.65916C3.6364 4.43002 4.69217 3.41621 5.9507 2.71657C7.20923 2.01693 8.62758 1.65533 10.0675 1.66703C11.5073 1.67873 12.9196 2.06333 14.1666 2.78333ZM12.6666 11.905C12.5088 11.7503 12.296 11.6646 12.075 11.6668C11.8541 11.669 11.643 11.7589 11.4883 11.9167C11.2943 12.1147 11.0628 12.2721 10.8072 12.3795C10.5516 12.4869 10.2772 12.5422 9.99996 12.5422C9.72274 12.5422 9.4483 12.4869 9.19274 12.3795C8.93717 12.2721 8.70561 12.1147 8.51163 11.9167C8.35613 11.7625 8.14621 11.6758 7.92726 11.6752C7.70831 11.6746 7.49791 11.7602 7.34157 11.9134C7.18522 12.0667 7.09548 12.2754 7.09175 12.4943C7.08802 12.7132 7.17059 12.9248 7.32163 13.0833C7.67077 13.4396 8.0875 13.7227 8.5474 13.9159C9.00729 14.1091 9.50112 14.2086 9.99996 14.2086C10.4988 14.2086 10.9926 14.1091 11.4525 13.9159C11.9124 13.7227 12.3291 13.4396 12.6783 13.0833C12.833 12.9255 12.9187 12.7127 12.9165 12.4917C12.9143 12.2708 12.8244 12.0597 12.6666 11.905ZM7.50829 7.5L7.40246 7.50583C7.19155 7.53092 6.99817 7.63559 6.86185 7.79847C6.72552 7.96135 6.65653 8.17014 6.66898 8.38217C6.68143 8.5942 6.77437 8.79348 6.92882 8.93929C7.08327 9.0851 7.28756 9.16643 7.49996 9.16667L7.60579 9.16083C7.81671 9.13575 8.01008 9.03107 8.14641 8.86819C8.28273 8.70532 8.35172 8.49653 8.33927 8.2845C8.32682 8.07246 8.23388 7.87318 8.07943 7.72737C7.92499 7.58157 7.72069 7.50024 7.50829 7.5ZM12.5083 7.5L12.4025 7.50583C12.1915 7.53092 11.9982 7.63559 11.8618 7.79847C11.7255 7.96135 11.6565 8.17014 11.669 8.38217C11.6814 8.5942 11.7744 8.79348 11.9288 8.93929C12.0833 9.0851 12.2876 9.16643 12.5 9.16667L12.6058 9.16083C12.8167 9.13575 13.0101 9.03107 13.1464 8.86819C13.2827 8.70532 13.3517 8.49653 13.3393 8.2845C13.3268 8.07246 13.2339 7.87318 13.0794 7.72737C12.925 7.58157 12.7207 7.50024 12.5083 7.5Z" fill="white"/>
</svg>
