<svg width="20" height="20" viewBox="0 0 20 20" fill="none" xmlns="http://www.w3.org/2000/svg">
<path d="M18.3336 14.1663C18.3337 14.804 18.0894 15.4182 17.652 15.8822C17.2146 16.3459 16.6165 16.625 15.9801 16.6624L15.8336 16.6663H4.16663C3.52908 16.6664 2.9157 16.423 2.45178 15.9857C1.98794 15.5483 1.70805 14.9502 1.67053 14.3138L1.66663 14.1663V6.27962L9.53772 11.5267L9.6344 11.5814C9.7482 11.6369 9.87299 11.6663 9.99963 11.6663C10.1264 11.6663 10.2519 11.637 10.3658 11.5814L10.4625 11.5267L18.3336 6.27962V14.1663ZM15.8336 3.33333C16.7335 3.33346 17.5226 3.80871 17.9625 4.52279L9.99963 9.8304L2.03772 4.52279C2.24666 4.18342 2.53339 3.89856 2.87463 3.69271C3.21575 3.48694 3.60118 3.3658 3.99866 3.33919L4.16663 3.33333H15.8336Z" fill="white"/>
</svg>
