<svg width="604" height="252" viewBox="0 0 604 252" fill="none" xmlns="http://www.w3.org/2000/svg">
<rect y="36" width="180" height="180" rx="90" fill="#F1F3F5"/>
<path d="M66.416 111.531V121.949H65.4902V111.531H66.416ZM57.9316 119.242C60.75 117.906 62.1914 115.908 62.3965 113.418H58.4121V112.668H63.334C63.3223 115.662 61.9277 118.316 58.4355 119.992L57.9316 119.242ZM73.5176 112.832C73.5117 114.121 75.2578 115.176 77.1035 115.41L76.7402 116.16C75.0586 115.902 73.4824 115.064 72.9199 113.834C72.3516 115.064 70.7871 115.902 69.0996 116.16L68.7598 115.41C70.5938 115.176 72.3281 114.121 72.3223 112.832V112.809H69.041V112.047H76.8223V112.809H73.5176V112.832ZM68.1738 117.918V117.156H72.4629V115.41H73.3652V117.156H77.7012V117.918H68.1738ZM69.4043 121.727V118.762H70.3301V120.953H76.6113V121.727H69.4043ZM91.084 117.473V118.234H88.5645V121.949H87.6387V118.234H84.9668V121.949H84.0176V118.234H81.5449V117.473H91.084ZM82.623 114.227C82.6289 112.838 84.0996 111.959 86.291 111.953C88.4766 111.959 89.959 112.838 89.959 114.227C89.959 115.615 88.4766 116.482 86.291 116.477C84.0996 116.482 82.6289 115.615 82.623 114.227ZM83.5723 114.227C83.5605 115.146 84.668 115.738 86.291 115.738C87.9141 115.738 89.0156 115.146 89.0215 114.227C89.0156 113.301 87.9141 112.703 86.291 112.703C84.668 112.703 83.5605 113.301 83.5723 114.227ZM97.7051 112.34V112.891C97.6992 113.576 97.6992 114.613 97.4355 115.973L96.5098 115.902C96.7617 114.66 96.7852 113.775 96.7969 113.113H92.5137V112.34H97.7051ZM91.8691 116.945C92.543 116.945 93.3047 116.939 94.1074 116.916V114.648H95.0215V116.887C96.1758 116.84 97.3711 116.758 98.4551 116.605L98.5137 117.285C96.3281 117.66 93.8203 117.701 91.9629 117.707L91.8691 116.945ZM93.4746 121.727V118.668H94.4004V120.953H100.436V121.727H93.4746ZM99.1582 119.371V111.531H100.096V114.93H101.619V115.715H100.096V119.371H99.1582ZM110.912 111.531V121.949H109.986V111.531H110.912ZM102.428 119.242C105.246 117.906 106.688 115.908 106.893 113.418H102.908V112.668H107.83C107.818 115.662 106.424 118.316 102.932 119.992L102.428 119.242ZM118.447 112.34V112.891C118.441 113.576 118.441 114.613 118.178 115.973L117.252 115.902C117.504 114.66 117.527 113.775 117.539 113.113H113.256V112.34H118.447ZM112.611 116.945C113.285 116.945 114.047 116.939 114.85 116.916V114.648H115.764V116.887C116.918 116.84 118.113 116.758 119.197 116.605L119.256 117.285C117.07 117.66 114.562 117.701 112.705 117.707L112.611 116.945ZM114.217 121.727V118.668H115.143V120.953H121.178V121.727H114.217ZM119.9 119.371V111.531H120.838V114.93H122.361V115.715H120.838V119.371H119.9ZM45.082 135.473V136.234H42.5625V139.949H41.6367V136.234H38.9648V139.949H38.0156V136.234H35.543V135.473H45.082ZM36.6211 132.227C36.627 130.838 38.0977 129.959 40.2891 129.953C42.4746 129.959 43.957 130.838 43.957 132.227C43.957 133.615 42.4746 134.482 40.2891 134.477C38.0977 134.482 36.627 133.615 36.6211 132.227ZM37.5703 132.227C37.5586 133.146 38.666 133.738 40.2891 133.738C41.9121 133.738 43.0137 133.146 43.0195 132.227C43.0137 131.301 41.9121 130.703 40.2891 130.703C38.666 130.703 37.5586 131.301 37.5703 132.227ZM49.418 132.332C49.418 134.166 50.6309 136.059 52.1133 136.785L51.5508 137.523C50.4023 136.926 49.4414 135.689 48.9785 134.242C48.5156 135.777 47.5312 137.096 46.3594 137.723L45.7734 136.984C47.2969 136.234 48.5039 134.236 48.5156 132.332V130.434H49.418V132.332ZM53.0742 139.949V129.531H53.9883V133.762H55.7344V134.559H53.9883V139.949H53.0742ZM64.3594 129.531V133.832H66.1055V134.594H64.3594V139.949H63.4453V129.531H64.3594ZM56.2383 131.969V131.207H58.9219V129.66H59.8359V131.207H62.4375V131.969H56.2383ZM56.8359 135.227C56.8301 133.82 57.9082 132.836 59.3906 132.836C60.8613 132.836 61.9336 133.82 61.9453 135.227C61.9336 136.639 60.8613 137.617 59.3906 137.617C57.9082 137.617 56.8301 136.639 56.8359 135.227ZM57.7148 135.227C57.709 136.176 58.418 136.844 59.3906 136.832C60.3516 136.844 61.0547 136.176 61.0664 135.227C61.0547 134.283 60.3516 133.604 59.3906 133.609C58.418 133.604 57.709 134.283 57.7148 135.227ZM70.3945 132.73C70.4004 134.5 71.6836 136.299 73.2188 136.961L72.7031 137.688C71.4844 137.137 70.4355 135.936 69.9492 134.494C69.4629 136.023 68.4082 137.348 67.2188 137.945L66.668 137.219C68.1621 136.504 69.4629 134.535 69.4688 132.73V131.371H67.0078V130.609H72.8789V131.371H70.3945V132.73ZM74.332 139.949V129.531H75.2578V139.949H74.332ZM82.3008 130.48V135.273H77.4844V130.48H82.3008ZM78.3867 134.535H81.4102V131.23H78.3867V134.535ZM78.668 139.727V136.445H79.5703V138.953H85.6641V139.727H78.668ZM84.2695 137.172V129.531H85.1836V132.707H86.7539V133.48H85.1836V137.172H84.2695ZM99.0117 129.531V139.973H98.0859V129.531H99.0117ZM91.1016 137.383V130.527H96.0586V131.301H92.0273V136.586C94.0547 136.586 95.3848 136.527 96.9492 136.246L97.043 137.02C95.4258 137.307 94.0547 137.377 91.9453 137.383H91.1016ZM104.32 132.73C104.309 134.4 105.516 136.24 107.027 136.961L106.5 137.688C105.328 137.113 104.338 135.883 103.869 134.471C103.389 136 102.346 137.348 101.18 137.945L100.617 137.219C102.117 136.486 103.406 134.506 103.418 132.73V131.371H100.992V130.609H106.664V131.371H104.32V132.73ZM107.941 139.949V129.531H108.855V133.75H110.602V134.535H108.855V139.949H107.941ZM119.766 129.543V137.16H118.852V129.543H119.766ZM111.41 132.824C111.404 131.324 112.582 130.275 114.141 130.27C115.699 130.275 116.865 131.324 116.871 132.824C116.865 134.342 115.699 135.396 114.141 135.391C112.582 135.396 111.404 134.342 111.41 132.824ZM112.312 132.824C112.301 133.861 113.086 134.582 114.141 134.582C115.178 134.582 115.969 133.861 115.969 132.824C115.969 131.805 115.178 131.078 114.141 131.078C113.086 131.078 112.301 131.805 112.312 132.824ZM113.039 139.727V136.387H113.953V138.953H120.094V139.727H113.039ZM134.238 131.359V132.121H132.691V133.562H134.238V134.336H132.691V136.258H131.777V129.531H132.691V131.359H134.238ZM124.57 131.453V130.727H127.219V129.449H128.133V130.727H130.781V131.453H124.57ZM125.168 133.832C125.162 132.719 126.164 131.998 127.676 131.992C129.17 131.998 130.172 132.719 130.184 133.832C130.172 134.957 129.17 135.678 127.676 135.672C126.164 135.678 125.162 134.957 125.168 133.832ZM125.988 138.133C125.982 136.996 127.271 136.334 129.398 136.328C131.52 136.334 132.809 136.996 132.809 138.133C132.809 139.264 131.52 139.926 129.398 139.926C127.271 139.926 125.982 139.264 125.988 138.133ZM126.047 133.832C126.041 134.518 126.691 134.957 127.676 134.957C128.648 134.957 129.305 134.518 129.316 133.832C129.305 133.146 128.648 132.695 127.676 132.684C126.691 132.695 126.041 133.146 126.047 133.832ZM126.902 138.133C126.891 138.807 127.84 139.217 129.398 139.211C130.951 139.217 131.9 138.807 131.895 138.133C131.9 137.441 130.951 137.055 129.398 137.055C127.84 137.055 126.891 137.441 126.902 138.133ZM138.398 131.219C138.398 132.637 139.477 133.938 140.988 134.453L140.484 135.18C139.336 134.758 138.428 133.896 137.971 132.807C137.525 134.043 136.594 134.998 135.375 135.473L134.883 134.734C136.441 134.154 137.49 132.76 137.496 131.148V130.07H138.398V131.219ZM136.266 138.027C136.271 136.838 137.578 136.141 139.723 136.141C141.861 136.141 143.156 136.838 143.156 138.027C143.156 139.24 141.861 139.926 139.723 139.926C137.578 139.926 136.271 139.24 136.266 138.027ZM137.191 138.027C137.18 138.766 138.152 139.193 139.723 139.199C141.299 139.193 142.26 138.766 142.266 138.027C142.26 137.318 141.299 136.879 139.723 136.879C138.152 136.879 137.18 137.318 137.191 138.027ZM142.148 135.871V129.531H143.062V132.25H144.633V133.023H143.062V135.871H142.148Z" fill="#535862"/>
<rect x="164" y="36" width="180" height="180" rx="90" fill="#F1F3F5"/>
<path d="M223.256 111.531V114.18H224.826V114.965H223.256V117.648H222.342V111.531H223.256ZM215.1 116.816C217.654 116.125 219.23 114.73 219.418 112.961H215.568V112.199H220.396C220.391 114.836 218.551 116.717 215.475 117.531L215.1 116.816ZM216.436 118.879V118.129H223.256V121.949H222.342V118.879H216.436ZM230.674 115.234V116.723H234.975V117.484H225.482V116.723H229.771V115.234H230.674ZM226.01 115.023C227.826 114.83 229.566 113.939 229.631 112.773H226.35V112.023H234.131V112.773H230.826C230.891 113.934 232.631 114.83 234.447 115.023L234.107 115.75C232.402 115.539 230.803 114.795 230.229 113.641C229.654 114.795 228.066 115.539 226.35 115.75L226.01 115.023ZM226.631 120.133C226.625 118.979 227.967 118.34 230.229 118.34C232.467 118.34 233.803 118.979 233.814 120.133C233.803 121.293 232.467 121.926 230.229 121.926C227.967 121.926 226.625 121.293 226.631 120.133ZM227.568 120.133C227.557 120.818 228.541 121.217 230.229 121.211C231.898 121.217 232.883 120.818 232.889 120.133C232.883 119.453 231.898 119.061 230.229 119.066C228.541 119.061 227.557 119.453 227.568 120.133ZM242.592 114.73C242.598 116.5 243.881 118.299 245.416 118.961L244.9 119.688C243.682 119.137 242.633 117.936 242.146 116.494C241.66 118.023 240.605 119.348 239.416 119.945L238.865 119.219C240.359 118.504 241.66 116.535 241.666 114.73V113.371H239.205V112.609H245.076V113.371H242.592V114.73ZM246.529 121.949V111.531H247.455V121.949H246.529ZM258.764 117.754V118.492H256.256V121.949H255.342V118.492H252.646V121.949H251.721V118.492H249.225V117.754H258.764ZM250.373 112.703V111.941H257.604V114.613H251.322V115.914H257.826V116.676H250.396V113.898H256.666V112.703H250.373ZM272.146 116.863V117.625H267.904V119.758H266.99V117.625H262.607V116.863H272.146ZM263.826 121.727V118.727H264.752V120.953H271.08V121.727H263.826ZM263.85 115.668V112.047H270.904V115.668H263.85ZM264.752 114.93H269.99V112.773H264.752V114.93ZM276.658 114.332C276.652 116.219 277.865 118.117 279.377 118.809L278.826 119.559C277.643 118.949 276.664 117.707 276.201 116.225C275.738 117.783 274.76 119.119 273.576 119.746L272.979 119.008C274.508 118.258 275.715 116.254 275.721 114.332V112.434H276.658V114.332ZM278.24 115.844V115.094H280.713V111.531H281.627V121.973H280.713V115.844H278.24ZM286.771 112.293C288.406 112.299 289.566 113.295 289.572 114.742C289.566 116.195 288.406 117.186 286.771 117.191C285.125 117.186 283.953 116.195 283.959 114.742C283.953 113.295 285.125 112.299 286.771 112.293ZM283.42 118.891C285.342 118.896 287.996 118.879 290.299 118.539L290.369 119.219C287.984 119.664 285.424 119.676 283.549 119.676L283.42 118.891ZM284.861 114.742C284.855 115.715 285.658 116.383 286.771 116.383C287.873 116.383 288.676 115.715 288.67 114.742C288.676 113.775 287.873 113.102 286.771 113.102C285.658 113.102 284.855 113.775 284.861 114.742ZM290.99 121.973V111.531H291.904V121.973H290.99ZM243.172 135.086V135.848H233.68V135.086H237.969V133.996C235.971 133.891 234.734 133.141 234.734 131.91C234.734 130.627 236.164 129.854 238.426 129.848C240.664 129.854 242.1 130.627 242.105 131.91C242.1 133.141 240.857 133.891 238.883 133.996V135.086H243.172ZM234.91 139.727V136.691H235.836V138.953H242.117V139.727H234.91ZM235.684 131.91C235.678 132.76 236.744 133.246 238.426 133.246C240.096 133.246 241.162 132.76 241.168 131.91C241.162 131.113 240.096 130.598 238.426 130.598C236.744 130.598 235.678 131.113 235.684 131.91ZM252.113 129.531V133.68H253.859V134.453H252.113V139.973H251.199V129.531H252.113ZM244.461 131.266V130.504H249.195V134.23H245.398V136.668C247.332 136.674 248.686 136.598 250.262 136.305L250.355 137.066C248.715 137.365 247.326 137.441 245.316 137.453H244.484V133.469H248.281V131.266H244.461ZM263.023 129.543V137.16H262.109V129.543H263.023ZM254.668 132.824C254.662 131.324 255.84 130.275 257.398 130.27C258.957 130.275 260.123 131.324 260.129 132.824C260.123 134.342 258.957 135.396 257.398 135.391C255.84 135.396 254.662 134.342 254.668 132.824ZM255.57 132.824C255.559 133.861 256.344 134.582 257.398 134.582C258.436 134.582 259.227 133.861 259.227 132.824C259.227 131.805 258.436 131.078 257.398 131.078C256.344 131.078 255.559 131.805 255.57 132.824ZM256.297 139.727V136.387H257.211V138.953H263.352V139.727H256.297ZM272.879 129.531V133.973H274.543V134.746H272.879V139.949H271.953V129.531H272.879ZM264.664 137.172C265.514 137.172 266.504 137.166 267.535 137.137V135.988C266.322 135.848 265.531 135.133 265.543 134.102C265.531 132.924 266.527 132.162 268.004 132.168C269.457 132.162 270.471 132.924 270.477 134.102C270.471 135.139 269.668 135.848 268.461 135.988V137.102C269.428 137.055 270.412 136.973 271.32 136.844L271.379 137.547C269.105 137.934 266.645 137.957 264.816 137.957L264.664 137.172ZM264.852 131.559V130.809H267.535V129.555H268.461V130.809H271.133V131.559H264.852ZM266.398 134.102C266.404 134.822 267.037 135.297 268.004 135.285C268.953 135.297 269.592 134.822 269.598 134.102C269.592 133.375 268.953 132.883 268.004 132.883C267.037 132.883 266.404 133.375 266.398 134.102Z" fill="#535862"/>
<rect x="424" y="36" width="180" height="180" rx="90" fill="#046DE3"/>
<path d="M487.695 110.514V122.257H485.626V110.514H487.695ZM477.704 118.766C480.63 117.375 481.805 115.763 482.071 113.307H478.377V111.72H484.141C484.147 115.395 483.106 118.334 478.745 120.365L477.704 118.766ZM495.592 111.339V112.139C495.585 112.996 495.585 114.164 495.351 115.566L493.357 115.376C493.529 114.411 493.58 113.649 493.599 112.989H489.435V111.339H495.592ZM488.749 116.277C489.346 116.277 490.012 116.271 490.717 116.265V114.119H492.735V116.201C493.821 116.15 494.932 116.062 495.96 115.909L496.062 117.356C493.624 117.82 490.926 117.864 488.927 117.864L488.749 116.277ZM490.425 122.092V118.499H492.469V120.467H498.931V122.092H490.425ZM496.48 119.273V110.514H498.575V113.941H499.807V115.63H498.575V119.273H496.48ZM507.487 114.119C507.481 115.643 508.116 117.496 510.09 118.41L508.985 119.946C507.773 119.426 506.967 118.436 506.484 117.261C505.989 118.531 505.139 119.597 503.831 120.137L502.739 118.575C504.777 117.699 505.45 115.7 505.456 114.119V113.967H503.196V112.354H505.443V110.818H507.487V112.354H509.709V113.967H507.487V114.119ZM510.356 122.257V110.514H512.4V114.919H513.987V116.607H512.4V122.257H510.356ZM524.258 110.514V116.506H522.227V115.541H520.462V116.252H514.711V110.983H516.755V112.164H518.456V110.983H520.462V111.897H522.227V110.514H524.258ZM516.323 122.155V118.753H522.227V118.397H516.323V116.849H524.258V120.238H518.38V120.568H524.537V122.155H516.323ZM516.755 114.678H518.456V113.675H516.755V114.678ZM520.462 114.018H522.227V113.396H520.462V114.018ZM535.062 110.514V115.147H536.382V116.823H535.062V122.257H533.005V110.514H535.062ZM525.375 118.829C526.162 118.829 527.076 118.835 528.041 118.816V117.979C526.873 117.693 526.118 116.899 526.124 115.871C526.118 114.563 527.343 113.649 529.082 113.649C530.783 113.649 532.027 114.563 532.027 115.871C532.027 116.906 531.253 117.699 530.085 117.985V118.747C530.91 118.696 531.735 118.626 532.51 118.524L532.649 119.984C530.187 120.467 527.546 120.473 525.616 120.467L525.375 118.829ZM525.604 113.332V111.745H528.041V110.615H530.085V111.745H532.497V113.332H525.604ZM528.066 115.871C528.054 116.36 528.46 116.569 529.082 116.569C529.672 116.569 530.079 116.36 530.072 115.871C530.079 115.401 529.672 115.186 529.082 115.173C528.46 115.186 528.054 115.401 528.066 115.871ZM546.018 111.199V116.239H540.152V111.199H546.018ZM540.622 120.721C543.047 120.556 543.993 119.8 544.228 119.159H541.092V117.674H544.329V116.811H546.373V117.674H549.598V119.159H546.481C546.729 119.781 547.693 120.53 550.093 120.721L549.42 122.244C547.389 122.098 546.087 121.47 545.364 120.651C544.646 121.476 543.339 122.085 541.308 122.244L540.622 120.721ZM542.158 114.665H543.999V112.761H542.158V114.665ZM547.427 117.128V110.514H549.458V117.128H547.427ZM483.715 132.862C483.703 134.989 484.293 137.103 486.318 138.067L485.099 139.692C483.906 139.121 483.144 138.125 482.687 136.893C482.192 138.226 481.36 139.299 480.072 139.908L478.84 138.258C480.999 137.306 481.665 135.065 481.659 132.862V131.352H483.715V132.862ZM486.47 142.257V130.514H488.514V134.894H490.101V136.607H488.514V142.257H486.47ZM501.095 135.935V137.547H490.38V135.935H492.64V134.678C491.834 134.291 491.377 133.713 491.383 132.977C491.371 131.542 493.097 130.666 495.738 130.653C498.353 130.666 500.073 131.542 500.08 132.977C500.073 133.732 499.591 134.322 498.747 134.709V135.935H501.095ZM491.561 140.111C491.567 138.734 493.123 137.966 495.712 137.966C498.258 137.966 499.819 138.734 499.826 140.111C499.819 141.508 498.258 142.257 495.712 142.257C493.123 142.257 491.567 141.508 491.561 140.111ZM493.503 132.977C493.491 133.497 494.246 133.713 495.738 133.713C497.198 133.713 497.966 133.497 497.972 132.977C497.966 132.45 497.198 132.215 495.738 132.215C494.246 132.215 493.491 132.45 493.503 132.977ZM493.643 140.111C493.63 140.568 494.252 140.759 495.712 140.759C497.128 140.759 497.782 140.568 497.782 140.111C497.782 139.654 497.128 139.496 495.712 139.489C494.252 139.496 493.63 139.654 493.643 140.111ZM494.697 135.935H496.715V135.192C496.404 135.224 496.081 135.236 495.738 135.236C495.37 135.236 495.027 135.217 494.697 135.192V135.935ZM506.3 131.961C506.3 133.465 506.859 134.9 508.852 135.49L507.786 137.077C506.573 136.677 505.786 135.96 505.31 135.033C504.79 136.138 503.895 137.007 502.517 137.445L501.438 135.82C503.59 135.167 504.231 133.586 504.244 132.062V131.098H506.3V131.961ZM503.431 139.959C503.425 138.493 504.993 137.629 507.519 137.636C510.077 137.629 511.632 138.493 511.632 139.959C511.632 141.438 510.077 142.282 507.519 142.282C504.993 142.282 503.425 141.438 503.431 139.959ZM505.462 139.959C505.45 140.479 506.129 140.708 507.519 140.708C508.935 140.708 509.607 140.479 509.614 139.959C509.607 139.413 508.935 139.204 507.519 139.197C506.129 139.204 505.45 139.413 505.462 139.959ZM507.646 134.094V132.443H509.576V130.514H511.607V137.356H509.576V134.094H507.646ZM516.622 131.263C518.5 131.256 519.935 132.507 519.935 134.221C519.935 135.947 518.5 137.185 516.622 137.179C514.774 137.185 513.308 135.947 513.308 134.221C513.308 132.507 514.774 131.256 516.622 131.263ZM512.889 138.385C514.939 138.385 517.783 138.353 520.24 138.017L520.392 139.477C517.847 139.984 515.13 140.01 513.118 140.01L512.889 138.385ZM515.339 134.221C515.333 135.046 515.911 135.433 516.622 135.427C517.364 135.433 517.948 135.046 517.955 134.221C517.948 133.421 517.371 133.015 516.622 133.015C515.904 133.015 515.333 133.421 515.339 134.221ZM520.836 142.295V130.514H522.855V142.295H520.836ZM537.696 132.024V133.662H536.312V134.589H537.696V136.227H536.312V137.902H534.268V130.514H536.312V132.024H537.696ZM526.905 133.078V131.504H529.355V130.476H531.399V131.504H533.849V133.078H526.905ZM527.413 135.478C527.406 134.233 528.631 133.351 530.371 133.345C532.091 133.351 533.303 134.233 533.303 135.478C533.303 136.747 532.091 137.604 530.371 137.61C528.638 137.604 527.406 136.747 527.413 135.478ZM528.339 140.162C528.333 138.823 529.895 138.023 532.389 138.029C534.839 138.023 536.433 138.823 536.439 140.162C536.433 141.47 534.839 142.282 532.389 142.282C529.895 142.282 528.333 141.47 528.339 140.162ZM529.406 135.478C529.399 135.941 529.787 136.125 530.371 136.125C530.967 136.125 531.367 135.941 531.374 135.478C531.367 135.014 530.967 134.817 530.371 134.817C529.787 134.817 529.399 135.014 529.406 135.478ZM530.358 140.162C530.352 140.575 531.005 140.778 532.389 140.784C533.741 140.778 534.389 140.575 534.382 140.162C534.389 139.705 533.741 139.559 532.389 139.565C531.005 139.559 530.352 139.705 530.358 140.162ZM542.66 132.342C542.653 133.649 543.237 134.951 545.199 135.516L544.12 137.09C542.933 136.728 542.133 136.03 541.644 135.135C541.136 136.182 540.286 137.007 538.991 137.42L537.899 135.833C539.975 135.179 540.597 133.624 540.603 132.126V131.161H542.66V132.342ZM539.549 139.921C539.543 138.442 541.136 137.566 543.65 137.572C546.094 137.566 547.662 138.442 547.662 139.921C547.662 141.413 546.094 142.282 543.65 142.282C541.136 142.282 539.543 141.413 539.549 139.921ZM541.581 139.921C541.581 140.479 542.26 140.689 543.65 140.695C545.008 140.689 545.649 140.479 545.643 139.921C545.649 139.388 545.008 139.14 543.65 139.146C542.26 139.14 541.581 139.388 541.581 139.921ZM545.503 137.369V130.514H547.547V133.065H549.007V134.741H547.547V137.369H545.503Z" fill="white"/>
<path d="M341.333 126C341.333 127.473 342.527 128.667 344 128.667C345.473 128.667 346.667 127.473 346.667 126C346.667 124.527 345.473 123.333 344 123.333C342.527 123.333 341.333 124.527 341.333 126ZM424 126L419 123.113V128.887L424 126ZM344 126V126.5H345V126V125.5H344V126ZM347 126V126.5H349V126V125.5H347V126ZM351 126V126.5H353V126V125.5H351V126ZM355 126V126.5H357V126V125.5H355V126ZM359 126V126.5H361V126V125.5H359V126ZM363 126V126.5H365V126V125.5H363V126ZM367 126V126.5H369V126V125.5H367V126ZM371 126V126.5H373V126V125.5H371V126ZM375 126V126.5H377V126V125.5H375V126ZM379 126V126.5H381V126V125.5H379V126ZM383 126V126.5H385V126V125.5H383V126ZM387 126V126.5H389V126V125.5H387V126ZM391 126V126.5H393V126V125.5H391V126ZM395 126V126.5H397V126V125.5H395V126ZM399 126V126.5H401V126V125.5H399V126ZM403 126V126.5H405V126V125.5H403V126ZM407 126V126.5H409V126V125.5H407V126ZM411 126V126.5H413V126V125.5H411V126ZM415 126V126.5H417V126V125.5H415V126ZM419 126V126.5H421V126V125.5H419V126Z" fill="url(#paint0_linear_1062_35412)"/>
<defs>
<linearGradient id="paint0_linear_1062_35412" x1="344" y1="126.5" x2="424" y2="126.5" gradientUnits="userSpaceOnUse">
<stop stop-color="#CED4DA"/>
<stop offset="1" stop-color="#062D88"/>
</linearGradient>
</defs>
</svg>
