<svg width="137" height="42" viewBox="0 0 137 42" fill="none" xmlns="http://www.w3.org/2000/svg">
<path d="M21.9531 2.80078V4.38281H8.82227V2.80078H14.4297V0.884766H16.3633V2.80078H21.9531ZM22.6914 13.2773V14.8594H8.17188V13.2773H14.4297V11.3262C11.6787 11.1064 10.0176 10.0078 10.0352 8.25C10.0176 6.33398 12.0742 5.19141 15.3965 5.19141C18.666 5.19141 20.7402 6.33398 20.7402 8.25C20.7402 9.99902 19.0703 11.0977 16.3633 11.3086V13.2773H22.6914ZM15.3965 6.7207C13.2344 6.73828 12.0215 7.24805 12.0391 8.25C12.0215 9.26953 13.2344 9.7793 15.3965 9.79688C17.5234 9.7793 18.7363 9.26953 18.7363 8.25C18.7363 7.24805 17.5234 6.73828 15.3965 6.7207ZM30.4434 1.60547V3.11719H26.2422V4.36523H29.8457V5.8418H26.2422V7.17773C28.0439 7.16895 29.4326 7.10742 31.041 6.82617L31.252 8.33789C29.3184 8.6543 27.7539 8.72461 25.4688 8.72461H24.3965V1.60547H30.4434ZM37.3164 0.691406V9.16406H35.4531V0.691406H37.3164ZM34.1875 0.955078V9.04102H32.3242V5.66602H30.5312V4.11914H32.3242V0.955078H34.1875ZM37.3164 9.7793V13.752H28.5273V14.9121H37.8789V16.4238H26.5762V12.3457H35.3828V11.3086H26.5586V9.7793H37.3164ZM49.1816 3.20508C49.1816 5.20898 50.4824 7.08984 52.9258 7.86328L51.8711 9.39258C50.1572 8.8125 48.9268 7.65234 48.25 6.17578C47.5469 7.86328 46.2637 9.19043 44.4355 9.83203L43.3809 8.30273C45.9473 7.40625 47.2129 5.29688 47.2305 3.0293V1.51758H49.1816V3.20508ZM56.0898 0.673828V4.54102H58.3047V6.1582H56.0898V10.1836H54.1387V0.673828H56.0898ZM50.9219 10.5352C54.209 10.5176 56.2305 11.6426 56.248 13.5234C56.2305 15.4395 54.209 16.5469 50.9219 16.5469C47.5996 16.5469 45.543 15.4395 45.543 13.5234C45.543 11.6426 47.5996 10.5176 50.9219 10.5352ZM50.9219 12.0645C48.7422 12.0645 47.4941 12.5918 47.4941 13.5234C47.4941 14.5078 48.7422 15 50.9219 15C53.1016 15 54.3145 14.5078 54.3145 13.5234C54.3145 12.5918 53.1016 12.0645 50.9219 12.0645ZM73.5977 8.19727V9.76172H67.3047V11.291H71.8398V16.3711H60.8184V11.291H65.3711V9.76172H59.1133V8.19727H73.5977ZM72.2617 1.14844V2.71289H70.082V5.4375H72.1738V7.01953H60.502V5.4375H62.5938V2.71289H60.4141V1.14844H72.2617ZM62.752 12.8027V14.7891H69.9414V12.8027H62.752ZM64.5449 5.4375H68.1133V2.71289H64.5449V5.4375ZM93.4609 13.0488V14.6484H78.9414V13.0488H85.2168V9.39258H87.168V13.0488H93.4609ZM92.2129 1.95703V3.55664H87.2031C87.2646 5.8418 89.6201 7.94238 92.8809 8.42578L92.1074 9.97266C89.418 9.48047 87.2207 8.06543 86.2012 6.08789C85.1729 8.0918 82.9932 9.55957 80.3477 10.0605L79.5742 8.51367C82.7471 7.97754 85.085 5.8418 85.1465 3.55664H80.1543V1.95703H92.2129ZM107.734 0.673828V16.5645H105.783V0.673828H107.734ZM94.5684 12.1523C95.834 12.1436 97.2666 12.1436 98.7695 12.0996V10.6406C96.9766 10.3594 95.8164 9.26074 95.8164 7.75781C95.8164 5.96484 97.3984 4.76953 99.7188 4.76953C102.057 4.76953 103.674 5.96484 103.674 7.75781C103.674 9.25195 102.505 10.3418 100.721 10.623V12.0293C102.118 11.9678 103.524 11.8535 104.852 11.6777L104.992 13.1367C101.494 13.7344 97.7148 13.7695 94.8496 13.7695L94.5684 12.1523ZM104.57 2.50195V4.04883H94.9023V2.50195H98.7695V0.726562H100.721V2.50195H104.57ZM99.7188 6.26367C98.5234 6.28125 97.6621 6.82617 97.6797 7.75781C97.6621 8.67188 98.5234 9.2168 99.7188 9.19922C100.967 9.2168 101.793 8.67188 101.793 7.75781C101.793 6.82617 100.967 6.28125 99.7188 6.26367ZM128.811 7.96875V9.55078H122.518V10.8691C125.365 11.0625 127.035 12.0469 127.053 13.6992C127.035 15.5273 124.979 16.5469 121.551 16.5469C118.088 16.5469 116.014 15.5273 116.014 13.6992C116.014 12.0469 117.701 11.0537 120.584 10.8691V9.55078H114.326V7.96875H128.811ZM121.551 12.3457C119.23 12.3633 117.982 12.8203 118 13.6992C117.982 14.5781 119.23 15.0527 121.551 15.0527C123.818 15.0527 125.084 14.5781 125.102 13.6992C125.084 12.8203 123.818 12.3633 121.551 12.3457ZM127.51 1.37695V2.94141H122.939C123.247 4.25098 125.146 5.42871 128.125 5.70117L127.439 7.24805C124.557 6.95801 122.412 5.80664 121.551 4.18945C120.689 5.79785 118.58 6.95801 115.697 7.24805L115.029 5.70117C117.947 5.42871 119.846 4.2334 120.18 2.94141H115.645V1.37695H127.51Z" fill="#1D2329"/>
<path d="M5.26562 29.8906C5.25 31.7344 6.625 33.3906 8.6875 34.0781L8.0625 35.0625C6.46875 34.5156 5.25781 33.3906 4.65625 31.9688C4.0625 33.5469 2.78906 34.7891 1.14062 35.3906L0.5 34.3906C2.59375 33.6719 4.01562 31.9062 4.03125 29.9062V29.3594H0.875V28.3594H8.35938V29.3594H5.26562V29.8906ZM11.4219 27.375V30.8438H13.5156V31.875H11.4219V35.5625H10.2031V27.375H11.4219ZM11.4219 36.2031V41.0781H2.65625V36.2031H11.4219ZM3.85938 37.1875V40.0781H10.2031V37.1875H3.85938ZM19.3281 31.1094C19.3125 33.6406 21.0469 36.2031 23.0938 37.125L22.3438 38.0938C20.7656 37.3203 19.3984 35.6875 18.7344 33.7031C18.0859 35.8047 16.7188 37.5547 15.0938 38.375L14.3125 37.3438C16.375 36.3906 18.0938 33.75 18.1094 31.1094V28.5781H19.3281V31.1094ZM25.8438 27.375V41.2969H24.6094V27.375H25.8438ZM35.2344 28.6406V35.0312H28.8125V28.6406H35.2344ZM30.0156 29.6406V34.0469H34.0469V29.6406H30.0156ZM39.0781 27.375V31.6094H41.1719V32.6406H39.0781V37.5625H37.8594V27.375H39.0781ZM39.7188 39.9375V40.9688H30.3906V36.5938H31.5938V39.9375H39.7188ZM57.5469 27.375V41.2656H56.3125V27.375H57.5469ZM53.4375 28.8906C53.4219 32.8906 51.5625 36.4219 46.9062 38.6562L46.2344 37.6562C49.9922 35.875 51.9062 33.2109 52.1875 29.8906H46.875V28.8906H53.4375ZM70.6406 27.375V32.875H72.9688V33.9062H70.6406V41.2969H69.4219V27.375H70.6406ZM66.9844 28.7344V29.75H61.7188V36.7812C64.2344 36.7812 66.0156 36.6641 68.0781 36.2812L68.2344 37.3438C66.0625 37.7344 64.2344 37.8125 61.5938 37.8125H60.5V28.7344H66.9844ZM85.2188 27.375V41.2969H84V35.375H81.1094V34.3438H84V31.5781H81.2188V30.5469H84V27.375H85.2188ZM80.3125 28.6406V33.5781H75.4688V37C77.5547 36.9922 79.2812 36.9141 81.3906 36.5938L81.5 37.625C79.2812 37.9688 77.5 38.0469 75.2812 38.0469H74.25V32.5781H79.1094V29.6562H74.2031V28.6406H80.3125ZM98.5781 29.3438C98.5625 31.2031 101.047 32.7812 103.469 33.1406L103.016 34.1094C100.844 33.7422 98.7344 32.5859 97.8906 30.9062C97.0469 32.5859 94.9297 33.7422 92.7969 34.1094L92.3125 33.1406C94.7188 32.7812 97.2031 31.2031 97.2031 29.3438V29.25H92.75V28.25H103.016V29.25H98.5781V29.3438ZM104.219 35.2969V36.3125H98.4688V41.2656H97.2656V36.3125H91.5625V35.2969H104.219ZM109.516 31.3281C109.516 33.5312 110.594 35.9219 112.438 37.0156L111.734 37.9688C110.398 37.1562 109.438 35.6719 108.953 33.9844C108.438 35.8281 107.406 37.4141 106.016 38.2656L105.234 37.3438C107.156 36.2188 108.328 33.75 108.328 31.375V28.6875H109.516V31.3281ZM117.297 27.375V41.2656H116.109V27.375H117.297ZM114.422 27.6719V40.5625H113.266V33.4062H110.906V32.3594H113.266V27.6719H114.422ZM131.938 38.4531V39.4844H119.219V38.4531H122.375V34.7031C121.188 34.0859 120.469 33.0859 120.469 31.8281C120.469 29.6719 122.578 28.2656 125.547 28.25C128.516 28.2656 130.625 29.6719 130.625 31.8281C130.625 33.0625 129.93 34.0547 128.781 34.6719V38.4531H131.938ZM125.547 29.2656C123.266 29.25 121.656 30.2812 121.656 31.8281C121.656 33.375 123.266 34.4219 125.547 34.4219C127.812 34.4219 129.438 33.375 129.438 31.8281C129.438 30.2812 127.812 29.25 125.547 29.2656ZM123.578 38.4531H127.547V35.1406C126.945 35.3047 126.273 35.3906 125.547 35.3906C124.836 35.3906 124.172 35.3125 123.578 35.1562V38.4531ZM135.297 28.6875L135.188 36.8125H133.875L133.766 28.6875H135.297ZM134.531 40.0938C133.984 40.0938 133.516 39.6406 133.531 39.0781C133.516 38.5312 133.984 38.0781 134.531 38.0781C135.078 38.0781 135.531 38.5312 135.531 39.0781C135.531 39.6406 135.078 40.0938 134.531 40.0938Z" fill="#505559"/>
</svg>
