<svg width="960" height="516" viewBox="0 0 960 516" fill="none" xmlns="http://www.w3.org/2000/svg">
<g clip-path="url(#clip0_354_4091)">
<rect width="960" height="28" fill="#A60711"/>
<path d="M13.7227 17L14.0352 15.1055H12.3848L12.0723 17H11.2324L11.5449 15.1055H10.5293L10.6562 14.2754H11.6816L11.9453 12.6543H10.9395L11.0664 11.8145H12.0869L12.3945 9.92969H13.2344L12.9268 11.8145H14.5771L14.8848 9.92969H15.7148L15.4072 11.8145H16.4375L16.3008 12.6543H15.2705L15.0068 14.2754H16.0273L15.8809 15.1055H14.8701L14.5625 17H13.7227ZM12.5215 14.2754H14.1719L14.4355 12.6543H12.7852L12.5215 14.2754ZM17.8438 17H16.7012L19.2402 9.92969H20.4805L23.0293 17H21.8867L21.2422 15.1348H18.4883L17.8438 17ZM18.7959 14.2363H20.9297L19.8848 11.2188H19.8359L18.7959 14.2363ZM26.3887 17.0977C25.0801 17.0879 23.7129 16.3115 23.7129 13.6992C23.7178 11.2383 24.7822 9.83203 26.4766 9.83203C27.7803 9.83203 28.6836 10.6426 28.8496 11.7656H27.7852C27.6436 11.1895 27.1895 10.7744 26.4766 10.7695C25.3828 10.7744 24.748 11.7217 24.748 13.3184H24.8262C25.2119 12.7178 25.876 12.3662 26.6426 12.3613C27.9023 12.3662 28.918 13.333 28.918 14.6855C28.918 16.0576 27.9072 17.1074 26.3887 17.0977ZM24.875 14.7148C24.8799 15.501 25.5098 16.1943 26.3789 16.1992C27.2334 16.1943 27.873 15.5303 27.873 14.7051C27.873 13.8945 27.2578 13.2354 26.4082 13.2402C25.5439 13.2354 24.8848 13.9287 24.875 14.7148ZM32.5215 17.0977C30.8857 17.0977 29.9238 15.7793 29.9238 13.4648C29.9238 11.165 30.8955 9.83203 32.5215 9.83203C34.1426 9.83203 35.1143 11.165 35.1191 13.4648C35.1143 15.7793 34.1572 17.0977 32.5215 17.0977ZM30.998 13.4648C30.9932 15.2275 31.5645 16.1699 32.5215 16.1699C33.4736 16.1699 34.0449 15.2275 34.0449 13.4648C34.0449 11.707 33.4688 10.7451 32.5215 10.7402C31.5693 10.7451 30.998 11.707 30.998 13.4648ZM36.2812 17L39.4355 10.9062V10.8477H35.793V9.92969H40.5488V10.8867L37.4043 17H36.2812ZM44.3184 9.92969V17H43.2344V11.0039H43.1953L41.5059 12.1074V11.082L43.2637 9.92969H44.3184ZM48.8008 9.92969V17H47.7168V11.0039H47.6777L45.9883 12.1074V11.082L47.7461 9.92969H48.8008Z" fill="white"/>
<rect width="960" height="44" transform="translate(0 28)" fill="#C70909"/>
<path d="M11.2812 45L11.5938 43.1055H9.94336L9.63086 45H8.79102L9.10352 43.1055H8.08789L8.21484 42.2754H9.24023L9.50391 40.6543H8.49805L8.625 39.8145H9.64551L9.95312 37.9297H10.793L10.4854 39.8145H12.1357L12.4434 37.9297H13.2734L12.9658 39.8145H13.9961L13.8594 40.6543H12.8291L12.5654 42.2754H13.5859L13.4395 43.1055H12.4287L12.1211 45H11.2812ZM10.0801 42.2754H11.7305L11.9941 40.6543H10.3438L10.0801 42.2754ZM19.582 40.2344C19.4111 39.3213 18.6543 38.8135 17.7559 38.8184C16.5352 38.8135 15.6318 39.751 15.627 41.4648C15.6318 43.1885 16.54 44.1162 17.7559 44.1113C18.6445 44.1162 19.3965 43.6182 19.582 42.7148L20.666 42.7246C20.4414 44.1211 19.3037 45.0977 17.7461 45.0977C15.9053 45.0977 14.5625 43.7256 14.5625 41.4648C14.5625 39.2041 15.915 37.832 17.7461 37.832C19.2402 37.832 20.4268 38.7158 20.666 40.2344H19.582ZM21.9746 45L25.1289 38.9062V38.8477H21.4863V37.9297H26.2422V38.8867L23.0977 45H21.9746ZM29.6309 45.0977C27.9951 45.0977 27.0332 43.7793 27.0332 41.4648C27.0332 39.165 28.0049 37.832 29.6309 37.832C31.252 37.832 32.2236 39.165 32.2285 41.4648C32.2236 43.7793 31.2666 45.0977 29.6309 45.0977ZM28.1074 41.4648C28.1025 43.2275 28.6738 44.1699 29.6309 44.1699C30.583 44.1699 31.1543 43.2275 31.1543 41.4648C31.1543 39.707 30.5781 38.7451 29.6309 38.7402C28.6787 38.7451 28.1074 39.707 28.1074 41.4648ZM35.7734 37.832C37.0723 37.8418 38.4346 38.623 38.4395 41.2109C38.4395 43.6914 37.3701 45.0977 35.6758 45.0977C34.3721 45.0977 33.4639 44.292 33.293 43.1445H34.3574C34.5039 43.7402 34.9629 44.1553 35.6758 44.1602C36.7646 44.1553 37.4043 43.208 37.4141 41.5918H37.3262C36.9453 42.1875 36.2812 42.5488 35.5195 42.5488C34.25 42.5488 33.2344 41.5771 33.2344 40.2246C33.2344 38.877 34.2354 37.8223 35.7734 37.832ZM34.2793 40.2051C34.2842 41.0254 34.8945 41.6748 35.7539 41.6699C36.6084 41.6748 37.2676 40.9766 37.2676 40.1953C37.2676 39.4287 36.6377 38.7305 35.7734 38.7305C34.9189 38.7305 34.2744 39.3945 34.2793 40.2051ZM42.0332 45.0977C40.3975 45.0977 39.4355 43.7793 39.4355 41.4648C39.4355 39.165 40.4072 37.832 42.0332 37.832C43.6543 37.832 44.626 39.165 44.6309 41.4648C44.626 43.7793 43.6689 45.0977 42.0332 45.0977ZM40.5098 41.4648C40.5049 43.2275 41.0762 44.1699 42.0332 44.1699C42.9854 44.1699 43.5566 43.2275 43.5566 41.4648C43.5566 39.707 42.9805 38.7451 42.0332 38.7402C41.0811 38.7451 40.5098 39.707 40.5098 41.4648ZM48.1758 37.832C49.4746 37.8418 50.8369 38.623 50.8418 41.2109C50.8418 43.6914 49.7725 45.0977 48.0781 45.0977C46.7744 45.0977 45.8662 44.292 45.6953 43.1445H46.7598C46.9062 43.7402 47.3652 44.1553 48.0781 44.1602C49.167 44.1553 49.8066 43.208 49.8164 41.5918H49.7285C49.3477 42.1875 48.6836 42.5488 47.9219 42.5488C46.6523 42.5488 45.6367 41.5771 45.6367 40.2246C45.6367 38.877 46.6377 37.8223 48.1758 37.832ZM46.6816 40.2051C46.6865 41.0254 47.2969 41.6748 48.1562 41.6699C49.0107 41.6748 49.6699 40.9766 49.6699 40.1953C49.6699 39.4287 49.04 38.7305 48.1758 38.7305C47.3213 38.7305 46.6768 39.3945 46.6816 40.2051Z" fill="white"/>
<rect width="960" height="120" transform="translate(0 72)" fill="#DE0917"/>
<path d="M11.2812 89L11.5938 87.1055H9.94336L9.63086 89H8.79102L9.10352 87.1055H8.08789L8.21484 86.2754H9.24023L9.50391 84.6543H8.49805L8.625 83.8145H9.64551L9.95312 81.9297H10.793L10.4854 83.8145H12.1357L12.4434 81.9297H13.2734L12.9658 83.8145H13.9961L13.8594 84.6543H12.8291L12.5654 86.2754H13.5859L13.4395 87.1055H12.4287L12.1211 89H11.2812ZM10.0801 86.2754H11.7305L11.9941 84.6543H10.3438L10.0801 86.2754ZM17.0918 89H14.7969V81.9297H17.1602C19.2451 81.9297 20.4854 83.2529 20.4902 85.4551C20.4854 87.6621 19.2451 89 17.0918 89ZM15.8711 88.0625H17.0332C18.6348 88.0576 19.4258 87.125 19.4258 85.4551C19.4258 83.79 18.6348 82.8672 17.0918 82.8672H15.8711V88.0625ZM21.7012 89V81.9297H26.1348V82.8574H22.7754V84.9961H25.9004V85.9141H22.7754V88.0723H26.1738V89H21.7012ZM29.8164 89.0977C28.1807 89.0977 27.2188 87.7793 27.2188 85.4648C27.2188 83.165 28.1904 81.832 29.8164 81.832C31.4375 81.832 32.4092 83.165 32.4141 85.4648C32.4092 87.7793 31.4521 89.0977 29.8164 89.0977ZM28.293 85.4648C28.2881 87.2275 28.8594 88.1699 29.8164 88.1699C30.7686 88.1699 31.3398 87.2275 31.3398 85.4648C31.3398 83.707 30.7637 82.7451 29.8164 82.7402C28.8643 82.7451 28.293 83.707 28.293 85.4648ZM35.959 81.832C37.2578 81.8418 38.6201 82.623 38.625 85.2109C38.625 87.6914 37.5557 89.0977 35.8613 89.0977C34.5576 89.0977 33.6494 88.292 33.4785 87.1445H34.543C34.6895 87.7402 35.1484 88.1553 35.8613 88.1602C36.9502 88.1553 37.5898 87.208 37.5996 85.5918H37.5117C37.1309 86.1875 36.4668 86.5488 35.7051 86.5488C34.4355 86.5488 33.4199 85.5771 33.4199 84.2246C33.4199 82.877 34.4209 81.8223 35.959 81.832ZM34.4648 84.2051C34.4697 85.0254 35.0801 85.6748 35.9395 85.6699C36.7939 85.6748 37.4531 84.9766 37.4531 84.1953C37.4531 83.4287 36.8232 82.7305 35.959 82.7305C35.1045 82.7305 34.46 83.3945 34.4648 84.2051ZM42.4434 81.9297V89H41.3594V83.0039H41.3203L39.6309 84.1074V83.082L41.3887 81.9297H42.4434ZM44.4844 89L47.6387 82.9062V82.8477H43.9961V81.9297H48.752V82.8867L45.6074 89H44.4844Z" fill="white"/>
<rect width="960" height="44" transform="translate(0 192)" fill="#F7868D"/>
<path d="M13.7227 209L14.0352 207.105H12.3848L12.0723 209H11.2324L11.5449 207.105H10.5293L10.6562 206.275H11.6816L11.9453 204.654H10.9395L11.0664 203.814H12.0869L12.3945 201.93H13.2344L12.9268 203.814H14.5771L14.8848 201.93H15.7148L15.4072 203.814H16.4375L16.3008 204.654H15.2705L15.0068 206.275H16.0273L15.8809 207.105H14.8701L14.5625 209H13.7227ZM12.5215 206.275H14.1719L14.4355 204.654H12.7852L12.5215 206.275ZM17.2383 209V201.93H21.623V202.857H18.3125V204.996H21.3105V205.914H18.3125V209H17.2383ZM22.9707 209L26.125 202.906V202.848H22.4824V201.93H27.2383V202.887L24.0938 209H22.9707ZM30.6562 209.098C29.1182 209.098 28.0488 208.268 28.0586 207.115C28.0488 206.207 28.6982 205.465 29.5332 205.338V205.299C28.8057 205.133 28.3223 204.488 28.3223 203.717C28.3223 202.628 29.3037 201.832 30.6562 201.832C31.9893 201.832 32.9756 202.628 32.9805 203.717C32.9756 204.488 32.4824 205.133 31.7695 205.299V205.338C32.5947 205.465 33.249 206.207 33.2539 207.115C33.249 208.268 32.1699 209.098 30.6562 209.098ZM29.1523 207.037C29.1377 207.73 29.7236 208.209 30.6562 208.209C31.5742 208.209 32.1602 207.73 32.1602 207.037C32.1602 206.31 31.5254 205.777 30.6562 205.777C29.7773 205.777 29.1377 206.31 29.1523 207.037ZM29.3672 203.814C29.3721 204.474 29.8994 204.933 30.6562 204.928C31.3936 204.933 31.9307 204.479 31.9258 203.814C31.9307 203.155 31.4131 202.706 30.6562 202.711C29.8799 202.706 29.3721 203.155 29.3672 203.814ZM36.9258 209.098C35.6172 209.088 34.25 208.312 34.25 205.699C34.2549 203.238 35.3193 201.832 37.0137 201.832C38.3174 201.832 39.2207 202.643 39.3867 203.766H38.3223C38.1807 203.189 37.7266 202.774 37.0137 202.77C35.9199 202.774 35.2852 203.722 35.2852 205.318H35.3633C35.749 204.718 36.4131 204.366 37.1797 204.361C38.4395 204.366 39.4551 205.333 39.4551 206.686C39.4551 208.058 38.4443 209.107 36.9258 209.098ZM35.4121 206.715C35.417 207.501 36.0469 208.194 36.916 208.199C37.7705 208.194 38.4102 207.53 38.4102 206.705C38.4102 205.895 37.7949 205.235 36.9453 205.24C36.0811 205.235 35.4219 205.929 35.4121 206.715ZM43.0684 209.098C41.5303 209.098 40.4609 208.268 40.4707 207.115C40.4609 206.207 41.1104 205.465 41.9453 205.338V205.299C41.2178 205.133 40.7344 204.488 40.7344 203.717C40.7344 202.628 41.7158 201.832 43.0684 201.832C44.4014 201.832 45.3877 202.628 45.3926 203.717C45.3877 204.488 44.8945 205.133 44.1816 205.299V205.338C45.0068 205.465 45.6611 206.207 45.666 207.115C45.6611 208.268 44.582 209.098 43.0684 209.098ZM41.5645 207.037C41.5498 207.73 42.1357 208.209 43.0684 208.209C43.9863 208.209 44.5723 207.73 44.5723 207.037C44.5723 206.31 43.9375 205.777 43.0684 205.777C42.1895 205.777 41.5498 206.31 41.5645 207.037ZM41.7793 203.814C41.7842 204.474 42.3115 204.933 43.0684 204.928C43.8057 204.933 44.3428 204.479 44.3379 203.814C44.3428 203.155 43.8252 202.706 43.0684 202.711C42.292 202.706 41.7842 203.155 41.7793 203.814ZM49.1719 209H46.877V201.93H49.2402C51.3252 201.93 52.5654 203.253 52.5703 205.455C52.5654 207.662 51.3252 209 49.1719 209ZM47.9512 208.062H49.1133C50.7148 208.058 51.5059 207.125 51.5059 205.455C51.5059 203.79 50.7148 202.867 49.1719 202.867H47.9512V208.062Z" fill="black"/>
<rect width="960" height="28" transform="translate(0 236)" fill="#FEE4E6"/>
<path d="M11.2812 253L11.5938 251.105H9.94336L9.63086 253H8.79102L9.10352 251.105H8.08789L8.21484 250.275H9.24023L9.50391 248.654H8.49805L8.625 247.814H9.64551L9.95312 245.93H10.793L10.4854 247.814H12.1357L12.4434 245.93H13.2734L12.9658 247.814H13.9961L13.8594 248.654H12.8291L12.5654 250.275H13.5859L13.4395 251.105H12.4287L12.1211 253H11.2812ZM10.0801 250.275H11.7305L11.9941 248.654H10.3438L10.0801 250.275ZM14.7969 253V245.93H19.1816V246.857H15.8711V248.996H18.8691V249.914H15.8711V253H14.7969ZM20.3828 253V245.93H24.8164V246.857H21.457V248.996H24.582V249.914H21.457V252.072H24.8555V253H20.3828ZM28.4297 253H26.1348V245.93H28.498C30.583 245.93 31.8232 247.253 31.8281 249.455C31.8232 251.662 30.583 253 28.4297 253ZM27.209 252.062H28.3711C29.9727 252.058 30.7637 251.125 30.7637 249.455C30.7637 247.79 29.9727 246.867 28.4297 246.867H27.209V252.062ZM35.4121 253.098C33.874 253.098 32.8047 252.268 32.8145 251.115C32.8047 250.207 33.4541 249.465 34.2891 249.338V249.299C33.5615 249.133 33.0781 248.488 33.0781 247.717C33.0781 246.628 34.0596 245.832 35.4121 245.832C36.7451 245.832 37.7314 246.628 37.7363 247.717C37.7314 248.488 37.2383 249.133 36.5254 249.299V249.338C37.3506 249.465 38.0049 250.207 38.0098 251.115C38.0049 252.268 36.9258 253.098 35.4121 253.098ZM33.9082 251.037C33.8936 251.73 34.4795 252.209 35.4121 252.209C36.3301 252.209 36.916 251.73 36.916 251.037C36.916 250.31 36.2812 249.777 35.4121 249.777C34.5332 249.777 33.8936 250.31 33.9082 251.037ZM34.123 247.814C34.1279 248.474 34.6553 248.933 35.4121 248.928C36.1494 248.933 36.6865 248.479 36.6816 247.814C36.6865 247.155 36.1689 246.706 35.4121 246.711C34.6357 246.706 34.1279 247.155 34.123 247.814ZM41.5156 253H39.2207V245.93H41.584C43.6689 245.93 44.9092 247.253 44.9141 249.455C44.9092 251.662 43.6689 253 41.5156 253ZM40.2949 252.062H41.457C43.0586 252.058 43.8496 251.125 43.8496 249.455C43.8496 247.79 43.0586 246.867 41.5156 246.867H40.2949V252.062ZM46.3691 253H45.2266L47.7656 245.93H49.0059L51.5547 253H50.4121L49.7676 251.135H47.0137L46.3691 253ZM47.3213 250.236H49.4551L48.4102 247.219H48.3613L47.3213 250.236Z" fill="black"/>
<rect width="960" height="28" transform="translate(0 264)" fill="#212529"/>
<path d="M11.2812 281L11.5938 279.105H9.94336L9.63086 281H8.79102L9.10352 279.105H8.08789L8.21484 278.275H9.24023L9.50391 276.654H8.49805L8.625 275.814H9.64551L9.95312 273.93H10.793L10.4854 275.814H12.1357L12.4434 273.93H13.2734L12.9658 275.814H13.9961L13.8594 276.654H12.8291L12.5654 278.275H13.5859L13.4395 279.105H12.4287L12.1211 281H11.2812ZM10.0801 278.275H11.7305L11.9941 276.654H10.3438L10.0801 278.275ZM14.6992 281V280.219L17.1504 277.748C17.9268 276.942 18.3125 276.493 18.3125 275.873C18.3125 275.175 17.7461 274.73 17.0039 274.73C16.2178 274.73 15.7197 275.229 15.7148 275.98H14.6992C14.6895 274.687 15.6758 273.832 17.0234 273.832C18.3857 273.832 19.3281 274.696 19.3379 275.844C19.3281 276.635 18.957 277.265 17.6289 278.568L16.1934 280.023V280.082H19.4551V281H14.6992ZM23.332 273.93V281H22.248V275.004H22.209L20.5195 276.107V275.082L22.2773 273.93H23.332ZM25.1289 281V280.219L27.5801 277.748C28.3564 276.942 28.7422 276.493 28.7422 275.873C28.7422 275.175 28.1758 274.73 27.4336 274.73C26.6475 274.73 26.1494 275.229 26.1445 275.98H25.1289C25.1191 274.687 26.1055 273.832 27.4531 273.832C28.8154 273.832 29.7578 274.696 29.7676 275.844C29.7578 276.635 29.3867 277.265 28.0586 278.568L26.623 280.023V280.082H29.8848V281H25.1289ZM33.4785 281.098C32.1406 281.098 31.1348 280.282 31.0859 279.154H32.1309C32.1895 279.755 32.7656 280.194 33.4785 280.199C34.3379 280.194 34.9531 279.574 34.9531 278.734C34.9531 277.875 34.3184 277.25 33.4297 277.24C32.8633 277.24 32.4287 277.431 32.1895 277.865H31.1738L31.6328 273.93H35.6367V274.848H32.5215L32.2871 276.83H32.3555C32.6484 276.547 33.1465 276.356 33.6836 276.352C35.0166 276.356 35.998 277.343 35.998 278.705C35.998 280.097 34.9531 281.098 33.4785 281.098ZM37.1406 281V280.219L39.5918 277.748C40.3682 276.942 40.7539 276.493 40.7539 275.873C40.7539 275.175 40.1875 274.73 39.4453 274.73C38.6592 274.73 38.1611 275.229 38.1562 275.98H37.1406C37.1309 274.687 38.1172 273.832 39.4648 273.832C40.8271 273.832 41.7695 274.696 41.7793 275.844C41.7695 276.635 41.3984 277.265 40.0703 278.568L38.6348 280.023V280.082H41.8965V281H37.1406ZM45.5195 273.832C46.8184 273.842 48.1807 274.623 48.1855 277.211C48.1855 279.691 47.1162 281.098 45.4219 281.098C44.1182 281.098 43.21 280.292 43.0391 279.145H44.1035C44.25 279.74 44.709 280.155 45.4219 280.16C46.5107 280.155 47.1504 279.208 47.1602 277.592H47.0723C46.6914 278.188 46.0273 278.549 45.2656 278.549C43.9961 278.549 42.9805 277.577 42.9805 276.225C42.9805 274.877 43.9814 273.822 45.5195 273.832ZM44.0254 276.205C44.0303 277.025 44.6406 277.675 45.5 277.67C46.3545 277.675 47.0137 276.977 47.0137 276.195C47.0137 275.429 46.3838 274.73 45.5195 274.73C44.665 274.73 44.0205 275.395 44.0254 276.205Z" fill="white"/>
<rect width="960" height="28" transform="translate(0 292)" fill="#495057"/>
<path d="M11.2812 309L11.5938 307.105H9.94336L9.63086 309H8.79102L9.10352 307.105H8.08789L8.21484 306.275H9.24023L9.50391 304.654H8.49805L8.625 303.814H9.64551L9.95312 301.93H10.793L10.4854 303.814H12.1357L12.4434 301.93H13.2734L12.9658 303.814H13.9961L13.8594 304.654H12.8291L12.5654 306.275H13.5859L13.4395 307.105H12.4287L12.1211 309H11.2812ZM10.0801 306.275H11.7305L11.9941 304.654H10.3438L10.0801 306.275ZM14.543 307.623V306.754L17.668 301.93H18.9961V306.715H19.9629V307.623H18.9961V309H17.9805V307.623H14.543ZM15.6758 306.715H17.9805V303.209H17.9023L15.6758 306.656V306.715ZM23.4785 301.832C24.7773 301.842 26.1396 302.623 26.1445 305.211C26.1445 307.691 25.0752 309.098 23.3809 309.098C22.0771 309.098 21.1689 308.292 20.998 307.145H22.0625C22.209 307.74 22.668 308.155 23.3809 308.16C24.4697 308.155 25.1094 307.208 25.1191 305.592H25.0312C24.6504 306.188 23.9863 306.549 23.2246 306.549C21.9551 306.549 20.9395 305.577 20.9395 304.225C20.9395 302.877 21.9404 301.822 23.4785 301.832ZM21.9844 304.205C21.9893 305.025 22.5996 305.675 23.459 305.67C24.3135 305.675 24.9727 304.977 24.9727 304.195C24.9727 303.429 24.3428 302.73 23.4785 302.73C22.624 302.73 21.9795 303.395 21.9844 304.205ZM29.6797 309.098C28.3418 309.098 27.3359 308.282 27.2871 307.154H28.332C28.3906 307.755 28.9668 308.194 29.6797 308.199C30.5391 308.194 31.1543 307.574 31.1543 306.734C31.1543 305.875 30.5195 305.25 29.6309 305.24C29.0645 305.24 28.6299 305.431 28.3906 305.865H27.375L27.834 301.93H31.8379V302.848H28.7227L28.4883 304.83H28.5566C28.8496 304.547 29.3477 304.356 29.8848 304.352C31.2178 304.356 32.1992 305.343 32.1992 306.705C32.1992 308.097 31.1543 309.098 29.6797 309.098ZM35.8027 309.098C34.167 309.098 33.2051 307.779 33.2051 305.465C33.2051 303.165 34.1768 301.832 35.8027 301.832C37.4238 301.832 38.3955 303.165 38.4004 305.465C38.3955 307.779 37.4385 309.098 35.8027 309.098ZM34.2793 305.465C34.2744 307.228 34.8457 308.17 35.8027 308.17C36.7549 308.17 37.3262 307.228 37.3262 305.465C37.3262 303.707 36.75 302.745 35.8027 302.74C34.8506 302.745 34.2793 303.707 34.2793 305.465ZM41.916 309.098C40.5781 309.098 39.5723 308.282 39.5234 307.154H40.5684C40.627 307.755 41.2031 308.194 41.916 308.199C42.7754 308.194 43.3906 307.574 43.3906 306.734C43.3906 305.875 42.7559 305.25 41.8672 305.24C41.3008 305.24 40.8662 305.431 40.627 305.865H39.6113L40.0703 301.93H44.0742V302.848H40.959L40.7246 304.83H40.793C41.0859 304.547 41.584 304.356 42.1211 304.352C43.4541 304.356 44.4355 305.343 44.4355 306.705C44.4355 308.097 43.3906 309.098 41.916 309.098ZM45.8223 309L48.9766 302.906V302.848H45.334V301.93H50.0898V302.887L46.9453 309H45.8223Z" fill="white"/>
<rect width="960" height="28" transform="translate(0 320)" fill="#868E96"/>
<path d="M11.2812 337L11.5938 335.105H9.94336L9.63086 337H8.79102L9.10352 335.105H8.08789L8.21484 334.275H9.24023L9.50391 332.654H8.49805L8.625 331.814H9.64551L9.95312 329.93H10.793L10.4854 331.814H12.1357L12.4434 329.93H13.2734L12.9658 331.814H13.9961L13.8594 332.654H12.8291L12.5654 334.275H13.5859L13.4395 335.105H12.4287L12.1211 337H11.2812ZM10.0801 334.275H11.7305L11.9941 332.654H10.3438L10.0801 334.275ZM17.1699 337.098C15.6318 337.098 14.5625 336.268 14.5723 335.115C14.5625 334.207 15.2119 333.465 16.0469 333.338V333.299C15.3193 333.133 14.8359 332.488 14.8359 331.717C14.8359 330.628 15.8174 329.832 17.1699 329.832C18.5029 329.832 19.4893 330.628 19.4941 331.717C19.4893 332.488 18.9961 333.133 18.2832 333.299V333.338C19.1084 333.465 19.7627 334.207 19.7676 335.115C19.7627 336.268 18.6836 337.098 17.1699 337.098ZM15.666 335.037C15.6514 335.73 16.2373 336.209 17.1699 336.209C18.0879 336.209 18.6738 335.73 18.6738 335.037C18.6738 334.31 18.0391 333.777 17.1699 333.777C16.291 333.777 15.6514 334.31 15.666 335.037ZM15.8809 331.814C15.8857 332.474 16.4131 332.933 17.1699 332.928C17.9072 332.933 18.4443 332.479 18.4395 331.814C18.4443 331.155 17.9268 330.706 17.1699 330.711C16.3936 330.706 15.8857 331.155 15.8809 331.814ZM23.4395 337.098C22.1309 337.088 20.7637 336.312 20.7637 333.699C20.7686 331.238 21.833 329.832 23.5273 329.832C24.8311 329.832 25.7344 330.643 25.9004 331.766H24.8359C24.6943 331.189 24.2402 330.774 23.5273 330.77C22.4336 330.774 21.7988 331.722 21.7988 333.318H21.877C22.2627 332.718 22.9268 332.366 23.6934 332.361C24.9531 332.366 25.9688 333.333 25.9688 334.686C25.9688 336.058 24.958 337.107 23.4395 337.098ZM21.9258 334.715C21.9307 335.501 22.5605 336.194 23.4297 336.199C24.2842 336.194 24.9238 335.53 24.9238 334.705C24.9238 333.895 24.3086 333.235 23.459 333.24C22.5947 333.235 21.9355 333.929 21.9258 334.715ZM29.582 337.098C28.0439 337.098 26.9746 336.268 26.9844 335.115C26.9746 334.207 27.624 333.465 28.459 333.338V333.299C27.7314 333.133 27.248 332.488 27.248 331.717C27.248 330.628 28.2295 329.832 29.582 329.832C30.915 329.832 31.9014 330.628 31.9062 331.717C31.9014 332.488 31.4082 333.133 30.6953 333.299V333.338C31.5205 333.465 32.1748 334.207 32.1797 335.115C32.1748 336.268 31.0957 337.098 29.582 337.098ZM28.0781 335.037C28.0635 335.73 28.6494 336.209 29.582 336.209C30.5 336.209 31.0859 335.73 31.0859 335.037C31.0859 334.31 30.4512 333.777 29.582 333.777C28.7031 333.777 28.0635 334.31 28.0781 335.037ZM28.293 331.814C28.2979 332.474 28.8252 332.933 29.582 332.928C30.3193 332.933 30.8564 332.479 30.8516 331.814C30.8564 331.155 30.3389 330.706 29.582 330.711C28.8057 330.706 28.2979 331.155 28.293 331.814ZM33.3906 337V329.93H37.8242V330.857H34.4648V332.996H37.5898V333.914H34.4648V336.072H37.8633V337H33.3906ZM41.4766 329.832C42.7754 329.842 44.1377 330.623 44.1426 333.211C44.1426 335.691 43.0732 337.098 41.3789 337.098C40.0752 337.098 39.167 336.292 38.9961 335.145H40.0605C40.207 335.74 40.666 336.155 41.3789 336.16C42.4678 336.155 43.1074 335.208 43.1172 333.592H43.0293C42.6484 334.188 41.9844 334.549 41.2227 334.549C39.9531 334.549 38.9375 333.577 38.9375 332.225C38.9375 330.877 39.9385 329.822 41.4766 329.832ZM39.9824 332.205C39.9873 333.025 40.5977 333.675 41.457 333.67C42.3115 333.675 42.9707 332.977 42.9707 332.195C42.9707 331.429 42.3408 330.73 41.4766 330.73C40.6221 330.73 39.9775 331.395 39.9824 332.205ZM47.834 337.098C46.5254 337.088 45.1582 336.312 45.1582 333.699C45.1631 331.238 46.2275 329.832 47.9219 329.832C49.2256 329.832 50.1289 330.643 50.2949 331.766H49.2305C49.0889 331.189 48.6348 330.774 47.9219 330.77C46.8281 330.774 46.1934 331.722 46.1934 333.318H46.2715C46.6572 332.718 47.3213 332.366 48.0879 332.361C49.3477 332.366 50.3633 333.333 50.3633 334.686C50.3633 336.058 49.3525 337.107 47.834 337.098ZM46.3203 334.715C46.3252 335.501 46.9551 336.194 47.8242 336.199C48.6787 336.194 49.3184 335.53 49.3184 334.705C49.3184 333.895 48.7031 333.235 47.8535 333.24C46.9893 333.235 46.3301 333.929 46.3203 334.715Z" fill="black"/>
<rect width="960" height="28" transform="translate(0 348)" fill="#ADB5BD"/>
<path d="M11.2812 365L11.5938 363.105H9.94336L9.63086 365H8.79102L9.10352 363.105H8.08789L8.21484 362.275H9.24023L9.50391 360.654H8.49805L8.625 359.814H9.64551L9.95312 357.93H10.793L10.4854 359.814H12.1357L12.4434 357.93H13.2734L12.9658 359.814H13.9961L13.8594 360.654H12.8291L12.5654 362.275H13.5859L13.4395 363.105H12.4287L12.1211 365H11.2812ZM10.0801 362.275H11.7305L11.9941 360.654H10.3438L10.0801 362.275ZM15.4023 365H14.2598L16.7988 357.93H18.0391L20.5879 365H19.4453L18.8008 363.135H16.0469L15.4023 365ZM16.3545 362.236H18.4883L17.4434 359.219H17.3945L16.3545 362.236ZM23.7812 365H21.4863V357.93H23.8496C25.9346 357.93 27.1748 359.253 27.1797 361.455C27.1748 363.662 25.9346 365 23.7812 365ZM22.5605 364.062H23.7227C25.3242 364.058 26.1152 363.125 26.1152 361.455C26.1152 359.79 25.3242 358.867 23.7812 358.867H22.5605V364.062ZM28.3906 365V357.93H30.9785C32.4873 357.93 33.2148 358.735 33.2148 359.785C33.2148 360.669 32.6729 361.113 32.0234 361.279V361.348C32.7266 361.387 33.4883 362.002 33.4883 363.096C33.4883 364.18 32.7461 365 31.0957 365H28.3906ZM29.4648 364.082H30.998C32.0137 364.077 32.4238 363.633 32.4238 363.047C32.4238 362.368 31.8867 361.826 31.0371 361.826H29.4648V364.082ZM29.4648 360.986H30.8906C31.6035 360.981 32.1602 360.552 32.1602 359.873C32.1602 359.287 31.7549 358.848 30.9102 358.848H29.4648V360.986ZM36.9453 365.098C35.6074 365.098 34.6016 364.282 34.5527 363.154H35.5977C35.6562 363.755 36.2324 364.194 36.9453 364.199C37.8047 364.194 38.4199 363.574 38.4199 362.734C38.4199 361.875 37.7852 361.25 36.8965 361.24C36.3301 361.24 35.8955 361.431 35.6562 361.865H34.6406L35.0996 357.93H39.1035V358.848H35.9883L35.7539 360.83H35.8223C36.1152 360.547 36.6133 360.356 37.1504 360.352C38.4834 360.356 39.4648 361.343 39.4648 362.705C39.4648 364.097 38.4199 365.098 36.9453 365.098ZM40.7051 365V357.93H43.293C44.8018 357.93 45.5293 358.735 45.5293 359.785C45.5293 360.669 44.9873 361.113 44.3379 361.279V361.348C45.041 361.387 45.8027 362.002 45.8027 363.096C45.8027 364.18 45.0605 365 43.4102 365H40.7051ZM41.7793 364.082H43.3125C44.3281 364.077 44.7383 363.633 44.7383 363.047C44.7383 362.368 44.2012 361.826 43.3516 361.826H41.7793V364.082ZM41.7793 360.986H43.2051C43.918 360.981 44.4746 360.552 44.4746 359.873C44.4746 359.287 44.0693 358.848 43.2246 358.848H41.7793V360.986ZM49.25 365H46.9551V357.93H49.3184C51.4033 357.93 52.6436 359.253 52.6484 361.455C52.6436 363.662 51.4033 365 49.25 365ZM48.0293 364.062H49.1914C50.793 364.058 51.584 363.125 51.584 361.455C51.584 359.79 50.793 358.867 49.25 358.867H48.0293V364.062Z" fill="black"/>
<rect width="960" height="28" transform="translate(0 376)" fill="#CED4DA"/>
<path d="M11.2812 393L11.5938 391.105H9.94336L9.63086 393H8.79102L9.10352 391.105H8.08789L8.21484 390.275H9.24023L9.50391 388.654H8.49805L8.625 387.814H9.64551L9.95312 385.93H10.793L10.4854 387.814H12.1357L12.4434 385.93H13.2734L12.9658 387.814H13.9961L13.8594 388.654H12.8291L12.5654 390.275H13.5859L13.4395 391.105H12.4287L12.1211 393H11.2812ZM10.0801 390.275H11.7305L11.9941 388.654H10.3438L10.0801 390.275ZM19.582 388.234C19.4111 387.321 18.6543 386.813 17.7559 386.818C16.5352 386.813 15.6318 387.751 15.627 389.465C15.6318 391.188 16.54 392.116 17.7559 392.111C18.6445 392.116 19.3965 391.618 19.582 390.715L20.666 390.725C20.4414 392.121 19.3037 393.098 17.7461 393.098C15.9053 393.098 14.5625 391.726 14.5625 389.465C14.5625 387.204 15.915 385.832 17.7461 385.832C19.2402 385.832 20.4268 386.716 20.666 388.234H19.582ZM21.8281 393V385.93H26.2617V386.857H22.9023V388.996H26.0273V389.914H22.9023V392.072H26.3008V393H21.8281ZM29.875 393H27.5801V385.93H29.9434C32.0283 385.93 33.2686 387.253 33.2734 389.455C33.2686 391.662 32.0283 393 29.875 393ZM28.6543 392.062H29.8164C31.418 392.058 32.209 391.125 32.209 389.455C32.209 387.79 31.418 386.867 29.875 386.867H28.6543V392.062ZM34.2305 391.623V390.754L37.3555 385.93H38.6836V390.715H39.6504V391.623H38.6836V393H37.668V391.623H34.2305ZM35.3633 390.715H37.668V387.209H37.5898L35.3633 390.656V390.715ZM43.127 393H40.832V385.93H43.1953C45.2803 385.93 46.5205 387.253 46.5254 389.455C46.5205 391.662 45.2803 393 43.127 393ZM41.9062 392.062H43.0684C44.6699 392.058 45.4609 391.125 45.4609 389.455C45.4609 387.79 44.6699 386.867 43.127 386.867H41.9062V392.062ZM47.9805 393H46.8379L49.377 385.93H50.6172L53.166 393H52.0234L51.3789 391.135H48.625L47.9805 393ZM48.9326 390.236H51.0664L50.0215 387.219H49.9727L48.9326 390.236Z" fill="black"/>
<rect width="960" height="28" transform="translate(0 404)" fill="#DEE2E6"/>
<path d="M11.2812 421L11.5938 419.105H9.94336L9.63086 421H8.79102L9.10352 419.105H8.08789L8.21484 418.275H9.24023L9.50391 416.654H8.49805L8.625 415.814H9.64551L9.95312 413.93H10.793L10.4854 415.814H12.1357L12.4434 413.93H13.2734L12.9658 415.814H13.9961L13.8594 416.654H12.8291L12.5654 418.275H13.5859L13.4395 419.105H12.4287L12.1211 421H11.2812ZM10.0801 418.275H11.7305L11.9941 416.654H10.3438L10.0801 418.275ZM17.0918 421H14.7969V413.93H17.1602C19.2451 413.93 20.4854 415.253 20.4902 417.455C20.4854 419.662 19.2451 421 17.0918 421ZM15.8711 420.062H17.0332C18.6348 420.058 19.4258 419.125 19.4258 417.455C19.4258 415.79 18.6348 414.867 17.0918 414.867H15.8711V420.062ZM21.7012 421V413.93H26.1348V414.857H22.7754V416.996H25.9004V417.914H22.7754V420.072H26.1738V421H21.7012ZM27.4531 421V413.93H31.8867V414.857H28.5273V416.996H31.6523V417.914H28.5273V420.072H31.9258V421H27.4531ZM33.1074 421V420.219L35.5586 417.748C36.335 416.942 36.7207 416.493 36.7207 415.873C36.7207 415.175 36.1543 414.73 35.4121 414.73C34.626 414.73 34.1279 415.229 34.123 415.98H33.1074C33.0977 414.687 34.084 413.832 35.4316 413.832C36.7939 413.832 37.7363 414.696 37.7461 415.844C37.7363 416.635 37.3652 417.265 36.0371 418.568L34.6016 420.023V420.082H37.8633V421H33.1074ZM39.1523 421V413.93H43.5859V414.857H40.2266V416.996H43.3516V417.914H40.2266V420.072H43.625V421H39.1523ZM47.3652 421.098C46.0566 421.088 44.6895 420.312 44.6895 417.699C44.6943 415.238 45.7588 413.832 47.4531 413.832C48.7568 413.832 49.6602 414.643 49.8262 415.766H48.7617C48.6201 415.189 48.166 414.774 47.4531 414.77C46.3594 414.774 45.7246 415.722 45.7246 417.318H45.8027C46.1885 416.718 46.8525 416.366 47.6191 416.361C48.8789 416.366 49.8945 417.333 49.8945 418.686C49.8945 420.058 48.8838 421.107 47.3652 421.098ZM45.8516 418.715C45.8564 419.501 46.4863 420.194 47.3555 420.199C48.21 420.194 48.8496 419.53 48.8496 418.705C48.8496 417.895 48.2344 417.235 47.3848 417.24C46.5205 417.235 45.8613 417.929 45.8516 418.715Z" fill="black"/>
<rect width="960" height="28" transform="translate(0 432)" fill="#E9ECEF"/>
<path d="M11.2812 449L11.5938 447.105H9.94336L9.63086 449H8.79102L9.10352 447.105H8.08789L8.21484 446.275H9.24023L9.50391 444.654H8.49805L8.625 443.814H9.64551L9.95312 441.93H10.793L10.4854 443.814H12.1357L12.4434 441.93H13.2734L12.9658 443.814H13.9961L13.8594 444.654H12.8291L12.5654 446.275H13.5859L13.4395 447.105H12.4287L12.1211 449H11.2812ZM10.0801 446.275H11.7305L11.9941 444.654H10.3438L10.0801 446.275ZM14.7969 449V441.93H19.2305V442.857H15.8711V444.996H18.9961V445.914H15.8711V448.072H19.2695V449H14.7969ZM22.8828 441.832C24.1816 441.842 25.5439 442.623 25.5488 445.211C25.5488 447.691 24.4795 449.098 22.7852 449.098C21.4814 449.098 20.5732 448.292 20.4023 447.145H21.4668C21.6133 447.74 22.0723 448.155 22.7852 448.16C23.874 448.155 24.5137 447.208 24.5234 445.592H24.4355C24.0547 446.188 23.3906 446.549 22.6289 446.549C21.3594 446.549 20.3438 445.577 20.3438 444.225C20.3438 442.877 21.3447 441.822 22.8828 441.832ZM21.3887 444.205C21.3936 445.025 22.0039 445.675 22.8633 445.67C23.7178 445.675 24.377 444.977 24.377 444.195C24.377 443.429 23.7471 442.73 22.8828 442.73C22.0283 442.73 21.3838 443.395 21.3887 444.205ZM26.7793 449V441.93H31.2129V442.857H27.8535V444.996H30.9785V445.914H27.8535V448.072H31.252V449H26.7793ZM37.3164 444.234C37.1455 443.321 36.3887 442.813 35.4902 442.818C34.2695 442.813 33.3662 443.751 33.3613 445.465C33.3662 447.188 34.2744 448.116 35.4902 448.111C36.3789 448.116 37.1309 447.618 37.3164 446.715L38.4004 446.725C38.1758 448.121 37.0381 449.098 35.4805 449.098C33.6396 449.098 32.2969 447.726 32.2969 445.465C32.2969 443.204 33.6494 441.832 35.4805 441.832C36.9746 441.832 38.1611 442.716 38.4004 444.234H37.3164ZM39.5625 449V441.93H43.9961V442.857H40.6367V444.996H43.7617V445.914H40.6367V448.072H44.0352V449H39.5625ZM45.3145 449V441.93H49.6992V442.857H46.3887V444.996H49.3867V445.914H46.3887V449H45.3145Z" fill="black"/>
<rect width="960" height="28" transform="translate(0 460)" fill="#F1F3F5"/>
<path d="M11.2812 477L11.5938 475.105H9.94336L9.63086 477H8.79102L9.10352 475.105H8.08789L8.21484 474.275H9.24023L9.50391 472.654H8.49805L8.625 471.814H9.64551L9.95312 469.93H10.793L10.4854 471.814H12.1357L12.4434 469.93H13.2734L12.9658 471.814H13.9961L13.8594 472.654H12.8291L12.5654 474.275H13.5859L13.4395 475.105H12.4287L12.1211 477H11.2812ZM10.0801 474.275H11.7305L11.9941 472.654H10.3438L10.0801 474.275ZM14.7969 477V469.93H19.1816V470.857H15.8711V472.996H18.8691V473.914H15.8711V477H14.7969ZM22.9707 469.93V477H21.8867V471.004H21.8477L20.1582 472.107V471.082L21.916 469.93H22.9707ZM24.8652 477V469.93H29.25V470.857H25.9395V472.996H28.9375V473.914H25.9395V477H24.8652ZM32.8633 477.098C31.3984 477.098 30.3584 476.312 30.3145 475.154H31.4082C31.4473 475.774 32.0625 476.17 32.8535 476.17C33.708 476.17 34.3281 475.706 34.3281 475.018C34.3281 474.319 33.7471 473.821 32.7363 473.816H32.1309V472.938H32.7363C33.542 472.942 34.1035 472.493 34.1035 471.814C34.1035 471.17 33.6201 470.73 32.873 470.73C32.165 470.73 31.5303 471.126 31.5059 471.766H30.4707C30.5 470.613 31.5645 469.832 32.8828 469.832C34.2744 469.832 35.1484 470.711 35.1387 471.756C35.1484 472.562 34.6504 473.138 33.8887 473.328V473.377C34.8555 473.514 35.417 474.163 35.4121 475.057C35.417 476.233 34.3281 477.098 32.8633 477.098ZM36.6914 477V469.93H41.0762V470.857H37.7656V472.996H40.7637V473.914H37.7656V477H36.6914ZM44.582 477.098C43.2441 477.098 42.2383 476.282 42.1895 475.154H43.2344C43.293 475.755 43.8691 476.194 44.582 476.199C45.4414 476.194 46.0566 475.574 46.0566 474.734C46.0566 473.875 45.4219 473.25 44.5332 473.24C43.9668 473.24 43.5322 473.431 43.293 473.865H42.2773L42.7363 469.93H46.7402V470.848H43.625L43.3906 472.83H43.459C43.752 472.547 44.25 472.356 44.7871 472.352C46.1201 472.356 47.1016 473.343 47.1016 474.705C47.1016 476.097 46.0566 477.098 44.582 477.098Z" fill="black"/>
<rect width="960" height="28" transform="translate(0 488)" fill="#F8F9FA"/>
<path d="M11.2812 505L11.5938 503.105H9.94336L9.63086 505H8.79102L9.10352 503.105H8.08789L8.21484 502.275H9.24023L9.50391 500.654H8.49805L8.625 499.814H9.64551L9.95312 497.93H10.793L10.4854 499.814H12.1357L12.4434 497.93H13.2734L12.9658 499.814H13.9961L13.8594 500.654H12.8291L12.5654 502.275H13.5859L13.4395 503.105H12.4287L12.1211 505H11.2812ZM10.0801 502.275H11.7305L11.9941 500.654H10.3438L10.0801 502.275ZM14.7969 505V497.93H19.1816V498.857H15.8711V500.996H18.8691V501.914H15.8711V505H14.7969ZM22.7559 505.098C21.2178 505.098 20.1484 504.268 20.1582 503.115C20.1484 502.207 20.7979 501.465 21.6328 501.338V501.299C20.9053 501.133 20.4219 500.488 20.4219 499.717C20.4219 498.628 21.4033 497.832 22.7559 497.832C24.0889 497.832 25.0752 498.628 25.0801 499.717C25.0752 500.488 24.582 501.133 23.8691 501.299V501.338C24.6943 501.465 25.3486 502.207 25.3535 503.115C25.3486 504.268 24.2695 505.098 22.7559 505.098ZM21.252 503.037C21.2373 503.73 21.8232 504.209 22.7559 504.209C23.6738 504.209 24.2598 503.73 24.2598 503.037C24.2598 502.31 23.625 501.777 22.7559 501.777C21.877 501.777 21.2373 502.31 21.252 503.037ZM21.4668 499.814C21.4717 500.474 21.999 500.933 22.7559 500.928C23.4932 500.933 24.0303 500.479 24.0254 499.814C24.0303 499.155 23.5127 498.706 22.7559 498.711C21.9795 498.706 21.4717 499.155 21.4668 499.814ZM26.5645 505V497.93H30.9492V498.857H27.6387V500.996H30.6367V501.914H27.6387V505H26.5645ZM32.1504 505V497.93H36.5352V498.857H33.2246V500.996H36.2227V501.914H33.2246V505H32.1504ZM40.0703 497.832C41.3691 497.842 42.7314 498.623 42.7363 501.211C42.7363 503.691 41.667 505.098 39.9727 505.098C38.6689 505.098 37.7607 504.292 37.5898 503.145H38.6543C38.8008 503.74 39.2598 504.155 39.9727 504.16C41.0615 504.155 41.7012 503.208 41.7109 501.592H41.623C41.2422 502.188 40.5781 502.549 39.8164 502.549C38.5469 502.549 37.5312 501.577 37.5312 500.225C37.5312 498.877 38.5322 497.822 40.0703 497.832ZM38.5762 500.205C38.5811 501.025 39.1914 501.675 40.0508 501.67C40.9053 501.675 41.5645 500.977 41.5645 500.195C41.5645 499.429 40.9346 498.73 40.0703 498.73C39.2158 498.73 38.5713 499.395 38.5762 500.205ZM43.9668 505V497.93H48.3516V498.857H45.041V500.996H48.0391V501.914H45.041V505H43.9668ZM49.2695 505H48.127L50.666 497.93H51.9062L54.4551 505H53.3125L52.668 503.135H49.9141L49.2695 505ZM50.2217 502.236H52.3555L51.3105 499.219H51.2617L50.2217 502.236Z" fill="black"/>
</g>
<defs>
<clipPath id="clip0_354_4091">
<rect width="960" height="516" rx="16" fill="white"/>
</clipPath>
</defs>
</svg>
