<svg width="960" height="200" viewBox="0 0 960 200" fill="none" xmlns="http://www.w3.org/2000/svg">
<rect x="20" width="80" height="80" rx="40" fill="#E9ECEF"/>
<path fill-rule="evenodd" clip-rule="evenodd" d="M44.215 36.1835C44.9952 33.2426 48.6667 32.2681 50.8116 34.413L65.9571 49.5741C68.1019 51.7192 67.1106 55.3908 64.1857 56.1708L59.9747 57.2988L59.963 57.2978L54.9728 58.6337L54.9708 58.6376L50.6612 59.7919L50.6564 59.7909L45.8429 61.081L45.8419 61.08L43.4835 61.7128C40.5586 62.4928 37.8771 59.8115 38.673 56.8866L39.2316 54.7997V54.7988L40.4396 50.288L41.6866 45.624C41.6852 45.6214 41.6841 45.6187 41.6827 45.6161L42.9454 40.8974C42.9506 40.9088 42.9558 40.9202 42.9611 40.9316L42.9591 40.8749L44.215 36.1835Z" fill="#CED4DA"/>
<path d="M66.3257 54.8712C68.6007 52.5962 65.7732 46.0962 60.0207 40.3437C54.2682 34.5912 47.7844 31.7637 45.5094 34.0387C43.2344 36.3137 46.0619 42.8137 51.8145 48.5662C57.567 54.3187 64.067 57.13 66.3257 54.8712Z" fill="#868E96"/>
<path d="M54.1408 24.9386C56.1558 28.7086 56.562 33.031 55.3108 37.1098C54.2545 40.5873 52.077 43.5285 49.1195 45.5598C48.2745 44.5035 47.5433 43.4473 46.9258 42.4235C49.1845 40.8798 50.842 38.6373 51.6545 35.9885C52.6133 32.8848 52.3045 29.6023 50.777 26.7423C50.2733 25.7998 50.6308 24.6461 51.557 24.1586C52.4995 23.6548 53.6533 24.0123 54.1408 24.9386Z" fill="#DE0917"/>
<path d="M71.2711 40.2839C74.3435 37.8568 78.3283 37.3626 81.7587 38.642C82.6401 38.9707 83.6213 38.5227 83.95 37.6411C84.2787 36.7597 83.8306 35.7787 82.9492 35.45C78.4495 33.7719 73.2044 34.4152 69.1592 37.6106C68.421 38.1936 68.2954 39.2648 68.8786 40.0031C69.4617 40.7413 70.5329 40.8671 71.2711 40.2839Z" fill="#DE0917"/>
<path d="M45.0452 28.8716C46.0862 28.8716 46.9302 28.0276 46.9302 26.9866C46.9302 25.9455 46.0862 25.1016 45.0452 25.1016C44.0041 25.1016 43.1602 25.9455 43.1602 26.9866C43.1602 28.0276 44.0041 28.8716 45.0452 28.8716Z" fill="#DE0917"/>
<path d="M77.7348 26.9866C77.7348 28.0276 76.8908 28.8716 75.8498 28.8716C74.8087 28.8716 73.9648 28.0276 73.9648 26.9866C73.9648 25.9455 74.8087 25.1016 75.8498 25.1016C76.8908 25.1016 77.7348 25.9455 77.7348 26.9866Z" fill="#DE0917"/>
<path d="M55.5744 19.56C55.5744 20.4216 54.876 21.12 54.0144 21.12C53.1528 21.12 52.4544 20.4216 52.4544 19.56C52.4544 18.6984 53.1528 18 54.0144 18C54.876 18 55.5744 18.6984 55.5744 19.56Z" fill="#868E96"/>
<path d="M76.6773 52.7911C76.6773 53.6616 75.9715 54.3673 75.101 54.3673C74.2305 54.3673 73.5248 53.6616 73.5248 52.7911C73.5248 51.9206 74.2305 51.2148 75.101 51.2148C75.9715 51.2148 76.6773 51.9206 76.6773 52.7911Z" fill="#868E96"/>
<path d="M70.4212 19.6581C70.1612 19.4306 69.8362 19.2844 69.4787 19.2681C68.6012 19.2194 67.8537 19.8856 67.7887 20.7631C67.6749 22.5506 66.4399 25.7844 65.9687 26.8731C65.9687 26.8813 65.9646 26.8894 65.9606 26.8975C65.9565 26.9056 65.9524 26.9138 65.9524 26.9219C65.8653 27.1365 65.7722 27.3481 65.6731 27.5564C65.5073 27.3488 65.3242 27.1588 65.1237 26.9869C64.6687 26.5807 64.1162 26.2719 63.4662 26.0607L63.4174 26.0444C61.2237 25.3132 58.8349 26.4994 58.1037 28.7094C57.7462 29.7819 57.8274 30.9194 58.3312 31.9269C58.8349 32.9344 59.6962 33.6819 60.7687 34.0394C60.8837 34.0778 61.0006 34.1021 61.1171 34.1132C61.938 34.335 62.7327 34.3426 63.4975 34.1372C63.4512 34.3603 63.3974 34.5823 63.3362 34.8032C63.1087 35.6482 63.6124 36.5257 64.4574 36.7532C65.3024 36.9807 66.1799 36.4769 66.4074 35.6319C66.7735 34.3082 66.9321 32.9601 66.8834 31.5982C67.7289 30.539 68.4042 29.3721 68.9099 28.1081L68.9338 28.0502C69.2351 27.3212 70.8159 23.4965 70.9737 20.9419C70.9899 20.4381 70.7787 19.9669 70.4212 19.6581ZM62.4912 29.0669C62.9387 29.2161 63.3974 29.4671 63.5937 30.4906C62.7934 31.2338 62.2799 31.1523 61.8249 31.0007C61.7702 30.9825 61.7151 30.9673 61.6598 30.9553C61.4535 30.8583 61.2874 30.687 61.1912 30.4807C61.0612 30.2369 61.0449 29.9607 61.1424 29.7007C61.3212 29.1644 61.9062 28.8719 62.4424 29.0507L62.4912 29.0669Z" fill="#868E96"/>
<path d="M64.9611 42.6338C70.5023 41.09 76.3036 41.7888 81.3086 44.6163C82.2348 45.1525 82.5598 46.3063 82.0561 47.2163C81.5361 48.1425 80.3661 48.4675 79.4398 47.9475C75.3286 45.64 70.5511 45.055 66.0011 46.3225C62.2473 47.3625 59.0298 49.5725 56.7061 52.6275C55.7148 51.945 54.6911 51.165 53.6836 50.2875C56.4948 46.5988 60.4111 43.9013 64.9611 42.6338Z" fill="#495057"/>
<path d="M62.2883 40.7262C62.2883 41.7584 61.4516 42.5949 60.4195 42.5949C59.3875 42.5949 58.5508 41.7584 58.5508 40.7262C58.5508 39.6941 59.3875 38.8574 60.4195 38.8574C61.4516 38.8574 62.2883 39.6941 62.2883 40.7262Z" fill="#495057"/>
<path d="M160 40C160 17.9086 177.909 0 200 0C222.091 0 240 17.9086 240 40C240 62.0914 222.091 80 200 80C177.909 80 160 62.0914 160 40Z" fill="#E9ECEF"/>
<path d="M200.074 16C194.898 20.8094 187.484 24.2393 179 25.4293V38.8777C179 49.8525 184.616 60.832 200 64C215.384 60.832 221 49.8525 221 38.8777V25.4083C212.578 24.1995 205.218 20.7813 200.074 16Z" fill="#ADB5BD"/>
<path d="M207.667 36.1541H203.526V32.6205C203.526 30.9743 202.094 29.6329 200.336 29.6329C198.579 29.6329 197.147 30.9743 197.147 32.6205V36.1541H193.005V32.6205C193.005 28.8348 196.295 25.7529 200.336 25.7529C204.378 25.7529 207.667 28.8348 207.667 32.6205V36.1541Z" fill="#495057"/>
<path d="M200.336 52.9994C194.697 52.9994 190.126 48.7176 190.126 43.438V35.3232H210.543V43.438C210.543 48.7204 205.972 52.9994 200.333 52.9994H200.336Z" fill="white"/>
<path d="M202.407 41.3105H198.265V45.6506H202.407V41.3105Z" fill="#DE0917"/>
<path d="M300 40C300 17.9086 317.909 0 340 0C362.091 0 380 17.9086 380 40C380 62.0914 362.091 80 340 80C317.909 80 300 62.0914 300 40Z" fill="#E9ECEF"/>
<path d="M345.794 56.3604C345.794 59.5375 343.214 62.1113 340.03 62.1113C336.846 62.1113 334.266 59.5375 334.266 56.3604C334.266 53.1832 336.846 50.6094 340.03 50.6094C343.214 50.6094 345.794 53.1832 345.794 56.3604Z" fill="#495057"/>
<path d="M356.641 48.2408V34.6835C356.641 25.5291 349.205 18.1094 340.03 18.1094C330.855 18.1094 323.419 25.5291 323.419 34.6835V48.2408C322.068 48.3445 321 49.4664 321 50.8429V53.7419C321 55.1844 322.172 56.3534 323.617 56.3534H356.438C357.883 56.3534 359.055 55.1844 359.055 53.7419V50.8429C359.055 49.4664 357.987 48.3398 356.636 48.2408H356.641Z" fill="#ADB5BD"/>
<circle cx="355" cy="28.9971" r="9" fill="#DE0917"/>
<path d="M355.001 34.0008C355.553 34.0008 356.001 33.5383 356.001 32.9677C356.001 32.3971 355.553 31.9346 355.001 31.9346C354.449 31.9346 354.001 32.3971 354.001 32.9677C354.001 33.5383 354.449 34.0008 355.001 34.0008Z" fill="white"/>
<path d="M354 25.8346C354 25.372 354.448 24.9971 355 24.9971C355.552 24.9971 355.999 25.372 355.999 25.8346V30.1938C355.999 30.6563 355.552 31.0313 355 31.0313C354.448 31.0313 354 30.6563 354 30.1938V25.8346Z" fill="white"/>
<path d="M440 40C440 17.9086 457.909 0 480 0C502.091 0 520 17.9086 520 40C520 62.0914 502.091 80 480 80C457.909 80 440 62.0914 440 40Z" fill="#E9ECEF"/>
<path d="M493.054 30.2471H462.946L457 57.9863H462.975H468.598H487.108L493.054 30.2471Z" fill="#ADB5BD"/>
<path d="M473.003 36.8182L473.45 34.7399C473.55 34.2743 473.944 33.9443 474.396 33.9443H480.034C480.657 33.9443 481.118 34.5487 480.98 35.187L480.533 37.2653C480.433 37.7309 480.04 38.0608 479.587 38.0608H473.95C473.327 38.0608 472.865 37.4565 473.003 36.8182Z" fill="white"/>
<path d="M493.054 30.2588L487.108 57.998H499L493.054 30.2588Z" fill="#868E96"/>
<path d="M486.074 30.2323H481.959V26.6246C481.959 24.2503 480.116 22.3169 477.853 22.3169C475.59 22.3169 473.747 24.2503 473.747 26.6246V30.2323H469.632V26.6246C469.632 21.8698 473.321 18 477.853 18C482.385 18 486.074 21.8698 486.074 26.6246V30.2323Z" fill="#495057"/>
<path d="M503 53C503 57.9716 498.97 62 494 62C489.03 62 485 57.9716 485 53C485 48.0284 489.03 44 494 44C498.97 44 503 48.0284 503 53Z" fill="#DE0917"/>
<path d="M493.028 57C492.636 56.9882 492.268 56.8198 492.009 56.5509L489.378 53.8472C488.973 53.4305 488.87 52.813 489.184 52.3343C489.708 51.5365 490.853 51.4833 491.468 52.1156L492.996 53.6847L496.448 49.536C496.817 49.0928 497.461 48.8801 498.037 49.0692C498.995 49.3853 499.273 50.3988 498.713 51.0726L494.222 56.4711C493.966 56.7784 493.581 56.9764 493.161 56.9941C493.119 56.9941 493.076 56.9941 493.034 56.9941L493.028 57Z" fill="white"/>
<path d="M580 40C580 17.9086 597.909 0 620 0C642.091 0 660 17.9086 660 40C660 62.0914 642.091 80 620 80C597.909 80 580 62.0914 580 40Z" fill="#E9ECEF"/>
<path d="M641 22H596V52.7901H641V22Z" fill="#ADB5BD"/>
<path d="M602 44.588V43.4508C602 40.5191 604.378 38.1416 607.309 38.1416H609.147C612.079 38.1416 614.456 40.5191 614.456 43.4508V44.588H602Z" fill="#495057"/>
<path d="M612.148 34.8088C612.499 32.6456 611.03 30.6073 608.867 30.2562C606.704 29.9051 604.666 31.374 604.315 33.5372C603.963 35.7005 605.432 37.7388 607.596 38.0899C609.759 38.441 611.797 36.9721 612.148 34.8088Z" fill="#495057"/>
<path d="M632.027 32.3232H619V35.9219H632.027V32.3232Z" fill="white"/>
<path d="M626.137 39.1074H619V42.7061H626.137V39.1074Z" fill="white"/>
<path d="M644 53C644 57.9716 639.97 62 635 62C630.03 62 626 57.9716 626 53C626 48.0284 630.03 44 635 44C639.97 44 644 48.0284 644 53Z" fill="#DE0917"/>
<path d="M634.028 57C633.636 56.9882 633.268 56.8198 633.009 56.5509L630.378 53.8472C629.973 53.4305 629.87 52.813 630.184 52.3343C630.708 51.5365 631.853 51.4833 632.468 52.1156L633.996 53.6847L637.448 49.536C637.817 49.0928 638.461 48.8801 639.037 49.0692C639.995 49.3853 640.273 50.3988 639.713 51.0726L635.222 56.4711C634.966 56.7784 634.581 56.9764 634.161 56.9941C634.119 56.9941 634.076 56.9941 634.034 56.9941L634.028 57Z" fill="white"/>
<path d="M720 40C720 17.9086 737.909 0 760 0C782.091 0 800 17.9086 800 40C800 62.0914 782.091 80 760 80C737.909 80 720 62.0914 720 40Z" fill="#E9ECEF"/>
<path d="M784 51.667H736V56.5541H754.218C754.973 58.5536 757.252 60.0003 759.954 60.0003C762.656 60.0003 764.935 58.5477 765.69 56.5541H784V51.667Z" fill="#495057"/>
<path d="M754.363 45.0398L738.361 47.3107V51.6667H760.393V48.9543C760.393 46.5498 757.549 44.7029 754.363 45.0398Z" fill="#ADB5BD"/>
<path d="M766.209 45.0398L781.639 47.3107V51.6667H760.393V48.9543C760.393 46.5498 763.136 44.7029 766.209 45.0398Z" fill="#ADB5BD"/>
<rect x="748" y="20" width="24" height="16" rx="3" fill="#DE0917"/>
<path d="M758.5 28.5C758.5 29.3284 759.172 30 760 30C760.828 30 761.5 29.3284 761.5 28.5C761.5 27.6716 760.828 27 760 27C759.172 27 758.5 27.6716 758.5 28.5Z" fill="white"/>
<path d="M764 28.5C764 29.3284 764.672 30 765.5 30C766.328 30 767 29.3284 767 28.5C767 27.6716 766.328 27 765.5 27C764.672 27 764 27.6716 764 28.5Z" fill="white"/>
<path d="M753 28.5C753 29.3284 753.672 30 754.5 30C755.328 30 756 29.3284 756 28.5C756 27.6716 755.328 27 754.5 27C753.672 27 753 27.6716 753 28.5Z" fill="white"/>
<path d="M760 41L756.536 35L763.464 35L760 41Z" fill="#DE0917"/>
<path d="M860 40C860 17.9086 877.909 0 900 0C922.091 0 940 17.9086 940 40C940 62.0914 922.091 80 900 80C877.909 80 860 62.0914 860 40Z" fill="#E9ECEF"/>
<path d="M900.074 16C894.898 20.8094 887.484 24.2393 879 25.4293V38.8777C879 49.8525 884.616 60.832 900 64C915.384 60.832 921 49.8525 921 38.8777V25.4083C912.578 24.1995 905.218 20.7813 900.074 16Z" fill="#ADB5BD"/>
<path d="M892 49.9432V48.4236C892 44.5061 895.177 41.3291 899.094 41.3291H901.55C905.468 41.3291 908.645 44.5061 908.645 48.4236V49.9432H892Z" fill="white"/>
<path d="M905.56 36.8764C906.029 33.9858 904.066 31.2621 901.175 30.7929C898.285 30.3236 895.561 32.2866 895.092 35.1772C894.623 38.0678 896.585 40.7915 899.476 41.2607C902.367 41.7299 905.09 39.767 905.56 36.8764Z" fill="white"/>
<path d="M923 53C923 57.9716 918.97 62 914 62C909.03 62 905 57.9716 905 53C905 48.0284 909.03 44 914 44C918.97 44 923 48.0284 923 53Z" fill="#DE0917"/>
<path d="M913.028 57C912.636 56.9882 912.268 56.8198 912.009 56.5509L909.378 53.8472C908.973 53.4305 908.87 52.813 909.184 52.3343C909.708 51.5365 910.853 51.4833 911.468 52.1156L912.996 53.6847L916.448 49.536C916.817 49.0928 917.461 48.8801 918.037 49.0692C918.995 49.3853 919.273 50.3988 918.713 51.0726L914.222 56.4711C913.966 56.7784 913.581 56.9764 913.161 56.9941C913.119 56.9941 913.076 56.9941 913.034 56.9941L913.028 57Z" fill="white"/>
<path d="M20 160C20 137.909 37.9086 120 60 120C82.0914 120 100 137.909 100 160C100 182.091 82.0914 200 60 200C37.9086 200 20 182.091 20 160Z" fill="#E9ECEF"/>
<path d="M66.2892 141.369C63.861 142.344 56.9928 149.826 56.9928 149.826C56.9928 149.826 67.6767 150.362 70.1049 149.412C72.5331 148.461 73.6431 145.854 72.6024 143.636C71.5387 141.418 68.7174 140.394 66.2892 141.369Z" fill="#495057"/>
<path d="M49.6957 141.369C52.1238 142.344 58.9921 149.826 58.9921 149.826C58.9921 149.826 48.3081 150.362 45.88 149.412C43.4518 148.461 42.3418 145.854 43.3824 143.636C44.4231 141.418 47.2675 140.394 49.6957 141.369Z" fill="#495057"/>
<path d="M59.7792 143.992H56.2066C54.984 143.992 53.9929 145.117 53.9929 146.505V153.448C53.9929 154.836 54.984 155.961 56.2066 155.961H59.7792C61.0018 155.961 61.9929 154.836 61.9929 153.448V146.505C61.9929 145.117 61.0018 143.992 59.7792 143.992Z" fill="#495057"/>
<path d="M72.3081 154.019H43.6934C41.7253 154.019 40.1298 155.66 40.1298 157.684V175.031C40.1298 177.055 41.7253 178.696 43.6934 178.696H72.3081C74.2762 178.696 75.8717 177.055 75.8717 175.031V157.684C75.8717 155.66 74.2762 154.019 72.3081 154.019Z" fill="#CED4DA"/>
<path d="M75.1653 149.073H40.8347C39.8214 149.073 39 150.096 39 151.358V156.763C39 158.025 39.8214 159.048 40.8347 159.048H75.1653C76.1786 159.048 77 158.025 77 156.763V151.358C77 150.096 76.1786 149.073 75.1653 149.073Z" fill="#868E96"/>
<path d="M61 148.661H55.0019V179H61V148.661Z" fill="#495057"/>
<path d="M69.4906 166.077C70.2868 165.941 71.1033 165.986 71.8799 166.208C72.6565 166.43 73.3734 166.823 73.9778 167.359L74.0111 167.388L74.0417 167.361C74.6185 166.855 75.2966 166.478 76.0309 166.254C76.7651 166.031 77.5385 165.967 78.2995 166.066L78.5208 166.098C79.48 166.264 80.3766 166.686 81.1156 167.319C81.8546 167.953 82.4086 168.775 82.7187 169.697C83.0289 170.62 83.0837 171.61 82.8774 172.561C82.6712 173.512 82.2115 174.39 81.547 175.101L81.3851 175.268L81.3419 175.305L74.6399 181.943C74.4853 182.096 74.2804 182.188 74.0632 182.201C73.846 182.215 73.6313 182.149 73.4587 182.017L73.3742 181.943L66.6335 175.266C65.9194 174.571 65.4116 173.692 65.1662 172.727C64.9209 171.761 64.9476 170.746 65.2434 169.795C65.5392 168.844 66.0925 167.993 66.8422 167.336C67.5918 166.68 68.5085 166.244 69.4906 166.077Z" fill="#DE0917"/>
<path d="M160 160C160 137.909 177.909 120 200 120C222.091 120 240 137.909 240 160C240 182.091 222.091 200 200 200C177.909 200 160 182.091 160 160Z" fill="#E9ECEF"/>
<path d="M198.944 137.482C199.464 137.173 200.098 137.173 200.601 137.482L218.346 148.272C218.769 148.532 219.029 149.003 219.029 149.49L199.772 162.438L180.5 149.653V149.49C180.5 149.003 180.76 148.532 181.183 148.288L198.944 137.482Z" fill="#CED4DA"/>
<path d="M199.766 159.913L218.226 148.7C218.307 148.652 218.399 148.626 218.494 148.625C218.588 148.624 218.681 148.648 218.763 148.695C218.844 148.741 218.913 148.809 218.96 148.89C219.007 148.972 219.032 149.064 219.032 149.158V169.211C219.032 169.694 218.908 170.169 218.672 170.59C218.436 171.011 218.095 171.364 217.683 171.616L200.521 182.045C200.477 182.07 200.354 182.106 200.252 182.162C199.333 182.667 199.595 182.512 199.549 182.51C199.365 182.562 199.74 182.247 199.549 182.224C199.359 182.2 199.175 182.14 199.009 182.045H199.018L195.125 164.387L199.766 159.913Z" fill="#ADB5BD"/>
<path d="M199.772 182.137V160.411L181.329 149.199C180.955 148.971 180.5 149.231 180.5 149.654V169.706C180.5 170.697 181.02 171.607 181.849 172.111L199.025 182.544C199.35 182.755 199.772 182.511 199.772 182.137Z" fill="#868E96"/>
<path d="M197.562 177.52V174.335C197.562 173.962 197.367 173.62 197.059 173.425L192.509 170.679C192.2 170.5 191.81 170.712 191.81 171.069V174.254C191.81 174.628 192.005 174.969 192.314 175.164L196.864 177.91C197.172 178.089 197.562 177.878 197.562 177.52Z" fill="white"/>
<path d="M193.11 160.897V156.364V153.488L187.78 153.13V158.265C187.78 158.427 187.861 158.59 188.007 158.687L192.362 161.336C192.687 161.515 193.11 161.287 193.11 160.897Z" fill="#495057"/>
<path d="M207.052 141.417L187.78 153.133L193.11 156.383L212.382 144.683L207.052 141.417Z" fill="#868E96"/>
<path d="M223 173C223 177.972 218.97 182 214 182C209.03 182 205 177.972 205 173C205 168.028 209.03 164 214 164C218.97 164 223 168.028 223 173Z" fill="#DE0917"/>
<path d="M213.028 177C212.636 176.988 212.268 176.82 212.009 176.551L209.378 173.847C208.973 173.431 208.87 172.813 209.184 172.334C209.708 171.536 210.853 171.483 211.468 172.116L212.996 173.685L216.448 169.536C216.817 169.093 217.461 168.88 218.037 169.069C218.995 169.385 219.273 170.399 218.713 171.073L214.222 176.471C213.966 176.778 213.581 176.976 213.161 176.994C213.119 176.994 213.076 176.994 213.034 176.994L213.028 177Z" fill="white"/>
<path d="M300 160C300 137.909 317.909 120 340 120C362.091 120 380 137.909 380 160C380 182.091 362.091 200 340 200C317.909 200 300 182.091 300 160Z" fill="#E9ECEF"/>
<path d="M353.594 177.981H323.406C320.969 177.981 319 175.965 319 173.459V152.881C319 150.865 320.031 149.018 321.738 148L335.537 139.766C337.244 138.748 339.344 138.748 341.05 139.747L355.225 148.038C356.95 149.037 358 150.921 358 152.937V173.477C358 175.965 356.031 178 353.594 178V177.981Z" fill="#495057"/>
<path d="M352.262 148.582H324.756C324.425 148.582 324.156 148.852 324.156 149.185V175.755C324.156 176.088 324.425 176.358 324.756 176.358H352.262C352.594 176.358 352.862 176.088 352.862 175.755V149.185C352.862 148.852 352.594 148.582 352.262 148.582Z" fill="#FFFCF8"/>
<path d="M342.569 152.423H329.312C328.867 152.423 328.506 152.786 328.506 153.233V153.252C328.506 153.699 328.867 154.062 329.312 154.062H342.569C343.014 154.062 343.375 153.699 343.375 153.252V153.233C343.375 152.786 343.014 152.423 342.569 152.423Z" fill="#080E10"/>
<path d="M336.287 156.184H329.312C328.867 156.184 328.506 156.546 328.506 156.994V157.013C328.506 157.46 328.867 157.823 329.312 157.823H336.287C336.733 157.823 337.094 157.46 337.094 157.013V156.994C337.094 156.546 336.733 156.184 336.287 156.184Z" fill="#080E10"/>
<path d="M358 154.707V173.57C358 176.02 356.031 177.998 353.594 177.998H322.75L358 154.707Z" fill="#ADB5BD"/>
<path d="M319 154.707V173.57C319 176.02 320.969 177.998 323.406 177.998H354.25L319 154.707Z" fill="#ADB5BD"/>
<path d="M354.944 177.971H322.056C320.369 177.971 319 176.595 319 174.899C319 173.863 319.506 172.902 320.331 172.336L336.569 161.218C337.6 160.521 338.95 160.502 339.981 161.218L356.631 172.355C357.475 172.921 358 173.882 358 174.918C358 176.614 356.631 177.99 354.944 177.99V177.971Z" fill="#CED4DA"/>
<path d="M347.318 166.287L352.803 167.745L348.788 171.728L347.318 166.287Z" fill="#DE0917"/>
<ellipse cx="354.901" cy="173.953" rx="8.03439" ry="8.09862" transform="rotate(90 354.901 173.953)" fill="#DE0917"/>
<rect width="8.82995" height="1.92401" transform="translate(350.493 172.653)" fill="#DE0917"/>
<circle cx="351.493" cy="173.653" r="1" fill="white"/>
<circle cx="355.046" cy="173.653" r="1" fill="white"/>
<circle cx="358.599" cy="173.653" r="1" fill="white"/>
<path d="M440 160C440 137.909 457.909 120 480 120C502.091 120 520 137.909 520 160C520 182.091 502.091 200 480 200C457.909 200 440 182.091 440 160Z" fill="#E9ECEF"/>
<path d="M501 142H456V172.79H501V142Z" fill="#ADB5BD"/>
<path d="M476.545 148C476.545 152.937 476.545 155.873 476.545 160.81L462.63 160.772V148H476.545Z" fill="#495057"/>
<path d="M462.749 148V160.772L476.526 160.81C476.526 161.095 476.526 160.715 476.526 161C471.73 161.144 464.561 161 464.061 161C464.26 161.133 464.98 164 464 164H476.549L476.526 166H462.411C462.292 165.905 462.133 165.905 461.974 165.829C461.398 165.563 461.139 165.07 461 164.481V149.481C461.08 149.348 461.08 149.196 461.139 149.044C461.378 148.475 461.855 148.152 462.451 148H462.749Z" fill="#495057"/>
<path d="M462.5 162.5C462.5 161.672 463.172 161 464 161H475.5V164H464C463.172 164 462.5 163.328 462.5 162.5Z" fill="white"/>
<path d="M496.027 152H483V155.599H496.027V152Z" fill="white"/>
<path d="M490.137 158.785H483V162.384H490.137V158.785Z" fill="white"/>
<path d="M504 173C504 177.972 499.97 182 495 182C490.03 182 486 177.972 486 173C486 168.028 490.03 164 495 164C499.97 164 504 168.028 504 173Z" fill="#DE0917"/>
<path d="M494.028 177C493.636 176.988 493.268 176.82 493.009 176.551L490.378 173.847C489.973 173.431 489.87 172.813 490.184 172.334C490.708 171.536 491.853 171.483 492.468 172.116L493.996 173.685L497.448 169.536C497.817 169.093 498.461 168.88 499.037 169.069C499.995 169.385 500.273 170.399 499.713 171.073L495.222 176.471C494.966 176.778 494.581 176.976 494.161 176.994C494.119 176.994 494.076 176.994 494.034 176.994L494.028 177Z" fill="white"/>
<path d="M580 160C580 137.909 597.909 120 620 120C642.091 120 660 137.909 660 160C660 182.091 642.091 200 620 200C597.909 200 580 182.091 580 160Z" fill="#E9ECEF"/>
<path d="M602.708 175.035C602.708 173.917 603.615 173.01 604.733 173.01H635.958V181.618H604.733C603.615 181.618 602.708 180.712 602.708 179.593V175.035Z" fill="white"/>
<path d="M639 138C639 150.068 639 162.135 639 174.203L604.984 174.11V138H639Z" fill="#ADB5BD"/>
<path d="M634.084 159.619H621.708V163.061H634.084V159.619Z" fill="#495057"/>
<path d="M628.488 166.112H621.708V169.554H628.488V166.112Z" fill="#495057"/>
<path d="M605.276 138V174.11L638.951 174.203C638.951 174.899 638.951 175.641 638.951 176.338H604.936C604.887 176.338 604.402 176.523 604.304 176.57C603.235 177.173 603.138 178.751 604.207 179.447C604.693 179.772 604.839 179.772 604.887 179.772H638.951V182H604.45C604.159 181.768 603.77 181.768 603.381 181.582C601.972 180.932 601.34 179.726 601 178.287V141.62C601.194 141.295 601.194 140.924 601.34 140.553C601.923 139.16 603.09 138.371 604.547 138H605.276Z" fill="#ADB5BD"/>
<path d="M609 136H621V156L615 150.5L609 156V136Z" fill="#DE0917"/>
<path d="M720 160C720 137.909 737.909 120 760 120C782.091 120 800 137.909 800 160C800 182.091 782.091 200 760 200C737.909 200 720 182.091 720 160Z" fill="#E9ECEF"/>
<path d="M744 164.588V163.451C744 160.519 746.378 158.142 749.309 158.142H751.147C754.079 158.142 756.456 160.519 756.456 163.451V164.588H744Z" fill="#495057"/>
<path d="M754.148 154.809C754.499 152.646 753.03 150.607 750.867 150.256C748.704 149.905 746.666 151.374 746.315 153.537C745.963 155.7 747.432 157.739 749.596 158.09C751.759 158.441 753.797 156.972 754.148 154.809Z" fill="#495057"/>
<path d="M774.027 152.323H761V155.922H774.027V152.323Z" fill="white"/>
<path d="M768.137 159.107H761V162.706H768.137V159.107Z" fill="white"/>
<rect x="738" y="144" width="38" height="34" rx="7" fill="#ADB5BD"/>
<path d="M738 151C738 147.134 741.134 144 745 144H769C772.866 144 776 147.134 776 151V155H738V151Z" fill="#495057"/>
<path d="M748 161H744V165H748V161Z" fill="white"/>
<path d="M755 161H751V165H755V161Z" fill="white"/>
<path d="M748 168H744V172H748V168Z" fill="white"/>
<path d="M784 173C784 177.972 779.97 182 775 182C770.03 182 766 177.972 766 173C766 168.028 770.03 164 775 164C779.97 164 784 168.028 784 173Z" fill="#DE0917"/>
<path d="M774.028 177C773.636 176.988 773.268 176.82 773.009 176.551L770.378 173.847C769.973 173.431 769.87 172.813 770.184 172.334C770.708 171.536 771.853 171.483 772.468 172.116L773.996 173.685L777.448 169.536C777.817 169.093 778.461 168.88 779.037 169.069C779.995 169.385 780.273 170.399 779.713 171.073L775.222 176.471C774.966 176.778 774.581 176.976 774.161 176.994C774.119 176.994 774.076 176.994 774.034 176.994L774.028 177Z" fill="white"/>
<rect x="746" y="140" width="4" height="8" rx="2" fill="#ADB5BD"/>
<rect x="755" y="140" width="4" height="8" rx="2" fill="#ADB5BD"/>
<rect x="764" y="140" width="4" height="8" rx="2" fill="#ADB5BD"/>
<path d="M860 160C860 137.909 877.909 120 900 120C922.091 120 940 137.909 940 160C940 182.091 922.091 200 900 200C877.909 200 860 182.091 860 160Z" fill="#E9ECEF"/>
<path d="M888.782 179.236L886.255 147.236C886.118 145.492 887.496 144 889.246 144H910.754C912.504 144 913.882 145.492 913.745 147.236L911.218 179.236C911.095 180.797 909.793 182 908.228 182H891.772C890.207 182 888.905 180.797 888.782 179.236Z" fill="#868E96"/>
<path d="M911 139C912.105 139 913 139.895 913 141H914C915.105 141 916 141.895 916 143V147C916 148.105 915.105 149 914 149H886C884.895 149 884 148.105 884 147V143C884 141.895 884.895 141 886 141H887C887 139.895 887.895 139 889 139H911Z" fill="#495057"/>
<path d="M886.75 153.5H913.253L911.75 172.5H888.245L886.75 153.5Z" fill="#DEE2E6"/>
<path d="M896.58 159.576C894.234 161.918 893.831 165.345 895.588 167.411C895.949 165.885 897.068 163.597 900.502 162.225C900.63 162.177 903.145 161.171 903.931 158.215C901.84 156.906 898.751 157.415 896.585 159.576H896.58Z" fill="#495057"/>
<path d="M896.644 168.317C898.735 169.588 901.792 169.064 903.941 166.918C906.293 164.572 906.696 161.144 904.934 159.078C903.841 162.214 901.081 163.295 900.943 163.348C897.36 164.778 896.739 167.242 896.649 168.317H896.644Z" fill="#495057"/>
<path d="M924 173C924 177.972 919.97 182 915 182C910.03 182 906 177.972 906 173C906 168.028 910.03 164 915 164C919.97 164 924 168.028 924 173Z" fill="#DE0917"/>
<path d="M912.893 176.818C912.249 176.818 911.87 176.095 912.236 175.565L916.404 169.535C916.553 169.32 916.798 169.191 917.059 169.191C917.7 169.191 918.078 169.911 917.714 170.439L913.55 176.473C913.401 176.689 913.155 176.818 912.893 176.818ZM911 170.742C911 170.474 911.049 170.231 911.148 170.014C911.253 169.797 911.388 169.616 911.555 169.469C911.728 169.316 911.925 169.201 912.147 169.124C912.369 169.041 912.597 169 912.831 169C913.072 169 913.3 169.041 913.516 169.124C913.738 169.201 913.932 169.316 914.098 169.469C914.271 169.616 914.407 169.797 914.505 170.014C914.604 170.225 914.653 170.467 914.653 170.742C914.653 171.01 914.604 171.252 914.505 171.469C914.407 171.679 914.271 171.861 914.098 172.014C913.932 172.161 913.738 172.276 913.516 172.359C913.3 172.435 913.072 172.474 912.831 172.474C912.597 172.474 912.369 172.435 912.147 172.359C911.925 172.276 911.728 172.161 911.555 172.014C911.388 171.861 911.253 171.679 911.148 171.469C911.049 171.252 911 171.01 911 170.742ZM912.831 171.191C912.967 171.191 913.072 171.15 913.146 171.067C913.226 170.978 913.266 170.869 913.266 170.742C913.266 170.608 913.226 170.499 913.146 170.416C913.072 170.333 912.967 170.292 912.831 170.292C912.689 170.292 912.578 170.337 912.498 170.426C912.424 170.509 912.387 170.614 912.387 170.742C912.387 170.869 912.424 170.978 912.498 171.067C912.578 171.15 912.689 171.191 912.831 171.191ZM915.347 175.268C915.347 175 915.396 174.758 915.495 174.541C915.6 174.324 915.735 174.142 915.902 173.995C916.074 173.842 916.272 173.727 916.494 173.651C916.716 173.568 916.944 173.526 917.178 173.526C917.418 173.526 917.647 173.568 917.862 173.651C918.084 173.727 918.279 173.842 918.445 173.995C918.618 174.142 918.753 174.324 918.852 174.541C918.951 174.751 919 174.994 919 175.268C919 175.536 918.951 175.775 918.852 175.986C918.753 176.203 918.618 176.384 918.445 176.531C918.279 176.684 918.084 176.799 917.862 176.876C917.647 176.959 917.418 177 917.178 177C916.944 177 916.716 176.959 916.494 176.876C916.272 176.799 916.074 176.684 915.902 176.531C915.735 176.384 915.6 176.203 915.495 175.986C915.396 175.775 915.347 175.536 915.347 175.268ZM917.178 175.718C917.314 175.718 917.418 175.676 917.492 175.593C917.573 175.504 917.613 175.396 917.613 175.268C917.613 175.134 917.573 175.026 917.492 174.943C917.418 174.86 917.314 174.818 917.178 174.818C917.036 174.818 916.925 174.863 916.845 174.952C916.771 175.035 916.734 175.14 916.734 175.268C916.734 175.396 916.771 175.504 916.845 175.593C916.925 175.676 917.036 175.718 917.178 175.718Z" fill="white"/>
</svg>
