<svg width="564" height="252" viewBox="0 0 564 252" fill="none" xmlns="http://www.w3.org/2000/svg">
<rect y="36" width="180" height="180" rx="90" fill="#E9EAEB"/>
<path d="M54.2344 103.047V103.914C54.2402 104.881 54.2402 105.941 53.9531 107.371L53.0391 107.289C53.168 106.68 53.2383 106.135 53.2734 105.643L46.9336 105.941L46.8047 105.156L53.3145 104.945C53.3262 104.582 53.332 104.242 53.332 103.914V103.797H47.0625V103.047H54.2344ZM45.9375 108.824V108.074H49.8047V106.539H50.7305V108.074H55.418V108.824H45.9375ZM47.1445 112.785V109.715H48.0703V112.035H54.4805V112.785H47.1445ZM65.1445 102.543V110.348H64.2656V102.543H65.1445ZM56.7891 108.613V103.398H60.7617V104.16H57.668V105.602H60.3281V106.328H57.668V107.852C59.1797 107.84 60.1113 107.805 61.2305 107.57L61.3242 108.32C60.1172 108.561 59.1328 108.613 57.4453 108.613H56.7891ZM58.3477 112.727V109.48H59.2852V111.953H65.4609V112.727H58.3477ZM60.8203 106.246V105.508H62.2266V102.754H63.1172V110.078H62.2266V106.246H60.8203ZM76.207 110.84V111.613H66.668V110.84H76.207ZM67.2539 108.344C69.2227 107.986 70.9512 106.697 70.957 104.969H67.5586V104.219H70.9688V102.789H71.8711V104.219H75.293V104.969H71.8945C71.8887 106.697 73.6113 107.986 75.5977 108.344L75.2227 109.094C73.5762 108.754 72.0762 107.857 71.4199 106.498C70.7695 107.857 69.2637 108.754 67.6172 109.094L67.2539 108.344ZM89.543 107.406V108.168H85.2422V109.281C87.2051 109.369 88.3711 110.008 88.3828 111.109C88.3711 112.275 87.0293 112.926 84.7969 112.926C82.5352 112.926 81.1934 112.275 81.1992 111.109C81.1934 110.008 82.3535 109.369 84.3398 109.281V108.168H80.0508V107.406H89.543ZM80.5898 106.047C82.3945 105.859 84.1348 104.939 84.1992 103.773H80.918V103.023H88.6992V103.773H85.3945C85.459 104.939 87.1816 105.859 89.0156 106.047L88.6758 106.773C86.9707 106.568 85.3711 105.801 84.7969 104.646C84.2227 105.801 82.6348 106.568 80.918 106.773L80.5898 106.047ZM82.1367 111.109C82.125 111.801 83.127 112.217 84.7969 112.211C86.4492 112.217 87.4512 111.801 87.457 111.109C87.4512 110.4 86.4492 109.996 84.7969 109.984C83.127 109.996 82.125 110.4 82.1367 111.109ZM99.0234 102.543V108.461H98.1094V102.543H99.0234ZM90.5039 107.465C92.0801 106.914 93.1758 105.502 93.1758 103.973V102.953H94.1133V103.973C94.1016 105.443 95.2266 106.744 96.7617 107.289L96.293 107.992C95.0859 107.576 94.1191 106.697 93.6504 105.561C93.1875 106.768 92.2148 107.729 90.9727 108.191L90.5039 107.465ZM92.25 112.809V109.059H99.0234V112.809H92.25ZM93.1523 112.059H98.1211V109.809H93.1523V112.059ZM112.441 102.531V107.922H111.516V105.215H109.195V104.453H111.516V102.531H112.441ZM103.793 107.207C105.363 106.686 106.441 105.379 106.453 103.855V102.871H107.355V103.855C107.344 105.221 108.422 106.475 109.945 106.973L109.453 107.688C108.299 107.277 107.379 106.457 106.916 105.402C106.471 106.592 105.527 107.5 104.297 107.945L103.793 107.207ZM105.691 109.188V108.449H112.441V110.934H106.617V112.07H112.828V112.809H105.715V110.23H111.527V109.188H105.691ZM123.094 102.531V112.949H122.215V102.531H123.094ZM114.164 110.031C116.432 108.689 117.568 106.809 117.75 104.629H114.633V103.867H118.664C118.664 104.4 118.617 104.928 118.523 105.438H120.105V102.812H120.984V112.422H120.105V108.812H118.172V108.051H120.105V106.199H118.342C117.838 107.963 116.695 109.521 114.727 110.699L114.164 110.031ZM134.086 110.887V111.66H124.547V110.887H128.836V108.918H125.742V105.707H131.977V104.066H125.719V103.305H132.879V106.457H126.656V108.156H133.125V108.918H129.738V110.887H134.086ZM50.2441 125.688V126.426H40.7402V125.688H45.041V124.469H41.9473V121.023H49.0605V121.762H42.8496V123.719H49.1309V124.469H45.9316V125.688H50.2441ZM41.8887 129.062C41.8828 127.873 43.2363 127.193 45.4863 127.188C47.7188 127.193 49.0605 127.873 49.0723 129.062C49.0605 130.264 47.7188 130.938 45.4863 130.949C43.2363 130.938 41.8828 130.264 41.8887 129.062ZM42.8262 129.062C42.8145 129.795 43.8164 130.217 45.4863 130.211C47.1387 130.217 48.1406 129.795 48.1465 129.062C48.1406 128.342 47.1387 127.914 45.4863 127.914C43.8164 127.914 42.8145 128.342 42.8262 129.062ZM54.7324 122.453C54.7324 123.807 55.7754 125.102 57.2988 125.629L56.8184 126.355C55.6465 125.934 54.7383 125.061 54.293 123.988C53.8418 125.184 52.875 126.145 51.6387 126.602L51.1582 125.875C52.6934 125.324 53.8066 123.936 53.8066 122.465V122.008H51.4512V121.258H57.0645V122.008H54.7324V122.453ZM52.7402 128.09V127.328H59.748V130.949H58.8223V128.09H52.7402ZM56.7363 124.035V123.262H58.8223V120.531H59.748V126.777H58.8223V124.035H56.7363ZM70.0723 120.531V130.973H69.1465V120.531H70.0723ZM61.8691 124.973C61.875 122.758 62.9766 121.346 64.5293 121.34C66.0762 121.346 67.1953 122.758 67.1895 124.973C67.1953 127.193 66.0762 128.6 64.5293 128.594C62.9766 128.6 61.875 127.193 61.8691 124.973ZM62.7598 124.973C62.7598 126.666 63.4863 127.779 64.5293 127.773C65.5781 127.779 66.2988 126.666 66.2988 124.973C66.2988 123.279 65.5781 122.166 64.5293 122.16C63.4863 122.166 62.7598 123.279 62.7598 124.973ZM80.209 121.586V122.629C80.1973 123.906 80.1973 125.336 79.8223 127.434L78.8848 127.328C79.2773 125.336 79.2773 123.877 79.2832 122.629V122.348H72.8613V121.586H80.209ZM71.8535 129.473V128.711H75.5801V124.984H76.4824V128.711H81.3457V129.473H71.8535ZM94.7285 125.09V125.852H85.2363V125.09H89.5137V124.059H86.4668V120.883H93.498V124.059H90.416V125.09H94.7285ZM86.3848 127.434V126.719H93.5098V129.051H87.3223V130.105H93.8262V130.832H86.4082V128.359H92.6074V127.434H86.3848ZM87.3809 123.32H92.584V121.621H87.3809V123.32ZM104.209 120.531V126.121H103.295V120.531H104.209ZM95.8535 123.438C95.8477 122.014 97.002 121.035 98.584 121.047C100.166 121.035 101.309 122.014 101.314 123.438C101.309 124.855 100.166 125.834 98.584 125.828C97.002 125.834 95.8477 124.855 95.8535 123.438ZM96.7559 123.438C96.7441 124.387 97.5117 125.061 98.584 125.066C99.6445 125.061 100.412 124.387 100.412 123.438C100.412 122.482 99.6445 121.814 98.584 121.82C97.5117 121.814 96.7441 122.482 96.7559 123.438ZM97.459 130.809V126.648H98.373V127.914H103.295V126.648H104.209V130.809H97.459ZM98.373 130.059H103.295V128.652H98.373V130.059ZM114.123 120.531V123.086H115.693V123.848H114.123V126.449H113.209V120.531H114.123ZM105.967 125.816C108.527 125.125 110.092 123.736 110.285 121.973H106.436V121.211H111.275C111.264 123.836 109.43 125.717 106.342 126.555L105.967 125.816ZM107.525 130.809V126.93H114.123V130.809H107.525ZM108.439 130.059H113.209V127.691H108.439V130.059ZM122.889 127.527C122.883 128.447 123.381 129.426 124.371 129.988C125.367 129.373 125.895 128.33 125.889 127.527V126.953H126.791V127.527C126.785 128.6 127.576 129.666 128.912 130.129L128.455 130.809C127.412 130.439 126.686 129.713 126.322 128.84C126 129.684 125.361 130.486 124.4 130.891C123.387 130.504 122.742 129.742 122.432 128.869C122.057 129.707 121.342 130.434 120.346 130.809L119.877 130.129C121.195 129.637 121.986 128.523 121.998 127.527V126.953H122.889V127.527ZM119.607 123.59C119.602 122.137 120.756 121.146 122.338 121.152C123.92 121.146 125.062 122.137 125.068 123.59C125.062 125.02 123.92 126.004 122.338 126.004C120.756 126.004 119.602 125.02 119.607 123.59ZM120.51 123.59C120.498 124.557 121.266 125.236 122.338 125.242C123.398 125.236 124.166 124.557 124.166 123.59C124.166 122.617 123.398 121.926 122.338 121.938C121.266 121.926 120.498 122.617 120.51 123.59ZM127.049 126.496V120.543H127.963V126.496H127.049ZM138.158 123.695V124.434H131.021V120.918H131.936V123.695H138.158ZM129.721 126.602V125.852H139.26V126.602H129.721ZM130.963 130.691V127.668H131.877V129.93H138.217V130.691H130.963ZM54.6035 141.332C54.6035 143.166 55.8164 145.059 57.2988 145.785L56.7363 146.523C55.5879 145.926 54.627 144.689 54.1641 143.242C53.7012 144.777 52.7168 146.096 51.5449 146.723L50.959 145.984C52.4824 145.234 53.6895 143.236 53.7012 141.332V139.434H54.6035V141.332ZM58.2598 148.949V138.531H59.1738V142.762H60.9199V143.559H59.1738V148.949H58.2598ZM70.9746 143.688V144.449H61.4824V143.688H63.8379V142.217C63.0059 141.895 62.5371 141.367 62.5371 140.664C62.5371 139.439 63.9434 138.736 66.2285 138.73C68.4961 138.736 69.9023 139.439 69.9082 140.664C69.9023 141.361 69.4395 141.889 68.6191 142.217V143.688H70.9746ZM62.6309 147.086C62.625 145.896 63.9668 145.24 66.2285 145.246C68.4609 145.24 69.8027 145.896 69.8145 147.086C69.8027 148.275 68.4609 148.926 66.2285 148.926C63.9668 148.926 62.625 148.275 62.6309 147.086ZM63.4863 140.664C63.4805 141.426 64.5234 141.865 66.2285 141.871C67.916 141.865 68.9648 141.426 68.9707 140.664C68.9648 139.914 67.916 139.457 66.2285 139.457C64.5234 139.457 63.4805 139.914 63.4863 140.664ZM63.5684 147.086C63.5566 147.795 64.5586 148.217 66.2285 148.211C67.8809 148.217 68.8828 147.795 68.8887 147.086C68.8828 146.377 67.8809 145.961 66.2285 145.949C64.5586 145.961 63.5566 146.377 63.5684 147.086ZM64.752 143.688H67.7051V142.463C67.2656 142.545 66.7734 142.586 66.2285 142.586C65.6836 142.586 65.1914 142.545 64.752 142.469V143.688ZM75.3809 141.73C75.3691 143.4 76.5762 145.24 78.0879 145.961L77.5605 146.688C76.3887 146.113 75.3984 144.883 74.9297 143.471C74.4492 145 73.4062 146.348 72.2402 146.945L71.6777 146.219C73.1777 145.486 74.4668 143.506 74.4785 141.73V140.371H72.0527V139.609H77.7246V140.371H75.3809V141.73ZM79.002 148.949V138.531H79.916V142.75H81.6621V143.535H79.916V148.949H79.002ZM93.873 138.543V144.801H92.9473V143.395H90.1816V142.633H92.9473V141.227H90.2871C89.6016 142.902 87.9961 144.115 85.7637 144.777L85.377 144.051C87.8906 143.307 89.4668 141.895 89.6484 140.09H85.9043V139.316H90.6504C90.6504 139.727 90.6035 140.119 90.5156 140.488H92.9473V138.543H93.873ZM86.9824 146.898C86.9766 145.656 88.3301 144.906 90.4629 144.906C92.5723 144.906 93.9316 145.656 93.9316 146.898C93.9316 148.146 92.5723 148.902 90.4629 148.902C88.3301 148.902 86.9766 148.146 86.9824 146.898ZM87.8848 146.898C87.8906 147.684 88.8926 148.158 90.4629 148.152C92.0098 148.158 93.0117 147.684 93.0176 146.898C93.0117 146.113 92.0098 145.639 90.4629 145.645C88.8926 145.639 87.8906 146.113 87.8848 146.898ZM104.244 138.531V144.848H103.318V142.469H101.549V141.707H103.318V138.531H104.244ZM95.6191 140.383V139.633H98.209V138.438H99.1113V139.633H101.701V140.383H95.6191ZM96.2402 142.773C96.2402 141.684 97.2422 140.922 98.6543 140.922C100.072 140.922 101.068 141.684 101.08 142.773C101.068 143.898 100.072 144.637 98.6543 144.637C97.2422 144.637 96.2402 143.898 96.2402 142.773ZM97.1191 142.773C97.1191 143.465 97.7461 143.922 98.6543 143.934C99.5625 143.922 100.189 143.465 100.189 142.773C100.189 142.105 99.5625 141.637 98.6543 141.637C97.7461 141.637 97.1191 142.105 97.1191 142.773ZM97.4355 148.809V145.41H104.244V148.809H97.4355ZM98.3496 148.059H103.342V146.148H98.3496V148.059ZM117.896 138.531V148.949H117.018V138.531H117.896ZM108.861 146.172C110.314 145.305 111.164 143.4 111.158 141.508V140.523H109.154V139.762H113.959V140.523H112.049V141.508C112.049 143.307 112.863 145.105 114.299 145.938L113.736 146.617C112.711 146.002 111.984 144.877 111.621 143.553C111.246 144.988 110.49 146.213 109.447 146.863L108.861 146.172ZM113.162 143.043V142.293H114.92V138.789H115.787V148.41H114.92V143.043H113.162ZM124.072 145.117C126.305 145.117 127.723 145.82 127.729 147.027C127.723 148.223 126.305 148.926 124.072 148.926C121.84 148.926 120.422 148.223 120.428 147.027C120.422 145.82 121.84 145.117 124.072 145.117ZM119.373 144.145V143.395H123.299V141.379H124.201V143.395H128.854V144.145H119.373ZM120.498 139.82V139.07H127.646V139.949C127.641 140.793 127.641 141.637 127.354 142.715L126.451 142.609C126.732 141.537 126.732 140.764 126.732 139.949V139.82H120.498ZM121.342 147.027C121.336 147.754 122.414 148.199 124.072 148.199C125.736 148.199 126.803 147.754 126.814 147.027C126.803 146.283 125.736 145.826 124.072 145.82C122.414 145.826 121.336 146.283 121.342 147.027Z" fill="#535862"/>
<rect x="164" y="36" width="180" height="180" rx="90" fill="#E9EAEB"/>
<path d="M215.785 119.793V120.566H206.246V119.793H215.785ZM207.371 117.707V112.281H208.297V114.227H213.711V112.281H214.613V117.707H207.371ZM208.297 116.969H213.711V114.965H208.297V116.969ZM225.465 111.543V119.301H224.586V115.434H223.121V118.996H222.266V111.742H223.121V114.66H224.586V111.543H225.465ZM217.074 113.184V112.434H221.023V115.41H217.988V116.992C219.359 116.98 220.414 116.922 221.645 116.676L221.75 117.414C220.396 117.678 219.289 117.736 217.777 117.73H217.098V114.684H220.145V113.184H217.074ZM218.633 121.727V118.586H219.547V120.953H225.781V121.727H218.633ZM235.402 116.547V117.309H228.207V112.504H235.297V113.266H229.121V116.547H235.402ZM226.988 120.531V119.758H236.527V120.531H226.988ZM243.16 112.34C244.695 112.346 245.785 113.758 245.797 115.973C245.785 118.193 244.695 119.6 243.16 119.594C241.613 119.6 240.529 118.193 240.535 115.973C240.529 113.758 241.613 112.346 243.16 112.34ZM241.402 115.973C241.408 117.666 242.129 118.779 243.16 118.773C244.203 118.779 244.906 117.666 244.906 115.973C244.906 114.279 244.203 113.166 243.16 113.16C242.129 113.166 241.408 114.279 241.402 115.973ZM247.52 121.949V111.531H248.434V115.691H250.18V116.488H248.434V121.949H247.52ZM259.332 111.531V121.973H258.406V111.531H259.332ZM251.129 115.973C251.135 113.758 252.236 112.346 253.789 112.34C255.336 112.346 256.455 113.758 256.449 115.973C256.455 118.193 255.336 119.6 253.789 119.594C252.236 119.6 251.135 118.193 251.129 115.973ZM252.02 115.973C252.02 117.666 252.746 118.779 253.789 118.773C254.838 118.779 255.559 117.666 255.559 115.973C255.559 114.279 254.838 113.166 253.789 113.16C252.746 113.166 252.02 114.279 252.02 115.973ZM265.602 112.469V113.23H262.531V116.734C263.85 116.734 264.881 116.676 266.105 116.43L266.188 117.168C264.852 117.438 263.768 117.467 262.285 117.473H261.629V112.469H265.602ZM263.152 121.727V118.363H264.078V120.953H270.301V121.727H263.152ZM264.945 115.199V114.449H267.078V111.754H267.957V118.949H267.078V115.199H264.945ZM269.105 119.254V111.543H269.984V119.254H269.105ZM277.227 112.48V113.254H273.066V115.41H276.852V116.16H273.066V118.68C275.012 118.68 276.348 118.609 277.941 118.34L278.035 119.102C276.389 119.377 274.988 119.436 272.984 119.441H272.152V112.48H277.227ZM279.172 121.949V111.531H280.098V121.949H279.172ZM287.598 112.48V113.254H283.438V115.41H287.223V116.16H283.438V118.68C285.383 118.68 286.719 118.609 288.312 118.34L288.406 119.102C286.76 119.377 285.359 119.436 283.355 119.441H282.523V112.48H287.598ZM289.543 121.949V111.531H290.469V121.949H289.543ZM301.754 116.371V117.098H292.215V116.371H301.754ZM293.363 118.621V117.93H300.559V120.145H294.301V121.141H300.898V121.809H293.375V119.512H299.645V118.621H293.363ZM293.422 112.516V111.848H300.523V114.004H294.371V114.918H300.711V115.586H293.457V113.371H299.598V112.516H293.422ZM220.32 132.332C220.314 134.236 221.609 136.146 223.145 136.844L222.582 137.57C221.393 136.996 220.367 135.76 219.869 134.277C219.389 135.848 218.363 137.166 217.145 137.781L216.559 137.008C218.111 136.299 219.395 134.307 219.406 132.332V130.434H220.32V132.332ZM224.281 139.973V129.531H225.207V139.973H224.281ZM235.133 129.531V132.18H236.703V132.965H235.133V135.648H234.219V129.531H235.133ZM226.977 134.816C229.531 134.125 231.107 132.73 231.295 130.961H227.445V130.199H232.273C232.268 132.836 230.428 134.717 227.352 135.531L226.977 134.816ZM228.312 136.879V136.129H235.133V139.949H234.219V136.879H228.312ZM240.98 131.453C240.98 132.807 242.023 134.102 243.547 134.629L243.066 135.355C241.895 134.934 240.986 134.061 240.541 132.988C240.09 134.184 239.123 135.145 237.887 135.602L237.406 134.875C238.941 134.324 240.055 132.936 240.055 131.465V131.008H237.699V130.258H243.312V131.008H240.98V131.453ZM238.988 137.09V136.328H245.996V139.949H245.07V137.09H238.988ZM242.984 133.035V132.262H245.07V129.531H245.996V135.777H245.07V133.035H242.984ZM252.477 130.211C254.65 130.217 256.285 131.354 256.285 133.07C256.285 134.805 254.65 135.941 252.477 135.93C250.303 135.941 248.668 134.805 248.668 133.07C248.668 131.354 250.303 130.217 252.477 130.211ZM247.73 138.566V137.793H257.27V138.566H247.73ZM249.547 133.07C249.535 134.336 250.795 135.18 252.477 135.18C254.146 135.18 255.395 134.336 255.395 133.07C255.395 131.822 254.146 130.955 252.477 130.961C250.795 130.955 249.535 131.822 249.547 133.07ZM267.641 137.887V138.66H258.102V137.887H262.391V135.918H259.297V132.707H265.531V131.066H259.273V130.305H266.434V133.457H260.211V135.156H266.68V135.918H263.293V137.887H267.641ZM279.629 129.531V132.25H281.199V133.012H279.629V135.789H278.715V129.531H279.629ZM271.496 135.051C274.01 134.324 275.615 132.877 275.803 131.066H271.953V130.305H276.793C276.787 132.959 274.918 134.904 271.883 135.801L271.496 135.051ZM272.926 137.91C272.92 136.662 274.262 135.9 276.336 135.906C278.428 135.9 279.746 136.662 279.746 137.91C279.746 139.176 278.428 139.926 276.336 139.926C274.262 139.926 272.92 139.176 272.926 137.91ZM273.84 137.91C273.828 138.695 274.807 139.193 276.336 139.188C277.865 139.193 278.855 138.695 278.855 137.91C278.855 137.125 277.865 136.639 276.336 136.645C274.807 136.639 273.828 137.125 273.84 137.91ZM289.941 129.531V133.973H291.605V134.746H289.941V139.949H289.016V129.531H289.941ZM281.727 137.172C282.576 137.172 283.566 137.166 284.598 137.137V135.988C283.385 135.848 282.594 135.133 282.605 134.102C282.594 132.924 283.59 132.162 285.066 132.168C286.52 132.162 287.533 132.924 287.539 134.102C287.533 135.139 286.73 135.848 285.523 135.988V137.102C286.49 137.055 287.475 136.973 288.383 136.844L288.441 137.547C286.168 137.934 283.707 137.957 281.879 137.957L281.727 137.172ZM281.914 131.559V130.809H284.598V129.555H285.523V130.809H288.195V131.559H281.914ZM283.461 134.102C283.467 134.822 284.1 135.297 285.066 135.285C286.016 135.297 286.654 134.822 286.66 134.102C286.654 133.375 286.016 132.883 285.066 132.883C284.1 132.883 283.467 133.375 283.461 134.102Z" fill="#535862"/>
<rect x="384" y="36" width="180" height="180" rx="90" fill="#E22834"/>
<path d="M432.283 110.539V119.464H430.252V117.458H428.957V115.858H430.252V114.944H428.957V113.319H430.252V110.539H432.283ZM422.33 113.218V111.644H424.641V110.501H426.672V111.644H428.767V113.218H422.33ZM422.825 115.833C422.819 114.481 424.031 113.484 425.631 113.484C427.269 113.484 428.475 114.481 428.475 115.833C428.475 117.204 427.269 118.175 425.631 118.169C424.031 118.175 422.819 117.204 422.825 115.833ZM424.323 122.092V118.728H426.393V120.467H432.524V122.092H424.323ZM424.717 115.833C424.717 116.404 425.104 116.639 425.631 116.633C426.158 116.639 426.564 116.404 426.57 115.833C426.564 115.293 426.158 115.059 425.631 115.046C425.104 115.059 424.717 115.293 424.717 115.833ZM443.747 110.514V122.257H441.83V116.544H441.068V121.724H439.215V110.691H441.068V114.932H441.83V110.514H443.747ZM433.794 119.756V111.834H438.161V113.459H435.838V118.061C436.739 118.042 437.641 117.979 438.631 117.813L438.771 119.451C437.323 119.718 436.035 119.75 434.657 119.756H433.794ZM451.567 111.085V112.685H449.435C449.542 113.878 450.215 115.09 451.986 115.668L451.009 117.229C449.746 116.855 448.908 116.1 448.4 115.147C447.886 116.201 447.01 117.045 445.664 117.445L444.623 115.846C446.515 115.281 447.207 113.935 447.321 112.685H445.182V111.085H451.567ZM446.591 119.553V117.94H454.754V122.257H452.723V119.553H446.591ZM451.263 114.83V113.18H452.723V110.514H454.754V117.496H452.723V114.83H451.263ZM465.913 110.514V122.295H463.856V110.514H465.913ZM456.277 115.528C456.271 112.932 457.629 111.294 459.464 111.301C461.254 111.294 462.6 112.932 462.6 115.528C462.6 118.163 461.254 119.794 459.464 119.794C457.629 119.794 456.271 118.163 456.277 115.528ZM458.245 115.528C458.239 117.179 458.715 117.934 459.464 117.928C460.168 117.934 460.638 117.179 460.645 115.528C460.638 113.903 460.168 113.135 459.464 113.142C458.715 113.135 458.239 113.903 458.245 115.528ZM477.072 111.428V112.507C477.066 113.992 477.066 115.668 476.577 118.245L474.521 118.055C474.958 115.954 475.009 114.354 475.016 113.027H468.312V111.428H477.072ZM467.233 120.962V119.324H470.839V115.401H472.857V119.324H477.948V120.962H467.233ZM491.202 110.514V117.585H489.158V110.514H491.202ZM481.274 115.896C483.16 115.306 483.89 113.986 484.01 112.735H481.808V111.123H488.231V112.735H486.105C486.226 113.903 486.917 115.141 488.765 115.681L487.724 117.255C486.46 116.88 485.61 116.119 485.089 115.173C484.556 116.208 483.655 117.045 482.315 117.458L481.274 115.896ZM483.039 119.629V118.017H491.202V122.257H489.158V119.629H483.039ZM499.162 111.339V112.139C499.156 112.996 499.156 114.164 498.921 115.566L496.928 115.376C497.099 114.411 497.15 113.649 497.169 112.989H493.005V111.339H499.162ZM492.319 116.277C492.916 116.277 493.583 116.271 494.287 116.265V114.119H496.306V116.201C497.391 116.15 498.502 116.062 499.53 115.909L499.632 117.356C497.194 117.82 494.497 117.864 492.497 117.864L492.319 116.277ZM493.995 122.092V118.499H496.039V120.467H502.501V122.092H493.995ZM500.051 119.273V110.514H502.146V113.941H503.377V115.63H502.146V119.273H500.051ZM510.575 111.085V112.685H508.442C508.55 113.878 509.223 115.09 510.994 115.668L510.017 117.229C508.753 116.855 507.916 116.1 507.408 115.147C506.894 116.201 506.018 117.045 504.672 117.445L503.631 115.846C505.522 115.281 506.214 113.935 506.329 112.685H504.189V111.085H510.575ZM505.599 119.553V117.94H513.762V122.257H511.73V119.553H505.599ZM510.271 114.83V113.18H511.73V110.514H513.762V117.496H511.73V114.83H510.271ZM524.908 110.539V118.88H522.864V110.539H524.908ZM515.133 114.246C515.12 112.507 516.586 111.231 518.421 111.237C520.249 111.231 521.715 112.507 521.709 114.246C521.715 116.017 520.249 117.274 518.421 117.28C516.586 117.274 515.12 116.017 515.133 114.246ZM516.872 122.092V118.042H518.929V120.467H525.188V122.092H516.872ZM517.113 114.246C517.107 115.103 517.672 115.509 518.421 115.516C519.132 115.509 519.69 115.103 519.69 114.246C519.69 113.421 519.132 112.996 518.421 113.002C517.672 112.996 517.107 113.421 517.113 114.246ZM419.829 132.862C419.816 134.989 420.407 137.103 422.432 138.067L421.213 139.692C420.02 139.121 419.258 138.125 418.801 136.893C418.306 138.226 417.474 139.299 416.186 139.908L414.954 138.258C417.112 137.306 417.779 135.065 417.772 132.862V131.352H419.829V132.862ZM422.584 142.257V130.514H424.628V134.894H426.215V136.607H424.628V142.257H422.584ZM437.209 135.935V137.547H426.494V135.935H428.754V134.678C427.948 134.291 427.491 133.713 427.497 132.977C427.484 131.542 429.211 130.666 431.852 130.653C434.467 130.666 436.187 131.542 436.193 132.977C436.187 133.732 435.705 134.322 434.86 134.709V135.935H437.209ZM427.675 140.111C427.681 138.734 429.236 137.966 431.826 137.966C434.372 137.966 435.933 138.734 435.939 140.111C435.933 141.508 434.372 142.257 431.826 142.257C429.236 142.257 427.681 141.508 427.675 140.111ZM429.617 132.977C429.604 133.497 430.36 133.713 431.852 133.713C433.312 133.713 434.08 133.497 434.086 132.977C434.08 132.45 433.312 132.215 431.852 132.215C430.36 132.215 429.604 132.45 429.617 132.977ZM429.757 140.111C429.744 140.568 430.366 140.759 431.826 140.759C433.242 140.759 433.896 140.568 433.896 140.111C433.896 139.654 433.242 139.496 431.826 139.489C430.366 139.496 429.744 139.654 429.757 140.111ZM430.811 135.935H432.829V135.192C432.518 135.224 432.194 135.236 431.852 135.236C431.483 135.236 431.141 135.217 430.811 135.192V135.935ZM442.3 133.459C442.287 135.198 442.979 137.255 445.055 138.194L443.938 139.781C442.668 139.223 441.817 138.163 441.303 136.899C440.795 138.309 439.919 139.483 438.58 140.086L437.412 138.486C439.532 137.515 440.23 135.363 440.23 133.459V133.256H437.907V131.605H444.483V133.256H442.3V133.459ZM445.055 142.257V130.514H447.099V134.83H448.686V136.519H447.099V142.257H445.055ZM461.787 130.539V137.115H459.756V136.239H457.445V134.627H459.756V133.814H457.553C456.849 135.643 455.262 136.868 452.646 137.547L451.859 135.947C454.449 135.319 455.516 134.227 455.757 132.888H452.507V131.275H457.979C457.979 131.605 457.959 131.923 457.928 132.228H459.756V130.539H461.787ZM453.776 139.73C453.764 138.232 455.427 137.274 457.826 137.268C460.219 137.274 461.882 138.232 461.889 139.73C461.882 141.235 460.219 142.212 457.826 142.206C455.427 142.212 453.764 141.235 453.776 139.73ZM455.808 139.73C455.808 140.346 456.531 140.613 457.826 140.606C459.115 140.613 459.838 140.346 459.845 139.73C459.838 139.108 459.115 138.835 457.826 138.842C456.531 138.835 455.808 139.108 455.808 139.73ZM473.022 130.514V137.61H470.991V135.541H469.785V133.891H470.991V130.514H473.022ZM463.069 133.015V131.415H465.545V130.438H467.563V131.415H470.026V133.015H463.069ZM463.679 135.389C463.679 134.157 464.891 133.262 466.561 133.269C468.243 133.262 469.436 134.157 469.43 135.389C469.436 136.671 468.236 137.521 466.561 137.521C464.891 137.521 463.679 136.671 463.679 135.389ZM464.999 142.155V138.017H473.022V142.155H464.999ZM465.634 135.389C465.621 135.858 465.964 136.042 466.561 136.036C467.132 136.042 467.487 135.858 467.487 135.389C467.487 134.951 467.132 134.779 466.561 134.779C465.964 134.779 465.621 134.951 465.634 135.389ZM467.043 140.53H471.042V139.604H467.043V140.53ZM479.624 131.021C482.112 131.021 484.118 132.399 484.118 134.487C484.118 136.601 482.112 137.972 479.624 137.979C477.117 137.972 475.136 136.601 475.143 134.487C475.136 132.399 477.117 131.021 479.624 131.021ZM474.267 140.924V139.286H484.994V140.924H474.267ZM477.123 134.487C477.123 135.674 478.158 136.309 479.624 136.315C481.071 136.309 482.087 135.674 482.1 134.487C482.087 133.326 481.071 132.659 479.624 132.659C478.158 132.659 477.123 133.326 477.123 134.487ZM496.229 139.4V141.051H485.502V139.4H489.844V137.902H486.67V133.751H493.056V132.837H486.657V131.212H495.074V135.325H488.714V136.265H495.341V137.902H491.862V139.4H496.229ZM509.915 130.514V142.257H507.973V136.531H507.363V141.749H505.434V138.575L504.596 139.692C503.593 139.172 502.945 138.321 502.533 137.28C502.158 138.505 501.53 139.508 500.495 140.124L499.251 138.575C501.085 137.515 501.485 135.389 501.485 133.23H499.721V131.618H505.027V133.23H503.466C503.472 135.103 503.853 136.963 505.434 137.972V130.653H507.363V134.906H507.973V130.514H509.915ZM520.363 131.161V132.228C520.357 133.319 520.357 134.506 520.071 136.125H521.519V137.75H517.113V142.27H515.057V137.75H510.804V136.125H518.027C518.275 134.767 518.319 133.7 518.326 132.761H511.959V131.161H520.363ZM526.724 131.961C526.724 133.465 527.282 134.9 529.275 135.49L528.209 137.077C526.997 136.677 526.209 135.96 525.733 135.033C525.213 136.138 524.318 137.007 522.94 137.445L521.861 135.82C524.013 135.167 524.654 133.586 524.667 132.062V131.098H526.724V131.961ZM523.854 139.959C523.848 138.493 525.416 137.629 527.942 137.636C530.5 137.629 532.056 138.493 532.056 139.959C532.056 141.438 530.5 142.282 527.942 142.282C525.416 142.282 523.848 141.438 523.854 139.959ZM525.886 139.959C525.873 140.479 526.552 140.708 527.942 140.708C529.358 140.708 530.031 140.479 530.037 139.959C530.031 139.413 529.358 139.204 527.942 139.197C526.552 139.204 525.873 139.413 525.886 139.959ZM528.069 134.094V132.443H529.999V130.514H532.03V137.356H529.999V134.094H528.069Z" fill="white"/>
</svg>
