<svg width="960" height="228" viewBox="0 0 960 228" fill="none" xmlns="http://www.w3.org/2000/svg">
<rect x="0.5" y="0.5" width="459" height="227" rx="15.5" fill="#F8F9FA"/>
<rect x="0.5" y="0.5" width="459" height="227" rx="15.5" stroke="#E9ECDF"/>
<path d="M42.9609 57V40.0312H49.6172C53.4727 40.0312 55.6875 42.4102 55.6875 45.75C55.6875 49.1367 53.4375 51.4688 49.5234 51.4688H46.4766V57H42.9609ZM46.4766 48.6328H48.9609C51.0469 48.6328 52.0664 47.4609 52.0547 45.75C52.0664 44.0625 51.0469 42.9258 48.9609 42.9141H46.4766V48.6328ZM57.8438 57V44.2734H61.1953V46.4766H61.3359C61.793 44.918 62.9766 44.0859 64.4062 44.0859C64.7578 44.0859 65.2031 44.1328 65.5078 44.2031V47.2969C65.1797 47.1914 64.5117 47.1094 64.0312 47.1094C62.4609 47.1094 61.3008 48.1992 61.3125 49.7578V57H57.8438ZM72.5625 57.2578C68.6602 57.2461 66.2695 54.7266 66.2812 50.6953C66.2695 46.7695 68.6953 44.1094 72.4219 44.1094C75.7617 44.1094 78.3984 46.2188 78.3984 50.5547V51.5391H69.7031C69.7031 53.4609 70.8398 54.6445 72.6328 54.6562C73.8164 54.6445 74.6602 54.1289 75 53.3672H78.3047C77.8125 55.7227 75.7031 57.2461 72.5625 57.2578ZM69.7031 49.3594H75.1172C75.1055 47.8125 74.0391 46.6992 72.4922 46.7109C70.8984 46.6992 69.7734 47.8945 69.7031 49.3594ZM87.2812 44.2734V46.875H84.8906V53.0859C84.8789 54.1055 85.3828 54.3516 86.0859 54.375C86.4375 54.375 87.0469 54.3398 87.4688 54.3047V57.0469C87.0938 57.1055 86.4727 57.1758 85.6172 57.1641C83.1094 57.1758 81.3984 56.0508 81.4219 53.5781V46.875H79.6641V44.2734H81.4219V41.2266H84.8906V44.2734H87.2812ZM95.0859 57.2578C91.1836 57.2461 88.793 54.7266 88.8047 50.6953C88.793 46.7695 91.2188 44.1094 94.9453 44.1094C98.2852 44.1094 100.922 46.2188 100.922 50.5547V51.5391H92.2266C92.2266 53.4609 93.3633 54.6445 95.1562 54.6562C96.3398 54.6445 97.1836 54.1289 97.5234 53.3672H100.828C100.336 55.7227 98.2266 57.2461 95.0859 57.2578ZM92.2266 49.3594H97.6406C97.6289 47.8125 96.5625 46.6992 95.0156 46.7109C93.4219 46.6992 92.2969 47.8945 92.2266 49.3594ZM106.57 49.6406V57H103.102V44.2734H106.406V46.5H106.547C107.121 45.0352 108.48 44.1094 110.367 44.1094C113.027 44.1094 114.762 45.9258 114.75 48.8906V57H111.305V49.5C111.293 47.9297 110.449 46.9922 109.008 46.9922C107.566 46.9922 106.57 47.9648 106.57 49.6406ZM122.133 57.2109C119.227 57.2109 116.953 54.9023 116.953 50.6484C116.953 46.2891 119.32 44.1094 122.133 44.1094C124.266 44.1094 125.285 45.375 125.742 46.4062H125.859V40.0312H129.328V57H125.906V54.9609H125.742C125.262 56.0156 124.207 57.2109 122.133 57.2109ZM120.516 50.625C120.504 52.875 121.453 54.4336 123.211 54.4453C124.945 54.4336 125.93 52.9219 125.93 50.625C125.93 48.3398 124.957 46.875 123.211 46.875C121.441 46.875 120.504 48.4102 120.516 50.625ZM131.508 53.4375C131.52 50.6016 133.793 49.6758 136.242 49.5234C137.156 49.4648 138.867 49.3828 139.406 49.3594V48.3281C139.395 47.2617 138.668 46.6523 137.367 46.6406C136.184 46.6523 135.445 47.1797 135.258 48.0469H131.953C132.164 45.8438 134.086 44.1094 137.461 44.1094C140.238 44.1094 142.863 45.3516 142.852 48.4219V57H139.57V55.2422H139.477C138.855 56.4141 137.637 57.2461 135.75 57.2344C133.312 57.2461 131.52 55.957 131.508 53.4375ZM134.836 53.3438C134.836 54.3164 135.621 54.832 136.734 54.8438C138.316 54.832 139.418 53.8008 139.406 52.4531V51.5273C138.879 51.5508 137.391 51.6328 136.805 51.6797C135.598 51.7852 134.836 52.3594 134.836 53.3438ZM145.5 57V44.2734H148.852V46.4766H148.992C149.449 44.918 150.633 44.0859 152.062 44.0859C152.414 44.0859 152.859 44.1328 153.164 44.2031V47.2969C152.836 47.1914 152.168 47.1094 151.688 47.1094C150.117 47.1094 148.957 48.1992 148.969 49.7578V57H145.5ZM159.141 57.2109C156.234 57.2109 153.961 54.9023 153.961 50.6484C153.961 46.2891 156.328 44.1094 159.141 44.1094C161.273 44.1094 162.293 45.375 162.75 46.4062H162.867V40.0312H166.336V57H162.914V54.9609H162.75C162.27 56.0156 161.215 57.2109 159.141 57.2109ZM157.523 50.625C157.512 52.875 158.461 54.4336 160.219 54.4453C161.953 54.4336 162.938 52.9219 162.938 50.625C162.938 48.3398 161.965 46.875 160.219 46.875C158.449 46.875 157.512 48.4102 157.523 50.625Z" fill="#868E96"/>
<path d="M79.6719 121.906V127.289H37.3711V121.906H79.6719ZM40.6719 95.7031V90.5234H76.1172V95.7031H69.6172V109.719H75.9141V114.797H40.875V109.719H47.0703V95.7031H40.6719ZM53.5703 109.719H63.2188V95.7031H53.5703V109.719ZM121.059 86.4609V132.773H114.609V86.4609H121.059ZM84.75 95.5508V90.3203H106.738V108.145H91.5039V116.625C98.5625 116.574 104.529 116.219 111.309 115.102L111.867 120.332C104.275 121.678 97.3945 121.957 88.9648 121.957H84.8008V103.016H100.137V95.5508H84.75ZM166.965 86.5117V120.992H160.82V86.5117H166.965ZM129.082 114.492V90.0156H146.703V95.1445H135.277V99.7148H144.977V104.641H135.277V109.287C140.305 109.262 143.986 109.109 148.277 108.348L148.938 113.426C143.631 114.34 139.213 114.518 132.23 114.492H129.082ZM135.988 131.859V117.285H142.488V126.68H168.133V131.859H135.988ZM146.957 104.184V99.0547H151.629V87.3242H157.773V119.926H151.629V104.184H146.957ZM208.656 86.4609V103.625H215.461V108.906H208.656V132.773H202.156V86.4609H208.656ZM174.023 121.551V90.7266H195.707V95.957H180.473V116.219C187.176 116.168 192.711 115.812 198.855 114.746L199.566 120.18C192.381 121.398 186.084 121.576 177.934 121.551H174.023ZM254.816 107.84V113.02H222.113V90.3203H254.461V95.5508H228.512V107.84H254.816ZM217.137 127.035V121.703H259.438V127.035H217.137Z" fill="#495057"/>
<path d="M47.5312 177.266V182.781H49.625V184.234H47.5312V191.359H45.7969V177.266H47.5312ZM36.3906 187.5C39.8281 185.781 41.6875 183.391 42.0312 180.172H37.1562V178.734H43.7969C43.7891 182.883 42.0703 186.531 37.375 188.844L36.3906 187.5ZM63.4531 182.719V184.141H61.3594V191.359H59.625V177.266H61.3594V182.719H63.4531ZM50.7969 187.875V178.641H52.5156V186.438C54.3984 186.406 56.3984 186.242 58.5312 185.797L58.7188 187.266C56.3359 187.742 54.0781 187.867 51.9844 187.875H50.7969ZM75.1875 177.266V182.625H77.3594V184.047H75.1875V191.406H73.4531V177.266H75.1875ZM64.7031 187.953V178.609H71.3125V180.016H66.4375V186.5C68.6328 186.492 70.375 186.383 72.3125 186.047L72.5156 187.516C70.3203 187.891 68.4219 187.953 65.875 187.953H64.7031Z" fill="#ADB5BD"/>
<path d="M100.484 190H98.3125L102.297 178.688H104.797L108.797 190H106.625L105.68 187.203H101.422L100.484 190ZM101.969 185.562H105.133L103.594 181H103.5L101.969 185.562ZM110.141 190V178.688H114.469C116.922 178.688 118.133 179.938 118.141 181.625C118.133 183 117.266 183.766 116.156 184.031V184.141C117.359 184.203 118.578 185.203 118.578 186.922C118.578 188.68 117.305 190 114.719 190H110.141ZM112.172 188.297H114.406C115.891 188.297 116.508 187.664 116.516 186.766C116.508 185.75 115.719 184.977 114.453 184.969H112.172V188.297ZM112.172 183.5H114.219C115.289 183.5 116.102 182.883 116.109 181.875C116.102 181.008 115.477 180.375 114.266 180.375H112.172V183.5ZM127.859 182.5C127.617 181.141 126.531 180.359 125.156 180.359C123.305 180.359 121.992 181.781 122 184.344C121.992 186.945 123.312 188.328 125.156 188.328C126.5 188.328 127.586 187.578 127.859 186.25H129.906C129.594 188.422 127.805 190.156 125.125 190.156C122.141 190.156 119.945 187.992 119.953 184.344C119.945 180.688 122.164 178.531 125.125 178.531C127.625 178.531 129.555 179.984 129.906 182.5H127.859Z" fill="#ADB5BD"/>
<path d="M151.562 187.609C151.562 185.703 153.148 185.148 154.719 185.047C155.312 185 156.523 184.945 156.898 184.93L156.891 184.25C156.891 183.406 156.352 182.922 155.359 182.922C154.469 182.922 153.922 183.328 153.766 183.938H151.844C151.984 182.492 153.281 181.406 155.406 181.406C157.016 181.406 158.875 182.07 158.875 184.328V190H156.969V188.828H156.906C156.531 189.547 155.742 190.172 154.406 190.172C152.789 190.172 151.562 189.289 151.562 187.609ZM153.484 187.594C153.484 188.328 154.086 188.703 154.922 188.703C156.133 188.703 156.906 187.906 156.906 186.953L156.898 186.258C156.539 186.273 155.43 186.344 155.031 186.375C154.086 186.453 153.484 186.852 153.484 187.594ZM160.844 190V178.688H162.844V182.906H162.922C163.227 182.305 163.844 181.406 165.344 181.406C167.305 181.406 168.852 182.938 168.859 185.766C168.852 188.555 167.352 190.148 165.359 190.156C163.891 190.148 163.234 189.281 162.922 188.656H162.797V190H160.844ZM162.797 185.75C162.797 187.406 163.523 188.516 164.797 188.516C166.125 188.516 166.82 187.352 166.828 185.75C166.82 184.172 166.141 183.039 164.797 183.031C163.508 183.039 162.797 184.102 162.797 185.75ZM174.125 190.172C171.594 190.172 170.062 188.359 170.062 185.797C170.062 183.195 171.641 181.406 174.125 181.406C176.18 181.406 177.625 182.609 177.766 184.438H175.859C175.703 183.625 175.109 183.008 174.141 183C172.906 183.008 172.078 184.039 172.078 185.75C172.078 187.5 172.891 188.539 174.141 188.547C175.023 188.539 175.68 188.023 175.859 187.109H177.766C177.617 188.898 176.258 190.172 174.125 190.172Z" fill="#ADB5BD"/>
<path d="M204.531 178.688V190H202.484V180.672H202.422L199.781 182.359V180.5L202.578 178.688H204.531ZM207.281 190V188.531L211.281 184.672C212.422 183.531 213.016 182.859 213.016 181.906C213.016 180.852 212.18 180.188 211.078 180.188C209.914 180.188 209.164 180.914 209.172 182.062H207.234C207.227 179.922 208.836 178.531 211.094 178.531C213.406 178.531 214.961 179.914 214.969 181.812C214.961 183.086 214.352 184.117 212.125 186.219L210.109 188.219V188.297H215.141V190H207.281ZM221.031 190.156C218.617 190.156 216.891 188.844 216.844 186.938H218.891C218.945 187.844 219.852 188.445 221.031 188.438C222.273 188.445 223.172 187.758 223.172 186.75C223.172 185.734 222.297 185.008 220.828 185H219.812V183.438H220.828C222.031 183.438 222.867 182.766 222.859 181.781C222.867 180.828 222.148 180.188 221.047 180.188C219.984 180.188 219.07 180.781 219.031 181.734H217.078C217.125 179.836 218.852 178.531 221.062 178.531C223.359 178.531 224.844 179.938 224.828 181.672C224.844 182.938 224 183.852 222.766 184.109V184.203C224.359 184.414 225.266 185.438 225.25 186.859C225.266 188.773 223.477 190.156 221.031 190.156Z" fill="#ADB5BD"/>
<path d="M253.484 188.422C252.039 188.422 250.914 187.281 250.922 185.219C250.914 183.133 252.086 182.031 253.484 182.031C254.492 182.031 255 182.641 255.203 183.078H255.281V182.172H256.797V186.344C256.812 186.875 257.023 187.133 257.453 187.125C258.25 187.133 258.766 186.211 258.766 184.812C258.781 182.094 256.867 180.312 254.016 180.312C251.109 180.32 249.25 182.422 249.25 185.219C249.25 188.242 250.875 190.164 253.969 190.141C255.078 190.133 255.914 190.039 256.797 189.812V191.25C255.969 191.484 255.008 191.625 253.969 191.625C250.047 191.625 247.758 189.125 247.766 185.219C247.75 181.516 250.344 178.828 254.016 178.828C257.711 178.828 260.266 181.344 260.266 184.766C260.258 187.141 259.055 188.5 257.312 188.5C256.266 188.492 255.492 188 255.336 187.297H255.266C255.055 187.734 254.539 188.422 253.484 188.422ZM252.625 185.219C252.617 186.25 253.102 186.992 253.953 186.984C254.836 186.992 255.305 186.289 255.312 185.219C255.305 184.141 254.844 183.461 253.953 183.453C253.094 183.461 252.617 184.188 252.625 185.219ZM266.234 190L266.711 187.078H264.273L263.797 190H262.25L262.727 187.078H261.141L261.391 185.547H262.984L263.375 183.141H261.797L262.047 181.609H263.633L264.109 178.688H265.656L265.18 181.609H267.617L268.094 178.688H269.625L269.148 181.609H270.75L270.484 183.141H268.891L268.5 185.547H270.094L269.844 187.078H268.242L267.766 190H266.234ZM264.531 185.547H266.969L267.359 183.141H264.922L264.531 185.547ZM274.25 178.688L274.078 186.672H272.312L272.125 178.688H274.25ZM271.984 188.906C271.977 188.25 272.531 187.711 273.203 187.703C273.852 187.711 274.406 188.25 274.406 188.906C274.406 189.578 273.852 190.125 273.203 190.125C272.531 190.125 271.977 189.578 271.984 188.906ZM278.375 186.531C278.391 184.539 278.953 183.93 279.938 183.328C280.602 182.898 281.117 182.375 281.109 181.594C281.117 180.719 280.43 180.156 279.578 180.156C278.805 180.156 278.055 180.656 278 181.703H276.047C276.102 179.602 277.664 178.531 279.594 178.531C281.703 178.531 283.148 179.703 283.156 181.562C283.148 182.836 282.516 183.664 281.5 184.266C280.594 184.82 280.219 185.359 280.203 186.531V186.672H278.375V186.531ZM278.125 188.906C278.117 188.25 278.672 187.711 279.344 187.703C279.992 187.711 280.547 188.25 280.547 188.906C280.547 189.578 279.992 190.125 279.344 190.125C278.672 190.125 278.117 189.578 278.125 188.906ZM288.609 185.047H287.281L287.406 182.797L285.516 184.031L284.844 182.891L286.859 181.875L284.844 180.844L285.516 179.703L287.406 180.938L287.281 178.688H288.609L288.484 180.938L290.375 179.703L291.031 180.844L289.031 181.875L291.031 182.891L290.375 184.031L288.484 182.797L288.609 185.047Z" fill="#ADB5BD"/>
<rect x="500.5" y="0.5" width="459" height="227" rx="15.5" fill="#F8F9FA"/>
<rect x="500.5" y="0.5" width="459" height="227" rx="15.5" stroke="#E9ECDF"/>
<path d="M547.367 51.752C547.559 52.232 547.807 52.688 548.111 53.12C548.415 53.552 548.759 53.936 549.143 54.272C549.543 54.592 549.967 54.848 550.415 55.04C550.863 55.232 551.327 55.328 551.807 55.328C552.239 55.328 552.623 55.256 552.959 55.112C553.295 54.952 553.583 54.752 553.823 54.512C554.063 54.272 554.247 54 554.375 53.696C554.503 53.392 554.567 53.08 554.567 52.76C554.567 52.312 554.471 51.92 554.279 51.584C554.087 51.248 553.815 50.944 553.463 50.672C553.111 50.384 552.695 50.112 552.215 49.856C551.751 49.584 551.231 49.288 550.655 48.968C549.983 48.6 549.367 48.248 548.807 47.912C548.263 47.576 547.783 47.232 547.367 46.88C546.967 46.512 546.655 46.12 546.431 45.704C546.207 45.272 546.095 44.784 546.095 44.24C546.095 43.6 546.215 43.024 546.455 42.512C546.695 41.984 547.031 41.536 547.463 41.168C547.895 40.8 548.415 40.52 549.023 40.328C549.631 40.12 550.311 40.016 551.063 40.016C551.591 40.016 552.095 40.112 552.575 40.304C553.055 40.496 553.479 40.712 553.847 40.952C553.927 41 554.007 41.064 554.087 41.144C554.183 41.224 554.295 41.264 554.423 41.264C554.503 41.264 554.583 41.192 554.663 41.048C554.759 40.904 554.839 40.776 554.903 40.664C554.999 40.488 555.095 40.352 555.191 40.256C555.287 40.144 555.399 40.088 555.527 40.088C555.751 40.088 555.919 40.152 556.031 40.28C556.143 40.392 556.215 40.6 556.247 40.904L556.583 44.576C556.615 44.848 556.575 45.056 556.463 45.2C556.367 45.328 556.247 45.408 556.103 45.44C555.735 45.52 555.415 45.304 555.143 44.792C554.903 44.328 554.639 43.896 554.351 43.496C554.063 43.08 553.743 42.72 553.391 42.416C553.055 42.096 552.695 41.848 552.311 41.672C551.927 41.496 551.519 41.408 551.087 41.408C550.319 41.408 549.727 41.632 549.311 42.08C548.895 42.528 548.687 43.056 548.687 43.664C548.687 44.064 548.791 44.424 548.999 44.744C549.223 45.048 549.503 45.336 549.839 45.608C550.191 45.864 550.583 46.112 551.015 46.352C551.447 46.576 551.879 46.8 552.311 47.024C552.999 47.392 553.647 47.736 554.255 48.056C554.879 48.376 555.415 48.728 555.863 49.112C556.327 49.48 556.687 49.904 556.943 50.384C557.215 50.848 557.351 51.416 557.351 52.088C557.351 52.728 557.231 53.328 556.991 53.888C556.767 54.448 556.423 54.944 555.959 55.376C555.511 55.792 554.951 56.12 554.279 56.36C553.607 56.6 552.823 56.72 551.927 56.72C551.351 56.72 550.775 56.616 550.199 56.408C549.639 56.2 549.087 55.936 548.543 55.616C548.367 55.504 548.223 55.456 548.111 55.472C548.015 55.472 547.919 55.56 547.823 55.736C547.647 56.056 547.495 56.296 547.367 56.456C547.239 56.616 547.087 56.696 546.911 56.696C546.639 56.696 546.463 56.6 546.383 56.408C546.319 56.216 546.271 56 546.239 55.76L545.855 51.92C545.823 51.696 545.863 51.504 545.975 51.344C546.103 51.184 546.279 51.096 546.503 51.08C546.695 51.064 546.863 51.12 547.007 51.248C547.167 51.376 547.287 51.544 547.367 51.752ZM568.393 55.184C568.201 55.36 567.961 55.528 567.673 55.688C567.401 55.832 567.105 55.96 566.785 56.072C566.465 56.2 566.129 56.296 565.777 56.36C565.425 56.44 565.081 56.48 564.745 56.48C564.249 56.48 563.769 56.392 563.305 56.216C562.857 56.056 562.457 55.816 562.105 55.496C561.753 55.176 561.473 54.784 561.265 54.32C561.057 53.856 560.953 53.32 560.953 52.712V48.008C560.953 47.624 560.937 47.296 560.905 47.024C560.873 46.752 560.817 46.52 560.737 46.328C560.529 45.88 560.249 45.656 559.896 45.656H559.609C559.225 45.656 559.033 45.52 559.033 45.248C559.033 44.992 559.241 44.864 559.657 44.864H563.473V52.544C563.473 53.344 563.649 53.912 564.001 54.248C564.353 54.568 564.833 54.728 565.441 54.728C565.665 54.728 565.913 54.696 566.185 54.632C566.457 54.552 566.721 54.448 566.977 54.32C567.233 54.176 567.465 54.024 567.673 53.864C567.897 53.688 568.081 53.504 568.225 53.312V47.984C568.225 47.6 568.217 47.264 568.201 46.976C568.185 46.688 568.137 46.448 568.057 46.256C567.865 45.856 567.585 45.656 567.217 45.656H566.929C566.545 45.656 566.353 45.52 566.353 45.248C566.353 44.992 566.561 44.864 566.977 44.864H570.721V54.368C570.721 54.768 570.881 54.912 571.201 54.8L571.921 54.512C572.081 54.464 572.217 54.44 572.329 54.44C572.457 54.424 572.553 54.48 572.617 54.608C572.681 54.736 572.681 54.856 572.617 54.968C572.553 55.08 572.473 55.176 572.377 55.256C572.201 55.416 572.001 55.584 571.777 55.76C571.553 55.936 571.321 56.096 571.081 56.24C570.857 56.384 570.633 56.496 570.409 56.576C570.185 56.672 569.985 56.72 569.809 56.72C569.489 56.72 569.201 56.576 568.945 56.288C568.705 56.016 568.521 55.648 568.393 55.184ZM576.076 49.376C576.076 48.448 576.052 47.704 576.004 47.144C575.972 46.92 575.932 46.752 575.884 46.64C575.852 46.512 575.708 46.496 575.452 46.592L574.852 46.832C574.564 46.944 574.348 46.968 574.204 46.904C574.06 46.84 573.964 46.736 573.916 46.592C573.868 46.464 573.884 46.336 573.964 46.208C574.044 46.064 574.164 45.952 574.324 45.872L577.492 44.192C577.796 44.032 578.044 43.992 578.236 44.072C578.444 44.152 578.548 44.352 578.548 44.672V45.824C578.98 45.472 579.508 45.168 580.132 44.912C580.756 44.656 581.428 44.528 582.148 44.528C582.532 44.528 582.94 44.592 583.372 44.72C583.804 44.832 584.204 45.024 584.572 45.296C584.956 45.552 585.268 45.904 585.508 46.352C585.748 46.784 585.868 47.32 585.868 47.96V53.096C585.868 53.48 585.884 53.808 585.916 54.08C585.948 54.352 586.004 54.584 586.084 54.776C586.292 55.224 586.572 55.448 586.924 55.448H587.092C587.476 55.448 587.668 55.584 587.668 55.856C587.668 56.112 587.46 56.24 587.044 56.24H582.22C581.804 56.24 581.596 56.112 581.596 55.856C581.596 55.584 581.788 55.448 582.172 55.448H582.34C582.692 55.448 582.972 55.224 583.18 54.776C583.26 54.584 583.316 54.352 583.348 54.08C583.38 53.808 583.396 53.48 583.396 53.096V48.608C583.396 47.776 583.196 47.176 582.796 46.808C582.396 46.424 581.948 46.232 581.452 46.232C581.02 46.232 580.548 46.36 580.036 46.616C579.524 46.856 579.028 47.232 578.548 47.744V53.096C578.548 53.48 578.564 53.808 578.596 54.08C578.628 54.352 578.684 54.584 578.764 54.776C578.972 55.224 579.252 55.448 579.604 55.448H579.772C580.156 55.448 580.348 55.584 580.348 55.856C580.348 56.112 580.14 56.24 579.724 56.24H574.9C574.484 56.24 574.276 56.112 574.276 55.856C574.276 55.584 574.468 55.448 574.852 55.448H575.02C575.372 55.448 575.652 55.224 575.86 54.776C575.94 54.584 575.996 54.352 576.028 54.08C576.06 53.808 576.076 53.48 576.076 53.096V49.376ZM593.86 47.36C594.196 47.392 594.572 47.416 594.988 47.432C595.42 47.448 595.796 47.456 596.116 47.456C596.596 47.456 597.044 47.408 597.46 47.312C597.892 47.216 598.268 47.064 598.588 46.856C598.908 46.632 599.164 46.344 599.356 45.992C599.548 45.624 599.644 45.176 599.644 44.648C599.644 43.864 599.348 43.208 598.756 42.68C598.164 42.136 597.252 41.864 596.02 41.864C595.62 41.864 595.244 41.872 594.892 41.888C594.556 41.904 594.212 41.944 593.86 42.008V47.36ZM596.596 54.872C597.78 54.872 598.7 54.64 599.356 54.176C600.028 53.696 600.364 53.016 600.364 52.136C600.364 51.72 600.268 51.312 600.076 50.912C599.9 50.496 599.628 50.128 599.26 49.808C598.908 49.472 598.452 49.208 597.892 49.016C597.348 48.808 596.708 48.704 595.972 48.704C595.604 48.704 595.228 48.704 594.844 48.704C594.46 48.704 594.132 48.72 593.86 48.752V54.752C594.212 54.784 594.596 54.816 595.012 54.848C595.444 54.864 595.972 54.872 596.596 54.872ZM596.236 40.496C597.02 40.496 597.772 40.576 598.492 40.736C599.228 40.896 599.876 41.152 600.436 41.504C600.996 41.84 601.444 42.28 601.78 42.824C602.116 43.352 602.284 43.992 602.284 44.744C602.284 45.032 602.228 45.344 602.116 45.68C602.02 46 601.876 46.32 601.684 46.64C601.492 46.944 601.252 47.232 600.964 47.504C600.676 47.776 600.348 47.984 599.98 48.128C600.396 48.256 600.788 48.456 601.156 48.728C601.524 49 601.844 49.312 602.116 49.664C602.388 50.016 602.596 50.392 602.74 50.792C602.9 51.176 602.98 51.56 602.98 51.944C602.98 52.76 602.796 53.44 602.428 53.984C602.076 54.528 601.604 54.968 601.012 55.304C600.436 55.64 599.78 55.88 599.044 56.024C598.308 56.168 597.564 56.24 596.812 56.24H589.732C589.316 56.24 589.108 56.112 589.108 55.856C589.108 55.584 589.3 55.448 589.684 55.448H590.26C590.612 55.448 590.892 55.224 591.1 54.776C591.18 54.584 591.236 54.352 591.268 54.08C591.3 53.808 591.316 53.48 591.316 53.096V43.64C591.316 43.256 591.3 42.928 591.268 42.656C591.236 42.384 591.18 42.152 591.1 41.96C590.892 41.512 590.612 41.288 590.26 41.288H589.684C589.3 41.288 589.108 41.152 589.108 40.88C589.108 40.624 589.316 40.496 589.732 40.496H596.236ZM616.15 55.256C615.974 55.416 615.774 55.584 615.55 55.76C615.326 55.936 615.094 56.096 614.854 56.24C614.63 56.384 614.406 56.496 614.182 56.576C613.958 56.672 613.758 56.72 613.582 56.72C613.262 56.72 612.974 56.6 612.718 56.36C612.478 56.12 612.294 55.768 612.166 55.304C611.75 55.672 611.238 56 610.63 56.288C610.038 56.576 609.438 56.72 608.83 56.72C608.222 56.72 607.702 56.64 607.27 56.48C606.838 56.336 606.486 56.136 606.214 55.88C605.942 55.608 605.734 55.296 605.59 54.944C605.462 54.576 605.398 54.184 605.398 53.768C605.382 53.048 605.646 52.4 606.19 51.824C606.75 51.232 607.526 50.712 608.518 50.264C609.126 49.992 609.702 49.744 610.246 49.52C610.806 49.296 611.39 49.088 611.998 48.896V47.744C611.998 47.36 611.934 47.056 611.806 46.832C611.694 46.608 611.542 46.432 611.35 46.304C611.174 46.176 610.974 46.096 610.75 46.064C610.542 46.016 610.342 45.992 610.15 45.992C609.926 45.992 609.718 46.032 609.526 46.112C609.334 46.192 609.174 46.296 609.046 46.424C608.918 46.536 608.814 46.664 608.734 46.808C608.67 46.936 608.646 47.056 608.662 47.168L608.686 47.432C608.718 47.816 608.582 48.12 608.278 48.344C607.974 48.568 607.582 48.704 607.102 48.752C606.878 48.784 606.678 48.76 606.502 48.68C606.326 48.6 606.182 48.496 606.07 48.368C605.958 48.224 605.878 48.056 605.83 47.864C605.798 47.672 605.814 47.48 605.878 47.288C606.15 46.504 606.67 45.848 607.438 45.32C608.222 44.792 609.166 44.528 610.27 44.528C611.662 44.528 612.71 44.784 613.414 45.296C614.134 45.808 614.494 46.592 614.494 47.648V54.368C614.494 54.768 614.654 54.912 614.974 54.8L615.694 54.512C615.854 54.464 615.99 54.44 616.102 54.44C616.23 54.424 616.326 54.48 616.39 54.608C616.454 54.736 616.454 54.856 616.39 54.968C616.326 55.08 616.246 55.176 616.15 55.256ZM611.998 50.408C611.63 50.536 611.262 50.68 610.894 50.84C610.542 50.984 610.214 51.144 609.91 51.32C609.206 51.72 608.686 52.112 608.35 52.496C608.03 52.864 607.886 53.256 607.918 53.672C607.95 53.976 608.078 54.272 608.302 54.56C608.526 54.832 608.846 54.968 609.262 54.968C609.662 54.968 610.118 54.856 610.63 54.632C611.158 54.408 611.614 54.12 611.998 53.768V50.408ZM623.228 54.44C623.532 54.216 623.772 54.088 623.948 54.056C624.124 54.024 624.276 54.072 624.404 54.2C624.548 54.328 624.604 54.48 624.572 54.656C624.556 54.832 624.5 54.984 624.404 55.112C624.324 55.224 624.188 55.368 623.996 55.544C623.82 55.72 623.596 55.896 623.324 56.072C623.052 56.248 622.74 56.4 622.388 56.528C622.052 56.656 621.684 56.72 621.284 56.72C620.596 56.72 620.02 56.528 619.556 56.144C619.092 55.76 618.86 55.12 618.86 54.224V46.28H617.204V45.704C617.7 45.384 618.108 45.048 618.428 44.696C618.748 44.344 619.028 43.96 619.268 43.544C619.444 43.224 619.58 42.912 619.676 42.608C619.772 42.288 619.892 41.872 620.036 41.36H621.38V45.104H623.78V46.28H621.38V53.936C621.38 54.304 621.436 54.576 621.548 54.752C621.66 54.912 621.796 54.992 621.956 54.992C622.132 54.992 622.332 54.944 622.556 54.848C622.78 54.736 623.004 54.6 623.228 54.44ZM637.549 55.256C637.373 55.416 637.173 55.584 636.949 55.76C636.725 55.936 636.493 56.096 636.253 56.24C636.029 56.384 635.805 56.496 635.581 56.576C635.357 56.672 635.157 56.72 634.981 56.72C634.661 56.72 634.373 56.6 634.117 56.36C633.877 56.12 633.693 55.768 633.565 55.304C633.149 55.672 632.637 56 632.029 56.288C631.437 56.576 630.837 56.72 630.229 56.72C629.621 56.72 629.101 56.64 628.669 56.48C628.237 56.336 627.885 56.136 627.613 55.88C627.341 55.608 627.133 55.296 626.989 54.944C626.861 54.576 626.797 54.184 626.797 53.768C626.781 53.048 627.045 52.4 627.589 51.824C628.149 51.232 628.925 50.712 629.917 50.264C630.525 49.992 631.101 49.744 631.645 49.52C632.205 49.296 632.789 49.088 633.397 48.896V47.744C633.397 47.36 633.333 47.056 633.205 46.832C633.093 46.608 632.941 46.432 632.749 46.304C632.573 46.176 632.373 46.096 632.148 46.064C631.941 46.016 631.741 45.992 631.549 45.992C631.325 45.992 631.117 46.032 630.925 46.112C630.733 46.192 630.573 46.296 630.445 46.424C630.317 46.536 630.213 46.664 630.133 46.808C630.069 46.936 630.045 47.056 630.061 47.168L630.085 47.432C630.117 47.816 629.981 48.12 629.677 48.344C629.373 48.568 628.981 48.704 628.501 48.752C628.277 48.784 628.077 48.76 627.901 48.68C627.725 48.6 627.581 48.496 627.469 48.368C627.357 48.224 627.277 48.056 627.229 47.864C627.197 47.672 627.213 47.48 627.277 47.288C627.549 46.504 628.069 45.848 628.837 45.32C629.621 44.792 630.565 44.528 631.669 44.528C633.061 44.528 634.109 44.784 634.813 45.296C635.533 45.808 635.893 46.592 635.893 47.648V54.368C635.893 54.768 636.053 54.912 636.373 54.8L637.093 54.512C637.253 54.464 637.389 54.44 637.501 54.44C637.629 54.424 637.725 54.48 637.789 54.608C637.853 54.736 637.853 54.856 637.789 54.968C637.725 55.08 637.645 55.176 637.549 55.256ZM633.397 50.408C633.029 50.536 632.661 50.68 632.293 50.84C631.941 50.984 631.613 51.144 631.309 51.32C630.605 51.72 630.085 52.112 629.749 52.496C629.429 52.864 629.285 53.256 629.317 53.672C629.349 53.976 629.477 54.272 629.701 54.56C629.925 54.832 630.245 54.968 630.661 54.968C631.061 54.968 631.517 54.856 632.029 54.632C632.557 54.408 633.013 54.12 633.397 53.768V50.408ZM641.537 49.376C641.537 48.448 641.513 47.704 641.465 47.144C641.433 46.92 641.393 46.752 641.345 46.64C641.313 46.512 641.169 46.496 640.913 46.592L640.313 46.832C640.025 46.944 639.809 46.968 639.665 46.904C639.521 46.84 639.425 46.736 639.377 46.592C639.329 46.464 639.345 46.336 639.425 46.208C639.505 46.064 639.625 45.952 639.785 45.872L642.953 44.192C643.257 44.032 643.505 43.992 643.697 44.072C643.905 44.152 644.009 44.352 644.009 44.672V45.824C644.441 45.472 644.969 45.168 645.593 44.912C646.217 44.656 646.889 44.528 647.609 44.528C647.993 44.528 648.401 44.592 648.833 44.72C649.265 44.832 649.665 45.024 650.033 45.296C650.417 45.552 650.729 45.904 650.969 46.352C651.209 46.784 651.329 47.32 651.329 47.96V53.096C651.329 53.48 651.345 53.808 651.377 54.08C651.409 54.352 651.465 54.584 651.545 54.776C651.753 55.224 652.033 55.448 652.385 55.448H652.553C652.937 55.448 653.129 55.584 653.129 55.856C653.129 56.112 652.921 56.24 652.505 56.24H647.681C647.265 56.24 647.057 56.112 647.057 55.856C647.057 55.584 647.249 55.448 647.633 55.448H647.801C648.153 55.448 648.433 55.224 648.641 54.776C648.721 54.584 648.777 54.352 648.809 54.08C648.841 53.808 648.857 53.48 648.857 53.096V48.608C648.857 47.776 648.657 47.176 648.257 46.808C647.857 46.424 647.409 46.232 646.913 46.232C646.481 46.232 646.009 46.36 645.497 46.616C644.985 46.856 644.489 47.232 644.009 47.744V53.096C644.009 53.48 644.025 53.808 644.057 54.08C644.089 54.352 644.145 54.584 644.225 54.776C644.433 55.224 644.713 55.448 645.065 55.448H645.233C645.617 55.448 645.809 55.584 645.809 55.856C645.809 56.112 645.601 56.24 645.185 56.24H640.361C639.945 56.24 639.737 56.112 639.737 55.856C639.737 55.584 639.929 55.448 640.313 55.448H640.481C640.833 55.448 641.113 55.224 641.321 54.776C641.401 54.584 641.457 54.352 641.489 54.08C641.521 53.808 641.537 53.48 641.537 53.096V49.376ZM654.821 48.464C654.821 47.888 654.933 47.36 655.157 46.88C655.397 46.384 655.717 45.968 656.117 45.632C656.533 45.28 657.021 45.008 657.581 44.816C658.157 44.624 658.781 44.528 659.453 44.528C660.173 44.528 660.829 44.64 661.421 44.864H664.757C665.173 44.864 665.485 44.912 665.693 45.008C665.917 45.088 666.029 45.28 666.029 45.584C666.029 45.84 665.917 46.016 665.693 46.112C665.469 46.192 665.157 46.232 664.757 46.232H663.317C663.813 46.872 664.061 47.616 664.061 48.464C664.061 49.04 663.941 49.568 663.701 50.048C663.477 50.528 663.157 50.944 662.741 51.296C662.341 51.632 661.861 51.896 661.301 52.088C660.741 52.28 660.125 52.376 659.453 52.376C658.973 52.376 658.533 52.328 658.133 52.232C657.909 52.504 657.717 52.776 657.557 53.048C657.413 53.304 657.341 53.512 657.341 53.672C657.341 53.976 657.477 54.152 657.749 54.2C658.261 54.28 658.797 54.328 659.357 54.344C659.917 54.36 660.437 54.368 660.917 54.368C662.437 54.368 663.597 54.648 664.397 55.208C665.213 55.768 665.621 56.544 665.621 57.536C665.621 58.128 665.485 58.68 665.213 59.192C664.941 59.704 664.525 60.152 663.965 60.536C663.421 60.92 662.733 61.216 661.901 61.424C661.085 61.648 660.125 61.76 659.021 61.76C658.125 61.76 657.357 61.64 656.717 61.4C656.077 61.16 655.557 60.848 655.157 60.464C654.757 60.096 654.477 59.68 654.317 59.216C654.173 58.752 654.157 58.296 654.269 57.848C654.381 57.384 654.533 56.984 654.725 56.648C654.933 56.328 655.221 56.008 655.589 55.688C655.349 55.544 655.165 55.344 655.037 55.088C654.925 54.832 654.869 54.568 654.869 54.296C654.869 54.008 654.997 53.632 655.253 53.168C655.509 52.704 655.949 52.192 656.573 51.632C656.029 51.28 655.597 50.84 655.277 50.312C654.973 49.768 654.821 49.152 654.821 48.464ZM660.269 56.384C659.805 56.384 659.293 56.376 658.733 56.36C658.173 56.344 657.637 56.304 657.125 56.24C656.949 56.448 656.805 56.672 656.693 56.912C656.597 57.168 656.533 57.472 656.501 57.824C656.421 58.528 656.645 59.072 657.173 59.456C657.701 59.856 658.637 60.056 659.981 60.056C661.197 60.056 662.133 59.856 662.789 59.456C663.461 59.056 663.789 58.568 663.773 57.992C663.757 57.416 663.469 57 662.909 56.744C662.349 56.504 661.469 56.384 660.269 56.384ZM657.293 48.464C657.293 49.184 657.485 49.8 657.869 50.312C658.253 50.808 658.781 51.056 659.453 51.056C660.125 51.056 660.645 50.808 661.013 50.312C661.397 49.8 661.589 49.184 661.589 48.464C661.589 47.728 661.397 47.112 661.013 46.616C660.645 46.104 660.125 45.848 659.453 45.848C658.781 45.848 658.253 46.104 657.869 46.616C657.485 47.112 657.293 47.728 657.293 48.464Z" fill="#868E96"/>
<path d="M582.384 115.156C579.888 115.087 577.323 115.052 574.688 115.052C572.088 115.052 569.436 115.069 566.732 115.104V116.144C566.697 117.669 566.593 119.091 566.42 120.408C566.247 121.725 566.021 122.939 565.744 124.048C565.467 125.019 565.103 125.747 564.652 126.232C564.201 126.717 563.699 126.96 563.144 126.96C562.867 126.96 562.589 126.873 562.312 126.7C562.069 126.527 561.861 126.215 561.688 125.764C561.515 125.313 561.359 124.689 561.22 123.892C561.116 123.095 561.064 122.072 561.064 120.824L561.012 115.208C559.244 115.277 557.545 115.364 555.916 115.468C554.287 115.537 552.796 115.624 551.444 115.728C550.473 115.797 549.745 115.884 549.26 115.988C548.775 116.092 548.289 116.248 547.804 116.456C547.388 116.629 546.989 116.785 546.608 116.924C546.261 117.028 545.932 117.08 545.62 117.08C545.169 117.08 544.771 117.028 544.424 116.924C544.077 116.82 543.713 116.664 543.332 116.456C542.604 116.075 541.824 115.624 540.992 115.104C540.195 114.584 539.501 114.116 538.912 113.7C538.461 113.353 538.323 112.955 538.496 112.504C538.669 112.053 539.051 111.863 539.64 111.932C540.749 112.071 541.911 112.192 543.124 112.296C544.337 112.4 545.533 112.469 546.712 112.504C548.584 112.539 550.595 112.556 552.744 112.556C554.928 112.556 557.129 112.539 559.348 112.504C561.601 112.435 563.82 112.365 566.004 112.296C568.223 112.192 570.337 112.088 572.348 111.984C573.041 111.915 573.665 111.828 574.22 111.724C574.775 111.62 575.243 111.481 575.624 111.308C576.213 111.031 576.699 110.823 577.08 110.684C577.496 110.511 577.964 110.424 578.484 110.424C579.351 110.424 580.217 110.459 581.084 110.528C581.951 110.597 582.661 110.684 583.216 110.788C584.741 111.1 585.504 111.897 585.504 113.18C585.504 113.769 585.227 114.255 584.672 114.636C584.152 115.017 583.389 115.191 582.384 115.156ZM560.024 94.408C560.301 94.0267 560.44 93.628 560.44 93.212C560.475 92.7613 560.319 92.4147 559.972 92.172C559.591 91.8947 559.175 91.6347 558.724 91.392C558.308 91.1493 557.892 90.9413 557.476 90.768C556.991 90.56 556.783 90.248 556.852 89.832C556.887 89.5547 557.043 89.3467 557.32 89.208C557.632 89.0693 557.996 88.9653 558.412 88.896C558.932 88.8267 559.4 88.8267 559.816 88.896C560.232 88.9653 560.648 89.0347 561.064 89.104C562.069 89.312 563.023 89.5893 563.924 89.936C564.825 90.248 565.709 90.6467 566.576 91.132C567.269 91.5133 567.72 91.9813 567.928 92.536C568.136 93.0907 568.015 93.7147 567.564 94.408C567.113 95.1013 566.611 95.76 566.056 96.384C565.536 97.008 564.981 97.6147 564.392 98.204L568.188 99.608C569.02 99.92 569.817 100.163 570.58 100.336C571.377 100.509 572.227 100.596 573.128 100.596C573.821 100.631 574.428 100.7 574.948 100.804C575.468 100.873 575.971 101.047 576.456 101.324C577.149 101.844 577.756 102.329 578.276 102.78C578.831 103.231 579.316 103.681 579.732 104.132C580.356 104.86 580.495 105.657 580.148 106.524C579.628 107.529 578.241 107.512 575.988 106.472L562.208 100.128C560.925 101.168 559.556 102.139 558.1 103.04C556.644 103.907 555.153 104.704 553.628 105.432C552.103 106.16 550.56 106.819 549 107.408C547.475 107.997 546.001 108.5 544.58 108.916C544.164 109.02 543.817 109.003 543.54 108.864C543.263 108.691 543.072 108.465 542.968 108.188C542.864 107.876 542.864 107.564 542.968 107.252C543.072 106.94 543.315 106.697 543.696 106.524C545.325 105.761 546.955 104.877 548.584 103.872C550.248 102.867 551.808 101.827 553.264 100.752C554.72 99.6773 556.037 98.6027 557.216 97.528C558.395 96.4187 559.331 95.3787 560.024 94.408ZM556.8 131.952C558.672 131.952 560.509 131.935 562.312 131.9C564.149 131.865 566.056 131.813 568.032 131.744C568.448 131.709 568.847 131.64 569.228 131.536C569.644 131.467 570.043 131.328 570.424 131.12C570.805 130.912 571.239 130.721 571.724 130.548C572.209 130.409 572.677 130.34 573.128 130.34C573.821 130.34 574.532 130.357 575.26 130.392C576.023 130.461 576.699 130.548 577.288 130.652C577.981 130.791 578.484 131.033 578.796 131.38C579.108 131.761 579.264 132.212 579.264 132.732C579.264 133.321 579.056 133.789 578.64 134.136C578.259 134.517 577.635 134.708 576.768 134.708L555.864 134.864C553.437 134.899 551.739 134.587 550.768 133.928C549.832 133.269 549.347 132.125 549.312 130.496L549.104 124.516C548.619 124.273 548.029 124.048 547.336 123.84C546.643 123.632 546.001 123.441 545.412 123.268C544.719 123.095 544.372 122.713 544.372 122.124C544.372 121.812 544.597 121.517 545.048 121.24C545.533 120.963 546.175 120.824 546.972 120.824C548.185 120.824 549.416 120.876 550.664 120.98C551.947 121.084 553.021 121.223 553.888 121.396C554.581 121.535 555.032 121.743 555.24 122.02C555.483 122.263 555.604 122.609 555.604 123.06C555.604 123.337 555.587 123.58 555.552 123.788C555.552 123.996 555.535 124.239 555.5 124.516C555.465 124.793 555.431 125.071 555.396 125.348C555.396 125.625 555.396 125.903 555.396 126.18V130.132C555.396 130.825 555.517 131.293 555.76 131.536C556.003 131.813 556.349 131.952 556.8 131.952ZM595.02 101.532C594.604 101.255 594.049 100.977 593.356 100.7C592.663 100.388 591.969 100.145 591.276 99.972C590.687 99.7987 590.392 99.4693 590.392 98.984C590.392 98.6373 590.565 98.3773 590.912 98.204C591.293 97.996 591.761 97.8573 592.316 97.788C592.628 97.7533 592.975 97.736 593.356 97.736C593.772 97.736 594.223 97.7707 594.708 97.84C595.54 97.9093 596.407 98.048 597.308 98.256C598.209 98.4293 599.007 98.6373 599.7 98.88C600.289 99.0533 600.653 99.2613 600.792 99.504C600.965 99.7467 601.052 100.076 601.052 100.492C601.052 100.631 601.035 100.839 601 101.116C601 101.359 600.983 101.601 600.948 101.844C600.913 102.052 600.896 102.295 600.896 102.572C600.896 102.849 600.896 103.092 600.896 103.3V106.212L611.556 105.848L611.452 98.88C611.036 98.568 610.499 98.256 609.84 97.944C609.216 97.632 608.592 97.372 607.968 97.164C607.379 96.9907 607.084 96.6267 607.084 96.072C607.084 95.448 607.708 95.1013 608.956 95.032C609.268 94.9973 609.632 94.9973 610.048 95.032C610.499 95.032 610.967 95.0667 611.452 95.136C612.319 95.2747 613.185 95.4653 614.052 95.708C614.919 95.9507 615.699 96.2107 616.392 96.488C616.947 96.7307 617.293 96.9733 617.432 97.216C617.605 97.424 617.675 97.736 617.64 98.152C617.64 98.2907 617.623 98.464 617.588 98.672C617.553 98.88 617.519 99.088 617.484 99.296C617.415 99.7813 617.363 100.215 617.328 100.596C617.293 100.977 617.276 101.324 617.276 101.636L617.068 115.884C617.068 116.473 616.999 117.08 616.86 117.704C616.756 118.293 616.617 118.831 616.444 119.316C616.271 119.836 615.976 120.287 615.56 120.668C615.179 121.049 614.641 121.24 613.948 121.24C613.428 121.24 612.96 121.067 612.544 120.72C612.128 120.339 611.868 119.732 611.764 118.9L600.48 119.316C600.445 119.559 600.359 119.801 600.22 120.044C600.012 120.564 599.7 121.015 599.284 121.396C598.903 121.777 598.365 121.968 597.672 121.968C597.083 121.968 596.563 121.725 596.112 121.24C595.696 120.755 595.471 119.957 595.436 118.848L595.02 101.532ZM629.964 108.5L630.796 108.448C631.212 108.413 631.576 108.344 631.888 108.24C632.2 108.101 632.529 107.928 632.876 107.72C633.257 107.477 633.604 107.304 633.916 107.2C634.228 107.061 634.609 106.992 635.06 106.992C635.649 106.992 636.187 107.027 636.672 107.096C637.192 107.165 637.625 107.235 637.972 107.304C638.631 107.477 639.081 107.737 639.324 108.084C639.601 108.431 639.74 108.847 639.74 109.332C639.74 109.921 639.549 110.389 639.168 110.736C638.821 111.083 638.249 111.256 637.452 111.256L629.964 111.412L629.808 125.088C629.773 126.856 629.669 128.555 629.496 130.184C629.357 131.813 629.149 133.183 628.872 134.292C628.595 135.401 628.265 136.199 627.884 136.684C627.503 137.204 626.983 137.464 626.324 137.464C626.012 137.464 625.735 137.343 625.492 137.1C625.249 136.892 625.041 136.493 624.868 135.904C624.729 135.315 624.608 134.517 624.504 133.512C624.435 132.507 624.4 131.224 624.4 129.664L624.088 91.964C623.637 91.5827 623.048 91.184 622.32 90.768C621.627 90.3173 620.968 89.936 620.344 89.624C619.755 89.3467 619.46 88.9827 619.46 88.532C619.46 88.2547 619.633 88.012 619.98 87.804C620.361 87.5613 620.864 87.44 621.488 87.44C622.147 87.44 622.944 87.544 623.88 87.752C624.677 87.9253 625.561 88.168 626.532 88.48C627.537 88.7573 628.387 89.0867 629.08 89.468C629.669 89.78 630.051 90.0573 630.224 90.3C630.432 90.5427 630.536 90.872 630.536 91.288C630.536 91.4267 630.519 91.6347 630.484 91.912C630.449 92.1547 630.415 92.38 630.38 92.588C630.311 93.0733 630.259 93.4893 630.224 93.836C630.189 94.148 630.172 94.46 630.172 94.772L629.964 108.5ZM600.896 116.56L611.66 116.144L611.556 108.656L600.896 108.968V116.56ZM654.716 103.716C655.617 103.681 656.501 103.647 657.368 103.612C658.235 103.577 659.101 103.525 659.968 103.456C660.419 103.421 660.8 103.352 661.112 103.248C661.424 103.144 661.736 102.988 662.048 102.78C662.36 102.572 662.724 102.416 663.14 102.312C663.556 102.208 663.937 102.156 664.284 102.156C664.804 102.156 665.341 102.191 665.896 102.26C666.485 102.329 666.953 102.416 667.3 102.52C668.271 102.797 668.756 103.387 668.756 104.288C668.756 105.363 668.08 105.917 666.728 105.952L654.716 106.472V111.152C654.716 111.915 655.097 112.261 655.86 112.192C657.177 112.088 658.564 111.932 660.02 111.724C661.476 111.516 662.932 111.273 664.388 110.996C665.879 110.684 667.352 110.355 668.808 110.008C670.264 109.627 671.651 109.245 672.968 108.864C673.384 108.725 673.748 108.743 674.06 108.916C674.372 109.055 674.58 109.263 674.684 109.54C674.788 109.817 674.788 110.112 674.684 110.424C674.58 110.736 674.337 110.996 673.956 111.204C673.297 111.551 672.535 111.915 671.668 112.296C670.836 112.677 669.935 113.059 668.964 113.44C667.993 113.821 666.988 114.185 665.948 114.532C664.943 114.879 663.955 115.173 662.984 115.416C660.904 115.971 658.997 116.421 657.264 116.768C655.565 117.115 654.057 117.34 652.74 117.444C652.393 117.479 651.995 117.357 651.544 117.08C651.093 116.803 650.66 116.456 650.244 116.04C649.828 115.624 649.464 115.173 649.152 114.688C648.84 114.168 648.684 113.683 648.684 113.232L648.528 98.204C648.043 97.9613 647.453 97.736 646.76 97.528C646.067 97.32 645.425 97.1293 644.836 96.956C644.143 96.7827 643.796 96.4013 643.796 95.812C643.796 95.5 644.021 95.2227 644.472 94.98C644.957 94.7027 645.599 94.5467 646.396 94.512C649.169 94.4427 651.873 94.7373 654.508 95.396C655.375 95.396 656.293 95.3787 657.264 95.344C658.269 95.2747 659.24 95.2053 660.176 95.136C661.112 95.032 661.927 94.8067 662.62 94.46C663.071 94.2173 663.469 94.0613 663.816 93.992C664.197 93.888 664.579 93.836 664.96 93.836C665.515 93.836 666.069 93.8707 666.624 93.94C667.179 94.0093 667.629 94.0787 667.976 94.148C668.565 94.2867 668.981 94.512 669.224 94.824C669.467 95.1013 669.588 95.4827 669.588 95.968C669.588 96.488 669.415 96.9387 669.068 97.32C668.756 97.7013 668.201 97.892 667.404 97.892C665.428 97.9267 663.348 97.9787 661.164 98.048C659.015 98.0827 656.952 98.1347 654.976 98.204C654.976 98.308 654.941 98.4987 654.872 98.776C654.803 99.1227 654.768 99.3827 654.768 99.556L654.716 103.716ZM658.616 128.52C658.616 126.301 659.396 124.516 660.956 123.164C662.551 121.777 664.717 120.945 667.456 120.668C667.629 120.529 667.768 120.373 667.872 120.2C667.976 119.992 668.028 119.819 668.028 119.68C668.028 119.403 667.976 119.177 667.872 119.004C667.803 118.796 667.577 118.605 667.196 118.432C667.023 118.328 666.867 118.224 666.728 118.12C666.624 118.016 666.572 117.843 666.572 117.6C666.572 117.357 666.711 117.167 666.988 117.028C667.3 116.855 667.629 116.768 667.976 116.768C669.363 116.768 670.559 117.011 671.564 117.496C672.327 117.877 672.777 118.224 672.916 118.536C673.089 118.813 673.107 119.143 672.968 119.524C672.899 119.732 672.777 119.94 672.604 120.148C672.431 120.356 672.257 120.547 672.084 120.72C674.753 121.067 676.851 121.916 678.376 123.268C679.901 124.585 680.664 126.336 680.664 128.52C680.664 131.016 679.659 132.957 677.648 134.344C675.672 135.765 673.003 136.476 669.64 136.476C666.277 136.476 663.591 135.765 661.58 134.344C659.604 132.957 658.616 131.016 658.616 128.52ZM681.912 103.404L682.588 103.352C683.004 103.317 683.368 103.248 683.68 103.144C683.992 103.04 684.321 102.884 684.668 102.676C685.049 102.433 685.396 102.26 685.708 102.156C686.02 102.017 686.401 101.948 686.852 101.948C687.441 101.948 687.979 101.983 688.464 102.052C688.984 102.121 689.417 102.191 689.764 102.26C690.423 102.433 690.873 102.693 691.116 103.04C691.393 103.387 691.532 103.803 691.532 104.288C691.532 104.877 691.341 105.345 690.96 105.692C690.613 106.039 690.041 106.212 689.244 106.212L681.86 106.316L681.808 108.968C681.773 110.493 681.669 111.915 681.496 113.232C681.323 114.549 681.097 115.763 680.82 116.872C680.543 117.843 680.179 118.571 679.728 119.056C679.277 119.541 678.775 119.784 678.22 119.784C677.943 119.784 677.665 119.697 677.388 119.524C677.145 119.351 676.937 119.039 676.764 118.588C676.591 118.137 676.435 117.513 676.296 116.716C676.192 115.919 676.14 114.896 676.14 113.648L675.932 91.964C675.481 91.5827 674.892 91.184 674.164 90.768C673.471 90.3173 672.812 89.936 672.188 89.624C671.599 89.3467 671.304 88.9827 671.304 88.532C671.304 88.2547 671.477 88.012 671.824 87.804C672.205 87.5613 672.708 87.44 673.332 87.44C673.991 87.44 674.788 87.544 675.724 87.752C676.521 87.9253 677.405 88.168 678.376 88.48C679.381 88.7573 680.231 89.0867 680.924 89.468C681.513 89.78 681.895 90.0573 682.068 90.3C682.276 90.5427 682.38 90.872 682.38 91.288C682.38 91.4267 682.363 91.6347 682.328 91.912C682.293 92.1547 682.259 92.38 682.224 92.588C682.155 93.0733 682.103 93.4893 682.068 93.836C682.033 94.148 682.016 94.46 682.016 94.772L681.912 103.404ZM664.648 128.52C664.648 130.045 665.081 131.259 665.948 132.16C666.815 133.096 668.045 133.564 669.64 133.564C671.235 133.564 672.465 133.096 673.332 132.16C674.199 131.259 674.632 130.045 674.632 128.52C674.632 126.995 674.199 125.781 673.332 124.88C672.465 123.944 671.235 123.476 669.64 123.476C668.045 123.476 666.815 123.944 665.948 124.88C665.081 125.781 664.648 126.995 664.648 128.52Z" fill="#495057"/>
<path d="M548.912 184.448L549.168 184.432C549.296 184.421 549.408 184.4 549.504 184.368C549.6 184.325 549.701 184.272 549.808 184.208C549.925 184.133 550.032 184.08 550.128 184.048C550.224 184.005 550.341 183.984 550.48 183.984C550.661 183.984 550.827 183.995 550.976 184.016C551.136 184.037 551.269 184.059 551.376 184.08C551.579 184.133 551.717 184.213 551.792 184.32C551.877 184.427 551.92 184.555 551.92 184.704C551.92 184.885 551.861 185.029 551.744 185.136C551.637 185.243 551.461 185.296 551.216 185.296L548.912 185.344L548.864 189.104C548.853 189.648 548.821 190.171 548.768 190.672C548.725 191.173 548.661 191.595 548.576 191.936C548.491 192.277 548.389 192.523 548.272 192.672C548.155 192.832 547.995 192.912 547.792 192.912C547.696 192.912 547.611 192.875 547.536 192.8C547.461 192.736 547.397 192.613 547.344 192.432C547.301 192.251 547.264 192.005 547.232 191.696C547.211 191.387 547.2 190.992 547.2 190.512L547.104 178.912C546.965 178.795 546.784 178.672 546.56 178.544C546.347 178.405 546.144 178.288 545.952 178.192C545.771 178.107 545.68 177.995 545.68 177.856C545.68 177.771 545.733 177.696 545.84 177.632C545.957 177.557 546.112 177.52 546.304 177.52C546.507 177.52 546.752 177.552 547.04 177.616C547.285 177.669 547.557 177.744 547.856 177.84C548.165 177.925 548.427 178.027 548.64 178.144C548.821 178.24 548.939 178.325 548.992 178.4C549.056 178.475 549.088 178.576 549.088 178.704C549.088 178.747 549.083 178.811 549.072 178.896C549.061 178.971 549.051 179.04 549.04 179.104C549.019 179.253 549.003 179.381 548.992 179.488C548.981 179.584 548.976 179.68 548.976 179.776L548.912 184.448ZM537.152 188.768C537.824 188.331 538.464 187.856 539.072 187.344C539.68 186.832 540.235 186.283 540.736 185.696C541.237 185.099 541.675 184.464 542.048 183.792C542.432 183.109 542.725 182.389 542.928 181.632C542.789 181.632 542.624 181.637 542.432 181.648C542.251 181.659 542.064 181.675 541.872 181.696C541.691 181.707 541.509 181.723 541.328 181.744C541.157 181.765 541.008 181.792 540.88 181.824C540.795 181.845 540.704 181.877 540.608 181.92C540.512 181.952 540.421 181.989 540.336 182.032C540.144 182.128 539.963 182.176 539.792 182.176C539.643 182.176 539.472 182.139 539.28 182.064C539.077 181.979 538.859 181.877 538.624 181.76C538.4 181.632 538.197 181.515 538.016 181.408C537.931 181.365 537.872 181.307 537.84 181.232C537.819 181.157 537.819 181.088 537.84 181.024C537.861 180.96 537.904 180.912 537.968 180.88C538.032 180.837 538.112 180.821 538.208 180.832C538.421 180.853 538.635 180.875 538.848 180.896C539.072 180.907 539.291 180.912 539.504 180.912C540.069 180.912 540.608 180.896 541.12 180.864L542.976 180.72L543.584 180.304L544.64 180.496C545.12 180.581 545.36 180.763 545.36 181.04C545.36 181.189 545.323 181.328 545.248 181.456C545.173 181.573 545.077 181.691 544.96 181.808C544.725 182.704 544.357 183.541 543.856 184.32C543.365 185.099 542.784 185.808 542.112 186.448C541.451 187.088 540.725 187.659 539.936 188.16C539.147 188.661 538.352 189.088 537.552 189.44C537.424 189.493 537.312 189.504 537.216 189.472C537.12 189.429 537.045 189.371 536.992 189.296C536.949 189.211 536.939 189.12 536.96 189.024C536.981 188.928 537.045 188.843 537.152 188.768ZM564.768 183.968L565.008 183.952C565.136 183.941 565.248 183.92 565.344 183.888C565.44 183.845 565.541 183.792 565.648 183.728C565.765 183.653 565.872 183.6 565.968 183.568C566.064 183.525 566.181 183.504 566.32 183.504C566.501 183.504 566.667 183.515 566.816 183.536C566.976 183.557 567.109 183.579 567.216 183.6C567.419 183.653 567.557 183.733 567.632 183.84C567.717 183.947 567.76 184.075 567.76 184.224C567.76 184.405 567.701 184.549 567.584 184.656C567.477 184.763 567.301 184.816 567.056 184.816L564.752 184.864L564.704 189.264C564.693 189.733 564.661 190.208 564.608 190.688C564.565 191.179 564.501 191.595 564.416 191.936C564.331 192.277 564.229 192.523 564.112 192.672C563.995 192.832 563.835 192.912 563.632 192.912C563.536 192.912 563.451 192.875 563.376 192.8C563.301 192.736 563.237 192.613 563.184 192.432C563.141 192.251 563.104 192.005 563.072 191.696C563.051 191.387 563.04 190.992 563.04 190.512L562.944 178.912C562.805 178.795 562.624 178.672 562.4 178.544C562.187 178.405 561.984 178.288 561.792 178.192C561.611 178.107 561.52 177.995 561.52 177.856C561.52 177.771 561.573 177.696 561.68 177.632C561.797 177.557 561.952 177.52 562.144 177.52C562.24 177.52 562.341 177.531 562.448 177.552C562.565 177.573 562.699 177.595 562.848 177.616C563.093 177.659 563.371 177.728 563.68 177.824C564 177.92 564.267 178.027 564.48 178.144C564.661 178.24 564.779 178.325 564.832 178.4C564.896 178.475 564.928 178.576 564.928 178.704C564.928 178.747 564.923 178.811 564.912 178.896C564.901 178.971 564.891 179.04 564.88 179.104C564.859 179.253 564.843 179.381 564.832 179.488C564.821 179.584 564.816 179.68 564.816 179.776L564.768 183.968ZM554.304 181.984C554.155 181.888 553.973 181.803 553.76 181.728C553.547 181.653 553.349 181.589 553.168 181.536C552.955 181.483 552.848 181.365 552.848 181.184C552.848 181.088 552.917 180.997 553.056 180.912C553.205 180.816 553.403 180.773 553.648 180.784C554.021 180.795 554.405 180.827 554.8 180.88C555.205 180.933 555.541 181.003 555.808 181.088C556.021 181.152 556.16 181.221 556.224 181.296C556.299 181.36 556.336 181.461 556.336 181.6C556.336 181.685 556.331 181.765 556.32 181.84C556.32 181.915 556.315 181.995 556.304 182.08C556.293 182.165 556.283 182.256 556.272 182.352C556.272 182.437 556.272 182.533 556.272 182.64L556.256 186.176C556.256 186.411 556.373 186.517 556.608 186.496C556.971 186.464 557.381 186.411 557.84 186.336C558.299 186.261 558.768 186.176 559.248 186.08C559.739 185.973 560.219 185.856 560.688 185.728C561.168 185.6 561.611 185.467 562.016 185.328C562.144 185.285 562.256 185.285 562.352 185.328C562.448 185.371 562.512 185.435 562.544 185.52C562.587 185.605 562.592 185.696 562.56 185.792C562.528 185.888 562.459 185.968 562.352 186.032C561.947 186.256 561.44 186.496 560.832 186.752C560.235 187.008 559.605 187.243 558.944 187.456C558.304 187.669 557.691 187.84 557.104 187.968C556.528 188.085 556.037 188.16 555.632 188.192C555.525 188.203 555.403 188.165 555.264 188.08C555.125 187.995 554.992 187.888 554.864 187.76C554.736 187.632 554.624 187.493 554.528 187.344C554.432 187.184 554.384 187.035 554.384 186.896L554.304 181.984ZM580.912 183.968L581.168 183.952C581.296 183.941 581.408 183.92 581.504 183.888C581.6 183.845 581.701 183.792 581.808 183.728C581.925 183.653 582.032 183.6 582.128 183.568C582.224 183.525 582.341 183.504 582.48 183.504C582.661 183.504 582.827 183.515 582.976 183.536C583.136 183.557 583.269 183.579 583.376 183.6C583.579 183.653 583.717 183.733 583.792 183.84C583.877 183.947 583.92 184.075 583.92 184.224C583.92 184.405 583.861 184.549 583.744 184.656C583.637 184.763 583.461 184.816 583.216 184.816L580.912 184.864L580.864 189.104C580.853 189.648 580.821 190.171 580.768 190.672C580.725 191.173 580.661 191.595 580.576 191.936C580.491 192.277 580.389 192.523 580.272 192.672C580.155 192.832 579.995 192.912 579.792 192.912C579.696 192.912 579.611 192.875 579.536 192.8C579.461 192.736 579.397 192.613 579.344 192.432C579.301 192.251 579.264 192.005 579.232 191.696C579.211 191.387 579.2 190.992 579.2 190.512L579.104 178.912C578.965 178.795 578.784 178.672 578.56 178.544C578.347 178.405 578.144 178.288 577.952 178.192C577.771 178.107 577.68 177.995 577.68 177.856C577.68 177.771 577.733 177.696 577.84 177.632C577.957 177.557 578.112 177.52 578.304 177.52C578.507 177.52 578.752 177.552 579.04 177.616C579.285 177.669 579.557 177.744 579.856 177.84C580.165 177.925 580.427 178.027 580.64 178.144C580.821 178.24 580.939 178.325 580.992 178.4C581.056 178.475 581.088 178.576 581.088 178.704C581.088 178.747 581.083 178.811 581.072 178.896C581.061 178.971 581.051 179.04 581.04 179.104C581.019 179.253 581.003 179.381 580.992 179.488C580.981 179.584 580.976 179.68 580.976 179.776L580.912 183.968ZM572.336 186.272C572.336 186.507 572.453 186.613 572.688 186.592C573.051 186.56 573.461 186.507 573.92 186.432C574.389 186.357 574.864 186.267 575.344 186.16C575.835 186.053 576.315 185.936 576.784 185.808C577.264 185.68 577.707 185.547 578.112 185.408C578.24 185.365 578.352 185.365 578.448 185.408C578.544 185.451 578.608 185.515 578.64 185.6C578.683 185.685 578.688 185.776 578.656 185.872C578.624 185.968 578.555 186.048 578.448 186.112C578.043 186.336 577.536 186.576 576.928 186.832C576.331 187.088 575.701 187.323 575.04 187.536C574.4 187.749 573.787 187.92 573.2 188.048C572.624 188.165 572.133 188.24 571.728 188.272C571.621 188.283 571.499 188.245 571.36 188.16C571.221 188.075 571.088 187.968 570.96 187.84C570.832 187.712 570.72 187.573 570.624 187.424C570.528 187.264 570.48 187.115 570.48 186.976L570.432 181.936C570.283 181.861 570.101 181.792 569.888 181.728C569.675 181.664 569.477 181.605 569.296 181.552C569.083 181.499 568.976 181.392 568.976 181.232C568.976 181.115 569.04 181.019 569.168 180.944C569.307 180.859 569.515 180.811 569.792 180.8C570.165 180.789 570.56 180.805 570.976 180.848C571.403 180.891 571.835 180.965 572.272 181.072C572.539 181.061 572.827 181.051 573.136 181.04C573.445 181.029 573.707 181.013 573.92 180.992C574.069 180.981 574.203 180.96 574.32 180.928C574.437 180.885 574.555 180.837 574.672 180.784C574.811 180.709 574.933 180.661 575.04 180.64C575.157 180.608 575.275 180.592 575.392 180.592C575.563 180.592 575.733 180.603 575.904 180.624C576.075 180.645 576.213 180.667 576.32 180.688C576.501 180.731 576.629 180.8 576.704 180.896C576.779 180.981 576.816 181.093 576.816 181.232C576.816 181.381 576.763 181.515 576.656 181.632C576.56 181.749 576.389 181.808 576.144 181.808C575.536 181.819 574.912 181.835 574.272 181.856C573.632 181.867 573.008 181.883 572.4 181.904L572.336 186.272Z" fill="#ADB5BD"/>
<path d="M607.008 189.392C607.051 189.552 607.179 189.632 607.392 189.632H607.568C607.867 189.632 608.016 189.728 608.016 189.92C608.016 190.08 607.861 190.16 607.552 190.16H604.784C604.475 190.16 604.32 190.08 604.32 189.92C604.32 189.728 604.469 189.632 604.768 189.632H604.944C605.04 189.632 605.141 189.595 605.248 189.52C605.355 189.445 605.451 189.339 605.536 189.2C605.621 189.051 605.712 188.869 605.808 188.656C605.915 188.443 606.021 188.197 606.128 187.92L609.536 179.344H610.384L613.84 187.92C613.957 188.197 614.059 188.443 614.144 188.656C614.24 188.869 614.331 189.051 614.416 189.2C614.501 189.339 614.597 189.445 614.704 189.52C614.821 189.595 614.928 189.632 615.024 189.632H615.2C615.499 189.632 615.648 189.728 615.648 189.92C615.648 190.08 615.493 190.16 615.184 190.16H611.776C611.467 190.16 611.312 190.08 611.312 189.92C611.312 189.728 611.461 189.632 611.76 189.632H612.032C612.256 189.632 612.368 189.552 612.368 189.392C612.368 189.275 612.347 189.152 612.304 189.024C612.272 188.896 612.229 188.763 612.176 188.624L611.52 186.848H607.872L607.168 188.624C607.115 188.763 607.067 188.907 607.024 189.056C606.992 189.195 606.987 189.307 607.008 189.392ZM609.76 182.096L608.192 186.016H611.2L609.76 182.096ZM619.777 184.24C620.001 184.261 620.251 184.277 620.529 184.288C620.817 184.299 621.067 184.304 621.281 184.304C621.601 184.304 621.899 184.272 622.177 184.208C622.465 184.144 622.715 184.043 622.929 183.904C623.142 183.755 623.313 183.563 623.441 183.328C623.569 183.083 623.633 182.784 623.633 182.432C623.633 181.909 623.435 181.472 623.041 181.12C622.646 180.757 622.038 180.576 621.217 180.576C620.95 180.576 620.699 180.581 620.465 180.592C620.241 180.603 620.011 180.629 619.777 180.672V184.24ZM621.601 189.248C622.39 189.248 623.003 189.093 623.441 188.784C623.889 188.464 624.113 188.011 624.113 187.424C624.113 187.147 624.049 186.875 623.921 186.608C623.803 186.331 623.622 186.085 623.377 185.872C623.142 185.648 622.838 185.472 622.465 185.344C622.102 185.205 621.675 185.136 621.185 185.136C620.939 185.136 620.689 185.136 620.433 185.136C620.177 185.136 619.958 185.147 619.777 185.168V189.168C620.011 189.189 620.267 189.211 620.545 189.232C620.833 189.243 621.185 189.248 621.601 189.248ZM621.361 179.664C621.883 179.664 622.385 179.717 622.865 179.824C623.355 179.931 623.787 180.101 624.161 180.336C624.534 180.56 624.833 180.853 625.057 181.216C625.281 181.568 625.393 181.995 625.393 182.496C625.393 182.688 625.355 182.896 625.281 183.12C625.217 183.333 625.121 183.547 624.993 183.76C624.865 183.963 624.705 184.155 624.513 184.336C624.321 184.517 624.102 184.656 623.857 184.752C624.134 184.837 624.395 184.971 624.641 185.152C624.886 185.333 625.099 185.541 625.281 185.776C625.462 186.011 625.601 186.261 625.697 186.528C625.803 186.784 625.857 187.04 625.857 187.296C625.857 187.84 625.734 188.293 625.489 188.656C625.254 189.019 624.939 189.312 624.545 189.536C624.161 189.76 623.723 189.92 623.233 190.016C622.742 190.112 622.246 190.16 621.745 190.16H617.025C616.747 190.16 616.609 190.075 616.609 189.904C616.609 189.723 616.737 189.632 616.993 189.632H617.377C617.611 189.632 617.798 189.483 617.937 189.184C617.99 189.056 618.027 188.901 618.049 188.72C618.07 188.539 618.081 188.32 618.081 188.064V181.76C618.081 181.504 618.07 181.285 618.049 181.104C618.027 180.923 617.99 180.768 617.937 180.64C617.798 180.341 617.611 180.192 617.377 180.192H616.993C616.737 180.192 616.609 180.101 616.609 179.92C616.609 179.749 616.747 179.664 617.025 179.664H621.361ZM636.365 187.392C636.621 187.04 636.882 186.939 637.149 187.088C637.266 187.152 637.325 187.259 637.325 187.408C637.335 187.557 637.293 187.707 637.197 187.856C637.047 188.069 636.85 188.331 636.605 188.64C636.37 188.939 636.066 189.227 635.693 189.504C635.33 189.771 634.898 190 634.397 190.192C633.895 190.384 633.319 190.48 632.669 190.48C631.986 190.48 631.346 190.352 630.749 190.096C630.151 189.84 629.634 189.477 629.197 189.008C628.759 188.528 628.413 187.952 628.157 187.28C627.901 186.608 627.773 185.856 627.773 185.024C627.773 184.192 627.89 183.429 628.125 182.736C628.37 182.043 628.711 181.445 629.149 180.944C629.597 180.432 630.135 180.037 630.765 179.76C631.394 179.483 632.103 179.344 632.893 179.344C633.341 179.344 633.751 179.419 634.125 179.568C634.498 179.707 634.807 179.861 635.053 180.032C635.17 180.117 635.261 180.187 635.325 180.24C635.399 180.293 635.469 180.32 635.533 180.32C635.597 180.32 635.655 180.272 635.709 180.176C635.773 180.08 635.842 179.957 635.917 179.808C635.97 179.691 636.029 179.6 636.093 179.536C636.167 179.461 636.258 179.424 636.365 179.424C636.621 179.424 636.759 179.589 636.781 179.92L637.005 182.752C637.026 182.965 637.01 183.141 636.957 183.28C636.903 183.408 636.802 183.483 636.653 183.504C636.397 183.536 636.178 183.333 635.997 182.896C635.879 182.629 635.73 182.347 635.549 182.048C635.378 181.739 635.17 181.456 634.925 181.2C634.69 180.944 634.413 180.731 634.093 180.56C633.773 180.389 633.41 180.304 633.005 180.304C632.493 180.304 632.023 180.405 631.597 180.608C631.181 180.8 630.818 181.093 630.509 181.488C630.199 181.883 629.959 182.379 629.789 182.976C629.618 183.563 629.533 184.251 629.533 185.04C629.533 185.68 629.629 186.277 629.821 186.832C630.013 187.376 630.269 187.851 630.589 188.256C630.919 188.651 631.298 188.96 631.725 189.184C632.162 189.408 632.626 189.52 633.117 189.52C633.501 189.52 633.858 189.445 634.189 189.296C634.53 189.136 634.834 188.949 635.101 188.736C635.378 188.512 635.623 188.283 635.837 188.048C636.05 187.803 636.226 187.584 636.365 187.392Z" fill="#ADB5BD"/>
<path d="M666.824 189.504C666.707 189.611 666.573 189.723 666.424 189.84C666.275 189.957 666.12 190.064 665.96 190.16C665.811 190.256 665.661 190.331 665.512 190.384C665.363 190.448 665.229 190.48 665.112 190.48C664.899 190.48 664.707 190.4 664.536 190.24C664.376 190.08 664.253 189.845 664.168 189.536C663.891 189.781 663.549 190 663.144 190.192C662.749 190.384 662.349 190.48 661.944 190.48C661.539 190.48 661.192 190.427 660.904 190.32C660.616 190.224 660.381 190.091 660.2 189.92C660.019 189.739 659.88 189.531 659.784 189.296C659.699 189.051 659.656 188.789 659.656 188.512C659.645 188.032 659.821 187.6 660.184 187.216C660.557 186.821 661.075 186.475 661.736 186.176C662.141 185.995 662.525 185.829 662.888 185.68C663.261 185.531 663.651 185.392 664.056 185.264V184.496C664.056 184.24 664.013 184.037 663.928 183.888C663.853 183.739 663.752 183.621 663.624 183.536C663.507 183.451 663.373 183.397 663.224 183.376C663.085 183.344 662.952 183.328 662.824 183.328C662.675 183.328 662.536 183.355 662.408 183.408C662.28 183.461 662.173 183.531 662.088 183.616C662.003 183.691 661.933 183.776 661.88 183.872C661.837 183.957 661.821 184.037 661.832 184.112L661.848 184.288C661.869 184.544 661.779 184.747 661.576 184.896C661.373 185.045 661.112 185.136 660.792 185.168C660.643 185.189 660.509 185.173 660.392 185.12C660.275 185.067 660.179 184.997 660.104 184.912C660.029 184.816 659.976 184.704 659.944 184.576C659.923 184.448 659.933 184.32 659.976 184.192C660.157 183.669 660.504 183.232 661.016 182.88C661.539 182.528 662.168 182.352 662.904 182.352C663.832 182.352 664.531 182.523 665 182.864C665.48 183.205 665.72 183.728 665.72 184.432V188.912C665.72 189.179 665.827 189.275 666.04 189.2L666.52 189.008C666.627 188.976 666.717 188.96 666.792 188.96C666.877 188.949 666.941 188.987 666.984 189.072C667.027 189.157 667.027 189.237 666.984 189.312C666.941 189.387 666.888 189.451 666.824 189.504ZM664.056 186.272C663.811 186.357 663.565 186.453 663.32 186.56C663.085 186.656 662.867 186.763 662.664 186.88C662.195 187.147 661.848 187.408 661.624 187.664C661.411 187.909 661.315 188.171 661.336 188.448C661.357 188.651 661.443 188.848 661.592 189.04C661.741 189.221 661.955 189.312 662.232 189.312C662.499 189.312 662.803 189.237 663.144 189.088C663.496 188.939 663.8 188.747 664.056 188.512V186.272ZM668.358 182.016C668.358 181.397 668.342 180.901 668.31 180.528C668.289 180.379 668.262 180.267 668.23 180.192C668.209 180.107 668.113 180.096 667.942 180.16L667.542 180.32C667.35 180.395 667.206 180.411 667.11 180.368C667.014 180.325 666.95 180.256 666.918 180.16C666.886 180.075 666.897 179.989 666.95 179.904C667.004 179.808 667.084 179.733 667.19 179.68L669.334 178.56C669.537 178.453 669.702 178.427 669.83 178.48C669.969 178.533 670.038 178.667 670.038 178.88V182.912C670.262 182.763 670.534 182.635 670.854 182.528C671.185 182.411 671.553 182.352 671.958 182.352C672.428 182.352 672.849 182.443 673.222 182.624C673.606 182.795 673.926 183.04 674.182 183.36C674.449 183.68 674.652 184.069 674.79 184.528C674.929 184.987 674.998 185.499 674.998 186.064C674.998 186.384 674.961 186.704 674.886 187.024C674.812 187.344 674.705 187.653 674.566 187.952C674.438 188.251 674.284 188.533 674.102 188.8C673.921 189.056 673.724 189.275 673.51 189.456C673.233 189.701 672.902 189.904 672.518 190.064C672.145 190.235 671.681 190.32 671.126 190.32C670.668 190.32 670.193 190.219 669.702 190.016C669.212 189.824 668.764 189.579 668.358 189.28V182.016ZM670.038 188.864C670.188 189.045 670.374 189.173 670.598 189.248C670.822 189.312 671.073 189.344 671.35 189.344C671.574 189.344 671.798 189.291 672.022 189.184C672.246 189.067 672.449 188.88 672.63 188.624C672.705 188.528 672.774 188.4 672.838 188.24C672.902 188.08 672.956 187.904 672.998 187.712C673.052 187.52 673.089 187.317 673.11 187.104C673.142 186.891 673.158 186.683 673.158 186.48C673.158 186.053 673.121 185.653 673.046 185.28C672.972 184.907 672.86 184.587 672.71 184.32C672.572 184.053 672.39 183.845 672.166 183.696C671.953 183.536 671.708 183.456 671.43 183.456C671.121 183.456 670.838 183.557 670.582 183.76C670.326 183.963 670.145 184.203 670.038 184.48V188.864ZM683.621 187.968C683.482 188.32 683.301 188.651 683.077 188.96C682.853 189.259 682.586 189.52 682.277 189.744C681.978 189.968 681.642 190.144 681.269 190.272C680.896 190.411 680.49 190.48 680.053 190.48C679.52 190.48 679.04 190.373 678.613 190.16C678.186 189.957 677.824 189.675 677.525 189.312C677.226 188.949 676.997 188.517 676.837 188.016C676.677 187.515 676.597 186.971 676.597 186.384C676.597 185.797 676.698 185.259 676.901 184.768C677.104 184.267 677.376 183.84 677.717 183.488C678.069 183.125 678.48 182.848 678.949 182.656C679.418 182.453 679.92 182.352 680.453 182.352C680.837 182.352 681.21 182.411 681.573 182.528C681.946 182.635 682.256 182.779 682.501 182.96C682.8 183.173 683.013 183.392 683.141 183.616C683.269 183.829 683.344 184.011 683.365 184.16C683.397 184.469 683.306 184.709 683.093 184.88C682.89 185.051 682.64 185.147 682.341 185.168C682.128 185.189 681.936 185.157 681.765 185.072C681.594 184.976 681.466 184.853 681.381 184.704C681.328 184.597 681.28 184.491 681.237 184.384C681.205 184.267 681.162 184.112 681.109 183.92C681.077 183.771 680.981 183.637 680.821 183.52C680.661 183.403 680.453 183.344 680.197 183.344C679.952 183.344 679.717 183.419 679.493 183.568C679.269 183.707 679.072 183.909 678.901 184.176C678.73 184.443 678.597 184.763 678.501 185.136C678.405 185.509 678.357 185.925 678.357 186.384C678.357 187.355 678.549 188.08 678.933 188.56C679.317 189.04 679.813 189.28 680.421 189.28C680.645 189.28 680.858 189.237 681.061 189.152C681.274 189.056 681.477 188.933 681.669 188.784C681.861 188.635 682.042 188.464 682.213 188.272C682.384 188.069 682.533 187.856 682.661 187.632C682.757 187.461 682.874 187.344 683.013 187.28C683.152 187.205 683.306 187.211 683.477 187.296C683.616 187.371 683.685 187.472 683.685 187.6C683.685 187.728 683.664 187.851 683.621 187.968Z" fill="#ADB5BD"/>
<path d="M708.344 190.16C708.141 190.16 707.992 190.139 707.896 190.096C707.811 190.053 707.768 189.968 707.768 189.84C707.768 189.616 707.949 189.504 708.312 189.504H708.504C708.739 189.504 708.925 189.381 709.064 189.136C709.128 189.019 709.165 188.88 709.176 188.72C709.197 188.549 709.208 188.331 709.208 188.064V182.72C709.208 182.411 709.208 182.139 709.208 181.904C709.208 181.669 709.203 181.456 709.192 181.264C709.192 181.179 709.16 181.104 709.096 181.04C709.032 180.965 708.941 180.944 708.824 180.976L708.2 181.184C708.029 181.237 707.885 181.259 707.768 181.248C707.651 181.227 707.565 181.157 707.512 181.04C707.469 180.955 707.469 180.864 707.512 180.768C707.555 180.661 707.64 180.581 707.768 180.528L710.248 179.44C710.483 179.333 710.648 179.307 710.744 179.36C710.851 179.413 710.904 179.536 710.904 179.728V188.064C710.904 188.533 710.957 188.891 711.064 189.136C711.117 189.264 711.192 189.36 711.288 189.424C711.384 189.477 711.491 189.504 711.608 189.504H711.864C712.227 189.504 712.408 189.616 712.408 189.84C712.408 189.968 712.36 190.053 712.264 190.096C712.179 190.139 712.035 190.16 711.832 190.16H708.344ZM716.838 182.224C716.646 182.576 716.374 182.72 716.022 182.656C715.862 182.624 715.75 182.528 715.686 182.368C715.632 182.208 715.643 182.021 715.718 181.808C715.974 181.072 716.384 180.48 716.95 180.032C717.515 179.573 718.192 179.344 718.982 179.344C719.472 179.344 719.904 179.419 720.278 179.568C720.662 179.717 720.987 179.92 721.254 180.176C721.52 180.432 721.723 180.736 721.862 181.088C722 181.429 722.07 181.797 722.07 182.192C722.07 182.939 721.872 183.653 721.478 184.336C721.083 185.019 720.555 185.755 719.894 186.544C719.414 187.109 718.992 187.621 718.63 188.08C718.267 188.528 717.931 188.901 717.622 189.2H719.606C719.926 189.2 720.203 189.179 720.438 189.136C720.672 189.093 720.896 188.997 721.11 188.848C721.259 188.741 721.408 188.613 721.558 188.464C721.718 188.304 721.888 188.112 722.07 187.888C722.304 187.6 722.528 187.493 722.742 187.568C722.87 187.621 722.944 187.707 722.966 187.824C722.987 187.941 722.976 188.059 722.934 188.176L722.262 190.16H715.414V189.76C716.256 188.928 716.955 188.165 717.51 187.472C718.075 186.779 718.576 186.144 719.014 185.568C719.408 185.045 719.718 184.523 719.942 184C720.166 183.477 720.278 183.019 720.278 182.624C720.278 182.027 720.155 181.547 719.91 181.184C719.664 180.811 719.259 180.624 718.694 180.624C718.288 180.624 717.936 180.784 717.638 181.104C717.339 181.424 717.072 181.797 716.838 182.224ZM725.315 181.424C725.582 180.848 725.987 180.357 726.531 179.952C727.086 179.547 727.752 179.344 728.531 179.344C729.043 179.344 729.486 179.413 729.859 179.552C730.232 179.691 730.536 179.872 730.771 180.096C731.006 180.309 731.176 180.555 731.283 180.832C731.4 181.109 731.459 181.387 731.459 181.664C731.459 182.197 731.315 182.661 731.027 183.056C730.739 183.451 730.366 183.776 729.907 184.032C730.302 184.139 730.638 184.288 730.915 184.48C731.203 184.672 731.438 184.896 731.619 185.152C731.8 185.397 731.934 185.669 732.019 185.968C732.104 186.267 732.147 186.571 732.147 186.88C732.147 188 731.747 188.88 730.947 189.52C730.147 190.16 728.936 190.48 727.315 190.48C727.016 190.48 726.723 190.443 726.435 190.368C726.158 190.293 725.912 190.203 725.699 190.096C725.486 189.989 725.31 189.877 725.171 189.76C725.043 189.643 724.979 189.536 724.979 189.44C724.979 189.312 725.006 189.195 725.059 189.088C725.112 188.971 725.182 188.869 725.267 188.784C725.363 188.688 725.47 188.619 725.587 188.576C725.704 188.523 725.822 188.501 725.939 188.512C726.088 188.533 726.243 188.587 726.403 188.672C726.563 188.747 726.712 188.827 726.851 188.912C727.086 189.061 727.315 189.2 727.539 189.328C727.763 189.445 728.003 189.504 728.259 189.504C728.963 189.504 729.502 189.291 729.875 188.864C730.248 188.437 730.435 187.851 730.435 187.104C730.435 186.837 730.376 186.581 730.259 186.336C730.152 186.091 729.992 185.877 729.779 185.696C729.566 185.515 729.299 185.371 728.979 185.264C728.659 185.147 728.291 185.088 727.875 185.088C727.822 185.088 727.747 185.088 727.651 185.088C727.555 185.088 727.454 185.093 727.347 185.104C727.251 185.104 727.155 185.104 727.059 185.104C726.974 185.104 726.91 185.104 726.867 185.104V184.464C727.23 184.4 727.582 184.293 727.923 184.144C728.275 183.984 728.579 183.797 728.835 183.584C729.102 183.36 729.315 183.109 729.475 182.832C729.635 182.555 729.715 182.256 729.715 181.936C729.715 181.499 729.582 181.157 729.315 180.912C729.048 180.667 728.686 180.544 728.227 180.544C727.886 180.544 727.55 180.683 727.219 180.96C726.899 181.227 726.622 181.525 726.387 181.856C726.12 182.229 725.838 182.352 725.539 182.224C725.379 182.16 725.278 182.059 725.235 181.92C725.203 181.771 725.23 181.605 725.315 181.424Z" fill="#ADB5BD"/>
<path d="M766.048 181.792L764.72 186.048C764.645 186.293 764.581 186.517 764.528 186.72C764.475 186.912 764.427 187.099 764.384 187.28C764.299 187.611 764.288 187.861 764.352 188.032C764.416 188.203 764.523 188.288 764.672 188.288C765.056 188.288 765.408 188.149 765.728 187.872C766.059 187.595 766.341 187.237 766.576 186.8C766.821 186.352 767.008 185.851 767.136 185.296C767.275 184.741 767.344 184.181 767.344 183.616C767.344 183.04 767.232 182.491 767.008 181.968C766.784 181.435 766.475 180.971 766.08 180.576C765.685 180.171 765.211 179.851 764.656 179.616C764.101 179.371 763.499 179.248 762.848 179.248C761.867 179.248 760.997 179.451 760.24 179.856C759.483 180.261 758.848 180.795 758.336 181.456C757.824 182.107 757.435 182.848 757.168 183.68C756.912 184.512 756.784 185.355 756.784 186.208C756.784 186.997 756.907 187.744 757.152 188.448C757.408 189.152 757.771 189.765 758.24 190.288C758.72 190.821 759.296 191.243 759.968 191.552C760.651 191.861 761.424 192.016 762.288 192.016C762.907 192.016 763.504 191.92 764.08 191.728C764.667 191.536 765.211 191.264 765.712 190.912C766.224 190.56 766.688 190.139 767.104 189.648C767.52 189.147 767.872 188.587 768.16 187.968H769.168C768.901 188.725 768.533 189.419 768.064 190.048C767.605 190.688 767.072 191.232 766.464 191.68C765.867 192.139 765.205 192.491 764.48 192.736C763.765 192.992 763.019 193.12 762.24 193.12C761.131 193.12 760.128 192.928 759.232 192.544C758.347 192.16 757.589 191.643 756.96 190.992C756.331 190.341 755.845 189.589 755.504 188.736C755.163 187.872 754.992 186.96 754.992 186C754.992 184.965 755.189 183.979 755.584 183.04C755.989 182.101 756.544 181.28 757.248 180.576C757.952 179.861 758.779 179.296 759.728 178.88C760.677 178.464 761.701 178.256 762.8 178.256C763.685 178.256 764.501 178.4 765.248 178.688C765.995 178.965 766.64 179.355 767.184 179.856C767.728 180.347 768.155 180.928 768.464 181.6C768.773 182.261 768.928 182.981 768.928 183.76C768.928 184.123 768.875 184.512 768.768 184.928C768.672 185.344 768.528 185.76 768.336 186.176C768.155 186.581 767.92 186.976 767.632 187.36C767.355 187.733 767.035 188.064 766.672 188.352C766.309 188.64 765.904 188.869 765.456 189.04C765.019 189.211 764.544 189.296 764.032 189.296C763.637 189.296 763.307 189.195 763.04 188.992C762.784 188.779 762.629 188.485 762.576 188.112C762.213 188.475 761.835 188.763 761.44 188.976C761.045 189.189 760.565 189.296 760 189.296C759.637 189.296 759.333 189.179 759.088 188.944C758.843 188.709 758.672 188.389 758.576 187.984C758.48 187.579 758.464 187.109 758.528 186.576C758.592 186.032 758.752 185.461 759.008 184.864C759.488 183.765 760.037 182.981 760.656 182.512C761.285 182.032 762.011 181.792 762.832 181.792C763.109 181.792 763.344 181.856 763.536 181.984C763.728 182.101 763.877 182.251 763.984 182.432L764.096 182.08L766.048 181.792ZM762.912 182.56C762.656 182.56 762.411 182.672 762.176 182.896C761.941 183.109 761.723 183.371 761.52 183.68C761.317 183.979 761.136 184.293 760.976 184.624C760.827 184.955 760.704 185.227 760.608 185.44C760.576 185.515 760.533 185.632 760.48 185.792C760.427 185.952 760.373 186.133 760.32 186.336C760.277 186.539 760.24 186.747 760.208 186.96C760.187 187.163 760.181 187.355 760.192 187.536C760.213 187.707 760.261 187.851 760.336 187.968C760.421 188.075 760.544 188.128 760.704 188.128C760.939 188.128 761.168 188.037 761.392 187.856C761.627 187.664 761.84 187.429 762.032 187.152C762.235 186.875 762.416 186.581 762.576 186.272C762.736 185.963 762.864 185.68 762.96 185.424C762.992 185.328 763.035 185.205 763.088 185.056C763.141 184.907 763.189 184.747 763.232 184.576C763.285 184.395 763.328 184.208 763.36 184.016C763.392 183.824 763.408 183.637 763.408 183.456C763.408 183.243 763.371 183.04 763.296 182.848C763.221 182.656 763.093 182.56 762.912 182.56ZM779.265 185.936V186.992H776.961L776.225 190.592H774.785L775.521 186.992H773.473L772.737 190.592H771.297L772.033 186.992H770.529V185.936H772.241L772.705 183.664H770.689V182.656H772.913L773.633 179.216H775.073L774.353 182.656H776.417L777.137 179.216H778.577L777.857 182.656H779.425V183.664H777.649L777.185 185.936H779.265ZM773.681 185.936H775.745L776.209 183.664H774.145L773.681 185.936ZM784.096 188H783.168L782.448 180.96C782.438 180.843 782.427 180.736 782.416 180.64C782.416 180.533 782.416 180.443 782.416 180.368C782.416 180.005 782.534 179.717 782.768 179.504C783.003 179.28 783.296 179.168 783.648 179.168C783.99 179.168 784.278 179.28 784.512 179.504C784.747 179.717 784.864 180.032 784.864 180.448C784.864 180.544 784.864 180.635 784.864 180.72C784.864 180.805 784.859 180.891 784.848 180.976L784.096 188ZM782.512 189.792C782.512 189.493 782.619 189.237 782.832 189.024C783.046 188.811 783.302 188.704 783.6 188.704C783.899 188.704 784.155 188.811 784.368 189.024C784.582 189.237 784.688 189.493 784.688 189.792C784.688 190.091 784.582 190.347 784.368 190.56C784.155 190.773 783.899 190.88 783.6 190.88C783.302 190.88 783.046 190.773 782.832 190.56C782.619 190.347 782.512 190.091 782.512 189.792ZM791.535 188C791.557 187.605 791.594 187.248 791.647 186.928C791.701 186.608 791.77 186.304 791.855 186.016C791.941 185.728 792.053 185.445 792.191 185.168C792.33 184.88 792.501 184.576 792.703 184.256C792.991 183.797 793.194 183.403 793.311 183.072C793.439 182.731 793.503 182.395 793.503 182.064C793.503 181.456 793.349 180.96 793.039 180.576C792.741 180.192 792.346 180 791.855 180C791.642 180 791.455 180.053 791.295 180.16C791.135 180.256 791.013 180.379 790.927 180.528C790.842 180.677 790.794 180.843 790.783 181.024C790.783 181.205 790.842 181.381 790.959 181.552C791.151 181.893 791.247 182.117 791.247 182.224C791.247 182.416 791.167 182.592 791.007 182.752C790.858 182.901 790.645 183.008 790.367 183.072C790.026 183.157 789.733 183.093 789.487 182.88C789.242 182.656 789.119 182.267 789.119 181.712C789.119 181.317 789.215 180.965 789.407 180.656C789.61 180.336 789.861 180.069 790.159 179.856C790.458 179.632 790.789 179.461 791.151 179.344C791.514 179.227 791.861 179.168 792.191 179.168C792.65 179.168 793.082 179.237 793.487 179.376C793.893 179.515 794.239 179.707 794.527 179.952C794.826 180.197 795.061 180.491 795.231 180.832C795.402 181.163 795.487 181.531 795.487 181.936C795.487 182.288 795.397 182.667 795.215 183.072C795.045 183.477 794.709 183.968 794.207 184.544C793.93 184.864 793.69 185.163 793.487 185.44C793.295 185.717 793.135 185.989 793.007 186.256C792.879 186.523 792.778 186.8 792.703 187.088C792.639 187.365 792.597 187.669 792.575 188H791.535ZM791.007 189.792C791.007 189.493 791.114 189.237 791.327 189.024C791.541 188.811 791.797 188.704 792.095 188.704C792.394 188.704 792.65 188.811 792.863 189.024C793.077 189.237 793.183 189.493 793.183 189.792C793.183 190.091 793.077 190.347 792.863 190.56C792.65 190.773 792.394 190.88 792.095 190.88C791.797 190.88 791.541 190.773 791.327 190.56C791.114 190.347 791.007 190.091 791.007 189.792ZM802.498 182.592C802.519 182.688 802.535 182.784 802.546 182.88C802.567 182.965 802.594 183.056 802.626 183.152C802.733 183.483 802.807 183.76 802.85 183.984C802.903 184.208 802.93 184.379 802.93 184.496C802.93 184.741 802.845 184.949 802.674 185.12C802.503 185.28 802.301 185.36 802.066 185.36C801.746 185.36 801.501 185.275 801.33 185.104C801.159 184.923 801.074 184.715 801.074 184.48C801.074 184.224 801.143 183.904 801.282 183.52C801.346 183.339 801.399 183.179 801.442 183.04C801.495 182.891 801.533 182.741 801.554 182.592C801.533 182.613 801.49 182.656 801.426 182.72C801.362 182.784 801.293 182.859 801.218 182.944C801.069 183.104 800.909 183.269 800.738 183.44C800.578 183.611 800.423 183.739 800.274 183.824C800.178 183.888 800.061 183.936 799.922 183.968C799.794 184 799.666 184.011 799.538 184C799.41 183.989 799.287 183.957 799.17 183.904C799.063 183.84 798.973 183.744 798.898 183.616C798.77 183.371 798.775 183.131 798.914 182.896C799.063 182.651 799.298 182.469 799.618 182.352C799.693 182.331 799.815 182.299 799.986 182.256C800.167 182.213 800.386 182.165 800.642 182.112C800.727 182.091 800.834 182.064 800.962 182.032C801.101 181.989 801.234 181.941 801.362 181.888C801.234 181.835 801.106 181.792 800.978 181.76C800.85 181.717 800.717 181.68 800.578 181.648C800.226 181.563 799.933 181.493 799.698 181.44C799.474 181.376 799.319 181.317 799.234 181.264C799.021 181.136 798.882 180.96 798.818 180.736C798.765 180.512 798.797 180.32 798.914 180.16C799.095 179.915 799.335 179.792 799.634 179.792C799.751 179.792 799.879 179.813 800.018 179.856C800.157 179.899 800.279 179.952 800.386 180.016C800.503 180.091 800.626 180.187 800.754 180.304C800.882 180.421 801.01 180.56 801.138 180.72C801.223 180.827 801.293 180.907 801.346 180.96C801.399 181.013 801.469 181.083 801.554 181.168C801.522 180.944 801.469 180.72 801.394 180.496C801.309 180.261 801.234 180.043 801.17 179.84C801.117 179.627 801.09 179.477 801.09 179.392C801.09 179.083 801.181 178.848 801.362 178.688C801.554 178.517 801.783 178.432 802.05 178.432C802.295 178.432 802.503 178.512 802.674 178.672C802.845 178.832 802.93 179.067 802.93 179.376C802.93 179.493 802.909 179.643 802.866 179.824C802.834 180.005 802.781 180.203 802.706 180.416C802.663 180.544 802.626 180.672 802.594 180.8C802.562 180.917 802.535 181.035 802.514 181.152C802.855 180.789 803.106 180.533 803.266 180.384C803.437 180.224 803.581 180.107 803.698 180.032C803.805 179.968 803.917 179.915 804.034 179.872C804.162 179.829 804.285 179.808 804.402 179.808C804.53 179.808 804.653 179.835 804.77 179.888C804.887 179.931 804.983 180 805.058 180.096C805.175 180.245 805.213 180.432 805.17 180.656C805.138 180.869 805.047 181.04 804.898 181.168C804.685 181.349 804.205 181.515 803.458 181.664C803.341 181.685 803.213 181.717 803.074 181.76C802.935 181.803 802.807 181.845 802.69 181.888C802.818 181.941 802.946 181.984 803.074 182.016C803.213 182.037 803.325 182.059 803.41 182.08C803.666 182.133 803.879 182.181 804.05 182.224C804.231 182.267 804.359 182.299 804.434 182.32C804.754 182.437 804.983 182.619 805.122 182.864C805.271 183.099 805.282 183.339 805.154 183.584C805.079 183.712 804.983 183.808 804.866 183.872C804.759 183.925 804.642 183.957 804.514 183.968C804.386 183.979 804.253 183.968 804.114 183.936C803.986 183.904 803.874 183.856 803.778 183.792C803.629 183.707 803.469 183.579 803.298 183.408C803.138 183.237 802.983 183.072 802.834 182.912C802.759 182.827 802.69 182.757 802.626 182.704C802.562 182.651 802.519 182.613 802.498 182.592Z" fill="#ADB5BD"/>
</svg>
