<svg width="960" height="209" viewBox="0 0 960 209" fill="none" xmlns="http://www.w3.org/2000/svg">
<rect y="1.2793" width="420.7" height="100" rx="10" fill="#EC0008"/>
<path d="M16.7852 26.2793V17.7949H19.9727C21.918 17.7949 22.9551 18.9785 22.9609 20.6074C22.9551 22.2305 21.9062 23.4082 19.9492 23.4082H18.3086V26.2793H16.7852ZM18.3086 22.1543H19.7383C20.8867 22.1484 21.4023 21.5039 21.4023 20.6074C21.4023 19.6992 20.8867 19.0723 19.7383 19.0723H18.3086V22.1543ZM24.1211 26.2793V19.916H25.5742V20.9707H25.6445C25.873 20.2383 26.4824 19.8223 27.2148 19.8223C27.3789 19.8223 27.6133 19.8398 27.7539 19.8574V21.2402C27.6191 21.1934 27.3086 21.1523 27.0625 21.1465C26.2305 21.1523 25.6211 21.7266 25.6211 22.5293V26.2793H24.1211ZM28.6445 26.2793V19.916H30.1445V26.2793H28.6445ZM28.5391 18.1934C28.5391 17.748 28.9316 17.3848 29.4062 17.3848C29.8809 17.3848 30.2734 17.748 30.2734 18.1934C30.2734 18.6445 29.8809 19.0078 29.4062 19.0137C28.9316 19.0078 28.5391 18.6445 28.5391 18.1934ZM31.5742 26.2793V19.916H33.0039V20.9941H33.0859C33.3496 20.2676 33.9883 19.834 34.832 19.834C35.6934 19.834 36.3145 20.2734 36.5547 20.9941H36.625C36.9004 20.291 37.6094 19.834 38.5352 19.834C39.7012 19.834 40.5215 20.584 40.5156 22.002V26.2793H39.0273V22.2363C39.0273 21.4453 38.5469 21.0879 37.9375 21.0879C37.2051 21.0879 36.7773 21.5859 36.7773 22.3066V26.2793H35.3242V22.1777C35.3184 21.5156 34.8848 21.0879 34.2461 21.0879C33.6016 21.0879 33.0742 21.6211 33.0742 22.4121V26.2793H31.5742ZM41.6523 24.4863C41.6523 23.0566 42.8418 22.6406 44.0195 22.5645C44.4648 22.5293 45.373 22.4883 45.6543 22.4766L45.6484 21.9668C45.6484 21.334 45.2441 20.9707 44.5 20.9707C43.832 20.9707 43.4219 21.2754 43.3047 21.7324H41.8633C41.9688 20.6484 42.9414 19.834 44.5352 19.834C45.7422 19.834 47.1367 20.332 47.1367 22.0254V26.2793H45.707V25.4004H45.6602C45.3789 25.9395 44.7871 26.4082 43.7852 26.4082C42.5723 26.4082 41.6523 25.7461 41.6523 24.4863ZM43.0938 24.4746C43.0938 25.0254 43.5449 25.3066 44.1719 25.3066C45.0801 25.3066 45.6602 24.709 45.6602 23.9941L45.6543 23.4727C45.3848 23.4844 44.5527 23.5371 44.2539 23.5605C43.5449 23.6191 43.0938 23.918 43.0938 24.4746ZM48.543 26.2793V19.916H49.9961V20.9707H50.0664C50.2949 20.2383 50.9043 19.8223 51.6367 19.8223C51.8008 19.8223 52.0352 19.8398 52.1758 19.8574V21.2402C52.041 21.1934 51.7305 21.1523 51.4844 21.1465C50.6523 21.1523 50.043 21.7266 50.043 22.5293V26.2793H48.543ZM54.168 28.6699C53.8691 28.6641 53.5879 28.6582 53.3945 28.6348V27.4395C53.5762 27.457 53.8281 27.457 54.0273 27.4629C54.3906 27.457 54.6953 27.4336 54.9531 26.748L55.082 26.4082L52.7617 19.916H54.3438L55.8203 24.7207H55.8906L57.3672 19.916H58.9492L56.3945 27.0527C56.0312 28.0664 55.3633 28.6641 54.168 28.6699Z" fill="white" fill-opacity="0.6"/>
<path d="M20.0117 64.2793H16.7744V55.0879H20.0498C22.8174 55.0879 24.5122 56.8081 24.5059 59.6709C24.5122 62.5464 22.8174 64.2793 20.0117 64.2793ZM18.6787 62.6416H19.9355C21.6875 62.6416 22.6016 61.7339 22.6016 59.6709C22.6016 57.627 21.6875 56.7256 19.9482 56.7256H18.6787V62.6416ZM28.9746 64.4189C26.8608 64.4126 25.5659 63.0479 25.5723 60.8643C25.5659 58.7378 26.8799 57.2969 28.8984 57.2969C30.7075 57.2969 32.1357 58.4395 32.1357 60.7881V61.3213H27.4258C27.4258 62.3623 28.0415 63.0034 29.0127 63.0098C29.6538 63.0034 30.1108 62.7241 30.2949 62.3115H32.085C31.8184 63.5874 30.6758 64.4126 28.9746 64.4189ZM27.4258 60.1406H30.3584C30.3521 59.3027 29.7744 58.6997 28.9365 58.7061C28.0732 58.6997 27.4639 59.3472 27.4258 60.1406ZM36.9473 57.3857V58.7949H35.6523V62.1592C35.646 62.7114 35.9189 62.8447 36.2998 62.8574C36.4902 62.8574 36.8203 62.8384 37.0488 62.8193V64.3047C36.8457 64.3364 36.5093 64.3745 36.0459 64.3682C34.6875 64.3745 33.7607 63.7651 33.7734 62.4258V58.7949H32.8213V57.3857H33.7734V55.7354H35.6523V57.3857H36.9473ZM37.7979 62.3496C37.8042 60.8135 39.0356 60.312 40.3623 60.2295C40.8574 60.1978 41.7842 60.1533 42.0762 60.1406V59.582C42.0698 59.0044 41.6763 58.6743 40.9717 58.668C40.3306 58.6743 39.9307 58.96 39.8291 59.4297H38.0391C38.1533 58.2363 39.1943 57.2969 41.0225 57.2969C42.5269 57.2969 43.9487 57.9697 43.9424 59.6328V64.2793H42.165V63.3271H42.1143C41.7778 63.9619 41.1177 64.4126 40.0957 64.4062C38.7754 64.4126 37.8042 63.7144 37.7979 62.3496ZM39.6006 62.2988C39.6006 62.8257 40.0259 63.105 40.6289 63.1113C41.4858 63.105 42.0825 62.5464 42.0762 61.8164V61.3149C41.7905 61.3276 40.9844 61.3721 40.667 61.3975C40.0132 61.4546 39.6006 61.7656 39.6006 62.2988ZM45.377 64.2793V57.3857H47.2559V64.2793H45.377ZM45.2881 55.5322C45.2881 54.999 45.7515 54.5737 46.3164 54.5674C46.875 54.5737 47.3384 54.999 47.332 55.5322C47.3384 56.0527 46.875 56.4844 46.3164 56.4844C45.7515 56.4844 45.2881 56.0527 45.2881 55.5322ZM50.5947 55.0879V64.2793H48.7158V55.0879H50.5947ZM52.0547 64.2793V57.3857H53.9336V64.2793H52.0547ZM51.9658 55.5322C51.9658 54.999 52.4292 54.5737 52.9941 54.5674C53.5527 54.5737 54.0161 54.999 54.0098 55.5322C54.0161 56.0527 53.5527 56.4844 52.9941 56.4844C52.4292 56.4844 51.9658 56.0527 51.9658 55.5322ZM57.2725 60.293V64.2793H55.3936V57.3857H57.1836V58.5918H57.2598C57.5708 57.7983 58.3071 57.2969 59.3291 57.2969C60.77 57.2969 61.7095 58.2808 61.7031 59.8867V64.2793H59.8369V60.2168C59.8306 59.3662 59.3735 58.8584 58.5928 58.8584C57.812 58.8584 57.2725 59.3853 57.2725 60.293ZM66.2607 67.0088C64.3564 67.0088 63.1821 66.1519 63.0742 64.8506H64.9277C65.0293 65.4028 65.5498 65.6504 66.2988 65.6504C67.1685 65.6504 67.7524 65.2759 67.7588 64.3174V63.0605H67.6699C67.4224 63.6191 66.813 64.1841 65.7021 64.1777C64.147 64.1841 62.8965 63.0859 62.8965 60.7881C62.8965 58.4585 64.1787 57.2969 65.7021 57.2969C66.8574 57.2969 67.416 57.9824 67.6699 58.541H67.7461V57.3857H69.6123V64.3555C69.606 66.1138 68.2222 67.0088 66.2607 67.0088ZM64.8262 60.8135C64.8198 62.0068 65.334 62.7622 66.2861 62.7686C67.2256 62.7622 67.7588 62.0386 67.7588 60.8135C67.7588 59.5884 67.2319 58.7949 66.2861 58.7949C65.3276 58.7949 64.8198 59.6265 64.8262 60.8135ZM74.1064 64.2793V55.0879H77.7119C79.8003 55.0879 81 56.2622 81 58.084C81 59.3408 80.4224 60.2549 79.375 60.7056L81.3301 64.2793H79.2227L77.4644 61.0166H76.0107V64.2793H74.1064ZM76.0107 59.4678H77.3564C78.4863 59.4678 79.0386 59.0044 79.0322 58.084C79.0386 57.1572 78.4863 56.6558 77.3564 56.6494H76.0107V59.4678ZM85.291 64.4189C83.1772 64.4126 81.8823 63.0479 81.8887 60.8643C81.8823 58.7378 83.1963 57.2969 85.2148 57.2969C87.0239 57.2969 88.4521 58.4395 88.4521 60.7881V61.3213H83.7422C83.7422 62.3623 84.3579 63.0034 85.3291 63.0098C85.9702 63.0034 86.4272 62.7241 86.6113 62.3115H88.4014C88.1348 63.5874 86.9922 64.4126 85.291 64.4189ZM83.7422 60.1406H86.6748C86.6685 59.3027 86.0908 58.6997 85.2529 58.7061C84.3896 58.6997 83.7803 59.3472 83.7422 60.1406ZM92.1719 64.3936C90.5977 64.3936 89.3662 63.1431 89.3662 60.8389C89.3662 58.4775 90.6484 57.2969 92.1719 57.2969C93.3271 57.2969 93.8794 57.9824 94.127 58.541H94.1904V55.0879H96.0693V64.2793H94.2158V63.1748H94.127C93.8667 63.7461 93.2954 64.3936 92.1719 64.3936ZM91.2959 60.8262C91.2896 62.0449 91.8037 62.8892 92.7559 62.8955C93.6953 62.8892 94.2285 62.0703 94.2285 60.8262C94.2285 59.5884 93.7017 58.7949 92.7559 58.7949C91.7974 58.7949 91.2896 59.6265 91.2959 60.8262Z" fill="white"/>
<path d="M19.9609 84.2793L20.3477 81.9355H18.2148L17.8281 84.2793H16.9727L17.3594 81.9355H16.1055L16.2461 81.0918H17.4941L17.8457 78.9824H16.6094L16.7383 78.1387H17.9805L18.3672 75.7949H19.2227L18.8359 78.1387H20.9688L21.3555 75.7949H22.2109L21.8242 78.1387H23.0898L22.9492 78.9824H21.6895L21.3379 81.0918H22.5859L22.4453 81.9355H21.2031L20.8164 84.2793H19.9609ZM18.3496 81.0918H20.4824L20.834 78.9824H18.7012L18.3496 81.0918ZM24.1328 84.2793V75.7949H29.2422V76.7324H25.1875V79.5684H28.8555V80.4941H25.1875V84.2793H24.1328ZM33.5078 84.3965C31.7207 84.3965 30.4902 83.4062 30.4961 82.0293C30.4902 80.9336 31.252 80.0254 32.2188 79.873V79.8262C31.375 79.6328 30.8184 78.8535 30.8242 77.9277C30.8184 76.6328 31.9551 75.6777 33.5078 75.6777C35.0547 75.6777 36.1914 76.6328 36.2031 77.9277C36.1914 78.8535 35.6289 79.6328 34.7969 79.8262V79.873C35.7578 80.0254 36.5195 80.9336 36.5312 82.0293C36.5195 83.4062 35.2773 84.3965 33.5078 84.3965ZM31.5508 81.9707C31.5332 82.8613 32.2891 83.4648 33.5078 83.4707C34.7207 83.4648 35.4766 82.8613 35.4766 81.9707C35.4766 81.0332 34.6504 80.3418 33.5078 80.3418C32.3711 80.3418 31.5332 81.0332 31.5508 81.9707ZM31.8438 78.0098C31.8496 78.8652 32.5352 79.4453 33.5078 79.4512C34.4746 79.4453 35.1719 78.8652 35.1719 78.0098C35.1719 77.1602 34.498 76.5859 33.5078 76.5918C32.5 76.5859 31.8496 77.1602 31.8438 78.0098ZM38.4648 84.2793H37.3633L40.4688 75.7949H41.582L44.6875 84.2793H43.5742L42.7246 81.8887H39.3145L38.4648 84.2793ZM39.6367 80.9629H42.4023L41.0547 77.166H40.9844L39.6367 80.9629ZM45.8359 84.2793V75.7949H50.9453V76.7324H46.8906V79.5684H50.5586V80.4941H46.8906V84.2793H45.8359ZM55.1523 84.3965C53.2715 84.3965 52.1816 82.8145 52.1875 80.0371C52.1816 77.2832 53.2832 75.6777 55.1523 75.6777C57.0156 75.6777 58.1172 77.2832 58.1172 80.0371C58.1172 82.8145 57.0332 84.3965 55.1523 84.3965ZM53.207 80.0371C53.2129 82.2344 53.9219 83.459 55.1523 83.459C56.377 83.459 57.0918 82.2344 57.0859 80.0371C57.0918 77.8398 56.3711 76.5977 55.1523 76.5918C53.9336 76.5977 53.2129 77.8398 53.207 80.0371ZM59.3125 82.5449V81.6777L63.1328 75.7949H64.4336V81.6191H65.6172V82.5449H64.4336V84.2793H63.4258V82.5449H59.3125ZM60.4492 81.6191H63.4258V77.1309H63.3203L60.4492 81.5488V81.6191Z" fill="white" fill-opacity="0.78"/>
<rect x="426.699" width="263.573" height="102.558" rx="10.2558" fill="#292C35"/>
<path d="M450.205 59.0538C450.049 58.0122 449.248 57.3807 448.148 57.3742C446.683 57.3807 445.713 58.5004 445.713 60.486C445.713 62.5171 446.696 63.5912 448.135 63.5978C449.209 63.5912 450.016 63.0053 450.205 61.9833L452.184 61.9963C451.969 63.741 450.505 65.3294 448.109 65.3294C445.59 65.3294 443.721 63.5522 443.721 60.486C443.721 57.4067 445.622 55.6425 448.109 55.6425C450.283 55.6425 451.924 56.8859 452.184 59.0538H450.205ZM455.439 61.1109V65.1992H453.512V55.7727H455.387V59.3662H455.465C455.791 58.5395 456.5 58.0382 457.575 58.0382C459.052 58.0382 460.022 59.0342 460.022 60.6943V65.1992H458.095V61.0328C458.095 60.154 457.627 59.6397 456.819 59.6397C456.006 59.6397 455.439 60.18 455.439 61.1109ZM461.168 63.2202C461.175 61.6448 462.438 61.1305 463.798 61.0458C464.306 61.0133 465.256 60.9677 465.556 60.9547V60.3818C465.549 59.7894 465.146 59.4509 464.423 59.4444C463.766 59.4509 463.356 59.7438 463.251 60.2256H461.416C461.533 59.0017 462.6 58.0382 464.475 58.0382C466.018 58.0382 467.476 58.7283 467.47 60.4339V65.1992H465.647V64.2227H465.595C465.25 64.8737 464.573 65.3359 463.525 65.3294C462.171 65.3359 461.175 64.6198 461.168 63.2202ZM463.017 63.1681C463.017 63.7084 463.453 63.9949 464.072 64.0014C464.95 63.9949 465.562 63.422 465.556 62.6733V62.159C465.263 62.1721 464.436 62.2176 464.111 62.2437C463.44 62.3023 463.017 62.6213 463.017 63.1681ZM468.941 65.1992V58.1293H470.803V59.3532H470.881C471.135 58.4874 471.792 58.0252 472.587 58.0252C472.782 58.0252 473.029 58.0512 473.199 58.0903V59.8089C473.016 59.7503 472.645 59.7048 472.378 59.7048C471.506 59.7048 470.862 60.3102 470.868 61.176V65.1992H468.941ZM477.092 65.3424C474.924 65.3359 473.622 63.8386 473.628 61.6838C473.622 59.5225 474.95 58.0382 477.092 58.0382C478.914 58.0382 480.151 59.0993 480.229 60.7203H478.42C478.302 60.0238 477.847 59.542 477.118 59.5355C476.193 59.542 475.581 60.3167 475.581 61.6578C475.581 63.0249 476.18 63.8061 477.118 63.8061C477.795 63.8061 478.296 63.3829 478.42 62.6343H480.229C480.145 64.2357 478.967 65.3359 477.092 65.3424ZM484.604 65.3424C482.469 65.3359 481.134 63.8712 481.141 61.6838C481.134 59.503 482.469 58.0382 484.604 58.0382C486.746 58.0382 488.074 59.503 488.081 61.6838C488.074 63.8712 486.746 65.3359 484.604 65.3424ZM483.094 61.6838C483.094 62.9207 483.608 63.8386 484.617 63.8451C485.6 63.8386 486.121 62.9207 486.115 61.6838C486.121 60.4404 485.6 59.5095 484.617 59.5095C483.608 59.5095 483.094 60.4404 483.094 61.6838ZM488.953 63.2202C488.959 61.6448 490.222 61.1305 491.583 61.0458C492.091 61.0133 493.041 60.9677 493.341 60.9547V60.3818C493.334 59.7894 492.93 59.4509 492.208 59.4444C491.55 59.4509 491.14 59.7438 491.036 60.2256H489.2C489.317 59.0017 490.385 58.0382 492.26 58.0382C493.803 58.0382 495.261 58.7283 495.255 60.4339V65.1992H493.432V64.2227H493.38C493.035 64.8737 492.358 65.3359 491.309 65.3294C489.955 65.3359 488.959 64.6198 488.953 63.2202ZM490.802 63.1681C490.802 63.7084 491.238 63.9949 491.856 64.0014C492.735 63.9949 493.347 63.422 493.341 62.6733V62.159C493.048 62.1721 492.221 62.2176 491.895 62.2437C491.225 62.3023 490.802 62.6213 490.802 63.1681ZM498.653 55.7727V65.1992H496.726V55.7727H498.653Z" fill="white"/>
<path d="M447.172 85.25L447.568 82.8463H445.381L444.984 85.25H444.107L444.504 82.8463H443.218L443.362 81.981H444.642L445.002 79.8176H443.734L443.867 78.9523H445.14L445.537 76.5486H446.414L446.018 78.9523H448.205L448.602 76.5486H449.479L449.083 78.9523H450.381L450.236 79.8176H448.944L448.584 81.981H449.864L449.72 82.8463H448.446L448.049 85.25H447.172ZM445.519 81.981H447.706L448.067 79.8176H445.88L445.519 81.981ZM451.306 85.25L451.294 84.4568L454.263 81.332C455.29 80.2383 455.783 79.6494 455.789 78.8441C455.783 77.9488 455.038 77.3719 454.058 77.3659C453.019 77.3719 452.37 78.0269 452.364 79.0004H451.342C451.33 77.462 452.52 76.4284 454.094 76.4284C455.675 76.4284 456.792 77.4921 456.798 78.8441C456.792 79.8176 456.342 80.5748 454.803 82.1613L452.808 84.2164V84.2885H456.955V85.25H451.306ZM461.426 76.4284C462.922 76.4465 464.586 77.3478 464.586 80.5508C464.586 83.6455 463.318 85.3702 461.281 85.3702C459.749 85.3702 458.673 84.4327 458.457 83.0506H459.527C459.719 83.8318 460.314 84.4087 461.281 84.4087C462.699 84.4087 463.565 83.1828 463.577 81.0676H463.457C462.958 81.7887 462.159 82.2213 461.233 82.2213C459.677 82.2213 458.385 81.0255 458.385 79.3489C458.385 77.7264 459.575 76.4104 461.426 76.4284ZM459.442 79.3369C459.436 80.4126 460.254 81.2719 461.389 81.2719C462.525 81.2719 463.409 80.3344 463.409 79.3129C463.409 78.3153 462.573 77.3779 461.426 77.3779C460.29 77.3779 459.43 78.2613 459.442 79.3369ZM466.077 85.25L466.065 84.4568L469.033 81.332C470.061 80.2383 470.554 79.6494 470.56 78.8441C470.554 77.9488 469.808 77.3719 468.829 77.3659C467.789 77.3719 467.14 78.0269 467.134 79.0004H466.113C466.101 77.462 467.291 76.4284 468.865 76.4284C470.445 76.4284 471.563 77.4921 471.569 78.8441C471.563 79.8176 471.112 80.5748 469.574 82.1613L467.579 84.2164V84.2885H471.725V85.25H466.077ZM479.381 79.2888C479.129 78.087 478.101 77.438 476.953 77.438C475.379 77.438 474.159 78.6519 474.153 80.8993C474.159 83.1408 475.379 84.3546 476.953 84.3606C478.101 84.3546 479.123 83.7116 479.381 82.5218H480.463C480.15 84.3005 478.72 85.3702 476.953 85.3702C474.718 85.3702 473.101 83.6515 473.108 80.8993C473.101 78.1471 474.718 76.4284 476.953 76.4284C478.714 76.4284 480.138 77.4801 480.463 79.2888H479.381ZM484.838 85.3702C483.107 85.3702 481.863 84.4448 481.809 83.0626H482.903C482.963 83.8919 483.786 84.4087 484.826 84.4087C485.973 84.4087 486.803 83.7898 486.809 82.8824C486.803 81.9329 486.045 81.2659 484.693 81.2599H483.984V80.3104H484.693C485.751 80.3104 486.49 79.7155 486.484 78.8201C486.49 77.9488 485.853 77.3719 484.862 77.3659C483.93 77.3719 483.083 77.8827 483.035 78.736H481.989C482.043 77.3539 483.329 76.4284 484.874 76.4284C486.532 76.4284 487.542 77.5161 487.53 78.76C487.542 79.7515 486.965 80.4727 486.051 80.7311V80.7911C487.187 80.9654 487.872 81.7767 487.866 82.8824C487.872 84.3126 486.574 85.3702 484.838 85.3702ZM492.265 85.3702C490.697 85.3702 489.507 84.4027 489.441 83.0626H490.486C490.564 83.8378 491.322 84.4147 492.265 84.4207C493.395 84.4147 494.212 83.5914 494.212 82.4978C494.212 81.368 493.365 80.5327 492.193 80.5267C491.46 80.5147 490.889 80.7431 490.57 81.3079H489.525L490.138 76.5486H494.849V77.5101H491.039L490.715 80.058H490.799C491.189 79.7576 491.772 79.5532 492.385 79.5532C494.044 79.5532 495.264 80.7791 495.27 82.4737C495.264 84.1563 494.002 85.3702 492.265 85.3702Z" fill="white" fill-opacity="0.78"/>
<rect x="696.426" width="263.573" height="102.558" rx="10.2558" fill="#1D1F25"/>
<path d="M716.95 65.1992H713.63V55.7727H716.989C719.828 55.7727 721.566 57.5369 721.559 60.473C721.566 63.422 719.828 65.1992 716.95 65.1992ZM715.583 63.5196H716.872C718.669 63.5196 719.606 62.5887 719.606 60.473C719.606 58.3767 718.669 57.4523 716.885 57.4523H715.583V63.5196ZM722.601 63.2202C722.607 61.6448 723.87 61.1305 725.231 61.0458C725.739 61.0133 726.689 60.9677 726.989 60.9547V60.3818C726.982 59.7894 726.579 59.4509 725.856 59.4444C725.198 59.4509 724.788 59.7438 724.684 60.2256H722.848C722.966 59.0017 724.033 58.0382 725.908 58.0382C727.451 58.0382 728.909 58.7283 728.903 60.4339V65.1992H727.08V64.2227H727.028C726.683 64.8737 726.006 65.3359 724.958 65.3294C723.603 65.3359 722.607 64.6198 722.601 63.2202ZM724.45 63.1681C724.45 63.7084 724.886 63.9949 725.504 64.0014C726.383 63.9949 726.995 63.422 726.989 62.6733V62.159C726.696 62.1721 725.869 62.2176 725.543 62.2437C724.873 62.3023 724.45 62.6213 724.45 63.1681ZM730.374 65.1992V58.1293H732.236V59.3532H732.314C732.568 58.4874 733.225 58.0252 734.02 58.0252C734.215 58.0252 734.462 58.0512 734.631 58.0903V59.8089C734.449 59.7503 734.078 59.7048 733.811 59.7048C732.939 59.7048 732.294 60.3102 732.301 61.176V65.1992H730.374ZM735.569 65.1992V55.7727H737.496V60.8375H737.6L739.892 58.1293H742.105L739.468 61.1891L742.248 65.1992H739.983L738.036 62.3218L737.496 62.9337V65.1992H735.569Z" fill="white"/>
<path d="M716.898 85.25L717.295 82.8463H715.107L714.711 85.25H713.833L714.23 82.8463H712.944L713.088 81.981H714.368L714.729 79.8176H713.461L713.593 78.9523H714.867L715.264 76.5486H716.141L715.744 78.9523H717.932L718.328 76.5486H719.206L718.809 78.9523H720.107L719.963 79.8176H718.671L718.31 81.981H719.59L719.446 82.8463H718.172L717.776 85.25H716.898ZM715.246 81.981H717.433L717.794 79.8176H715.606L715.246 81.981ZM724.109 76.5486V85.25H723.016V77.6784H722.968L720.852 79.0845V77.9908L723.016 76.5486H724.109ZM729.277 85.25H726.573V76.5486H729.385C731.927 76.5486 733.424 78.1771 733.424 80.8873C733.424 83.6035 731.927 85.25 729.277 85.25ZM727.655 84.2885H729.205C731.338 84.2885 732.366 82.9965 732.366 80.8873C732.366 78.7841 731.338 77.5101 729.313 77.5101H727.655V84.2885ZM737.943 76.5486V85.25H736.849V77.6784H736.801L734.686 79.0845V77.9908L736.849 76.5486H737.943ZM740.406 85.25V76.5486H745.646V77.5101H741.488V80.4186H745.25V81.368H741.488V85.25H740.406ZM747.113 85.25L747.101 84.4568L750.069 81.332C751.097 80.2383 751.59 79.6494 751.596 78.8441C751.59 77.9488 750.844 77.3719 749.865 77.3659C748.825 77.3719 748.176 78.0269 748.17 79.0004H747.149C747.137 77.462 748.327 76.4284 749.901 76.4284C751.481 76.4284 752.599 77.4921 752.605 78.8441C752.599 79.8176 752.148 80.5748 750.61 82.1613L748.615 84.2164V84.2885H752.761V85.25H747.113ZM757.172 85.3702C755.604 85.3702 754.414 84.4027 754.348 83.0626H755.393C755.471 83.8378 756.229 84.4147 757.172 84.4207C758.302 84.4147 759.119 83.5914 759.119 82.4978C759.119 81.368 758.272 80.5327 757.1 80.5267C756.367 80.5147 755.796 80.7431 755.478 81.3079H754.432L755.045 76.5486H759.756V77.5101H755.946L755.622 80.058H755.706C756.096 79.7576 756.679 79.5532 757.292 79.5532C758.951 79.5532 760.171 80.7791 760.177 82.4737C760.171 84.1563 758.909 85.3702 757.172 85.3702Z" fill="white" fill-opacity="0.78"/>
<rect y="108.559" width="235.5" height="100" rx="10" fill="#EFEFEF"/>
<path d="M20.6846 162.367V171.559H18.7676V164.183H18.7168L16.6094 165.503V163.814L18.8818 162.367H20.6846ZM26.3848 171.686C24.0806 171.686 22.6904 169.972 22.6904 166.963C22.6904 163.96 24.0933 162.24 26.3848 162.24C28.6763 162.24 30.0791 163.96 30.0791 166.963C30.0791 169.984 28.6826 171.686 26.3848 171.686ZM24.6455 166.963C24.6328 169.083 25.3184 170.111 26.3848 170.111C27.4512 170.111 28.1304 169.083 28.124 166.963C28.1304 164.862 27.4448 163.808 26.3848 163.802C25.3247 163.808 24.6455 164.862 24.6455 166.963Z" fill="black"/>
<path d="M19.9609 191.559L20.3477 189.215H18.2148L17.8281 191.559H16.9727L17.3594 189.215H16.1055L16.2461 188.371H17.4941L17.8457 186.262H16.6094L16.7383 185.418H17.9805L18.3672 183.074H19.2227L18.8359 185.418H20.9688L21.3555 183.074H22.2109L21.8242 185.418H23.0898L22.9492 186.262H21.6895L21.3379 188.371H22.5859L22.4453 189.215H21.2031L20.8164 191.559H19.9609ZM18.3496 188.371H20.4824L20.834 186.262H18.7012L18.3496 188.371ZM24.1328 191.559V183.074H29.2422V184.012H25.1875V186.848H28.8555V187.773H25.1875V191.559H24.1328ZM33.5078 191.676C31.7207 191.676 30.4902 190.686 30.4961 189.309C30.4902 188.213 31.252 187.305 32.2188 187.152V187.105C31.375 186.912 30.8184 186.133 30.8242 185.207C30.8184 183.912 31.9551 182.957 33.5078 182.957C35.0547 182.957 36.1914 183.912 36.2031 185.207C36.1914 186.133 35.6289 186.912 34.7969 187.105V187.152C35.7578 187.305 36.5195 188.213 36.5312 189.309C36.5195 190.686 35.2773 191.676 33.5078 191.676ZM31.5508 189.25C31.5332 190.141 32.2891 190.744 33.5078 190.75C34.7207 190.744 35.4766 190.141 35.4766 189.25C35.4766 188.312 34.6504 187.621 33.5078 187.621C32.3711 187.621 31.5332 188.312 31.5508 189.25ZM31.8438 185.289C31.8496 186.145 32.5352 186.725 33.5078 186.73C34.4746 186.725 35.1719 186.145 35.1719 185.289C35.1719 184.439 34.498 183.865 33.5078 183.871C32.5 183.865 31.8496 184.439 31.8438 185.289ZM38.0898 191.559V183.074H43.1992V184.012H39.1445V186.848H42.8125V187.773H39.1445V191.559H38.0898ZM47.4531 182.957C48.9121 182.975 50.5352 183.854 50.5352 186.977C50.5352 189.994 49.2988 191.676 47.3125 191.676C45.8184 191.676 44.7695 190.762 44.5586 189.414H45.6016C45.7891 190.176 46.3691 190.738 47.3125 190.738C48.6953 190.738 49.5391 189.543 49.5508 187.48H49.4336C48.9473 188.184 48.168 188.605 47.2656 188.605C45.748 188.605 44.4883 187.439 44.4883 185.805C44.4883 184.223 45.6484 182.939 47.4531 182.957ZM45.5195 185.793C45.5137 186.842 46.3105 187.68 47.418 187.68C48.5254 187.68 49.3867 186.766 49.3867 185.77C49.3867 184.797 48.5723 183.883 47.4531 183.883C46.3457 183.883 45.5078 184.744 45.5195 185.793ZM52.1289 191.559V183.074H57.2383V184.012H53.1836V186.848H56.8516V187.773H53.1836V191.559H52.1289ZM58.1172 191.559H57.0156L60.1211 183.074H61.2344L64.3398 191.559H63.2266L62.377 189.168H58.9668L58.1172 191.559ZM59.2891 188.242H62.0547L60.707 184.445H60.6367L59.2891 188.242Z" fill="black" fill-opacity="0.56"/>
<rect x="241.5" y="108.559" width="235.5" height="100" rx="10" fill="#D4D4D4"/>
<path d="M258.071 169.934V168.423L261.956 162.367H264.355V168.397H265.523V169.934H264.355V171.559H262.54V169.934H258.071ZM260.001 168.397H262.565V164.462H262.477L260.001 168.321V168.397ZM270.335 171.686C268.031 171.686 266.641 169.972 266.641 166.963C266.641 163.96 268.043 162.24 270.335 162.24C272.626 162.24 274.029 163.96 274.029 166.963C274.029 169.984 272.633 171.686 270.335 171.686ZM268.596 166.963C268.583 169.083 269.269 170.111 270.335 170.111C271.401 170.111 272.081 169.083 272.074 166.963C272.081 164.862 271.395 163.808 270.335 163.802C269.275 163.808 268.596 164.862 268.596 166.963Z" fill="black"/>
<path d="M261.461 191.559L261.848 189.215H259.715L259.328 191.559H258.473L258.859 189.215H257.605L257.746 188.371H258.994L259.346 186.262H258.109L258.238 185.418H259.48L259.867 183.074H260.723L260.336 185.418H262.469L262.855 183.074H263.711L263.324 185.418H264.59L264.449 186.262H263.189L262.838 188.371H264.086L263.945 189.215H262.703L262.316 191.559H261.461ZM259.85 188.371H261.982L262.334 186.262H260.201L259.85 188.371ZM268.27 191.559H265.633V183.074H268.375C270.854 183.074 272.312 184.662 272.312 187.305C272.312 189.953 270.854 191.559 268.27 191.559ZM266.688 190.621H268.199C270.279 190.621 271.281 189.361 271.281 187.305C271.281 185.254 270.279 184.012 268.305 184.012H266.688V190.621ZM273.508 189.824V188.957L277.328 183.074H278.629V188.898H279.812V189.824H278.629V191.559H277.621V189.824H273.508ZM274.645 188.898H277.621V184.41H277.516L274.645 188.828V188.898ZM283.984 191.559H281.348V183.074H284.09C286.568 183.074 288.027 184.662 288.027 187.305C288.027 189.953 286.568 191.559 283.984 191.559ZM282.402 190.621H283.914C285.994 190.621 286.996 189.361 286.996 187.305C286.996 185.254 285.994 184.012 284.02 184.012H282.402V190.621ZM289.223 189.824V188.957L293.043 183.074H294.344V188.898H295.527V189.824H294.344V191.559H293.336V189.824H289.223ZM290.359 188.898H293.336V184.41H293.23L290.359 188.828V188.898ZM299.699 191.559H297.062V183.074H299.805C302.283 183.074 303.742 184.662 303.742 187.305C303.742 189.953 302.283 191.559 299.699 191.559ZM298.117 190.621H299.629C301.709 190.621 302.711 189.361 302.711 187.305C302.711 185.254 301.709 184.012 299.734 184.012H298.117V190.621ZM304.938 189.824V188.957L308.758 183.074H310.059V188.898H311.242V189.824H310.059V191.559H309.051V189.824H304.938ZM306.074 188.898H309.051V184.41H308.945L306.074 188.828V188.898Z" fill="black" fill-opacity="0.56"/>
<rect x="483" y="108.559" width="235.5" height="100" rx="10" fill="#949494"/>
<path d="M503.278 171.686C501.38 171.679 499.565 170.543 499.571 167.179C499.578 164.075 501.057 162.24 503.354 162.24C505.202 162.24 506.471 163.408 506.655 164.919H504.776C504.624 164.278 504.097 163.878 503.354 163.878C502.104 163.878 501.45 165.001 501.438 166.811H501.526C501.952 165.992 502.859 165.516 503.875 165.516C505.532 165.516 506.763 166.753 506.757 168.486C506.763 170.353 505.354 171.692 503.278 171.686ZM501.628 168.537C501.641 169.438 502.326 170.181 503.266 170.175C504.211 170.181 504.903 169.464 504.903 168.537C504.903 167.617 504.224 166.906 503.291 166.899C502.352 166.906 501.641 167.642 501.628 168.537ZM511.645 171.686C509.34 171.686 507.95 169.972 507.95 166.963C507.95 163.96 509.353 162.24 511.645 162.24C513.936 162.24 515.339 163.96 515.339 166.963C515.339 169.984 513.942 171.686 511.645 171.686ZM509.905 166.963C509.893 169.083 510.578 170.111 511.645 170.111C512.711 170.111 513.39 169.083 513.384 166.963C513.39 164.862 512.705 163.808 511.645 163.802C510.584 163.808 509.905 164.862 509.905 166.963Z" fill="white"/>
<path d="M502.961 191.559L503.348 189.215H501.215L500.828 191.559H499.973L500.359 189.215H499.105L499.246 188.371H500.494L500.846 186.262H499.609L499.738 185.418H500.98L501.367 183.074H502.223L501.836 185.418H503.969L504.355 183.074H505.211L504.824 185.418H506.09L505.949 186.262H504.689L504.338 188.371H505.586L505.445 189.215H504.203L503.816 191.559H502.961ZM501.35 188.371H503.482L503.834 186.262H501.701L501.35 188.371ZM509.816 182.957C511.275 182.975 512.898 183.854 512.898 186.977C512.898 189.994 511.662 191.676 509.676 191.676C508.182 191.676 507.133 190.762 506.922 189.414H507.965C508.152 190.176 508.732 190.738 509.676 190.738C511.059 190.738 511.902 189.543 511.914 187.48H511.797C511.311 188.184 510.531 188.605 509.629 188.605C508.111 188.605 506.852 187.439 506.852 185.805C506.852 184.223 508.012 182.939 509.816 182.957ZM507.883 185.793C507.877 186.842 508.674 187.68 509.781 187.68C510.889 187.68 511.75 186.766 511.75 185.77C511.75 184.797 510.936 183.883 509.816 183.883C508.709 183.883 507.871 184.744 507.883 185.793ZM514.141 189.824V188.957L517.961 183.074H519.262V188.898H520.445V189.824H519.262V191.559H518.254V189.824H514.141ZM515.277 188.898H518.254V184.41H518.148L515.277 188.828V188.898ZM524.664 182.957C526.123 182.975 527.746 183.854 527.746 186.977C527.746 189.994 526.51 191.676 524.523 191.676C523.029 191.676 521.98 190.762 521.77 189.414H522.812C523 190.176 523.58 190.738 524.523 190.738C525.906 190.738 526.75 189.543 526.762 187.48H526.645C526.158 188.184 525.379 188.605 524.477 188.605C522.959 188.605 521.699 187.439 521.699 185.805C521.699 184.223 522.859 182.939 524.664 182.957ZM522.73 185.793C522.725 186.842 523.521 187.68 524.629 187.68C525.736 187.68 526.598 186.766 526.598 185.77C526.598 184.797 525.783 183.883 524.664 183.883C523.557 183.883 522.719 184.744 522.73 185.793ZM528.988 189.824V188.957L532.809 183.074H534.109V188.898H535.293V189.824H534.109V191.559H533.102V189.824H528.988ZM530.125 188.898H533.102V184.41H532.996L530.125 188.828V188.898ZM539.512 182.957C540.971 182.975 542.594 183.854 542.594 186.977C542.594 189.994 541.357 191.676 539.371 191.676C537.877 191.676 536.828 190.762 536.617 189.414H537.66C537.848 190.176 538.428 190.738 539.371 190.738C540.754 190.738 541.598 189.543 541.609 187.48H541.492C541.006 188.184 540.227 188.605 539.324 188.605C537.807 188.605 536.547 187.439 536.547 185.805C536.547 184.223 537.707 182.939 539.512 182.957ZM537.578 185.793C537.572 186.842 538.369 187.68 539.477 187.68C540.584 187.68 541.445 186.766 541.445 185.77C541.445 184.797 540.631 183.883 539.512 183.883C538.404 183.883 537.566 184.744 537.578 185.793ZM543.836 189.824V188.957L547.656 183.074H548.957V188.898H550.141V189.824H548.957V191.559H547.949V189.824H543.836ZM544.973 188.898H547.949V184.41H547.844L544.973 188.828V188.898Z" fill="white" fill-opacity="0.78"/>
<rect x="724.5" y="108.559" width="235.5" height="100" rx="10" fill="#686868"/>
<path d="M741.579 171.559L745.451 163.992V163.929H740.944V162.367H747.432V163.954L743.56 171.559H741.579ZM752.065 171.686C749.761 171.686 748.371 169.972 748.371 166.963C748.371 163.96 749.774 162.24 752.065 162.24C754.357 162.24 755.76 163.96 755.76 166.963C755.76 169.984 754.363 171.686 752.065 171.686ZM750.326 166.963C750.313 169.083 750.999 170.111 752.065 170.111C753.132 170.111 753.811 169.083 753.805 166.963C753.811 164.862 753.125 163.808 752.065 163.802C751.005 163.808 750.326 164.862 750.326 166.963Z" fill="white"/>
<path d="M744.461 191.559L744.848 189.215H742.715L742.328 191.559H741.473L741.859 189.215H740.605L740.746 188.371H741.994L742.346 186.262H741.109L741.238 185.418H742.48L742.867 183.074H743.723L743.336 185.418H745.469L745.855 183.074H746.711L746.324 185.418H747.59L747.449 186.262H746.189L745.838 188.371H747.086L746.945 189.215H745.703L745.316 191.559H744.461ZM742.85 188.371H744.982L745.334 186.262H743.201L742.85 188.371ZM751.445 191.676C749.975 191.658 748.352 190.785 748.352 187.645C748.352 184.639 749.582 182.957 751.574 182.957C753.068 182.957 754.111 183.877 754.328 185.207H753.285C753.092 184.457 752.518 183.895 751.574 183.895C750.18 183.895 749.342 185.084 749.348 187.129H749.453C749.939 186.42 750.719 186.004 751.633 186.004C753.139 186.004 754.398 187.176 754.398 188.816C754.398 190.416 753.232 191.693 751.445 191.676ZM749.488 188.84C749.494 189.836 750.309 190.744 751.445 190.75C752.541 190.744 753.373 189.883 753.379 188.828C753.373 187.785 752.576 186.936 751.469 186.93C750.355 186.936 749.5 187.838 749.488 188.84ZM758.688 191.676C756.9 191.676 755.67 190.686 755.676 189.309C755.67 188.213 756.432 187.305 757.398 187.152V187.105C756.555 186.912 755.998 186.133 756.004 185.207C755.998 183.912 757.135 182.957 758.688 182.957C760.234 182.957 761.371 183.912 761.383 185.207C761.371 186.133 760.809 186.912 759.977 187.105V187.152C760.938 187.305 761.699 188.213 761.711 189.309C761.699 190.686 760.457 191.676 758.688 191.676ZM756.73 189.25C756.713 190.141 757.469 190.744 758.688 190.75C759.9 190.744 760.656 190.141 760.656 189.25C760.656 188.312 759.83 187.621 758.688 187.621C757.551 187.621 756.713 188.312 756.73 189.25ZM757.023 185.289C757.029 186.145 757.715 186.725 758.688 186.73C759.654 186.725 760.352 186.145 760.352 185.289C760.352 184.439 759.678 183.865 758.688 183.871C757.68 183.865 757.029 184.439 757.023 185.289ZM766.082 191.676C764.611 191.658 762.988 190.785 762.988 187.645C762.988 184.639 764.219 182.957 766.211 182.957C767.705 182.957 768.748 183.877 768.965 185.207H767.922C767.729 184.457 767.154 183.895 766.211 183.895C764.816 183.895 763.979 185.084 763.984 187.129H764.09C764.576 186.42 765.355 186.004 766.27 186.004C767.775 186.004 769.035 187.176 769.035 188.816C769.035 190.416 767.869 191.693 766.082 191.676ZM764.125 188.84C764.131 189.836 764.945 190.744 766.082 190.75C767.178 190.744 768.01 189.883 768.016 188.828C768.01 187.785 767.213 186.936 766.105 186.93C764.992 186.936 764.137 187.838 764.125 188.84ZM773.324 191.676C771.537 191.676 770.307 190.686 770.312 189.309C770.307 188.213 771.068 187.305 772.035 187.152V187.105C771.191 186.912 770.635 186.133 770.641 185.207C770.635 183.912 771.771 182.957 773.324 182.957C774.871 182.957 776.008 183.912 776.02 185.207C776.008 186.133 775.445 186.912 774.613 187.105V187.152C775.574 187.305 776.336 188.213 776.348 189.309C776.336 190.686 775.094 191.676 773.324 191.676ZM771.367 189.25C771.35 190.141 772.105 190.744 773.324 190.75C774.537 190.744 775.293 190.141 775.293 189.25C775.293 188.312 774.467 187.621 773.324 187.621C772.188 187.621 771.35 188.312 771.367 189.25ZM771.66 185.289C771.666 186.145 772.352 186.725 773.324 186.73C774.291 186.725 774.988 186.145 774.988 185.289C774.988 184.439 774.314 183.865 773.324 183.871C772.316 183.865 771.666 184.439 771.66 185.289ZM780.719 191.676C779.248 191.658 777.625 190.785 777.625 187.645C777.625 184.639 778.855 182.957 780.848 182.957C782.342 182.957 783.385 183.877 783.602 185.207H782.559C782.365 184.457 781.791 183.895 780.848 183.895C779.453 183.895 778.615 185.084 778.621 187.129H778.727C779.213 186.42 779.992 186.004 780.906 186.004C782.412 186.004 783.672 187.176 783.672 188.816C783.672 190.416 782.506 191.693 780.719 191.676ZM778.762 188.84C778.768 189.836 779.582 190.744 780.719 190.75C781.814 190.744 782.646 189.883 782.652 188.828C782.646 187.785 781.85 186.936 780.742 186.93C779.629 186.936 778.773 187.838 778.762 188.84ZM787.961 191.676C786.174 191.676 784.943 190.686 784.949 189.309C784.943 188.213 785.705 187.305 786.672 187.152V187.105C785.828 186.912 785.271 186.133 785.277 185.207C785.271 183.912 786.408 182.957 787.961 182.957C789.508 182.957 790.645 183.912 790.656 185.207C790.645 186.133 790.082 186.912 789.25 187.105V187.152C790.211 187.305 790.973 188.213 790.984 189.309C790.973 190.686 789.73 191.676 787.961 191.676ZM786.004 189.25C785.986 190.141 786.742 190.744 787.961 190.75C789.174 190.744 789.93 190.141 789.93 189.25C789.93 188.312 789.104 187.621 787.961 187.621C786.824 187.621 785.986 188.312 786.004 189.25ZM786.297 185.289C786.303 186.145 786.988 186.725 787.961 186.73C788.928 186.725 789.625 186.145 789.625 185.289C789.625 184.439 788.951 183.865 787.961 183.871C786.953 183.865 786.303 184.439 786.297 185.289Z" fill="white" fill-opacity="0.78"/>
</svg>
