<svg width="604" height="252" viewBox="0 0 604 252" fill="none" xmlns="http://www.w3.org/2000/svg">
<rect y="36" width="180" height="180" rx="90" fill="#F1F3F5"/>
<path d="M60.6152 125.688V126.426H51.1113V125.688H55.4121V124.469H52.3184V121.023H59.4316V121.762H53.2207V123.719H59.502V124.469H56.3027V125.688H60.6152ZM52.2598 129.062C52.2539 127.873 53.6074 127.193 55.8574 127.188C58.0898 127.193 59.4316 127.873 59.4434 129.062C59.4316 130.264 58.0898 130.938 55.8574 130.949C53.6074 130.938 52.2539 130.264 52.2598 129.062ZM53.1973 129.062C53.1855 129.795 54.1875 130.217 55.8574 130.211C57.5098 130.217 58.5117 129.795 58.5176 129.062C58.5117 128.342 57.5098 127.914 55.8574 127.914C54.1875 127.914 53.1855 128.342 53.1973 129.062ZM64.3535 121.164C65.2324 121.158 65.9766 121.492 66.4629 122.043H69.1934V120.531H70.1191V126.707H69.1934V125.219H66.4629C65.9824 125.77 65.2324 126.104 64.3535 126.098C62.7949 126.104 61.6406 125.084 61.6465 123.637C61.6406 122.178 62.7949 121.158 64.3535 121.164ZM62.5254 123.637C62.5254 124.604 63.2871 125.318 64.3535 125.312C65.3848 125.318 66.1582 124.604 66.1582 123.637C66.1582 122.646 65.3848 121.955 64.3535 121.961C63.2871 121.955 62.5254 122.646 62.5254 123.637ZM63.1699 128.934C63.1641 127.68 64.5 126.953 66.6621 126.953C68.8184 126.953 70.1543 127.68 70.1543 128.934C70.1543 130.199 68.8184 130.926 66.6621 130.926C64.5 130.926 63.1641 130.199 63.1699 128.934ZM64.0723 128.934C64.0664 129.719 65.0625 130.193 66.6621 130.188C68.2617 130.193 69.2578 129.719 69.252 128.934C69.2578 128.143 68.2617 127.674 66.6621 127.668C65.0625 127.674 64.0664 128.143 64.0723 128.934ZM66.9023 122.793C66.9961 123.051 67.0488 123.332 67.0488 123.637C67.0488 123.93 66.9961 124.205 66.9082 124.457H69.1934V122.793H66.9023ZM75.334 122.219C75.334 123.637 76.4121 124.938 77.9238 125.453L77.4199 126.18C76.2715 125.758 75.3633 124.896 74.9062 123.807C74.4609 125.043 73.5293 125.998 72.3105 126.473L71.8184 125.734C73.377 125.154 74.4258 123.76 74.4316 122.148V121.07H75.334V122.219ZM73.2012 129.027C73.207 127.838 74.5137 127.141 76.6582 127.141C78.7969 127.141 80.0918 127.838 80.0918 129.027C80.0918 130.24 78.7969 130.926 76.6582 130.926C74.5137 130.926 73.207 130.24 73.2012 129.027ZM74.127 129.027C74.1152 129.766 75.0879 130.193 76.6582 130.199C78.2344 130.193 79.1953 129.766 79.2012 129.027C79.1953 128.318 78.2344 127.879 76.6582 127.879C75.0879 127.879 74.1152 128.318 74.127 129.027ZM79.084 126.871V120.531H79.998V123.25H81.5684V124.023H79.998V126.871H79.084ZM94.7754 128.828V129.59H85.2363V128.828H89.502V126.273H90.4043V128.828H94.7754ZM85.6113 125.629C87.4336 125.318 89.4609 123.795 89.4668 122.043V121.246H90.4277V122.043C90.4336 123.783 92.4902 125.318 94.3066 125.629L93.8965 126.391C92.3086 126.062 90.6328 124.99 89.959 123.49C89.2734 124.984 87.6152 126.062 86.0215 126.391L85.6113 125.629ZM100.799 122.066C100.805 123.854 102.844 125.441 104.654 125.781L104.232 126.555C102.656 126.191 101.004 125.072 100.33 123.543C99.6504 125.072 98.0039 126.186 96.4277 126.555L96.0059 125.781C97.8105 125.436 99.832 123.859 99.8379 122.066V121.27H100.799V122.066ZM95.6074 129.531V128.77H105.146V129.531H95.6074ZM117.123 120.531V123.203H118.682V123.988H117.123V126.684H116.197V120.531H117.123ZM108.943 125.746C109.775 125.746 110.748 125.746 111.768 125.717V125.072C110.543 124.973 109.77 124.486 109.775 123.695C109.77 122.84 110.73 122.342 112.213 122.348C113.695 122.342 114.65 122.84 114.662 123.695C114.65 124.48 113.895 124.967 112.682 125.072V125.682C113.654 125.635 114.639 125.559 115.553 125.43L115.635 126.051C113.385 126.42 110.883 126.438 109.049 126.438L108.943 125.746ZM109.201 121.996V121.328H111.768V120.438H112.682V121.328H115.236V121.996H109.201ZM110.338 127.809V127.152H117.123V129.25H111.275V130.176H117.521V130.832H110.361V128.629H116.209V127.809H110.338ZM110.654 123.695C110.648 124.164 111.252 124.463 112.213 124.469C113.174 124.463 113.783 124.164 113.783 123.695C113.783 123.238 113.174 122.963 112.213 122.957C111.252 122.963 110.648 123.238 110.654 123.695ZM128.854 125.688V126.449H119.361V125.688H121.717V124.217C120.885 123.895 120.416 123.367 120.416 122.664C120.416 121.439 121.822 120.736 124.107 120.73C126.375 120.736 127.781 121.439 127.787 122.664C127.781 123.361 127.318 123.889 126.498 124.217V125.688H128.854ZM120.51 129.086C120.504 127.896 121.846 127.24 124.107 127.246C126.34 127.24 127.682 127.896 127.693 129.086C127.682 130.275 126.34 130.926 124.107 130.926C121.846 130.926 120.504 130.275 120.51 129.086ZM121.365 122.664C121.359 123.426 122.402 123.865 124.107 123.871C125.795 123.865 126.844 123.426 126.85 122.664C126.844 121.914 125.795 121.457 124.107 121.457C122.402 121.457 121.359 121.914 121.365 122.664ZM121.447 129.086C121.436 129.795 122.438 130.217 124.107 130.211C125.76 130.217 126.762 129.795 126.768 129.086C126.762 128.377 125.76 127.961 124.107 127.949C122.438 127.961 121.436 128.377 121.447 129.086ZM122.631 125.688H125.584V124.463C125.145 124.545 124.652 124.586 124.107 124.586C123.562 124.586 123.07 124.545 122.631 124.469V125.688Z" fill="#535862"/>
<rect x="164" y="36" width="180" height="180" rx="90" fill="#F1F3F5"/>
<path d="M221.762 121.176V122.816H224.832V121.176H225.746V126.086H220.848V121.176H221.762ZM221.762 125.336H224.832V123.555H221.762V125.336ZM221.891 128.172V127.434H228.898V130.949H227.984V128.172H221.891ZM227.984 126.848V120.531H228.898V126.848H227.984ZM242.27 120.531V130.973H241.344V120.531H242.27ZM234.066 124.973C234.072 122.758 235.174 121.346 236.727 121.34C238.273 121.346 239.393 122.758 239.387 124.973C239.393 127.193 238.273 128.6 236.727 128.594C235.174 128.6 234.072 127.193 234.066 124.973ZM234.957 124.973C234.957 126.666 235.684 127.779 236.727 127.773C237.775 127.779 238.496 126.666 238.496 124.973C238.496 123.279 237.775 122.166 236.727 122.16C235.684 122.166 234.957 123.279 234.957 124.973ZM249.477 121.562V128.336H244.66V121.562H249.477ZM245.562 127.586H248.574V122.301H245.562V127.586ZM251.715 130.973V120.531H252.641V130.973H251.715ZM258.148 123.73C258.154 125.5 259.438 127.299 260.973 127.961L260.457 128.688C259.238 128.137 258.189 126.936 257.703 125.494C257.217 127.023 256.162 128.348 254.973 128.945L254.422 128.219C255.916 127.504 257.217 125.535 257.223 123.73V122.371H254.762V121.609H260.633V122.371H258.148V123.73ZM262.086 130.949V120.531H263.012V130.949H262.086ZM276.418 120.531V130.949H275.492V120.531H276.418ZM267.934 128.242C270.752 126.906 272.193 124.908 272.398 122.418H268.414V121.668H273.336C273.324 124.662 271.93 127.316 268.438 128.992L267.934 128.242ZM286.32 120.543V123.695H287.891V124.469H286.32V128.195H285.406V120.543H286.32ZM278.621 126.438V121.293H279.523V123.051H282.559V121.293H283.473V126.438H278.621ZM279.523 125.688H282.559V123.777H279.523V125.688ZM279.805 130.727V127.445H280.707V129.953H286.801V130.727H279.805Z" fill="#535862"/>
<rect x="424" y="36" width="180" height="180" rx="90" fill="url(#paint0_linear_1113_42956)"/>
<path d="M476.739 125.528L477.92 121.809H479.532L478.948 125.528H476.739ZM489.815 120.514V123.142H491.161V124.83H489.815V127.42H487.784V120.514H489.815ZM480.116 126.036C480.916 126.036 481.817 126.036 482.757 126.017V125.636C481.538 125.452 480.795 124.932 480.802 124.119C480.795 123.18 481.957 122.621 483.76 122.621C485.55 122.621 486.711 123.18 486.705 124.119C486.711 124.925 485.981 125.446 484.788 125.63V125.947C485.658 125.903 486.527 125.833 487.353 125.731L487.492 126.963C485.017 127.382 482.357 127.395 480.319 127.395L480.116 126.036ZM480.434 122.494V121.161H482.757V120.438H484.788V121.161H487.099V122.494H480.434ZM481.678 132.206V129.375H487.784V129.083H481.678V127.763H489.815V130.568H483.722V130.898H490.171V132.206H481.678ZM482.744 124.119C482.744 124.367 483.087 124.449 483.76 124.449C484.42 124.449 484.756 124.367 484.763 124.119C484.756 123.903 484.42 123.853 483.76 123.853C483.087 123.853 482.744 123.903 482.744 124.119ZM497.204 121.187V125.084H493.967V125.973C495.439 125.966 496.398 125.903 497.471 125.693L497.648 127.318C496.334 127.547 495.078 127.579 492.875 127.585H491.961V123.599H495.16V122.761H491.948V121.187H497.204ZM493.319 129.832V128.22H501.521V132.257H499.489V129.832H493.319ZM497.813 126.214V124.614H499.489V123.688H497.813V122.088H499.489V120.539H501.521V127.775H499.489V126.214H497.813ZM505.786 121.809L504.605 125.528H502.993L503.577 121.809H505.786ZM507.437 130.01L506.256 133.729H504.644L505.228 130.01H507.437ZM510.979 125.528L512.159 121.809H513.771L513.188 125.528H510.979ZM518.443 122.469C518.443 123.637 518.888 124.786 520.271 125.433V120.729H522.15V123.218H522.76V120.539H524.689V127.674H522.76V124.855H522.15V127.306H520.271V125.903L519.446 127.09C518.532 126.747 517.904 126.138 517.491 125.382C517.072 126.309 516.387 127.064 515.346 127.483L514.254 125.922C515.974 125.173 516.457 123.77 516.463 122.469V121.225H518.443V122.469ZM516.463 130.01C516.457 128.62 518.082 127.763 520.589 127.763C523.096 127.763 524.74 128.62 524.753 130.01C524.74 131.413 523.096 132.282 520.589 132.282C518.082 132.282 516.457 131.413 516.463 130.01ZM518.494 130.01C518.494 130.543 519.224 130.759 520.589 130.759C521.96 130.759 522.69 130.543 522.696 130.01C522.69 129.496 521.96 129.261 520.589 129.273C519.224 129.261 518.494 129.496 518.494 130.01ZM536.509 125.896V127.496H525.769V125.896H530.148V125.135H527.038V121.021H535.252V122.596H529.057V123.548H535.303V125.135H532.154V125.896H536.509ZM526.949 130.111C526.956 128.689 528.517 127.909 531.101 127.902C533.665 127.909 535.208 128.689 535.214 130.111C535.208 131.495 533.665 132.295 531.101 132.295C528.517 132.295 526.956 131.495 526.949 130.111ZM529.031 130.111C529.019 130.587 529.641 130.759 531.101 130.759C532.516 130.759 533.17 130.587 533.17 130.111C533.17 129.635 532.516 129.438 531.101 129.438C529.641 129.438 529.019 129.635 529.031 130.111ZM546.398 120.514V122.9H547.858V124.563H546.398V127.014H544.354V120.514H546.398ZM536.801 125.757C539.257 125.192 540.533 124.062 540.812 122.761H537.41V121.161H543.06C543.053 124.36 541.162 126.461 537.601 127.382L536.801 125.757ZM538.565 132.13V127.395H546.398V132.13H538.565ZM540.584 130.556H544.393V129.02H540.584V130.556ZM551.261 121.809L550.08 125.528H548.468L549.052 121.809H551.261Z" fill="white"/>
<path d="M341.333 126C341.333 127.473 342.527 128.667 344 128.667C345.473 128.667 346.667 127.473 346.667 126C346.667 124.527 345.473 123.333 344 123.333C342.527 123.333 341.333 124.527 341.333 126ZM424 126L419 123.113V128.887L424 126ZM344 126V126.5H345V126V125.5H344V126ZM347 126V126.5H349V126V125.5H347V126ZM351 126V126.5H353V126V125.5H351V126ZM355 126V126.5H357V126V125.5H355V126ZM359 126V126.5H361V126V125.5H359V126ZM363 126V126.5H365V126V125.5H363V126ZM367 126V126.5H369V126V125.5H367V126ZM371 126V126.5H373V126V125.5H371V126ZM375 126V126.5H377V126V125.5H375V126ZM379 126V126.5H381V126V125.5H379V126ZM383 126V126.5H385V126V125.5H383V126ZM387 126V126.5H389V126V125.5H387V126ZM391 126V126.5H393V126V125.5H391V126ZM395 126V126.5H397V126V125.5H395V126ZM399 126V126.5H401V126V125.5H399V126ZM403 126V126.5H405V126V125.5H403V126ZM407 126V126.5H409V126V125.5H407V126ZM411 126V126.5H413V126V125.5H411V126ZM415 126V126.5H417V126V125.5H415V126ZM419 126V126.5H421V126V125.5H419V126Z" fill="url(#paint1_linear_1113_42956)"/>
<defs>
<linearGradient id="paint0_linear_1113_42956" x1="514" y1="36" x2="514" y2="216" gradientUnits="userSpaceOnUse">
<stop stop-color="#EC0008"/>
<stop offset="1" stop-color="#860005"/>
</linearGradient>
<linearGradient id="paint1_linear_1113_42956" x1="344" y1="126.5" x2="424" y2="126.5" gradientUnits="userSpaceOnUse">
<stop stop-color="#CED4DA"/>
<stop offset="1" stop-color="#534D4A"/>
</linearGradient>
</defs>
</svg>
