<svg width="960" height="491" viewBox="0 0 960 491" fill="none" xmlns="http://www.w3.org/2000/svg">
<g clip-path="url(#clip0_570_37121)">
<rect width="464" height="320" rx="16" fill="#00BC7C"/>
<path d="M25.3983 38V26.8H30.4863C34.1503 26.8 36.6623 29.008 36.6623 32.4C36.6623 35.792 34.1503 38 30.4863 38H25.3983ZM27.9903 35.872H30.3583C32.5823 35.872 34.0383 34.544 34.0383 32.4C34.0383 30.256 32.5823 28.928 30.3583 28.928H27.9903V35.872ZM42.5371 38.128C39.8011 38.128 37.8011 36.288 37.8011 33.696C37.8011 31.104 39.8011 29.264 42.5371 29.264C45.2731 29.264 47.2571 31.104 47.2571 33.696C47.2571 36.288 45.2731 38.128 42.5371 38.128ZM42.5371 36.08C43.7851 36.08 44.7291 35.184 44.7291 33.696C44.7291 32.208 43.7851 31.312 42.5371 31.312C41.2891 31.312 40.3291 32.208 40.3291 33.696C40.3291 35.184 41.2891 36.08 42.5371 36.08ZM53.0854 38.128C50.2854 38.128 48.2854 36.288 48.2854 33.696C48.2854 31.104 50.2854 29.264 53.0854 29.264C54.8934 29.264 56.3174 30.048 56.9414 31.456L55.0054 32.496C54.5414 31.68 53.8534 31.312 53.0694 31.312C51.8054 31.312 50.8134 32.192 50.8134 33.696C50.8134 35.2 51.8054 36.08 53.0694 36.08C53.8534 36.08 54.5414 35.728 55.0054 34.896L56.9414 35.952C56.3174 37.328 54.8934 38.128 53.0854 38.128ZM59.7604 26C60.6564 26 61.2964 26.624 61.2964 27.536C61.2964 27.952 61.2324 28.256 60.8804 29.136L59.9524 31.44H58.3684L59.0564 28.912C58.5444 28.688 58.2084 28.208 58.2084 27.536C58.2084 26.608 58.8804 26 59.7604 26ZM65.6027 38.128C64.1467 38.128 62.6747 37.728 61.8747 37.2L62.7067 35.408C63.4747 35.904 64.6427 36.24 65.6987 36.24C66.8507 36.24 67.2827 35.936 67.2827 35.456C67.2827 34.048 62.0827 35.488 62.0827 32.048C62.0827 30.416 63.5547 29.264 66.0667 29.264C67.2507 29.264 68.5627 29.536 69.3787 30.016L68.5467 31.792C67.6987 31.312 66.8507 31.152 66.0667 31.152C64.9467 31.152 64.4667 31.504 64.4667 31.952C64.4667 33.424 69.6667 32 69.6667 35.392C69.6667 36.992 68.1787 38.128 65.6027 38.128ZM83.4819 35.504V32.224H85.8499V36.768C84.6179 37.696 82.9219 38.192 81.3219 38.192C77.8019 38.192 75.2099 35.776 75.2099 32.4C75.2099 29.024 77.8019 26.608 81.3699 26.608C83.3379 26.608 84.9699 27.28 86.0579 28.544L84.3939 30.08C83.5779 29.216 82.6339 28.816 81.4979 28.816C79.3219 28.816 77.8339 30.272 77.8339 32.4C77.8339 34.496 79.3219 35.984 81.4659 35.984C82.1699 35.984 82.8259 35.856 83.4819 35.504ZM90.4657 30.528C91.0737 29.696 92.0977 29.264 93.4257 29.264V31.568C93.2177 31.552 93.0577 31.536 92.8657 31.536C91.4897 31.536 90.5777 32.288 90.5777 33.936V38H88.0817V29.392H90.4657V30.528ZM103.264 33.728C103.264 33.92 103.232 34.192 103.216 34.4H96.7037C96.9437 35.472 97.8557 36.128 99.1677 36.128C100.08 36.128 100.736 35.856 101.328 35.296L102.656 36.736C101.856 37.648 100.656 38.128 99.1037 38.128C96.1277 38.128 94.1917 36.256 94.1917 33.696C94.1917 31.12 96.1597 29.264 98.7837 29.264C101.312 29.264 103.264 30.96 103.264 33.728ZM98.7997 31.152C97.6637 31.152 96.8477 31.84 96.6717 32.944H100.912C100.736 31.856 99.9197 31.152 98.7997 31.152ZM113.357 33.728C113.357 33.92 113.325 34.192 113.309 34.4H106.797C107.037 35.472 107.949 36.128 109.261 36.128C110.173 36.128 110.829 35.856 111.421 35.296L112.749 36.736C111.949 37.648 110.749 38.128 109.197 38.128C106.221 38.128 104.285 36.256 104.285 33.696C104.285 31.12 106.253 29.264 108.877 29.264C111.405 29.264 113.357 30.96 113.357 33.728ZM108.893 31.152C107.757 31.152 106.941 31.84 106.765 32.944H111.005C110.829 31.856 110.013 31.152 108.893 31.152ZM120.251 29.264C122.283 29.264 123.819 30.448 123.819 33.072V38H121.323V33.456C121.323 32.064 120.683 31.424 119.579 31.424C118.379 31.424 117.515 32.16 117.515 33.744V38H115.019V29.392H117.403V30.4C118.075 29.664 119.083 29.264 120.251 29.264Z" fill="white"/>
<path d="M31.882 261.2H34.15V271H31.882V266.982H27.43V271H25.162V261.2H27.43V265.064H31.882V261.2ZM38.7226 269.18H44.0566V271H36.4686V261.2H43.8746V263.02H38.7226V265.148H43.2726V266.912H38.7226V269.18ZM54.5575 271H51.9395L49.5735 267.598L47.2495 271H44.6455L48.2715 266.016L44.8275 261.2H47.4035L49.6575 264.378L51.8695 261.2H54.3195L50.9035 265.932L54.5575 271ZM32.112 284.636H30.348L30.06 286.964H31.728V287.84H29.952L29.688 290H28.836L29.1 287.84H26.832L26.568 290H25.716L25.98 287.84H24.324V286.964H26.088L26.388 284.636H24.708V283.76H26.496L26.76 281.6H27.612L27.348 283.76H29.604L29.868 281.6H30.72L30.456 283.76H32.112V284.636ZM29.208 286.964L29.496 284.636H27.24L26.94 286.964H29.208ZM36.4455 290.096C34.4775 290.096 33.0135 288.536 33.0135 285.8C33.0135 283.064 34.4775 281.504 36.4455 281.504C38.4015 281.504 39.8655 283.064 39.8655 285.8C39.8655 288.536 38.4015 290.096 36.4455 290.096ZM36.4455 289.028C37.7535 289.028 38.6655 287.948 38.6655 285.8C38.6655 283.652 37.7535 282.572 36.4455 282.572C35.1255 282.572 34.2135 283.652 34.2135 285.8C34.2135 287.948 35.1255 289.028 36.4455 289.028ZM44.4494 290.096C42.4814 290.096 41.0174 288.536 41.0174 285.8C41.0174 283.064 42.4814 281.504 44.4494 281.504C46.4054 281.504 47.8694 283.064 47.8694 285.8C47.8694 288.536 46.4054 290.096 44.4494 290.096ZM44.4494 289.028C45.7574 289.028 46.6694 287.948 46.6694 285.8C46.6694 283.652 45.7574 282.572 44.4494 282.572C43.1294 282.572 42.2174 283.652 42.2174 285.8C42.2174 287.948 43.1294 289.028 44.4494 289.028ZM55.3573 285.644C56.3053 285.908 56.9293 286.616 56.9293 287.732C56.9293 289.172 55.8373 290 53.7133 290H49.7053V281.6H53.4733C55.4053 281.6 56.4853 282.416 56.4853 283.772C56.4853 284.684 56.0173 285.32 55.3573 285.644ZM53.3653 282.572H50.9053V285.26H53.3653C54.5893 285.26 55.2853 284.804 55.2853 283.916C55.2853 283.028 54.5893 282.572 53.3653 282.572ZM53.6653 289.028C54.9973 289.028 55.7173 288.608 55.7173 287.636C55.7173 286.664 54.9973 286.232 53.6653 286.232H50.9053V289.028H53.6653ZM62.5433 290.096C59.9993 290.096 58.1033 288.284 58.1033 285.8C58.1033 283.316 59.9993 281.504 62.5553 281.504C63.8513 281.504 64.9793 281.948 65.7473 282.812L64.9673 283.568C64.3193 282.884 63.5273 282.572 62.6033 282.572C60.7073 282.572 59.3033 283.94 59.3033 285.8C59.3033 287.66 60.7073 289.028 62.6033 289.028C63.5273 289.028 64.3193 288.704 64.9673 288.02L65.7473 288.776C64.9793 289.64 63.8513 290.096 62.5433 290.096ZM66.5592 281.6H72.8952V282.416L69.4992 290H68.2272L71.5512 282.644H67.7112V284.144H66.5592V281.6ZM78.1762 290.096C75.6322 290.096 73.7362 288.284 73.7362 285.8C73.7362 283.316 75.6322 281.504 78.1882 281.504C79.4842 281.504 80.6122 281.948 81.3802 282.812L80.6002 283.568C79.9522 282.884 79.1602 282.572 78.2362 282.572C76.3402 282.572 74.9362 283.94 74.9362 285.8C74.9362 287.66 76.3402 289.028 78.2362 289.028C79.1602 289.028 79.9522 288.704 80.6002 288.02L81.3802 288.776C80.6122 289.64 79.4842 290.096 78.1762 290.096Z" fill="white"/>
<path d="M241.842 271H239.406L237.516 268.27H237.404H235.43V271H233.162V261.2H237.404C240.022 261.2 241.66 262.558 241.66 264.756C241.66 266.226 240.918 267.304 239.644 267.85L241.842 271ZM239.364 264.756C239.364 263.678 238.664 263.048 237.278 263.048H235.43V266.464H237.278C238.664 266.464 239.364 265.82 239.364 264.756ZM250.079 268.816V265.946H252.151V269.922C251.073 270.734 249.589 271.168 248.189 271.168C245.109 271.168 242.841 269.054 242.841 266.1C242.841 263.146 245.109 261.032 248.231 261.032C249.953 261.032 251.381 261.62 252.333 262.726L250.877 264.07C250.163 263.314 249.337 262.964 248.343 262.964C246.439 262.964 245.137 264.238 245.137 266.1C245.137 267.934 246.439 269.236 248.315 269.236C248.931 269.236 249.505 269.124 250.079 268.816ZM261.454 265.904C262.546 266.254 263.246 267.094 263.246 268.326C263.246 270.02 261.902 271 259.326 271H254.258V261.2H259.046C261.496 261.2 262.756 262.222 262.756 263.748C262.756 264.728 262.252 265.484 261.454 265.904ZM258.766 262.908H256.512V265.218H258.766C259.872 265.218 260.474 264.826 260.474 264.056C260.474 263.286 259.872 262.908 258.766 262.908ZM259.158 269.292C260.334 269.292 260.964 268.928 260.964 268.088C260.964 267.262 260.334 266.87 259.158 266.87H256.512V269.292H259.158ZM236.008 290.096C234.04 290.096 232.576 288.536 232.576 285.8C232.576 283.064 234.04 281.504 236.008 281.504C237.964 281.504 239.428 283.064 239.428 285.8C239.428 288.536 237.964 290.096 236.008 290.096ZM236.008 289.028C237.316 289.028 238.228 287.948 238.228 285.8C238.228 283.652 237.316 282.572 236.008 282.572C234.688 282.572 233.776 283.652 233.776 285.8C233.776 287.948 234.688 289.028 236.008 289.028ZM241.243 288.428C241.699 288.428 242.023 288.776 242.023 289.244C242.023 289.484 241.975 289.664 241.819 290.108L241.255 291.776H240.499L240.943 289.988C240.643 289.88 240.439 289.604 240.439 289.244C240.439 288.764 240.787 288.428 241.243 288.428ZM245.901 281.6H248.985V290H247.797V282.644H245.901V281.6ZM255.958 285.596C256.918 285.968 257.446 286.664 257.446 287.624C257.446 289.148 256.15 290.096 254.098 290.096C252.058 290.096 250.774 289.148 250.774 287.624C250.774 286.664 251.302 285.956 252.25 285.596C251.482 285.236 251.074 284.612 251.074 283.784C251.074 282.38 252.286 281.504 254.098 281.504C255.922 281.504 257.146 282.38 257.146 283.784C257.146 284.612 256.726 285.236 255.958 285.596ZM254.098 282.476C252.97 282.476 252.262 282.992 252.262 283.832C252.262 284.66 252.946 285.176 254.098 285.176C255.262 285.176 255.97 284.66 255.97 283.832C255.97 282.992 255.226 282.476 254.098 282.476ZM254.098 289.124C255.43 289.124 256.246 288.536 256.246 287.588C256.246 286.664 255.43 286.088 254.098 286.088C252.766 286.088 251.974 286.664 251.974 287.588C251.974 288.536 252.766 289.124 254.098 289.124ZM263.681 285.596C264.641 285.968 265.169 286.664 265.169 287.624C265.169 289.148 263.873 290.096 261.821 290.096C259.781 290.096 258.497 289.148 258.497 287.624C258.497 286.664 259.025 285.956 259.973 285.596C259.205 285.236 258.797 284.612 258.797 283.784C258.797 282.38 260.009 281.504 261.821 281.504C263.645 281.504 264.869 282.38 264.869 283.784C264.869 284.612 264.449 285.236 263.681 285.596ZM261.821 282.476C260.693 282.476 259.985 282.992 259.985 283.832C259.985 284.66 260.669 285.176 261.821 285.176C262.985 285.176 263.693 284.66 263.693 283.832C263.693 282.992 262.949 282.476 261.821 282.476ZM261.821 289.124C263.153 289.124 263.969 288.536 263.969 287.588C263.969 286.664 263.153 286.088 261.821 286.088C260.489 286.088 259.697 286.664 259.697 287.588C259.697 288.536 260.489 289.124 261.821 289.124ZM267.189 288.428C267.645 288.428 267.969 288.776 267.969 289.244C267.969 289.484 267.921 289.664 267.765 290.108L267.201 291.776H266.445L266.889 289.988C266.589 289.88 266.385 289.604 266.385 289.244C266.385 288.764 266.733 288.428 267.189 288.428ZM273.922 288.956H278.23V290H272.194V289.184L275.614 285.884C276.502 285.02 276.67 284.492 276.67 283.964C276.67 283.1 276.058 282.572 274.882 282.572C273.982 282.572 273.25 282.86 272.734 283.484L271.918 282.776C272.566 281.972 273.682 281.504 274.99 281.504C276.742 281.504 277.87 282.404 277.87 283.844C277.87 284.66 277.63 285.392 276.49 286.484L273.922 288.956ZM286.302 286.904V287.936H284.706V290H283.542V287.936H278.874V287.096L283.17 281.6H284.466L280.35 286.904H283.578V285.08H284.706V286.904H286.302ZM294.329 286.904V287.936H292.733V290H291.569V287.936H286.901V287.096L291.197 281.6H292.493L288.377 286.904H291.605V285.08H292.733V286.904H294.329Z" fill="white"/>
<rect y="336" width="464" height="155" rx="16" fill="url(#paint0_linear_570_37121)"/>
<path d="M25.5702 374V362.8H30.6582C34.3222 362.8 36.8342 365.008 36.8342 368.4C36.8342 371.792 34.3222 374 30.6582 374H25.5702ZM28.1622 371.872H30.5302C32.7542 371.872 34.2102 370.544 34.2102 368.4C34.2102 366.256 32.7542 364.928 30.5302 364.928H28.1622V371.872ZM42.7089 374.128C39.9729 374.128 37.9729 372.288 37.9729 369.696C37.9729 367.104 39.9729 365.264 42.7089 365.264C45.4449 365.264 47.4289 367.104 47.4289 369.696C47.4289 372.288 45.4449 374.128 42.7089 374.128ZM42.7089 372.08C43.9569 372.08 44.9009 371.184 44.9009 369.696C44.9009 368.208 43.9569 367.312 42.7089 367.312C41.4609 367.312 40.5009 368.208 40.5009 369.696C40.5009 371.184 41.4609 372.08 42.7089 372.08ZM53.2573 374.128C50.4573 374.128 48.4573 372.288 48.4573 369.696C48.4573 367.104 50.4573 365.264 53.2573 365.264C55.0653 365.264 56.4893 366.048 57.1133 367.456L55.1773 368.496C54.7133 367.68 54.0253 367.312 53.2413 367.312C51.9773 367.312 50.9853 368.192 50.9853 369.696C50.9853 371.2 51.9773 372.08 53.2413 372.08C54.0253 372.08 54.7133 371.728 55.1773 370.896L57.1133 371.952C56.4893 373.328 55.0653 374.128 53.2573 374.128ZM59.9323 362C60.8283 362 61.4683 362.624 61.4683 363.536C61.4683 363.952 61.4043 364.256 61.0523 365.136L60.1243 367.44H58.5403L59.2283 364.912C58.7163 364.688 58.3803 364.208 58.3803 363.536C58.3803 362.608 59.0523 362 59.9323 362ZM65.7746 374.128C64.3186 374.128 62.8466 373.728 62.0466 373.2L62.8786 371.408C63.6466 371.904 64.8146 372.24 65.8706 372.24C67.0226 372.24 67.4546 371.936 67.4546 371.456C67.4546 370.048 62.2546 371.488 62.2546 368.048C62.2546 366.416 63.7266 365.264 66.2386 365.264C67.4226 365.264 68.7346 365.536 69.5506 366.016L68.7186 367.792C67.8706 367.312 67.0226 367.152 66.2386 367.152C65.1186 367.152 64.6386 367.504 64.6386 367.952C64.6386 369.424 69.8386 368 69.8386 371.392C69.8386 372.992 68.3506 374.128 65.7746 374.128ZM83.6538 371.504V368.224H86.0218V372.768C84.7898 373.696 83.0938 374.192 81.4938 374.192C77.9738 374.192 75.3818 371.776 75.3818 368.4C75.3818 365.024 77.9738 362.608 81.5418 362.608C83.5098 362.608 85.1418 363.28 86.2298 364.544L84.5658 366.08C83.7498 365.216 82.8058 364.816 81.6698 364.816C79.4938 364.816 78.0058 366.272 78.0058 368.4C78.0058 370.496 79.4938 371.984 81.6378 371.984C82.3418 371.984 82.9978 371.856 83.6538 371.504ZM90.6376 366.528C91.2456 365.696 92.2696 365.264 93.5976 365.264V367.568C93.3896 367.552 93.2296 367.536 93.0376 367.536C91.6616 367.536 90.7496 368.288 90.7496 369.936V374H88.2536V365.392H90.6376V366.528ZM98.5068 365.264C101.131 365.264 102.651 366.48 102.651 369.088V374H100.315V372.928C99.8508 373.712 98.9548 374.128 97.6908 374.128C95.6748 374.128 94.4748 373.008 94.4748 371.52C94.4748 370 95.5468 368.944 98.1708 368.944H100.155C100.155 367.872 99.5148 367.248 98.1708 367.248C97.2588 367.248 96.3148 367.552 95.6908 368.048L94.7948 366.304C95.7388 365.632 97.1308 365.264 98.5068 365.264ZM98.3148 372.448C99.1468 372.448 99.8668 372.064 100.155 371.28V370.4H98.4428C97.2748 370.4 96.9068 370.832 96.9068 371.408C96.9068 372.032 97.4348 372.448 98.3148 372.448Z" fill="white"/>
<path d="M29.852 442.168C26.814 442.168 24.546 440.054 24.546 437.1C24.546 434.146 26.814 432.032 29.866 432.032C31.56 432.032 32.974 432.648 33.898 433.768L32.442 435.112C31.784 434.356 30.958 433.964 29.978 433.964C28.144 433.964 26.842 435.252 26.842 437.1C26.842 438.948 28.144 440.236 29.978 440.236C30.958 440.236 31.784 439.844 32.442 439.074L33.898 440.418C32.974 441.552 31.56 442.168 29.852 442.168ZM38.5998 442.112C36.2058 442.112 34.4558 440.502 34.4558 438.234C34.4558 435.966 36.2058 434.356 38.5998 434.356C40.9938 434.356 42.7298 435.966 42.7298 438.234C42.7298 440.502 40.9938 442.112 38.5998 442.112ZM38.5998 440.32C39.6918 440.32 40.5178 439.536 40.5178 438.234C40.5178 436.932 39.6918 436.148 38.5998 436.148C37.5078 436.148 36.6678 436.932 36.6678 438.234C36.6678 439.536 37.5078 440.32 38.5998 440.32ZM44.1896 442V431.612H46.3736V442H44.1896ZM51.9846 442.112C49.5906 442.112 47.8406 440.502 47.8406 438.234C47.8406 435.966 49.5906 434.356 51.9846 434.356C54.3786 434.356 56.1146 435.966 56.1146 438.234C56.1146 440.502 54.3786 442.112 51.9846 442.112ZM51.9846 440.32C53.0766 440.32 53.9026 439.536 53.9026 438.234C53.9026 436.932 53.0766 436.148 51.9846 436.148C50.8926 436.148 50.0526 436.932 50.0526 438.234C50.0526 439.536 50.8926 440.32 51.9846 440.32ZM59.6604 435.462C60.1924 434.734 61.0884 434.356 62.2504 434.356V436.372C62.0684 436.358 61.9284 436.344 61.7604 436.344C60.5564 436.344 59.7584 437.002 59.7584 438.444V442H57.5744V434.468H59.6604V435.462ZM66.6585 432.2H70.8865V442H68.6185V434.02H66.6585V432.2ZM32.112 455.636H30.348L30.06 457.964H31.728V458.84H29.952L29.688 461H28.836L29.1 458.84H26.832L26.568 461H25.716L25.98 458.84H24.324V457.964H26.088L26.388 455.636H24.708V454.76H26.496L26.76 452.6H27.612L27.348 454.76H29.604L29.868 452.6H30.72L30.456 454.76H32.112V455.636ZM29.208 457.964L29.496 455.636H27.24L26.94 457.964H29.208ZM36.4455 461.096C34.4775 461.096 33.0135 459.536 33.0135 456.8C33.0135 454.064 34.4775 452.504 36.4455 452.504C38.4015 452.504 39.8655 454.064 39.8655 456.8C39.8655 459.536 38.4015 461.096 36.4455 461.096ZM36.4455 460.028C37.7535 460.028 38.6655 458.948 38.6655 456.8C38.6655 454.652 37.7535 453.572 36.4455 453.572C35.1255 453.572 34.2135 454.652 34.2135 456.8C34.2135 458.948 35.1255 460.028 36.4455 460.028ZM44.4494 461.096C42.4814 461.096 41.0174 459.536 41.0174 456.8C41.0174 454.064 42.4814 452.504 44.4494 452.504C46.4054 452.504 47.8694 454.064 47.8694 456.8C47.8694 459.536 46.4054 461.096 44.4494 461.096ZM44.4494 460.028C45.7574 460.028 46.6694 458.948 46.6694 456.8C46.6694 454.652 45.7574 453.572 44.4494 453.572C43.1294 453.572 42.2174 454.652 42.2174 456.8C42.2174 458.948 43.1294 460.028 44.4494 460.028ZM55.3573 456.644C56.3053 456.908 56.9293 457.616 56.9293 458.732C56.9293 460.172 55.8373 461 53.7133 461H49.7053V452.6H53.4733C55.4053 452.6 56.4853 453.416 56.4853 454.772C56.4853 455.684 56.0173 456.32 55.3573 456.644ZM53.3653 453.572H50.9053V456.26H53.3653C54.5893 456.26 55.2853 455.804 55.2853 454.916C55.2853 454.028 54.5893 453.572 53.3653 453.572ZM53.6653 460.028C54.9973 460.028 55.7173 459.608 55.7173 458.636C55.7173 457.664 54.9973 457.232 53.6653 457.232H50.9053V460.028H53.6653ZM62.5433 461.096C59.9993 461.096 58.1033 459.284 58.1033 456.8C58.1033 454.316 59.9993 452.504 62.5553 452.504C63.8513 452.504 64.9793 452.948 65.7473 453.812L64.9673 454.568C64.3193 453.884 63.5273 453.572 62.6033 453.572C60.7073 453.572 59.3033 454.94 59.3033 456.8C59.3033 458.66 60.7073 460.028 62.6033 460.028C63.5273 460.028 64.3193 459.704 64.9673 459.02L65.7473 459.776C64.9793 460.64 63.8513 461.096 62.5433 461.096ZM66.5592 452.6H72.8952V453.416L69.4992 461H68.2272L71.5512 453.644H67.7112V455.144H66.5592V452.6ZM78.1762 461.096C75.6322 461.096 73.7362 459.284 73.7362 456.8C73.7362 454.316 75.6322 452.504 78.1882 452.504C79.4842 452.504 80.6122 452.948 81.3802 453.812L80.6002 454.568C79.9522 453.884 79.1602 453.572 78.2362 453.572C76.3402 453.572 74.9362 454.94 74.9362 456.8C74.9362 458.66 76.3402 460.028 78.2362 460.028C79.1602 460.028 79.9522 459.704 80.6002 459.02L81.3802 459.776C80.6122 460.64 79.4842 461.096 78.1762 461.096Z" fill="white"/>
<path d="M168.518 442.168C165.48 442.168 163.212 440.054 163.212 437.1C163.212 434.146 165.48 432.032 168.532 432.032C170.226 432.032 171.64 432.648 172.564 433.768L171.108 435.112C170.45 434.356 169.624 433.964 168.644 433.964C166.81 433.964 165.508 435.252 165.508 437.1C165.508 438.948 166.81 440.236 168.644 440.236C169.624 440.236 170.45 439.844 171.108 439.074L172.564 440.418C171.64 441.552 170.226 442.168 168.518 442.168ZM177.266 442.112C174.872 442.112 173.122 440.502 173.122 438.234C173.122 435.966 174.872 434.356 177.266 434.356C179.66 434.356 181.396 435.966 181.396 438.234C181.396 440.502 179.66 442.112 177.266 442.112ZM177.266 440.32C178.358 440.32 179.184 439.536 179.184 438.234C179.184 436.932 178.358 436.148 177.266 436.148C176.174 436.148 175.334 436.932 175.334 438.234C175.334 439.536 176.174 440.32 177.266 440.32ZM182.856 442V431.612H185.04V442H182.856ZM190.651 442.112C188.257 442.112 186.507 440.502 186.507 438.234C186.507 435.966 188.257 434.356 190.651 434.356C193.045 434.356 194.781 435.966 194.781 438.234C194.781 440.502 193.045 442.112 190.651 442.112ZM190.651 440.32C191.743 440.32 192.569 439.536 192.569 438.234C192.569 436.932 191.743 436.148 190.651 436.148C189.559 436.148 188.719 436.932 188.719 438.234C188.719 439.536 189.559 440.32 190.651 440.32ZM198.326 435.462C198.858 434.734 199.754 434.356 200.916 434.356V436.372C200.734 436.358 200.594 436.344 200.426 436.344C199.222 436.344 198.424 437.002 198.424 438.444V442H196.24V434.468H198.326V435.462ZM208.881 440.152H213.095V442H205.689V440.53L209.469 436.96C210.337 436.134 210.491 435.63 210.491 435.154C210.491 434.384 209.959 433.936 208.923 433.936C208.083 433.936 207.369 434.258 206.893 434.916L205.241 433.852C205.997 432.746 207.369 432.032 209.133 432.032C211.317 432.032 212.773 433.152 212.773 434.93C212.773 435.882 212.507 436.75 211.135 438.024L208.881 440.152ZM170.778 455.636H169.014L168.726 457.964H170.394V458.84H168.618L168.354 461H167.502L167.766 458.84H165.498L165.234 461H164.382L164.646 458.84H162.99V457.964H164.754L165.054 455.636H163.374V454.76H165.162L165.426 452.6H166.278L166.014 454.76H168.27L168.534 452.6H169.386L169.122 454.76H170.778V455.636ZM167.874 457.964L168.162 455.636H165.906L165.606 457.964H167.874ZM175.112 461.096C173.144 461.096 171.68 459.536 171.68 456.8C171.68 454.064 173.144 452.504 175.112 452.504C177.068 452.504 178.532 454.064 178.532 456.8C178.532 459.536 177.068 461.096 175.112 461.096ZM175.112 460.028C176.42 460.028 177.332 458.948 177.332 456.8C177.332 454.652 176.42 453.572 175.112 453.572C173.792 453.572 172.88 454.652 172.88 456.8C172.88 458.948 173.792 460.028 175.112 460.028ZM183.115 461.096C181.147 461.096 179.683 459.536 179.683 456.8C179.683 454.064 181.147 452.504 183.115 452.504C185.071 452.504 186.535 454.064 186.535 456.8C186.535 459.536 185.071 461.096 183.115 461.096ZM183.115 460.028C184.423 460.028 185.335 458.948 185.335 456.8C185.335 454.652 184.423 453.572 183.115 453.572C181.795 453.572 180.883 454.652 180.883 456.8C180.883 458.948 181.795 460.028 183.115 460.028ZM191.311 455.9C192.979 455.9 194.191 456.896 194.191 458.444C194.191 460.064 192.883 461.096 191.215 461.096C188.959 461.096 187.687 459.584 187.687 456.908C187.687 454.04 189.307 452.504 191.659 452.504C192.451 452.504 193.207 452.66 193.747 452.996L193.291 453.932C192.859 453.644 192.283 453.536 191.683 453.536C189.979 453.536 188.887 454.604 188.887 456.704C188.887 456.8 188.887 456.896 188.899 457.004C189.379 456.284 190.267 455.9 191.311 455.9ZM191.167 460.124C192.259 460.124 193.027 459.488 193.027 458.492C193.027 457.508 192.283 456.872 191.107 456.872C189.967 456.872 189.175 457.58 189.175 458.504C189.175 459.368 189.871 460.124 191.167 460.124ZM202.136 461L201.212 458.9H196.748L195.824 461H194.588L198.392 452.6H199.58L203.396 461H202.136ZM197.168 457.94H200.792L198.98 453.824L197.168 457.94ZM210.577 453.644H205.849V456.572H210.061V457.604H205.849V461H204.649V452.6H210.577V453.644ZM218.194 453.644H213.466V456.572H217.678V457.604H213.466V461H212.266V452.6H218.194V453.644Z" fill="white"/>
<path d="M307.186 442.168C304.148 442.168 301.88 440.054 301.88 437.1C301.88 434.146 304.148 432.032 307.2 432.032C308.894 432.032 310.308 432.648 311.232 433.768L309.776 435.112C309.118 434.356 308.292 433.964 307.312 433.964C305.478 433.964 304.176 435.252 304.176 437.1C304.176 438.948 305.478 440.236 307.312 440.236C308.292 440.236 309.118 439.844 309.776 439.074L311.232 440.418C310.308 441.552 308.894 442.168 307.186 442.168ZM315.934 442.112C313.54 442.112 311.79 440.502 311.79 438.234C311.79 435.966 313.54 434.356 315.934 434.356C318.328 434.356 320.064 435.966 320.064 438.234C320.064 440.502 318.328 442.112 315.934 442.112ZM315.934 440.32C317.026 440.32 317.852 439.536 317.852 438.234C317.852 436.932 317.026 436.148 315.934 436.148C314.842 436.148 314.002 436.932 314.002 438.234C314.002 439.536 314.842 440.32 315.934 440.32ZM321.524 442V431.612H323.708V442H321.524ZM329.319 442.112C326.925 442.112 325.175 440.502 325.175 438.234C325.175 435.966 326.925 434.356 329.319 434.356C331.713 434.356 333.449 435.966 333.449 438.234C333.449 440.502 331.713 442.112 329.319 442.112ZM329.319 440.32C330.411 440.32 331.237 439.536 331.237 438.234C331.237 436.932 330.411 436.148 329.319 436.148C328.227 436.148 327.387 436.932 327.387 438.234C327.387 439.536 328.227 440.32 329.319 440.32ZM336.994 435.462C337.526 434.734 338.422 434.356 339.584 434.356V436.372C339.402 436.358 339.262 436.344 339.094 436.344C337.89 436.344 337.092 437.002 337.092 438.444V442H334.908V434.468H336.994V435.462ZM349.019 436.19C350.783 436.47 351.679 437.562 351.679 439.004C351.679 440.656 350.405 442.168 347.619 442.168C346.247 442.168 344.833 441.79 343.881 441.118L344.763 439.382C345.505 439.942 346.541 440.264 347.563 440.264C348.697 440.264 349.397 439.802 349.397 439.004C349.397 438.262 348.851 437.8 347.563 437.8H346.527V436.302L348.543 434.02H344.371V432.2H351.231V433.67L349.019 436.19ZM309.446 455.636H307.682L307.394 457.964H309.062V458.84H307.286L307.022 461H306.17L306.434 458.84H304.166L303.902 461H303.05L303.314 458.84H301.658V457.964H303.422L303.722 455.636H302.042V454.76H303.83L304.094 452.6H304.946L304.682 454.76H306.938L307.202 452.6H308.054L307.79 454.76H309.446V455.636ZM306.542 457.964L306.83 455.636H304.574L304.274 457.964H306.542ZM311.943 459.956H316.251V461H310.215V460.184L313.635 456.884C314.523 456.02 314.691 455.492 314.691 454.964C314.691 454.1 314.079 453.572 312.903 453.572C312.003 453.572 311.271 453.86 310.755 454.484L309.939 453.776C310.587 452.972 311.703 452.504 313.011 452.504C314.763 452.504 315.891 453.404 315.891 454.844C315.891 455.66 315.651 456.392 314.511 457.484L311.943 459.956ZM318.834 459.956H323.142V461H317.106V460.184L320.526 456.884C321.414 456.02 321.582 455.492 321.582 454.964C321.582 454.1 320.97 453.572 319.794 453.572C318.894 453.572 318.162 453.86 317.646 454.484L316.83 453.776C317.478 452.972 318.594 452.504 319.902 452.504C321.654 452.504 322.782 453.404 322.782 454.844C322.782 455.66 322.542 456.392 321.402 457.484L318.834 459.956ZM325.725 459.956H330.033V461H323.997V460.184L327.417 456.884C328.305 456.02 328.473 455.492 328.473 454.964C328.473 454.1 327.861 453.572 326.685 453.572C325.785 453.572 325.053 453.86 324.537 454.484L323.721 453.776C324.369 452.972 325.485 452.504 326.793 452.504C328.545 452.504 329.673 453.404 329.673 454.844C329.673 455.66 329.433 456.392 328.293 457.484L325.725 459.956ZM333.743 452.504C335.999 452.504 337.271 454.016 337.271 456.692C337.271 459.56 335.651 461.096 333.299 461.096C332.507 461.096 331.751 460.94 331.211 460.604L331.667 459.668C332.111 459.956 332.675 460.064 333.287 460.064C334.991 460.064 336.071 458.996 336.071 456.896V456.596C335.579 457.328 334.691 457.7 333.647 457.7C331.979 457.7 330.779 456.704 330.779 455.156C330.779 453.536 332.075 452.504 333.743 452.504ZM333.851 456.728C335.003 456.728 335.795 456.02 335.795 455.096C335.795 454.232 335.099 453.476 333.791 453.476C332.699 453.476 331.943 454.112 331.943 455.108C331.943 456.092 332.675 456.728 333.851 456.728ZM345.734 457.904V458.936H344.138V461H342.974V458.936H338.306V458.096L342.602 452.6H343.898L339.782 457.904H343.01V456.08H344.138V457.904H345.734ZM350.077 455.9C351.745 455.9 352.957 456.896 352.957 458.444C352.957 460.064 351.649 461.096 349.981 461.096C347.725 461.096 346.453 459.584 346.453 456.908C346.453 454.04 348.073 452.504 350.425 452.504C351.217 452.504 351.973 452.66 352.513 452.996L352.057 453.932C351.625 453.644 351.049 453.536 350.449 453.536C348.745 453.536 347.653 454.604 347.653 456.704C347.653 456.8 347.653 456.896 347.665 457.004C348.145 456.284 349.033 455.9 350.077 455.9ZM349.933 460.124C351.025 460.124 351.793 459.488 351.793 458.492C351.793 457.508 351.049 456.872 349.873 456.872C348.733 456.872 347.941 457.58 347.941 458.504C347.941 459.368 348.637 460.124 349.933 460.124Z" fill="white"/>
<rect x="480" width="232" height="320" rx="16" fill="#19243D"/>
<path d="M505.555 38V26.8H510.643C514.307 26.8 516.819 29.008 516.819 32.4C516.819 35.792 514.307 38 510.643 38H505.555ZM508.147 35.872H510.515C512.739 35.872 514.195 34.544 514.195 32.4C514.195 30.256 512.739 28.928 510.515 28.928H508.147V35.872ZM527.029 33.728C527.029 33.92 526.997 34.192 526.981 34.4H520.469C520.709 35.472 521.621 36.128 522.933 36.128C523.845 36.128 524.501 35.856 525.093 35.296L526.421 36.736C525.621 37.648 524.421 38.128 522.869 38.128C519.893 38.128 517.957 36.256 517.957 33.696C517.957 31.12 519.925 29.264 522.549 29.264C525.077 29.264 527.029 30.96 527.029 33.728ZM522.565 31.152C521.429 31.152 520.613 31.84 520.437 32.944H524.677C524.501 31.856 523.685 31.152 522.565 31.152ZM537.123 33.728C537.123 33.92 537.091 34.192 537.075 34.4H530.563C530.803 35.472 531.715 36.128 533.027 36.128C533.939 36.128 534.595 35.856 535.187 35.296L536.515 36.736C535.715 37.648 534.515 38.128 532.963 38.128C529.987 38.128 528.051 36.256 528.051 33.696C528.051 31.12 530.019 29.264 532.643 29.264C535.171 29.264 537.123 30.96 537.123 33.728ZM532.659 31.152C531.523 31.152 530.707 31.84 530.531 32.944H534.771C534.595 31.856 533.779 31.152 532.659 31.152ZM543.873 29.264C546.289 29.264 548.161 30.992 548.161 33.696C548.161 36.4 546.289 38.128 543.873 38.128C542.801 38.128 541.921 37.792 541.281 37.088V41.104H538.785V29.392H541.169V30.384C541.793 29.632 542.721 29.264 543.873 29.264ZM543.441 36.08C544.689 36.08 545.633 35.184 545.633 33.696C545.633 32.208 544.689 31.312 543.441 31.312C542.193 31.312 541.249 32.208 541.249 33.696C541.249 35.184 542.193 36.08 543.441 36.08ZM562.251 26.8H564.811V38H562.683L557.099 31.2V38H554.539V26.8H556.683L562.251 33.6V26.8ZM570.757 29.264C573.381 29.264 574.901 30.48 574.901 33.088V38H572.565V36.928C572.101 37.712 571.205 38.128 569.941 38.128C567.925 38.128 566.725 37.008 566.725 35.52C566.725 34 567.797 32.944 570.421 32.944H572.405C572.405 31.872 571.765 31.248 570.421 31.248C569.509 31.248 568.565 31.552 567.941 32.048L567.045 30.304C567.989 29.632 569.381 29.264 570.757 29.264ZM570.565 36.448C571.397 36.448 572.117 36.064 572.405 35.28V34.4H570.693C569.525 34.4 569.157 34.832 569.157 35.408C569.157 36.032 569.685 36.448 570.565 36.448ZM583.148 29.392H585.548L581.916 38H579.34L575.724 29.392H578.3L580.684 35.248L583.148 29.392ZM592.507 29.392H594.907L591.019 38.528C590.187 40.608 589.003 41.232 587.451 41.232C586.571 41.232 585.611 40.944 585.051 40.448L585.963 38.672C586.347 39.008 586.875 39.216 587.371 39.216C588.059 39.216 588.443 38.912 588.779 38.144L588.811 38.064L585.083 29.392H587.659L590.075 35.232L592.507 29.392Z" fill="white"/>
<path d="M511.882 261.2H514.15V271H511.882V266.982H507.43V271H505.162V261.2H507.43V265.064H511.882V261.2ZM518.723 269.18H524.057V271H516.469V261.2H523.875V263.02H518.723V265.148H523.273V266.912H518.723V269.18ZM534.558 271H531.94L529.574 267.598L527.25 271H524.646L528.272 266.016L524.828 261.2H527.404L529.658 264.378L531.87 261.2H534.32L530.904 265.932L534.558 271ZM512.112 284.636H510.348L510.06 286.964H511.728V287.84H509.952L509.688 290H508.836L509.1 287.84H506.832L506.568 290H505.716L505.98 287.84H504.324V286.964H506.088L506.388 284.636H504.708V283.76H506.496L506.76 281.6H507.612L507.348 283.76H509.604L509.868 281.6H510.72L510.456 283.76H512.112V284.636ZM509.208 286.964L509.496 284.636H507.24L506.94 286.964H509.208ZM512.534 281.6H515.618V290H514.43V282.644H512.534V281.6ZM520.179 281.504C522.435 281.504 523.707 283.016 523.707 285.692C523.707 288.56 522.087 290.096 519.735 290.096C518.943 290.096 518.187 289.94 517.647 289.604L518.103 288.668C518.547 288.956 519.111 289.064 519.723 289.064C521.427 289.064 522.507 287.996 522.507 285.896V285.596C522.015 286.328 521.127 286.7 520.083 286.7C518.415 286.7 517.215 285.704 517.215 284.156C517.215 282.536 518.511 281.504 520.179 281.504ZM520.287 285.728C521.439 285.728 522.231 285.02 522.231 284.096C522.231 283.232 521.535 282.476 520.227 282.476C519.135 282.476 518.379 283.112 518.379 284.108C518.379 285.092 519.111 285.728 520.287 285.728ZM526.422 288.956H530.73V290H524.694V289.184L528.114 285.884C529.002 285.02 529.17 284.492 529.17 283.964C529.17 283.1 528.558 282.572 527.382 282.572C526.482 282.572 525.75 282.86 525.234 283.484L524.418 282.776C525.066 281.972 526.182 281.504 527.49 281.504C529.242 281.504 530.37 282.404 530.37 283.844C530.37 284.66 530.13 285.392 528.99 286.484L526.422 288.956ZM538.802 286.904V287.936H537.206V290H536.042V287.936H531.374V287.096L535.67 281.6H536.966L532.85 286.904H536.078V285.08H537.206V286.904H538.802ZM542.597 285.128C544.277 285.284 545.129 286.232 545.129 287.528C545.129 288.944 544.085 290.096 541.949 290.096C540.749 290.096 539.573 289.712 538.865 289.076L539.417 288.128C539.981 288.656 540.917 289.028 541.949 289.028C543.209 289.028 543.929 288.452 543.929 287.54C543.929 286.652 543.293 286.076 541.853 286.076H541.181V285.236L543.293 282.644H539.249V281.6H544.793V282.416L542.597 285.128ZM546.932 290V281.6H550.472C553.172 281.6 555.008 283.304 555.008 285.8C555.008 288.296 553.172 290 550.472 290H546.932ZM548.132 288.956H550.4C552.476 288.956 553.808 287.684 553.808 285.8C553.808 283.916 552.476 282.644 550.4 282.644H548.132V288.956Z" fill="white"/>
<path d="M605.842 271H603.406L601.516 268.27H601.404H599.43V271H597.162V261.2H601.404C604.022 261.2 605.66 262.558 605.66 264.756C605.66 266.226 604.918 267.304 603.644 267.85L605.842 271ZM603.364 264.756C603.364 263.678 602.664 263.048 601.278 263.048H599.43V266.464H601.278C602.664 266.464 603.364 265.82 603.364 264.756ZM614.079 268.816V265.946H616.151V269.922C615.073 270.734 613.589 271.168 612.189 271.168C609.109 271.168 606.841 269.054 606.841 266.1C606.841 263.146 609.109 261.032 612.231 261.032C613.953 261.032 615.381 261.62 616.333 262.726L614.877 264.07C614.163 263.314 613.337 262.964 612.343 262.964C610.439 262.964 609.137 264.238 609.137 266.1C609.137 267.934 610.439 269.236 612.315 269.236C612.931 269.236 613.505 269.124 614.079 268.816ZM625.454 265.904C626.546 266.254 627.246 267.094 627.246 268.326C627.246 270.02 625.902 271 623.326 271H618.258V261.2H623.046C625.496 261.2 626.756 262.222 626.756 263.748C626.756 264.728 626.252 265.484 625.454 265.904ZM622.766 262.908H620.512V265.218H622.766C623.872 265.218 624.474 264.826 624.474 264.056C624.474 263.286 623.872 262.908 622.766 262.908ZM623.158 269.292C624.334 269.292 624.964 268.928 624.964 268.088C624.964 267.262 624.334 266.87 623.158 266.87H620.512V269.292H623.158ZM598.172 288.956H602.48V290H596.444V289.184L599.864 285.884C600.752 285.02 600.92 284.492 600.92 283.964C600.92 283.1 600.308 282.572 599.132 282.572C598.232 282.572 597.5 282.86 596.984 283.484L596.168 282.776C596.816 281.972 597.932 281.504 599.24 281.504C600.992 281.504 602.12 282.404 602.12 283.844C602.12 284.66 601.88 285.392 600.74 286.484L598.172 288.956ZM605.867 284.948C608.375 284.948 609.359 285.992 609.359 287.48C609.359 288.932 608.327 290.096 606.179 290.096C604.991 290.096 603.815 289.712 603.095 289.076L603.647 288.128C604.211 288.656 605.147 289.028 606.167 289.028C607.439 289.028 608.159 288.44 608.159 287.528C608.159 286.58 607.559 285.992 605.615 285.992H603.707L604.151 281.6H608.891V282.644H605.159L604.931 284.948H605.867ZM611.161 288.428C611.617 288.428 611.941 288.776 611.941 289.244C611.941 289.484 611.893 289.664 611.737 290.108L611.173 291.776H610.417L610.861 289.988C610.561 289.88 610.357 289.604 610.357 289.244C610.357 288.764 610.705 288.428 611.161 288.428ZM619.515 285.128C621.195 285.284 622.047 286.232 622.047 287.528C622.047 288.944 621.003 290.096 618.867 290.096C617.667 290.096 616.491 289.712 615.783 289.076L616.335 288.128C616.899 288.656 617.835 289.028 618.867 289.028C620.127 289.028 620.847 288.452 620.847 287.54C620.847 286.652 620.211 286.076 618.771 286.076H618.099V285.236L620.211 282.644H616.167V281.6H621.711V282.416L619.515 285.128ZM626.79 284.9C628.458 284.9 629.67 285.896 629.67 287.444C629.67 289.064 628.362 290.096 626.694 290.096C624.438 290.096 623.166 288.584 623.166 285.908C623.166 283.04 624.786 281.504 627.138 281.504C627.93 281.504 628.686 281.66 629.226 281.996L628.77 282.932C628.338 282.644 627.762 282.536 627.162 282.536C625.458 282.536 624.366 283.604 624.366 285.704C624.366 285.8 624.366 285.896 624.378 286.004C624.858 285.284 625.746 284.9 626.79 284.9ZM626.646 289.124C627.738 289.124 628.506 288.488 628.506 287.492C628.506 286.508 627.762 285.872 626.586 285.872C625.446 285.872 624.654 286.58 624.654 287.504C624.654 288.368 625.35 289.124 626.646 289.124ZM631.493 288.428C631.949 288.428 632.273 288.776 632.273 289.244C632.273 289.484 632.225 289.664 632.069 290.108L631.505 291.776H630.749L631.193 289.988C630.893 289.88 630.689 289.604 630.689 289.244C630.689 288.764 631.037 288.428 631.493 288.428ZM640.255 284.9C641.923 284.9 643.135 285.896 643.135 287.444C643.135 289.064 641.827 290.096 640.159 290.096C637.903 290.096 636.631 288.584 636.631 285.908C636.631 283.04 638.251 281.504 640.603 281.504C641.395 281.504 642.151 281.66 642.691 281.996L642.235 282.932C641.803 282.644 641.227 282.536 640.627 282.536C638.923 282.536 637.831 283.604 637.831 285.704C637.831 285.8 637.831 285.896 637.843 286.004C638.323 285.284 639.211 284.9 640.255 284.9ZM640.111 289.124C641.203 289.124 641.971 288.488 641.971 287.492C641.971 286.508 641.227 285.872 640.051 285.872C638.911 285.872 638.119 286.58 638.119 287.504C638.119 288.368 638.815 289.124 640.111 289.124ZM643.557 281.6H646.641V290H645.453V282.644H643.557V281.6Z" fill="white"/>
<rect x="728" width="232" height="152" rx="16" fill="#D8D9D9"/>
<path d="M757.125 38.192C755.349 38.192 753.557 37.664 752.565 36.896L753.445 34.944C754.389 35.632 755.797 36.112 757.141 36.112C758.677 36.112 759.301 35.6 759.301 34.912C759.301 32.816 752.789 34.256 752.789 30.096C752.789 28.192 754.325 26.608 757.509 26.608C758.917 26.608 760.357 26.944 761.397 27.6L760.597 29.568C759.557 28.976 758.485 28.688 757.493 28.688C755.957 28.688 755.365 29.264 755.365 29.968C755.365 32.032 761.877 30.608 761.877 34.72C761.877 36.592 760.325 38.192 757.125 38.192ZM767.568 38.128C764.832 38.128 762.832 36.288 762.832 33.696C762.832 31.104 764.832 29.264 767.568 29.264C770.304 29.264 772.288 31.104 772.288 33.696C772.288 36.288 770.304 38.128 767.568 38.128ZM767.568 36.08C768.816 36.08 769.76 35.184 769.76 33.696C769.76 32.208 768.816 31.312 767.568 31.312C766.32 31.312 765.36 32.208 765.36 33.696C765.36 35.184 766.32 36.08 767.568 36.08ZM776.693 29.216V29.584H778.901V31.504H776.757V38H774.261V31.504H772.933V29.584H774.261V29.2C774.261 27.264 775.445 26 777.589 26C778.293 26 779.029 26.144 779.493 26.464L778.837 28.272C778.565 28.08 778.213 27.968 777.829 27.968C777.093 27.968 776.693 28.368 776.693 29.216ZM785.024 35.824L785.696 37.584C785.184 37.952 784.432 38.128 783.664 38.128C781.632 38.128 780.448 37.088 780.448 35.04V31.504H779.12V29.584H780.448V27.488H782.944V29.584H785.088V31.504H782.944V35.008C782.944 35.744 783.344 36.144 784.016 36.144C784.384 36.144 784.752 36.032 785.024 35.824ZM799.373 35.504V32.224H801.741V36.768C800.509 37.696 798.813 38.192 797.213 38.192C793.693 38.192 791.101 35.776 791.101 32.4C791.101 29.024 793.693 26.608 797.261 26.608C799.229 26.608 800.861 27.28 801.949 28.544L800.285 30.08C799.469 29.216 798.525 28.816 797.389 28.816C795.213 28.816 793.725 30.272 793.725 32.4C793.725 34.496 795.213 35.984 797.357 35.984C798.061 35.984 798.717 35.856 799.373 35.504ZM806.356 30.528C806.964 29.696 807.988 29.264 809.316 29.264V31.568C809.108 31.552 808.948 31.536 808.756 31.536C807.38 31.536 806.468 32.288 806.468 33.936V38H803.972V29.392H806.356V30.528ZM814.226 29.264C816.85 29.264 818.37 30.48 818.37 33.088V38H816.034V36.928C815.57 37.712 814.674 38.128 813.41 38.128C811.394 38.128 810.194 37.008 810.194 35.52C810.194 34 811.266 32.944 813.89 32.944H815.874C815.874 31.872 815.234 31.248 813.89 31.248C812.978 31.248 812.034 31.552 811.41 32.048L810.514 30.304C811.458 29.632 812.85 29.264 814.226 29.264ZM814.034 36.448C814.866 36.448 815.586 36.064 815.874 35.28V34.4H814.162C812.994 34.4 812.626 34.832 812.626 35.408C812.626 36.032 813.154 36.448 814.034 36.448ZM826.616 29.392H829.016L825.128 38.528C824.296 40.608 823.112 41.232 821.56 41.232C820.68 41.232 819.72 40.944 819.16 40.448L820.072 38.672C820.456 39.008 820.984 39.216 821.48 39.216C822.168 39.216 822.552 38.912 822.888 38.144L822.92 38.064L819.192 29.392H821.768L824.184 35.232L826.616 29.392Z" fill="#535862"/>
<path d="M759.882 93.2H762.15V103H759.882V98.982H755.43V103H753.162V93.2H755.43V97.064H759.882V93.2ZM766.723 101.18H772.057V103H764.469V93.2H771.875V95.02H766.723V97.148H771.273V98.912H766.723V101.18ZM782.558 103H779.94L777.574 99.598L775.25 103H772.646L776.272 98.016L772.828 93.2H775.404L777.658 96.378L779.87 93.2H782.32L778.904 97.932L782.558 103ZM760.112 116.636H758.348L758.06 118.964H759.728V119.84H757.952L757.688 122H756.836L757.1 119.84H754.832L754.568 122H753.716L753.98 119.84H752.324V118.964H754.088L754.388 116.636H752.708V115.76H754.496L754.76 113.6H755.612L755.348 115.76H757.604L757.868 113.6H758.72L758.456 115.76H760.112V116.636ZM757.208 118.964L757.496 116.636H755.24L754.94 118.964H757.208ZM761.698 122V113.6H765.238C767.938 113.6 769.774 115.304 769.774 117.8C769.774 120.296 767.938 122 765.238 122H761.698ZM762.898 120.956H765.166C767.242 120.956 768.574 119.684 768.574 117.8C768.574 115.916 767.242 114.644 765.166 114.644H762.898V120.956ZM776.064 117.596C777.024 117.968 777.552 118.664 777.552 119.624C777.552 121.148 776.256 122.096 774.204 122.096C772.164 122.096 770.88 121.148 770.88 119.624C770.88 118.664 771.408 117.956 772.356 117.596C771.588 117.236 771.18 116.612 771.18 115.784C771.18 114.38 772.392 113.504 774.204 113.504C776.028 113.504 777.252 114.38 777.252 115.784C777.252 116.612 776.832 117.236 776.064 117.596ZM774.204 114.476C773.076 114.476 772.368 114.992 772.368 115.832C772.368 116.66 773.052 117.176 774.204 117.176C775.368 117.176 776.076 116.66 776.076 115.832C776.076 114.992 775.332 114.476 774.204 114.476ZM774.204 121.124C775.536 121.124 776.352 120.536 776.352 119.588C776.352 118.664 775.536 118.088 774.204 118.088C772.872 118.088 772.08 118.664 772.08 119.588C772.08 120.536 772.872 121.124 774.204 121.124ZM779.334 122V113.6H782.874C785.574 113.6 787.41 115.304 787.41 117.8C787.41 120.296 785.574 122 782.874 122H779.334ZM780.534 120.956H782.802C784.878 120.956 786.21 119.684 786.21 117.8C786.21 115.916 784.878 114.644 782.802 114.644H780.534V120.956ZM791.288 113.504C793.544 113.504 794.816 115.016 794.816 117.692C794.816 120.56 793.196 122.096 790.844 122.096C790.052 122.096 789.296 121.94 788.756 121.604L789.212 120.668C789.656 120.956 790.22 121.064 790.832 121.064C792.536 121.064 793.616 119.996 793.616 117.896V117.596C793.124 118.328 792.236 118.7 791.192 118.7C789.524 118.7 788.324 117.704 788.324 116.156C788.324 114.536 789.62 113.504 791.288 113.504ZM791.396 117.728C792.548 117.728 793.34 117.02 793.34 116.096C793.34 115.232 792.644 114.476 791.336 114.476C790.244 114.476 789.488 115.112 789.488 116.108C789.488 117.092 790.22 117.728 791.396 117.728ZM796.655 122V113.6H800.195C802.895 113.6 804.731 115.304 804.731 117.8C804.731 120.296 802.895 122 800.195 122H796.655ZM797.855 120.956H800.123C802.199 120.956 803.531 119.684 803.531 117.8C803.531 115.916 802.199 114.644 800.123 114.644H797.855V120.956ZM808.609 113.504C810.865 113.504 812.137 115.016 812.137 117.692C812.137 120.56 810.517 122.096 808.165 122.096C807.373 122.096 806.617 121.94 806.077 121.604L806.533 120.668C806.977 120.956 807.541 121.064 808.153 121.064C809.857 121.064 810.937 119.996 810.937 117.896V117.596C810.445 118.328 809.557 118.7 808.513 118.7C806.845 118.7 805.645 117.704 805.645 116.156C805.645 114.536 806.941 113.504 808.609 113.504ZM808.717 117.728C809.869 117.728 810.661 117.02 810.661 116.096C810.661 115.232 809.965 114.476 808.657 114.476C807.565 114.476 806.809 115.112 806.809 116.108C806.809 117.092 807.541 117.728 808.717 117.728Z" fill="#717680"/>
<path d="M853.842 103H851.406L849.516 100.27H849.404H847.43V103H845.162V93.2H849.404C852.022 93.2 853.66 94.558 853.66 96.756C853.66 98.226 852.918 99.304 851.644 99.85L853.842 103ZM851.364 96.756C851.364 95.678 850.664 95.048 849.278 95.048H847.43V98.464H849.278C850.664 98.464 851.364 97.82 851.364 96.756ZM862.079 100.816V97.946H864.151V101.922C863.073 102.734 861.589 103.168 860.189 103.168C857.109 103.168 854.841 101.054 854.841 98.1C854.841 95.146 857.109 93.032 860.231 93.032C861.953 93.032 863.381 93.62 864.333 94.726L862.877 96.07C862.163 95.314 861.337 94.964 860.343 94.964C858.439 94.964 857.137 96.238 857.137 98.1C857.137 99.934 858.439 101.236 860.315 101.236C860.931 101.236 861.505 101.124 862.079 100.816ZM873.454 97.904C874.546 98.254 875.246 99.094 875.246 100.326C875.246 102.02 873.902 103 871.326 103H866.258V93.2H871.046C873.496 93.2 874.756 94.222 874.756 95.748C874.756 96.728 874.252 97.484 873.454 97.904ZM870.766 94.908H868.512V97.218H870.766C871.872 97.218 872.474 96.826 872.474 96.056C872.474 95.286 871.872 94.908 870.766 94.908ZM871.158 101.292C872.334 101.292 872.964 100.928 872.964 100.088C872.964 99.262 872.334 98.87 871.158 98.87H868.512V101.292H871.158ZM846.172 120.956H850.48V122H844.444V121.184L847.864 117.884C848.752 117.02 848.92 116.492 848.92 115.964C848.92 115.1 848.308 114.572 847.132 114.572C846.232 114.572 845.5 114.86 844.984 115.484L844.168 114.776C844.816 113.972 845.932 113.504 847.24 113.504C848.992 113.504 850.12 114.404 850.12 115.844C850.12 116.66 849.88 117.392 848.74 118.484L846.172 120.956ZM850.987 113.6H854.071V122H852.883V114.644H850.987V113.6ZM859.532 116.9C861.2 116.9 862.412 117.896 862.412 119.444C862.412 121.064 861.104 122.096 859.436 122.096C857.18 122.096 855.908 120.584 855.908 117.908C855.908 115.04 857.528 113.504 859.88 113.504C860.672 113.504 861.428 113.66 861.968 113.996L861.512 114.932C861.08 114.644 860.504 114.536 859.904 114.536C858.2 114.536 857.108 115.604 857.108 117.704C857.108 117.8 857.108 117.896 857.12 118.004C857.6 117.284 858.488 116.9 859.532 116.9ZM859.388 121.124C860.48 121.124 861.248 120.488 861.248 119.492C861.248 118.508 860.504 117.872 859.328 117.872C858.188 117.872 857.396 118.58 857.396 119.504C857.396 120.368 858.092 121.124 859.388 121.124ZM864.235 120.428C864.691 120.428 865.015 120.776 865.015 121.244C865.015 121.484 864.967 121.664 864.811 122.108L864.247 123.776H863.491L863.935 121.988C863.635 121.88 863.431 121.604 863.431 121.244C863.431 120.764 863.779 120.428 864.235 120.428ZM870.969 120.956H875.277V122H869.241V121.184L872.661 117.884C873.549 117.02 873.717 116.492 873.717 115.964C873.717 115.1 873.105 114.572 871.929 114.572C871.029 114.572 870.297 114.86 869.781 115.484L868.965 114.776C869.613 113.972 870.729 113.504 872.037 113.504C873.789 113.504 874.917 114.404 874.917 115.844C874.917 116.66 874.677 117.392 873.537 118.484L870.969 120.956ZM875.784 113.6H878.868V122H877.68V114.644H875.784V113.6ZM880.489 113.6H886.825V114.416L883.429 122H882.157L885.481 114.644H881.641V116.144H880.489V113.6ZM888.06 120.428C888.516 120.428 888.84 120.776 888.84 121.244C888.84 121.484 888.792 121.664 888.636 122.108L888.072 123.776H887.316L887.76 121.988C887.46 121.88 887.256 121.604 887.256 121.244C887.256 120.764 887.604 120.428 888.06 120.428ZM894.793 120.956H899.101V122H893.065V121.184L896.485 117.884C897.373 117.02 897.541 116.492 897.541 115.964C897.541 115.1 896.929 114.572 895.753 114.572C894.853 114.572 894.121 114.86 893.605 115.484L892.789 114.776C893.437 113.972 894.553 113.504 895.861 113.504C897.613 113.504 898.741 114.404 898.741 115.844C898.741 116.66 898.501 117.392 897.361 118.484L894.793 120.956ZM899.608 113.6H902.692V122H901.504V114.644H899.608V113.6ZM904.313 113.6H910.649V114.416L907.253 122H905.981L909.305 114.644H905.465V116.144H904.313V113.6Z" fill="#717680"/>
<rect x="728" y="168" width="232" height="152" rx="16" fill="#F7F5ED"/>
<path d="M768.245 194.8H770.725L767.061 206H764.277L761.813 198.416L759.269 206H756.501L752.821 194.8H755.509L758.037 202.672L760.677 194.8H763.077L765.637 202.736L768.245 194.8ZM774.827 197.264C777.451 197.264 778.971 198.48 778.971 201.088V206H776.635V204.928C776.171 205.712 775.275 206.128 774.011 206.128C771.995 206.128 770.795 205.008 770.795 203.52C770.795 202 771.867 200.944 774.491 200.944H776.475C776.475 199.872 775.835 199.248 774.491 199.248C773.579 199.248 772.635 199.552 772.011 200.048L771.115 198.304C772.059 197.632 773.451 197.264 774.827 197.264ZM774.635 204.448C775.467 204.448 776.187 204.064 776.475 203.28V202.4H774.763C773.595 202.4 773.227 202.832 773.227 203.408C773.227 204.032 773.755 204.448 774.635 204.448ZM783.614 198.528C784.222 197.696 785.246 197.264 786.574 197.264V199.568C786.366 199.552 786.206 199.536 786.014 199.536C784.638 199.536 783.726 200.288 783.726 201.936V206H781.23V197.392H783.614V198.528ZM799.082 197.264C801.13 197.264 802.602 198.448 802.602 201.072V206H800.106V201.456C800.106 200.064 799.482 199.424 798.474 199.424C797.354 199.424 796.57 200.144 796.57 201.68V206H794.074V201.456C794.074 200.064 793.482 199.424 792.442 199.424C791.338 199.424 790.554 200.144 790.554 201.68V206H788.058V197.392H790.442V198.384C791.082 197.648 792.042 197.264 793.146 197.264C794.346 197.264 795.37 197.728 795.978 198.672C796.666 197.792 797.786 197.264 799.082 197.264ZM813.227 206.192C811.451 206.192 809.659 205.664 808.667 204.896L809.547 202.944C810.491 203.632 811.899 204.112 813.243 204.112C814.779 204.112 815.403 203.6 815.403 202.912C815.403 200.816 808.891 202.256 808.891 198.096C808.891 196.192 810.427 194.608 813.611 194.608C815.019 194.608 816.459 194.944 817.499 195.6L816.699 197.568C815.659 196.976 814.587 196.688 813.595 196.688C812.059 196.688 811.467 197.264 811.467 197.968C811.467 200.032 817.979 198.608 817.979 202.72C817.979 204.592 816.427 206.192 813.227 206.192ZM823.046 197.264C825.67 197.264 827.19 198.48 827.19 201.088V206H824.854V204.928C824.39 205.712 823.494 206.128 822.23 206.128C820.214 206.128 819.014 205.008 819.014 203.52C819.014 202 820.086 200.944 822.71 200.944H824.694C824.694 199.872 824.054 199.248 822.71 199.248C821.798 199.248 820.854 199.552 820.23 200.048L819.334 198.304C820.278 197.632 821.67 197.264 823.046 197.264ZM822.854 204.448C823.686 204.448 824.406 204.064 824.694 203.28V202.4H822.982C821.814 202.4 821.446 202.832 821.446 203.408C821.446 204.032 821.974 204.448 822.854 204.448ZM834.681 197.264C836.713 197.264 838.249 198.448 838.249 201.072V206H835.753V201.456C835.753 200.064 835.113 199.424 834.009 199.424C832.809 199.424 831.945 200.16 831.945 201.744V206H829.449V197.392H831.833V198.4C832.505 197.664 833.513 197.264 834.681 197.264ZM846.877 194.128H849.373V206H846.989V205.008C846.365 205.76 845.453 206.128 844.301 206.128C841.869 206.128 839.997 204.4 839.997 201.696C839.997 198.992 841.869 197.264 844.301 197.264C845.357 197.264 846.253 197.6 846.877 198.304V194.128ZM844.733 204.08C845.965 204.08 846.925 203.184 846.925 201.696C846.925 200.208 845.965 199.312 844.733 199.312C843.485 199.312 842.525 200.208 842.525 201.696C842.525 203.184 843.485 204.08 844.733 204.08Z" fill="#535862"/>
<path d="M759.882 261.2H762.15V271H759.882V266.982H755.43V271H753.162V261.2H755.43V265.064H759.882V261.2ZM766.723 269.18H772.057V271H764.469V261.2H771.875V263.02H766.723V265.148H771.273V266.912H766.723V269.18ZM782.558 271H779.94L777.574 267.598L775.25 271H772.646L776.272 266.016L772.828 261.2H775.404L777.658 264.378L779.87 261.2H782.32L778.904 265.932L782.558 271ZM760.112 284.636H758.348L758.06 286.964H759.728V287.84H757.952L757.688 290H756.836L757.1 287.84H754.832L754.568 290H753.716L753.98 287.84H752.324V286.964H754.088L754.388 284.636H752.708V283.76H754.496L754.76 281.6H755.612L755.348 283.76H757.604L757.868 281.6H758.72L758.456 283.76H760.112V284.636ZM757.208 286.964L757.496 284.636H755.24L754.94 286.964H757.208ZM767.626 282.644H762.898V285.572H767.11V286.604H762.898V290H761.698V281.6H767.626V282.644ZM768.532 281.6H774.868V282.416L771.472 290H770.2L773.524 282.644H769.684V284.144H768.532V281.6ZM782.532 282.644H777.804V285.572H782.016V286.604H777.804V290H776.604V281.6H782.532V282.644ZM785.738 284.948C788.246 284.948 789.23 285.992 789.23 287.48C789.23 288.932 788.198 290.096 786.05 290.096C784.862 290.096 783.686 289.712 782.966 289.076L783.518 288.128C784.082 288.656 785.018 289.028 786.038 289.028C787.31 289.028 788.03 288.44 788.03 287.528C788.03 286.58 787.43 285.992 785.486 285.992H783.578L784.022 281.6H788.762V282.644H785.03L784.802 284.948H785.738ZM792.112 288.956H797.008V290H790.912V281.6H796.84V282.644H792.112V285.224H796.324V286.244H792.112V288.956ZM798.951 290V281.6H802.491C805.191 281.6 807.027 283.304 807.027 285.8C807.027 288.296 805.191 290 802.491 290H798.951ZM800.151 288.956H802.419C804.495 288.956 805.827 287.684 805.827 285.8C805.827 283.916 804.495 282.644 802.419 282.644H800.151V288.956Z" fill="#717680"/>
<path d="M853.842 271H851.406L849.516 268.27H849.404H847.43V271H845.162V261.2H849.404C852.022 261.2 853.66 262.558 853.66 264.756C853.66 266.226 852.918 267.304 851.644 267.85L853.842 271ZM851.364 264.756C851.364 263.678 850.664 263.048 849.278 263.048H847.43V266.464H849.278C850.664 266.464 851.364 265.82 851.364 264.756ZM862.079 268.816V265.946H864.151V269.922C863.073 270.734 861.589 271.168 860.189 271.168C857.109 271.168 854.841 269.054 854.841 266.1C854.841 263.146 857.109 261.032 860.231 261.032C861.953 261.032 863.381 261.62 864.333 262.726L862.877 264.07C862.163 263.314 861.337 262.964 860.343 262.964C858.439 262.964 857.137 264.238 857.137 266.1C857.137 267.934 858.439 269.236 860.315 269.236C860.931 269.236 861.505 269.124 862.079 268.816ZM873.454 265.904C874.546 266.254 875.246 267.094 875.246 268.326C875.246 270.02 873.902 271 871.326 271H866.258V261.2H871.046C873.496 261.2 874.756 262.222 874.756 263.748C874.756 264.728 874.252 265.484 873.454 265.904ZM870.766 262.908H868.512V265.218H870.766C871.872 265.218 872.474 264.826 872.474 264.056C872.474 263.286 871.872 262.908 870.766 262.908ZM871.158 269.292C872.334 269.292 872.964 268.928 872.964 268.088C872.964 267.262 872.334 266.87 871.158 266.87H868.512V269.292H871.158ZM846.172 288.956H850.48V290H844.444V289.184L847.864 285.884C848.752 285.02 848.92 284.492 848.92 283.964C848.92 283.1 848.308 282.572 847.132 282.572C846.232 282.572 845.5 282.86 844.984 283.484L844.168 282.776C844.816 281.972 845.932 281.504 847.24 281.504C848.992 281.504 850.12 282.404 850.12 283.844C850.12 284.66 849.88 285.392 848.74 286.484L846.172 288.956ZM858.552 286.904V287.936H856.956V290H855.792V287.936H851.124V287.096L855.42 281.6H856.716L852.6 286.904H855.828V285.08H856.956V286.904H858.552ZM858.493 281.6H864.829V282.416L861.433 290H860.161L863.485 282.644H859.645V284.144H858.493V281.6ZM866.064 288.428C866.52 288.428 866.844 288.776 866.844 289.244C866.844 289.484 866.796 289.664 866.64 290.108L866.076 291.776H865.32L865.764 289.988C865.464 289.88 865.26 289.604 865.26 289.244C865.26 288.764 865.608 288.428 866.064 288.428ZM872.797 288.956H877.105V290H871.069V289.184L874.489 285.884C875.377 285.02 875.545 284.492 875.545 283.964C875.545 283.1 874.933 282.572 873.757 282.572C872.857 282.572 872.125 282.86 871.609 283.484L870.793 282.776C871.441 281.972 872.557 281.504 873.865 281.504C875.617 281.504 876.745 282.404 876.745 283.844C876.745 284.66 876.505 285.392 875.365 286.484L872.797 288.956ZM885.177 286.904V287.936H883.581V290H882.417V287.936H877.749V287.096L882.045 281.6H883.341L879.225 286.904H882.453V285.08H883.581V286.904H885.177ZM888.261 284.948C890.769 284.948 891.753 285.992 891.753 287.48C891.753 288.932 890.721 290.096 888.573 290.096C887.385 290.096 886.209 289.712 885.489 289.076L886.041 288.128C886.605 288.656 887.541 289.028 888.561 289.028C889.833 289.028 890.553 288.44 890.553 287.528C890.553 286.58 889.953 285.992 888.009 285.992H886.101L886.545 281.6H891.285V282.644H887.553L887.325 284.948H888.261ZM893.556 288.428C894.012 288.428 894.336 288.776 894.336 289.244C894.336 289.484 894.288 289.664 894.132 290.108L893.568 291.776H892.812L893.256 289.988C892.956 289.88 892.752 289.604 892.752 289.244C892.752 288.764 893.1 288.428 893.556 288.428ZM900.289 288.956H904.597V290H898.561V289.184L901.981 285.884C902.869 285.02 903.037 284.492 903.037 283.964C903.037 283.1 902.425 282.572 901.249 282.572C900.349 282.572 899.617 282.86 899.101 283.484L898.285 282.776C898.933 281.972 900.049 281.504 901.357 281.504C903.109 281.504 904.237 282.404 904.237 283.844C904.237 284.66 903.997 285.392 902.857 286.484L900.289 288.956ZM908.8 285.128C910.48 285.284 911.332 286.232 911.332 287.528C911.332 288.944 910.288 290.096 908.152 290.096C906.952 290.096 905.776 289.712 905.068 289.076L905.62 288.128C906.184 288.656 907.12 289.028 908.152 289.028C909.412 289.028 910.132 288.452 910.132 287.54C910.132 286.652 909.496 286.076 908.056 286.076H907.384V285.236L909.496 282.644H905.452V281.6H910.996V282.416L908.8 285.128ZM912.094 281.6H918.43V282.416L915.034 290H913.762L917.086 282.644H913.246V284.144H912.094V281.6Z" fill="#717680"/>
<rect x="728" y="336" width="232" height="155" rx="16" fill="#86CAB6"/>
<path d="M753.547 374V362.8H756.139V371.888H761.755V374H753.547ZM764.275 364.192C763.347 364.192 762.723 363.584 762.723 362.8C762.723 362.016 763.347 361.408 764.275 361.408C765.203 361.408 765.827 361.984 765.827 362.752C765.827 363.584 765.203 364.192 764.275 364.192ZM763.027 374V365.392H765.523V374H763.027ZM774.352 365.392H776.72V372.56C776.72 375.76 774.992 377.232 771.888 377.232C770.256 377.232 768.672 376.832 767.664 376.048L768.656 374.256C769.392 374.848 770.592 375.232 771.696 375.232C773.456 375.232 774.224 374.432 774.224 372.88V372.512C773.568 373.232 772.624 373.584 771.504 373.584C769.12 373.584 767.2 371.936 767.2 369.424C767.2 366.912 769.12 365.264 771.504 365.264C772.704 365.264 773.696 365.664 774.352 366.496V365.392ZM772 371.536C773.312 371.536 774.256 370.688 774.256 369.424C774.256 368.16 773.312 367.312 772 367.312C770.688 367.312 769.728 368.16 769.728 369.424C769.728 370.688 770.688 371.536 772 371.536ZM784.275 365.264C786.307 365.264 787.843 366.448 787.843 369.072V374H785.347V369.456C785.347 368.064 784.707 367.424 783.603 367.424C782.403 367.424 781.539 368.16 781.539 369.744V374H779.043V362.128H781.539V366.288C782.211 365.616 783.171 365.264 784.275 365.264ZM794.985 371.824L795.657 373.584C795.145 373.952 794.393 374.128 793.625 374.128C791.593 374.128 790.409 373.088 790.409 371.04V367.504H789.081V365.584H790.409V363.488H792.905V365.584H795.049V367.504H792.905V371.008C792.905 371.744 793.305 372.144 793.977 372.144C794.345 372.144 794.713 372.032 794.985 371.824ZM809.334 371.504V368.224H811.702V372.768C810.47 373.696 808.774 374.192 807.174 374.192C803.654 374.192 801.062 371.776 801.062 368.4C801.062 365.024 803.654 362.608 807.222 362.608C809.19 362.608 810.822 363.28 811.91 364.544L810.246 366.08C809.43 365.216 808.486 364.816 807.35 364.816C805.174 364.816 803.686 366.272 803.686 368.4C803.686 370.496 805.174 371.984 807.318 371.984C808.022 371.984 808.678 371.856 809.334 371.504ZM816.317 366.528C816.925 365.696 817.949 365.264 819.277 365.264V367.568C819.069 367.552 818.909 367.536 818.717 367.536C817.341 367.536 816.429 368.288 816.429 369.936V374H813.933V365.392H816.317V366.528ZM829.115 369.728C829.115 369.92 829.083 370.192 829.067 370.4H822.555C822.795 371.472 823.707 372.128 825.019 372.128C825.931 372.128 826.587 371.856 827.179 371.296L828.507 372.736C827.707 373.648 826.507 374.128 824.955 374.128C821.979 374.128 820.043 372.256 820.043 369.696C820.043 367.12 822.011 365.264 824.635 365.264C827.163 365.264 829.115 366.96 829.115 369.728ZM824.651 367.152C823.515 367.152 822.699 367.84 822.523 368.944H826.763C826.587 367.856 825.771 367.152 824.651 367.152ZM839.209 369.728C839.209 369.92 839.177 370.192 839.161 370.4H832.649C832.889 371.472 833.801 372.128 835.113 372.128C836.025 372.128 836.681 371.856 837.273 371.296L838.601 372.736C837.801 373.648 836.601 374.128 835.049 374.128C832.073 374.128 830.137 372.256 830.137 369.696C830.137 367.12 832.105 365.264 834.729 365.264C837.257 365.264 839.209 366.96 839.209 369.728ZM834.745 367.152C833.609 367.152 832.793 367.84 832.617 368.944H836.857C836.681 367.856 835.865 367.152 834.745 367.152ZM846.103 365.264C848.135 365.264 849.671 366.448 849.671 369.072V374H847.175V369.456C847.175 368.064 846.535 367.424 845.431 367.424C844.231 367.424 843.367 368.16 843.367 369.744V374H840.871V365.392H843.255V366.4C843.927 365.664 844.935 365.264 846.103 365.264Z" fill="white"/>
<path d="M759.882 432.2H762.15V442H759.882V437.982H755.43V442H753.162V432.2H755.43V436.064H759.882V432.2ZM766.723 440.18H772.057V442H764.469V432.2H771.875V434.02H766.723V436.148H771.273V437.912H766.723V440.18ZM782.558 442H779.94L777.574 438.598L775.25 442H772.646L776.272 437.016L772.828 432.2H775.404L777.658 435.378L779.87 432.2H782.32L778.904 436.932L782.558 442ZM760.112 455.636H758.348L758.06 457.964H759.728V458.84H757.952L757.688 461H756.836L757.1 458.84H754.832L754.568 461H753.716L753.98 458.84H752.324V457.964H754.088L754.388 455.636H752.708V454.76H754.496L754.76 452.6H755.612L755.348 454.76H757.604L757.868 452.6H758.72L758.456 454.76H760.112V455.636ZM757.208 457.964L757.496 455.636H755.24L754.94 457.964H757.208ZM766.15 456.596C767.11 456.968 767.638 457.664 767.638 458.624C767.638 460.148 766.342 461.096 764.29 461.096C762.25 461.096 760.966 460.148 760.966 458.624C760.966 457.664 761.494 456.956 762.442 456.596C761.674 456.236 761.266 455.612 761.266 454.784C761.266 453.38 762.478 452.504 764.29 452.504C766.114 452.504 767.338 453.38 767.338 454.784C767.338 455.612 766.918 456.236 766.15 456.596ZM764.29 453.476C763.162 453.476 762.454 453.992 762.454 454.832C762.454 455.66 763.138 456.176 764.29 456.176C765.454 456.176 766.162 455.66 766.162 454.832C766.162 453.992 765.418 453.476 764.29 453.476ZM764.29 460.124C765.622 460.124 766.438 459.536 766.438 458.588C766.438 457.664 765.622 457.088 764.29 457.088C762.958 457.088 762.166 457.664 762.166 458.588C762.166 459.536 762.958 460.124 764.29 460.124ZM772.36 455.9C774.028 455.9 775.24 456.896 775.24 458.444C775.24 460.064 773.932 461.096 772.264 461.096C770.008 461.096 768.736 459.584 768.736 456.908C768.736 454.04 770.356 452.504 772.708 452.504C773.5 452.504 774.256 452.66 774.796 452.996L774.34 453.932C773.908 453.644 773.332 453.536 772.732 453.536C771.028 453.536 769.936 454.604 769.936 456.704C769.936 456.8 769.936 456.896 769.948 457.004C770.428 456.284 771.316 455.9 772.36 455.9ZM772.216 460.124C773.308 460.124 774.076 459.488 774.076 458.492C774.076 457.508 773.332 456.872 772.156 456.872C771.016 456.872 770.224 457.58 770.224 458.504C770.224 459.368 770.92 460.124 772.216 460.124ZM780.582 461.096C778.038 461.096 776.142 459.284 776.142 456.8C776.142 454.316 778.038 452.504 780.594 452.504C781.89 452.504 783.018 452.948 783.786 453.812L783.006 454.568C782.358 453.884 781.566 453.572 780.642 453.572C778.746 453.572 777.342 454.94 777.342 456.8C777.342 458.66 778.746 460.028 780.642 460.028C781.566 460.028 782.358 459.704 783.006 459.02L783.786 459.776C783.018 460.64 781.89 461.096 780.582 461.096ZM791.575 461L790.651 458.9H786.187L785.263 461H784.027L787.831 452.6H789.019L792.835 461H791.575ZM786.607 457.94H790.231L788.419 453.824L786.607 457.94ZM799.74 456.644C800.688 456.908 801.312 457.616 801.312 458.732C801.312 460.172 800.22 461 798.096 461H794.088V452.6H797.856C799.788 452.6 800.868 453.416 800.868 454.772C800.868 455.684 800.4 456.32 799.74 456.644ZM797.748 453.572H795.288V456.26H797.748C798.972 456.26 799.668 455.804 799.668 454.916C799.668 454.028 798.972 453.572 797.748 453.572ZM798.048 460.028C799.38 460.028 800.1 459.608 800.1 458.636C800.1 457.664 799.38 457.232 798.048 457.232H795.288V460.028H798.048ZM806.11 455.9C807.778 455.9 808.99 456.896 808.99 458.444C808.99 460.064 807.682 461.096 806.014 461.096C803.758 461.096 802.486 459.584 802.486 456.908C802.486 454.04 804.106 452.504 806.458 452.504C807.25 452.504 808.006 452.66 808.546 452.996L808.09 453.932C807.658 453.644 807.082 453.536 806.482 453.536C804.778 453.536 803.686 454.604 803.686 456.704C803.686 456.8 803.686 456.896 803.698 457.004C804.178 456.284 805.066 455.9 806.11 455.9ZM805.966 460.124C807.058 460.124 807.826 459.488 807.826 458.492C807.826 457.508 807.082 456.872 805.906 456.872C804.766 456.872 803.974 457.58 803.974 458.504C803.974 459.368 804.67 460.124 805.966 460.124Z" fill="white"/>
<path d="M853.842 442H851.406L849.516 439.27H849.404H847.43V442H845.162V432.2H849.404C852.022 432.2 853.66 433.558 853.66 435.756C853.66 437.226 852.918 438.304 851.644 438.85L853.842 442ZM851.364 435.756C851.364 434.678 850.664 434.048 849.278 434.048H847.43V437.464H849.278C850.664 437.464 851.364 436.82 851.364 435.756ZM862.079 439.816V436.946H864.151V440.922C863.073 441.734 861.589 442.168 860.189 442.168C857.109 442.168 854.841 440.054 854.841 437.1C854.841 434.146 857.109 432.032 860.231 432.032C861.953 432.032 863.381 432.62 864.333 433.726L862.877 435.07C862.163 434.314 861.337 433.964 860.343 433.964C858.439 433.964 857.137 435.238 857.137 437.1C857.137 438.934 858.439 440.236 860.315 440.236C860.931 440.236 861.505 440.124 862.079 439.816ZM873.454 436.904C874.546 437.254 875.246 438.094 875.246 439.326C875.246 441.02 873.902 442 871.326 442H866.258V432.2H871.046C873.496 432.2 874.756 433.222 874.756 434.748C874.756 435.728 874.252 436.484 873.454 436.904ZM870.766 433.908H868.512V436.218H870.766C871.872 436.218 872.474 435.826 872.474 435.056C872.474 434.286 871.872 433.908 870.766 433.908ZM871.158 440.292C872.334 440.292 872.964 439.928 872.964 439.088C872.964 438.262 872.334 437.87 871.158 437.87H868.512V440.292H871.158ZM844.096 452.6H847.18V461H845.992V453.644H844.096V452.6ZM852.233 456.128C853.913 456.284 854.765 457.232 854.765 458.528C854.765 459.944 853.721 461.096 851.585 461.096C850.385 461.096 849.209 460.712 848.501 460.076L849.053 459.128C849.617 459.656 850.553 460.028 851.585 460.028C852.845 460.028 853.565 459.452 853.565 458.54C853.565 457.652 852.929 457.076 851.489 457.076H850.817V456.236L852.929 453.644H848.885V452.6H854.429V453.416L852.233 456.128ZM863.193 457.904V458.936H861.597V461H860.433V458.936H855.765V458.096L860.061 452.6H861.357L857.241 457.904H860.469V456.08H861.597V457.904H863.193ZM864.95 459.428C865.406 459.428 865.73 459.776 865.73 460.244C865.73 460.484 865.682 460.664 865.526 461.108L864.962 462.776H864.206L864.65 460.988C864.35 460.88 864.146 460.604 864.146 460.244C864.146 459.764 864.494 459.428 864.95 459.428ZM871.684 459.956H875.992V461H869.956V460.184L873.376 456.884C874.264 456.02 874.432 455.492 874.432 454.964C874.432 454.1 873.82 453.572 872.644 453.572C871.744 453.572 871.012 453.86 870.496 454.484L869.68 453.776C870.328 452.972 871.444 452.504 872.752 452.504C874.504 452.504 875.632 453.404 875.632 454.844C875.632 455.66 875.392 456.392 874.252 457.484L871.684 459.956ZM880.375 461.096C878.407 461.096 876.943 459.536 876.943 456.8C876.943 454.064 878.407 452.504 880.375 452.504C882.331 452.504 883.795 454.064 883.795 456.8C883.795 459.536 882.331 461.096 880.375 461.096ZM880.375 460.028C881.683 460.028 882.595 458.948 882.595 456.8C882.595 454.652 881.683 453.572 880.375 453.572C879.055 453.572 878.143 454.652 878.143 456.8C878.143 458.948 879.055 460.028 880.375 460.028ZM886.508 459.956H890.816V461H884.78V460.184L888.2 456.884C889.088 456.02 889.256 455.492 889.256 454.964C889.256 454.1 888.644 453.572 887.468 453.572C886.568 453.572 885.836 453.86 885.32 454.484L884.504 453.776C885.152 452.972 886.268 452.504 887.576 452.504C889.328 452.504 890.456 453.404 890.456 454.844C890.456 455.66 890.216 456.392 889.076 457.484L886.508 459.956ZM892.724 459.428C893.18 459.428 893.504 459.776 893.504 460.244C893.504 460.484 893.456 460.664 893.3 461.108L892.736 462.776H891.98L892.424 460.988C892.124 460.88 891.92 460.604 891.92 460.244C891.92 459.764 892.268 459.428 892.724 459.428ZM897.381 452.6H900.465V461H899.277V453.644H897.381V452.6ZM907.439 456.596C908.399 456.968 908.927 457.664 908.927 458.624C908.927 460.148 907.631 461.096 905.579 461.096C903.539 461.096 902.255 460.148 902.255 458.624C902.255 457.664 902.783 456.956 903.731 456.596C902.963 456.236 902.555 455.612 902.555 454.784C902.555 453.38 903.767 452.504 905.579 452.504C907.403 452.504 908.627 453.38 908.627 454.784C908.627 455.612 908.207 456.236 907.439 456.596ZM905.579 453.476C904.451 453.476 903.743 453.992 903.743 454.832C903.743 455.66 904.427 456.176 905.579 456.176C906.743 456.176 907.451 455.66 907.451 454.832C907.451 453.992 906.707 453.476 905.579 453.476ZM905.579 460.124C906.911 460.124 907.727 459.536 907.727 458.588C907.727 457.664 906.911 457.088 905.579 457.088C904.247 457.088 903.455 457.664 903.455 458.588C903.455 459.536 904.247 460.124 905.579 460.124ZM911.621 459.956H915.929V461H909.893V460.184L913.313 456.884C914.201 456.02 914.369 455.492 914.369 454.964C914.369 454.1 913.757 453.572 912.581 453.572C911.681 453.572 910.949 453.86 910.433 454.484L909.617 453.776C910.265 452.972 911.381 452.504 912.689 452.504C914.441 452.504 915.569 453.404 915.569 454.844C915.569 455.66 915.329 456.392 914.189 457.484L911.621 459.956Z" fill="white"/>
<rect x="480" y="336" width="232" height="155" rx="16" fill="#3C6764"/>
<path d="M506.648 374V362.8H511.736C515.4 362.8 517.912 365.008 517.912 368.4C517.912 371.792 515.4 374 511.736 374H506.648ZM509.24 371.872H511.608C513.832 371.872 515.288 370.544 515.288 368.4C515.288 366.256 513.832 364.928 511.608 364.928H509.24V371.872ZM523.163 365.264C525.787 365.264 527.307 366.48 527.307 369.088V374H524.971V372.928C524.507 373.712 523.611 374.128 522.347 374.128C520.331 374.128 519.131 373.008 519.131 371.52C519.131 370 520.203 368.944 522.827 368.944H524.811C524.811 367.872 524.171 367.248 522.827 367.248C521.915 367.248 520.971 367.552 520.347 368.048L519.451 366.304C520.395 365.632 521.787 365.264 523.163 365.264ZM522.971 372.448C523.803 372.448 524.523 372.064 524.811 371.28V370.4H523.099C521.931 370.4 521.563 370.832 521.563 371.408C521.563 372.032 522.091 372.448 522.971 372.448ZM531.95 366.528C532.558 365.696 533.582 365.264 534.91 365.264V367.568C534.702 367.552 534.542 367.536 534.35 367.536C532.974 367.536 532.062 368.288 532.062 369.936V374H529.566V365.392H531.95V366.528ZM542.81 374L540.09 370.624L538.89 371.808V374H536.394V362.128H538.89V368.848L542.538 365.392H545.514L541.93 369.04L545.834 374H542.81ZM559.232 371.504V368.224H561.6V372.768C560.368 373.696 558.672 374.192 557.072 374.192C553.552 374.192 550.96 371.776 550.96 368.4C550.96 365.024 553.552 362.608 557.12 362.608C559.088 362.608 560.72 363.28 561.808 364.544L560.144 366.08C559.328 365.216 558.384 364.816 557.248 364.816C555.072 364.816 553.584 366.272 553.584 368.4C553.584 370.496 555.072 371.984 557.216 371.984C557.92 371.984 558.576 371.856 559.232 371.504ZM566.216 366.528C566.824 365.696 567.848 365.264 569.176 365.264V367.568C568.968 367.552 568.808 367.536 568.616 367.536C567.24 367.536 566.328 368.288 566.328 369.936V374H563.832V365.392H566.216V366.528ZM579.014 369.728C579.014 369.92 578.982 370.192 578.966 370.4H572.454C572.694 371.472 573.606 372.128 574.918 372.128C575.83 372.128 576.486 371.856 577.078 371.296L578.406 372.736C577.606 373.648 576.406 374.128 574.854 374.128C571.878 374.128 569.942 372.256 569.942 369.696C569.942 367.12 571.91 365.264 574.534 365.264C577.062 365.264 579.014 366.96 579.014 369.728ZM574.55 367.152C573.414 367.152 572.598 367.84 572.422 368.944H576.662C576.486 367.856 575.67 367.152 574.55 367.152ZM589.107 369.728C589.107 369.92 589.075 370.192 589.059 370.4H582.547C582.787 371.472 583.699 372.128 585.011 372.128C585.923 372.128 586.579 371.856 587.171 371.296L588.499 372.736C587.699 373.648 586.499 374.128 584.947 374.128C581.971 374.128 580.035 372.256 580.035 369.696C580.035 367.12 582.003 365.264 584.627 365.264C587.155 365.264 589.107 366.96 589.107 369.728ZM584.643 367.152C583.507 367.152 582.691 367.84 582.515 368.944H586.755C586.579 367.856 585.763 367.152 584.643 367.152ZM596.001 365.264C598.033 365.264 599.569 366.448 599.569 369.072V374H597.073V369.456C597.073 368.064 596.433 367.424 595.329 367.424C594.129 367.424 593.265 368.16 593.265 369.744V374H590.769V365.392H593.153V366.4C593.825 365.664 594.833 365.264 596.001 365.264Z" fill="white"/>
<path d="M511.882 432.2H514.15V442H511.882V437.982H507.43V442H505.162V432.2H507.43V436.064H511.882V432.2ZM518.723 440.18H524.057V442H516.469V432.2H523.875V434.02H518.723V436.148H523.273V437.912H518.723V440.18ZM534.558 442H531.94L529.574 438.598L527.25 442H524.646L528.272 437.016L524.828 432.2H527.404L529.658 435.378L531.87 432.2H534.32L530.904 436.932L534.558 442ZM512.112 455.636H510.348L510.06 457.964H511.728V458.84H509.952L509.688 461H508.836L509.1 458.84H506.832L506.568 461H505.716L505.98 458.84H504.324V457.964H506.088L506.388 455.636H504.708V454.76H506.496L506.76 452.6H507.612L507.348 454.76H509.604L509.868 452.6H510.72L510.456 454.76H512.112V455.636ZM509.208 457.964L509.496 455.636H507.24L506.94 457.964H509.208ZM516.23 456.128C517.91 456.284 518.762 457.232 518.762 458.528C518.762 459.944 517.718 461.096 515.582 461.096C514.382 461.096 513.206 460.712 512.498 460.076L513.05 459.128C513.614 459.656 514.55 460.028 515.582 460.028C516.842 460.028 517.562 459.452 517.562 458.54C517.562 457.652 516.926 457.076 515.486 457.076H514.814V456.236L516.926 453.644H512.882V452.6H518.426V453.416L516.23 456.128ZM524.321 461.096C521.777 461.096 519.881 459.284 519.881 456.8C519.881 454.316 521.777 452.504 524.333 452.504C525.629 452.504 526.757 452.948 527.525 453.812L526.745 454.568C526.097 453.884 525.305 453.572 524.381 453.572C522.485 453.572 521.081 454.94 521.081 456.8C521.081 458.66 522.485 460.028 524.381 460.028C525.305 460.028 526.097 459.704 526.745 459.02L527.525 459.776C526.757 460.64 525.629 461.096 524.321 461.096ZM531.907 455.9C533.575 455.9 534.787 456.896 534.787 458.444C534.787 460.064 533.479 461.096 531.811 461.096C529.555 461.096 528.283 459.584 528.283 456.908C528.283 454.04 529.903 452.504 532.255 452.504C533.047 452.504 533.803 452.66 534.343 452.996L533.887 453.932C533.455 453.644 532.879 453.536 532.279 453.536C530.575 453.536 529.483 454.604 529.483 456.704C529.483 456.8 529.483 456.896 529.495 457.004C529.975 456.284 530.863 455.9 531.907 455.9ZM531.763 460.124C532.855 460.124 533.623 459.488 533.623 458.492C533.623 457.508 532.879 456.872 531.703 456.872C530.563 456.872 529.771 457.58 529.771 458.504C529.771 459.368 530.467 460.124 531.763 460.124ZM535.391 452.6H541.727V453.416L538.331 461H537.059L540.383 453.644H536.543V455.144H535.391V452.6ZM546.169 455.9C547.837 455.9 549.049 456.896 549.049 458.444C549.049 460.064 547.741 461.096 546.073 461.096C543.817 461.096 542.545 459.584 542.545 456.908C542.545 454.04 544.165 452.504 546.517 452.504C547.309 452.504 548.065 452.66 548.605 452.996L548.149 453.932C547.717 453.644 547.141 453.536 546.541 453.536C544.837 453.536 543.745 454.604 543.745 456.704C543.745 456.8 543.745 456.896 543.757 457.004C544.237 456.284 545.125 455.9 546.169 455.9ZM546.025 460.124C547.117 460.124 547.885 459.488 547.885 458.492C547.885 457.508 547.141 456.872 545.965 456.872C544.825 456.872 544.033 457.58 544.033 458.504C544.033 459.368 544.729 460.124 546.025 460.124ZM557.259 457.904V458.936H555.663V461H554.499V458.936H549.831V458.096L554.127 452.6H555.423L551.307 457.904H554.535V456.08H555.663V457.904H557.259Z" fill="white"/>
<path d="M605.842 442H603.406L601.516 439.27H601.404H599.43V442H597.162V432.2H601.404C604.022 432.2 605.66 433.558 605.66 435.756C605.66 437.226 604.918 438.304 603.644 438.85L605.842 442ZM603.364 435.756C603.364 434.678 602.664 434.048 601.278 434.048H599.43V437.464H601.278C602.664 437.464 603.364 436.82 603.364 435.756ZM614.079 439.816V436.946H616.151V440.922C615.073 441.734 613.589 442.168 612.189 442.168C609.109 442.168 606.841 440.054 606.841 437.1C606.841 434.146 609.109 432.032 612.231 432.032C613.953 432.032 615.381 432.62 616.333 433.726L614.877 435.07C614.163 434.314 613.337 433.964 612.343 433.964C610.439 433.964 609.137 435.238 609.137 437.1C609.137 438.934 610.439 440.236 612.315 440.236C612.931 440.236 613.505 440.124 614.079 439.816ZM625.454 436.904C626.546 437.254 627.246 438.094 627.246 439.326C627.246 441.02 625.902 442 623.326 442H618.258V432.2H623.046C625.496 432.2 626.756 433.222 626.756 434.748C626.756 435.728 626.252 436.484 625.454 436.904ZM622.766 433.908H620.512V436.218H622.766C623.872 436.218 624.474 435.826 624.474 435.056C624.474 434.286 623.872 433.908 622.766 433.908ZM623.158 440.292C624.334 440.292 624.964 439.928 624.964 439.088C624.964 438.262 624.334 437.87 623.158 437.87H620.512V440.292H623.158ZM600.2 455.9C601.868 455.9 603.08 456.896 603.08 458.444C603.08 460.064 601.772 461.096 600.104 461.096C597.848 461.096 596.576 459.584 596.576 456.908C596.576 454.04 598.196 452.504 600.548 452.504C601.34 452.504 602.096 452.66 602.636 452.996L602.18 453.932C601.748 453.644 601.172 453.536 600.572 453.536C598.868 453.536 597.776 454.604 597.776 456.704C597.776 456.8 597.776 456.896 597.788 457.004C598.268 456.284 599.156 455.9 600.2 455.9ZM600.056 460.124C601.148 460.124 601.916 459.488 601.916 458.492C601.916 457.508 601.172 456.872 599.996 456.872C598.856 456.872 598.064 457.58 598.064 458.504C598.064 459.368 598.76 460.124 600.056 460.124ZM607.414 461.096C605.446 461.096 603.982 459.536 603.982 456.8C603.982 454.064 605.446 452.504 607.414 452.504C609.37 452.504 610.834 454.064 610.834 456.8C610.834 459.536 609.37 461.096 607.414 461.096ZM607.414 460.028C608.722 460.028 609.634 458.948 609.634 456.8C609.634 454.652 608.722 453.572 607.414 453.572C606.094 453.572 605.182 454.652 605.182 456.8C605.182 458.948 606.094 460.028 607.414 460.028ZM612.65 459.428C613.106 459.428 613.43 459.776 613.43 460.244C613.43 460.484 613.382 460.664 613.226 461.108L612.662 462.776H611.906L612.35 460.988C612.05 460.88 611.846 460.604 611.846 460.244C611.846 459.764 612.194 459.428 612.65 459.428ZM617.307 452.6H620.391V461H619.203V453.644H617.307V452.6ZM625.66 461.096C623.692 461.096 622.228 459.536 622.228 456.8C622.228 454.064 623.692 452.504 625.66 452.504C627.616 452.504 629.08 454.064 629.08 456.8C629.08 459.536 627.616 461.096 625.66 461.096ZM625.66 460.028C626.968 460.028 627.88 458.948 627.88 456.8C627.88 454.652 626.968 453.572 625.66 453.572C624.34 453.572 623.428 454.652 623.428 456.8C623.428 458.948 624.34 460.028 625.66 460.028ZM633.331 456.128C635.011 456.284 635.863 457.232 635.863 458.528C635.863 459.944 634.819 461.096 632.683 461.096C631.483 461.096 630.307 460.712 629.599 460.076L630.151 459.128C630.715 459.656 631.651 460.028 632.683 460.028C633.943 460.028 634.663 459.452 634.663 458.54C634.663 457.652 634.027 457.076 632.587 457.076H631.915V456.236L634.027 453.644H629.983V452.6H635.527V453.416L633.331 456.128ZM637.786 459.428C638.242 459.428 638.566 459.776 638.566 460.244C638.566 460.484 638.518 460.664 638.362 461.108L637.798 462.776H637.042L637.486 460.988C637.186 460.88 636.982 460.604 636.982 460.244C636.982 459.764 637.33 459.428 637.786 459.428ZM642.444 452.6H645.528V461H644.34V453.644H642.444V452.6ZM650.797 461.096C648.829 461.096 647.365 459.536 647.365 456.8C647.365 454.064 648.829 452.504 650.797 452.504C652.753 452.504 654.217 454.064 654.217 456.8C654.217 459.536 652.753 461.096 650.797 461.096ZM650.797 460.028C652.105 460.028 653.017 458.948 653.017 456.8C653.017 454.652 652.105 453.572 650.797 453.572C649.477 453.572 648.565 454.652 648.565 456.8C648.565 458.948 649.477 460.028 650.797 460.028ZM658.801 461.096C656.833 461.096 655.369 459.536 655.369 456.8C655.369 454.064 656.833 452.504 658.801 452.504C660.757 452.504 662.221 454.064 662.221 456.8C662.221 459.536 660.757 461.096 658.801 461.096ZM658.801 460.028C660.109 460.028 661.021 458.948 661.021 456.8C661.021 454.652 660.109 453.572 658.801 453.572C657.481 453.572 656.569 454.652 656.569 456.8C656.569 458.948 657.481 460.028 658.801 460.028Z" fill="white"/>
</g>
<defs>
<linearGradient id="paint0_linear_570_37121" x1="0" y1="413.5" x2="464" y2="413.5" gradientUnits="userSpaceOnUse">
<stop stop-color="#00BC7C"/>
<stop offset="0.5" stop-color="#006AFF"/>
<stop offset="1" stop-color="#222946"/>
</linearGradient>
<clipPath id="clip0_570_37121">
<rect width="960" height="491" fill="white"/>
</clipPath>
</defs>
</svg>
