<svg width="960" height="206" viewBox="0 0 960 206" fill="none" xmlns="http://www.w3.org/2000/svg">
<rect width="316" height="100" rx="10" fill="#6E62E4"/>
<path d="M16.7744 63V53.8086H20.3799C22.4683 53.8086 23.668 55.0972 23.668 56.9062C23.668 58.7407 22.4492 60.0039 20.3291 60.0039H18.6787V63H16.7744ZM18.6787 58.4678H20.0244C21.1543 58.4678 21.7065 57.833 21.7002 56.9062C21.7065 55.9922 21.1543 55.3765 20.0244 55.3701H18.6787V58.4678ZM29.2539 60.0674V56.1064H31.1328V63H29.3301V61.7559H29.2539C28.9429 62.5557 28.2002 63.0889 27.1592 63.0889C25.7817 63.0889 24.8359 62.1113 24.8359 60.499V56.1064H26.7148V60.1689C26.7148 60.9878 27.1846 61.4956 27.9209 61.502C28.6064 61.4956 29.2539 61.0068 29.2539 60.0674ZM32.5928 63V56.1064H34.4082V57.2998H34.4844C34.7319 56.4556 35.373 56.0049 36.1475 56.0049C36.3379 56.0049 36.5791 56.0303 36.7441 56.0684V57.7441C36.5664 57.687 36.2046 57.6426 35.9443 57.6426C35.0938 57.6426 34.4653 58.2329 34.4717 59.0771V63H32.5928ZM37.6582 65.5898V56.1064H39.5117V57.2617H39.5879C39.8481 56.7031 40.394 56.0176 41.5557 56.0176C43.0791 56.0176 44.355 57.1982 44.3486 59.5596C44.355 61.8638 43.1299 63.1143 41.5557 63.1143C40.4321 63.1143 39.8545 62.4668 39.5879 61.8955H39.5371V65.5898H37.6582ZM39.499 59.5469C39.4927 60.791 40.0259 61.6099 40.959 61.6162C41.9175 61.6099 42.438 60.7656 42.4316 59.5469C42.438 58.3472 41.9302 57.5156 40.959 57.5156C40.0195 57.5156 39.4927 58.3091 39.499 59.5469ZM47.4463 53.8086V63H45.5674V53.8086H47.4463ZM52.0293 63.1396C49.9155 63.1333 48.6206 61.7686 48.627 59.585C48.6206 57.4585 49.9346 56.0176 51.9531 56.0176C53.7622 56.0176 55.1904 57.1602 55.1904 59.5088V60.042H50.4805C50.4805 61.083 51.0962 61.7241 52.0674 61.7305C52.7085 61.7241 53.1655 61.4448 53.3496 61.0322H55.1396C54.873 62.3081 53.7305 63.1333 52.0293 63.1396ZM50.4805 58.8613H53.4131C53.4067 58.0234 52.8291 57.4204 51.9912 57.4268C51.1279 57.4204 50.5186 58.0679 50.4805 58.8613Z" fill="white"/>
<path d="M19.9609 83L20.3477 80.6562H18.2148L17.8281 83H16.9727L17.3594 80.6562H16.1055L16.2461 79.8125H17.4941L17.8457 77.7031H16.6094L16.7383 76.8594H17.9805L18.3672 74.5156H19.2227L18.8359 76.8594H20.9688L21.3555 74.5156H22.2109L21.8242 76.8594H23.0898L22.9492 77.7031H21.6895L21.3379 79.8125H22.5859L22.4453 80.6562H21.2031L20.8164 83H19.9609ZM18.3496 79.8125H20.4824L20.834 77.7031H18.7012L18.3496 79.8125ZM26.9453 83.1172C25.4746 83.0996 23.8516 82.2266 23.8516 79.0859C23.8516 76.0801 25.082 74.3984 27.0742 74.3984C28.5684 74.3984 29.6113 75.3184 29.8281 76.6484H28.7852C28.5918 75.8984 28.0176 75.3359 27.0742 75.3359C25.6797 75.3359 24.8418 76.5254 24.8477 78.5703H24.9531C25.4395 77.8613 26.2188 77.4453 27.1328 77.4453C28.6387 77.4453 29.8984 78.6172 29.8984 80.2578C29.8984 81.8574 28.7324 83.1348 26.9453 83.1172ZM24.9883 80.2812C24.9941 81.2773 25.8086 82.1855 26.9453 82.1914C28.041 82.1855 28.873 81.3242 28.8789 80.2695C28.873 79.2266 28.0762 78.377 26.9688 78.3711C25.8555 78.377 25 79.2793 24.9883 80.2812ZM31.4922 83V74.5156H36.6367V75.4531H32.5469V78.2891H36.3672V79.2148H32.5469V82.0625H36.6953V83H31.4922ZM41.1133 83.1172C39.6426 83.0996 38.0195 82.2266 38.0195 79.0859C38.0195 76.0801 39.25 74.3984 41.2422 74.3984C42.7363 74.3984 43.7793 75.3184 43.9961 76.6484H42.9531C42.7598 75.8984 42.1855 75.3359 41.2422 75.3359C39.8477 75.3359 39.0098 76.5254 39.0156 78.5703H39.1211C39.6074 77.8613 40.3867 77.4453 41.3008 77.4453C42.8066 77.4453 44.0664 78.6172 44.0664 80.2578C44.0664 81.8574 42.9004 83.1348 41.1133 83.1172ZM39.1562 80.2812C39.1621 81.2773 39.9766 82.1855 41.1133 82.1914C42.209 82.1855 43.041 81.3242 43.0469 80.2695C43.041 79.2266 42.2441 78.377 41.1367 78.3711C40.0234 78.377 39.168 79.2793 39.1562 80.2812ZM45.5195 83L45.5078 82.2266L48.4023 79.1797C49.4043 78.1133 49.8848 77.5391 49.8906 76.7539C49.8848 75.8809 49.1582 75.3184 48.2031 75.3125C47.1895 75.3184 46.5566 75.957 46.5508 76.9062H45.5547C45.543 75.4062 46.7031 74.3984 48.2383 74.3984C49.7793 74.3984 50.8691 75.4355 50.875 76.7539C50.8691 77.7031 50.4297 78.4414 48.9297 79.9883L46.9844 81.9922V82.0625H51.0273V83H45.5195ZM52.7031 83V74.5156H57.8477V75.4531H53.7578V78.2891H57.5781V79.2148H53.7578V82.0625H57.9062V83H52.7031ZM59.1602 81.2656V80.3984L62.9805 74.5156H64.2812V80.3398H65.4648V81.2656H64.2812V83H63.2734V81.2656H59.1602ZM60.2969 80.3398H63.2734V75.8516H63.168L60.2969 80.2695V80.3398Z" fill="white" fill-opacity="0.78"/>
<rect x="322" width="316" height="100" rx="10" fill="#03C09E"/>
<path d="M338.774 63V53.8086H344.944V55.3828H340.679V57.6172H344.627V59.1914H340.679V61.4258H344.957V63H338.774ZM346.392 63V56.1064H348.182V57.3125H348.258C348.55 56.5063 349.248 56.0176 350.175 56.0176C351.121 56.0176 351.825 56.519 352.054 57.3125H352.117C352.403 56.5317 353.19 56.0176 354.199 56.0176C355.475 56.0176 356.37 56.8618 356.37 58.3662V63H354.491V58.7344C354.498 57.9473 354.028 57.5664 353.412 57.5664C352.708 57.5664 352.289 58.0552 352.295 58.7852V63H350.467V58.6836C350.473 58.0044 350.042 57.5664 349.4 57.5664C348.759 57.5664 348.264 58.0806 348.271 58.8613V63H346.392ZM360.94 63.1396C358.827 63.1333 357.532 61.7686 357.538 59.585C357.532 57.4585 358.846 56.0176 360.864 56.0176C362.673 56.0176 364.102 57.1602 364.102 59.5088V60.042H359.392C359.392 61.083 360.007 61.7241 360.979 61.7305C361.62 61.7241 362.077 61.4448 362.261 61.0322H364.051C363.784 62.3081 362.642 63.1333 360.94 63.1396ZM359.392 58.8613H362.324C362.318 58.0234 361.74 57.4204 360.902 57.4268C360.039 57.4204 359.43 58.0679 359.392 58.8613ZM365.282 63V56.1064H367.098V57.2998H367.174C367.421 56.4556 368.062 56.0049 368.837 56.0049C369.027 56.0049 369.269 56.0303 369.434 56.0684V57.7441C369.256 57.687 368.894 57.6426 368.634 57.6426C367.783 57.6426 367.155 58.2329 367.161 59.0771V63H365.282ZM369.827 61.0703C369.833 59.5342 371.065 59.0327 372.392 58.9502C372.887 58.9185 373.813 58.874 374.105 58.8613V58.3027C374.099 57.7251 373.706 57.395 373.001 57.3887C372.36 57.395 371.96 57.6807 371.858 58.1504H370.068C370.183 56.957 371.224 56.0176 373.052 56.0176C374.556 56.0176 375.978 56.6904 375.972 58.3535V63H374.194V62.0479H374.144C373.807 62.6826 373.147 63.1333 372.125 63.127C370.805 63.1333 369.833 62.4351 369.827 61.0703ZM371.63 61.0195C371.63 61.5464 372.055 61.8257 372.658 61.832C373.515 61.8257 374.112 61.2671 374.105 60.5371V60.0356C373.82 60.0483 373.014 60.0928 372.696 60.1182C372.042 60.1753 371.63 60.4863 371.63 61.0195ZM379.285 53.8086V63H377.406V53.8086H379.285ZM383.284 63.1143C381.71 63.1143 380.479 61.8638 380.479 59.5596C380.479 57.1982 381.761 56.0176 383.284 56.0176C384.439 56.0176 384.992 56.7031 385.239 57.2617H385.303V53.8086H387.182V63H385.328V61.8955H385.239C384.979 62.4668 384.408 63.1143 383.284 63.1143ZM382.408 59.5469C382.402 60.7656 382.916 61.6099 383.868 61.6162C384.808 61.6099 385.341 60.791 385.341 59.5469C385.341 58.3091 384.814 57.5156 383.868 57.5156C382.91 57.5156 382.402 58.3472 382.408 59.5469Z" fill="white"/>
<path d="M341.961 83L342.348 80.6562H340.215L339.828 83H338.973L339.359 80.6562H338.105L338.246 79.8125H339.494L339.846 77.7031H338.609L338.738 76.8594H339.98L340.367 74.5156H341.223L340.836 76.8594H342.969L343.355 74.5156H344.211L343.824 76.8594H345.09L344.949 77.7031H343.689L343.338 79.8125H344.586L344.445 80.6562H343.203L342.816 83H341.961ZM340.35 79.8125H342.482L342.834 77.7031H340.701L340.35 79.8125ZM348.77 83.1172C346.889 83.1172 345.799 81.5352 345.805 78.7578C345.799 76.0039 346.9 74.3984 348.77 74.3984C350.633 74.3984 351.734 76.0039 351.734 78.7578C351.734 81.5352 350.65 83.1172 348.77 83.1172ZM346.824 78.7578C346.83 80.9551 347.539 82.1797 348.77 82.1797C349.994 82.1797 350.709 80.9551 350.703 78.7578C350.709 76.5605 349.988 75.3184 348.77 75.3125C347.551 75.3184 346.83 76.5605 346.824 78.7578ZM356.07 83.1172C354.383 83.1172 353.17 82.2148 353.117 80.8672H354.184C354.242 81.6758 355.045 82.1797 356.059 82.1797C357.178 82.1797 357.986 81.5762 357.992 80.6914C357.986 79.7656 357.248 79.1152 355.93 79.1094H355.238V78.1836H355.93C356.961 78.1836 357.682 77.6035 357.676 76.7305C357.682 75.8809 357.061 75.3184 356.094 75.3125C355.186 75.3184 354.359 75.8164 354.312 76.6484H353.293C353.346 75.3008 354.6 74.3984 356.105 74.3984C357.723 74.3984 358.707 75.459 358.695 76.6719C358.707 77.6387 358.145 78.3418 357.254 78.5938V78.6523C358.361 78.8223 359.029 79.6133 359.023 80.6914C359.029 82.0859 357.764 83.1172 356.07 83.1172ZM366.477 77.1875C366.23 76.0156 365.229 75.3828 364.109 75.3828C362.574 75.3828 361.385 76.5664 361.379 78.7578C361.385 80.9434 362.574 82.127 364.109 82.1328C365.229 82.127 366.225 81.5 366.477 80.3398H367.531C367.227 82.0742 365.832 83.1172 364.109 83.1172C361.93 83.1172 360.354 81.4414 360.359 78.7578C360.354 76.0742 361.93 74.3984 364.109 74.3984C365.826 74.3984 367.215 75.4238 367.531 77.1875H366.477ZM371.645 83.1172C369.764 83.1172 368.674 81.5352 368.68 78.7578C368.674 76.0039 369.775 74.3984 371.645 74.3984C373.508 74.3984 374.609 76.0039 374.609 78.7578C374.609 81.5352 373.525 83.1172 371.645 83.1172ZM369.699 78.7578C369.705 80.9551 370.414 82.1797 371.645 82.1797C372.869 82.1797 373.584 80.9551 373.578 78.7578C373.584 76.5605 372.863 75.3184 371.645 75.3125C370.426 75.3184 369.705 76.5605 369.699 78.7578ZM378.84 74.3984C380.299 74.416 381.922 75.2949 381.922 78.418C381.922 81.4355 380.686 83.1172 378.699 83.1172C377.205 83.1172 376.156 82.2031 375.945 80.8555H376.988C377.176 81.6172 377.756 82.1797 378.699 82.1797C380.082 82.1797 380.926 80.9844 380.938 78.9219H380.82C380.334 79.625 379.555 80.0469 378.652 80.0469C377.135 80.0469 375.875 78.8809 375.875 77.2461C375.875 75.6641 377.035 74.3809 378.84 74.3984ZM376.906 77.2344C376.9 78.2832 377.697 79.1211 378.805 79.1211C379.912 79.1211 380.773 78.207 380.773 77.2109C380.773 76.2383 379.959 75.3242 378.84 75.3242C377.732 75.3242 376.895 76.1855 376.906 77.2344ZM383.516 83V74.5156H388.66V75.4531H384.57V78.2891H388.391V79.2148H384.57V82.0625H388.719V83H383.516Z" fill="white" fill-opacity="0.78"/>
<rect x="644" width="316" height="100" rx="10" fill="#FF614F"/>
<path d="M666.919 57.0078C666.767 55.9922 665.986 55.3765 664.913 55.3701C663.485 55.3765 662.539 56.4683 662.539 58.4043C662.539 60.3848 663.498 61.4321 664.9 61.4385C665.948 61.4321 666.735 60.8608 666.919 59.8643L668.849 59.877C668.639 61.5781 667.211 63.127 664.875 63.127C662.418 63.127 660.597 61.394 660.597 58.4043C660.597 55.4019 662.45 53.6816 664.875 53.6816C666.995 53.6816 668.595 54.894 668.849 57.0078H666.919ZM673.241 63.1396C671.159 63.1333 669.858 61.7051 669.864 59.5723C669.858 57.4458 671.159 56.0176 673.241 56.0176C675.33 56.0176 676.625 57.4458 676.631 59.5723C676.625 61.7051 675.33 63.1333 673.241 63.1396ZM671.769 59.5723C671.769 60.7783 672.27 61.6733 673.254 61.6797C674.212 61.6733 674.72 60.7783 674.714 59.5723C674.72 58.3599 674.212 57.4521 673.254 57.4521C672.27 57.4521 671.769 58.3599 671.769 59.5723ZM677.812 63V56.1064H679.627V57.2998H679.703C679.951 56.4556 680.592 56.0049 681.366 56.0049C681.557 56.0049 681.798 56.0303 681.963 56.0684V57.7441C681.785 57.687 681.423 57.6426 681.163 57.6426C680.312 57.6426 679.684 58.2329 679.69 59.0771V63H677.812ZM682.356 61.0703C682.363 59.5342 683.594 59.0327 684.921 58.9502C685.416 58.9185 686.343 58.874 686.635 58.8613V58.3027C686.628 57.7251 686.235 57.395 685.53 57.3887C684.889 57.395 684.489 57.6807 684.388 58.1504H682.598C682.712 56.957 683.753 56.0176 685.581 56.0176C687.085 56.0176 688.507 56.6904 688.501 58.3535V63H686.724V62.0479H686.673C686.336 62.6826 685.676 63.1333 684.654 63.127C683.334 63.1333 682.363 62.4351 682.356 61.0703ZM684.159 61.0195C684.159 61.5464 684.584 61.8257 685.188 61.832C686.044 61.8257 686.641 61.2671 686.635 60.5371V60.0356C686.349 60.0483 685.543 60.0928 685.226 60.1182C684.572 60.1753 684.159 60.4863 684.159 61.0195ZM691.814 53.8086V63H689.936V53.8086H691.814Z" fill="white"/>
<path d="M663.961 83L664.348 80.6562H662.215L661.828 83H660.973L661.359 80.6562H660.105L660.246 79.8125H661.494L661.846 77.7031H660.609L660.738 76.8594H661.98L662.367 74.5156H663.223L662.836 76.8594H664.969L665.355 74.5156H666.211L665.824 76.8594H667.09L666.949 77.7031H665.689L665.338 79.8125H666.586L666.445 80.6562H665.203L664.816 83H663.961ZM662.35 79.8125H664.482L664.834 77.7031H662.701L662.35 79.8125ZM668.133 83V74.5156H673.242V75.4531H669.188V78.2891H672.855V79.2148H669.188V83H668.133ZM674.812 83V74.5156H679.922V75.4531H675.867V78.2891H679.535V79.2148H675.867V83H674.812ZM684.305 83.1172C682.834 83.0996 681.211 82.2266 681.211 79.0859C681.211 76.0801 682.441 74.3984 684.434 74.3984C685.928 74.3984 686.971 75.3184 687.188 76.6484H686.145C685.951 75.8984 685.377 75.3359 684.434 75.3359C683.039 75.3359 682.201 76.5254 682.207 78.5703H682.312C682.799 77.8613 683.578 77.4453 684.492 77.4453C685.998 77.4453 687.258 78.6172 687.258 80.2578C687.258 81.8574 686.092 83.1348 684.305 83.1172ZM682.348 80.2812C682.354 81.2773 683.168 82.1855 684.305 82.1914C685.4 82.1855 686.232 81.3242 686.238 80.2695C686.232 79.2266 685.436 78.377 684.328 78.3711C683.215 78.377 682.359 79.2793 682.348 80.2812ZM691.711 74.5156V83H690.645V75.6172H690.598L688.535 76.9883V75.9219L690.645 74.5156H691.711ZM693.762 81.2656V80.3984L697.582 74.5156H698.883V80.3398H700.066V81.2656H698.883V83H697.875V81.2656H693.762ZM694.898 80.3398H697.875V75.8516H697.77L694.898 80.2695V80.3398ZM701.602 83V74.5156H706.711V75.4531H702.656V78.2891H706.324V79.2148H702.656V83H701.602Z" fill="white" fill-opacity="0.78"/>
<rect y="106" width="99.5556" height="100" rx="10" fill="#F8F9FA"/>
<path d="M16.7852 131V122.516H20.0312C21.8711 122.516 22.7793 123.453 22.7852 124.719C22.7793 125.75 22.1289 126.324 21.2969 126.523V126.605C22.1992 126.652 23.1133 127.402 23.1133 128.691C23.1133 130.01 22.1582 131 20.2188 131H16.7852ZM18.3086 129.723H19.9844C21.0977 129.723 21.5605 129.248 21.5664 128.574C21.5605 127.812 20.9688 127.232 20.0195 127.227H18.3086V129.723ZM18.3086 126.125H19.8438C20.6465 126.125 21.2559 125.662 21.2617 124.906C21.2559 124.256 20.7871 123.781 19.8789 123.781H18.3086V126.125ZM27.0625 133.52C25.375 133.52 24.3027 132.77 24.2031 131.574H25.6914C25.7969 132.131 26.3184 132.389 27.0859 132.395C27.9824 132.389 28.5625 132.002 28.5625 131.07V129.852H28.4922C28.2578 130.32 27.748 130.906 26.6523 130.906C25.1816 130.906 24.0273 129.84 24.0273 127.766C24.0273 125.674 25.1875 124.555 26.6641 124.555C27.7832 124.555 28.2578 125.229 28.4922 125.68H28.5625V124.637H30.0391V131.105C30.0391 132.734 28.7793 133.52 27.0625 133.52ZM25.5508 127.789C25.5508 128.961 26.0781 129.734 27.0625 129.734C28.0293 129.734 28.5742 129.008 28.5742 127.789C28.5742 126.576 28.0352 125.779 27.0625 125.773C26.0664 125.779 25.5508 126.629 25.5508 127.789Z" fill="black" fill-opacity="0.32"/>
<path d="M20.6846 159.809V169H18.7676V161.624H18.7168L16.6094 162.944V161.256L18.8818 159.809H20.6846ZM26.3848 169.127C24.0806 169.127 22.6904 167.413 22.6904 164.404C22.6904 161.402 24.0933 159.682 26.3848 159.682C28.6763 159.682 30.0791 161.402 30.0791 164.404C30.0791 167.426 28.6826 169.127 26.3848 169.127ZM24.6455 164.404C24.6328 166.524 25.3184 167.553 26.3848 167.553C27.4512 167.553 28.1304 166.524 28.124 164.404C28.1304 162.303 27.4448 161.25 26.3848 161.243C25.3247 161.25 24.6455 162.303 24.6455 164.404Z" fill="black"/>
<path d="M19.9609 189L20.3477 186.656H18.2148L17.8281 189H16.9727L17.3594 186.656H16.1055L16.2461 185.812H17.4941L17.8457 183.703H16.6094L16.7383 182.859H17.9805L18.3672 180.516H19.2227L18.8359 182.859H20.9688L21.3555 180.516H22.2109L21.8242 182.859H23.0898L22.9492 183.703H21.6895L21.3379 185.812H22.5859L22.4453 186.656H21.2031L20.8164 189H19.9609ZM18.3496 185.812H20.4824L20.834 183.703H18.7012L18.3496 185.812ZM24.1328 189V180.516H29.2422V181.453H25.1875V184.289H28.8555V185.215H25.1875V189H24.1328ZM33.5078 189.117C31.7207 189.117 30.4902 188.127 30.4961 186.75C30.4902 185.654 31.252 184.746 32.2188 184.594V184.547C31.375 184.354 30.8184 183.574 30.8242 182.648C30.8184 181.354 31.9551 180.398 33.5078 180.398C35.0547 180.398 36.1914 181.354 36.2031 182.648C36.1914 183.574 35.6289 184.354 34.7969 184.547V184.594C35.7578 184.746 36.5195 185.654 36.5312 186.75C36.5195 188.127 35.2773 189.117 33.5078 189.117ZM31.5508 186.691C31.5332 187.582 32.2891 188.186 33.5078 188.191C34.7207 188.186 35.4766 187.582 35.4766 186.691C35.4766 185.754 34.6504 185.062 33.5078 185.062C32.3711 185.062 31.5332 185.754 31.5508 186.691ZM31.8438 182.73C31.8496 183.586 32.5352 184.166 33.5078 184.172C34.4746 184.166 35.1719 183.586 35.1719 182.73C35.1719 181.881 34.498 181.307 33.5078 181.312C32.5 181.307 31.8496 181.881 31.8438 182.73ZM38.0898 189V180.516H43.1992V181.453H39.1445V184.289H42.8125V185.215H39.1445V189H38.0898ZM47.4531 180.398C48.9121 180.416 50.5352 181.295 50.5352 184.418C50.5352 187.436 49.2988 189.117 47.3125 189.117C45.8184 189.117 44.7695 188.203 44.5586 186.855H45.6016C45.7891 187.617 46.3691 188.18 47.3125 188.18C48.6953 188.18 49.5391 186.984 49.5508 184.922H49.4336C48.9473 185.625 48.168 186.047 47.2656 186.047C45.748 186.047 44.4883 184.881 44.4883 183.246C44.4883 181.664 45.6484 180.381 47.4531 180.398ZM45.5195 183.234C45.5137 184.283 46.3105 185.121 47.418 185.121C48.5254 185.121 49.3867 184.207 49.3867 183.211C49.3867 182.238 48.5723 181.324 47.4531 181.324C46.3457 181.324 45.5078 182.186 45.5195 183.234ZM52.1289 189V180.516H57.2383V181.453H53.1836V184.289H56.8516V185.215H53.1836V189H52.1289ZM58.1172 189H57.0156L60.1211 180.516H61.2344L64.3398 189H63.2266L62.377 186.609H58.9668L58.1172 189ZM59.2891 185.684H62.0547L60.707 181.887H60.6367L59.2891 185.684Z" fill="black" fill-opacity="0.56"/>
<rect x="105.555" y="106" width="99.4306" height="100" rx="10" fill="#F1F3F5"/>
<path d="M122.278 169L122.266 167.616L125.566 164.582C126.423 163.763 126.887 163.255 126.887 162.525C126.887 161.707 126.271 161.199 125.427 161.205C124.563 161.199 123.999 161.745 124.005 162.627H122.189C122.183 160.831 123.516 159.682 125.452 159.682C127.42 159.682 128.728 160.805 128.728 162.398C128.728 163.446 128.22 164.303 126.328 166.017L124.932 167.375V167.426H128.854V169H122.278ZM133.78 169.127C131.476 169.127 130.086 167.413 130.086 164.404C130.086 161.402 131.489 159.682 133.78 159.682C136.072 159.682 137.475 161.402 137.475 164.404C137.475 167.426 136.078 169.127 133.78 169.127ZM132.041 164.404C132.028 166.524 132.714 167.553 133.78 167.553C134.847 167.553 135.526 166.524 135.52 164.404C135.526 162.303 134.84 161.25 133.78 161.243C132.72 161.25 132.041 162.303 132.041 164.404Z" fill="black"/>
<path d="M125.516 189L125.902 186.656H123.77L123.383 189H122.527L122.914 186.656H121.66L121.801 185.812H123.049L123.4 183.703H122.164L122.293 182.859H123.535L123.922 180.516H124.777L124.391 182.859H126.523L126.91 180.516H127.766L127.379 182.859H128.645L128.504 183.703H127.244L126.893 185.812H128.141L128 186.656H126.758L126.371 189H125.516ZM123.904 185.812H126.037L126.389 183.703H124.256L123.904 185.812ZM129.688 189V180.516H134.797V181.453H130.742V184.289H134.41V185.215H130.742V189H129.688ZM139.227 180.516V189H138.16V181.617H138.113L136.051 182.988V181.922L138.16 180.516H139.227ZM141.629 189V180.516H146.738V181.453H142.684V184.289H146.352V185.215H142.684V189H141.629ZM151.098 189.117C149.41 189.117 148.197 188.215 148.145 186.867H149.211C149.27 187.676 150.072 188.18 151.086 188.18C152.205 188.18 153.014 187.576 153.02 186.691C153.014 185.766 152.275 185.115 150.957 185.109H150.266V184.184H150.957C151.988 184.184 152.709 183.604 152.703 182.73C152.709 181.881 152.088 181.318 151.121 181.312C150.213 181.318 149.387 181.816 149.34 182.648H148.32C148.373 181.301 149.627 180.398 151.133 180.398C152.75 180.398 153.734 181.459 153.723 182.672C153.734 183.639 153.172 184.342 152.281 184.594V184.652C153.389 184.822 154.057 185.613 154.051 186.691C154.057 188.086 152.791 189.117 151.098 189.117ZM155.715 189V180.516H160.824V181.453H156.77V184.289H160.438V185.215H156.77V189H155.715ZM165.02 189.117C163.49 189.117 162.33 188.174 162.266 186.867H163.285C163.361 187.623 164.1 188.186 165.02 188.191C166.121 188.186 166.918 187.383 166.918 186.316C166.918 185.215 166.092 184.4 164.949 184.395C164.234 184.383 163.678 184.605 163.367 185.156H162.348L162.945 180.516H167.539V181.453H163.824L163.508 183.938H163.59C163.971 183.645 164.539 183.445 165.137 183.445C166.754 183.445 167.943 184.641 167.949 186.293C167.943 187.934 166.713 189.117 165.02 189.117Z" fill="black" fill-opacity="0.56"/>
<rect x="210.984" y="106" width="101.859" height="100" rx="10" fill="#E9ECEF"/>
<path d="M233.453 125.223C233.178 124.32 232.48 123.77 231.449 123.77C230.084 123.77 229.088 124.836 229.094 126.746C229.088 128.674 230.066 129.746 231.484 129.746C232.768 129.746 233.582 128.973 233.605 127.766H231.637V126.559H235.082V127.578C235.082 129.764 233.582 131.117 231.484 131.117C229.141 131.117 227.553 129.447 227.559 126.758C227.553 124.033 229.217 122.398 231.438 122.398C233.307 122.398 234.754 123.559 235.012 125.223H233.453ZM236.395 131V124.637H237.848V125.691H237.918C238.146 124.959 238.756 124.543 239.488 124.543C239.652 124.543 239.887 124.561 240.027 124.578V125.961C239.893 125.914 239.582 125.873 239.336 125.867C238.504 125.873 237.895 126.447 237.895 127.25V131H236.395ZM240.508 129.207C240.508 127.777 241.697 127.361 242.875 127.285C243.32 127.25 244.229 127.209 244.51 127.197L244.504 126.688C244.504 126.055 244.1 125.691 243.355 125.691C242.688 125.691 242.277 125.996 242.16 126.453H240.719C240.824 125.369 241.797 124.555 243.391 124.555C244.598 124.555 245.992 125.053 245.992 126.746V131H244.562V130.121H244.516C244.234 130.66 243.643 131.129 242.641 131.129C241.428 131.129 240.508 130.467 240.508 129.207ZM241.949 129.195C241.949 129.746 242.4 130.027 243.027 130.027C243.936 130.027 244.516 129.43 244.516 128.715L244.51 128.193C244.24 128.205 243.408 128.258 243.109 128.281C242.4 128.34 241.949 128.639 241.949 129.195ZM248.066 133.391C247.768 133.385 247.486 133.379 247.293 133.355V132.16C247.475 132.178 247.727 132.178 247.926 132.184C248.289 132.178 248.594 132.154 248.852 131.469L248.98 131.129L246.66 124.637H248.242L249.719 129.441H249.789L251.266 124.637H252.848L250.293 131.773C249.93 132.787 249.262 133.385 248.066 133.391Z" fill="black" fill-opacity="0.32"/>
<path d="M231.669 159.809V169H229.752V161.624H229.701L227.594 162.944V161.256L229.866 159.809H231.669ZM237.369 169.127C235.065 169.127 233.675 167.413 233.675 164.404C233.675 161.402 235.078 159.682 237.369 159.682C239.661 159.682 241.063 161.402 241.063 164.404C241.063 167.426 239.667 169.127 237.369 169.127ZM235.63 164.404C235.617 166.524 236.303 167.553 237.369 167.553C238.436 167.553 239.115 166.524 239.108 164.404C239.115 162.303 238.429 161.25 237.369 161.243C236.309 161.25 235.63 162.303 235.63 164.404Z" fill="black"/>
<path d="M230.945 189L231.332 186.656H229.199L228.812 189H227.957L228.344 186.656H227.09L227.23 185.812H228.479L228.83 183.703H227.594L227.723 182.859H228.965L229.352 180.516H230.207L229.82 182.859H231.953L232.34 180.516H233.195L232.809 182.859H234.074L233.934 183.703H232.674L232.322 185.812H233.57L233.43 186.656H232.188L231.801 189H230.945ZM229.334 185.812H231.467L231.818 183.703H229.686L229.334 185.812ZM235.117 189V180.516H240.262V181.453H236.172V184.289H239.992V185.215H236.172V188.062H240.32V189H235.117ZM244.609 180.398C246.068 180.416 247.691 181.295 247.691 184.418C247.691 187.436 246.455 189.117 244.469 189.117C242.975 189.117 241.926 188.203 241.715 186.855H242.758C242.945 187.617 243.525 188.18 244.469 188.18C245.852 188.18 246.695 186.984 246.707 184.922H246.59C246.104 185.625 245.324 186.047 244.422 186.047C242.904 186.047 241.645 184.881 241.645 183.246C241.645 181.664 242.805 180.381 244.609 180.398ZM242.676 183.234C242.67 184.283 243.467 185.121 244.574 185.121C245.682 185.121 246.543 184.207 246.543 183.211C246.543 182.238 245.729 181.324 244.609 181.324C243.502 181.324 242.664 182.186 242.676 183.234ZM249.285 189V180.516H254.43V181.453H250.34V184.289H254.16V185.215H250.34V188.062H254.488V189H249.285ZM261.883 183.188C261.637 182.016 260.635 181.383 259.516 181.383C257.98 181.383 256.791 182.566 256.785 184.758C256.791 186.943 257.98 188.127 259.516 188.133C260.635 188.127 261.631 187.5 261.883 186.34H262.938C262.633 188.074 261.238 189.117 259.516 189.117C257.336 189.117 255.76 187.441 255.766 184.758C255.76 182.074 257.336 180.398 259.516 180.398C261.232 180.398 262.621 181.424 262.938 183.188H261.883ZM264.414 189V180.516H269.559V181.453H265.469V184.289H269.289V185.215H265.469V188.062H269.617V189H264.414ZM271.223 189V180.516H276.332V181.453H272.277V184.289H275.945V185.215H272.277V189H271.223Z" fill="black" fill-opacity="0.56"/>
<rect x="318.844" y="106" width="101.859" height="100" rx="10" fill="#DEE2E6"/>
<path d="M335.567 169L335.555 167.616L338.855 164.582C339.712 163.763 340.176 163.255 340.176 162.525C340.176 161.707 339.56 161.199 338.716 161.205C337.853 161.199 337.288 161.745 337.294 162.627H335.479C335.472 160.831 336.805 159.682 338.741 159.682C340.709 159.682 342.017 160.805 342.017 162.398C342.017 163.446 341.509 164.303 339.617 166.017L338.221 167.375V167.426H342.144V169H335.567ZM347.069 169.127C344.765 169.127 343.375 167.413 343.375 164.404C343.375 161.402 344.778 159.682 347.069 159.682C349.361 159.682 350.764 161.402 350.764 164.404C350.764 167.426 349.367 169.127 347.069 169.127ZM345.33 164.404C345.317 166.524 346.003 167.553 347.069 167.553C348.136 167.553 348.815 166.524 348.809 164.404C348.815 162.303 348.129 161.25 347.069 161.243C346.009 161.25 345.33 162.303 345.33 164.404Z" fill="black"/>
<path d="M338.805 189L339.191 186.656H337.059L336.672 189H335.816L336.203 186.656H334.949L335.09 185.812H336.338L336.689 183.703H335.453L335.582 182.859H336.824L337.211 180.516H338.066L337.68 182.859H339.812L340.199 180.516H341.055L340.668 182.859H341.934L341.793 183.703H340.533L340.182 185.812H341.43L341.289 186.656H340.047L339.66 189H338.805ZM337.193 185.812H339.326L339.678 183.703H337.545L337.193 185.812ZM345.613 189H342.977V180.516H345.719C348.197 180.516 349.656 182.104 349.656 184.746C349.656 187.395 348.197 189 345.613 189ZM344.031 188.062H345.543C347.623 188.062 348.625 186.803 348.625 184.746C348.625 182.695 347.623 181.453 345.648 181.453H344.031V188.062ZM351.203 189V180.516H356.348V181.453H352.258V184.289H356.078V185.215H352.258V188.062H356.406V189H351.203ZM358.012 189V180.516H363.156V181.453H359.066V184.289H362.887V185.215H359.066V188.062H363.215V189H358.012ZM364.68 189L364.668 188.227L367.562 185.18C368.564 184.113 369.045 183.539 369.051 182.754C369.045 181.881 368.318 181.318 367.363 181.312C366.35 181.318 365.717 181.957 365.711 182.906H364.715C364.703 181.406 365.863 180.398 367.398 180.398C368.939 180.398 370.029 181.436 370.035 182.754C370.029 183.703 369.59 184.441 368.09 185.988L366.145 187.992V188.062H370.188V189H364.68ZM371.863 189V180.516H377.008V181.453H372.918V184.289H376.738V185.215H372.918V188.062H377.066V189H371.863ZM381.484 189.117C380.014 189.1 378.391 188.227 378.391 185.086C378.391 182.08 379.621 180.398 381.613 180.398C383.107 180.398 384.15 181.318 384.367 182.648H383.324C383.131 181.898 382.557 181.336 381.613 181.336C380.219 181.336 379.381 182.525 379.387 184.57H379.492C379.979 183.861 380.758 183.445 381.672 183.445C383.178 183.445 384.438 184.617 384.438 186.258C384.438 187.857 383.271 189.135 381.484 189.117ZM379.527 186.281C379.533 187.277 380.348 188.186 381.484 188.191C382.58 188.186 383.412 187.324 383.418 186.27C383.412 185.227 382.615 184.377 381.508 184.371C380.395 184.377 379.539 185.279 379.527 186.281Z" fill="black" fill-opacity="0.56"/>
<rect x="426.703" y="106" width="101.859" height="100" rx="10" fill="#CED4DA"/>
<path d="M446.829 169.127C444.811 169.127 443.363 168.016 443.325 166.41H445.255C445.287 167.096 445.953 167.546 446.842 167.553C447.756 167.546 448.41 167.039 448.403 166.296C448.41 165.547 447.743 165.02 446.664 165.014H445.813V163.604H446.664C447.572 163.604 448.207 163.109 448.2 162.386C448.207 161.681 447.667 161.199 446.854 161.205C446.042 161.199 445.375 161.656 445.344 162.36H443.516C443.547 160.78 444.969 159.682 446.854 159.682C448.771 159.682 450.047 160.818 450.041 162.271C450.047 163.3 449.33 164.03 448.302 164.214V164.29C449.654 164.455 450.396 165.274 450.384 166.423C450.396 167.997 448.905 169.127 446.829 169.127ZM455.297 169.127C452.993 169.127 451.603 167.413 451.603 164.404C451.603 161.402 453.005 159.682 455.297 159.682C457.588 159.682 458.991 161.402 458.991 164.404C458.991 167.426 457.595 169.127 455.297 169.127ZM453.558 164.404C453.545 166.524 454.23 167.553 455.297 167.553C456.363 167.553 457.042 166.524 457.036 164.404C457.042 162.303 456.357 161.25 455.297 161.243C454.237 161.25 453.558 162.303 453.558 164.404Z" fill="black"/>
<path d="M446.664 189L447.051 186.656H444.918L444.531 189H443.676L444.062 186.656H442.809L442.949 185.812H444.197L444.549 183.703H443.312L443.441 182.859H444.684L445.07 180.516H445.926L445.539 182.859H447.672L448.059 180.516H448.914L448.527 182.859H449.793L449.652 183.703H448.393L448.041 185.812H449.289L449.148 186.656H447.906L447.52 189H446.664ZM445.053 185.812H447.186L447.537 183.703H445.404L445.053 185.812ZM456.625 183.188C456.379 182.016 455.377 181.383 454.258 181.383C452.723 181.383 451.533 182.566 451.527 184.758C451.533 186.943 452.723 188.127 454.258 188.133C455.377 188.127 456.373 187.5 456.625 186.34H457.68C457.375 188.074 455.98 189.117 454.258 189.117C452.078 189.117 450.502 187.441 450.508 184.758C450.502 182.074 452.078 180.398 454.258 180.398C455.975 180.398 457.363 181.424 457.68 183.188H456.625ZM459.156 189V180.516H464.301V181.453H460.211V184.289H464.031V185.215H460.211V188.062H464.359V189H459.156ZM468.602 189H465.965V180.516H468.707C471.186 180.516 472.645 182.104 472.645 184.746C472.645 187.395 471.186 189 468.602 189ZM467.02 188.062H468.531C470.611 188.062 471.613 186.803 471.613 184.746C471.613 182.695 470.611 181.453 468.637 181.453H467.02V188.062ZM473.84 187.266V186.398L477.66 180.516H478.961V186.34H480.145V187.266H478.961V189H477.953V187.266H473.84ZM474.977 186.34H477.953V181.852H477.848L474.977 186.27V186.34ZM484.316 189H481.68V180.516H484.422C486.9 180.516 488.359 182.104 488.359 184.746C488.359 187.395 486.9 189 484.316 189ZM482.734 188.062H484.246C486.326 188.062 487.328 186.803 487.328 184.746C487.328 182.695 486.326 181.453 484.352 181.453H482.734V188.062ZM489.871 189H488.77L491.875 180.516H492.988L496.094 189H494.98L494.131 186.609H490.721L489.871 189ZM491.043 185.684H493.809L492.461 181.887H492.391L491.043 185.684Z" fill="black" fill-opacity="0.56"/>
<rect x="534.562" y="106" width="101.859" height="100" rx="10" fill="#ADB5BD"/>
<path d="M551.134 167.375V165.864L555.019 159.809H557.418V165.839H558.586V167.375H557.418V169H555.603V167.375H551.134ZM553.063 165.839H555.628V161.903H555.539L553.063 165.763V165.839ZM563.397 169.127C561.093 169.127 559.703 167.413 559.703 164.404C559.703 161.402 561.106 159.682 563.397 159.682C565.689 159.682 567.092 161.402 567.092 164.404C567.092 167.426 565.695 169.127 563.397 169.127ZM561.658 164.404C561.646 166.524 562.331 167.553 563.397 167.553C564.464 167.553 565.143 166.524 565.137 164.404C565.143 162.303 564.458 161.25 563.397 161.243C562.337 161.25 561.658 162.303 561.658 164.404Z" fill="black"/>
<path d="M554.523 189L554.91 186.656H552.777L552.391 189H551.535L551.922 186.656H550.668L550.809 185.812H552.057L552.408 183.703H551.172L551.301 182.859H552.543L552.93 180.516H553.785L553.398 182.859H555.531L555.918 180.516H556.773L556.387 182.859H557.652L557.512 183.703H556.252L555.9 185.812H557.148L557.008 186.656H555.766L555.379 189H554.523ZM552.912 185.812H555.045L555.396 183.703H553.264L552.912 185.812ZM559.07 189H557.969L561.074 180.516H562.188L565.293 189H564.18L563.33 186.609H559.92L559.07 189ZM560.242 185.684H563.008L561.66 181.887H561.59L560.242 185.684ZM569.078 189H566.441V180.516H569.184C571.662 180.516 573.121 182.104 573.121 184.746C573.121 187.395 571.662 189 569.078 189ZM567.496 188.062H569.008C571.088 188.062 572.09 186.803 572.09 184.746C572.09 182.695 571.088 181.453 569.113 181.453H567.496V188.062ZM574.668 189V180.516H577.645C579.426 180.516 580.264 181.518 580.258 182.766C580.264 183.855 579.613 184.342 578.875 184.547V184.629C579.666 184.676 580.592 185.402 580.598 186.75C580.592 188.021 579.754 189 577.75 189H574.668ZM575.723 188.062H577.738C579.068 188.062 579.584 187.477 579.578 186.738C579.584 185.877 578.887 185.145 577.797 185.145H575.723V188.062ZM575.723 184.23H577.609C578.529 184.236 579.25 183.662 579.25 182.777C579.25 182.039 578.752 181.453 577.645 181.453H575.723V184.23ZM584.723 189.117C583.193 189.117 582.033 188.174 581.969 186.867H582.988C583.064 187.623 583.803 188.186 584.723 188.191C585.824 188.186 586.621 187.383 586.621 186.316C586.621 185.215 585.795 184.4 584.652 184.395C583.938 184.383 583.381 184.605 583.07 185.156H582.051L582.648 180.516H587.242V181.453H583.527L583.211 183.938H583.293C583.674 183.645 584.242 183.445 584.84 183.445C586.457 183.445 587.646 184.641 587.652 186.293C587.646 187.934 586.416 189.117 584.723 189.117ZM589.258 189V180.516H592.234C594.016 180.516 594.854 181.518 594.848 182.766C594.854 183.855 594.203 184.342 593.465 184.547V184.629C594.256 184.676 595.182 185.402 595.188 186.75C595.182 188.021 594.344 189 592.34 189H589.258ZM590.312 188.062H592.328C593.658 188.062 594.174 187.477 594.168 186.738C594.174 185.877 593.477 185.145 592.387 185.145H590.312V188.062ZM590.312 184.23H592.199C593.119 184.236 593.84 183.662 593.84 182.777C593.84 182.039 593.342 181.453 592.234 181.453H590.312V184.23ZM599.324 189H596.688V180.516H599.43C601.908 180.516 603.367 182.104 603.367 184.746C603.367 187.395 601.908 189 599.324 189ZM597.742 188.062H599.254C601.334 188.062 602.336 186.803 602.336 184.746C602.336 182.695 601.334 181.453 599.359 181.453H597.742V188.062Z" fill="black" fill-opacity="0.56"/>
<rect x="642.422" y="106" width="101.859" height="100" rx="10" fill="#868E96"/>
<path d="M662.522 169.127C660.605 169.127 659.203 167.997 659.171 166.41H661.024C661.069 167.127 661.723 167.623 662.522 167.616C663.475 167.623 664.154 166.95 664.147 165.991C664.154 165.014 663.462 164.334 662.497 164.328C661.805 164.328 661.323 164.588 661.05 165.103H659.323L659.818 159.809H665.48V161.37H661.393L661.139 163.693H661.215C661.551 163.243 662.25 162.913 663.056 162.919C664.744 162.913 666.001 164.176 666.001 165.94C666.001 167.8 664.592 169.127 662.522 169.127ZM670.863 169.127C668.559 169.127 667.169 167.413 667.169 164.404C667.169 161.402 668.572 159.682 670.863 159.682C673.155 159.682 674.558 161.402 674.558 164.404C674.558 167.426 673.161 169.127 670.863 169.127ZM669.124 164.404C669.111 166.524 669.797 167.553 670.863 167.553C671.93 167.553 672.609 166.524 672.603 164.404C672.609 162.303 671.923 161.25 670.863 161.243C669.803 161.25 669.124 162.303 669.124 164.404Z" fill="white"/>
<path d="M662.383 189L662.77 186.656H660.637L660.25 189H659.395L659.781 186.656H658.527L658.668 185.812H659.916L660.268 183.703H659.031L659.16 182.859H660.402L660.789 180.516H661.645L661.258 182.859H663.391L663.777 180.516H664.633L664.246 182.859H665.512L665.371 183.703H664.111L663.76 185.812H665.008L664.867 186.656H663.625L663.238 189H662.383ZM660.771 185.812H662.904L663.256 183.703H661.123L660.771 185.812ZM669.25 189.117C667.463 189.117 666.232 188.127 666.238 186.75C666.232 185.654 666.994 184.746 667.961 184.594V184.547C667.117 184.354 666.561 183.574 666.566 182.648C666.561 181.354 667.697 180.398 669.25 180.398C670.797 180.398 671.934 181.354 671.945 182.648C671.934 183.574 671.371 184.354 670.539 184.547V184.594C671.5 184.746 672.262 185.654 672.273 186.75C672.262 188.127 671.02 189.117 669.25 189.117ZM667.293 186.691C667.275 187.582 668.031 188.186 669.25 188.191C670.463 188.186 671.219 187.582 671.219 186.691C671.219 185.754 670.393 185.062 669.25 185.062C668.113 185.062 667.275 185.754 667.293 186.691ZM667.586 182.73C667.592 183.586 668.277 184.166 669.25 184.172C670.217 184.166 670.914 183.586 670.914 182.73C670.914 181.881 670.24 181.307 669.25 181.312C668.242 181.307 667.592 181.881 667.586 182.73ZM676.645 189.117C675.174 189.1 673.551 188.227 673.551 185.086C673.551 182.08 674.781 180.398 676.773 180.398C678.268 180.398 679.311 181.318 679.527 182.648H678.484C678.291 181.898 677.717 181.336 676.773 181.336C675.379 181.336 674.541 182.525 674.547 184.57H674.652C675.139 183.861 675.918 183.445 676.832 183.445C678.338 183.445 679.598 184.617 679.598 186.258C679.598 187.857 678.432 189.135 676.645 189.117ZM674.688 186.281C674.693 187.277 675.508 188.186 676.645 188.191C677.74 188.186 678.572 187.324 678.578 186.27C678.572 185.227 677.775 184.377 676.668 184.371C675.555 184.377 674.699 185.279 674.688 186.281ZM683.887 189.117C682.1 189.117 680.869 188.127 680.875 186.75C680.869 185.654 681.631 184.746 682.598 184.594V184.547C681.754 184.354 681.197 183.574 681.203 182.648C681.197 181.354 682.334 180.398 683.887 180.398C685.434 180.398 686.57 181.354 686.582 182.648C686.57 183.574 686.008 184.354 685.176 184.547V184.594C686.137 184.746 686.898 185.654 686.91 186.75C686.898 188.127 685.656 189.117 683.887 189.117ZM681.93 186.691C681.912 187.582 682.668 188.186 683.887 188.191C685.1 188.186 685.855 187.582 685.855 186.691C685.855 185.754 685.029 185.062 683.887 185.062C682.75 185.062 681.912 185.754 681.93 186.691ZM682.223 182.73C682.229 183.586 682.914 184.166 683.887 184.172C684.854 184.166 685.551 183.586 685.551 182.73C685.551 181.881 684.877 181.307 683.887 181.312C682.879 181.307 682.229 181.881 682.223 182.73ZM688.469 189V180.516H693.613V181.453H689.523V184.289H693.344V185.215H689.523V188.062H693.672V189H688.469ZM697.961 180.398C699.42 180.416 701.043 181.295 701.043 184.418C701.043 187.436 699.807 189.117 697.82 189.117C696.326 189.117 695.277 188.203 695.066 186.855H696.109C696.297 187.617 696.877 188.18 697.82 188.18C699.203 188.18 700.047 186.984 700.059 184.922H699.941C699.455 185.625 698.676 186.047 697.773 186.047C696.256 186.047 694.996 184.881 694.996 183.246C694.996 181.664 696.156 180.381 697.961 180.398ZM696.027 183.234C696.021 184.283 696.818 185.121 697.926 185.121C699.033 185.121 699.895 184.207 699.895 183.211C699.895 182.238 699.08 181.324 697.961 181.324C696.854 181.324 696.016 182.186 696.027 183.234ZM705.449 189.117C703.979 189.1 702.355 188.227 702.355 185.086C702.355 182.08 703.586 180.398 705.578 180.398C707.072 180.398 708.115 181.318 708.332 182.648H707.289C707.096 181.898 706.521 181.336 705.578 181.336C704.184 181.336 703.346 182.525 703.352 184.57H703.457C703.943 183.861 704.723 183.445 705.637 183.445C707.143 183.445 708.402 184.617 708.402 186.258C708.402 187.857 707.236 189.135 705.449 189.117ZM703.492 186.281C703.498 187.277 704.312 188.186 705.449 188.191C706.545 188.186 707.377 187.324 707.383 186.27C707.377 185.227 706.58 184.377 705.473 184.371C704.359 184.377 703.504 185.279 703.492 186.281Z" fill="white" fill-opacity="0.78"/>
<rect x="750.281" y="106" width="101.859" height="100" rx="10" fill="#495057"/>
<path d="M770.56 169.127C768.662 169.121 766.846 167.984 766.853 164.62C766.859 161.516 768.338 159.682 770.636 159.682C772.483 159.682 773.752 160.85 773.937 162.36H772.058C771.905 161.719 771.378 161.319 770.636 161.319C769.385 161.319 768.731 162.443 768.719 164.252H768.808C769.233 163.433 770.141 162.957 771.156 162.957C772.813 162.957 774.044 164.195 774.038 165.928C774.044 167.794 772.635 169.133 770.56 169.127ZM768.909 165.979C768.922 166.88 769.607 167.623 770.547 167.616C771.493 167.623 772.185 166.905 772.185 165.979C772.185 165.058 771.505 164.347 770.572 164.341C769.633 164.347 768.922 165.083 768.909 165.979ZM778.926 169.127C776.622 169.127 775.231 167.413 775.231 164.404C775.231 161.402 776.634 159.682 778.926 159.682C781.217 159.682 782.62 161.402 782.62 164.404C782.62 167.426 781.224 169.127 778.926 169.127ZM777.187 164.404C777.174 166.524 777.859 167.553 778.926 167.553C779.992 167.553 780.671 166.524 780.665 164.404C780.671 162.303 779.986 161.25 778.926 161.243C777.866 161.25 777.187 162.303 777.187 164.404Z" fill="white"/>
<path d="M770.242 189L770.629 186.656H768.496L768.109 189H767.254L767.641 186.656H766.387L766.527 185.812H767.775L768.127 183.703H766.891L767.02 182.859H768.262L768.648 180.516H769.504L769.117 182.859H771.25L771.637 180.516H772.492L772.105 182.859H773.371L773.23 183.703H771.971L771.619 185.812H772.867L772.727 186.656H771.484L771.098 189H770.242ZM768.631 185.812H770.764L771.115 183.703H768.982L768.631 185.812ZM774.062 187.266V186.398L777.883 180.516H779.184V186.34H780.367V187.266H779.184V189H778.176V187.266H774.062ZM775.199 186.34H778.176V181.852H778.07L775.199 186.27V186.34ZM784.586 180.398C786.045 180.416 787.668 181.295 787.668 184.418C787.668 187.436 786.432 189.117 784.445 189.117C782.951 189.117 781.902 188.203 781.691 186.855H782.734C782.922 187.617 783.502 188.18 784.445 188.18C785.828 188.18 786.672 186.984 786.684 184.922H786.566C786.08 185.625 785.301 186.047 784.398 186.047C782.881 186.047 781.621 184.881 781.621 183.246C781.621 181.664 782.781 180.381 784.586 180.398ZM782.652 183.234C782.646 184.283 783.443 185.121 784.551 185.121C785.658 185.121 786.52 184.207 786.52 183.211C786.52 182.238 785.705 181.324 784.586 181.324C783.479 181.324 782.641 182.186 782.652 183.234ZM791.887 189.117C790.357 189.117 789.197 188.174 789.133 186.867H790.152C790.229 187.623 790.967 188.186 791.887 188.191C792.988 188.186 793.785 187.383 793.785 186.316C793.785 185.215 792.959 184.4 791.816 184.395C791.102 184.383 790.545 184.605 790.234 185.156H789.215L789.812 180.516H794.406V181.453H790.691L790.375 183.938H790.457C790.838 183.645 791.406 183.445 792.004 183.445C793.621 183.445 794.811 184.641 794.816 186.293C794.811 187.934 793.58 189.117 791.887 189.117ZM799.059 189.117C797.178 189.117 796.088 187.535 796.094 184.758C796.088 182.004 797.189 180.398 799.059 180.398C800.922 180.398 802.023 182.004 802.023 184.758C802.023 187.535 800.939 189.117 799.059 189.117ZM797.113 184.758C797.119 186.955 797.828 188.18 799.059 188.18C800.283 188.18 800.998 186.955 800.992 184.758C800.998 182.561 800.277 181.318 799.059 181.312C797.84 181.318 797.119 182.561 797.113 184.758ZM806.195 189.117C804.666 189.117 803.506 188.174 803.441 186.867H804.461C804.537 187.623 805.275 188.186 806.195 188.191C807.297 188.186 808.094 187.383 808.094 186.316C808.094 185.215 807.268 184.4 806.125 184.395C805.41 184.383 804.854 184.605 804.543 185.156H803.523L804.121 180.516H808.715V181.453H805L804.684 183.938H804.766C805.146 183.645 805.715 183.445 806.312 183.445C807.93 183.445 809.119 184.641 809.125 186.293C809.119 187.934 807.889 189.117 806.195 189.117ZM810.859 189L814.75 181.512V181.453H810.262V180.516H815.84V181.5L811.961 189H810.859Z" fill="white" fill-opacity="0.78"/>
<rect x="858.141" y="106" width="101.859" height="100" rx="10" fill="#212529"/>
<path d="M875.22 169L879.092 161.434V161.37H874.585V159.809H881.072V161.396L877.2 169H875.22ZM885.706 169.127C883.402 169.127 882.012 167.413 882.012 164.404C882.012 161.402 883.415 159.682 885.706 159.682C887.998 159.682 889.4 161.402 889.4 164.404C889.4 167.426 888.004 169.127 885.706 169.127ZM883.967 164.404C883.954 166.524 884.64 167.553 885.706 167.553C886.772 167.553 887.452 166.524 887.445 164.404C887.452 162.303 886.766 161.25 885.706 161.243C884.646 161.25 883.967 162.303 883.967 164.404Z" fill="white"/>
<path d="M878.102 189L878.488 186.656H876.355L875.969 189H875.113L875.5 186.656H874.246L874.387 185.812H875.635L875.986 183.703H874.75L874.879 182.859H876.121L876.508 180.516H877.363L876.977 182.859H879.109L879.496 180.516H880.352L879.965 182.859H881.23L881.09 183.703H879.83L879.479 185.812H880.727L880.586 186.656H879.344L878.957 189H878.102ZM876.49 185.812H878.623L878.975 183.703H876.842L876.49 185.812ZM882.133 189L882.121 188.227L885.016 185.18C886.018 184.113 886.498 183.539 886.504 182.754C886.498 181.881 885.771 181.318 884.816 181.312C883.803 181.318 883.17 181.957 883.164 182.906H882.168C882.156 181.406 883.316 180.398 884.852 180.398C886.393 180.398 887.482 181.436 887.488 182.754C887.482 183.703 887.043 184.441 885.543 185.988L883.598 187.992V188.062H887.641V189H882.133ZM892.176 180.516V189H891.109V181.617H891.062L889 182.988V181.922L891.109 180.516H892.176ZM894.438 189L894.426 188.227L897.32 185.18C898.322 184.113 898.803 183.539 898.809 182.754C898.803 181.881 898.076 181.318 897.121 181.312C896.107 181.318 895.475 181.957 895.469 182.906H894.473C894.461 181.406 895.621 180.398 897.156 180.398C898.697 180.398 899.787 181.436 899.793 182.754C899.787 183.703 899.348 184.441 897.848 185.988L895.902 187.992V188.062H899.945V189H894.438ZM904.246 189.117C902.717 189.117 901.557 188.174 901.492 186.867H902.512C902.588 187.623 903.326 188.186 904.246 188.191C905.348 188.186 906.145 187.383 906.145 186.316C906.145 185.215 905.318 184.4 904.176 184.395C903.461 184.383 902.904 184.605 902.594 185.156H901.574L902.172 180.516H906.766V181.453H903.051L902.734 183.938H902.816C903.197 183.645 903.766 183.445 904.363 183.445C905.98 183.445 907.17 184.641 907.176 186.293C907.17 187.934 905.939 189.117 904.246 189.117ZM908.641 189L908.629 188.227L911.523 185.18C912.525 184.113 913.006 183.539 913.012 182.754C913.006 181.881 912.279 181.318 911.324 181.312C910.311 181.318 909.678 181.957 909.672 182.906H908.676C908.664 181.406 909.824 180.398 911.359 180.398C912.9 180.398 913.99 181.436 913.996 182.754C913.99 183.703 913.551 184.441 912.051 185.988L910.105 187.992V188.062H914.148V189H908.641ZM918.508 180.398C919.967 180.416 921.59 181.295 921.59 184.418C921.59 187.436 920.354 189.117 918.367 189.117C916.873 189.117 915.824 188.203 915.613 186.855H916.656C916.844 187.617 917.424 188.18 918.367 188.18C919.75 188.18 920.594 186.984 920.605 184.922H920.488C920.002 185.625 919.223 186.047 918.32 186.047C916.803 186.047 915.543 184.881 915.543 183.246C915.543 181.664 916.703 180.381 918.508 180.398ZM916.574 183.234C916.568 184.283 917.365 185.121 918.473 185.121C919.58 185.121 920.441 184.207 920.441 183.211C920.441 182.238 919.627 181.324 918.508 181.324C917.4 181.324 916.562 182.186 916.574 183.234Z" fill="white" fill-opacity="0.78"/>
</svg>
