<svg width="960" height="280" viewBox="0 0 960 280" fill="none" xmlns="http://www.w3.org/2000/svg">
<rect width="474" height="280" rx="16" fill="#FAFAFA"/>
<rect x="0.5" y="0.5" width="473" height="279" rx="15.5" stroke="black" stroke-opacity="0.06"/>
<path d="M42.02 34.8402L36.63 39.0402C35.73 39.7402 35 41.2302 35 42.3602V49.7702C35 52.0902 36.89 53.9902 39.21 53.9902H50.79C53.11 53.9902 55 52.0902 55 49.7802V42.5002C55 41.2902 54.19 39.7402 53.2 39.0502L47.02 34.7202C45.62 33.7402 43.37 33.7902 42.02 34.8402Z" stroke="#343A40" stroke-width="2" stroke-linecap="round" stroke-linejoin="round"/>
<path d="M45 49.9902V46.9902" stroke="#343A40" stroke-width="2" stroke-linecap="round" stroke-linejoin="round"/>
<path d="M114 52.5H104C101 52.5 99 51 99 47.5V40.5C99 37 101 35.5 104 35.5H114C117 35.5 119 37 119 40.5V47.5C119 51 117 52.5 114 52.5Z" stroke="#343A40" stroke-width="2" stroke-miterlimit="10" stroke-linecap="round" stroke-linejoin="round"/>
<path d="M114 41L110.87 43.5C109.84 44.32 108.15 44.32 107.12 43.5L104 41" stroke="#343A40" stroke-width="2" stroke-miterlimit="10" stroke-linecap="round" stroke-linejoin="round"/>
<path d="M167.44 34H178.55C182.11 34 183 34.89 183 38.44V44.77C183 48.33 182.11 49.21 178.56 49.21H167.44C163.89 49.22 163 48.33 163 44.78V38.44C163 34.89 163.89 34 167.44 34Z" stroke="#343A40" stroke-width="2" stroke-linecap="round" stroke-linejoin="round"/>
<path d="M173 49.2207V54.0007" stroke="#343A40" stroke-width="2" stroke-linecap="round" stroke-linejoin="round"/>
<path d="M163 45H183" stroke="#343A40" stroke-width="2" stroke-linecap="round" stroke-linejoin="round"/>
<path d="M168.5 54H177.5" stroke="#343A40" stroke-width="2" stroke-linecap="round" stroke-linejoin="round"/>
<path d="M247 42V47C247 52 245 54 240 54H234C229 54 227 52 227 47V41C227 36 229 34 234 34H239" stroke="#343A40" stroke-width="2" stroke-linecap="round" stroke-linejoin="round"/>
<path d="M247 42H243C240 42 239 41 239 38V34L247 42Z" stroke="#343A40" stroke-width="2" stroke-linecap="round" stroke-linejoin="round"/>
<path d="M232 45H238" stroke="#343A40" stroke-width="2" stroke-linecap="round" stroke-linejoin="round"/>
<path d="M232 49H236" stroke="#343A40" stroke-width="2" stroke-linecap="round" stroke-linejoin="round"/>
<path d="M309 40.25V50C309 53 307.21 54 305 54H297C294.79 54 293 53 293 50V40.25C293 37 294.79 36.25 297 36.25C297 36.87 297.25 37.43 297.66 37.84C298.07 38.25 298.63 38.5 299.25 38.5H302.75C303.99 38.5 305 37.49 305 36.25C307.21 36.25 309 37 309 40.25Z" stroke="#343A40" stroke-width="2" stroke-linecap="round" stroke-linejoin="round"/>
<path d="M305 36.25C305 37.49 303.99 38.5 302.75 38.5H299.25C298.63 38.5 298.07 38.25 297.66 37.84C297.25 37.43 297 36.87 297 36.25C297 35.01 298.01 34 299.25 34H302.75C303.37 34 303.93 34.25 304.34 34.66C304.75 35.07 305 35.63 305 36.25Z" stroke="#343A40" stroke-width="2" stroke-linecap="round" stroke-linejoin="round"/>
<path d="M297 45H301" stroke="#343A40" stroke-width="2" stroke-linecap="round" stroke-linejoin="round"/>
<path d="M297 49H305" stroke="#343A40" stroke-width="2" stroke-linecap="round" stroke-linejoin="round"/>
<path d="M369.82 34H360.18C358.05 34 356.32 35.74 356.32 37.86V51.95C356.32 53.75 357.61 54.51 359.19 53.64L364.07 50.93C364.59 50.64 365.43 50.64 365.94 50.93L370.82 53.64C372.4 54.52 373.69 53.76 373.69 51.95V37.86C373.68 35.74 371.95 34 369.82 34Z" stroke="#343A40" stroke-width="2" stroke-linecap="round" stroke-linejoin="round"/>
<path d="M362.594 43L364.094 44.5L368.094 40.5" stroke="#343A40" stroke-width="2" stroke-linecap="round" stroke-linejoin="round"/>
<path d="M425 34V37" stroke="#343A40" stroke-width="2" stroke-miterlimit="10" stroke-linecap="round" stroke-linejoin="round"/>
<path d="M433 34V37" stroke="#343A40" stroke-width="2" stroke-miterlimit="10" stroke-linecap="round" stroke-linejoin="round"/>
<path d="M420.5 41.0898H437.5" stroke="#343A40" stroke-width="2" stroke-miterlimit="10" stroke-linecap="round" stroke-linejoin="round"/>
<path d="M438 40.5V49C438 52 436.5 54 433 54H425C421.5 54 420 52 420 49V40.5C420 37.5 421.5 35.5 425 35.5H433C436.5 35.5 438 37.5 438 40.5Z" stroke="#343A40" stroke-width="2" stroke-miterlimit="10" stroke-linecap="round" stroke-linejoin="round"/>
<path d="M432.698 45.6992H432.707" stroke="#343A40" stroke-width="2" stroke-linecap="round" stroke-linejoin="round"/>
<path d="M432.698 48.6992H432.707" stroke="#343A40" stroke-width="2" stroke-linecap="round" stroke-linejoin="round"/>
<path d="M428.995 45.6992H429.003" stroke="#343A40" stroke-width="2" stroke-linecap="round" stroke-linejoin="round"/>
<path d="M428.995 48.6992H429.003" stroke="#343A40" stroke-width="2" stroke-linecap="round" stroke-linejoin="round"/>
<path d="M425.291 45.6992H425.3" stroke="#343A40" stroke-width="2" stroke-linecap="round" stroke-linejoin="round"/>
<path d="M425.291 48.6992H425.3" stroke="#343A40" stroke-width="2" stroke-linecap="round" stroke-linejoin="round"/>
<path d="M50.98 106.79V110.79C50.98 111.05 50.97 111.3 50.94 111.54C50.71 114.24 49.12 115.58 46.19 115.58H45.79C45.54 115.58 45.3 115.7 45.15 115.9L43.95 117.5C43.42 118.21 42.56 118.21 42.03 117.5L40.83 115.9C40.7 115.73 40.41 115.58 40.19 115.58H39.79C36.6 115.58 35 114.79 35 110.79V106.79C35 103.86 36.35 102.27 39.04 102.04C39.28 102.01 39.53 102 39.79 102H46.19C49.38 102 50.98 103.6 50.98 106.79Z" stroke="#343A40" stroke-width="2" stroke-miterlimit="10" stroke-linecap="round" stroke-linejoin="round"/>
<path d="M54.9791 102.79V106.79C54.9791 109.73 53.6291 111.31 50.9391 111.54C50.9691 111.3 50.9791 111.05 50.9791 110.79V106.79C50.9791 103.6 49.3791 102 46.1891 102H39.7891C39.5291 102 39.2791 102.01 39.0391 102.04C39.2691 99.35 40.8591 98 43.7891 98H50.1891C53.3791 98 54.9791 99.6 54.9791 102.79Z" stroke="#343A40" stroke-width="2" stroke-miterlimit="10" stroke-linecap="round" stroke-linejoin="round"/>
<path d="M46.4955 109.25H46.5045" stroke="#343A40" stroke-width="2" stroke-linecap="round" stroke-linejoin="round"/>
<path d="M42.9955 109.25H43.0045" stroke="#343A40" stroke-width="2" stroke-linecap="round" stroke-linejoin="round"/>
<path d="M39.4955 109.25H39.5045" stroke="#343A40" stroke-width="2" stroke-linecap="round" stroke-linejoin="round"/>
<path d="M118.667 110.3L118.267 115.3C118.117 116.83 117.997 118 115.287 118H102.707C99.9968 118 99.8768 116.83 99.7268 115.3L99.3268 110.3C99.2468 109.47 99.5068 108.7 99.9768 108.11C99.9868 108.1 99.9868 108.1 99.9968 108.09C100.547 107.42 101.377 107 102.307 107H115.687C116.617 107 117.437 107.42 117.977 108.07C117.987 108.08 117.997 108.09 117.997 108.1C118.487 108.69 118.757 109.46 118.667 110.3Z" stroke="#343A40" stroke-width="2" stroke-miterlimit="10"/>
<path d="M100.5 107.429V102.279C100.5 98.8793 101.35 98.0293 104.75 98.0293H106.02C107.29 98.0293 107.58 98.4093 108.06 99.0493L109.33 100.749C109.65 101.169 109.84 101.429 110.69 101.429H113.24C116.64 101.429 117.49 102.279 117.49 105.679V107.469" stroke="#343A40" stroke-width="2" stroke-miterlimit="10" stroke-linecap="round" stroke-linejoin="round"/>
<path d="M106.43 113H111.57" stroke="#343A40" stroke-width="2" stroke-miterlimit="10" stroke-linecap="round" stroke-linejoin="round"/>
<path d="M183 104.27V100.23C183 98.64 182.36 98 180.77 98H176.73C175.14 98 174.5 98.64 174.5 100.23V104.27C174.5 105.86 175.14 106.5 176.73 106.5H180.77C182.36 106.5 183 105.86 183 104.27Z" stroke="#343A40" stroke-width="2" stroke-linecap="round" stroke-linejoin="round"/>
<path d="M171.5 104.52V99.98C171.5 98.57 170.86 98 169.27 98H165.23C163.64 98 163 98.57 163 99.98V104.51C163 105.93 163.64 106.49 165.23 106.49H169.27C170.86 106.5 171.5 105.93 171.5 104.52Z" stroke="#343A40" stroke-width="2" stroke-linecap="round" stroke-linejoin="round"/>
<path d="M171.5 115.77V111.73C171.5 110.14 170.86 109.5 169.27 109.5H165.23C163.64 109.5 163 110.14 163 111.73V115.77C163 117.36 163.64 118 165.23 118H169.27C170.86 118 171.5 117.36 171.5 115.77Z" stroke="#343A40" stroke-width="2" stroke-linecap="round" stroke-linejoin="round"/>
<path d="M175.5 113.5H181.5" stroke="#343A40" stroke-width="2" stroke-linecap="round"/>
<path d="M178.5 116.5V110.5" stroke="#343A40" stroke-width="2" stroke-linecap="round"/>
<g clip-path="url(#clip0_904_39472)">
<path d="M226.733 104.333H247.267M226.733 111.667H247.267M236.389 97C234.33 100.3 233.238 104.111 233.238 108C233.238 111.889 234.33 115.7 236.389 119M237.611 97C239.67 100.3 240.762 104.111 240.762 108C240.762 111.889 239.67 115.7 237.611 119M226 108C226 109.445 226.285 110.875 226.837 112.21C227.39 113.544 228.2 114.757 229.222 115.778C230.243 116.8 231.456 117.61 232.79 118.163C234.125 118.715 235.555 119 237 119C238.445 119 239.875 118.715 241.21 118.163C242.544 117.61 243.757 116.8 244.778 115.778C245.8 114.757 246.61 113.544 247.163 112.21C247.715 110.875 248 109.445 248 108C248 105.083 246.841 102.285 244.778 100.222C242.715 98.1589 239.917 97 237 97C234.083 97 231.285 98.1589 229.222 100.222C227.159 102.285 226 105.083 226 108Z" stroke="#343A40" stroke-width="2" stroke-linecap="round" stroke-linejoin="round"/>
</g>
<path d="M298 118H296C292 118 291 117 291 113V103C291 99 292 98 296 98H297.5C299 98 299.33 98.44 299.9 99.2L301.4 101.2C301.78 101.7 302 102 303 102H306C310 102 311 103 311 107V109" stroke="#343A40" stroke-width="2" stroke-miterlimit="10" stroke-linecap="round" stroke-linejoin="round"/>
<path d="M302.762 114.32C300.413 114.49 300.413 117.89 302.762 118.06H308.322C308.992 118.06 309.653 117.81 310.143 117.36C311.793 115.92 310.912 113.04 308.742 112.77C307.962 108.08 301.183 109.86 302.783 114.33" stroke="#343A40" stroke-width="2" stroke-miterlimit="10" stroke-linecap="round" stroke-linejoin="round"/>
<path d="M374.933 102.761L371.563 116.291C371.323 117.301 370.423 118.001 369.383 118.001H356.243C354.733 118.001 353.653 116.521 354.103 115.071L358.313 101.551C358.603 100.611 359.473 99.9609 360.453 99.9609H372.753C373.703 99.9609 374.493 100.541 374.823 101.341C375.013 101.771 375.053 102.261 374.933 102.761Z" stroke="#343A40" stroke-width="2" stroke-miterlimit="10"/>
<path d="M369 118H373.78C375.07 118 376.08 116.91 375.99 115.62L375 102" stroke="#343A40" stroke-width="2" stroke-miterlimit="10" stroke-linecap="round" stroke-linejoin="round"/>
<path d="M362.68 102.38L363.72 98.0605" stroke="#343A40" stroke-width="2" stroke-miterlimit="10" stroke-linecap="round" stroke-linejoin="round"/>
<path d="M369.383 102.391L370.323 98.0508" stroke="#343A40" stroke-width="2" stroke-miterlimit="10" stroke-linecap="round" stroke-linejoin="round"/>
<path d="M360.703 108H368.703" stroke="#343A40" stroke-width="2" stroke-miterlimit="10" stroke-linecap="round" stroke-linejoin="round"/>
<path d="M359.703 112H367.703" stroke="#343A40" stroke-width="2" stroke-miterlimit="10" stroke-linecap="round" stroke-linejoin="round"/>
<path d="M437 110C438.105 110 439 109.105 439 108C439 106.895 438.105 106 437 106C435.895 106 435 106.895 435 108C435 109.105 435.895 110 437 110Z" stroke="#343A40" stroke-width="2" stroke-linecap="round" stroke-linejoin="round"/>
<path d="M437 102C438.105 102 439 101.105 439 100C439 98.8954 438.105 98 437 98C435.895 98 435 98.8954 435 100C435 101.105 435.895 102 437 102Z" stroke="#343A40" stroke-width="2" stroke-linecap="round" stroke-linejoin="round"/>
<path d="M437 118C438.105 118 439 117.105 439 116C439 114.895 438.105 114 437 114C435.895 114 435 114.895 435 116C435 117.105 435.895 118 437 118Z" stroke="#343A40" stroke-width="2" stroke-linecap="round" stroke-linejoin="round"/>
<path d="M421 110C422.105 110 423 109.105 423 108C423 106.895 422.105 106 421 106C419.895 106 419 106.895 419 108C419 109.105 419.895 110 421 110Z" stroke="#343A40" stroke-width="2" stroke-linecap="round" stroke-linejoin="round"/>
<path d="M423 108H435" stroke="#343A40" stroke-width="2" stroke-linecap="round" stroke-linejoin="round"/>
<path d="M435 100H431C429 100 428 101 428 103V113C428 115 429 116 431 116H435" stroke="#343A40" stroke-width="2" stroke-linecap="round" stroke-linejoin="round"/>
<path d="M42 182H48C53 182 55 180 55 175V169C55 164 53 162 48 162H42C37 162 35 164 35 169V175C35 180 37 182 42 182Z" stroke="#343A40" stroke-width="2" stroke-linecap="round" stroke-linejoin="round"/>
<path d="M48.9945 172H49.0035" stroke="#343A40" stroke-width="2" stroke-linecap="round" stroke-linejoin="round"/>
<path d="M44.9945 172H45.0035" stroke="#343A40" stroke-width="2" stroke-linecap="round" stroke-linejoin="round"/>
<path d="M40.9945 172H41.0035" stroke="#343A40" stroke-width="2" stroke-linecap="round" stroke-linejoin="round"/>
<path d="M116.318 170H101.688C100.208 170 99.0078 168.79 99.0078 167.32V164.69C99.0078 163.21 100.218 162.01 101.688 162.01H116.318C117.798 162.01 118.998 163.22 118.998 164.69V167.32C118.998 168.79 117.788 170 116.318 170Z" stroke="#343A40" stroke-width="2" stroke-linecap="round" stroke-linejoin="round"/>
<path d="M116.318 182H101.688C100.208 182 99.0078 180.79 99.0078 179.32V176.69C99.0078 175.21 100.218 174.01 101.688 174.01H116.318C117.798 174.01 118.998 175.22 118.998 176.69V179.32C118.998 180.79 117.788 182 116.318 182Z" stroke="#343A40" stroke-width="2" stroke-linecap="round" stroke-linejoin="round"/>
<path d="M103 165V167" stroke="#343A40" stroke-width="2" stroke-linecap="round" stroke-linejoin="round"/>
<path d="M107 165V167" stroke="#343A40" stroke-width="2" stroke-linecap="round" stroke-linejoin="round"/>
<path d="M103 177V179" stroke="#343A40" stroke-width="2" stroke-linecap="round" stroke-linejoin="round"/>
<path d="M107 177V179" stroke="#343A40" stroke-width="2" stroke-linecap="round" stroke-linejoin="round"/>
<path d="M111 166H115" stroke="#343A40" stroke-width="2" stroke-linecap="round" stroke-linejoin="round"/>
<path d="M111 178H115" stroke="#343A40" stroke-width="2" stroke-linecap="round" stroke-linejoin="round"/>
<path d="M166.902 177H179.092C180.992 177 181.992 176 181.992 174.1V162H163.992V174.1C164.002 176 165.002 177 166.902 177Z" stroke="#343A40" stroke-width="2" stroke-miterlimit="10" stroke-linecap="round" stroke-linejoin="round"/>
<path d="M163 162H183" stroke="#343A40" stroke-width="2" stroke-miterlimit="10" stroke-linecap="round" stroke-linejoin="round"/>
<path d="M169 182L173 180V177" stroke="#343A40" stroke-width="2" stroke-miterlimit="10" stroke-linecap="round" stroke-linejoin="round"/>
<path d="M177 182L173 180" stroke="#343A40" stroke-width="2" stroke-miterlimit="10" stroke-linecap="round" stroke-linejoin="round"/>
<path d="M168.5 171L171.65 168.37C171.9 168.16 172.23 168.22 172.4 168.5L173.6 170.5C173.77 170.78 174.1 170.83 174.35 170.63L177.5 168" stroke="#343A40" stroke-width="2" stroke-miterlimit="10" stroke-linecap="round" stroke-linejoin="round"/>
<path d="M227 182H247" stroke="#343A40" stroke-width="2" stroke-miterlimit="10" stroke-linecap="round" stroke-linejoin="round"/>
<path d="M234.75 164V182H239.25V164C239.25 162.9 238.8 162 237.45 162H236.55C235.2 162 234.75 162.9 234.75 164Z" stroke="#343A40" stroke-width="2" stroke-linecap="round" stroke-linejoin="round"/>
<path d="M228 170V182H232V170C232 168.9 231.6 168 230.4 168H229.6C228.4 168 228 168.9 228 170Z" stroke="#343A40" stroke-width="2" stroke-linecap="round" stroke-linejoin="round"/>
<path d="M242 175V182H246V175C246 173.9 245.6 173 244.4 173H243.6C242.4 173 242 173.9 242 175Z" stroke="#343A40" stroke-width="2" stroke-linecap="round" stroke-linejoin="round"/>
<path d="M299.5 179.9V164.1C299.5 162.6 298.86 162 297.27 162H293.23C291.64 162 291 162.6 291 164.1V179.9C291 181.4 291.64 182 293.23 182H297.27C298.86 182 299.5 181.4 299.5 179.9Z" stroke="#343A40" stroke-width="2" stroke-linecap="round" stroke-linejoin="round"/>
<path d="M311 168.52V163.98C311 162.57 310.36 162 308.77 162H304.73C303.14 162 302.5 162.57 302.5 163.98V168.51C302.5 169.93 303.14 170.49 304.73 170.49H308.77C310.36 170.5 311 169.93 311 168.52Z" stroke="#343A40" stroke-width="2" stroke-linecap="round" stroke-linejoin="round"/>
<path d="M311 179.77V175.73C311 174.14 310.36 173.5 308.77 173.5H304.73C303.14 173.5 302.5 174.14 302.5 175.73V179.77C302.5 181.36 303.14 182 304.73 182H308.77C310.36 182 311 181.36 311 179.77Z" stroke="#343A40" stroke-width="2" stroke-linecap="round" stroke-linejoin="round"/>
<path d="M365 174C366.105 174 367 173.105 367 172C367 170.895 366.105 170 365 170C363.895 170 363 170.895 363 172C363 173.105 363.895 174 365 174Z" stroke="#343A40" stroke-width="2" stroke-linecap="round" stroke-linejoin="round"/>
<path d="M373 178C374.26 176.33 375 174.25 375 172C375 169.75 374.26 167.67 373 166" stroke="#343A40" stroke-width="2" stroke-linecap="round" stroke-linejoin="round"/>
<path d="M357 166C355.74 167.67 355 169.75 355 172C355 174.25 355.74 176.33 357 178" stroke="#343A40" stroke-width="2" stroke-linecap="round" stroke-linejoin="round"/>
<path d="M369.797 175.6C370.547 174.6 370.997 173.35 370.997 172C370.997 170.65 370.547 169.4 369.797 168.4" stroke="#343A40" stroke-width="2" stroke-linecap="round" stroke-linejoin="round"/>
<path d="M360.2 168.4C359.45 169.4 359 170.65 359 172C359 173.35 359.45 174.6 360.2 175.6" stroke="#343A40" stroke-width="2" stroke-linecap="round" stroke-linejoin="round"/>
<path d="M434.223 162H425.963C425.563 162 425.183 162.14 424.873 162.38L422.683 164.13C421.803 164.83 421.803 166.16 422.683 166.86L424.873 168.61C425.183 168.86 425.573 168.99 425.963 168.99H434.223C435.193 168.99 435.973 168.21 435.973 167.24V163.74C435.973 162.78 435.193 162 434.223 162Z" stroke="#343A40" stroke-width="2" stroke-linecap="round" stroke-linejoin="round"/>
<path d="M423.797 172H432.057C432.457 172 432.837 172.14 433.147 172.38L435.337 174.13C436.217 174.83 436.217 176.16 435.337 176.86L433.147 178.61C432.837 178.86 432.447 178.99 432.057 178.99H423.797C422.827 178.99 422.047 178.21 422.047 177.24V173.74C422.047 172.78 422.827 172 423.797 172Z" stroke="#343A40" stroke-width="2" stroke-linecap="round" stroke-linejoin="round"/>
<path d="M429 172V169" stroke="#343A40" stroke-width="2" stroke-linecap="round" stroke-linejoin="round"/>
<path d="M429 182V179" stroke="#343A40" stroke-width="2" stroke-linecap="round" stroke-linejoin="round"/>
<path d="M426 182H432" stroke="#343A40" stroke-width="2" stroke-linecap="round" stroke-linejoin="round"/>
<path d="M40 236C36 236 36 237.79 36 240V241C36 243.76 36 246 41 246H49C53 246 54 243.76 54 241V240C54 237.79 54 236 50 236C49 236 48.72 236.21 48.2 236.6L47.18 237.68C46 238.94 44 238.94 42.81 237.68L41.8 236.6C41.28 236.21 41 236 40 236Z" stroke="#343A40" stroke-width="2" stroke-miterlimit="10" stroke-linecap="round" stroke-linejoin="round"/>
<path d="M52 236V230C52 227.79 52 226 48 226H42C38 226 38 227.79 38 230V236" stroke="#343A40" stroke-width="2" stroke-miterlimit="10" stroke-linecap="round" stroke-linejoin="round"/>
<path d="M43.5469 233.23H46.8769" stroke="#343A40" stroke-width="2" stroke-linecap="round" stroke-linejoin="round"/>
<path d="M42.7188 230.23H47.7188" stroke="#343A40" stroke-width="2" stroke-linecap="round" stroke-linejoin="round"/>
<path d="M106 246H112C117 246 119 244 119 239V233C119 228 117 226 112 226H106C101 226 99 228 99 233V239C99 244 101 246 106 246Z" stroke="#343A40" stroke-width="2" stroke-linecap="round" stroke-linejoin="round"/>
<path d="M99 237H102.76C103.52 237 104.21 237.43 104.55 238.11L105.44 239.9C106 241 107 241 107.24 241H110.77C111.53 241 112.22 240.57 112.56 239.89L113.45 238.1C113.79 237.42 114.48 236.99 115.24 236.99H118.98" stroke="#343A40" stroke-width="2" stroke-linecap="round" stroke-linejoin="round"/>
<path d="M173.89 229.881H166.11C164.4 229.881 163 231.281 163 232.991V244.351C163 245.801 164.04 246.421 165.31 245.711L169.24 243.521C169.66 243.291 170.34 243.291 170.75 243.521L174.68 245.711C175.95 246.421 176.99 245.801 176.99 244.351V232.991C177 231.281 175.6 229.881 173.89 229.881Z" stroke="#343A40" stroke-width="2" stroke-linecap="round" stroke-linejoin="round"/>
<path d="M177 232.991V244.351C177 245.801 175.96 246.411 174.69 245.711L170.76 243.521C170.34 243.291 169.66 243.291 169.24 243.521L165.31 245.711C164.04 246.411 163 245.801 163 244.351V232.991C163 231.281 164.4 229.881 166.11 229.881H173.89C175.6 229.881 177 231.281 177 232.991Z" stroke="#343A40" stroke-width="2" stroke-linecap="round" stroke-linejoin="round"/>
<path d="M183 229.11V240.47C183 241.92 181.96 242.53 180.69 241.83L177 239.77V232.99C177 231.28 175.6 229.88 173.89 229.88H169V229.11C169 227.4 170.4 226 172.11 226H179.89C181.6 226 183 227.4 183 229.11Z" stroke="#343A40" stroke-width="2" stroke-linecap="round" stroke-linejoin="round"/>
<path d="M233.5 243H233C229 243 227 242 227 237V232C227 228 229 226 233 226H241C245 226 247 228 247 232V237C247 241 245 243 241 243H240.5C240.19 243 239.89 243.15 239.7 243.4L238.2 245.4C237.54 246.28 236.46 246.28 235.8 245.4L234.3 243.4C234.14 243.18 233.77 243 233.5 243Z" stroke="#343A40" stroke-width="2" stroke-miterlimit="10" stroke-linecap="round" stroke-linejoin="round"/>
<path d="M232 232H242" stroke="#343A40" stroke-width="2" stroke-linecap="round" stroke-linejoin="round"/>
<path d="M232 237H238" stroke="#343A40" stroke-width="2" stroke-linecap="round" stroke-linejoin="round"/>
<path d="M293.17 239.3L297.7 243.83C299.56 245.69 302.58 245.69 304.45 243.83L308.84 239.44C310.7 237.58 310.7 234.56 308.84 232.69L304.3 228.17C303.35 227.22 302.04 226.71 300.7 226.78L295.7 227.02C293.7 227.11 292.11 228.7 292.01 230.69L291.77 235.69C291.71 237.04 292.22 238.35 293.17 239.3Z" stroke="#343A40" stroke-width="2" stroke-linecap="round" stroke-linejoin="round"/>
<path d="M298.5 236C299.881 236 301 234.881 301 233.5C301 232.119 299.881 231 298.5 231C297.119 231 296 232.119 296 233.5C296 234.881 297.119 236 298.5 236Z" stroke="#343A40" stroke-width="2" stroke-linecap="round"/>
<path d="M365.92 226.26L372.43 229.77C373.19 230.18 373.19 231.35 372.43 231.76L365.92 235.27C365.34 235.58 364.66 235.58 364.08 235.27L357.57 231.76C356.81 231.35 356.81 230.18 357.57 229.77L364.08 226.26C364.66 225.95 365.34 225.95 365.92 226.26Z" stroke="#343A40" stroke-width="2" stroke-linecap="round" stroke-linejoin="round"/>
<path d="M356.61 234.13L362.66 237.16C363.41 237.54 363.89 238.31 363.89 239.15V244.87C363.89 245.7 363.02 246.23 362.28 245.86L356.23 242.83C355.48 242.45 355 241.68 355 240.84V235.12C355 234.29 355.87 233.76 356.61 234.13Z" stroke="#343A40" stroke-width="2" stroke-linecap="round" stroke-linejoin="round"/>
<path d="M373.389 234.13L367.339 237.16C366.589 237.54 366.109 238.31 366.109 239.15V244.87C366.109 245.7 366.979 246.23 367.719 245.86L373.769 242.83C374.519 242.45 374.999 241.68 374.999 240.84V235.12C374.999 234.29 374.129 233.76 373.389 234.13Z" stroke="#343A40" stroke-width="2" stroke-linecap="round" stroke-linejoin="round"/>
<path d="M424.4 230.32L432.89 227.49C436.7 226.22 438.77 228.3 437.51 232.11L434.68 240.6C432.78 246.31 429.66 246.31 427.76 240.6L426.92 238.08L424.4 237.24C418.69 235.34 418.69 232.23 424.4 230.32Z" stroke="#343A40" stroke-width="2" stroke-linecap="round" stroke-linejoin="round"/>
<path d="M427.109 237.651L430.689 234.061" stroke="#343A40" stroke-width="2" stroke-linecap="round" stroke-linejoin="round"/>
<rect x="486" width="474" height="280" rx="16" fill="#FAFAFA"/>
<rect x="486.5" y="0.5" width="473" height="279" rx="15.5" stroke="black" stroke-opacity="0.06"/>
<rect x="506.18" y="19" width="49.0909" height="49.0909" rx="16.3636" fill="#E9F1FE"/>
<path d="M525.087 44.7681H528.037V51.6408C528.037 53.2445 528.906 53.569 529.965 52.3663L537.191 44.1572C538.079 43.1549 537.707 42.3245 536.361 42.3245H533.411V35.4517C533.411 33.8481 532.542 33.5236 531.483 34.7263L524.257 42.9354C523.379 43.9472 523.751 44.7681 525.087 44.7681Z" stroke="#2772F0" stroke-width="2.04545" stroke-miterlimit="10" stroke-linecap="round" stroke-linejoin="round"/>
<rect x="570.273" y="19" width="49.0909" height="49.0909" rx="16.3636" fill="#F4F3FD"/>
<path d="M603.416 38.7747V48.3201C603.416 51.1838 601.984 53.0929 598.643 53.0929H591.007C587.666 53.0929 586.234 51.1838 586.234 48.3201V38.7747C586.234 35.911 587.666 34.002 591.007 34.002H598.643C601.984 34.002 603.416 35.911 603.416 38.7747Z" stroke="#6E62E4" stroke-width="2.04545" stroke-miterlimit="10" stroke-linecap="round" stroke-linejoin="round"/>
<path d="M598.166 34.002V41.5047C598.166 41.9247 597.67 42.1347 597.364 41.8578L595.15 39.8152C594.968 39.6433 594.682 39.6433 594.501 39.8152L592.286 41.8578C591.981 42.1347 591.484 41.9247 591.484 41.5047V34.002H598.166Z" stroke="#6E62E4" stroke-width="2.04545" stroke-miterlimit="10" stroke-linecap="round" stroke-linejoin="round"/>
<path d="M596.016 45.457H600.072" stroke="#6E62E4" stroke-width="2.04545" stroke-miterlimit="10" stroke-linecap="round" stroke-linejoin="round"/>
<path d="M591.961 49.2754H600.075" stroke="#6E62E4" stroke-width="2.04545" stroke-miterlimit="10" stroke-linecap="round" stroke-linejoin="round"/>
<rect x="634.367" y="19" width="49.0909" height="49.0909" rx="16.3636" fill="#E6F6F3"/>
<path d="M658.906 47.3633V50.2269" stroke="#03C09E" stroke-width="2.04545" stroke-miterlimit="10" stroke-linecap="round" stroke-linejoin="round"/>
<path d="M658.909 54.0447C659.963 54.0447 660.818 53.19 660.818 52.1357C660.818 51.0813 659.963 50.2266 658.909 50.2266C657.855 50.2266 657 51.0813 657 52.1357C657 53.19 657.855 54.0447 658.909 54.0447Z" stroke="#03C09E" stroke-width="2.04545" stroke-miterlimit="10" stroke-linecap="round" stroke-linejoin="round"/>
<path d="M664.638 52.1348H660.82" stroke="#03C09E" stroke-width="2.04545" stroke-miterlimit="10" stroke-linecap="round" stroke-linejoin="round"/>
<path d="M656.998 52.1348H653.18" stroke="#03C09E" stroke-width="2.04545" stroke-miterlimit="10" stroke-linecap="round" stroke-linejoin="round"/>
<path d="M667.432 40.0137V44.0227C667.432 46.6955 666.58 47.3636 663.173 47.3636H654.657C651.25 47.3636 650.398 46.6955 650.398 44.0227V37.3409C650.398 34.6682 651.25 34 654.657 34H655.934C657.212 34 657.491 34.2959 657.978 34.8018L659.256 36.1382C659.584 36.4723 659.767 36.6728 660.618 36.6728H663.173C666.58 36.6728 667.432 37.341 667.432 40.0137Z" stroke="#03C09E" stroke-width="2.04545" stroke-miterlimit="10"/>
<rect x="698.453" y="19" width="49.0909" height="49.0909" rx="16.3636" fill="#FFF0EB"/>
<path d="M717.691 34H728.296C731.694 34 732.544 34.8495 732.544 38.2382V44.2805C732.544 47.6786 731.694 48.5186 728.306 48.5186H717.691C714.303 48.5282 713.453 47.6786 713.453 44.29V38.2382C713.453 34.8495 714.303 34 717.691 34Z" stroke="#FF614F" stroke-width="2.04545" stroke-linecap="round" stroke-linejoin="round"/>
<path d="M723 48.5293V53.092" stroke="#FF614F" stroke-width="2.04545" stroke-linecap="round" stroke-linejoin="round"/>
<path d="M713.453 44.5H732.544" stroke="#FF614F" stroke-width="2.04545" stroke-linecap="round" stroke-linejoin="round"/>
<path d="M718.703 53.0918H727.294" stroke="#FF614F" stroke-width="2.04545" stroke-linecap="round" stroke-linejoin="round"/>
<rect x="762.547" y="19" width="49.0909" height="49.0909" rx="16.3636" fill="#FFF9EA"/>
<path d="M782.32 39.7273H779.456C778.406 39.7273 777.547 38.8682 777.547 37.8182V35.9091C777.547 34.8591 778.406 34 779.456 34H782.32C783.37 34 784.229 34.8591 784.229 35.9091V37.8182C784.229 38.8682 783.37 39.7273 782.32 39.7273Z" stroke="#F8A618" stroke-width="2.04545" stroke-linecap="round" stroke-linejoin="round"/>
<path d="M795.496 38.7733H792.06C791.43 38.7733 790.914 38.2578 790.914 37.6278V36.1005C790.914 35.4705 791.43 34.9551 792.06 34.9551H795.496C796.126 34.9551 796.641 35.4705 796.641 36.1005V37.6278C796.641 38.2578 796.126 38.7733 795.496 38.7733Z" stroke="#F8A618" stroke-width="2.04545" stroke-linecap="round" stroke-linejoin="round"/>
<path d="M795.496 45.9334H792.06C791.43 45.9334 790.914 45.4179 790.914 44.7879V43.2607C790.914 42.6307 791.43 42.1152 792.06 42.1152H795.496C796.126 42.1152 796.641 42.6307 796.641 43.2607V44.7879C796.641 45.4179 796.126 45.9334 795.496 45.9334Z" stroke="#F8A618" stroke-width="2.04545" stroke-linecap="round" stroke-linejoin="round"/>
<path d="M784.234 36.8652H790.916" stroke="#F8A618" stroke-width="2.04545" stroke-miterlimit="10" stroke-linecap="round" stroke-linejoin="round"/>
<path d="M787.57 36.8652V49.2743C787.57 50.3243 788.429 51.1834 789.479 51.1834H790.911" stroke="#F8A618" stroke-width="2.04545" stroke-miterlimit="10" stroke-linecap="round" stroke-linejoin="round"/>
<path d="M787.57 44.0234H790.911" stroke="#F8A618" stroke-width="2.04545" stroke-miterlimit="10" stroke-linecap="round" stroke-linejoin="round"/>
<path d="M795.496 53.0916H792.06C791.43 53.0916 790.914 52.5762 790.914 51.9462V50.4189C790.914 49.7889 791.43 49.2734 792.06 49.2734H795.496C796.126 49.2734 796.641 49.7889 796.641 50.4189V51.9462C796.641 52.5762 796.126 53.0916 795.496 53.0916Z" stroke="#F8A618" stroke-width="2.04545" stroke-linecap="round" stroke-linejoin="round"/>
<rect x="826.633" y="19" width="49.0909" height="49.0909" rx="16.3636" fill="#F6EFE6"/>
<path d="M860.724 36.5491V48.0705C860.724 48.9869 859.979 49.846 859.063 49.9605L858.748 49.9987C856.667 50.2755 853.46 51.335 851.627 52.3469C851.379 52.49 850.968 52.49 850.711 52.3469L850.672 52.3278C848.84 51.3255 845.642 50.2755 843.571 49.9987L843.294 49.9605C842.377 49.846 841.633 48.9869 841.633 48.0705V36.5396C841.633 35.4037 842.559 34.5446 843.695 34.6401C845.699 34.8023 848.735 35.8142 850.434 36.8737L850.672 37.0169C850.949 37.1887 851.407 37.1887 851.684 37.0169L851.846 36.9119C852.448 36.5396 853.211 36.1673 854.042 35.8332V39.7278L855.951 38.4582L857.86 39.7278V34.7451C858.118 34.6974 858.366 34.6687 858.595 34.6496H858.652C859.788 34.5542 860.724 35.4037 860.724 36.5491Z" stroke="#B7720B" stroke-width="2.04545" stroke-linecap="round" stroke-linejoin="round"/>
<path d="M851.18 37.332V51.6502" stroke="#B7720B" stroke-width="2.04545" stroke-linecap="round" stroke-linejoin="round"/>
<path d="M857.865 34.7461V39.7288L855.956 38.4592L854.047 39.7288V35.8342C855.297 35.3379 856.691 34.937 857.865 34.7461Z" stroke="#B7720B" stroke-width="2.04545" stroke-linecap="round" stroke-linejoin="round"/>
<rect x="890.727" y="19" width="49.0909" height="49.0909" rx="16.3636" fill="#F1F3F5"/>
<path d="M914.325 34H912.416C907.643 34 905.734 35.9091 905.734 40.6818V46.4091C905.734 51.1818 907.643 53.0909 912.416 53.0909H918.143C922.916 53.0909 924.825 51.1818 924.825 46.4091V44.5" stroke="#7883A0" stroke-width="2.04545" stroke-linecap="round" stroke-linejoin="round"/>
<path d="M919.137 34.9752L911.615 42.497C911.329 42.7833 911.043 43.3465 910.985 43.757L910.575 46.6302C910.422 47.6706 911.157 48.3961 912.198 48.2529L915.071 47.8424C915.472 47.7852 916.035 47.4988 916.331 47.2124L923.853 39.6906C925.151 38.3924 925.762 36.8843 923.853 34.9752C921.943 33.0661 920.435 33.677 919.137 34.9752Z" stroke="#7883A0" stroke-width="2.04545" stroke-miterlimit="10" stroke-linecap="round" stroke-linejoin="round"/>
<path d="M918.055 36.0527C918.694 38.3341 920.479 40.1191 922.77 40.7682" stroke="#7883A0" stroke-width="2.04545" stroke-miterlimit="10" stroke-linecap="round" stroke-linejoin="round"/>
<rect x="506.18" y="83.0918" width="49.0909" height="49.0909" rx="16.3636" fill="#D8F8FF"/>
<path d="M528.439 115.275H533.021C536.839 115.275 538.366 113.747 538.366 109.929V105.347C538.366 101.529 536.839 100.002 533.021 100.002H528.439C524.621 100.002 523.094 101.529 523.094 105.347V109.929C523.094 113.747 524.621 115.275 528.439 115.275Z" stroke="#04C0E9" stroke-width="2.04545" stroke-linecap="round" stroke-linejoin="round"/>
<path d="M529.294 112.411H532.158C534.544 112.411 535.499 111.456 535.499 109.07V106.206C535.499 103.82 534.544 102.865 532.158 102.865H529.294C526.908 102.865 525.953 103.82 525.953 106.206V109.07C525.953 111.456 526.908 112.411 529.294 112.411Z" stroke="#04C0E9" stroke-width="2.04545" stroke-linecap="round" stroke-linejoin="round"/>
<path d="M526.922 100.001V98.0918" stroke="#04C0E9" stroke-width="2.04545" stroke-linecap="round" stroke-linejoin="round"/>
<path d="M530.727 100.001V98.0918" stroke="#04C0E9" stroke-width="2.04545" stroke-linecap="round" stroke-linejoin="round"/>
<path d="M534.547 100.001V98.0918" stroke="#04C0E9" stroke-width="2.04545" stroke-linecap="round" stroke-linejoin="round"/>
<path d="M538.367 103.82H540.276" stroke="#04C0E9" stroke-width="2.04545" stroke-linecap="round" stroke-linejoin="round"/>
<path d="M538.367 107.639H540.276" stroke="#04C0E9" stroke-width="2.04545" stroke-linecap="round" stroke-linejoin="round"/>
<path d="M538.367 111.457H540.276" stroke="#04C0E9" stroke-width="2.04545" stroke-linecap="round" stroke-linejoin="round"/>
<path d="M534.547 115.275V117.184" stroke="#04C0E9" stroke-width="2.04545" stroke-linecap="round" stroke-linejoin="round"/>
<path d="M530.734 115.275V117.184" stroke="#04C0E9" stroke-width="2.04545" stroke-linecap="round" stroke-linejoin="round"/>
<path d="M526.922 115.275V117.184" stroke="#04C0E9" stroke-width="2.04545" stroke-linecap="round" stroke-linejoin="round"/>
<path d="M521.18 103.82H523.089" stroke="#04C0E9" stroke-width="2.04545" stroke-linecap="round" stroke-linejoin="round"/>
<path d="M521.18 107.639H523.089" stroke="#04C0E9" stroke-width="2.04545" stroke-linecap="round" stroke-linejoin="round"/>
<path d="M521.18 111.457H523.089" stroke="#04C0E9" stroke-width="2.04545" stroke-linecap="round" stroke-linejoin="round"/>
<rect x="570.273" y="83.0918" width="49.0909" height="49.0909" rx="16.3636" fill="#FFEAFD"/>
<path d="M591.955 117.183H597.683C602.455 117.183 604.364 115.274 604.364 110.501V104.774C604.364 100.001 602.455 98.0918 597.683 98.0918H591.955C587.183 98.0918 585.273 100.001 585.273 104.774V110.501C585.273 115.274 587.183 117.183 591.955 117.183Z" stroke="#E603CF" stroke-width="2.04545" stroke-linecap="round" stroke-linejoin="round"/>
<path d="M598.227 113.842V110.119" stroke="#E603CF" stroke-width="2.04545" stroke-miterlimit="10" stroke-linecap="round" stroke-linejoin="round"/>
<path d="M598.227 103.295V101.434" stroke="#E603CF" stroke-width="2.04545" stroke-miterlimit="10" stroke-linecap="round" stroke-linejoin="round"/>
<path d="M598.232 108.259C599.602 108.259 600.714 107.147 600.714 105.777C600.714 104.406 599.602 103.295 598.232 103.295C596.861 103.295 595.75 104.406 595.75 105.777C595.75 107.147 596.861 108.259 598.232 108.259Z" stroke="#E603CF" stroke-width="2.04545" stroke-miterlimit="10" stroke-linecap="round" stroke-linejoin="round"/>
<path d="M591.414 113.842V111.98" stroke="#E603CF" stroke-width="2.04545" stroke-miterlimit="10" stroke-linecap="round" stroke-linejoin="round"/>
<path d="M591.414 105.156V101.434" stroke="#E603CF" stroke-width="2.04545" stroke-miterlimit="10" stroke-linecap="round" stroke-linejoin="round"/>
<path d="M591.412 111.981C592.782 111.981 593.893 110.87 593.893 109.499C593.893 108.129 592.782 107.018 591.412 107.018C590.041 107.018 588.93 108.129 588.93 109.499C588.93 110.87 590.041 111.981 591.412 111.981Z" stroke="#E603CF" stroke-width="2.04545" stroke-miterlimit="10" stroke-linecap="round" stroke-linejoin="round"/>
<rect x="634.367" y="83.0918" width="49.0909" height="49.0909" rx="16.3636" fill="#E2FFDD"/>
<path d="M649.375 104.776V102.389C649.375 100.012 651.294 98.0938 653.67 98.0938H656.057" stroke="#12C003" stroke-width="2.04545" stroke-linecap="round" stroke-linejoin="round"/>
<path d="M661.781 98.0938H664.168C666.544 98.0938 668.463 100.012 668.463 102.389V104.776" stroke="#12C003" stroke-width="2.04545" stroke-linecap="round" stroke-linejoin="round"/>
<path d="M668.462 111.457V112.889C668.462 115.266 666.543 117.184 664.166 117.184H662.734" stroke="#12C003" stroke-width="2.04545" stroke-linecap="round" stroke-linejoin="round"/>
<path d="M656.057 117.184H653.67C651.294 117.184 649.375 115.265 649.375 112.888V110.502" stroke="#12C003" stroke-width="2.04545" stroke-linecap="round" stroke-linejoin="round"/>
<path d="M657.484 102.865V104.775C657.484 105.729 657.006 106.206 656.052 106.206H654.143C653.188 106.206 652.711 105.729 652.711 104.775V102.865C652.711 101.911 653.188 101.434 654.143 101.434H656.052C657.006 101.434 657.484 101.911 657.484 102.865Z" stroke="#12C003" stroke-width="2.04545" stroke-linecap="round" stroke-linejoin="round"/>
<path d="M665.124 102.865V104.775C665.124 105.729 664.647 106.206 663.692 106.206H661.783C660.829 106.206 660.352 105.729 660.352 104.775V102.865C660.352 101.911 660.829 101.434 661.783 101.434H663.692C664.647 101.434 665.124 101.911 665.124 102.865Z" stroke="#12C003" stroke-width="2.04545" stroke-linecap="round" stroke-linejoin="round"/>
<path d="M657.484 110.502V112.411C657.484 113.366 657.006 113.843 656.052 113.843H654.143C653.188 113.843 652.711 113.366 652.711 112.411V110.502C652.711 109.548 653.188 109.07 654.143 109.07H656.052C657.006 109.07 657.484 109.548 657.484 110.502Z" stroke="#12C003" stroke-width="2.04545" stroke-linecap="round" stroke-linejoin="round"/>
<path d="M665.124 110.502V112.411C665.124 113.366 664.647 113.843 663.692 113.843H661.783C660.829 113.843 660.352 113.366 660.352 112.411V110.502C660.352 109.548 660.829 109.07 661.783 109.07H663.692C664.647 109.07 665.124 109.548 665.124 110.502Z" stroke="#12C003" stroke-width="2.04545" stroke-linecap="round" stroke-linejoin="round"/>
<rect x="698.453" y="83.0918" width="49.0909" height="49.0909" rx="16.3636" fill="#FFE1E1"/>
<path d="M726.822 117.183H720.14C717.276 117.183 715.367 115.274 715.367 112.41V102.865C715.367 100.001 717.276 98.0918 720.14 98.0918H726.822C729.685 98.0918 731.594 100.001 731.594 102.865V112.41C731.594 115.274 729.685 117.183 726.822 117.183Z" stroke="#FF4242" stroke-width="2.04545" stroke-linecap="round" stroke-linejoin="round"/>
<path d="M715.367 110.502H731.594" stroke="#FF4242" stroke-width="2.04545" stroke-linecap="round" stroke-linejoin="round"/>
<path d="M718.227 107.639H719.181" stroke="#FF4242" stroke-width="2.04545" stroke-linecap="round" stroke-linejoin="round"/>
<path d="M718.227 105.252H719.181" stroke="#FF4242" stroke-width="2.04545" stroke-linecap="round" stroke-linejoin="round"/>
<path d="M718.227 102.865H719.181" stroke="#FF4242" stroke-width="2.04545" stroke-linecap="round" stroke-linejoin="round"/>
<path d="M727.292 113.604H727.301" stroke="#FF4242" stroke-width="2.04545" stroke-linecap="round" stroke-linejoin="round"/>
<rect x="762.547" y="83.0918" width="49.0909" height="49.0909" rx="16.3636" fill="#FFEBCE"/>
<path d="M777.547 105.728V109.547C777.547 111.456 778.501 112.41 780.411 112.41H781.776C782.129 112.41 782.482 112.515 782.787 112.697L785.575 114.443C787.98 115.952 789.956 114.854 789.956 112.019V103.256C789.956 100.412 787.98 99.3234 785.575 100.832L782.787 102.578C782.482 102.76 782.129 102.865 781.776 102.865H780.411C778.501 102.865 777.547 103.819 777.547 105.728Z" stroke="#F86918" stroke-width="2.04545"/>
<path d="M792.82 103.82C794.519 106.083 794.519 109.194 792.82 111.457" stroke="#F86918" stroke-width="2.04545" stroke-linecap="round" stroke-linejoin="round"/>
<path d="M794.57 101.434C797.329 105.109 797.329 110.168 794.57 113.843" stroke="#F86918" stroke-width="2.04545" stroke-linecap="round" stroke-linejoin="round"/>
<rect x="826.633" y="83.0918" width="49.0909" height="49.0909" rx="16.3636" fill="#F9E7E2"/>
<path d="M851.181 103.715L850.16 105.49C849.931 105.882 850.122 106.206 850.57 106.206H851.783C852.241 106.206 852.422 106.531 852.193 106.922L851.181 108.698" stroke="#B7340B" stroke-width="2.04545" stroke-linecap="round" stroke-linejoin="round"/>
<path d="M847.648 113.403V112.295C845.453 110.969 843.648 108.382 843.648 105.633C843.648 100.908 847.992 97.2041 852.898 98.2732C855.055 98.7504 856.945 100.182 857.928 102.158C859.923 106.167 857.823 110.425 854.74 112.286V113.393C854.74 113.67 854.845 114.31 853.824 114.31H848.564C847.514 114.319 847.648 113.909 847.648 113.403Z" stroke="#B7340B" stroke-width="2.04545" stroke-linecap="round" stroke-linejoin="round"/>
<path d="M847.844 117.184C850.03 116.564 852.34 116.564 854.526 117.184" stroke="#B7340B" stroke-width="2.04545" stroke-linecap="round" stroke-linejoin="round"/>
<rect x="890.727" y="83.0918" width="49.0909" height="49.0909" rx="16.3636" fill="#EFEFEF"/>
<path d="M905.727 117.184H924.817" stroke="#777777" stroke-width="2.04545" stroke-miterlimit="10" stroke-linecap="round" stroke-linejoin="round"/>
<path d="M920.051 98.0918H910.506C907.642 98.0918 906.688 99.8004 906.688 101.91V117.183H923.869V101.91C923.869 99.8004 922.915 98.0918 920.051 98.0918Z" stroke="#777777" stroke-width="2.04545" stroke-miterlimit="10" stroke-linecap="round" stroke-linejoin="round"/>
<path d="M910.5 111.934H913.364" stroke="#777777" stroke-width="2.04545" stroke-miterlimit="10" stroke-linecap="round" stroke-linejoin="round"/>
<path d="M917.188 111.934H920.051" stroke="#777777" stroke-width="2.04545" stroke-miterlimit="10" stroke-linecap="round" stroke-linejoin="round"/>
<path d="M910.5 107.639H913.364" stroke="#777777" stroke-width="2.04545" stroke-miterlimit="10" stroke-linecap="round" stroke-linejoin="round"/>
<path d="M917.188 107.639H920.051" stroke="#777777" stroke-width="2.04545" stroke-miterlimit="10" stroke-linecap="round" stroke-linejoin="round"/>
<path d="M910.5 103.342H913.364" stroke="#777777" stroke-width="2.04545" stroke-miterlimit="10" stroke-linecap="round" stroke-linejoin="round"/>
<path d="M917.188 103.342H920.051" stroke="#777777" stroke-width="2.04545" stroke-miterlimit="10" stroke-linecap="round" stroke-linejoin="round"/>
<rect x="506.18" y="147.182" width="49.0909" height="49.0909" rx="16.3636" fill="#E2EDFE"/>
<path d="M526.911 181.275H534.548C538.385 181.275 539.072 179.738 539.273 177.867L539.989 170.231C540.246 167.901 539.578 166.002 535.502 166.002H525.957C521.881 166.002 521.213 167.901 521.47 170.231L522.186 177.867C522.387 179.738 523.074 181.275 526.911 181.275Z" stroke="#4A81D9" stroke-width="2.04545" stroke-miterlimit="10" stroke-linecap="round" stroke-linejoin="round"/>
<path d="M526.914 166.002V165.238C526.914 163.549 526.914 162.184 529.969 162.184H531.496C534.55 162.184 534.55 163.549 534.55 165.238V166.002" stroke="#4A81D9" stroke-width="2.04545" stroke-miterlimit="10" stroke-linecap="round" stroke-linejoin="round"/>
<path d="M532.638 172.683V173.638C532.638 173.647 532.638 173.647 532.638 173.657C532.638 174.697 532.629 175.547 530.729 175.547C528.839 175.547 528.82 174.707 528.82 173.666V172.683C528.82 171.729 528.82 171.729 529.775 171.729H531.684C532.638 171.729 532.638 171.729 532.638 172.683Z" stroke="#4A81D9" stroke-width="2.04545" stroke-miterlimit="10" stroke-linecap="round" stroke-linejoin="round"/>
<path d="M539.943 170.773C537.738 172.377 535.218 173.332 532.641 173.656" stroke="#4A81D9" stroke-width="2.04545" stroke-miterlimit="10" stroke-linecap="round" stroke-linejoin="round"/>
<path d="M521.773 171.031C523.921 172.501 526.346 173.389 528.818 173.666" stroke="#4A81D9" stroke-width="2.04545" stroke-miterlimit="10" stroke-linecap="round" stroke-linejoin="round"/>
<rect x="570.273" y="147.182" width="49.0909" height="49.0909" rx="16.3636" fill="#F2DBFF"/>
<path d="M594.941 172.473C594.874 172.463 594.788 172.463 594.712 172.473C593.032 172.416 591.695 171.041 591.695 169.352C591.695 167.624 593.089 166.221 594.826 166.221C596.554 166.221 597.957 167.624 597.957 169.352C597.948 171.041 596.621 172.416 594.941 172.473Z" stroke="#8946DE" stroke-width="2.04545" stroke-linecap="round" stroke-linejoin="round"/>
<path d="M601.258 178.773C599.559 180.329 597.306 181.274 594.824 181.274C592.342 181.274 590.09 180.329 588.391 178.773C588.486 177.876 589.059 176.998 590.08 176.311C592.696 174.573 596.972 174.573 599.568 176.311C600.59 176.998 601.162 177.876 601.258 178.773Z" stroke="#8946DE" stroke-width="2.04545" stroke-linecap="round" stroke-linejoin="round"/>
<path d="M594.827 181.275C600.099 181.275 604.372 177.001 604.372 171.729C604.372 166.457 600.099 162.184 594.827 162.184C589.555 162.184 585.281 166.457 585.281 171.729C585.281 177.001 589.555 181.275 594.827 181.275Z" stroke="#8946DE" stroke-width="2.04545" stroke-linecap="round" stroke-linejoin="round"/>
<rect x="634.367" y="147.182" width="49.0909" height="49.0909" rx="16.3636" fill="#E6FFDF"/>
<path d="M668.458 170.773V176.5C668.458 180.318 667.504 181.273 663.685 181.273H654.14C650.322 181.273 649.367 180.318 649.367 176.5V166.954C649.367 163.136 650.322 162.182 654.14 162.182H655.572C657.004 162.182 657.319 162.602 657.863 163.327L659.294 165.236C659.657 165.713 659.867 166 660.822 166H663.685C667.504 166 668.458 166.954 668.458 170.773Z" stroke="#008836" stroke-width="2.04545" stroke-miterlimit="10"/>
<rect x="698.453" y="147.182" width="49.0909" height="49.0909" rx="16.3636" fill="#FFE4E9"/>
<path d="M720.135 181.273H725.862C730.635 181.273 732.544 179.363 732.544 174.591V168.863C732.544 164.091 730.635 162.182 725.862 162.182H720.135C715.362 162.182 713.453 164.091 713.453 168.863V174.591C713.453 179.363 715.362 181.273 720.135 181.273Z" stroke="#DA5870" stroke-width="2.04545" stroke-linecap="round" stroke-linejoin="round"/>
<path d="M720.136 169.818C721.19 169.818 722.045 168.963 722.045 167.909C722.045 166.855 721.19 166 720.136 166C719.081 166 718.227 166.855 718.227 167.909C718.227 168.963 719.081 169.818 720.136 169.818Z" stroke="#DA5870" stroke-width="2.04545" stroke-linecap="round" stroke-linejoin="round"/>
<path d="M714.094 178.363L718.8 175.203C719.554 174.698 720.642 174.755 721.32 175.337L721.635 175.614C722.379 176.253 723.582 176.253 724.326 175.614L728.297 172.206C729.042 171.567 730.245 171.567 730.989 172.206L732.545 173.543" stroke="#DA5870" stroke-width="2.04545" stroke-linecap="round" stroke-linejoin="round"/>
<rect x="762.547" y="147.182" width="49.0909" height="49.0909" rx="16.3636" fill="#FEEEE0"/>
<path d="M796.643 176.979H789.961" stroke="#EE8422" stroke-width="2.04545" stroke-miterlimit="10" stroke-linecap="round" stroke-linejoin="round"/>
<path d="M780.411 176.979H777.547" stroke="#EE8422" stroke-width="2.04545" stroke-miterlimit="10" stroke-linecap="round" stroke-linejoin="round"/>
<path d="M796.637 166.479H793.773" stroke="#EE8422" stroke-width="2.04545" stroke-miterlimit="10" stroke-linecap="round" stroke-linejoin="round"/>
<path d="M784.229 166.479H777.547" stroke="#EE8422" stroke-width="2.04545" stroke-miterlimit="10" stroke-linecap="round" stroke-linejoin="round"/>
<path d="M782.323 174.115H788.05C789.1 174.115 789.96 174.593 789.96 176.024V177.933C789.96 179.365 789.1 179.843 788.05 179.843H782.323C781.273 179.843 780.414 179.365 780.414 177.933V176.024C780.414 174.593 781.273 174.115 782.323 174.115Z" stroke="#EE8422" stroke-width="2.04545" stroke-miterlimit="10" stroke-linecap="round" stroke-linejoin="round"/>
<path d="M786.143 163.615H791.871C792.921 163.615 793.78 164.093 793.78 165.524V167.433C793.78 168.865 792.921 169.343 791.871 169.343H786.143C785.093 169.343 784.234 168.865 784.234 167.433V165.524C784.234 164.093 785.093 163.615 786.143 163.615Z" stroke="#EE8422" stroke-width="2.04545" stroke-miterlimit="10" stroke-linecap="round" stroke-linejoin="round"/>
<rect x="826.633" y="147.182" width="49.0909" height="49.0909" rx="16.3636" fill="#F4E7D9"/>
<path d="M853.216 171.099C853.588 169.533 852.223 168.168 850.658 168.54C849.923 168.722 849.321 169.323 849.14 170.058C848.768 171.624 850.133 172.989 851.698 172.616C852.443 172.435 853.044 171.834 853.216 171.099Z" stroke="#8A6C4D" stroke-width="2.04545" stroke-linecap="round" stroke-linejoin="round"/>
<path d="M856.924 176.683C858.556 175.156 859.578 172.989 859.578 170.574C859.578 165.935 855.817 162.184 851.187 162.184C846.558 162.184 842.797 165.944 842.797 170.574C842.797 172.999 843.828 175.184 845.479 176.712" stroke="#8A6C4D" stroke-width="2.04545" stroke-linecap="round" stroke-linejoin="round"/>
<path d="M847.368 174.164C846.489 173.228 845.945 171.968 845.945 170.574C845.945 167.682 848.293 165.334 851.186 165.334C854.078 165.334 856.426 167.682 856.426 170.574C856.426 171.968 855.882 173.219 855.004 174.164" stroke="#8A6C4D" stroke-width="2.04545" stroke-linecap="round" stroke-linejoin="round"/>
<path d="M849.561 176.177L848.186 177.885C847.098 179.25 848.062 181.265 849.809 181.265H852.549C854.296 181.265 855.269 179.241 854.171 177.885L852.797 176.177C851.976 175.136 850.391 175.136 849.561 176.177Z" stroke="#8A6C4D" stroke-width="2.04545" stroke-linecap="round" stroke-linejoin="round"/>
<rect x="890.727" y="147.182" width="49.0909" height="49.0909" rx="16.3636" fill="#E9ECEF"/>
<path d="M924.821 166V168.31C924.821 169.818 923.866 170.773 922.358 170.773H919.094V164.1C919.094 163.041 919.962 162.182 921.022 162.182C922.062 162.191 923.017 162.611 923.704 163.298C924.391 163.995 924.821 164.95 924.821 166Z" stroke="#495057" stroke-width="2.04545" stroke-miterlimit="10" stroke-linecap="round" stroke-linejoin="round"/>
<path d="M905.727 166.954V180.318C905.727 181.11 906.624 181.559 907.254 181.082L908.886 179.86C909.268 179.573 909.802 179.612 910.146 179.955L911.731 181.549C912.103 181.922 912.714 181.922 913.086 181.549L914.69 179.946C915.024 179.612 915.558 179.573 915.931 179.86L917.563 181.082C918.193 181.549 919.09 181.101 919.09 180.318V164.091C919.09 163.041 919.949 162.182 920.999 162.182H910.499H909.545C906.681 162.182 905.727 163.89 905.727 166V166.954Z" stroke="#495057" stroke-width="2.04545" stroke-miterlimit="10" stroke-linecap="round" stroke-linejoin="round"/>
<path d="M912.414 172.691H915.278" stroke="#495057" stroke-width="2.04545" stroke-linecap="round" stroke-linejoin="round"/>
<path d="M912.414 168.873H915.278" stroke="#495057" stroke-width="2.04545" stroke-linecap="round" stroke-linejoin="round"/>
<path d="M909.547 172.682H909.555" stroke="#495057" stroke-width="2.04545" stroke-linecap="round" stroke-linejoin="round"/>
<path d="M909.547 168.865H909.555" stroke="#495057" stroke-width="2.04545" stroke-linecap="round" stroke-linejoin="round"/>
<rect x="506.18" y="211.273" width="49.0909" height="49.0909" rx="16.3636" fill="#D8F7FC"/>
<path d="M528.922 235.01H526.393C525.791 235.01 525.305 235.497 525.305 236.098V240.985H528.922V235.01V235.01Z" stroke="#19B4CD" stroke-width="2.04545" stroke-miterlimit="10" stroke-linecap="round" stroke-linejoin="round"/>
<path d="M531.453 230.666H530.002C529.401 230.666 528.914 231.153 528.914 231.754V240.975H532.532V231.754C532.532 231.153 532.055 230.666 531.453 230.666Z" stroke="#19B4CD" stroke-width="2.04545" stroke-miterlimit="10" stroke-linecap="round" stroke-linejoin="round"/>
<path d="M535.069 236.633H532.539V240.976H536.157V237.721C536.147 237.12 535.66 236.633 535.069 236.633Z" stroke="#19B4CD" stroke-width="2.04545" stroke-miterlimit="10" stroke-linecap="round" stroke-linejoin="round"/>
<path d="M527.862 245.364H533.589C538.362 245.364 540.271 243.455 540.271 238.683V232.955C540.271 228.183 538.362 226.273 533.589 226.273H527.862C523.089 226.273 521.18 228.183 521.18 232.955V238.683C521.18 243.455 523.089 245.364 527.862 245.364Z" stroke="#19B4CD" stroke-width="2.04545" stroke-linecap="round" stroke-linejoin="round"/>
<rect x="570.273" y="211.273" width="49.0909" height="49.0909" rx="16.3636" fill="#FEE5F7"/>
<path d="M592.916 245.366H596.734C601.507 245.366 603.416 243.457 603.416 238.684V232.957C603.416 228.184 601.507 226.275 596.734 226.275H592.916C588.143 226.275 586.234 228.184 586.234 232.957V238.684C586.234 243.457 588.143 245.366 592.916 245.366Z" stroke="#C44B7E" stroke-width="2.04545" stroke-linecap="round" stroke-linejoin="round"/>
<path d="M599.122 231.602V232.556C599.122 233.339 598.483 233.988 597.69 233.988H591.963C591.18 233.988 590.531 233.349 590.531 232.556V231.602C590.531 230.819 591.171 230.17 591.963 230.17H597.69C598.483 230.17 599.122 230.809 599.122 231.602Z" stroke="#C44B7E" stroke-width="2.04545" stroke-linecap="round" stroke-linejoin="round"/>
<path d="M591.138 237.729H591.149" stroke="#C44B7E" stroke-width="2.04545" stroke-linecap="round" stroke-linejoin="round"/>
<path d="M594.818 237.729H594.829" stroke="#C44B7E" stroke-width="2.04545" stroke-linecap="round" stroke-linejoin="round"/>
<path d="M598.506 237.729H598.517" stroke="#C44B7E" stroke-width="2.04545" stroke-linecap="round" stroke-linejoin="round"/>
<path d="M591.138 241.071H591.149" stroke="#C44B7E" stroke-width="2.04545" stroke-linecap="round" stroke-linejoin="round"/>
<path d="M594.818 241.071H594.829" stroke="#C44B7E" stroke-width="2.04545" stroke-linecap="round" stroke-linejoin="round"/>
<path d="M598.506 241.071H598.517" stroke="#C44B7E" stroke-width="2.04545" stroke-linecap="round" stroke-linejoin="round"/>
<rect x="634.367" y="211.273" width="49.0909" height="49.0909" rx="16.3636" fill="#D6FFF1"/>
<path d="M668.141 234.332L667.205 238.322C666.404 241.768 664.819 243.161 661.841 242.875C661.364 242.837 660.848 242.751 660.294 242.617L658.691 242.235C654.71 241.29 653.479 239.324 654.414 235.334L655.35 231.334C655.541 230.523 655.77 229.817 656.056 229.234C657.173 226.924 659.073 226.304 662.261 227.058L663.855 227.43C667.854 228.366 669.076 230.342 668.141 234.332Z" stroke="#00AC72" stroke-width="2.04545" stroke-linecap="round" stroke-linejoin="round"/>
<path d="M661.839 242.875C661.247 243.276 660.503 243.61 659.596 243.906L658.088 244.402C654.298 245.624 652.303 244.603 651.072 240.813L649.85 237.043C648.628 233.253 649.64 231.248 653.43 230.027L654.938 229.53C655.329 229.406 655.701 229.301 656.055 229.234C655.768 229.817 655.539 230.523 655.348 231.334L654.413 235.334C653.477 239.324 654.709 241.29 658.689 242.235L660.293 242.617C660.846 242.751 661.362 242.837 661.839 242.875Z" stroke="#00AC72" stroke-width="2.04545" stroke-linecap="round" stroke-linejoin="round"/>
<path d="M659.531 232.508L664.161 233.682" stroke="#00AC72" stroke-width="2.04545" stroke-linecap="round" stroke-linejoin="round"/>
<path d="M658.594 236.203L661.362 236.909" stroke="#00AC72" stroke-width="2.04545" stroke-linecap="round" stroke-linejoin="round"/>
<rect x="698.453" y="211.273" width="49.0909" height="49.0909" rx="16.3636" fill="#FFE3E0"/>
<path d="M719.82 237.729H715.362C714.312 237.729 713.453 238.588 713.453 239.638V245.365H719.82V237.729Z" stroke="#DD6A60" stroke-width="2.04545" stroke-miterlimit="10" stroke-linecap="round" stroke-linejoin="round"/>
<path d="M724.27 233.91H721.722C720.672 233.91 719.812 234.769 719.812 235.819V245.365H726.179V235.819C726.179 234.769 725.33 233.91 724.27 233.91Z" stroke="#DD6A60" stroke-width="2.04545" stroke-miterlimit="10" stroke-linecap="round" stroke-linejoin="round"/>
<path d="M730.637 240.592H726.18V245.365H732.547V242.501C732.547 241.451 731.687 240.592 730.637 240.592Z" stroke="#DD6A60" stroke-width="2.04545" stroke-miterlimit="10" stroke-linecap="round" stroke-linejoin="round"/>
<path d="M723.499 226.34L724.005 227.352C724.071 227.495 724.253 227.629 724.405 227.648L725.322 227.801C725.904 227.896 726.047 228.326 725.627 228.736L724.911 229.452C724.787 229.576 724.72 229.805 724.759 229.968L724.959 230.846C725.121 231.543 724.749 231.81 724.138 231.447L723.279 230.941C723.126 230.846 722.869 230.846 722.716 230.941L721.857 231.447C721.246 231.81 720.874 231.543 721.036 230.846L721.236 229.968C721.275 229.805 721.208 229.567 721.084 229.452L720.377 228.746C719.957 228.326 720.091 227.906 720.683 227.81L721.599 227.658C721.752 227.629 721.933 227.495 722 227.362L722.506 226.35C722.783 225.796 723.222 225.796 723.499 226.34Z" stroke="#DD6A60" stroke-width="2.04545" stroke-linecap="round" stroke-linejoin="round"/>
<rect x="762.547" y="211.273" width="49.0909" height="49.0909" rx="16.3636" fill="#FFF4DE"/>
<path d="M783.641 235.82L785.941 238.13L790.552 233.51" stroke="#FFC700" stroke-width="2.04545" stroke-linecap="round" stroke-linejoin="round"/>
<path d="M785.902 226.704C786.561 226.14 787.639 226.14 788.308 226.704L789.816 228.002C790.102 228.25 790.637 228.45 791.019 228.45H792.641C793.653 228.45 794.484 229.281 794.484 230.293V231.915C794.484 232.288 794.684 232.832 794.932 233.118L796.23 234.626C796.794 235.285 796.794 236.364 796.23 237.032L794.932 238.54C794.684 238.826 794.484 239.361 794.484 239.743V241.365C794.484 242.377 793.653 243.208 792.641 243.208H791.019C790.646 243.208 790.102 243.408 789.816 243.656L788.308 244.955C787.649 245.518 786.57 245.518 785.902 244.955L784.394 243.656C784.108 243.408 783.573 243.208 783.191 243.208H781.54C780.528 243.208 779.698 242.377 779.698 241.365V239.733C779.698 239.361 779.497 238.826 779.259 238.54L777.97 237.022C777.416 236.364 777.416 235.295 777.97 234.636L779.259 233.118C779.497 232.832 779.698 232.297 779.698 231.925V230.283C779.698 229.271 780.528 228.441 781.54 228.441H783.191C783.564 228.441 784.108 228.24 784.394 227.992L785.902 226.704Z" stroke="#FFC700" stroke-width="2.04545" stroke-linecap="round" stroke-linejoin="round"/>
<rect x="826.633" y="211.273" width="49.0909" height="49.0909" rx="16.3636" fill="#F6EBE6"/>
<path d="M843.797 234.885V239.629C843.797 241.366 843.797 241.366 845.439 242.473L849.954 245.079C850.631 245.471 851.739 245.471 852.416 245.079L856.931 242.473C858.573 241.366 858.573 241.366 858.573 239.629V234.885C858.573 233.147 858.573 233.147 856.931 232.04L852.416 229.434C851.739 229.043 850.631 229.043 849.954 229.434L845.439 232.04C843.797 233.147 843.797 233.147 843.797 234.885Z" stroke="#914654" stroke-width="2.04545" stroke-linecap="round" stroke-linejoin="round"/>
<path d="M856.437 231.649V229.139C856.437 227.23 855.483 226.275 853.574 226.275H848.801C846.892 226.275 845.938 227.23 845.938 229.139V231.583" stroke="#914654" stroke-width="2.04545" stroke-linecap="round" stroke-linejoin="round"/>
<path d="M851.782 234.857L852.326 235.707C852.412 235.84 852.603 235.974 852.746 236.012L853.72 236.26C854.321 236.413 854.483 236.929 854.092 237.406L853.452 238.179C853.357 238.303 853.281 238.523 853.29 238.675L853.347 239.678C853.386 240.298 852.947 240.613 852.374 240.384L851.438 240.012C851.295 239.955 851.057 239.955 850.913 240.012L849.978 240.384C849.405 240.613 848.966 240.289 849.004 239.678L849.062 238.675C849.071 238.523 848.995 238.294 848.899 238.179L848.26 237.406C847.868 236.929 848.031 236.413 848.632 236.26L849.606 236.012C849.758 235.974 849.949 235.831 850.026 235.707L850.57 234.857C850.913 234.342 851.448 234.342 851.782 234.857Z" stroke="#914654" stroke-width="2.04545" stroke-linecap="round" stroke-linejoin="round"/>
<rect x="890.727" y="211.273" width="49.0909" height="49.0909" rx="16.3636" fill="#E0E6EC"/>
<path d="M906.844 231.467L915.272 236.345L923.644 231.495" stroke="#38495A" stroke-width="2.04545" stroke-linecap="round" stroke-linejoin="round"/>
<path d="M915.273 244.992V236.334" stroke="#38495A" stroke-width="2.04545" stroke-linecap="round" stroke-linejoin="round"/>
<path d="M924.448 236.611V233.118C924.448 231.8 923.503 230.197 922.348 229.557L917.251 226.732C916.162 226.121 914.387 226.121 913.299 226.732L908.202 229.557C907.047 230.197 906.102 231.8 906.102 233.118V238.52C906.102 239.838 907.047 241.441 908.202 242.081L913.299 244.906C913.843 245.212 914.559 245.364 915.275 245.364C915.991 245.364 916.707 245.212 917.251 244.906" stroke="#38495A" stroke-width="2.04545" stroke-linecap="round" stroke-linejoin="round"/>
<path d="M922.148 244.793C923.835 244.793 925.203 243.425 925.203 241.738C925.203 240.051 923.835 238.684 922.148 238.684C920.461 238.684 919.094 240.051 919.094 241.738C919.094 243.425 920.461 244.793 922.148 244.793Z" stroke="#38495A" stroke-width="2.04545" stroke-linecap="round" stroke-linejoin="round"/>
<path d="M925.775 245.365L924.82 244.41" stroke="#38495A" stroke-width="2.04545" stroke-linecap="round" stroke-linejoin="round"/>
<defs>
<clipPath id="clip0_904_39472">
<rect width="24" height="24" fill="white" transform="translate(225 96)"/>
</clipPath>
</defs>
</svg>
