<svg width="604" height="252" viewBox="0 0 604 252" fill="none" xmlns="http://www.w3.org/2000/svg">
<rect y="36" width="180" height="180" rx="90" fill="#F1F3F5"/>
<path d="M63.8027 121V112.516H66.7793C68.5605 112.516 69.3984 113.518 69.3926 114.766C69.3984 115.855 68.748 116.342 68.0098 116.547V116.629C68.8008 116.676 69.7266 117.402 69.7324 118.75C69.7266 120.021 68.8887 121 66.8848 121H63.8027ZM64.8574 120.062H66.873C68.2031 120.062 68.7188 119.477 68.7129 118.738C68.7188 117.877 68.0215 117.145 66.9316 117.145H64.8574V120.062ZM64.8574 116.23H66.7441C67.6641 116.236 68.3848 115.662 68.3848 114.777C68.3848 114.039 67.8867 113.453 66.7793 113.453H64.8574V116.23ZM71.1035 121V114.637H72.1113V121H71.1035ZM70.9043 112.914C70.8984 112.539 71.2207 112.24 71.6074 112.246C71.9941 112.24 72.3164 112.539 72.3223 112.914C72.3164 113.283 71.9941 113.582 71.6074 113.582C71.2207 113.582 70.8984 113.283 70.9043 112.914ZM76.2949 123.52C74.7539 123.52 73.7109 122.846 73.5996 121.668H74.6543C74.7891 122.318 75.3926 122.641 76.2949 122.641C77.3848 122.641 78.0527 122.166 78.0527 121.117V119.828H77.9707C77.7539 120.18 77.3496 120.9 76.1191 120.906C74.5723 120.9 73.4121 119.734 73.4121 117.73C73.4121 115.773 74.5312 114.555 76.1309 114.555C77.3672 114.555 77.7656 115.305 77.9941 115.645H78.0762V114.637H79.0605V121.176C79.0547 122.816 77.8477 123.52 76.2949 123.52ZM74.4316 117.766C74.4316 119.084 75.0527 120.004 76.2598 120.004C77.4258 120.004 78.0703 119.166 78.0762 117.766C78.0703 116.4 77.4434 115.457 76.2598 115.457C75.0352 115.457 74.4316 116.482 74.4316 117.766ZM86.0801 121.117C84.4102 121.117 83.373 120.121 83.373 118.75C83.373 117.719 84.0586 117.086 85.0488 116.4C84.4688 115.703 84.0645 115.117 84.0645 114.367C84.0645 113.219 84.873 112.434 86.127 112.434C87.4043 112.434 88.1895 113.26 88.1895 114.215C88.1895 115.023 87.7559 115.586 87.0645 116.102L86.4434 116.57L88.2715 118.791C88.4883 118.363 88.623 117.854 88.623 117.273H89.5957C89.5898 118.451 89.2383 119.148 88.9102 119.57L90.0879 121H88.8809L88.2832 120.285C87.7324 120.842 86.8594 121.117 86.0801 121.117ZM84.4043 118.75C84.4043 119.535 85.0547 120.227 86.0566 120.227C86.6367 120.227 87.2168 119.992 87.6797 119.564L85.6699 117.145L85.377 117.367C84.6152 117.918 84.4043 118.504 84.4043 118.75ZM85.0723 114.379C85.0723 114.848 85.418 115.322 85.834 115.826L86.3965 115.41C86.8652 115.1 87.1758 114.783 87.1816 114.215C87.1758 113.793 86.7656 113.301 86.1621 113.301C85.5234 113.301 85.0723 113.857 85.0723 114.379ZM94.1309 121V112.516H97.1074C98.8887 112.516 99.7266 113.518 99.7207 114.766C99.7266 115.855 99.0762 116.342 98.3379 116.547V116.629C99.1289 116.676 100.055 117.402 100.061 118.75C100.055 120.021 99.2168 121 97.2129 121H94.1309ZM95.1855 120.062H97.2012C98.5312 120.062 99.0469 119.477 99.041 118.738C99.0469 117.877 98.3496 117.145 97.2598 117.145H95.1855V120.062ZM95.1855 116.23H97.0723C97.9922 116.236 98.7129 115.662 98.7129 114.777C98.7129 114.039 98.2148 113.453 97.1074 113.453H95.1855V116.23ZM104.033 121.129C102.299 121.135 101.127 119.822 101.127 117.848C101.127 115.861 102.299 114.555 104.033 114.555C105.762 114.555 106.922 115.861 106.916 117.848C106.922 119.822 105.762 121.135 104.033 121.129ZM102.135 117.848C102.141 119.119 102.738 120.238 104.033 120.238C105.316 120.238 105.908 119.119 105.908 117.848C105.908 116.582 105.316 115.445 104.033 115.445C102.738 115.445 102.141 116.582 102.135 117.848ZM109.248 112.516V121H108.24V112.516H109.248ZM113.256 121.129C111.668 121.135 110.549 119.857 110.549 117.836C110.549 115.82 111.668 114.555 113.268 114.555C114.504 114.555 114.891 115.305 115.107 115.645H115.178V112.516H116.197V121H115.213V120.027H115.107C114.885 120.379 114.469 121.135 113.256 121.129ZM111.568 117.812C111.568 119.166 112.189 120.227 113.396 120.227C114.562 120.227 115.207 119.242 115.213 117.812C115.207 116.4 114.58 115.457 113.396 115.457C112.172 115.457 111.568 116.482 111.568 117.812ZM71.5781 129.531V139.973H70.6523V129.531H71.5781ZM63.668 137.383V130.527H68.625V131.301H64.5938V136.586C66.6211 136.586 67.9512 136.527 69.5156 136.246L69.6094 137.02C67.9922 137.307 66.6211 137.377 64.5117 137.383H63.668ZM76.8867 132.73C76.875 134.4 78.082 136.24 79.5938 136.961L79.0664 137.688C77.8945 137.113 76.9043 135.883 76.4355 134.471C75.9551 136 74.9121 137.348 73.7461 137.945L73.1836 137.219C74.6836 136.486 75.9727 134.506 75.9844 132.73V131.371H73.5586V130.609H79.2305V131.371H76.8867V132.73ZM80.5078 139.949V129.531H81.4219V133.75H83.168V134.535H81.4219V139.949H80.5078ZM92.332 129.543V137.16H91.418V129.543H92.332ZM83.9766 132.824C83.9707 131.324 85.1484 130.275 86.707 130.27C88.2656 130.275 89.4316 131.324 89.4375 132.824C89.4316 134.342 88.2656 135.396 86.707 135.391C85.1484 135.396 83.9707 134.342 83.9766 132.824ZM84.8789 132.824C84.8672 133.861 85.6523 134.582 86.707 134.582C87.7441 134.582 88.5352 133.861 88.5352 132.824C88.5352 131.805 87.7441 131.078 86.707 131.078C85.6523 131.078 84.8672 131.805 84.8789 132.824ZM85.6055 139.727V136.387H86.5195V138.953H92.6602V139.727H85.6055ZM106.652 137.84V138.613H97.1133V137.84H99.4805V135.033C98.5898 134.57 98.0508 133.82 98.0508 132.871C98.0508 131.26 99.6328 130.199 101.859 130.188C104.086 130.199 105.668 131.26 105.668 132.871C105.668 133.803 105.146 134.541 104.285 135.004V137.84H106.652ZM98.9414 132.871C98.9355 134.037 100.148 134.816 101.859 134.816C103.553 134.816 104.777 134.037 104.777 132.871C104.777 131.705 103.553 130.938 101.859 130.949C100.148 130.938 98.9355 131.705 98.9414 132.871ZM100.383 137.84H103.359V135.361C102.908 135.479 102.404 135.543 101.859 135.543C101.326 135.543 100.828 135.484 100.383 135.367V137.84ZM117.023 137.828V138.59H107.484V137.828H111.75V135.273H112.652V137.828H117.023ZM107.859 134.629C109.682 134.318 111.709 132.795 111.715 131.043V130.246H112.676V131.043C112.682 132.783 114.738 134.318 116.555 134.629L116.145 135.391C114.557 135.062 112.881 133.99 112.207 132.49C111.521 133.984 109.863 135.062 108.27 135.391L107.859 134.629Z" fill="#535862"/>
<rect x="164" y="36" width="180" height="180" rx="90" fill="#F1F3F5"/>
<path d="M240.236 111.531V115.656H241.982V116.43H240.236V121.973H239.322V111.531H240.236ZM232.631 119.359V112.551H237.494V113.312H233.545V118.586C235.432 118.58 236.762 118.498 238.314 118.211L238.432 119.008C236.797 119.301 235.432 119.359 233.451 119.359H232.631ZM250.854 112.598V113.887C250.859 115.422 250.859 116.84 250.42 118.949L249.494 118.867C249.729 117.865 249.84 116.998 249.898 116.189L243.541 116.535L243.412 115.773L249.939 115.504C249.957 114.953 249.963 114.42 249.963 113.887V113.371H243.693V112.598H250.854ZM242.545 120.484V119.711H252.037V120.484H242.545ZM262.455 119.84V120.613H252.916V119.84H257.205V117.297H254.041V112.41H261.271V117.297H258.107V119.84H262.455ZM254.943 116.559H260.381V113.148H254.943V116.559ZM271.701 116.547V117.309H264.506V112.504H271.596V113.266H265.42V116.547H271.701ZM263.287 120.531V119.758H272.826V120.531H263.287ZM245.451 129.531V139.949H244.525V129.531H245.451ZM236.967 137.242C239.785 135.906 241.227 133.908 241.432 131.418H237.447V130.668H242.369C242.357 133.662 240.963 136.316 237.471 137.992L236.967 137.242ZM255.354 129.543V132.695H256.924V133.469H255.354V137.195H254.439V129.543H255.354ZM247.654 135.438V130.293H248.557V132.051H251.592V130.293H252.506V135.438H247.654ZM248.557 134.688H251.592V132.777H248.557V134.688ZM248.838 139.727V136.445H249.74V138.953H255.834V139.727H248.838ZM266.662 130.516H267.717V136.129C267.717 137.875 266.41 139.146 264.412 139.152C262.408 139.146 261.107 137.875 261.107 136.129V130.516H262.162V136.047C262.156 137.277 263.012 138.162 264.412 138.168C265.812 138.162 266.656 137.277 266.662 136.047V130.516ZM270.646 130.516V139H269.592V130.516H270.646Z" fill="#535862"/>
<rect x="424" y="36" width="180" height="180" rx="90" fill="#FF0000"/>
<path d="M488.14 110.514V117.712H486.185V110.514H488.14ZM477.641 114.729C479.126 114.729 481.633 114.697 483.468 114.411L483.595 115.757C483.011 115.896 482.363 115.992 481.716 116.062V117.623H479.773V116.195C479.043 116.22 478.364 116.227 477.818 116.227L477.641 114.729ZM478.047 112.672C478.053 111.593 479.101 110.92 480.649 110.92C482.186 110.92 483.246 111.593 483.239 112.672C483.246 113.745 482.186 114.456 480.649 114.462C479.101 114.456 478.053 113.745 478.047 112.672ZM479.443 122.155V118.055H481.462V118.626H486.096V118.055H488.14V122.155H479.443ZM479.888 112.672C479.888 112.983 480.154 113.059 480.649 113.065C481.132 113.059 481.443 112.983 481.437 112.672C481.443 112.38 481.132 112.304 480.649 112.304C480.154 112.304 479.888 112.38 479.888 112.672ZM481.462 120.594H486.096V120.162H481.462V120.594ZM482.312 117.509V116.176H483.861V110.717H485.778V117.712H483.861V117.509H482.312ZM501.406 116.417V117.991H492.989V111.288H501.343V112.926H495.059V113.84H501.051V115.414H495.059V116.417H501.406ZM491.796 121V119.362H502.523V121H491.796ZM507.589 111.364V115.312H505.443V116.227C506.516 116.214 507.316 116.15 508.249 115.998L508.427 117.585C507.195 117.826 506.078 117.826 504.313 117.826H503.463V113.865H505.634V112.926H503.45V111.364H507.589ZM505.075 122.092V118.486H507.106V120.467H513.454V122.092H505.075ZM507.995 114.906V113.269H508.833V110.729H510.737V119.096H508.833V114.906H507.995ZM511.258 119.35V110.539H513.188V119.35H511.258ZM523.89 115.82V117.433H515.46V111.428H523.813V113.065H517.466V115.82H523.89ZM514.267 120.949V119.286H524.994V120.949H514.267ZM537.728 110.539V113.688H539.188V115.338H537.728V119.197H535.684V110.539H537.728ZM528.587 117.395V111.364H530.605V112.888H532.37V111.364H534.401V117.395H528.587ZM529.945 122.092V118.283H531.989V120.467H538.07V122.092H529.945ZM530.605 115.82H532.37V114.424H530.605V115.82ZM542.869 111.11C543.764 111.11 544.564 111.434 545.135 111.974H547.528V110.514H549.56V117.356H547.528V116.125H545.104C544.539 116.652 543.751 116.969 542.869 116.963C541.079 116.969 539.683 115.712 539.695 114.043C539.683 112.348 541.079 111.11 542.869 111.11ZM541.384 119.921C541.377 118.442 542.971 117.566 545.472 117.572C547.992 117.566 549.585 118.442 549.585 119.921C549.585 121.4 547.992 122.282 545.472 122.282C542.971 122.282 541.377 121.4 541.384 119.921ZM541.625 114.043C541.612 114.824 542.133 115.255 542.869 115.249C543.58 115.255 544.075 114.824 544.088 114.043C544.075 113.224 543.58 112.837 542.869 112.837C542.133 112.837 541.612 113.224 541.625 114.043ZM543.377 119.921C543.371 120.486 544.082 120.708 545.472 120.708C546.919 120.708 547.592 120.486 547.592 119.921C547.592 119.343 546.919 119.115 545.472 119.108C544.082 119.115 543.371 119.343 543.377 119.921ZM545.973 114.525H547.528V113.573H545.979C546.005 113.726 546.018 113.884 546.018 114.043C546.018 114.208 546.005 114.367 545.973 114.525ZM501.051 131.809H503.463V137.712C503.469 139.794 501.87 141.108 499.515 141.114C497.153 141.108 495.573 139.794 495.579 137.712V131.809H497.991V137.496C497.991 138.385 498.626 139.02 499.515 139.02C500.416 139.02 501.044 138.385 501.051 137.496V131.809ZM507.119 131.809V141H504.707V131.809H507.119ZM520.398 131.161V132.228C520.392 133.319 520.392 134.506 520.106 136.125H521.554V137.75H517.148V142.27H515.092V137.75H510.839V136.125H518.062C518.31 134.767 518.354 133.7 518.361 132.761H511.994V131.161H520.398ZM532.789 136.214V137.813H528.422V138.626H531.494V142.257H529.463V140.226H523.268V138.626H526.391V137.813H522.074V136.214H532.789ZM522.404 134.449C525.007 134.303 525.934 133.688 526.188 133.104H523.052V131.542H526.391V130.577H528.422V131.542H531.786V133.104H528.625C528.866 133.688 529.799 134.303 532.408 134.449L531.786 135.96C529.545 135.833 528.143 135.274 527.4 134.449C526.664 135.274 525.254 135.833 523.014 135.96L522.404 134.449Z" fill="white"/>
<path d="M341.333 126C341.333 127.473 342.527 128.667 344 128.667C345.473 128.667 346.667 127.473 346.667 126C346.667 124.527 345.473 123.333 344 123.333C342.527 123.333 341.333 124.527 341.333 126ZM424 126L419 123.113V128.887L424 126ZM344 126V126.5H345V126V125.5H344V126ZM347 126V126.5H349V126V125.5H347V126ZM351 126V126.5H353V126V125.5H351V126ZM355 126V126.5H357V126V125.5H355V126ZM359 126V126.5H361V126V125.5H359V126ZM363 126V126.5H365V126V125.5H363V126ZM367 126V126.5H369V126V125.5H367V126ZM371 126V126.5H373V126V125.5H371V126ZM375 126V126.5H377V126V125.5H375V126ZM379 126V126.5H381V126V125.5H379V126ZM383 126V126.5H385V126V125.5H383V126ZM387 126V126.5H389V126V125.5H387V126ZM391 126V126.5H393V126V125.5H391V126ZM395 126V126.5H397V126V125.5H395V126ZM399 126V126.5H401V126V125.5H399V126ZM403 126V126.5H405V126V125.5H403V126ZM407 126V126.5H409V126V125.5H407V126ZM411 126V126.5H413V126V125.5H411V126ZM415 126V126.5H417V126V125.5H415V126ZM419 126V126.5H421V126V125.5H419V126Z" fill="url(#paint0_linear_1062_35422)"/>
<defs>
<linearGradient id="paint0_linear_1062_35422" x1="344" y1="126.5" x2="424" y2="126.5" gradientUnits="userSpaceOnUse">
<stop stop-color="#CED4DA"/>
<stop offset="1" stop-color="#880606"/>
</linearGradient>
</defs>
</svg>
