<svg width="960" height="324" viewBox="0 0 960 324" fill="none" xmlns="http://www.w3.org/2000/svg">
<rect width="155.333" height="100" rx="10" fill="#1AD292"/>
<path d="M16.7744 63V53.8086H20.3799C22.4683 53.8086 23.668 55.0972 23.668 56.9062C23.668 58.7407 22.4492 60.0039 20.3291 60.0039H18.6787V63H16.7744ZM18.6787 58.4678H20.0244C21.1543 58.4678 21.7065 57.833 21.7002 56.9062C21.7065 55.9922 21.1543 55.3765 20.0244 55.3701H18.6787V58.4678ZM24.8359 63V56.1064H26.6514V57.2998H26.7275C26.9751 56.4556 27.6162 56.0049 28.3906 56.0049C28.5811 56.0049 28.8223 56.0303 28.9873 56.0684V57.7441C28.8096 57.687 28.4478 57.6426 28.1875 57.6426C27.3369 57.6426 26.7085 58.2329 26.7148 59.0771V63H24.8359ZM29.9014 63V56.1064H31.7803V63H29.9014ZM29.8125 54.2529C29.8125 53.7197 30.2759 53.2944 30.8408 53.2881C31.3994 53.2944 31.8628 53.7197 31.8564 54.2529C31.8628 54.7734 31.3994 55.2051 30.8408 55.2051C30.2759 55.2051 29.8125 54.7734 29.8125 54.2529ZM33.2402 63V56.1064H35.0303V57.3125H35.1064C35.3984 56.5063 36.0967 56.0176 37.0234 56.0176C37.9692 56.0176 38.6738 56.519 38.9023 57.3125H38.9658C39.2515 56.5317 40.0386 56.0176 41.0479 56.0176C42.3237 56.0176 43.2188 56.8618 43.2188 58.3662V63H41.3398V58.7344C41.3462 57.9473 40.8765 57.5664 40.2607 57.5664C39.5562 57.5664 39.1372 58.0552 39.1436 58.7852V63H37.3154V58.6836C37.3218 58.0044 36.8901 57.5664 36.249 57.5664C35.6079 57.5664 35.1128 58.0806 35.1191 58.8613V63H33.2402ZM44.3359 61.0703C44.3423 59.5342 45.5737 59.0327 46.9004 58.9502C47.3955 58.9185 48.3223 58.874 48.6143 58.8613V58.3027C48.6079 57.7251 48.2144 57.395 47.5098 57.3887C46.8687 57.395 46.4688 57.6807 46.3672 58.1504H44.5771C44.6914 56.957 45.7324 56.0176 47.5605 56.0176C49.0649 56.0176 50.4868 56.6904 50.4805 58.3535V63H48.7031V62.0479H48.6523C48.3159 62.6826 47.6558 63.1333 46.6338 63.127C45.3135 63.1333 44.3423 62.4351 44.3359 61.0703ZM46.1387 61.0195C46.1387 61.5464 46.564 61.8257 47.167 61.832C48.0239 61.8257 48.6206 61.2671 48.6143 60.5371V60.0356C48.3286 60.0483 47.5225 60.0928 47.2051 60.1182C46.5513 60.1753 46.1387 60.4863 46.1387 61.0195ZM51.915 63V56.1064H53.7305V57.2998H53.8066C54.0542 56.4556 54.6953 56.0049 55.4697 56.0049C55.6602 56.0049 55.9014 56.0303 56.0664 56.0684V57.7441C55.8887 57.687 55.5269 57.6426 55.2666 57.6426C54.416 57.6426 53.7876 58.2329 53.7939 59.0771V63H51.915ZM58.3008 65.5898C57.9326 65.5835 57.5898 65.5771 57.3486 65.5518V64.0918C57.5898 64.1108 57.8755 64.1172 58.1104 64.1172C58.4849 64.1172 58.7832 64.0791 59.0117 63.4824L59.126 63.1904L56.6504 56.1064H58.6182L60.0654 61.1846H60.1416L61.6016 56.1064H63.5947L60.9033 63.7617C60.5098 64.8726 59.7544 65.5835 58.3008 65.5898Z" fill="white"/>
<path d="M19.9609 83L20.3477 80.6562H18.2148L17.8281 83H16.9727L17.3594 80.6562H16.1055L16.2461 79.8125H17.4941L17.8457 77.7031H16.6094L16.7383 76.8594H17.9805L18.3672 74.5156H19.2227L18.8359 76.8594H20.9688L21.3555 74.5156H22.2109L21.8242 76.8594H23.0898L22.9492 77.7031H21.6895L21.3379 79.8125H22.5859L22.4453 80.6562H21.2031L20.8164 83H19.9609ZM18.3496 79.8125H20.4824L20.834 77.7031H18.7012L18.3496 79.8125ZM26.9922 74.5156V83H25.9258V75.6172H25.8789L23.8164 76.9883V75.9219L25.9258 74.5156H26.9922ZM29.7695 83H28.668L31.7734 74.5156H32.8867L35.9922 83H34.8789L34.0293 80.6094H30.6191L29.7695 83ZM30.9414 79.6836H33.707L32.3594 75.8867H32.2891L30.9414 79.6836ZM39.7773 83H37.1406V74.5156H39.8828C42.3613 74.5156 43.8203 76.1035 43.8203 78.7461C43.8203 81.3945 42.3613 83 39.7773 83ZM38.1953 82.0625H39.707C41.7871 82.0625 42.7891 80.8027 42.7891 78.7461C42.7891 76.6953 41.7871 75.4531 39.8125 75.4531H38.1953V82.0625ZM45.2266 83L45.2148 82.2266L48.1094 79.1797C49.1113 78.1133 49.5918 77.5391 49.5977 76.7539C49.5918 75.8809 48.8652 75.3184 47.9102 75.3125C46.8965 75.3184 46.2637 75.957 46.2578 76.9062H45.2617C45.25 75.4062 46.4102 74.3984 47.9453 74.3984C49.4863 74.3984 50.5762 75.4355 50.582 76.7539C50.5762 77.7031 50.1367 78.4414 48.6367 79.9883L46.6914 81.9922V82.0625H50.7344V83H45.2266ZM55.0938 74.3984C56.5527 74.416 58.1758 75.2949 58.1758 78.418C58.1758 81.4355 56.9395 83.1172 54.9531 83.1172C53.459 83.1172 52.4102 82.2031 52.1992 80.8555H53.2422C53.4297 81.6172 54.0098 82.1797 54.9531 82.1797C56.3359 82.1797 57.1797 80.9844 57.1914 78.9219H57.0742C56.5879 79.625 55.8086 80.0469 54.9062 80.0469C53.3887 80.0469 52.1289 78.8809 52.1289 77.2461C52.1289 75.6641 53.2891 74.3809 55.0938 74.3984ZM53.1602 77.2344C53.1543 78.2832 53.9512 79.1211 55.0586 79.1211C56.166 79.1211 57.0273 78.207 57.0273 77.2109C57.0273 76.2383 56.2129 75.3242 55.0938 75.3242C53.9863 75.3242 53.1484 76.1855 53.1602 77.2344ZM59.6289 83L59.6172 82.2266L62.5117 79.1797C63.5137 78.1133 63.9941 77.5391 64 76.7539C63.9941 75.8809 63.2676 75.3184 62.3125 75.3125C61.2988 75.3184 60.666 75.957 60.6602 76.9062H59.6641C59.6523 75.4062 60.8125 74.3984 62.3477 74.3984C63.8887 74.3984 64.9785 75.4355 64.9844 76.7539C64.9785 77.7031 64.5391 78.4414 63.0391 79.9883L61.0938 81.9922V82.0625H65.1367V83H59.6289Z" fill="white" fill-opacity="0.78"/>
<rect x="159.332" width="155.333" height="100" rx="10" fill="#14C789"/>
<path d="M176.106 63V53.8086H179.712C181.8 53.8086 183 55.0972 183 56.9062C183 58.7407 181.781 60.0039 179.661 60.0039H178.011V63H176.106ZM178.011 58.4678H179.356C180.486 58.4678 181.039 57.833 181.032 56.9062C181.039 55.9922 180.486 55.3765 179.356 55.3701H178.011V58.4678ZM184.168 63V56.1064H185.983V57.2998H186.06C186.307 56.4556 186.948 56.0049 187.723 56.0049C187.913 56.0049 188.154 56.0303 188.319 56.0684V57.7441C188.142 57.687 187.78 57.6426 187.52 57.6426C186.669 57.6426 186.041 58.2329 186.047 59.0771V63H184.168ZM189.233 63V56.1064H191.112V63H189.233ZM189.145 54.2529C189.145 53.7197 189.608 53.2944 190.173 53.2881C190.731 53.2944 191.195 53.7197 191.188 54.2529C191.195 54.7734 190.731 55.2051 190.173 55.2051C189.608 55.2051 189.145 54.7734 189.145 54.2529ZM192.572 63V56.1064H194.362V57.3125H194.438C194.73 56.5063 195.429 56.0176 196.355 56.0176C197.301 56.0176 198.006 56.519 198.234 57.3125H198.298C198.583 56.5317 199.371 56.0176 200.38 56.0176C201.656 56.0176 202.551 56.8618 202.551 58.3662V63H200.672V58.7344C200.678 57.9473 200.208 57.5664 199.593 57.5664C198.888 57.5664 198.469 58.0552 198.476 58.7852V63H196.647V58.6836C196.654 58.0044 196.222 57.5664 195.581 57.5664C194.94 57.5664 194.445 58.0806 194.451 58.8613V63H192.572ZM203.668 61.0703C203.674 59.5342 204.906 59.0327 206.232 58.9502C206.728 58.9185 207.654 58.874 207.946 58.8613V58.3027C207.94 57.7251 207.546 57.395 206.842 57.3887C206.201 57.395 205.801 57.6807 205.699 58.1504H203.909C204.023 56.957 205.064 56.0176 206.893 56.0176C208.397 56.0176 209.819 56.6904 209.812 58.3535V63H208.035V62.0479H207.984C207.648 62.6826 206.988 63.1333 205.966 63.127C204.646 63.1333 203.674 62.4351 203.668 61.0703ZM205.471 61.0195C205.471 61.5464 205.896 61.8257 206.499 61.832C207.356 61.8257 207.953 61.2671 207.946 60.5371V60.0356C207.661 60.0483 206.854 60.0928 206.537 60.1182C205.883 60.1753 205.471 60.4863 205.471 61.0195ZM211.247 63V56.1064H213.062V57.2998H213.139C213.386 56.4556 214.027 56.0049 214.802 56.0049C214.992 56.0049 215.233 56.0303 215.398 56.0684V57.7441C215.221 57.687 214.859 57.6426 214.599 57.6426C213.748 57.6426 213.12 58.2329 213.126 59.0771V63H211.247ZM217.633 65.5898C217.265 65.5835 216.922 65.5771 216.681 65.5518V64.0918C216.922 64.1108 217.208 64.1172 217.442 64.1172C217.817 64.1172 218.115 64.0791 218.344 63.4824L218.458 63.1904L215.982 56.1064H217.95L219.397 61.1846H219.474L220.934 56.1064H222.927L220.235 63.7617C219.842 64.8726 219.086 65.5835 217.633 65.5898ZM226.824 63L226.812 61.6162L230.112 58.582C230.969 57.7632 231.433 57.2554 231.433 56.5254C231.433 55.7065 230.817 55.1987 229.973 55.2051C229.109 55.1987 228.544 55.7446 228.551 56.627H226.735C226.729 54.8306 228.062 53.6816 229.998 53.6816C231.966 53.6816 233.273 54.8052 233.273 56.3984C233.273 57.4458 232.766 58.3027 230.874 60.0166L229.478 61.375V61.4258H233.4V63H226.824ZM238.326 63.127C236.022 63.127 234.632 61.4131 234.632 58.4043C234.632 55.4019 236.035 53.6816 238.326 53.6816C240.618 53.6816 242.021 55.4019 242.021 58.4043C242.021 61.4258 240.624 63.127 238.326 63.127ZM236.587 58.4043C236.574 60.5244 237.26 61.5527 238.326 61.5527C239.393 61.5527 240.072 60.5244 240.065 58.4043C240.072 56.3032 239.386 55.2495 238.326 55.2432C237.266 55.2495 236.587 56.3032 236.587 58.4043Z" fill="white"/>
<path d="M179.293 83L179.68 80.6562H177.547L177.16 83H176.305L176.691 80.6562H175.438L175.578 79.8125H176.826L177.178 77.7031H175.941L176.07 76.8594H177.312L177.699 74.5156H178.555L178.168 76.8594H180.301L180.688 74.5156H181.543L181.156 76.8594H182.422L182.281 77.7031H181.021L180.67 79.8125H181.918L181.777 80.6562H180.535L180.148 83H179.293ZM177.682 79.8125H179.814L180.166 77.7031H178.033L177.682 79.8125ZM186.324 74.5156V83H185.258V75.6172H185.211L183.148 76.9883V75.9219L185.258 74.5156H186.324ZM188.375 81.2656V80.3984L192.195 74.5156H193.496V80.3398H194.68V81.2656H193.496V83H192.488V81.2656H188.375ZM189.512 80.3398H192.488V75.8516H192.383L189.512 80.2695V80.3398ZM202.004 77.1875C201.758 76.0156 200.756 75.3828 199.637 75.3828C198.102 75.3828 196.912 76.5664 196.906 78.7578C196.912 80.9434 198.102 82.127 199.637 82.1328C200.756 82.127 201.752 81.5 202.004 80.3398H203.059C202.754 82.0742 201.359 83.1172 199.637 83.1172C197.457 83.1172 195.881 81.4414 195.887 78.7578C195.881 76.0742 197.457 74.3984 199.637 74.3984C201.354 74.3984 202.742 75.4238 203.059 77.1875H202.004ZM204.664 83L208.555 75.5117V75.4531H204.066V74.5156H209.645V75.5L205.766 83H204.664ZM213.688 83.1172C211.9 83.1172 210.67 82.127 210.676 80.75C210.67 79.6543 211.432 78.7461 212.398 78.5938V78.5469C211.555 78.3535 210.998 77.5742 211.004 76.6484C210.998 75.3535 212.135 74.3984 213.688 74.3984C215.234 74.3984 216.371 75.3535 216.383 76.6484C216.371 77.5742 215.809 78.3535 214.977 78.5469V78.5938C215.938 78.7461 216.699 79.6543 216.711 80.75C216.699 82.127 215.457 83.1172 213.688 83.1172ZM211.73 80.6914C211.713 81.582 212.469 82.1855 213.688 82.1914C214.9 82.1855 215.656 81.582 215.656 80.6914C215.656 79.7539 214.83 79.0625 213.688 79.0625C212.551 79.0625 211.713 79.7539 211.73 80.6914ZM212.023 76.7305C212.029 77.5859 212.715 78.166 213.688 78.1719C214.654 78.166 215.352 77.5859 215.352 76.7305C215.352 75.8809 214.678 75.3066 213.688 75.3125C212.68 75.3066 212.029 75.8809 212.023 76.7305ZM220.953 74.3984C222.412 74.416 224.035 75.2949 224.035 78.418C224.035 81.4355 222.799 83.1172 220.812 83.1172C219.318 83.1172 218.27 82.2031 218.059 80.8555H219.102C219.289 81.6172 219.869 82.1797 220.812 82.1797C222.195 82.1797 223.039 80.9844 223.051 78.9219H222.934C222.447 79.625 221.668 80.0469 220.766 80.0469C219.248 80.0469 217.988 78.8809 217.988 77.2461C217.988 75.6641 219.148 74.3809 220.953 74.3984ZM219.02 77.2344C219.014 78.2832 219.811 79.1211 220.918 79.1211C222.025 79.1211 222.887 78.207 222.887 77.2109C222.887 76.2383 222.072 75.3242 220.953 75.3242C219.846 75.3242 219.008 76.1855 219.02 77.2344Z" fill="white" fill-opacity="0.78"/>
<rect x="318.668" width="155.333" height="100" rx="10" fill="#12B27B"/>
<path d="M335.442 63V53.8086H339.048C341.136 53.8086 342.336 55.0972 342.336 56.9062C342.336 58.7407 341.117 60.0039 338.997 60.0039H337.347V63H335.442ZM337.347 58.4678H338.692C339.822 58.4678 340.375 57.833 340.368 56.9062C340.375 55.9922 339.822 55.3765 338.692 55.3701H337.347V58.4678ZM343.504 63V56.1064H345.319V57.2998H345.396C345.643 56.4556 346.284 56.0049 347.059 56.0049C347.249 56.0049 347.49 56.0303 347.655 56.0684V57.7441C347.478 57.687 347.116 57.6426 346.855 57.6426C346.005 57.6426 345.376 58.2329 345.383 59.0771V63H343.504ZM348.569 63V56.1064H350.448V63H348.569ZM348.48 54.2529C348.48 53.7197 348.944 53.2944 349.509 53.2881C350.067 53.2944 350.531 53.7197 350.524 54.2529C350.531 54.7734 350.067 55.2051 349.509 55.2051C348.944 55.2051 348.48 54.7734 348.48 54.2529ZM351.908 63V56.1064H353.698V57.3125H353.774C354.066 56.5063 354.765 56.0176 355.691 56.0176C356.637 56.0176 357.342 56.519 357.57 57.3125H357.634C357.919 56.5317 358.707 56.0176 359.716 56.0176C360.992 56.0176 361.887 56.8618 361.887 58.3662V63H360.008V58.7344C360.014 57.9473 359.544 57.5664 358.929 57.5664C358.224 57.5664 357.805 58.0552 357.812 58.7852V63H355.983V58.6836C355.99 58.0044 355.558 57.5664 354.917 57.5664C354.276 57.5664 353.781 58.0806 353.787 58.8613V63H351.908ZM363.004 61.0703C363.01 59.5342 364.242 59.0327 365.568 58.9502C366.063 58.9185 366.99 58.874 367.282 58.8613V58.3027C367.276 57.7251 366.882 57.395 366.178 57.3887C365.537 57.395 365.137 57.6807 365.035 58.1504H363.245C363.359 56.957 364.4 56.0176 366.229 56.0176C367.733 56.0176 369.155 56.6904 369.148 58.3535V63H367.371V62.0479H367.32C366.984 62.6826 366.324 63.1333 365.302 63.127C363.981 63.1333 363.01 62.4351 363.004 61.0703ZM364.807 61.0195C364.807 61.5464 365.232 61.8257 365.835 61.832C366.692 61.8257 367.289 61.2671 367.282 60.5371V60.0356C366.997 60.0483 366.19 60.0928 365.873 60.1182C365.219 60.1753 364.807 60.4863 364.807 61.0195ZM370.583 63V56.1064H372.398V57.2998H372.475C372.722 56.4556 373.363 56.0049 374.138 56.0049C374.328 56.0049 374.569 56.0303 374.734 56.0684V57.7441C374.557 57.687 374.195 57.6426 373.935 57.6426C373.084 57.6426 372.456 58.2329 372.462 59.0771V63H370.583ZM376.969 65.5898C376.601 65.5835 376.258 65.5771 376.017 65.5518V64.0918C376.258 64.1108 376.543 64.1172 376.778 64.1172C377.153 64.1172 377.451 64.0791 377.68 63.4824L377.794 63.1904L375.318 56.1064H377.286L378.733 61.1846H378.81L380.27 56.1064H382.263L379.571 63.7617C379.178 64.8726 378.422 65.5835 376.969 65.5898ZM389.562 63.127C387.544 63.127 386.097 62.0161 386.059 60.4102H387.988C388.02 61.0957 388.687 61.5464 389.575 61.5527C390.489 61.5464 391.143 61.0386 391.137 60.2959C391.143 59.5469 390.477 59.02 389.397 59.0137H388.547V57.6045H389.397C390.305 57.6045 390.94 57.1094 390.934 56.3857C390.94 55.6812 390.4 55.1987 389.588 55.2051C388.775 55.1987 388.109 55.6558 388.077 56.3604H386.249C386.281 54.7798 387.703 53.6816 389.588 53.6816C391.505 53.6816 392.781 54.8179 392.774 56.2715C392.781 57.2998 392.063 58.0298 391.035 58.2139V58.29C392.387 58.4551 393.13 59.2739 393.117 60.4229C393.13 61.9971 391.638 63.127 389.562 63.127ZM398.03 63.127C395.726 63.127 394.336 61.4131 394.336 58.4043C394.336 55.4019 395.739 53.6816 398.03 53.6816C400.322 53.6816 401.725 55.4019 401.725 58.4043C401.725 61.4258 400.328 63.127 398.03 63.127ZM396.291 58.4043C396.278 60.5244 396.964 61.5527 398.03 61.5527C399.097 61.5527 399.776 60.5244 399.77 58.4043C399.776 56.3032 399.09 55.2495 398.03 55.2432C396.97 55.2495 396.291 56.3032 396.291 58.4043Z" fill="white"/>
<path d="M338.629 83L339.016 80.6562H336.883L336.496 83H335.641L336.027 80.6562H334.773L334.914 79.8125H336.162L336.514 77.7031H335.277L335.406 76.8594H336.648L337.035 74.5156H337.891L337.504 76.8594H339.637L340.023 74.5156H340.879L340.492 76.8594H341.758L341.617 77.7031H340.357L340.006 79.8125H341.254L341.113 80.6562H339.871L339.484 83H338.629ZM337.018 79.8125H339.15L339.502 77.7031H337.369L337.018 79.8125ZM345.66 74.5156V83H344.594V75.6172H344.547L342.484 76.9883V75.9219L344.594 74.5156H345.66ZM347.922 83L347.91 82.2266L350.805 79.1797C351.807 78.1133 352.287 77.5391 352.293 76.7539C352.287 75.8809 351.561 75.3184 350.605 75.3125C349.592 75.3184 348.959 75.957 348.953 76.9062H347.957C347.945 75.4062 349.105 74.3984 350.641 74.3984C352.182 74.3984 353.271 75.4355 353.277 76.7539C353.271 77.7031 352.832 78.4414 351.332 79.9883L349.387 81.9922V82.0625H353.43V83H347.922ZM355.105 83V74.5156H358.082C359.863 74.5156 360.701 75.5176 360.695 76.7656C360.701 77.8555 360.051 78.3418 359.312 78.5469V78.6289C360.104 78.6758 361.029 79.4023 361.035 80.75C361.029 82.0215 360.191 83 358.188 83H355.105ZM356.16 82.0625H358.176C359.506 82.0625 360.021 81.4766 360.016 80.7383C360.021 79.877 359.324 79.1445 358.234 79.1445H356.16V82.0625ZM356.16 78.2305H358.047C358.967 78.2363 359.688 77.6621 359.688 76.7773C359.688 76.0391 359.189 75.4531 358.082 75.4531H356.16V78.2305ZM362.395 83L362.383 82.2266L365.277 79.1797C366.279 78.1133 366.76 77.5391 366.766 76.7539C366.76 75.8809 366.033 75.3184 365.078 75.3125C364.064 75.3184 363.432 75.957 363.426 76.9062H362.43C362.418 75.4062 363.578 74.3984 365.113 74.3984C366.654 74.3984 367.744 75.4355 367.75 76.7539C367.744 77.7031 367.305 78.4414 365.805 79.9883L363.859 81.9922V82.0625H367.902V83H362.395ZM369.707 83L373.598 75.5117V75.4531H369.109V74.5156H374.688V75.5L370.809 83H369.707ZM376.199 83V74.5156H379.176C380.957 74.5156 381.795 75.5176 381.789 76.7656C381.795 77.8555 381.145 78.3418 380.406 78.5469V78.6289C381.197 78.6758 382.123 79.4023 382.129 80.75C382.123 82.0215 381.285 83 379.281 83H376.199ZM377.254 82.0625H379.27C380.6 82.0625 381.115 81.4766 381.109 80.7383C381.115 79.877 380.418 79.1445 379.328 79.1445H377.254V82.0625ZM377.254 78.2305H379.141C380.061 78.2363 380.781 77.6621 380.781 76.7773C380.781 76.0391 380.283 75.4531 379.176 75.4531H377.254V78.2305Z" fill="white" fill-opacity="0.78"/>
<rect x="486" width="155.333" height="100" rx="10" fill="#1A8DFF"/>
<path d="M506.672 58.1504C506.589 57.668 506.17 57.3569 505.542 57.3506C504.933 57.3569 504.469 57.6426 504.476 58.0615C504.469 58.3726 504.71 58.6138 505.364 58.7471L506.596 59.001C507.935 59.2803 508.583 59.877 508.589 60.8672C508.583 62.2256 507.364 63.1333 505.529 63.1396C503.669 63.1333 502.578 62.3018 502.419 60.9561H504.311C504.399 61.4956 504.837 61.7749 505.529 61.7812C506.215 61.7749 506.672 61.502 506.672 61.0576C506.672 60.7021 506.38 60.48 505.732 60.3467L504.59 60.1182C503.276 59.8579 502.603 59.1851 502.609 58.1631C502.603 56.8428 503.739 56.0176 505.517 56.0176C507.256 56.0176 508.335 56.8428 508.437 58.1504H506.672ZM512.867 63.1396C510.753 63.1333 509.458 61.7686 509.465 59.585C509.458 57.4585 510.772 56.0176 512.791 56.0176C514.6 56.0176 516.028 57.1602 516.028 59.5088V60.042H511.318C511.318 61.083 511.934 61.7241 512.905 61.7305C513.546 61.7241 514.003 61.4448 514.188 61.0322H515.978C515.711 62.3081 514.568 63.1333 512.867 63.1396ZM511.318 58.8613H514.251C514.245 58.0234 513.667 57.4204 512.829 57.4268C511.966 57.4204 511.356 58.0679 511.318 58.8613ZM520.307 63.1396C518.193 63.1333 516.923 61.6733 516.93 59.5723C516.923 57.4648 518.218 56.0176 520.307 56.0176C522.084 56.0176 523.29 57.0522 523.366 58.6328H521.602C521.487 57.9536 521.043 57.4839 520.332 57.4775C519.431 57.4839 518.834 58.2393 518.834 59.5469C518.834 60.8799 519.418 61.6416 520.332 61.6416C520.992 61.6416 521.481 61.229 521.602 60.499H523.366C523.284 62.0605 522.135 63.1333 520.307 63.1396ZM527.632 63.1396C525.55 63.1333 524.249 61.7051 524.255 59.5723C524.249 57.4458 525.55 56.0176 527.632 56.0176C529.72 56.0176 531.015 57.4458 531.021 59.5723C531.015 61.7051 529.72 63.1333 527.632 63.1396ZM526.159 59.5723C526.159 60.7783 526.661 61.6733 527.645 61.6797C528.603 61.6733 529.111 60.7783 529.104 59.5723C529.111 58.3599 528.603 57.4521 527.645 57.4521C526.661 57.4521 526.159 58.3599 526.159 59.5723ZM534.081 59.0137V63H532.202V56.1064H533.992V57.3125H534.068C534.379 56.519 535.116 56.0176 536.138 56.0176C537.579 56.0176 538.518 57.0015 538.512 58.6074V63H536.646V58.9375C536.639 58.0869 536.182 57.5791 535.401 57.5791C534.621 57.5791 534.081 58.106 534.081 59.0137ZM542.511 63.1143C540.937 63.1143 539.705 61.8638 539.705 59.5596C539.705 57.1982 540.987 56.0176 542.511 56.0176C543.666 56.0176 544.218 56.7031 544.466 57.2617H544.529V53.8086H546.408V63H544.555V61.8955H544.466C544.206 62.4668 543.634 63.1143 542.511 63.1143ZM541.635 59.5469C541.628 60.7656 542.143 61.6099 543.095 61.6162C544.034 61.6099 544.567 60.791 544.567 59.5469C544.567 58.3091 544.041 57.5156 543.095 57.5156C542.136 57.5156 541.628 58.3472 541.635 59.5469ZM547.589 61.0703C547.595 59.5342 548.827 59.0327 550.153 58.9502C550.648 58.9185 551.575 58.874 551.867 58.8613V58.3027C551.861 57.7251 551.467 57.395 550.763 57.3887C550.122 57.395 549.722 57.6807 549.62 58.1504H547.83C547.944 56.957 548.985 56.0176 550.813 56.0176C552.318 56.0176 553.74 56.6904 553.733 58.3535V63H551.956V62.0479H551.905C551.569 62.6826 550.909 63.1333 549.887 63.127C548.566 63.1333 547.595 62.4351 547.589 61.0703ZM549.392 61.0195C549.392 61.5464 549.817 61.8257 550.42 61.832C551.277 61.8257 551.874 61.2671 551.867 60.5371V60.0356C551.582 60.0483 550.775 60.0928 550.458 60.1182C549.804 60.1753 549.392 60.4863 549.392 61.0195ZM555.168 63V56.1064H556.983V57.2998H557.06C557.307 56.4556 557.948 56.0049 558.723 56.0049C558.913 56.0049 559.154 56.0303 559.319 56.0684V57.7441C559.142 57.687 558.78 57.6426 558.52 57.6426C557.669 57.6426 557.041 58.2329 557.047 59.0771V63H555.168ZM561.554 65.5898C561.186 65.5835 560.843 65.5771 560.602 65.5518V64.0918C560.843 64.1108 561.128 64.1172 561.363 64.1172C561.738 64.1172 562.036 64.0791 562.265 63.4824L562.379 63.1904L559.903 56.1064H561.871L563.318 61.1846H563.395L564.854 56.1064H566.848L564.156 63.7617C563.763 64.8726 563.007 65.5835 561.554 65.5898Z" fill="white"/>
<path d="M505.961 83L506.348 80.6562H504.215L503.828 83H502.973L503.359 80.6562H502.105L502.246 79.8125H503.494L503.846 77.7031H502.609L502.738 76.8594H503.98L504.367 74.5156H505.223L504.836 76.8594H506.969L507.355 74.5156H508.211L507.824 76.8594H509.09L508.949 77.7031H507.689L507.338 79.8125H508.586L508.445 80.6562H507.203L506.816 83H505.961ZM504.35 79.8125H506.482L506.834 77.7031H504.701L504.35 79.8125ZM512.992 74.5156V83H511.926V75.6172H511.879L509.816 76.9883V75.9219L511.926 74.5156H512.992ZM515.77 83H514.668L517.773 74.5156H518.887L521.992 83H520.879L520.029 80.6094H516.619L515.77 83ZM516.941 79.6836H519.707L518.359 75.8867H518.289L516.941 79.6836ZM525.836 83.1172C524.049 83.1172 522.818 82.127 522.824 80.75C522.818 79.6543 523.58 78.7461 524.547 78.5938V78.5469C523.703 78.3535 523.146 77.5742 523.152 76.6484C523.146 75.3535 524.283 74.3984 525.836 74.3984C527.383 74.3984 528.52 75.3535 528.531 76.6484C528.52 77.5742 527.957 78.3535 527.125 78.5469V78.5938C528.086 78.7461 528.848 79.6543 528.859 80.75C528.848 82.127 527.605 83.1172 525.836 83.1172ZM523.879 80.6914C523.861 81.582 524.617 82.1855 525.836 82.1914C527.049 82.1855 527.805 81.582 527.805 80.6914C527.805 79.7539 526.979 79.0625 525.836 79.0625C524.699 79.0625 523.861 79.7539 523.879 80.6914ZM524.172 76.7305C524.178 77.5859 524.863 78.166 525.836 78.1719C526.803 78.166 527.5 77.5859 527.5 76.7305C527.5 75.8809 526.826 75.3066 525.836 75.3125C524.828 75.3066 524.178 75.8809 524.172 76.7305ZM533.055 83H530.418V74.5156H533.16C535.639 74.5156 537.098 76.1035 537.098 78.7461C537.098 81.3945 535.639 83 533.055 83ZM531.473 82.0625H532.984C535.064 82.0625 536.066 80.8027 536.066 78.7461C536.066 76.6953 535.064 75.4531 533.09 75.4531H531.473V82.0625ZM538.645 83V74.5156H543.754V75.4531H539.699V78.2891H543.367V79.2148H539.699V83H538.645ZM545.324 83V74.5156H550.434V75.4531H546.379V78.2891H550.047V79.2148H546.379V83H545.324Z" fill="white" fill-opacity="0.78"/>
<rect x="645.332" width="155.333" height="100" rx="10" fill="#0073DD"/>
<path d="M666.004 58.1504C665.921 57.668 665.502 57.3569 664.874 57.3506C664.265 57.3569 663.801 57.6426 663.808 58.0615C663.801 58.3726 664.042 58.6138 664.696 58.7471L665.928 59.001C667.267 59.2803 667.915 59.877 667.921 60.8672C667.915 62.2256 666.696 63.1333 664.861 63.1396C663.001 63.1333 661.91 62.3018 661.751 60.9561H663.643C663.731 61.4956 664.169 61.7749 664.861 61.7812C665.547 61.7749 666.004 61.502 666.004 61.0576C666.004 60.7021 665.712 60.48 665.064 60.3467L663.922 60.1182C662.608 59.8579 661.935 59.1851 661.941 58.1631C661.935 56.8428 663.071 56.0176 664.849 56.0176C666.588 56.0176 667.667 56.8428 667.769 58.1504H666.004ZM672.199 63.1396C670.085 63.1333 668.791 61.7686 668.797 59.585C668.791 57.4585 670.104 56.0176 672.123 56.0176C673.932 56.0176 675.36 57.1602 675.36 59.5088V60.042H670.65C670.65 61.083 671.266 61.7241 672.237 61.7305C672.878 61.7241 673.335 61.4448 673.52 61.0322H675.31C675.043 62.3081 673.9 63.1333 672.199 63.1396ZM670.65 58.8613H673.583C673.577 58.0234 672.999 57.4204 672.161 57.4268C671.298 57.4204 670.688 58.0679 670.65 58.8613ZM679.639 63.1396C677.525 63.1333 676.255 61.6733 676.262 59.5723C676.255 57.4648 677.55 56.0176 679.639 56.0176C681.416 56.0176 682.622 57.0522 682.698 58.6328H680.934C680.819 57.9536 680.375 57.4839 679.664 57.4775C678.763 57.4839 678.166 58.2393 678.166 59.5469C678.166 60.8799 678.75 61.6416 679.664 61.6416C680.324 61.6416 680.813 61.229 680.934 60.499H682.698C682.616 62.0605 681.467 63.1333 679.639 63.1396ZM686.964 63.1396C684.882 63.1333 683.581 61.7051 683.587 59.5723C683.581 57.4458 684.882 56.0176 686.964 56.0176C689.052 56.0176 690.347 57.4458 690.354 59.5723C690.347 61.7051 689.052 63.1333 686.964 63.1396ZM685.491 59.5723C685.491 60.7783 685.993 61.6733 686.977 61.6797C687.935 61.6733 688.443 60.7783 688.437 59.5723C688.443 58.3599 687.935 57.4521 686.977 57.4521C685.993 57.4521 685.491 58.3599 685.491 59.5723ZM693.413 59.0137V63H691.534V56.1064H693.324V57.3125H693.4C693.711 56.519 694.448 56.0176 695.47 56.0176C696.911 56.0176 697.85 57.0015 697.844 58.6074V63H695.978V58.9375C695.971 58.0869 695.514 57.5791 694.733 57.5791C693.953 57.5791 693.413 58.106 693.413 59.0137ZM701.843 63.1143C700.269 63.1143 699.037 61.8638 699.037 59.5596C699.037 57.1982 700.319 56.0176 701.843 56.0176C702.998 56.0176 703.55 56.7031 703.798 57.2617H703.861V53.8086H705.74V63H703.887V61.8955H703.798C703.538 62.4668 702.966 63.1143 701.843 63.1143ZM700.967 59.5469C700.96 60.7656 701.475 61.6099 702.427 61.6162C703.366 61.6099 703.899 60.791 703.899 59.5469C703.899 58.3091 703.373 57.5156 702.427 57.5156C701.468 57.5156 700.96 58.3472 700.967 59.5469ZM706.921 61.0703C706.927 59.5342 708.159 59.0327 709.485 58.9502C709.98 58.9185 710.907 58.874 711.199 58.8613V58.3027C711.193 57.7251 710.799 57.395 710.095 57.3887C709.454 57.395 709.054 57.6807 708.952 58.1504H707.162C707.276 56.957 708.317 56.0176 710.146 56.0176C711.65 56.0176 713.072 56.6904 713.065 58.3535V63H711.288V62.0479H711.237C710.901 62.6826 710.241 63.1333 709.219 63.127C707.898 63.1333 706.927 62.4351 706.921 61.0703ZM708.724 61.0195C708.724 61.5464 709.149 61.8257 709.752 61.832C710.609 61.8257 711.206 61.2671 711.199 60.5371V60.0356C710.914 60.0483 710.107 60.0928 709.79 60.1182C709.136 60.1753 708.724 60.4863 708.724 61.0195ZM714.5 63V56.1064H716.315V57.2998H716.392C716.639 56.4556 717.28 56.0049 718.055 56.0049C718.245 56.0049 718.486 56.0303 718.651 56.0684V57.7441C718.474 57.687 718.112 57.6426 717.852 57.6426C717.001 57.6426 716.373 58.2329 716.379 59.0771V63H714.5ZM720.886 65.5898C720.518 65.5835 720.175 65.5771 719.934 65.5518V64.0918C720.175 64.1108 720.46 64.1172 720.695 64.1172C721.07 64.1172 721.368 64.0791 721.597 63.4824L721.711 63.1904L719.235 56.1064H721.203L722.65 61.1846H722.727L724.187 56.1064H726.18L723.488 63.7617C723.095 64.8726 722.339 65.5835 720.886 65.5898ZM730.077 63L730.064 61.6162L733.365 58.582C734.222 57.7632 734.686 57.2554 734.686 56.5254C734.686 55.7065 734.07 55.1987 733.226 55.2051C732.362 55.1987 731.797 55.7446 731.804 56.627H729.988C729.982 54.8306 731.315 53.6816 733.251 53.6816C735.219 53.6816 736.526 54.8052 736.526 56.3984C736.526 57.4458 736.019 58.3027 734.127 60.0166L732.73 61.375V61.4258H736.653V63H730.077ZM741.579 63.127C739.275 63.127 737.885 61.4131 737.885 58.4043C737.885 55.4019 739.288 53.6816 741.579 53.6816C743.871 53.6816 745.273 55.4019 745.273 58.4043C745.273 61.4258 743.877 63.127 741.579 63.127ZM739.84 58.4043C739.827 60.5244 740.513 61.5527 741.579 61.5527C742.646 61.5527 743.325 60.5244 743.318 58.4043C743.325 56.3032 742.639 55.2495 741.579 55.2432C740.519 55.2495 739.84 56.3032 739.84 58.4043Z" fill="white"/>
<path d="M665.293 83L665.68 80.6562H663.547L663.16 83H662.305L662.691 80.6562H661.438L661.578 79.8125H662.826L663.178 77.7031H661.941L662.07 76.8594H663.312L663.699 74.5156H664.555L664.168 76.8594H666.301L666.688 74.5156H667.543L667.156 76.8594H668.422L668.281 77.7031H667.021L666.67 79.8125H667.918L667.777 80.6562H666.535L666.148 83H665.293ZM663.682 79.8125H665.814L666.166 77.7031H664.033L663.682 79.8125ZM672.102 83.1172C670.221 83.1172 669.131 81.5352 669.137 78.7578C669.131 76.0039 670.232 74.3984 672.102 74.3984C673.965 74.3984 675.066 76.0039 675.066 78.7578C675.066 81.5352 673.982 83.1172 672.102 83.1172ZM670.156 78.7578C670.162 80.9551 670.871 82.1797 672.102 82.1797C673.326 82.1797 674.041 80.9551 674.035 78.7578C674.041 76.5605 673.32 75.3184 672.102 75.3125C670.883 75.3184 670.162 76.5605 670.156 78.7578ZM679.25 83.1172C677.369 83.1172 676.279 81.5352 676.285 78.7578C676.279 76.0039 677.381 74.3984 679.25 74.3984C681.113 74.3984 682.215 76.0039 682.215 78.7578C682.215 81.5352 681.131 83.1172 679.25 83.1172ZM677.305 78.7578C677.311 80.9551 678.02 82.1797 679.25 82.1797C680.475 82.1797 681.189 80.9551 681.184 78.7578C681.189 76.5605 680.469 75.3184 679.25 75.3125C678.031 75.3184 677.311 76.5605 677.305 78.7578ZM683.656 83L687.547 75.5117V75.4531H683.059V74.5156H688.637V75.5L684.758 83H683.656ZM692.738 83.1172C691.051 83.1172 689.838 82.2148 689.785 80.8672H690.852C690.91 81.6758 691.713 82.1797 692.727 82.1797C693.846 82.1797 694.654 81.5762 694.66 80.6914C694.654 79.7656 693.916 79.1152 692.598 79.1094H691.906V78.1836H692.598C693.629 78.1836 694.35 77.6035 694.344 76.7305C694.35 75.8809 693.729 75.3184 692.762 75.3125C691.854 75.3184 691.027 75.8164 690.98 76.6484H689.961C690.014 75.3008 691.268 74.3984 692.773 74.3984C694.391 74.3984 695.375 75.459 695.363 76.6719C695.375 77.6387 694.812 78.3418 693.922 78.5938V78.6523C695.029 78.8223 695.697 79.6133 695.691 80.6914C695.697 82.0859 694.432 83.1172 692.738 83.1172ZM699.992 83H697.355V74.5156H700.098C702.576 74.5156 704.035 76.1035 704.035 78.7461C704.035 81.3945 702.576 83 699.992 83ZM698.41 82.0625H699.922C702.002 82.0625 703.004 80.8027 703.004 78.7461C703.004 76.6953 702.002 75.4531 700.027 75.4531H698.41V82.0625ZM708.219 83H705.582V74.5156H708.324C710.803 74.5156 712.262 76.1035 712.262 78.7461C712.262 81.3945 710.803 83 708.219 83ZM706.637 82.0625H708.148C710.229 82.0625 711.23 80.8027 711.23 78.7461C711.23 76.6953 710.229 75.4531 708.254 75.4531H706.637V82.0625Z" fill="white" fill-opacity="0.78"/>
<rect x="804.668" width="155.333" height="100" rx="10" fill="#0066C5"/>
<path d="M825.34 58.1504C825.257 57.668 824.838 57.3569 824.21 57.3506C823.601 57.3569 823.137 57.6426 823.144 58.0615C823.137 58.3726 823.378 58.6138 824.032 58.7471L825.264 59.001C826.603 59.2803 827.25 59.877 827.257 60.8672C827.25 62.2256 826.032 63.1333 824.197 63.1396C822.337 63.1333 821.246 62.3018 821.087 60.9561H822.979C823.067 61.4956 823.505 61.7749 824.197 61.7812C824.883 61.7749 825.34 61.502 825.34 61.0576C825.34 60.7021 825.048 60.48 824.4 60.3467L823.258 60.1182C821.944 59.8579 821.271 59.1851 821.277 58.1631C821.271 56.8428 822.407 56.0176 824.185 56.0176C825.924 56.0176 827.003 56.8428 827.104 58.1504H825.34ZM831.535 63.1396C829.421 63.1333 828.126 61.7686 828.133 59.585C828.126 57.4585 829.44 56.0176 831.459 56.0176C833.268 56.0176 834.696 57.1602 834.696 59.5088V60.042H829.986C829.986 61.083 830.602 61.7241 831.573 61.7305C832.214 61.7241 832.671 61.4448 832.855 61.0322H834.646C834.379 62.3081 833.236 63.1333 831.535 63.1396ZM829.986 58.8613H832.919C832.913 58.0234 832.335 57.4204 831.497 57.4268C830.634 57.4204 830.024 58.0679 829.986 58.8613ZM838.975 63.1396C836.861 63.1333 835.591 61.6733 835.598 59.5723C835.591 57.4648 836.886 56.0176 838.975 56.0176C840.752 56.0176 841.958 57.0522 842.034 58.6328H840.27C840.155 57.9536 839.711 57.4839 839 57.4775C838.099 57.4839 837.502 58.2393 837.502 59.5469C837.502 60.8799 838.086 61.6416 839 61.6416C839.66 61.6416 840.149 61.229 840.27 60.499H842.034C841.952 62.0605 840.803 63.1333 838.975 63.1396ZM846.3 63.1396C844.218 63.1333 842.917 61.7051 842.923 59.5723C842.917 57.4458 844.218 56.0176 846.3 56.0176C848.388 56.0176 849.683 57.4458 849.689 59.5723C849.683 61.7051 848.388 63.1333 846.3 63.1396ZM844.827 59.5723C844.827 60.7783 845.329 61.6733 846.312 61.6797C847.271 61.6733 847.779 60.7783 847.772 59.5723C847.779 58.3599 847.271 57.4521 846.312 57.4521C845.329 57.4521 844.827 58.3599 844.827 59.5723ZM852.749 59.0137V63H850.87V56.1064H852.66V57.3125H852.736C853.047 56.519 853.784 56.0176 854.806 56.0176C856.247 56.0176 857.186 57.0015 857.18 58.6074V63H855.313V58.9375C855.307 58.0869 854.85 57.5791 854.069 57.5791C853.289 57.5791 852.749 58.106 852.749 59.0137ZM861.179 63.1143C859.604 63.1143 858.373 61.8638 858.373 59.5596C858.373 57.1982 859.655 56.0176 861.179 56.0176C862.334 56.0176 862.886 56.7031 863.134 57.2617H863.197V53.8086H865.076V63H863.223V61.8955H863.134C862.874 62.4668 862.302 63.1143 861.179 63.1143ZM860.303 59.5469C860.296 60.7656 860.811 61.6099 861.763 61.6162C862.702 61.6099 863.235 60.791 863.235 59.5469C863.235 58.3091 862.708 57.5156 861.763 57.5156C860.804 57.5156 860.296 58.3472 860.303 59.5469ZM866.257 61.0703C866.263 59.5342 867.495 59.0327 868.821 58.9502C869.316 58.9185 870.243 58.874 870.535 58.8613V58.3027C870.529 57.7251 870.135 57.395 869.431 57.3887C868.79 57.395 868.39 57.6807 868.288 58.1504H866.498C866.612 56.957 867.653 56.0176 869.481 56.0176C870.986 56.0176 872.408 56.6904 872.401 58.3535V63H870.624V62.0479H870.573C870.237 62.6826 869.577 63.1333 868.555 63.127C867.234 63.1333 866.263 62.4351 866.257 61.0703ZM868.06 61.0195C868.06 61.5464 868.485 61.8257 869.088 61.832C869.945 61.8257 870.542 61.2671 870.535 60.5371V60.0356C870.25 60.0483 869.443 60.0928 869.126 60.1182C868.472 60.1753 868.06 60.4863 868.06 61.0195ZM873.836 63V56.1064H875.651V57.2998H875.728C875.975 56.4556 876.616 56.0049 877.391 56.0049C877.581 56.0049 877.822 56.0303 877.987 56.0684V57.7441C877.81 57.687 877.448 57.6426 877.188 57.6426C876.337 57.6426 875.708 58.2329 875.715 59.0771V63H873.836ZM880.222 65.5898C879.854 65.5835 879.511 65.5771 879.27 65.5518V64.0918C879.511 64.1108 879.796 64.1172 880.031 64.1172C880.406 64.1172 880.704 64.0791 880.933 63.4824L881.047 63.1904L878.571 56.1064H880.539L881.986 61.1846H882.062L883.522 56.1064H885.516L882.824 63.7617C882.431 64.8726 881.675 65.5835 880.222 65.5898ZM892.815 63.127C890.797 63.127 889.35 62.0161 889.312 60.4102H891.241C891.273 61.0957 891.939 61.5464 892.828 61.5527C893.742 61.5464 894.396 61.0386 894.39 60.2959C894.396 59.5469 893.729 59.02 892.65 59.0137H891.8V57.6045H892.65C893.558 57.6045 894.193 57.1094 894.187 56.3857C894.193 55.6812 893.653 55.1987 892.841 55.2051C892.028 55.1987 891.362 55.6558 891.33 56.3604H889.502C889.534 54.7798 890.956 53.6816 892.841 53.6816C894.758 53.6816 896.034 54.8179 896.027 56.2715C896.034 57.2998 895.316 58.0298 894.288 58.2139V58.29C895.64 58.4551 896.383 59.2739 896.37 60.4229C896.383 61.9971 894.891 63.127 892.815 63.127ZM901.283 63.127C898.979 63.127 897.589 61.4131 897.589 58.4043C897.589 55.4019 898.992 53.6816 901.283 53.6816C903.575 53.6816 904.978 55.4019 904.978 58.4043C904.978 61.4258 903.581 63.127 901.283 63.127ZM899.544 58.4043C899.531 60.5244 900.217 61.5527 901.283 61.5527C902.35 61.5527 903.029 60.5244 903.022 58.4043C903.029 56.3032 902.343 55.2495 901.283 55.2432C900.223 55.2495 899.544 56.3032 899.544 58.4043Z" fill="white"/>
<path d="M824.629 83L825.016 80.6562H822.883L822.496 83H821.641L822.027 80.6562H820.773L820.914 79.8125H822.162L822.514 77.7031H821.277L821.406 76.8594H822.648L823.035 74.5156H823.891L823.504 76.8594H825.637L826.023 74.5156H826.879L826.492 76.8594H827.758L827.617 77.7031H826.357L826.006 79.8125H827.254L827.113 80.6562H825.871L825.484 83H824.629ZM823.018 79.8125H825.15L825.502 77.7031H823.369L823.018 79.8125ZM831.438 83.1172C829.557 83.1172 828.467 81.5352 828.473 78.7578C828.467 76.0039 829.568 74.3984 831.438 74.3984C833.301 74.3984 834.402 76.0039 834.402 78.7578C834.402 81.5352 833.318 83.1172 831.438 83.1172ZM829.492 78.7578C829.498 80.9551 830.207 82.1797 831.438 82.1797C832.662 82.1797 833.377 80.9551 833.371 78.7578C833.377 76.5605 832.656 75.3184 831.438 75.3125C830.219 75.3184 829.498 76.5605 829.492 78.7578ZM838.586 83.1172C836.705 83.1172 835.615 81.5352 835.621 78.7578C835.615 76.0039 836.717 74.3984 838.586 74.3984C840.449 74.3984 841.551 76.0039 841.551 78.7578C841.551 81.5352 840.467 83.1172 838.586 83.1172ZM836.641 78.7578C836.646 80.9551 837.355 82.1797 838.586 82.1797C839.811 82.1797 840.525 80.9551 840.52 78.7578C840.525 76.5605 839.805 75.3184 838.586 75.3125C837.367 75.3184 836.646 76.5605 836.641 78.7578ZM845.91 83.1172C844.439 83.0996 842.816 82.2266 842.816 79.0859C842.816 76.0801 844.047 74.3984 846.039 74.3984C847.533 74.3984 848.576 75.3184 848.793 76.6484H847.75C847.557 75.8984 846.982 75.3359 846.039 75.3359C844.645 75.3359 843.807 76.5254 843.812 78.5703H843.918C844.404 77.8613 845.184 77.4453 846.098 77.4453C847.604 77.4453 848.863 78.6172 848.863 80.2578C848.863 81.8574 847.697 83.1348 845.91 83.1172ZM843.953 80.2812C843.959 81.2773 844.773 82.1855 845.91 82.1914C847.006 82.1855 847.838 81.3242 847.844 80.2695C847.838 79.2266 847.041 78.377 845.934 78.3711C844.82 78.377 843.965 79.2793 843.953 80.2812ZM853.27 83.1172C851.799 83.0996 850.176 82.2266 850.176 79.0859C850.176 76.0801 851.406 74.3984 853.398 74.3984C854.893 74.3984 855.936 75.3184 856.152 76.6484H855.109C854.916 75.8984 854.342 75.3359 853.398 75.3359C852.004 75.3359 851.166 76.5254 851.172 78.5703H851.277C851.764 77.8613 852.543 77.4453 853.457 77.4453C854.963 77.4453 856.223 78.6172 856.223 80.2578C856.223 81.8574 855.057 83.1348 853.27 83.1172ZM851.312 80.2812C851.318 81.2773 852.133 82.1855 853.27 82.1914C854.365 82.1855 855.197 81.3242 855.203 80.2695C855.197 79.2266 854.4 78.377 853.293 78.3711C852.18 78.377 851.324 79.2793 851.312 80.2812ZM863.605 77.1875C863.359 76.0156 862.357 75.3828 861.238 75.3828C859.703 75.3828 858.514 76.5664 858.508 78.7578C858.514 80.9434 859.703 82.127 861.238 82.1328C862.357 82.127 863.354 81.5 863.605 80.3398H864.66C864.355 82.0742 862.961 83.1172 861.238 83.1172C859.059 83.1172 857.482 81.4414 857.488 78.7578C857.482 76.0742 859.059 74.3984 861.238 74.3984C862.955 74.3984 864.344 75.4238 864.66 77.1875H863.605ZM868.762 83.1172C867.232 83.1172 866.072 82.1738 866.008 80.8672H867.027C867.104 81.623 867.842 82.1855 868.762 82.1914C869.863 82.1855 870.66 81.3828 870.66 80.3164C870.66 79.2148 869.834 78.4004 868.691 78.3945C867.977 78.3828 867.42 78.6055 867.109 79.1562H866.09L866.688 74.5156H871.281V75.4531H867.566L867.25 77.9375H867.332C867.713 77.6445 868.281 77.4453 868.879 77.4453C870.496 77.4453 871.686 78.6406 871.691 80.293C871.686 81.9336 870.455 83.1172 868.762 83.1172Z" fill="white" fill-opacity="0.78"/>
<rect y="112" width="187.2" height="100" rx="10" fill="#F7F7F7"/>
<path d="M22.4688 131.223C22.1934 130.32 21.4961 129.77 20.4648 129.77C19.0996 129.77 18.1035 130.836 18.1094 132.746C18.1035 134.674 19.082 135.746 20.5 135.746C21.7832 135.746 22.5977 134.973 22.6211 133.766H20.6523V132.559H24.0977V133.578C24.0977 135.764 22.5977 137.117 20.5 137.117C18.1562 137.117 16.5684 135.447 16.5742 132.758C16.5684 130.033 18.2324 128.398 20.4531 128.398C22.3223 128.398 23.7695 129.559 24.0273 131.223H22.4688ZM25.4102 137V130.637H26.8633V131.691H26.9336C27.1621 130.959 27.7715 130.543 28.5039 130.543C28.668 130.543 28.9023 130.561 29.043 130.578V131.961C28.9082 131.914 28.5977 131.873 28.3516 131.867C27.5195 131.873 26.9102 132.447 26.9102 133.25V137H25.4102ZM29.5234 135.207C29.5234 133.777 30.7129 133.361 31.8906 133.285C32.3359 133.25 33.2441 133.209 33.5254 133.197L33.5195 132.688C33.5195 132.055 33.1152 131.691 32.3711 131.691C31.7031 131.691 31.293 131.996 31.1758 132.453H29.7344C29.8398 131.369 30.8125 130.555 32.4062 130.555C33.6133 130.555 35.0078 131.053 35.0078 132.746V137H33.5781V136.121H33.5312C33.25 136.66 32.6582 137.129 31.6562 137.129C30.4434 137.129 29.5234 136.467 29.5234 135.207ZM30.9648 135.195C30.9648 135.746 31.416 136.027 32.043 136.027C32.9512 136.027 33.5312 135.43 33.5312 134.715L33.5254 134.193C33.2559 134.205 32.4238 134.258 32.125 134.281C31.416 134.34 30.9648 134.639 30.9648 135.195ZM37.082 139.391C36.7832 139.385 36.502 139.379 36.3086 139.355V138.16C36.4902 138.178 36.7422 138.178 36.9414 138.184C37.3047 138.178 37.6094 138.154 37.8672 137.469L37.9961 137.129L35.6758 130.637H37.2578L38.7344 135.441H38.8047L40.2812 130.637H41.8633L39.3086 137.773C38.9453 138.787 38.2773 139.385 37.082 139.391Z" fill="black" fill-opacity="0.32"/>
<path d="M20.6846 165.809V175H18.7676V167.624H18.7168L16.6094 168.944V167.256L18.8818 165.809H20.6846ZM26.3848 175.127C24.0806 175.127 22.6904 173.413 22.6904 170.404C22.6904 167.402 24.0933 165.682 26.3848 165.682C28.6763 165.682 30.0791 167.402 30.0791 170.404C30.0791 173.426 28.6826 175.127 26.3848 175.127ZM24.6455 170.404C24.6328 172.524 25.3184 173.553 26.3848 173.553C27.4512 173.553 28.1304 172.524 28.124 170.404C28.1304 168.303 27.4448 167.25 26.3848 167.243C25.3247 167.25 24.6455 168.303 24.6455 170.404Z" fill="black"/>
<path d="M19.9609 195L20.3477 192.656H18.2148L17.8281 195H16.9727L17.3594 192.656H16.1055L16.2461 191.812H17.4941L17.8457 189.703H16.6094L16.7383 188.859H17.9805L18.3672 186.516H19.2227L18.8359 188.859H20.9688L21.3555 186.516H22.2109L21.8242 188.859H23.0898L22.9492 189.703H21.6895L21.3379 191.812H22.5859L22.4453 192.656H21.2031L20.8164 195H19.9609ZM18.3496 191.812H20.4824L20.834 189.703H18.7012L18.3496 191.812ZM24.1328 195V186.516H29.2422V187.453H25.1875V190.289H28.8555V191.215H25.1875V195H24.1328ZM30.9414 195L34.832 187.512V187.453H30.3438V186.516H35.9219V187.5L32.043 195H30.9414ZM37.4336 195V186.516H42.543V187.453H38.4883V190.289H42.1562V191.215H38.4883V195H37.4336ZM44.2422 195L48.1328 187.512V187.453H43.6445V186.516H49.2227V187.5L45.3438 195H44.2422ZM50.7344 195V186.516H55.8438V187.453H51.7891V190.289H55.457V191.215H51.7891V195H50.7344ZM57.543 195L61.4336 187.512V187.453H56.9453V186.516H62.5234V187.5L58.6445 195H57.543Z" fill="black" fill-opacity="0.56"/>
<rect x="193.199" y="112" width="187.2" height="100" rx="10" fill="#DBDBDB"/>
<path d="M209.923 175L209.91 173.616L213.211 170.582C214.068 169.763 214.531 169.255 214.531 168.525C214.531 167.707 213.916 167.199 213.071 167.205C212.208 167.199 211.643 167.745 211.649 168.627H209.834C209.828 166.831 211.161 165.682 213.097 165.682C215.064 165.682 216.372 166.805 216.372 168.398C216.372 169.446 215.864 170.303 213.973 172.017L212.576 173.375V173.426H216.499V175H209.923ZM221.425 175.127C219.121 175.127 217.73 173.413 217.73 170.404C217.73 167.402 219.133 165.682 221.425 165.682C223.716 165.682 225.119 167.402 225.119 170.404C225.119 173.426 223.723 175.127 221.425 175.127ZM219.686 170.404C219.673 172.524 220.358 173.553 221.425 173.553C222.491 173.553 223.17 172.524 223.164 170.404C223.17 168.303 222.485 167.25 221.425 167.243C220.365 167.25 219.686 168.303 219.686 170.404Z" fill="black"/>
<path d="M213.16 195L213.547 192.656H211.414L211.027 195H210.172L210.559 192.656H209.305L209.445 191.812H210.693L211.045 189.703H209.809L209.938 188.859H211.18L211.566 186.516H212.422L212.035 188.859H214.168L214.555 186.516H215.41L215.023 188.859H216.289L216.148 189.703H214.889L214.537 191.812H215.785L215.645 192.656H214.402L214.016 195H213.16ZM211.549 191.812H213.682L214.033 189.703H211.9L211.549 191.812ZM219.969 195H217.332V186.516H220.074C222.553 186.516 224.012 188.104 224.012 190.746C224.012 193.395 222.553 195 219.969 195ZM218.387 194.062H219.898C221.979 194.062 222.98 192.803 222.98 190.746C222.98 188.695 221.979 187.453 220.004 187.453H218.387V194.062ZM225.559 195V186.516H228.535C230.316 186.516 231.154 187.518 231.148 188.766C231.154 189.855 230.504 190.342 229.766 190.547V190.629C230.557 190.676 231.482 191.402 231.488 192.75C231.482 194.021 230.645 195 228.641 195H225.559ZM226.613 194.062H228.629C229.959 194.062 230.475 193.477 230.469 192.738C230.475 191.877 229.777 191.145 228.688 191.145H226.613V194.062ZM226.613 190.23H228.5C229.42 190.236 230.141 189.662 230.141 188.777C230.141 188.039 229.643 187.453 228.535 187.453H226.613V190.23ZM235.625 195H232.988V186.516H235.73C238.209 186.516 239.668 188.104 239.668 190.746C239.668 193.395 238.209 195 235.625 195ZM234.043 194.062H235.555C237.635 194.062 238.637 192.803 238.637 190.746C238.637 188.695 237.635 187.453 235.66 187.453H234.043V194.062ZM241.215 195V186.516H244.191C245.973 186.516 246.811 187.518 246.805 188.766C246.811 189.855 246.16 190.342 245.422 190.547V190.629C246.213 190.676 247.139 191.402 247.145 192.75C247.139 194.021 246.301 195 244.297 195H241.215ZM242.27 194.062H244.285C245.615 194.062 246.131 193.477 246.125 192.738C246.131 191.877 245.434 191.145 244.344 191.145H242.27V194.062ZM242.27 190.23H244.156C245.076 190.236 245.797 189.662 245.797 188.777C245.797 188.039 245.299 187.453 244.191 187.453H242.27V190.23ZM251.281 195H248.645V186.516H251.387C253.865 186.516 255.324 188.104 255.324 190.746C255.324 193.395 253.865 195 251.281 195ZM249.699 194.062H251.211C253.291 194.062 254.293 192.803 254.293 190.746C254.293 188.695 253.291 187.453 251.316 187.453H249.699V194.062ZM256.871 195V186.516H259.848C261.629 186.516 262.467 187.518 262.461 188.766C262.467 189.855 261.816 190.342 261.078 190.547V190.629C261.869 190.676 262.795 191.402 262.801 192.75C262.795 194.021 261.957 195 259.953 195H256.871ZM257.926 194.062H259.941C261.271 194.062 261.787 193.477 261.781 192.738C261.787 191.877 261.09 191.145 260 191.145H257.926V194.062ZM257.926 190.23H259.812C260.732 190.236 261.453 189.662 261.453 188.777C261.453 188.039 260.955 187.453 259.848 187.453H257.926V190.23Z" fill="black" fill-opacity="0.56"/>
<rect x="386.398" y="112" width="187.2" height="100" rx="10" fill="#A5A5A5"/>
<path d="M406.524 175.127C404.506 175.127 403.059 174.016 403.021 172.41H404.95C404.982 173.096 405.648 173.546 406.537 173.553C407.451 173.546 408.105 173.039 408.099 172.296C408.105 171.547 407.438 171.02 406.359 171.014H405.509V169.604H406.359C407.267 169.604 407.902 169.109 407.896 168.386C407.902 167.681 407.362 167.199 406.55 167.205C405.737 167.199 405.071 167.656 405.039 168.36H403.211C403.243 166.78 404.665 165.682 406.55 165.682C408.467 165.682 409.743 166.818 409.736 168.271C409.743 169.3 409.025 170.03 407.997 170.214V170.29C409.349 170.455 410.092 171.274 410.079 172.423C410.092 173.997 408.6 175.127 406.524 175.127ZM414.992 175.127C412.688 175.127 411.298 173.413 411.298 170.404C411.298 167.402 412.701 165.682 414.992 165.682C417.284 165.682 418.687 167.402 418.687 170.404C418.687 173.426 417.29 175.127 414.992 175.127ZM413.253 170.404C413.24 172.524 413.926 173.553 414.992 173.553C416.059 173.553 416.738 172.524 416.731 170.404C416.738 168.303 416.052 167.25 414.992 167.243C413.932 167.25 413.253 168.303 413.253 170.404Z" fill="black"/>
<path d="M406.359 195L406.746 192.656H404.613L404.227 195H403.371L403.758 192.656H402.504L402.645 191.812H403.893L404.244 189.703H403.008L403.137 188.859H404.379L404.766 186.516H405.621L405.234 188.859H407.367L407.754 186.516H408.609L408.223 188.859H409.488L409.348 189.703H408.088L407.736 191.812H408.984L408.844 192.656H407.602L407.215 195H406.359ZM404.748 191.812H406.881L407.232 189.703H405.1L404.748 191.812ZM410.906 195H409.805L412.91 186.516H414.023L417.129 195H416.016L415.166 192.609H411.756L410.906 195ZM412.078 191.684H414.844L413.496 187.887H413.426L412.078 191.684ZM420.902 195.117C419.373 195.117 418.213 194.174 418.148 192.867H419.168C419.244 193.623 419.982 194.186 420.902 194.191C422.004 194.186 422.801 193.383 422.801 192.316C422.801 191.215 421.975 190.4 420.832 190.395C420.117 190.383 419.561 190.605 419.25 191.156H418.23L418.828 186.516H423.422V187.453H419.707L419.391 189.938H419.473C419.854 189.645 420.422 189.445 421.02 189.445C422.637 189.445 423.826 190.641 423.832 192.293C423.826 193.934 422.596 195.117 420.902 195.117ZM425.812 195H424.711L427.816 186.516H428.93L432.035 195H430.922L430.072 192.609H426.662L425.812 195ZM426.984 191.684H429.75L428.402 187.887H428.332L426.984 191.684ZM435.809 195.117C434.279 195.117 433.119 194.174 433.055 192.867H434.074C434.15 193.623 434.889 194.186 435.809 194.191C436.91 194.186 437.707 193.383 437.707 192.316C437.707 191.215 436.881 190.4 435.738 190.395C435.023 190.383 434.467 190.605 434.156 191.156H433.137L433.734 186.516H438.328V187.453H434.613L434.297 189.938H434.379C434.76 189.645 435.328 189.445 435.926 189.445C437.543 189.445 438.732 190.641 438.738 192.293C438.732 193.934 437.502 195.117 435.809 195.117ZM440.719 195H439.617L442.723 186.516H443.836L446.941 195H445.828L444.979 192.609H441.568L440.719 195ZM441.891 191.684H444.656L443.309 187.887H443.238L441.891 191.684ZM450.715 195.117C449.186 195.117 448.025 194.174 447.961 192.867H448.98C449.057 193.623 449.795 194.186 450.715 194.191C451.816 194.186 452.613 193.383 452.613 192.316C452.613 191.215 451.787 190.4 450.645 190.395C449.93 190.383 449.373 190.605 449.062 191.156H448.043L448.641 186.516H453.234V187.453H449.52L449.203 189.938H449.285C449.666 189.645 450.234 189.445 450.832 189.445C452.449 189.445 453.639 190.641 453.645 192.293C453.639 193.934 452.408 195.117 450.715 195.117Z" fill="black" fill-opacity="0.56"/>
<rect x="579.602" y="112" width="187.2" height="100" rx="10" fill="#767676"/>
<path d="M596.173 173.375V171.864L600.058 165.809H602.457V171.839H603.625V173.375H602.457V175H600.642V173.375H596.173ZM598.103 171.839H600.667V167.903H600.578L598.103 171.763V171.839ZM608.437 175.127C606.132 175.127 604.742 173.413 604.742 170.404C604.742 167.402 606.145 165.682 608.437 165.682C610.728 165.682 612.131 167.402 612.131 170.404C612.131 173.426 610.734 175.127 608.437 175.127ZM606.697 170.404C606.685 172.524 607.37 173.553 608.437 173.553C609.503 173.553 610.182 172.524 610.176 170.404C610.182 168.303 609.497 167.25 608.437 167.243C607.376 167.25 606.697 168.303 606.697 170.404Z" fill="white"/>
<path d="M599.562 195L599.949 192.656H597.816L597.43 195H596.574L596.961 192.656H595.707L595.848 191.812H597.096L597.447 189.703H596.211L596.34 188.859H597.582L597.969 186.516H598.824L598.438 188.859H600.57L600.957 186.516H601.812L601.426 188.859H602.691L602.551 189.703H601.291L600.939 191.812H602.188L602.047 192.656H600.805L600.418 195H599.562ZM597.951 191.812H600.084L600.436 189.703H598.303L597.951 191.812ZM603.863 195L607.754 187.512V187.453H603.266V186.516H608.844V187.5L604.965 195H603.863ZM612.98 195.117C611.51 195.1 609.887 194.227 609.887 191.086C609.887 188.08 611.117 186.398 613.109 186.398C614.604 186.398 615.646 187.318 615.863 188.648H614.82C614.627 187.898 614.053 187.336 613.109 187.336C611.715 187.336 610.877 188.525 610.883 190.57H610.988C611.475 189.861 612.254 189.445 613.168 189.445C614.674 189.445 615.934 190.617 615.934 192.258C615.934 193.857 614.768 195.135 612.98 195.117ZM611.023 192.281C611.029 193.277 611.844 194.186 612.98 194.191C614.076 194.186 614.908 193.324 614.914 192.27C614.908 191.227 614.111 190.377 613.004 190.371C611.891 190.377 611.035 191.279 611.023 192.281ZM617.656 195L621.547 187.512V187.453H617.059V186.516H622.637V187.5L618.758 195H617.656ZM626.773 195.117C625.303 195.1 623.68 194.227 623.68 191.086C623.68 188.08 624.91 186.398 626.902 186.398C628.396 186.398 629.439 187.318 629.656 188.648H628.613C628.42 187.898 627.846 187.336 626.902 187.336C625.508 187.336 624.67 188.525 624.676 190.57H624.781C625.268 189.861 626.047 189.445 626.961 189.445C628.467 189.445 629.727 190.617 629.727 192.258C629.727 193.857 628.561 195.135 626.773 195.117ZM624.816 192.281C624.822 193.277 625.637 194.186 626.773 194.191C627.869 194.186 628.701 193.324 628.707 192.27C628.701 191.227 627.904 190.377 626.797 190.371C625.684 190.377 624.828 191.279 624.816 192.281ZM631.449 195L635.34 187.512V187.453H630.852V186.516H636.43V187.5L632.551 195H631.449ZM640.566 195.117C639.096 195.1 637.473 194.227 637.473 191.086C637.473 188.08 638.703 186.398 640.695 186.398C642.189 186.398 643.232 187.318 643.449 188.648H642.406C642.213 187.898 641.639 187.336 640.695 187.336C639.301 187.336 638.463 188.525 638.469 190.57H638.574C639.061 189.861 639.84 189.445 640.754 189.445C642.26 189.445 643.52 190.617 643.52 192.258C643.52 193.857 642.354 195.135 640.566 195.117ZM638.609 192.281C638.615 193.277 639.43 194.186 640.566 194.191C641.662 194.186 642.494 193.324 642.5 192.27C642.494 191.227 641.697 190.377 640.59 190.371C639.477 190.377 638.621 191.279 638.609 192.281Z" fill="white" fill-opacity="0.78"/>
<rect x="772.801" y="112" width="187.2" height="100" rx="10" fill="#333333"/>
<path d="M792.901 175.127C790.984 175.127 789.582 173.997 789.55 172.41H791.403C791.448 173.127 792.102 173.623 792.901 173.616C793.854 173.623 794.533 172.95 794.526 171.991C794.533 171.014 793.841 170.334 792.876 170.328C792.184 170.328 791.702 170.588 791.429 171.103H789.702L790.197 165.809H795.859V167.37H791.771L791.518 169.693H791.594C791.93 169.243 792.628 168.913 793.435 168.919C795.123 168.913 796.38 170.176 796.38 171.94C796.38 173.8 794.971 175.127 792.901 175.127ZM801.242 175.127C798.938 175.127 797.548 173.413 797.548 170.404C797.548 167.402 798.951 165.682 801.242 165.682C803.534 165.682 804.937 167.402 804.937 170.404C804.937 173.426 803.54 175.127 801.242 175.127ZM799.503 170.404C799.49 172.524 800.176 173.553 801.242 173.553C802.309 173.553 802.988 172.524 802.981 170.404C802.988 168.303 802.302 167.25 801.242 167.243C800.182 167.25 799.503 168.303 799.503 170.404Z" fill="white"/>
<path d="M792.762 195L793.148 192.656H791.016L790.629 195H789.773L790.16 192.656H788.906L789.047 191.812H790.295L790.646 189.703H789.41L789.539 188.859H790.781L791.168 186.516H792.023L791.637 188.859H793.77L794.156 186.516H795.012L794.625 188.859H795.891L795.75 189.703H794.49L794.139 191.812H795.387L795.246 192.656H794.004L793.617 195H792.762ZM791.15 191.812H793.283L793.635 189.703H791.502L791.15 191.812ZM799.723 195.117C798.035 195.117 796.822 194.215 796.77 192.867H797.836C797.895 193.676 798.697 194.18 799.711 194.18C800.83 194.18 801.639 193.576 801.645 192.691C801.639 191.766 800.9 191.115 799.582 191.109H798.891V190.184H799.582C800.613 190.184 801.334 189.604 801.328 188.73C801.334 187.881 800.713 187.318 799.746 187.312C798.838 187.318 798.012 187.816 797.965 188.648H796.945C796.998 187.301 798.252 186.398 799.758 186.398C801.375 186.398 802.359 187.459 802.348 188.672C802.359 189.639 801.797 190.342 800.906 190.594V190.652C802.014 190.822 802.682 191.613 802.676 192.691C802.682 194.086 801.416 195.117 799.723 195.117ZM807.129 195.117C805.441 195.117 804.229 194.215 804.176 192.867H805.242C805.301 193.676 806.104 194.18 807.117 194.18C808.236 194.18 809.045 193.576 809.051 192.691C809.045 191.766 808.307 191.115 806.988 191.109H806.297V190.184H806.988C808.02 190.184 808.74 189.604 808.734 188.73C808.74 187.881 808.119 187.318 807.152 187.312C806.244 187.318 805.418 187.816 805.371 188.648H804.352C804.404 187.301 805.658 186.398 807.164 186.398C808.781 186.398 809.766 187.459 809.754 188.672C809.766 189.639 809.203 190.342 808.312 190.594V190.652C809.42 190.822 810.088 191.613 810.082 192.691C810.088 194.086 808.822 195.117 807.129 195.117ZM814.535 195.117C812.848 195.117 811.635 194.215 811.582 192.867H812.648C812.707 193.676 813.51 194.18 814.523 194.18C815.643 194.18 816.451 193.576 816.457 192.691C816.451 191.766 815.713 191.115 814.395 191.109H813.703V190.184H814.395C815.426 190.184 816.146 189.604 816.141 188.73C816.146 187.881 815.525 187.318 814.559 187.312C813.65 187.318 812.824 187.816 812.777 188.648H811.758C811.811 187.301 813.064 186.398 814.57 186.398C816.188 186.398 817.172 187.459 817.16 188.672C817.172 189.639 816.609 190.342 815.719 190.594V190.652C816.826 190.822 817.494 191.613 817.488 192.691C817.494 194.086 816.229 195.117 814.535 195.117ZM821.941 195.117C820.254 195.117 819.041 194.215 818.988 192.867H820.055C820.113 193.676 820.916 194.18 821.93 194.18C823.049 194.18 823.857 193.576 823.863 192.691C823.857 191.766 823.119 191.115 821.801 191.109H821.109V190.184H821.801C822.832 190.184 823.553 189.604 823.547 188.73C823.553 187.881 822.932 187.318 821.965 187.312C821.057 187.318 820.23 187.816 820.184 188.648H819.164C819.217 187.301 820.471 186.398 821.977 186.398C823.594 186.398 824.578 187.459 824.566 188.672C824.578 189.639 824.016 190.342 823.125 190.594V190.652C824.232 190.822 824.9 191.613 824.895 192.691C824.9 194.086 823.635 195.117 821.941 195.117ZM829.348 195.117C827.66 195.117 826.447 194.215 826.395 192.867H827.461C827.52 193.676 828.322 194.18 829.336 194.18C830.455 194.18 831.264 193.576 831.27 192.691C831.264 191.766 830.525 191.115 829.207 191.109H828.516V190.184H829.207C830.238 190.184 830.959 189.604 830.953 188.73C830.959 187.881 830.338 187.318 829.371 187.312C828.463 187.318 827.637 187.816 827.59 188.648H826.57C826.623 187.301 827.877 186.398 829.383 186.398C831 186.398 831.984 187.459 831.973 188.672C831.984 189.639 831.422 190.342 830.531 190.594V190.652C831.639 190.822 832.307 191.613 832.301 192.691C832.307 194.086 831.041 195.117 829.348 195.117ZM836.754 195.117C835.066 195.117 833.854 194.215 833.801 192.867H834.867C834.926 193.676 835.729 194.18 836.742 194.18C837.861 194.18 838.67 193.576 838.676 192.691C838.67 191.766 837.932 191.115 836.613 191.109H835.922V190.184H836.613C837.645 190.184 838.365 189.604 838.359 188.73C838.365 187.881 837.744 187.318 836.777 187.312C835.869 187.318 835.043 187.816 834.996 188.648H833.977C834.029 187.301 835.283 186.398 836.789 186.398C838.406 186.398 839.391 187.459 839.379 188.672C839.391 189.639 838.828 190.342 837.938 190.594V190.652C839.045 190.822 839.713 191.613 839.707 192.691C839.713 194.086 838.447 195.117 836.754 195.117Z" fill="white" fill-opacity="0.78"/>
<rect y="224" width="316" height="100" rx="10" fill="#F9F9F9"/>
<path d="M16.7852 249V240.516H20.0312C21.8711 240.516 22.7793 241.453 22.7852 242.719C22.7793 243.75 22.1289 244.324 21.2969 244.523V244.605C22.1992 244.652 23.1133 245.402 23.1133 246.691C23.1133 248.01 22.1582 249 20.2188 249H16.7852ZM18.3086 247.723H19.9844C21.0977 247.723 21.5605 247.248 21.5664 246.574C21.5605 245.812 20.9688 245.232 20.0195 245.227H18.3086V247.723ZM18.3086 244.125H19.8438C20.6465 244.125 21.2559 243.662 21.2617 242.906C21.2559 242.256 20.7871 241.781 19.8789 241.781H18.3086V244.125ZM27.0625 251.52C25.375 251.52 24.3027 250.77 24.2031 249.574H25.6914C25.7969 250.131 26.3184 250.389 27.0859 250.395C27.9824 250.389 28.5625 250.002 28.5625 249.07V247.852H28.4922C28.2578 248.32 27.748 248.906 26.6523 248.906C25.1816 248.906 24.0273 247.84 24.0273 245.766C24.0273 243.674 25.1875 242.555 26.6641 242.555C27.7832 242.555 28.2578 243.229 28.4922 243.68H28.5625V242.637H30.0391V249.105C30.0391 250.734 28.7793 251.52 27.0625 251.52ZM25.5508 245.789C25.5508 246.961 26.0781 247.734 27.0625 247.734C28.0293 247.734 28.5742 247.008 28.5742 245.789C28.5742 244.576 28.0352 243.779 27.0625 243.773C26.0664 243.779 25.5508 244.629 25.5508 245.789Z" fill="black" fill-opacity="0.32"/>
<path d="M20.6846 277.809V287H18.7676V279.624H18.7168L16.6094 280.944V279.256L18.8818 277.809H20.6846ZM26.3848 287.127C24.0806 287.127 22.6904 285.413 22.6904 282.404C22.6904 279.402 24.0933 277.682 26.3848 277.682C28.6763 277.682 30.0791 279.402 30.0791 282.404C30.0791 285.426 28.6826 287.127 26.3848 287.127ZM24.6455 282.404C24.6328 284.524 25.3184 285.553 26.3848 285.553C27.4512 285.553 28.1304 284.524 28.124 282.404C28.1304 280.303 27.4448 279.25 26.3848 279.243C25.3247 279.25 24.6455 280.303 24.6455 282.404Z" fill="black"/>
<path d="M19.9609 307L20.3477 304.656H18.2148L17.8281 307H16.9727L17.3594 304.656H16.1055L16.2461 303.812H17.4941L17.8457 301.703H16.6094L16.7383 300.859H17.9805L18.3672 298.516H19.2227L18.8359 300.859H20.9688L21.3555 298.516H22.2109L21.8242 300.859H23.0898L22.9492 301.703H21.6895L21.3379 303.812H22.5859L22.4453 304.656H21.2031L20.8164 307H19.9609ZM18.3496 303.812H20.4824L20.834 301.703H18.7012L18.3496 303.812ZM24.1328 307V298.516H29.2422V299.453H25.1875V302.289H28.8555V303.215H25.1875V307H24.1328ZM33.4961 298.398C34.9551 298.416 36.5781 299.295 36.5781 302.418C36.5781 305.436 35.3418 307.117 33.3555 307.117C31.8613 307.117 30.8125 306.203 30.6016 304.855H31.6445C31.832 305.617 32.4121 306.18 33.3555 306.18C34.7383 306.18 35.582 304.984 35.5938 302.922H35.4766C34.9902 303.625 34.2109 304.047 33.3086 304.047C31.791 304.047 30.5312 302.881 30.5312 301.246C30.5312 299.664 31.6914 298.381 33.4961 298.398ZM31.5625 301.234C31.5566 302.283 32.3535 303.121 33.4609 303.121C34.5684 303.121 35.4297 302.207 35.4297 301.211C35.4297 300.238 34.6152 299.324 33.4961 299.324C32.3887 299.324 31.5508 300.186 31.5625 301.234ZM38.1719 307V298.516H43.2812V299.453H39.2266V302.289H42.8945V303.215H39.2266V307H38.1719ZM47.5352 298.398C48.9941 298.416 50.6172 299.295 50.6172 302.418C50.6172 305.436 49.3809 307.117 47.3945 307.117C45.9004 307.117 44.8516 306.203 44.6406 304.855H45.6836C45.8711 305.617 46.4512 306.18 47.3945 306.18C48.7773 306.18 49.6211 304.984 49.6328 302.922H49.5156C49.0293 303.625 48.25 304.047 47.3477 304.047C45.8301 304.047 44.5703 302.881 44.5703 301.246C44.5703 299.664 45.7305 298.381 47.5352 298.398ZM45.6016 301.234C45.5957 302.283 46.3926 303.121 47.5 303.121C48.6074 303.121 49.4688 302.207 49.4688 301.211C49.4688 300.238 48.6543 299.324 47.5352 299.324C46.4277 299.324 45.5898 300.186 45.6016 301.234ZM52.2109 307V298.516H57.3203V299.453H53.2656V302.289H56.9336V303.215H53.2656V307H52.2109ZM61.5742 298.398C63.0332 298.416 64.6562 299.295 64.6562 302.418C64.6562 305.436 63.4199 307.117 61.4336 307.117C59.9395 307.117 58.8906 306.203 58.6797 304.855H59.7227C59.9102 305.617 60.4902 306.18 61.4336 306.18C62.8164 306.18 63.6602 304.984 63.6719 302.922H63.5547C63.0684 303.625 62.2891 304.047 61.3867 304.047C59.8691 304.047 58.6094 302.881 58.6094 301.246C58.6094 299.664 59.7695 298.381 61.5742 298.398ZM59.6406 301.234C59.6348 302.283 60.4316 303.121 61.5391 303.121C62.6465 303.121 63.5078 302.207 63.5078 301.211C63.5078 300.238 62.6934 299.324 61.5742 299.324C60.4668 299.324 59.6289 300.186 59.6406 301.234Z" fill="black" fill-opacity="0.56"/>
<rect x="322" y="224" width="316" height="100" rx="10" fill="#F6F6F6"/>
<path d="M338.724 287L338.711 285.616L342.012 282.582C342.869 281.763 343.332 281.255 343.332 280.525C343.332 279.707 342.716 279.199 341.872 279.205C341.009 279.199 340.444 279.745 340.45 280.627H338.635C338.628 278.831 339.961 277.682 341.897 277.682C343.865 277.682 345.173 278.805 345.173 280.398C345.173 281.446 344.665 282.303 342.773 284.017L341.377 285.375V285.426H345.3V287H338.724ZM350.226 287.127C347.921 287.127 346.531 285.413 346.531 282.404C346.531 279.402 347.934 277.682 350.226 277.682C352.517 277.682 353.92 279.402 353.92 282.404C353.92 285.426 352.523 287.127 350.226 287.127ZM348.486 282.404C348.474 284.524 349.159 285.553 350.226 285.553C351.292 285.553 351.971 284.524 351.965 282.404C351.971 280.303 351.286 279.25 350.226 279.243C349.166 279.25 348.486 280.303 348.486 282.404Z" fill="black"/>
<path d="M341.961 307L342.348 304.656H340.215L339.828 307H338.973L339.359 304.656H338.105L338.246 303.812H339.494L339.846 301.703H338.609L338.738 300.859H339.98L340.367 298.516H341.223L340.836 300.859H342.969L343.355 298.516H344.211L343.824 300.859H345.09L344.949 301.703H343.689L343.338 303.812H344.586L344.445 304.656H343.203L342.816 307H341.961ZM340.35 303.812H342.482L342.834 301.703H340.701L340.35 303.812ZM346.133 307V298.516H351.242V299.453H347.188V302.289H350.855V303.215H347.188V307H346.133ZM355.625 307.117C354.154 307.1 352.531 306.227 352.531 303.086C352.531 300.08 353.762 298.398 355.754 298.398C357.248 298.398 358.291 299.318 358.508 300.648H357.465C357.271 299.898 356.697 299.336 355.754 299.336C354.359 299.336 353.521 300.525 353.527 302.57H353.633C354.119 301.861 354.898 301.445 355.812 301.445C357.318 301.445 358.578 302.617 358.578 304.258C358.578 305.857 357.412 307.135 355.625 307.117ZM353.668 304.281C353.674 305.277 354.488 306.186 355.625 306.191C356.721 306.186 357.553 305.324 357.559 304.27C357.553 303.227 356.756 302.377 355.648 302.371C354.535 302.377 353.68 303.279 353.668 304.281ZM360.172 307V298.516H365.281V299.453H361.227V302.289H364.895V303.215H361.227V307H360.172ZM369.664 307.117C368.193 307.1 366.57 306.227 366.57 303.086C366.57 300.08 367.801 298.398 369.793 298.398C371.287 298.398 372.33 299.318 372.547 300.648H371.504C371.311 299.898 370.736 299.336 369.793 299.336C368.398 299.336 367.561 300.525 367.566 302.57H367.672C368.158 301.861 368.938 301.445 369.852 301.445C371.357 301.445 372.617 302.617 372.617 304.258C372.617 305.857 371.451 307.135 369.664 307.117ZM367.707 304.281C367.713 305.277 368.527 306.186 369.664 306.191C370.76 306.186 371.592 305.324 371.598 304.27C371.592 303.227 370.795 302.377 369.688 302.371C368.574 302.377 367.719 303.279 367.707 304.281ZM374.211 307V298.516H379.32V299.453H375.266V302.289H378.934V303.215H375.266V307H374.211ZM383.703 307.117C382.232 307.1 380.609 306.227 380.609 303.086C380.609 300.08 381.84 298.398 383.832 298.398C385.326 298.398 386.369 299.318 386.586 300.648H385.543C385.35 299.898 384.775 299.336 383.832 299.336C382.438 299.336 381.6 300.525 381.605 302.57H381.711C382.197 301.861 382.977 301.445 383.891 301.445C385.396 301.445 386.656 302.617 386.656 304.258C386.656 305.857 385.49 307.135 383.703 307.117ZM381.746 304.281C381.752 305.277 382.566 306.186 383.703 306.191C384.799 306.186 385.631 305.324 385.637 304.27C385.631 303.227 384.834 302.377 383.727 302.371C382.613 302.377 381.758 303.279 381.746 304.281Z" fill="black" fill-opacity="0.56"/>
<rect x="644" y="224" width="316" height="100" rx="10" fill="#E9ECEF"/>
<path d="M660.785 249V240.516H662.309V247.711H666.059V249H660.785ZM667.207 249V242.637H668.707V249H667.207ZM667.102 240.914C667.102 240.469 667.494 240.105 667.969 240.105C668.443 240.105 668.836 240.469 668.836 240.914C668.836 241.365 668.443 241.729 667.969 241.734C667.494 241.729 667.102 241.365 667.102 240.914ZM671.637 245.273V249H670.137V242.637H671.566V243.715H671.648C671.936 243.006 672.586 242.555 673.535 242.555C674.854 242.555 675.721 243.422 675.715 244.945V249H674.227V245.18C674.227 244.324 673.764 243.814 672.984 243.82C672.193 243.814 671.637 244.348 671.637 245.273ZM679.969 249.129C678.053 249.129 676.875 247.852 676.875 245.859C676.875 243.891 678.07 242.555 679.887 242.555C681.445 242.555 682.793 243.533 682.793 245.766V246.234H678.352C678.375 247.318 679.014 247.963 679.98 247.957C680.637 247.963 681.076 247.682 681.27 247.301H682.734C682.465 248.402 681.445 249.129 679.969 249.129ZM678.357 245.215H681.363C681.357 244.348 680.771 243.715 679.91 243.715C679.014 243.715 678.41 244.406 678.357 245.215Z" fill="black" fill-opacity="0.32"/>
<path d="M664.685 277.809V287H662.768V279.624H662.717L660.609 280.944V279.256L662.882 277.809H664.685ZM670.385 287.127C668.081 287.127 666.69 285.413 666.69 282.404C666.69 279.402 668.093 277.682 670.385 277.682C672.676 277.682 674.079 279.402 674.079 282.404C674.079 285.426 672.683 287.127 670.385 287.127ZM668.646 282.404C668.633 284.524 669.318 285.553 670.385 285.553C671.451 285.553 672.13 284.524 672.124 282.404C672.13 280.303 671.445 279.25 670.385 279.243C669.325 279.25 668.646 280.303 668.646 282.404Z" fill="black"/>
<path d="M663.961 307L664.348 304.656H662.215L661.828 307H660.973L661.359 304.656H660.105L660.246 303.812H661.494L661.846 301.703H660.609L660.738 300.859H661.98L662.367 298.516H663.223L662.836 300.859H664.969L665.355 298.516H666.211L665.824 300.859H667.09L666.949 301.703H665.689L665.338 303.812H666.586L666.445 304.656H665.203L664.816 307H663.961ZM662.35 303.812H664.482L664.834 301.703H662.701L662.35 303.812ZM668.133 307V298.516H673.242V299.453H669.188V302.289H672.855V303.215H669.188V307H668.133ZM677.449 307.117C675.568 307.117 674.479 305.535 674.484 302.758C674.479 300.004 675.58 298.398 677.449 298.398C679.312 298.398 680.414 300.004 680.414 302.758C680.414 305.535 679.33 307.117 677.449 307.117ZM675.504 302.758C675.51 304.955 676.219 306.18 677.449 306.18C678.674 306.18 679.389 304.955 679.383 302.758C679.389 300.561 678.668 299.318 677.449 299.312C676.23 299.318 675.51 300.561 675.504 302.758ZM681.961 307V298.516H687.07V299.453H683.016V302.289H686.684V303.215H683.016V307H681.961ZM691.277 307.117C689.396 307.117 688.307 305.535 688.312 302.758C688.307 300.004 689.408 298.398 691.277 298.398C693.141 298.398 694.242 300.004 694.242 302.758C694.242 305.535 693.158 307.117 691.277 307.117ZM689.332 302.758C689.338 304.955 690.047 306.18 691.277 306.18C692.502 306.18 693.217 304.955 693.211 302.758C693.217 300.561 692.496 299.318 691.277 299.312C690.059 299.318 689.338 300.561 689.332 302.758ZM695.789 307V298.516H700.898V299.453H696.844V302.289H700.512V303.215H696.844V307H695.789ZM705.105 307.117C703.225 307.117 702.135 305.535 702.141 302.758C702.135 300.004 703.236 298.398 705.105 298.398C706.969 298.398 708.07 300.004 708.07 302.758C708.07 305.535 706.986 307.117 705.105 307.117ZM703.16 302.758C703.166 304.955 703.875 306.18 705.105 306.18C706.33 306.18 707.045 304.955 707.039 302.758C707.045 300.561 706.324 299.318 705.105 299.312C703.887 299.318 703.166 300.561 703.16 302.758Z" fill="black" fill-opacity="0.56"/>
</svg>
