<svg width="960" height="260" viewBox="0 0 960 260" fill="none" xmlns="http://www.w3.org/2000/svg">
<rect x="79" y="40" width="180" height="180" rx="90" fill="#E3FCF4"/>
<path d="M149.166 108.59H144.395V110.995H148.607V112.685H144.395V116H142.289V106.9H149.166V108.59ZM152.259 109.929C152.753 109.253 153.585 108.902 154.664 108.902V110.774C154.495 110.761 154.365 110.748 154.209 110.748C153.091 110.748 152.35 111.359 152.35 112.698V116H150.322V109.006H152.259V109.929ZM156.884 108.031C156.13 108.031 155.623 107.537 155.623 106.9C155.623 106.263 156.13 105.769 156.884 105.769C157.638 105.769 158.145 106.237 158.145 106.861C158.145 107.537 157.638 108.031 156.884 108.031ZM155.87 116V109.006H157.898V116H155.87ZM166.631 112.529C166.631 112.685 166.605 112.906 166.592 113.075H161.301C161.496 113.946 162.237 114.479 163.303 114.479C164.044 114.479 164.577 114.258 165.058 113.803L166.137 114.973C165.487 115.714 164.512 116.104 163.251 116.104C160.833 116.104 159.26 114.583 159.26 112.503C159.26 110.41 160.859 108.902 162.991 108.902C165.045 108.902 166.631 110.28 166.631 112.529ZM163.004 110.436C162.081 110.436 161.418 110.995 161.275 111.892H164.72C164.577 111.008 163.914 110.436 163.004 110.436ZM172.232 108.902C173.883 108.902 175.131 109.864 175.131 111.996V116H173.103V112.308C173.103 111.177 172.583 110.657 171.686 110.657C170.711 110.657 170.009 111.255 170.009 112.542V116H167.981V109.006H169.918V109.825C170.464 109.227 171.283 108.902 172.232 108.902ZM182.141 106.354H184.169V116H182.232V115.194C181.725 115.805 180.984 116.104 180.048 116.104C178.072 116.104 176.551 114.7 176.551 112.503C176.551 110.306 178.072 108.902 180.048 108.902C180.906 108.902 181.634 109.175 182.141 109.747V106.354ZM180.399 114.44C181.4 114.44 182.18 113.712 182.18 112.503C182.18 111.294 181.4 110.566 180.399 110.566C179.385 110.566 178.605 111.294 178.605 112.503C178.605 113.712 179.385 114.44 180.399 114.44ZM186.046 116V106.354H188.074V116H186.046ZM194.949 109.006H196.899L193.74 116.429C193.064 118.119 192.102 118.626 190.841 118.626C190.126 118.626 189.346 118.392 188.891 117.989L189.632 116.546C189.944 116.819 190.373 116.988 190.776 116.988C191.335 116.988 191.647 116.741 191.92 116.117L191.946 116.052L188.917 109.006H191.01L192.973 113.751L194.949 109.006Z" fill="#11D28F"/>
<path d="M117.447 132.432C118.746 132.437 119.688 133.228 119.693 134.355C119.688 135.488 118.746 136.27 117.447 136.27C116.134 136.27 115.187 135.488 115.191 134.355C115.187 133.228 116.134 132.437 117.447 132.432ZM115.943 134.355C115.934 135.117 116.573 135.645 117.447 135.645C118.307 135.645 118.951 135.117 118.951 134.355C118.951 133.604 118.307 133.071 117.447 133.076C116.573 133.071 115.934 133.604 115.943 134.355ZM116.51 137.607V136.992H122.154V139.082H117.281V140.059H122.467V140.674H116.529V138.506H121.393V137.607H116.51ZM121.393 136.572V132.109H122.154V136.572H121.393ZM130.816 132.109V140.811H130.055V136.094H128.365V135.449H130.055V132.109H130.816ZM123.932 133.555V132.92H127.838V135.957H124.723V138.066C126.222 138.066 127.306 138.018 128.57 137.783L128.629 138.428C127.325 138.662 126.197 138.716 124.625 138.721H123.961V135.322H127.096V133.555H123.932ZM136.598 133.389C136.603 134.878 138.302 136.201 139.811 136.484L139.459 137.129C138.146 136.826 136.769 135.894 136.207 134.619C135.641 135.894 134.269 136.821 132.955 137.129L132.604 136.484C134.107 136.196 135.792 134.883 135.797 133.389V132.725H136.598V133.389ZM132.271 139.609V138.975H140.221V139.609H132.271ZM147.945 136.807V137.432H141.939V132.861H147.848V133.506H142.721V134.795H147.662V135.41H142.721V136.807H147.945ZM140.914 139.658V139.023H148.863V139.658H140.914ZM154.479 133.086V133.711H149.566V133.086H151.676V132.041H152.438V133.086H154.479ZM150.084 135.762C150.074 134.795 150.875 134.155 152.047 134.16C153.209 134.155 154.024 134.795 154.029 135.762C154.024 136.733 153.209 137.368 152.047 137.373C150.875 137.368 150.074 136.733 150.084 135.762ZM150.797 135.762C150.792 136.372 151.29 136.782 152.047 136.777C152.794 136.782 153.307 136.372 153.316 135.762C153.307 135.151 152.794 134.746 152.047 134.736C151.29 134.746 150.792 135.151 150.797 135.762ZM150.973 139.297C150.973 138.35 152.071 137.812 153.893 137.812C155.704 137.812 156.803 138.35 156.803 139.297C156.803 140.229 155.704 140.771 153.893 140.771C152.071 140.771 150.973 140.229 150.973 139.297ZM151.764 139.297C151.769 139.849 152.574 140.181 153.893 140.176C155.191 140.181 155.992 139.849 155.992 139.297C155.992 138.73 155.191 138.413 153.893 138.408C152.574 138.413 151.769 138.73 151.764 139.297ZM154.469 136.523V135.889H155.982V134.834H154.479V134.199H155.982V132.109H156.754V137.725H155.982V136.523H154.469ZM167.867 132.109V140.811H167.096V132.109H167.867ZM161.217 138.711V132.852H161.979V135.146H164.566V132.852H165.318V138.711H161.217ZM161.979 138.066H164.566V135.762H161.979V138.066ZM173.736 133.34C173.731 134.502 175.279 135.488 176.793 135.713L176.51 136.318C175.157 136.089 173.834 135.366 173.307 134.321C172.779 135.366 171.456 136.089 170.123 136.318L169.82 135.713C171.329 135.488 172.872 134.502 172.877 133.34V133.281H170.094V132.656H176.51V133.281H173.736V133.34ZM169.352 137.695V137.061H177.262V137.695H173.668V140.791H172.916V137.695H169.352ZM185.182 132.109V136.533H184.42V134.688H182.608C182.447 135.688 181.559 136.362 180.387 136.357C179.078 136.362 178.126 135.547 178.131 134.375C178.126 133.218 179.078 132.417 180.387 132.422C181.549 132.417 182.433 133.066 182.604 134.043H184.42V132.109H185.182ZM178.863 134.375C178.863 135.166 179.498 135.728 180.387 135.723C181.246 135.728 181.891 135.166 181.891 134.375C181.891 133.604 181.246 133.047 180.387 133.057C179.498 133.047 178.863 133.604 178.863 134.375ZM179.557 137.627V137.012H185.182V139.092H180.338V140.059H185.514V140.674H179.576V138.506H184.42V137.627H179.557ZM196.305 132.109V140.811H195.533V132.109H196.305ZM189.469 135.811C189.474 133.965 190.392 132.788 191.686 132.783C192.975 132.788 193.907 133.965 193.902 135.811C193.907 137.661 192.975 138.833 191.686 138.828C190.392 138.833 189.474 137.661 189.469 135.811ZM190.211 135.811C190.211 137.222 190.816 138.149 191.686 138.145C192.56 138.149 193.16 137.222 193.16 135.811C193.16 134.399 192.56 133.472 191.686 133.467C190.816 133.472 190.211 134.399 190.211 135.811ZM202.311 132.969V138.613H198.297V132.969H202.311ZM199.049 137.988H201.559V133.584H199.049V137.988ZM204.176 140.811V132.109H204.947V140.811H204.176ZM209.537 134.775C209.542 136.25 210.611 137.749 211.891 138.301L211.461 138.906C210.445 138.447 209.571 137.446 209.166 136.245C208.761 137.52 207.882 138.623 206.891 139.121L206.432 138.516C207.677 137.92 208.761 136.279 208.766 134.775V133.643H206.715V133.008H211.607V133.643H209.537V134.775ZM212.818 140.791V132.109H213.59V140.791H212.818ZM223.023 139.072V139.717H215.074V139.072H218.648V137.432H216.07V134.756H221.266V133.389H216.051V132.754H222.018V135.381H216.832V136.797H222.223V137.432H219.4V139.072H223.023ZM125.221 147.119V153.535H124.459V147.119H125.221ZM118.229 151.875C119.532 151.45 120.445 150.361 120.445 149.141V148.906H118.443V148.291H120.445V147.158H121.217V148.291H123.199V148.906H121.207V149.141C121.202 150.288 122.135 151.313 123.434 151.709L123.053 152.324C122.032 151.992 121.227 151.304 120.836 150.405C120.455 151.372 119.649 152.124 118.619 152.48L118.229 151.875ZM119.615 155.605V152.939H120.377V154.961H125.494V155.605H119.615ZM133.6 147.637V148.311C133.6 149.043 133.6 149.922 133.37 151.104H134.645V151.748H126.695V151.104H132.608C132.843 149.902 132.843 149.048 132.838 148.311V148.262H127.701V147.637H133.6ZM127.75 155.596V152.725H128.512V154.951H133.863V155.596H127.75ZM142.057 147.109V150.693H143.512V151.328H142.057V155.791H141.295V147.109H142.057ZM135.289 149.141V148.506H137.525V147.217H138.287V148.506H140.455V149.141H135.289ZM135.787 151.855C135.782 150.684 136.681 149.863 137.916 149.863C139.142 149.863 140.035 150.684 140.045 151.855C140.035 153.032 139.142 153.848 137.916 153.848C136.681 153.848 135.782 153.032 135.787 151.855ZM136.52 151.855C136.515 152.646 137.105 153.203 137.916 153.193C138.717 153.203 139.303 152.646 139.312 151.855C139.303 151.069 138.717 150.503 137.916 150.508C137.105 150.503 136.515 151.069 136.52 151.855ZM150.943 147.988V148.857C150.934 149.922 150.934 151.113 150.621 152.861L149.84 152.773C150.167 151.113 150.167 149.897 150.172 148.857V148.623H144.82V147.988H150.943ZM143.98 154.561V153.926H147.086V150.82H147.838V153.926H151.891V154.561H143.98ZM156.256 147.529V148.809H158.785V147.529H159.547V151.348H155.504V147.529H156.256ZM156.021 152.822V152.227H158.863V154.199H156.783V155.107C157.999 155.098 158.648 155.073 159.439 154.912L159.527 155.498C158.644 155.669 157.96 155.698 156.549 155.693H156.041V153.633H158.121V152.822H156.021ZM156.256 150.732H158.785V149.395H156.256V150.732ZM159.244 152.842V152.227H161.92V155.762H161.158V152.842H159.244ZM161.158 151.748V147.109H161.92V149.023H163.229V149.678H161.92V151.748H161.158ZM171.686 151.689V152.314H163.775V151.689H171.686ZM164.654 149.141C164.654 148.052 165.846 147.412 167.73 147.422C169.596 147.412 170.792 148.052 170.797 149.141C170.792 150.22 169.596 150.869 167.73 150.869C165.846 150.869 164.654 150.22 164.654 149.141ZM164.801 155.605V153.076H165.572V154.961H170.807V155.605H164.801ZM165.445 149.141C165.44 149.829 166.329 150.244 167.73 150.244C169.122 150.244 170.011 149.829 170.016 149.141C170.011 148.462 169.122 148.037 167.73 148.037C166.329 148.037 165.44 148.462 165.445 149.141ZM182.086 147.109V155.811H181.314V147.109H182.086ZM175.25 150.811C175.255 148.965 176.173 147.788 177.467 147.783C178.756 147.788 179.688 148.965 179.684 150.811C179.688 152.661 178.756 153.833 177.467 153.828C176.173 153.833 175.255 152.661 175.25 150.811ZM175.992 150.811C175.992 152.222 176.598 153.149 177.467 153.145C178.341 153.149 178.941 152.222 178.941 150.811C178.941 149.399 178.341 148.472 177.467 148.467C176.598 148.472 175.992 149.399 175.992 150.811ZM188.092 147.969V153.613H184.078V147.969H188.092ZM184.83 152.988H187.34V148.584H184.83V152.988ZM189.957 155.811V147.109H190.729V155.811H189.957ZM195.318 149.775C195.323 151.25 196.393 152.749 197.672 153.301L197.242 153.906C196.227 153.447 195.353 152.446 194.947 151.245C194.542 152.52 193.663 153.623 192.672 154.121L192.213 153.516C193.458 152.92 194.542 151.279 194.547 149.775V148.643H192.496V148.008H197.389V148.643H195.318V149.775ZM198.6 155.791V147.109H199.371V155.791H198.6ZM210.787 147.109V155.791H210.055V147.109H210.787ZM203.258 153.477C204.469 152.754 205.177 151.167 205.172 149.59V148.77H203.502V148.135H207.506V148.77H205.914V149.59C205.914 151.089 206.593 152.588 207.789 153.281L207.32 153.848C206.466 153.335 205.86 152.397 205.558 151.294C205.245 152.49 204.615 153.511 203.746 154.053L203.258 153.477ZM206.842 150.869V150.244H208.307V147.324H209.029V155.342H208.307V150.869H206.842ZM215.934 152.598C217.794 152.598 218.976 153.184 218.98 154.189C218.976 155.186 217.794 155.771 215.934 155.771C214.073 155.771 212.892 155.186 212.896 154.189C212.892 153.184 214.073 152.598 215.934 152.598ZM212.018 151.787V151.162H215.289V149.482H216.041V151.162H219.918V151.787H212.018ZM212.955 148.184V147.559H218.912V148.291C218.907 148.994 218.907 149.697 218.668 150.596L217.916 150.508C218.15 149.614 218.15 148.97 218.15 148.291V148.184H212.955ZM213.658 154.189C213.653 154.795 214.552 155.166 215.934 155.166C217.32 155.166 218.209 154.795 218.219 154.189C218.209 153.569 217.32 153.188 215.934 153.184C214.552 153.188 213.653 153.569 213.658 154.189Z" fill="#717680"/>
<rect x="243" y="40" width="180" height="180" rx="90" fill="#D6F9ED"/>
<path d="M315.544 116.156C314.101 116.156 312.645 115.727 311.839 115.103L312.554 113.517C313.321 114.076 314.465 114.466 315.557 114.466C316.805 114.466 317.312 114.05 317.312 113.491C317.312 111.788 312.021 112.958 312.021 109.578C312.021 108.031 313.269 106.744 315.856 106.744C317 106.744 318.17 107.017 319.015 107.55L318.365 109.149C317.52 108.668 316.649 108.434 315.843 108.434C314.595 108.434 314.114 108.902 314.114 109.474C314.114 111.151 319.405 109.994 319.405 113.335C319.405 114.856 318.144 116.156 315.544 116.156ZM324.666 114.232L325.212 115.662C324.796 115.961 324.185 116.104 323.561 116.104C321.91 116.104 320.948 115.259 320.948 113.595V110.722H319.869V109.162H320.948V107.459H322.976V109.162H324.718V110.722H322.976V113.569C322.976 114.167 323.301 114.492 323.847 114.492C324.146 114.492 324.445 114.401 324.666 114.232ZM329.172 108.902C331.304 108.902 332.539 109.89 332.539 112.009V116H330.641V115.129C330.264 115.766 329.536 116.104 328.509 116.104C326.871 116.104 325.896 115.194 325.896 113.985C325.896 112.75 326.767 111.892 328.899 111.892H330.511C330.511 111.021 329.991 110.514 328.899 110.514C328.158 110.514 327.391 110.761 326.884 111.164L326.156 109.747C326.923 109.201 328.054 108.902 329.172 108.902ZM329.016 114.739C329.692 114.739 330.277 114.427 330.511 113.79V113.075H329.12C328.171 113.075 327.872 113.426 327.872 113.894C327.872 114.401 328.301 114.739 329.016 114.739ZM338.508 108.902C340.471 108.902 341.992 110.306 341.992 112.503C341.992 114.7 340.471 116.104 338.508 116.104C337.572 116.104 336.818 115.805 336.311 115.194V116H334.374V106.354H336.402V109.747C336.922 109.175 337.637 108.902 338.508 108.902ZM338.157 114.44C339.171 114.44 339.938 113.712 339.938 112.503C339.938 111.294 339.171 110.566 338.157 110.566C337.143 110.566 336.376 111.294 336.376 112.503C336.376 113.712 337.143 114.44 338.157 114.44ZM343.35 116V106.354H345.378V116H343.35ZM354.111 112.529C354.111 112.685 354.085 112.906 354.072 113.075H348.781C348.976 113.946 349.717 114.479 350.783 114.479C351.524 114.479 352.057 114.258 352.538 113.803L353.617 114.973C352.967 115.714 351.992 116.104 350.731 116.104C348.313 116.104 346.74 114.583 346.74 112.503C346.74 110.41 348.339 108.902 350.471 108.902C352.525 108.902 354.111 110.28 354.111 112.529ZM350.484 110.436C349.561 110.436 348.898 110.995 348.755 111.892H352.2C352.057 111.008 351.394 110.436 350.484 110.436Z" fill="#0DB279"/>
<path d="M282.043 133.037V133.906C282.043 135 282.043 136.235 281.721 138.125L280.939 138.047C281.291 136.27 281.291 134.971 281.291 133.906V133.672H276.057V133.037H282.043ZM275.197 139.512V138.877H283.107V139.512H275.197ZM290.998 132.119V138.506H290.246V132.119H290.998ZM284.279 133.359V132.734H288.244V135.244H285.041V136.631C286.657 136.631 287.795 136.582 289.172 136.338L289.25 136.973C287.834 137.217 286.667 137.266 285.002 137.275H284.299V134.639H287.482V133.359H284.279ZM285.305 140.605V138.008H286.076V139.961H291.252V140.605H285.305ZM293.908 139.346L293.146 142.002H292.424L292.961 139.346H293.908ZM299.367 132.266V133.105H303.664V132.266H304.426V135.127H298.605V132.266H299.367ZM297.551 136.494V135.879H305.461V136.494H297.551ZM298.508 137.881V137.295H304.445V139.219H299.289V140.088H304.709V140.693H298.527V138.652H303.693V137.881H298.508ZM299.367 134.541H303.664V133.691H299.367V134.541ZM313.166 132.461V134.717H307.932V135.84H313.352V136.475H307.16V134.111H312.385V133.086H307.141V132.461H313.166ZM306.184 138.008V137.393H314.133V138.008H310.52V140.811H309.758V138.008H306.184ZM324.777 132.109V140.791H324.045V132.109H324.777ZM317.336 138.359C319.226 137.241 320.173 135.674 320.324 133.857H317.727V133.223H321.086C321.086 133.667 321.047 134.106 320.969 134.531H322.287V132.344H323.02V140.352H322.287V137.344H320.676V136.709H322.287V135.166H320.817C320.397 136.636 319.445 137.935 317.805 138.916L317.336 138.359ZM328.381 132.422C329.147 132.417 329.792 132.7 330.192 133.174H332.414V132.109H333.176V136.572H332.414V135.576H330.212C329.816 136.069 329.162 136.362 328.381 136.357C327.072 136.362 326.12 135.562 326.125 134.385C326.12 133.218 327.072 132.417 328.381 132.422ZM326.857 134.385C326.857 135.171 327.492 135.732 328.381 135.742C329.24 135.732 329.885 135.171 329.885 134.385C329.885 133.604 329.24 133.047 328.381 133.057C327.492 133.047 326.857 133.604 326.857 134.385ZM327.551 137.627V137.012H333.176V139.092H328.332V140.059H333.508V140.674H327.57V138.506H332.414V137.627H327.551ZM330.534 133.789C330.593 133.975 330.627 134.175 330.627 134.385C330.627 134.59 330.598 134.78 330.539 134.961H332.414V133.789H330.534ZM337.473 132.744C338.835 132.749 339.802 133.579 339.807 134.785C339.802 135.996 338.835 136.821 337.473 136.826C336.101 136.821 335.124 135.996 335.129 134.785C335.124 133.579 336.101 132.749 337.473 132.744ZM334.68 138.242C336.281 138.247 338.493 138.232 340.412 137.949L340.471 138.516C338.483 138.887 336.35 138.896 334.787 138.896L334.68 138.242ZM335.881 134.785C335.876 135.596 336.545 136.152 337.473 136.152C338.391 136.152 339.06 135.596 339.055 134.785C339.06 133.979 338.391 133.418 337.473 133.418C336.545 133.418 335.876 133.979 335.881 134.785ZM340.988 140.811V132.109H341.75V140.811H340.988ZM350.275 132.539C350.271 134.717 349.016 136.182 346.32 136.895L346.037 136.289C347.492 135.918 348.435 135.332 348.957 134.58L346.125 134.785L345.998 134.17L349.26 134.023C349.372 133.75 349.436 133.462 349.465 133.154H346.438V132.539H350.275ZM347.355 137.617V137.002H352.98V139.082H348.127V140.059H353.273V140.674H347.375V138.506H352.219V137.617H347.355ZM350.305 134.844V134.209H352.209V132.109H352.98V136.611H352.209V134.844H350.305ZM361.613 132.109V140.811H360.852V136.094H359.162V135.449H360.852V132.109H361.613ZM354.729 133.555V132.92H358.635V135.957H355.52V138.066C357.019 138.066 358.103 138.018 359.367 137.783L359.426 138.428C358.122 138.662 356.994 138.716 355.422 138.721H354.758V135.322H357.893V133.555H354.729ZM372.355 132.109V134.336H373.654V134.99H372.355V137.236H371.584V132.109H372.355ZM365.539 136.455C366.232 136.455 367.043 136.455 367.893 136.431V135.894C366.872 135.811 366.228 135.405 366.232 134.746C366.228 134.033 367.028 133.618 368.264 133.623C369.499 133.618 370.295 134.033 370.305 134.746C370.295 135.4 369.665 135.806 368.654 135.894V136.401C369.465 136.362 370.285 136.299 371.047 136.191L371.115 136.709C369.24 137.017 367.155 137.031 365.627 137.031L365.539 136.455ZM365.754 133.33V132.773H367.893V132.031H368.654V132.773H370.783V133.33H365.754ZM366.701 138.174V137.627H372.355V139.375H367.482V140.146H372.688V140.693H366.721V138.857H371.594V138.174H366.701ZM366.965 134.746C366.96 135.137 367.463 135.386 368.264 135.391C369.064 135.386 369.572 135.137 369.572 134.746C369.572 134.365 369.064 134.136 368.264 134.131C367.463 134.136 366.96 134.365 366.965 134.746ZM382.131 136.406V137.041H374.221V136.406H376.184V135.181C375.49 134.912 375.1 134.473 375.1 133.887C375.1 132.866 376.271 132.28 378.176 132.275C380.065 132.28 381.237 132.866 381.242 133.887C381.237 134.468 380.852 134.907 380.168 135.181V136.406H382.131ZM375.178 139.238C375.173 138.247 376.291 137.7 378.176 137.705C380.036 137.7 381.154 138.247 381.164 139.238C381.154 140.229 380.036 140.771 378.176 140.771C376.291 140.771 375.173 140.229 375.178 139.238ZM375.891 133.887C375.886 134.521 376.755 134.888 378.176 134.893C379.582 134.888 380.456 134.521 380.461 133.887C380.456 133.262 379.582 132.881 378.176 132.881C376.755 132.881 375.886 133.262 375.891 133.887ZM375.959 139.238C375.949 139.829 376.784 140.181 378.176 140.176C379.553 140.181 380.388 139.829 380.393 139.238C380.388 138.647 379.553 138.301 378.176 138.291C376.784 138.301 375.949 138.647 375.959 139.238ZM376.945 136.406H379.406V135.386C379.04 135.454 378.63 135.488 378.176 135.488C377.722 135.488 377.312 135.454 376.945 135.391V136.406ZM387.678 133.076V133.525C387.673 134.214 387.673 135.361 387.424 136.973L386.652 136.904C386.892 135.449 386.911 134.395 386.906 133.701H383.264V133.076H387.678ZM382.775 138.242C383.347 138.237 383.981 138.232 384.65 138.218V135.557H385.402V138.193C386.364 138.159 387.351 138.096 388.254 137.988L388.293 138.564C386.467 138.848 384.426 138.887 382.873 138.877L382.775 138.242ZM388.801 140.791V132.109H389.562V135.742H390.969V136.406H389.562V140.791H388.801ZM281.511 148.037V148.906C281.511 150 281.511 151.235 281.188 153.125L280.407 153.047C280.759 151.27 280.759 149.971 280.759 148.906V148.672H275.524V148.037H281.511ZM274.665 154.512V153.877H282.575V154.512H274.665ZM290.476 147.109V155.811H289.714V147.109H290.476ZM283.796 148.555V147.92H287.839V151.006H284.597V153.057C286.037 153.062 287.321 152.993 288.874 152.744L288.952 153.389C287.355 153.638 286.037 153.701 284.538 153.701H283.815V150.381H287.067V148.555H283.796ZM298.962 151.289V151.924H292.966V147.92H298.874V148.555H293.728V151.289H298.962ZM291.95 154.609V153.965H299.899V154.609H291.95ZM305.515 148.086V148.711H300.603V148.086H302.712V147.041H303.474V148.086H305.515ZM301.12 150.762C301.11 149.795 301.911 149.155 303.083 149.16C304.245 149.155 305.061 149.795 305.065 150.762C305.061 151.733 304.245 152.368 303.083 152.373C301.911 152.368 301.11 151.733 301.12 150.762ZM301.833 150.762C301.828 151.372 302.326 151.782 303.083 151.777C303.83 151.782 304.343 151.372 304.353 150.762C304.343 150.151 303.83 149.746 303.083 149.736C302.326 149.746 301.828 150.151 301.833 150.762ZM302.009 154.297C302.009 153.35 303.107 152.812 304.929 152.812C306.74 152.812 307.839 153.35 307.839 154.297C307.839 155.229 306.74 155.771 304.929 155.771C303.107 155.771 302.009 155.229 302.009 154.297ZM302.8 154.297C302.805 154.849 303.61 155.181 304.929 155.176C306.228 155.181 307.028 154.849 307.028 154.297C307.028 153.73 306.228 153.413 304.929 153.408C303.61 153.413 302.805 153.73 302.8 154.297ZM305.505 151.523V150.889H307.019V149.834H305.515V149.199H307.019V147.109H307.79V152.725H307.019V151.523H305.505ZM315.134 148.076V151.074H312.78V153.008C313.781 152.998 314.729 152.969 315.886 152.764L315.944 153.398C314.709 153.618 313.713 153.647 312.614 153.652H312.038V150.439H314.401V148.711H312.019V148.076H315.134ZM315.554 150.869V150.244H316.667V147.324H317.39V155.332H316.667V150.869H315.554ZM318.435 155.791V147.109H319.167V155.791H318.435ZM327.546 147.109V155.811H326.774V147.109H327.546ZM320.71 150.811C320.715 148.965 321.633 147.788 322.927 147.783C324.216 147.788 325.148 148.965 325.144 150.811C325.148 152.661 324.216 153.833 322.927 153.828C321.633 153.833 320.715 152.661 320.71 150.811ZM321.452 150.811C321.452 152.222 322.058 153.149 322.927 153.145C323.801 153.149 324.401 152.222 324.401 150.811C324.401 149.399 323.801 148.472 322.927 148.467C322.058 148.472 321.452 149.399 321.452 150.811ZM331.354 147.783C332.634 147.788 333.542 148.965 333.552 150.811C333.542 152.661 332.634 153.833 331.354 153.828C330.065 153.833 329.162 152.661 329.167 150.811C329.162 148.965 330.065 147.788 331.354 147.783ZM329.89 150.811C329.895 152.222 330.495 153.149 331.354 153.145C332.224 153.149 332.81 152.222 332.81 150.811C332.81 149.399 332.224 148.472 331.354 148.467C330.495 148.472 329.895 149.399 329.89 150.811ZM334.987 155.791V147.109H335.749V150.576H337.204V151.24H335.749V155.791H334.987ZM345.612 151.074V151.738H341.989V152.686H341.237V151.738H337.673V151.074H345.612ZM338.249 155.166C339.802 155.005 341.218 154.302 341.218 153.359V153.076H341.999V153.359C342.004 154.316 343.405 155.005 344.978 155.166L344.733 155.752C343.361 155.601 342.126 155.078 341.608 154.248C341.091 155.068 339.865 155.601 338.503 155.752L338.249 155.166ZM338.552 148.838C338.552 147.817 339.724 147.251 341.628 147.256C343.532 147.251 344.689 147.817 344.694 148.838C344.689 149.849 343.532 150.43 341.628 150.42C339.724 150.43 338.552 149.849 338.552 148.838ZM339.343 148.838C339.338 149.453 340.207 149.829 341.628 149.824C343.034 149.829 343.908 149.453 343.913 148.838C343.908 148.213 343.034 147.832 341.628 147.842C340.207 147.832 339.338 148.213 339.343 148.838ZM350.271 147.676C352.082 147.681 353.444 148.628 353.444 150.059C353.444 151.504 352.082 152.451 350.271 152.441C348.459 152.451 347.097 151.504 347.097 150.059C347.097 148.628 348.459 147.681 350.271 147.676ZM346.315 154.639V153.994H354.265V154.639H346.315ZM347.829 150.059C347.819 151.113 348.869 151.816 350.271 151.816C351.662 151.816 352.702 151.113 352.702 150.059C352.702 149.019 351.662 148.296 350.271 148.301C348.869 148.296 347.819 149.019 347.829 150.059ZM362.907 154.072V154.717H354.958V154.072H358.532V152.432H355.954V149.756H361.149V148.389H355.935V147.754H361.901V150.381H356.716V151.797H362.106V152.432H359.284V154.072H362.907ZM372.897 147.109V149.756H374.206V150.4H372.897V153.516H372.136V147.109H372.897ZM366.276 149.863C366.271 148.604 367.258 147.729 368.552 147.725C369.855 147.729 370.827 148.604 370.837 149.863C370.827 151.118 369.855 152.002 368.552 152.002C367.258 152.002 366.271 151.118 366.276 149.863ZM367.028 149.863C367.023 150.718 367.692 151.328 368.552 151.328C369.426 151.328 370.08 150.718 370.085 149.863C370.08 149.004 369.426 148.398 368.552 148.398C367.692 148.398 367.023 149.004 367.028 149.863ZM367.468 155.605V152.852H368.22V154.961H373.298V155.605H367.468ZM381.95 147.109V152.285H381.179V150.01H379.431V149.375H381.179V147.109H381.95ZM374.792 151.592C376.081 151.128 376.999 149.951 376.999 148.711V148.389H375.036V147.744H379.714V148.389H377.771V148.701C377.771 149.834 378.64 150.913 379.909 151.348L379.509 151.963C378.537 151.611 377.78 150.879 377.404 149.985C377.033 151.001 376.228 151.812 375.192 152.207L374.792 151.592ZM376.159 154.17C376.154 153.149 377.263 152.554 379.069 152.559C380.871 152.554 381.979 153.149 381.979 154.17C381.979 155.195 380.871 155.781 379.069 155.791C377.263 155.781 376.154 155.195 376.159 154.17ZM376.921 154.17C376.916 154.8 377.736 155.181 379.069 155.176C380.397 155.181 381.218 154.8 381.218 154.17C381.218 153.535 380.397 153.154 379.069 153.154C377.736 153.154 376.916 153.535 376.921 154.17ZM390.183 147.109V149.238H391.491V149.873H390.183V152.041H389.421V147.109H390.183ZM383.386 151.514C385.52 150.938 386.823 149.78 386.984 148.311H383.776V147.676H387.81C387.8 149.863 386.271 151.431 383.698 152.129L383.386 151.514ZM384.685 155.674V152.441H390.183V155.674H384.685ZM385.446 155.049H389.421V153.076H385.446V155.049Z" fill="#717680"/>
<rect x="407" y="40" width="180" height="180" rx="90" fill="#C8F2E3"/>
<path d="M484.55 114.31H489.503V116H482.457V106.9H489.334V108.59H484.55V110.566H488.775V112.204H484.55V114.31ZM493.806 108.902C495.938 108.902 497.173 109.89 497.173 112.009V116H495.275V115.129C494.898 115.766 494.17 116.104 493.143 116.104C491.505 116.104 490.53 115.194 490.53 113.985C490.53 112.75 491.401 111.892 493.533 111.892H495.145C495.145 111.021 494.625 110.514 493.533 110.514C492.792 110.514 492.025 110.761 491.518 111.164L490.79 109.747C491.557 109.201 492.688 108.902 493.806 108.902ZM493.65 114.739C494.326 114.739 494.911 114.427 495.145 113.79V113.075H493.754C492.805 113.075 492.506 113.426 492.506 113.894C492.506 114.401 492.935 114.739 493.65 114.739ZM501.362 116.104C500.179 116.104 498.983 115.779 498.333 115.35L499.009 113.894C499.633 114.297 500.582 114.57 501.44 114.57C502.376 114.57 502.727 114.323 502.727 113.933C502.727 112.789 498.502 113.959 498.502 111.164C498.502 109.838 499.698 108.902 501.739 108.902C502.701 108.902 503.767 109.123 504.43 109.513L503.754 110.956C503.065 110.566 502.376 110.436 501.739 110.436C500.829 110.436 500.439 110.722 500.439 111.086C500.439 112.282 504.664 111.125 504.664 113.881C504.664 115.181 503.455 116.104 501.362 116.104ZM510.78 109.006H512.73L509.571 116.429C508.895 118.119 507.933 118.626 506.672 118.626C505.957 118.626 505.177 118.392 504.722 117.989L505.463 116.546C505.775 116.819 506.204 116.988 506.607 116.988C507.166 116.988 507.478 116.741 507.751 116.117L507.777 116.052L504.748 109.006H506.841L508.804 113.751L510.78 109.006Z" fill="#058D5D"/>
<path d="M444.422 133.721C444.427 134.888 445.35 135.952 446.648 136.377L446.258 136.973C445.247 136.631 444.446 135.918 444.051 135C443.67 135.986 442.859 136.768 441.824 137.139L441.424 136.543C442.728 136.084 443.646 134.951 443.65 133.721V133.35H441.619V132.725H446.424V133.35H444.422V133.721ZM442.625 138.457V137.822H448.465V140.791H447.703V138.457H442.625ZM447.703 137.363V132.109H448.465V137.363H447.703ZM454.754 132.783V133.242C454.749 133.813 454.749 134.678 454.529 135.811L453.758 135.752C453.968 134.717 453.987 133.979 453.997 133.428H450.428V132.783H454.754ZM449.891 136.621C450.452 136.621 451.087 136.616 451.756 136.597V134.707H452.518V136.572C453.479 136.533 454.476 136.465 455.379 136.338L455.428 136.904C453.606 137.217 451.517 137.251 449.969 137.256L449.891 136.621ZM451.229 140.605V138.057H452V139.961H457.029V140.605H451.229ZM455.965 138.643V132.109H456.746V134.941H458.016V135.596H456.746V138.643H455.965ZM461.6 133.711C461.6 134.839 462.469 135.918 463.738 136.357L463.338 136.963C462.361 136.611 461.604 135.884 461.233 134.99C460.857 135.986 460.052 136.787 459.021 137.168L458.621 136.562C459.9 136.104 460.828 134.946 460.828 133.721V133.34H458.865V132.715H463.543V133.34H461.6V133.711ZM459.939 138.408V137.773H465.779V140.791H465.008V138.408H459.939ZM463.27 135.029V134.385H465.008V132.109H465.779V137.314H465.008V135.029H463.27ZM474.393 132.119V138.467H473.631V132.119H474.393ZM467.43 134.854C467.425 133.604 468.406 132.729 469.705 132.725C471.004 132.729 471.976 133.604 471.98 134.854C471.976 136.118 471.004 136.997 469.705 136.992C468.406 136.997 467.425 136.118 467.43 134.854ZM468.182 134.854C468.172 135.718 468.826 136.318 469.705 136.318C470.569 136.318 471.229 135.718 471.229 134.854C471.229 134.004 470.569 133.398 469.705 133.398C468.826 133.398 468.172 134.004 468.182 134.854ZM468.787 140.605V137.822H469.549V139.961H474.666V140.605H468.787ZM483.436 132.93H484.314V137.607C484.314 139.062 483.226 140.122 481.561 140.127C479.891 140.122 478.807 139.062 478.807 137.607V132.93H479.686V137.539C479.681 138.564 480.394 139.302 481.561 139.307C482.728 139.302 483.431 138.564 483.436 137.539V132.93ZM486.756 132.93V140H485.877V132.93H486.756ZM495.838 139.072V139.717H487.889V139.072H491.463V137.432H488.885V134.756H494.08V133.389H488.865V132.754H494.832V135.381H489.646V136.797H495.037V137.432H492.215V139.072H495.838ZM506.199 132.119V138.711H505.428V137.812H503.631V137.256H505.428V132.119H506.199ZM498.992 136.143C500.608 136.133 502.786 136.118 504.646 135.889L504.695 136.445C503.924 136.567 503.108 136.646 502.312 136.694V138.408H501.541V136.733C500.662 136.768 499.827 136.768 499.1 136.768L498.992 136.143ZM499.695 133.984C499.69 133.071 500.56 132.471 501.844 132.471C503.118 132.471 503.987 133.071 503.992 133.984C503.987 134.912 503.118 135.488 501.844 135.488C500.56 135.488 499.69 134.912 499.695 133.984ZM500.242 140.605V138.066H501.014V139.961H506.414V140.605H500.242ZM500.428 133.984C500.418 134.551 500.994 134.917 501.844 134.922C502.669 134.917 503.255 134.551 503.26 133.984C503.255 133.428 502.669 133.047 501.844 133.057C500.994 133.047 500.418 133.428 500.428 133.984ZM514.402 132.109V135.693H515.857V136.328H514.402V140.791H513.641V132.109H514.402ZM507.635 134.141V133.506H509.871V132.217H510.633V133.506H512.801V134.141H507.635ZM508.133 136.855C508.128 135.684 509.026 134.863 510.262 134.863C511.487 134.863 512.381 135.684 512.391 136.855C512.381 138.032 511.487 138.848 510.262 138.848C509.026 138.848 508.128 138.032 508.133 136.855ZM508.865 136.855C508.86 137.646 509.451 138.203 510.262 138.193C511.062 138.203 511.648 137.646 511.658 136.855C511.648 136.069 511.062 135.503 510.262 135.508C509.451 135.503 508.86 136.069 508.865 136.855ZM523.348 134.746V135.361H517.4V132.432H518.162V134.746H523.348ZM516.316 137.168V136.543H524.266V137.168H516.316ZM517.352 140.576V138.057H518.113V139.941H523.396V140.576H517.352ZM534.676 132.109V137.285H533.904V135.01H532.156V134.375H533.904V132.109H534.676ZM527.518 136.592C528.807 136.128 529.725 134.951 529.725 133.711V133.389H527.762V132.744H532.439V133.389H530.496V133.701C530.496 134.834 531.365 135.913 532.635 136.348L532.234 136.963C531.263 136.611 530.506 135.879 530.13 134.985C529.759 136.001 528.953 136.812 527.918 137.207L527.518 136.592ZM528.885 139.17C528.88 138.149 529.988 137.554 531.795 137.559C533.597 137.554 534.705 138.149 534.705 139.17C534.705 140.195 533.597 140.781 531.795 140.791C529.988 140.781 528.88 140.195 528.885 139.17ZM529.646 139.17C529.642 139.8 530.462 140.181 531.795 140.176C533.123 140.181 533.943 139.8 533.943 139.17C533.943 138.535 533.123 138.154 531.795 138.154C530.462 138.154 529.642 138.535 529.646 139.17ZM544.07 139.043V139.678H536.121V139.043H539.695V137.168H537.059V132.725H537.83V134.297H542.342V132.725H543.094V137.168H540.447V139.043H544.07ZM537.83 136.543H542.342V134.922H537.83V136.543ZM552.703 136.143V136.748H544.754V136.143H552.703ZM545.711 138.018V137.441H551.707V139.287H546.492V140.117H551.99V140.674H545.721V138.76H550.945V138.018H545.711ZM545.76 132.93V132.373H551.678V134.17H546.551V134.932H551.834V135.488H545.789V133.643H550.906V132.93H545.76ZM451.517 147.109V150.527H452.972V151.191H451.517V155.791H450.755V147.109H451.517ZM445.159 153.711V147.852H445.921V150.146H448.46V147.852H449.222V153.711H445.159ZM445.921 153.066H448.46V150.762H445.921V153.066ZM461.39 154.072V154.717H453.44V154.072H457.015V152.432H454.437V149.756H459.632V148.389H454.417V147.754H460.384V150.381H455.198V151.797H460.589V152.432H457.767V154.072H461.39ZM466.36 152.324V153.34H470.696V152.324H471.468V155.674H465.599V152.324H466.36ZM464.593 151.709V151.074H472.503V151.709H464.593ZM465.042 149.844C466.59 149.634 468.157 148.721 468.157 147.617V147.207H468.948V147.617C468.943 148.687 470.525 149.648 472.054 149.844L471.771 150.459C470.428 150.259 469.104 149.575 468.553 148.604C468.001 149.58 466.673 150.259 465.335 150.459L465.042 149.844ZM466.36 155.059H470.696V153.945H466.36V155.059ZM481.155 151.338V151.973H473.235V151.338H481.155ZM474.114 153.643V153.018H480.179V155.84H479.417V153.643H474.114ZM474.241 150.371V147.451H480.169V148.076H475.003V149.746H480.247V150.371H474.241ZM488.665 147.08V149.189H489.983V149.824H488.665V151.885H487.903V147.08H488.665ZM481.897 148.516V147.9H484.104V147.021H484.866V147.9H487.073V148.516H481.897ZM482.396 150.332C482.391 149.453 483.221 148.911 484.485 148.906C485.745 148.911 486.565 149.453 486.575 150.332C486.565 151.216 485.745 151.753 484.485 151.758C483.221 151.753 482.391 151.216 482.396 150.332ZM483.128 152.91V152.334H488.665V154.258H483.899V155.107H488.987V155.693H483.147V153.691H487.903V152.91H483.128ZM483.128 150.332C483.123 150.854 483.66 151.182 484.485 151.182C485.306 151.182 485.843 150.854 485.853 150.332C485.843 149.814 485.306 149.478 484.485 149.473C483.66 149.478 483.123 149.814 483.128 150.332ZM497.386 147.92C497.391 149.146 498.982 150.2 500.55 150.42L500.237 151.045C498.89 150.82 497.552 150.073 496.995 149.009C496.438 150.083 495.105 150.82 493.753 151.045L493.44 150.42C495.008 150.2 496.595 149.165 496.595 147.92V147.422H497.386V147.92ZM493.03 152.646V152.002H500.94V152.646H497.347V155.791H496.595V152.646H493.03ZM507.122 152.939C507.117 153.706 507.532 154.521 508.357 154.99C509.188 154.478 509.627 153.608 509.622 152.939V152.461H510.374V152.939C510.369 153.833 511.028 154.722 512.142 155.107L511.761 155.674C510.892 155.366 510.286 154.761 509.983 154.033C509.715 154.736 509.183 155.405 508.382 155.742C507.537 155.42 507 154.785 506.741 154.058C506.429 154.756 505.833 155.361 505.003 155.674L504.612 155.107C505.711 154.697 506.37 153.77 506.38 152.939V152.461H507.122V152.939ZM504.388 149.658C504.383 148.447 505.345 147.622 506.663 147.627C507.981 147.622 508.934 148.447 508.938 149.658C508.934 150.85 507.981 151.67 506.663 151.67C505.345 151.67 504.383 150.85 504.388 149.658ZM505.14 149.658C505.13 150.464 505.77 151.03 506.663 151.035C507.547 151.03 508.187 150.464 508.187 149.658C508.187 148.848 507.547 148.271 506.663 148.281C505.77 148.271 505.13 148.848 505.14 149.658ZM510.589 152.08V147.119H511.351V152.08H510.589ZM519.847 149.746V150.361H513.899V147.432H514.661V149.746H519.847ZM512.815 152.168V151.543H520.765V152.168H512.815ZM513.851 155.576V153.057H514.612V154.941H519.896V155.576H513.851ZM531.175 147.109V152.256H530.403V150.889H528.372V151.631H524.388V147.773H528.372V148.525H530.403V147.109H531.175ZM525.149 151.006H527.62V148.398H525.149V151.006ZM525.384 154.15C525.379 153.105 526.487 152.505 528.294 152.51C530.096 152.505 531.204 153.105 531.204 154.15C531.204 155.186 530.096 155.771 528.294 155.771C526.487 155.771 525.379 155.186 525.384 154.15ZM526.146 154.15C526.141 154.78 526.961 155.166 528.294 155.166C529.622 155.166 530.442 154.78 530.442 154.15C530.442 153.496 529.622 153.115 528.294 153.105C526.961 153.115 526.141 153.496 526.146 154.15ZM528.372 150.244H530.403V149.16H528.372V150.244ZM536.644 148.027V148.691C536.634 149.502 536.634 150.552 536.36 152.031L535.647 151.953C535.765 151.338 535.833 150.801 535.872 150.317L532.884 150.576L532.776 149.941L535.906 149.761C535.921 149.36 535.921 149.009 535.921 148.691V148.662H532.962V148.027H536.644ZM532.513 153.105C532.952 153.105 533.489 153.101 534.056 153.091V151.172H534.769V153.066C535.55 153.037 536.346 152.983 537.015 152.891L537.054 153.467C535.638 153.721 533.787 153.75 532.63 153.76L532.513 153.105ZM537.483 155.332V147.305H538.206V150.791H539.29V147.109H540.022V155.791H539.29V151.426H538.206V155.332H537.483ZM548.05 147.109V149.424H549.358V150.078H548.05V152.344H547.288V147.109H548.05ZM541.282 148.672V148.037H543.489V147.041H544.251V148.037H546.458V148.672H541.282ZM541.78 150.645C541.775 149.717 542.61 149.102 543.87 149.102C545.115 149.102 545.95 149.717 545.96 150.645C545.95 151.587 545.115 152.197 543.87 152.197C542.61 152.197 541.775 151.587 541.78 150.645ZM542.513 150.645C542.508 151.235 543.05 151.602 543.87 151.611C544.681 151.602 545.228 151.235 545.237 150.645C545.228 150.078 544.681 149.697 543.87 149.697C543.05 149.697 542.508 150.078 542.513 150.645ZM542.571 155.674V152.842H548.05V155.674H542.571ZM543.323 155.049H547.288V153.457H543.323V155.049Z" fill="#717680"/>
<path fill-rule="evenodd" clip-rule="evenodd" d="M641.22 124.97C641.513 124.677 641.987 124.677 642.28 124.97L646.78 129.47C647.073 129.763 647.073 130.237 646.78 130.53L642.28 135.03C641.987 135.323 641.513 135.323 641.22 135.03C640.927 134.737 640.927 134.263 641.22 133.97L645.189 130L641.22 126.03C640.927 125.737 640.927 125.263 641.22 124.97Z" fill="#1D2329"/>
<rect x="701" y="40" width="180" height="180" rx="90" fill="url(#paint0_linear_1028_49125)"/>
<path d="M745.621 105.06V106.151C745.621 107.288 745.621 108.424 745.291 109.96L743.691 109.833C743.805 109.319 743.875 108.849 743.919 108.411L737.381 108.69L737.178 107.357L744.002 107.218C744.015 106.919 744.015 106.634 744.021 106.342H737.496V105.06H745.621ZM736.315 111.826V110.544H740.238V109.097H741.863V110.544H746.801V111.826H736.315ZM737.534 115.99V112.537H739.159V114.695H745.811V115.99H737.534ZM757.453 104.628V113.248H755.917V104.628H757.453ZM747.982 111.623V105.504H752.387V106.786H749.531V107.929H751.956V109.16H749.531V110.322C750.788 110.315 751.708 110.277 752.781 110.087L752.946 111.356C751.619 111.585 750.515 111.629 748.769 111.623H747.982ZM749.708 115.965V112.321H751.333V114.67H757.745V115.965H749.708ZM752.451 109.046V107.764H753.619V104.831H755.155V112.981H753.619V109.046H752.451ZM769.335 113.515V114.822H758.76V113.515H769.335ZM759.128 110.696C761.744 110.341 763.064 108.932 763.204 107.535H759.674V106.228H763.229V104.793H764.841V106.228H768.409V107.535H764.879C765.006 108.932 766.333 110.341 768.955 110.696L768.333 111.991C766.276 111.68 764.797 110.747 764.029 109.49C763.261 110.747 761.782 111.68 759.738 111.991L759.128 110.696ZM779.466 105.453V106.177C779.466 106.977 779.466 108.132 779.2 109.566L777.613 109.414C777.822 108.31 777.873 107.465 777.886 106.773H773.525V105.453H779.466ZM772.839 110.404C773.487 110.404 774.217 110.404 774.985 110.385V108.119H776.597V110.334C777.752 110.284 778.927 110.195 780.012 110.036L780.101 111.204C777.695 111.648 774.991 111.693 772.979 111.699L772.839 110.404ZM774.541 115.965V112.486H776.166V114.67H782.653V115.965H774.541ZM780.634 113.261V104.615H782.297V108.132H783.694V109.49H782.297V113.261H780.634ZM793.914 104.615V116.193H792.301V104.615H793.914ZM784.836 106.888V105.58H790.333V110.036H786.525V112.156C788.29 112.144 789.781 112.055 791.476 111.775L791.616 113.083C789.718 113.419 787.998 113.489 785.89 113.489H784.849V108.754H788.683V106.888H784.836ZM804.692 105.313V110.176H799.042V105.313H804.692ZM799.652 114.924C801.962 114.733 803.181 113.819 803.359 113.007H800.122V111.801H803.41V110.849H805.035V111.801H808.323V113.007H805.085C805.263 113.794 806.476 114.702 808.767 114.924L808.221 116.143C806.298 115.965 804.933 115.267 804.229 114.365C803.518 115.279 802.14 115.958 800.21 116.143L799.652 114.924ZM800.642 108.906H803.08V106.57H800.642V108.906ZM806.507 111.166V104.615H808.12V111.166H806.507ZM823.265 113.591V114.886H812.69V113.591H815.318V111.395H813.566V110.087H815.115V106.837H813.515V105.542H822.376V106.837H820.751V110.087H822.326V111.395H820.586V113.591H823.265ZM816.74 110.087H819.152V106.837H816.74V110.087ZM816.943 113.591H818.961V111.395H816.943V113.591ZM833.663 104.628V113.426H832.05V111.242H830.489V109.96H832.05V108.805H830.489V107.497H832.05V104.628H833.663ZM823.951 107.116V105.834H826.439V104.603H828.051V105.834H830.375V107.116H823.951ZM824.522 109.795C824.509 108.462 825.658 107.522 827.226 107.522C828.813 107.522 829.956 108.462 829.968 109.795C829.956 111.128 828.813 112.055 827.226 112.055C825.658 112.055 824.509 111.128 824.522 109.795ZM825.969 115.965V112.677H827.607V114.67H833.904V115.965H825.969ZM826.033 109.795C826.026 110.461 826.521 110.823 827.226 110.823C827.924 110.823 828.438 110.461 828.445 109.795C828.438 109.147 827.924 108.786 827.226 108.779C826.521 108.786 826.026 109.147 826.033 109.795ZM845.177 104.615V116.168H843.628V104.615H845.177ZM835.262 109.617C835.262 107.034 836.246 105.434 837.776 105.44C839.166 105.434 840.118 106.735 840.296 108.894H841.242V104.78H842.765V115.635H841.242V110.176H840.309C840.169 112.442 839.198 113.819 837.776 113.819C836.246 113.819 835.262 112.213 835.262 109.617ZM836.76 109.617C836.748 111.395 837.128 112.271 837.776 112.258C838.442 112.271 838.836 111.395 838.83 109.617C838.836 107.846 838.442 106.964 837.776 106.964C837.128 106.964 836.748 107.846 836.76 109.617ZM773.506 130.861V132.601C774.458 132.543 775.41 132.455 776.312 132.321L776.438 133.502C773.874 133.991 771.132 134.016 769.113 134.022L768.923 132.715C769.792 132.715 770.814 132.708 771.894 132.677V130.861H773.506ZM769.151 129.998C770.897 129.535 771.748 128.456 771.855 127.281H769.52V125.974H771.894V124.717H773.506V125.974H775.893V127.281H773.531C773.639 128.398 774.502 129.446 776.248 129.871L775.512 131.128C774.16 130.785 773.227 130.036 772.7 129.078C772.198 130.087 771.278 130.868 769.913 131.217L769.151 129.998ZM776.972 136.193V124.615H778.584V136.193H776.972ZM786.772 125.263V126.545H784.475C784.481 127.903 785.306 129.306 787.128 129.909L786.328 131.153C785.052 130.753 784.17 129.916 783.668 128.881C783.154 130.03 782.234 130.957 780.869 131.395L780.044 130.112C781.948 129.509 782.812 127.979 782.824 126.545H780.501V125.263H786.772ZM781.91 133.299V132.004H789.845V136.168H788.232V133.299H781.91ZM786.442 128.716V127.396H788.232V124.615H789.845V131.496H788.232V128.716H786.442ZM800.585 124.615V129.312H802.096V130.658H800.585V136.168H798.947V124.615H800.585ZM791.203 132.905C792.047 132.905 793.031 132.905 794.06 132.88V131.89C792.834 131.648 792.035 130.868 792.041 129.795C792.035 128.506 793.203 127.624 794.885 127.624C796.535 127.624 797.716 128.506 797.729 129.795C797.716 130.868 796.903 131.655 795.685 131.89V132.823C796.599 132.772 797.519 132.696 798.376 132.575L798.478 133.756C796.021 134.213 793.368 134.232 791.419 134.226L791.203 132.905ZM791.432 127.167V125.897H794.06V124.679H795.685V125.897H798.287V127.167H791.432ZM793.577 129.795C793.571 130.404 794.091 130.734 794.885 130.734C795.653 130.734 796.167 130.404 796.167 129.795C796.167 129.198 795.653 128.862 794.885 128.855C794.091 128.862 793.571 129.198 793.577 129.795ZM809.319 128.157V129.452H807.25V130.62C808.164 130.576 809.072 130.519 809.929 130.43L810.043 131.585C807.593 131.928 804.984 131.991 802.845 131.991L802.629 130.709C803.556 130.709 804.578 130.696 805.625 130.671V129.452H803.606V125.313H809.218V126.608H805.231V128.157H809.319ZM804.419 135.965V132.651H806.057V134.67H812.595V135.965H804.419ZM810.64 133.312V124.603H812.29V133.312H810.64ZM771.354 144.933V146.139H769.843V147.662H771.278V148.868H762.759V147.662H764.181V146.139H762.683V144.933H771.354ZM761.756 150.747V149.478H772.293V150.747H761.756ZM762.975 152.575V151.407H771.011V154.264H764.575V154.898H771.316V156.092H762.988V153.159H769.412V152.575H762.975ZM765.806 147.662H768.218V146.139H765.806V147.662ZM782.919 144.628V152.385H781.383V148.729H780.38V151.433H778.87V144.831H780.38V147.421H781.383V144.628H782.919ZM773.449 146.71V145.415H777.854V148.932H775.023V150.068C776.286 150.049 777.232 149.979 778.324 149.77L778.463 151.039C777.137 151.306 776 151.337 774.261 151.344H773.461V147.764H776.292V146.71H773.449ZM774.375 154.86C776.845 154.549 778.095 153.299 778.095 152.08V151.877H779.72V152.08C779.714 153.299 780.958 154.549 783.453 154.86L782.805 156.117C780.964 155.857 779.619 155.076 778.914 153.997C778.197 155.076 776.851 155.857 775.023 156.117L774.375 154.86ZM794.764 150.214V151.496H784.227V150.214H788.67V149.287H785.23V147.992H786.652V146.228H785.154V144.933H793.825V146.228H792.314V147.992H793.749V149.287H790.295V150.214H794.764ZM785.446 156.041V152.283H793.507V156.041H785.446ZM787.045 154.746H791.92V153.553H787.045V154.746ZM788.277 147.992H790.689V146.228H788.277V147.992ZM807.764 145.288V146.329C807.758 147.408 807.758 148.583 807.466 150.201H808.996V151.509H804.489V156.181H802.864V151.509H798.458V150.201H805.822C806.12 148.716 806.146 147.58 806.152 146.583H799.665V145.288H807.764ZM820.231 150.303V151.585H815.75V152.588H818.949V156.155H817.336V153.87H810.862V152.588H814.15V151.585H809.694V150.303H820.231ZM810.138 148.678C812.646 148.506 813.82 147.757 814.017 146.926H810.709V145.669H814.15V144.628H815.75V145.669H819.215V146.926H815.876C816.067 147.757 817.235 148.506 819.761 148.678L819.266 149.884C817.14 149.738 815.673 149.128 814.943 148.195C814.22 149.128 812.747 149.738 810.633 149.884L810.138 148.678Z" fill="white"/>
<defs>
<linearGradient id="paint0_linear_1028_49125" x1="791" y1="40" x2="791" y2="220" gradientUnits="userSpaceOnUse">
<stop stop-color="#1AD292"/>
<stop offset="1" stop-color="#11A672"/>
</linearGradient>
</defs>
</svg>
