<svg width="960" height="320" viewBox="0 0 960 320" fill="none" xmlns="http://www.w3.org/2000/svg">
<g clip-path="url(#clip0_1061_34946)">
<rect width="464" height="320" rx="16" fill="#12AD38"/>
<path d="M33.0478 26.8H35.6078V38H33.4798L27.8958 31.2V38H25.3358V26.8H27.4798L33.0478 33.6V26.8ZM40.8337 35.92H46.9297V38H38.2577V26.8H46.7217V28.88H40.8337V31.312H46.0337V33.328H40.8337V35.92ZM63.2838 26.8H65.7638L62.0998 38H59.3158L56.8518 30.416L54.3078 38H51.5398L47.8598 26.8H50.5478L53.0758 34.672L55.7158 26.8H58.1158L60.6758 34.736L63.2838 26.8ZM79.5444 35.504V32.224H81.9124V36.768C80.6804 37.696 78.9844 38.192 77.3844 38.192C73.8644 38.192 71.2724 35.776 71.2724 32.4C71.2724 29.024 73.8644 26.608 77.4324 26.608C79.4004 26.608 81.0324 27.28 82.1204 28.544L80.4564 30.08C79.6404 29.216 78.6964 28.816 77.5604 28.816C75.3844 28.816 73.8964 30.272 73.8964 32.4C73.8964 34.496 75.3844 35.984 77.5284 35.984C78.2324 35.984 78.8884 35.856 79.5444 35.504ZM86.5282 30.528C87.1362 29.696 88.1602 29.264 89.4882 29.264V31.568C89.2802 31.552 89.1202 31.536 88.9282 31.536C87.5522 31.536 86.6402 32.288 86.6402 33.936V38H84.1442V29.392H86.5282V30.528ZM99.3262 33.728C99.3262 33.92 99.2942 34.192 99.2782 34.4H92.7662C93.0062 35.472 93.9182 36.128 95.2302 36.128C96.1422 36.128 96.7982 35.856 97.3902 35.296L98.7182 36.736C97.9182 37.648 96.7182 38.128 95.1662 38.128C92.1902 38.128 90.2542 36.256 90.2542 33.696C90.2542 31.12 92.2222 29.264 94.8462 29.264C97.3742 29.264 99.3262 30.96 99.3262 33.728ZM94.8622 31.152C93.7262 31.152 92.9102 31.84 92.7342 32.944H96.9742C96.7982 31.856 95.9822 31.152 94.8622 31.152ZM109.42 33.728C109.42 33.92 109.388 34.192 109.372 34.4H102.86C103.1 35.472 104.012 36.128 105.324 36.128C106.236 36.128 106.892 35.856 107.484 35.296L108.812 36.736C108.012 37.648 106.812 38.128 105.26 38.128C102.284 38.128 100.348 36.256 100.348 33.696C100.348 31.12 102.316 29.264 104.94 29.264C107.468 29.264 109.42 30.96 109.42 33.728ZM104.956 31.152C103.82 31.152 103.004 31.84 102.828 32.944H107.068C106.892 31.856 106.076 31.152 104.956 31.152ZM116.314 29.264C118.346 29.264 119.882 30.448 119.882 33.072V38H117.386V33.456C117.386 32.064 116.746 31.424 115.642 31.424C114.442 31.424 113.578 32.16 113.578 33.744V38H111.082V29.392H113.466V30.4C114.138 29.664 115.146 29.264 116.314 29.264Z" fill="white"/>
<path d="M31.882 261.2H34.15V271H31.882V266.982H27.43V271H25.162V261.2H27.43V265.064H31.882V261.2ZM38.7226 269.18H44.0566V271H36.4686V261.2H43.8746V263.02H38.7226V265.148H43.2726V266.912H38.7226V269.18ZM54.5575 271H51.9395L49.5735 267.598L47.2495 271H44.6455L48.2715 266.016L44.8275 261.2H47.4035L49.6575 264.378L51.8695 261.2H54.3195L50.9035 265.932L54.5575 271ZM32.112 284.636H30.348L30.06 286.964H31.728V287.84H29.952L29.688 290H28.836L29.1 287.84H26.832L26.568 290H25.716L25.98 287.84H24.324V286.964H26.088L26.388 284.636H24.708V283.76H26.496L26.76 281.6H27.612L27.348 283.76H29.604L29.868 281.6H30.72L30.456 283.76H32.112V284.636ZM29.208 286.964L29.496 284.636H27.24L26.94 286.964H29.208ZM36.4455 290.096C34.4775 290.096 33.0135 288.536 33.0135 285.8C33.0135 283.064 34.4775 281.504 36.4455 281.504C38.4015 281.504 39.8655 283.064 39.8655 285.8C39.8655 288.536 38.4015 290.096 36.4455 290.096ZM36.4455 289.028C37.7535 289.028 38.6655 287.948 38.6655 285.8C38.6655 283.652 37.7535 282.572 36.4455 282.572C35.1255 282.572 34.2135 283.652 34.2135 285.8C34.2135 287.948 35.1255 289.028 36.4455 289.028ZM44.4494 290.096C42.4814 290.096 41.0174 288.536 41.0174 285.8C41.0174 283.064 42.4814 281.504 44.4494 281.504C46.4054 281.504 47.8694 283.064 47.8694 285.8C47.8694 288.536 46.4054 290.096 44.4494 290.096ZM44.4494 289.028C45.7574 289.028 46.6694 287.948 46.6694 285.8C46.6694 283.652 45.7574 282.572 44.4494 282.572C43.1294 282.572 42.2174 283.652 42.2174 285.8C42.2174 287.948 43.1294 289.028 44.4494 289.028ZM55.3573 285.644C56.3053 285.908 56.9293 286.616 56.9293 287.732C56.9293 289.172 55.8373 290 53.7133 290H49.7053V281.6H53.4733C55.4053 281.6 56.4853 282.416 56.4853 283.772C56.4853 284.684 56.0173 285.32 55.3573 285.644ZM53.3653 282.572H50.9053V285.26H53.3653C54.5893 285.26 55.2853 284.804 55.2853 283.916C55.2853 283.028 54.5893 282.572 53.3653 282.572ZM53.6653 289.028C54.9973 289.028 55.7173 288.608 55.7173 287.636C55.7173 286.664 54.9973 286.232 53.6653 286.232H50.9053V289.028H53.6653ZM62.5433 290.096C59.9993 290.096 58.1033 288.284 58.1033 285.8C58.1033 283.316 59.9993 281.504 62.5553 281.504C63.8513 281.504 64.9793 281.948 65.7473 282.812L64.9673 283.568C64.3193 282.884 63.5273 282.572 62.6033 282.572C60.7073 282.572 59.3033 283.94 59.3033 285.8C59.3033 287.66 60.7073 289.028 62.6033 289.028C63.5273 289.028 64.3193 288.704 64.9673 288.02L65.7473 288.776C64.9793 289.64 63.8513 290.096 62.5433 290.096ZM66.5592 281.6H72.8952V282.416L69.4992 290H68.2272L71.5512 282.644H67.7112V284.144H66.5592V281.6ZM78.1762 290.096C75.6322 290.096 73.7362 288.284 73.7362 285.8C73.7362 283.316 75.6322 281.504 78.1882 281.504C79.4842 281.504 80.6122 281.948 81.3802 282.812L80.6002 283.568C79.9522 282.884 79.1602 282.572 78.2362 282.572C76.3402 282.572 74.9362 283.94 74.9362 285.8C74.9362 287.66 76.3402 289.028 78.2362 289.028C79.1602 289.028 79.9522 288.704 80.6002 288.02L81.3802 288.776C80.6122 289.64 79.4842 290.096 78.1762 290.096Z" fill="white"/>
<path d="M241.842 271H239.406L237.516 268.27H237.404H235.43V271H233.162V261.2H237.404C240.022 261.2 241.66 262.558 241.66 264.756C241.66 266.226 240.918 267.304 239.644 267.85L241.842 271ZM239.364 264.756C239.364 263.678 238.664 263.048 237.278 263.048H235.43V266.464H237.278C238.664 266.464 239.364 265.82 239.364 264.756ZM250.079 268.816V265.946H252.151V269.922C251.073 270.734 249.589 271.168 248.189 271.168C245.109 271.168 242.841 269.054 242.841 266.1C242.841 263.146 245.109 261.032 248.231 261.032C249.953 261.032 251.381 261.62 252.333 262.726L250.877 264.07C250.163 263.314 249.337 262.964 248.343 262.964C246.439 262.964 245.137 264.238 245.137 266.1C245.137 267.934 246.439 269.236 248.315 269.236C248.931 269.236 249.505 269.124 250.079 268.816ZM261.454 265.904C262.546 266.254 263.246 267.094 263.246 268.326C263.246 270.02 261.902 271 259.326 271H254.258V261.2H259.046C261.496 261.2 262.756 262.222 262.756 263.748C262.756 264.728 262.252 265.484 261.454 265.904ZM258.766 262.908H256.512V265.218H258.766C259.872 265.218 260.474 264.826 260.474 264.056C260.474 263.286 259.872 262.908 258.766 262.908ZM259.158 269.292C260.334 269.292 260.964 268.928 260.964 268.088C260.964 267.262 260.334 266.87 259.158 266.87H256.512V269.292H259.158ZM236.008 290.096C234.04 290.096 232.576 288.536 232.576 285.8C232.576 283.064 234.04 281.504 236.008 281.504C237.964 281.504 239.428 283.064 239.428 285.8C239.428 288.536 237.964 290.096 236.008 290.096ZM236.008 289.028C237.316 289.028 238.228 287.948 238.228 285.8C238.228 283.652 237.316 282.572 236.008 282.572C234.688 282.572 233.776 283.652 233.776 285.8C233.776 287.948 234.688 289.028 236.008 289.028ZM241.243 288.428C241.699 288.428 242.023 288.776 242.023 289.244C242.023 289.484 241.975 289.664 241.819 290.108L241.255 291.776H240.499L240.943 289.988C240.643 289.88 240.439 289.604 240.439 289.244C240.439 288.764 240.787 288.428 241.243 288.428ZM245.901 281.6H248.985V290H247.797V282.644H245.901V281.6ZM255.958 285.596C256.918 285.968 257.446 286.664 257.446 287.624C257.446 289.148 256.15 290.096 254.098 290.096C252.058 290.096 250.774 289.148 250.774 287.624C250.774 286.664 251.302 285.956 252.25 285.596C251.482 285.236 251.074 284.612 251.074 283.784C251.074 282.38 252.286 281.504 254.098 281.504C255.922 281.504 257.146 282.38 257.146 283.784C257.146 284.612 256.726 285.236 255.958 285.596ZM254.098 282.476C252.97 282.476 252.262 282.992 252.262 283.832C252.262 284.66 252.946 285.176 254.098 285.176C255.262 285.176 255.97 284.66 255.97 283.832C255.97 282.992 255.226 282.476 254.098 282.476ZM254.098 289.124C255.43 289.124 256.246 288.536 256.246 287.588C256.246 286.664 255.43 286.088 254.098 286.088C252.766 286.088 251.974 286.664 251.974 287.588C251.974 288.536 252.766 289.124 254.098 289.124ZM263.681 285.596C264.641 285.968 265.169 286.664 265.169 287.624C265.169 289.148 263.873 290.096 261.821 290.096C259.781 290.096 258.497 289.148 258.497 287.624C258.497 286.664 259.025 285.956 259.973 285.596C259.205 285.236 258.797 284.612 258.797 283.784C258.797 282.38 260.009 281.504 261.821 281.504C263.645 281.504 264.869 282.38 264.869 283.784C264.869 284.612 264.449 285.236 263.681 285.596ZM261.821 282.476C260.693 282.476 259.985 282.992 259.985 283.832C259.985 284.66 260.669 285.176 261.821 285.176C262.985 285.176 263.693 284.66 263.693 283.832C263.693 282.992 262.949 282.476 261.821 282.476ZM261.821 289.124C263.153 289.124 263.969 288.536 263.969 287.588C263.969 286.664 263.153 286.088 261.821 286.088C260.489 286.088 259.697 286.664 259.697 287.588C259.697 288.536 260.489 289.124 261.821 289.124ZM267.189 288.428C267.645 288.428 267.969 288.776 267.969 289.244C267.969 289.484 267.921 289.664 267.765 290.108L267.201 291.776H266.445L266.889 289.988C266.589 289.88 266.385 289.604 266.385 289.244C266.385 288.764 266.733 288.428 267.189 288.428ZM273.922 288.956H278.23V290H272.194V289.184L275.614 285.884C276.502 285.02 276.67 284.492 276.67 283.964C276.67 283.1 276.058 282.572 274.882 282.572C273.982 282.572 273.25 282.86 272.734 283.484L271.918 282.776C272.566 281.972 273.682 281.504 274.99 281.504C276.742 281.504 277.87 282.404 277.87 283.844C277.87 284.66 277.63 285.392 276.49 286.484L273.922 288.956ZM286.302 286.904V287.936H284.706V290H283.542V287.936H278.874V287.096L283.17 281.6H284.466L280.35 286.904H283.578V285.08H284.706V286.904H286.302ZM294.329 286.904V287.936H292.733V290H291.569V287.936H286.901V287.096L291.197 281.6H292.493L288.377 286.904H291.605V285.08H292.733V286.904H294.329Z" fill="white"/>
<rect x="480" width="232" height="320" rx="16" fill="#6C5A4E"/>
<path d="M513.911 32.176C515.159 32.576 515.959 33.536 515.959 34.944C515.959 36.88 514.423 38 511.479 38H505.687V26.8H511.159C513.959 26.8 515.399 27.968 515.399 29.712C515.399 30.832 514.823 31.696 513.911 32.176ZM510.839 28.752H508.263V31.392H510.839C512.103 31.392 512.791 30.944 512.791 30.064C512.791 29.184 512.103 28.752 510.839 28.752ZM511.287 36.048C512.631 36.048 513.351 35.632 513.351 34.672C513.351 33.728 512.631 33.28 511.287 33.28H508.263V36.048H511.287ZM520.13 30.528C520.738 29.696 521.762 29.264 523.09 29.264V31.568C522.882 31.552 522.722 31.536 522.53 31.536C521.154 31.536 520.242 32.288 520.242 33.936V38H517.746V29.392H520.13V30.528ZM528.592 38.128C525.856 38.128 523.856 36.288 523.856 33.696C523.856 31.104 525.856 29.264 528.592 29.264C531.328 29.264 533.312 31.104 533.312 33.696C533.312 36.288 531.328 38.128 528.592 38.128ZM528.592 36.08C529.84 36.08 530.784 35.184 530.784 33.696C530.784 32.208 529.84 31.312 528.592 31.312C527.344 31.312 526.384 32.208 526.384 33.696C526.384 35.184 527.344 36.08 528.592 36.08ZM546.362 29.392H548.57L545.45 38H543.05L541.114 32.656L539.114 38H536.714L533.61 29.392H535.962L537.994 35.216L540.106 29.392H542.218L544.266 35.216L546.362 29.392ZM554.962 29.264C556.994 29.264 558.53 30.448 558.53 33.072V38H556.034V33.456C556.034 32.064 555.394 31.424 554.29 31.424C553.09 31.424 552.226 32.16 552.226 33.744V38H549.73V29.392H552.114V30.4C552.786 29.664 553.794 29.264 554.962 29.264Z" fill="white"/>
<path d="M511.882 261.2H514.15V271H511.882V266.982H507.43V271H505.162V261.2H507.43V265.064H511.882V261.2ZM518.723 269.18H524.057V271H516.469V261.2H523.875V263.02H518.723V265.148H523.273V266.912H518.723V269.18ZM534.558 271H531.94L529.574 267.598L527.25 271H524.646L528.272 266.016L524.828 261.2H527.404L529.658 264.378L531.87 261.2H534.32L530.904 265.932L534.558 271ZM512.112 284.636H510.348L510.06 286.964H511.728V287.84H509.952L509.688 290H508.836L509.1 287.84H506.832L506.568 290H505.716L505.98 287.84H504.324V286.964H506.088L506.388 284.636H504.708V283.76H506.496L506.76 281.6H507.612L507.348 283.76H509.604L509.868 281.6H510.72L510.456 283.76H512.112V284.636ZM509.208 286.964L509.496 284.636H507.24L506.94 286.964H509.208ZM512.534 281.6H515.618V290H514.43V282.644H512.534V281.6ZM520.179 281.504C522.435 281.504 523.707 283.016 523.707 285.692C523.707 288.56 522.087 290.096 519.735 290.096C518.943 290.096 518.187 289.94 517.647 289.604L518.103 288.668C518.547 288.956 519.111 289.064 519.723 289.064C521.427 289.064 522.507 287.996 522.507 285.896V285.596C522.015 286.328 521.127 286.7 520.083 286.7C518.415 286.7 517.215 285.704 517.215 284.156C517.215 282.536 518.511 281.504 520.179 281.504ZM520.287 285.728C521.439 285.728 522.231 285.02 522.231 284.096C522.231 283.232 521.535 282.476 520.227 282.476C519.135 282.476 518.379 283.112 518.379 284.108C518.379 285.092 519.111 285.728 520.287 285.728ZM526.422 288.956H530.73V290H524.694V289.184L528.114 285.884C529.002 285.02 529.17 284.492 529.17 283.964C529.17 283.1 528.558 282.572 527.382 282.572C526.482 282.572 525.75 282.86 525.234 283.484L524.418 282.776C525.066 281.972 526.182 281.504 527.49 281.504C529.242 281.504 530.37 282.404 530.37 283.844C530.37 284.66 530.13 285.392 528.99 286.484L526.422 288.956ZM538.802 286.904V287.936H537.206V290H536.042V287.936H531.374V287.096L535.67 281.6H536.966L532.85 286.904H536.078V285.08H537.206V286.904H538.802ZM542.597 285.128C544.277 285.284 545.129 286.232 545.129 287.528C545.129 288.944 544.085 290.096 541.949 290.096C540.749 290.096 539.573 289.712 538.865 289.076L539.417 288.128C539.981 288.656 540.917 289.028 541.949 289.028C543.209 289.028 543.929 288.452 543.929 287.54C543.929 286.652 543.293 286.076 541.853 286.076H541.181V285.236L543.293 282.644H539.249V281.6H544.793V282.416L542.597 285.128ZM546.932 290V281.6H550.472C553.172 281.6 555.008 283.304 555.008 285.8C555.008 288.296 553.172 290 550.472 290H546.932ZM548.132 288.956H550.4C552.476 288.956 553.808 287.684 553.808 285.8C553.808 283.916 552.476 282.644 550.4 282.644H548.132V288.956Z" fill="white"/>
<path d="M605.842 271H603.406L601.516 268.27H601.404H599.43V271H597.162V261.2H601.404C604.022 261.2 605.66 262.558 605.66 264.756C605.66 266.226 604.918 267.304 603.644 267.85L605.842 271ZM603.364 264.756C603.364 263.678 602.664 263.048 601.278 263.048H599.43V266.464H601.278C602.664 266.464 603.364 265.82 603.364 264.756ZM614.079 268.816V265.946H616.151V269.922C615.073 270.734 613.589 271.168 612.189 271.168C609.109 271.168 606.841 269.054 606.841 266.1C606.841 263.146 609.109 261.032 612.231 261.032C613.953 261.032 615.381 261.62 616.333 262.726L614.877 264.07C614.163 263.314 613.337 262.964 612.343 262.964C610.439 262.964 609.137 264.238 609.137 266.1C609.137 267.934 610.439 269.236 612.315 269.236C612.931 269.236 613.505 269.124 614.079 268.816ZM625.454 265.904C626.546 266.254 627.246 267.094 627.246 268.326C627.246 270.02 625.902 271 623.326 271H618.258V261.2H623.046C625.496 261.2 626.756 262.222 626.756 263.748C626.756 264.728 626.252 265.484 625.454 265.904ZM622.766 262.908H620.512V265.218H622.766C623.872 265.218 624.474 264.826 624.474 264.056C624.474 263.286 623.872 262.908 622.766 262.908ZM623.158 269.292C624.334 269.292 624.964 268.928 624.964 268.088C624.964 267.262 624.334 266.87 623.158 266.87H620.512V269.292H623.158ZM598.172 288.956H602.48V290H596.444V289.184L599.864 285.884C600.752 285.02 600.92 284.492 600.92 283.964C600.92 283.1 600.308 282.572 599.132 282.572C598.232 282.572 597.5 282.86 596.984 283.484L596.168 282.776C596.816 281.972 597.932 281.504 599.24 281.504C600.992 281.504 602.12 282.404 602.12 283.844C602.12 284.66 601.88 285.392 600.74 286.484L598.172 288.956ZM605.867 284.948C608.375 284.948 609.359 285.992 609.359 287.48C609.359 288.932 608.327 290.096 606.179 290.096C604.991 290.096 603.815 289.712 603.095 289.076L603.647 288.128C604.211 288.656 605.147 289.028 606.167 289.028C607.439 289.028 608.159 288.44 608.159 287.528C608.159 286.58 607.559 285.992 605.615 285.992H603.707L604.151 281.6H608.891V282.644H605.159L604.931 284.948H605.867ZM611.161 288.428C611.617 288.428 611.941 288.776 611.941 289.244C611.941 289.484 611.893 289.664 611.737 290.108L611.173 291.776H610.417L610.861 289.988C610.561 289.88 610.357 289.604 610.357 289.244C610.357 288.764 610.705 288.428 611.161 288.428ZM619.515 285.128C621.195 285.284 622.047 286.232 622.047 287.528C622.047 288.944 621.003 290.096 618.867 290.096C617.667 290.096 616.491 289.712 615.783 289.076L616.335 288.128C616.899 288.656 617.835 289.028 618.867 289.028C620.127 289.028 620.847 288.452 620.847 287.54C620.847 286.652 620.211 286.076 618.771 286.076H618.099V285.236L620.211 282.644H616.167V281.6H621.711V282.416L619.515 285.128ZM626.79 284.9C628.458 284.9 629.67 285.896 629.67 287.444C629.67 289.064 628.362 290.096 626.694 290.096C624.438 290.096 623.166 288.584 623.166 285.908C623.166 283.04 624.786 281.504 627.138 281.504C627.93 281.504 628.686 281.66 629.226 281.996L628.77 282.932C628.338 282.644 627.762 282.536 627.162 282.536C625.458 282.536 624.366 283.604 624.366 285.704C624.366 285.8 624.366 285.896 624.378 286.004C624.858 285.284 625.746 284.9 626.79 284.9ZM626.646 289.124C627.738 289.124 628.506 288.488 628.506 287.492C628.506 286.508 627.762 285.872 626.586 285.872C625.446 285.872 624.654 286.58 624.654 287.504C624.654 288.368 625.35 289.124 626.646 289.124ZM631.493 288.428C631.949 288.428 632.273 288.776 632.273 289.244C632.273 289.484 632.225 289.664 632.069 290.108L631.505 291.776H630.749L631.193 289.988C630.893 289.88 630.689 289.604 630.689 289.244C630.689 288.764 631.037 288.428 631.493 288.428ZM640.255 284.9C641.923 284.9 643.135 285.896 643.135 287.444C643.135 289.064 641.827 290.096 640.159 290.096C637.903 290.096 636.631 288.584 636.631 285.908C636.631 283.04 638.251 281.504 640.603 281.504C641.395 281.504 642.151 281.66 642.691 281.996L642.235 282.932C641.803 282.644 641.227 282.536 640.627 282.536C638.923 282.536 637.831 283.604 637.831 285.704C637.831 285.8 637.831 285.896 637.843 286.004C638.323 285.284 639.211 284.9 640.255 284.9ZM640.111 289.124C641.203 289.124 641.971 288.488 641.971 287.492C641.971 286.508 641.227 285.872 640.051 285.872C638.911 285.872 638.119 286.58 638.119 287.504C638.119 288.368 638.815 289.124 640.111 289.124ZM643.557 281.6H646.641V290H645.453V282.644H643.557V281.6Z" fill="white"/>
<rect x="728" width="232" height="152" rx="16" fill="#E8E8E8"/>
<path d="M757.125 38.192C755.349 38.192 753.557 37.664 752.565 36.896L753.445 34.944C754.389 35.632 755.797 36.112 757.141 36.112C758.677 36.112 759.301 35.6 759.301 34.912C759.301 32.816 752.789 34.256 752.789 30.096C752.789 28.192 754.325 26.608 757.509 26.608C758.917 26.608 760.357 26.944 761.397 27.6L760.597 29.568C759.557 28.976 758.485 28.688 757.493 28.688C755.957 28.688 755.365 29.264 755.365 29.968C755.365 32.032 761.877 30.608 761.877 34.72C761.877 36.592 760.325 38.192 757.125 38.192ZM767.568 38.128C764.832 38.128 762.832 36.288 762.832 33.696C762.832 31.104 764.832 29.264 767.568 29.264C770.304 29.264 772.288 31.104 772.288 33.696C772.288 36.288 770.304 38.128 767.568 38.128ZM767.568 36.08C768.816 36.08 769.76 35.184 769.76 33.696C769.76 32.208 768.816 31.312 767.568 31.312C766.32 31.312 765.36 32.208 765.36 33.696C765.36 35.184 766.32 36.08 767.568 36.08ZM776.693 29.216V29.584H778.901V31.504H776.757V38H774.261V31.504H772.933V29.584H774.261V29.2C774.261 27.264 775.445 26 777.589 26C778.293 26 779.029 26.144 779.493 26.464L778.837 28.272C778.565 28.08 778.213 27.968 777.829 27.968C777.093 27.968 776.693 28.368 776.693 29.216ZM785.024 35.824L785.696 37.584C785.184 37.952 784.432 38.128 783.664 38.128C781.632 38.128 780.448 37.088 780.448 35.04V31.504H779.12V29.584H780.448V27.488H782.944V29.584H785.088V31.504H782.944V35.008C782.944 35.744 783.344 36.144 784.016 36.144C784.384 36.144 784.752 36.032 785.024 35.824ZM799.373 35.504V32.224H801.741V36.768C800.509 37.696 798.813 38.192 797.213 38.192C793.693 38.192 791.101 35.776 791.101 32.4C791.101 29.024 793.693 26.608 797.261 26.608C799.229 26.608 800.861 27.28 801.949 28.544L800.285 30.08C799.469 29.216 798.525 28.816 797.389 28.816C795.213 28.816 793.725 30.272 793.725 32.4C793.725 34.496 795.213 35.984 797.357 35.984C798.061 35.984 798.717 35.856 799.373 35.504ZM806.356 30.528C806.964 29.696 807.988 29.264 809.316 29.264V31.568C809.108 31.552 808.948 31.536 808.756 31.536C807.38 31.536 806.468 32.288 806.468 33.936V38H803.972V29.392H806.356V30.528ZM814.226 29.264C816.85 29.264 818.37 30.48 818.37 33.088V38H816.034V36.928C815.57 37.712 814.674 38.128 813.41 38.128C811.394 38.128 810.194 37.008 810.194 35.52C810.194 34 811.266 32.944 813.89 32.944H815.874C815.874 31.872 815.234 31.248 813.89 31.248C812.978 31.248 812.034 31.552 811.41 32.048L810.514 30.304C811.458 29.632 812.85 29.264 814.226 29.264ZM814.034 36.448C814.866 36.448 815.586 36.064 815.874 35.28V34.4H814.162C812.994 34.4 812.626 34.832 812.626 35.408C812.626 36.032 813.154 36.448 814.034 36.448ZM826.616 29.392H829.016L825.128 38.528C824.296 40.608 823.112 41.232 821.56 41.232C820.68 41.232 819.72 40.944 819.16 40.448L820.072 38.672C820.456 39.008 820.984 39.216 821.48 39.216C822.168 39.216 822.552 38.912 822.888 38.144L822.92 38.064L819.192 29.392H821.768L824.184 35.232L826.616 29.392Z" fill="#535862"/>
<path d="M759.882 93.2H762.15V103H759.882V98.982H755.43V103H753.162V93.2H755.43V97.064H759.882V93.2ZM766.723 101.18H772.057V103H764.469V93.2H771.875V95.02H766.723V97.148H771.273V98.912H766.723V101.18ZM782.558 103H779.94L777.574 99.598L775.25 103H772.646L776.272 98.016L772.828 93.2H775.404L777.658 96.378L779.87 93.2H782.32L778.904 97.932L782.558 103ZM760.112 116.636H758.348L758.06 118.964H759.728V119.84H757.952L757.688 122H756.836L757.1 119.84H754.832L754.568 122H753.716L753.98 119.84H752.324V118.964H754.088L754.388 116.636H752.708V115.76H754.496L754.76 113.6H755.612L755.348 115.76H757.604L757.868 113.6H758.72L758.456 115.76H760.112V116.636ZM757.208 118.964L757.496 116.636H755.24L754.94 118.964H757.208ZM761.698 122V113.6H765.238C767.938 113.6 769.774 115.304 769.774 117.8C769.774 120.296 767.938 122 765.238 122H761.698ZM762.898 120.956H765.166C767.242 120.956 768.574 119.684 768.574 117.8C768.574 115.916 767.242 114.644 765.166 114.644H762.898V120.956ZM776.064 117.596C777.024 117.968 777.552 118.664 777.552 119.624C777.552 121.148 776.256 122.096 774.204 122.096C772.164 122.096 770.88 121.148 770.88 119.624C770.88 118.664 771.408 117.956 772.356 117.596C771.588 117.236 771.18 116.612 771.18 115.784C771.18 114.38 772.392 113.504 774.204 113.504C776.028 113.504 777.252 114.38 777.252 115.784C777.252 116.612 776.832 117.236 776.064 117.596ZM774.204 114.476C773.076 114.476 772.368 114.992 772.368 115.832C772.368 116.66 773.052 117.176 774.204 117.176C775.368 117.176 776.076 116.66 776.076 115.832C776.076 114.992 775.332 114.476 774.204 114.476ZM774.204 121.124C775.536 121.124 776.352 120.536 776.352 119.588C776.352 118.664 775.536 118.088 774.204 118.088C772.872 118.088 772.08 118.664 772.08 119.588C772.08 120.536 772.872 121.124 774.204 121.124ZM779.334 122V113.6H782.874C785.574 113.6 787.41 115.304 787.41 117.8C787.41 120.296 785.574 122 782.874 122H779.334ZM780.534 120.956H782.802C784.878 120.956 786.21 119.684 786.21 117.8C786.21 115.916 784.878 114.644 782.802 114.644H780.534V120.956ZM791.288 113.504C793.544 113.504 794.816 115.016 794.816 117.692C794.816 120.56 793.196 122.096 790.844 122.096C790.052 122.096 789.296 121.94 788.756 121.604L789.212 120.668C789.656 120.956 790.22 121.064 790.832 121.064C792.536 121.064 793.616 119.996 793.616 117.896V117.596C793.124 118.328 792.236 118.7 791.192 118.7C789.524 118.7 788.324 117.704 788.324 116.156C788.324 114.536 789.62 113.504 791.288 113.504ZM791.396 117.728C792.548 117.728 793.34 117.02 793.34 116.096C793.34 115.232 792.644 114.476 791.336 114.476C790.244 114.476 789.488 115.112 789.488 116.108C789.488 117.092 790.22 117.728 791.396 117.728ZM796.655 122V113.6H800.195C802.895 113.6 804.731 115.304 804.731 117.8C804.731 120.296 802.895 122 800.195 122H796.655ZM797.855 120.956H800.123C802.199 120.956 803.531 119.684 803.531 117.8C803.531 115.916 802.199 114.644 800.123 114.644H797.855V120.956ZM808.609 113.504C810.865 113.504 812.137 115.016 812.137 117.692C812.137 120.56 810.517 122.096 808.165 122.096C807.373 122.096 806.617 121.94 806.077 121.604L806.533 120.668C806.977 120.956 807.541 121.064 808.153 121.064C809.857 121.064 810.937 119.996 810.937 117.896V117.596C810.445 118.328 809.557 118.7 808.513 118.7C806.845 118.7 805.645 117.704 805.645 116.156C805.645 114.536 806.941 113.504 808.609 113.504ZM808.717 117.728C809.869 117.728 810.661 117.02 810.661 116.096C810.661 115.232 809.965 114.476 808.657 114.476C807.565 114.476 806.809 115.112 806.809 116.108C806.809 117.092 807.541 117.728 808.717 117.728Z" fill="#717680"/>
<path d="M853.842 103H851.406L849.516 100.27H849.404H847.43V103H845.162V93.2H849.404C852.022 93.2 853.66 94.558 853.66 96.756C853.66 98.226 852.918 99.304 851.644 99.85L853.842 103ZM851.364 96.756C851.364 95.678 850.664 95.048 849.278 95.048H847.43V98.464H849.278C850.664 98.464 851.364 97.82 851.364 96.756ZM862.079 100.816V97.946H864.151V101.922C863.073 102.734 861.589 103.168 860.189 103.168C857.109 103.168 854.841 101.054 854.841 98.1C854.841 95.146 857.109 93.032 860.231 93.032C861.953 93.032 863.381 93.62 864.333 94.726L862.877 96.07C862.163 95.314 861.337 94.964 860.343 94.964C858.439 94.964 857.137 96.238 857.137 98.1C857.137 99.934 858.439 101.236 860.315 101.236C860.931 101.236 861.505 101.124 862.079 100.816ZM873.454 97.904C874.546 98.254 875.246 99.094 875.246 100.326C875.246 102.02 873.902 103 871.326 103H866.258V93.2H871.046C873.496 93.2 874.756 94.222 874.756 95.748C874.756 96.728 874.252 97.484 873.454 97.904ZM870.766 94.908H868.512V97.218H870.766C871.872 97.218 872.474 96.826 872.474 96.056C872.474 95.286 871.872 94.908 870.766 94.908ZM871.158 101.292C872.334 101.292 872.964 100.928 872.964 100.088C872.964 99.262 872.334 98.87 871.158 98.87H868.512V101.292H871.158ZM846.172 120.956H850.48V122H844.444V121.184L847.864 117.884C848.752 117.02 848.92 116.492 848.92 115.964C848.92 115.1 848.308 114.572 847.132 114.572C846.232 114.572 845.5 114.86 844.984 115.484L844.168 114.776C844.816 113.972 845.932 113.504 847.24 113.504C848.992 113.504 850.12 114.404 850.12 115.844C850.12 116.66 849.88 117.392 848.74 118.484L846.172 120.956ZM850.987 113.6H854.071V122H852.883V114.644H850.987V113.6ZM859.532 116.9C861.2 116.9 862.412 117.896 862.412 119.444C862.412 121.064 861.104 122.096 859.436 122.096C857.18 122.096 855.908 120.584 855.908 117.908C855.908 115.04 857.528 113.504 859.88 113.504C860.672 113.504 861.428 113.66 861.968 113.996L861.512 114.932C861.08 114.644 860.504 114.536 859.904 114.536C858.2 114.536 857.108 115.604 857.108 117.704C857.108 117.8 857.108 117.896 857.12 118.004C857.6 117.284 858.488 116.9 859.532 116.9ZM859.388 121.124C860.48 121.124 861.248 120.488 861.248 119.492C861.248 118.508 860.504 117.872 859.328 117.872C858.188 117.872 857.396 118.58 857.396 119.504C857.396 120.368 858.092 121.124 859.388 121.124ZM864.235 120.428C864.691 120.428 865.015 120.776 865.015 121.244C865.015 121.484 864.967 121.664 864.811 122.108L864.247 123.776H863.491L863.935 121.988C863.635 121.88 863.431 121.604 863.431 121.244C863.431 120.764 863.779 120.428 864.235 120.428ZM870.969 120.956H875.277V122H869.241V121.184L872.661 117.884C873.549 117.02 873.717 116.492 873.717 115.964C873.717 115.1 873.105 114.572 871.929 114.572C871.029 114.572 870.297 114.86 869.781 115.484L868.965 114.776C869.613 113.972 870.729 113.504 872.037 113.504C873.789 113.504 874.917 114.404 874.917 115.844C874.917 116.66 874.677 117.392 873.537 118.484L870.969 120.956ZM875.784 113.6H878.868V122H877.68V114.644H875.784V113.6ZM880.489 113.6H886.825V114.416L883.429 122H882.157L885.481 114.644H881.641V116.144H880.489V113.6ZM888.06 120.428C888.516 120.428 888.84 120.776 888.84 121.244C888.84 121.484 888.792 121.664 888.636 122.108L888.072 123.776H887.316L887.76 121.988C887.46 121.88 887.256 121.604 887.256 121.244C887.256 120.764 887.604 120.428 888.06 120.428ZM894.793 120.956H899.101V122H893.065V121.184L896.485 117.884C897.373 117.02 897.541 116.492 897.541 115.964C897.541 115.1 896.929 114.572 895.753 114.572C894.853 114.572 894.121 114.86 893.605 115.484L892.789 114.776C893.437 113.972 894.553 113.504 895.861 113.504C897.613 113.504 898.741 114.404 898.741 115.844C898.741 116.66 898.501 117.392 897.361 118.484L894.793 120.956ZM899.608 113.6H902.692V122H901.504V114.644H899.608V113.6ZM904.313 113.6H910.649V114.416L907.253 122H905.981L909.305 114.644H905.465V116.144H904.313V113.6Z" fill="#717680"/>
<rect x="728" y="168" width="232" height="152" rx="16" fill="#30385D"/>
<path d="M761.259 194.8H763.819V206H761.691L756.107 199.2V206H753.547V194.8H755.691L761.259 201.6V194.8ZM769.765 197.264C772.389 197.264 773.909 198.48 773.909 201.088V206H771.573V204.928C771.109 205.712 770.213 206.128 768.949 206.128C766.933 206.128 765.733 205.008 765.733 203.52C765.733 202 766.805 200.944 769.429 200.944H771.413C771.413 199.872 770.773 199.248 769.429 199.248C768.517 199.248 767.573 199.552 766.949 200.048L766.053 198.304C766.997 197.632 768.389 197.264 769.765 197.264ZM769.573 204.448C770.405 204.448 771.125 204.064 771.413 203.28V202.4H769.701C768.533 202.4 768.165 202.832 768.165 203.408C768.165 204.032 768.693 204.448 769.573 204.448ZM782.155 197.392H784.555L780.923 206H778.347L774.731 197.392H777.307L779.691 203.248L782.155 197.392ZM791.515 197.392H793.915L790.027 206.528C789.195 208.608 788.011 209.232 786.459 209.232C785.579 209.232 784.619 208.944 784.059 208.448L784.971 206.672C785.355 207.008 785.883 207.216 786.379 207.216C787.067 207.216 787.451 206.912 787.787 206.144L787.819 206.064L784.091 197.392H786.667L789.083 203.232L791.515 197.392Z" fill="white"/>
<path d="M759.882 261.2H762.15V271H759.882V266.982H755.43V271H753.162V261.2H755.43V265.064H759.882V261.2ZM766.723 269.18H772.057V271H764.469V261.2H771.875V263.02H766.723V265.148H771.273V266.912H766.723V269.18ZM782.558 271H779.94L777.574 267.598L775.25 271H772.646L776.272 266.016L772.828 261.2H775.404L777.658 264.378L779.87 261.2H782.32L778.904 265.932L782.558 271ZM760.112 284.636H758.348L758.06 286.964H759.728V287.84H757.952L757.688 290H756.836L757.1 287.84H754.832L754.568 290H753.716L753.98 287.84H752.324V286.964H754.088L754.388 284.636H752.708V283.76H754.496L754.76 281.6H755.612L755.348 283.76H757.604L757.868 281.6H758.72L758.456 283.76H760.112V284.636ZM757.208 286.964L757.496 284.636H755.24L754.94 286.964H757.208ZM760.534 281.6H763.618V290H762.43V282.644H760.534V281.6ZM768.179 281.504C770.435 281.504 771.707 283.016 771.707 285.692C771.707 288.56 770.087 290.096 767.735 290.096C766.943 290.096 766.187 289.94 765.647 289.604L766.103 288.668C766.547 288.956 767.111 289.064 767.723 289.064C769.427 289.064 770.507 287.996 770.507 285.896V285.596C770.015 286.328 769.127 286.7 768.083 286.7C766.415 286.7 765.215 285.704 765.215 284.156C765.215 282.536 766.511 281.504 768.179 281.504ZM768.287 285.728C769.439 285.728 770.231 285.02 770.231 284.096C770.231 283.232 769.535 282.476 768.227 282.476C767.135 282.476 766.379 283.112 766.379 284.108C766.379 285.092 767.111 285.728 768.287 285.728ZM774.422 288.956H778.73V290H772.694V289.184L776.114 285.884C777.002 285.02 777.17 284.492 777.17 283.964C777.17 283.1 776.558 282.572 775.382 282.572C774.482 282.572 773.75 282.86 773.234 283.484L772.418 282.776C773.066 281.972 774.182 281.504 775.49 281.504C777.242 281.504 778.37 282.404 778.37 283.844C778.37 284.66 778.13 285.392 776.99 286.484L774.422 288.956ZM786.802 286.904V287.936H785.206V290H784.042V287.936H779.374V287.096L783.67 281.6H784.966L780.85 286.904H784.078V285.08H785.206V286.904H786.802ZM790.597 285.128C792.277 285.284 793.129 286.232 793.129 287.528C793.129 288.944 792.085 290.096 789.949 290.096C788.749 290.096 787.573 289.712 786.865 289.076L787.417 288.128C787.981 288.656 788.917 289.028 789.949 289.028C791.209 289.028 791.929 288.452 791.929 287.54C791.929 286.652 791.293 286.076 789.853 286.076H789.181V285.236L791.293 282.644H787.249V281.6H792.793V282.416L790.597 285.128ZM794.932 290V281.6H798.472C801.172 281.6 803.008 283.304 803.008 285.8C803.008 288.296 801.172 290 798.472 290H794.932ZM796.132 288.956H798.4C800.476 288.956 801.808 287.684 801.808 285.8C801.808 283.916 800.476 282.644 798.4 282.644H796.132V288.956Z" fill="white"/>
<path d="M853.842 271H851.406L849.516 268.27H849.404H847.43V271H845.162V261.2H849.404C852.022 261.2 853.66 262.558 853.66 264.756C853.66 266.226 852.918 267.304 851.644 267.85L853.842 271ZM851.364 264.756C851.364 263.678 850.664 263.048 849.278 263.048H847.43V266.464H849.278C850.664 266.464 851.364 265.82 851.364 264.756ZM862.079 268.816V265.946H864.151V269.922C863.073 270.734 861.589 271.168 860.189 271.168C857.109 271.168 854.841 269.054 854.841 266.1C854.841 263.146 857.109 261.032 860.231 261.032C861.953 261.032 863.381 261.62 864.333 262.726L862.877 264.07C862.163 263.314 861.337 262.964 860.343 262.964C858.439 262.964 857.137 264.238 857.137 266.1C857.137 267.934 858.439 269.236 860.315 269.236C860.931 269.236 861.505 269.124 862.079 268.816ZM873.454 265.904C874.546 266.254 875.246 267.094 875.246 268.326C875.246 270.02 873.902 271 871.326 271H866.258V261.2H871.046C873.496 261.2 874.756 262.222 874.756 263.748C874.756 264.728 874.252 265.484 873.454 265.904ZM870.766 262.908H868.512V265.218H870.766C871.872 265.218 872.474 264.826 872.474 264.056C872.474 263.286 871.872 262.908 870.766 262.908ZM871.158 269.292C872.334 269.292 872.964 268.928 872.964 268.088C872.964 267.262 872.334 266.87 871.158 266.87H868.512V269.292H871.158ZM846.172 288.956H850.48V290H844.444V289.184L847.864 285.884C848.752 285.02 848.92 284.492 848.92 283.964C848.92 283.1 848.308 282.572 847.132 282.572C846.232 282.572 845.5 282.86 844.984 283.484L844.168 282.776C844.816 281.972 845.932 281.504 847.24 281.504C848.992 281.504 850.12 282.404 850.12 283.844C850.12 284.66 849.88 285.392 848.74 286.484L846.172 288.956ZM853.867 284.948C856.375 284.948 857.359 285.992 857.359 287.48C857.359 288.932 856.327 290.096 854.179 290.096C852.991 290.096 851.815 289.712 851.095 289.076L851.647 288.128C852.211 288.656 853.147 289.028 854.167 289.028C855.439 289.028 856.159 288.44 856.159 287.528C856.159 286.58 855.559 285.992 853.615 285.992H851.707L852.151 281.6H856.891V282.644H853.159L852.931 284.948H853.867ZM859.161 288.428C859.617 288.428 859.941 288.776 859.941 289.244C859.941 289.484 859.893 289.664 859.737 290.108L859.173 291.776H858.417L858.861 289.988C858.561 289.88 858.357 289.604 858.357 289.244C858.357 288.764 858.705 288.428 859.161 288.428ZM867.515 285.128C869.195 285.284 870.047 286.232 870.047 287.528C870.047 288.944 869.003 290.096 866.867 290.096C865.667 290.096 864.491 289.712 863.783 289.076L864.335 288.128C864.899 288.656 865.835 289.028 866.867 289.028C868.127 289.028 868.847 288.452 868.847 287.54C868.847 286.652 868.211 286.076 866.771 286.076H866.099V285.236L868.211 282.644H864.167V281.6H869.711V282.416L867.515 285.128ZM874.79 284.9C876.458 284.9 877.67 285.896 877.67 287.444C877.67 289.064 876.362 290.096 874.694 290.096C872.438 290.096 871.166 288.584 871.166 285.908C871.166 283.04 872.786 281.504 875.138 281.504C875.93 281.504 876.686 281.66 877.226 281.996L876.77 282.932C876.338 282.644 875.762 282.536 875.162 282.536C873.458 282.536 872.366 283.604 872.366 285.704C872.366 285.8 872.366 285.896 872.378 286.004C872.858 285.284 873.746 284.9 874.79 284.9ZM874.646 289.124C875.738 289.124 876.506 288.488 876.506 287.492C876.506 286.508 875.762 285.872 874.586 285.872C873.446 285.872 872.654 286.58 872.654 287.504C872.654 288.368 873.35 289.124 874.646 289.124ZM879.493 288.428C879.949 288.428 880.273 288.776 880.273 289.244C880.273 289.484 880.225 289.664 880.069 290.108L879.505 291.776H878.749L879.193 289.988C878.893 289.88 878.689 289.604 878.689 289.244C878.689 288.764 879.037 288.428 879.493 288.428ZM888.255 284.9C889.923 284.9 891.135 285.896 891.135 287.444C891.135 289.064 889.827 290.096 888.159 290.096C885.903 290.096 884.631 288.584 884.631 285.908C884.631 283.04 886.251 281.504 888.603 281.504C889.395 281.504 890.151 281.66 890.691 281.996L890.235 282.932C889.803 282.644 889.227 282.536 888.627 282.536C886.923 282.536 885.831 283.604 885.831 285.704C885.831 285.8 885.831 285.896 885.843 286.004C886.323 285.284 887.211 284.9 888.255 284.9ZM888.111 289.124C889.203 289.124 889.971 288.488 889.971 287.492C889.971 286.508 889.227 285.872 888.051 285.872C886.911 285.872 886.119 286.58 886.119 287.504C886.119 288.368 886.815 289.124 888.111 289.124ZM891.557 281.6H894.641V290H893.453V282.644H891.557V281.6Z" fill="white"/>
</g>
<defs>
<clipPath id="clip0_1061_34946">
<rect width="960" height="320" fill="white"/>
</clipPath>
</defs>
</svg>
