<svg width="960" height="200" viewBox="0 0 960 200" fill="none" xmlns="http://www.w3.org/2000/svg">
<rect width="228" height="200" rx="40" fill="url(#paint0_linear_1060_155348)" fill-opacity="0.08"/>
<rect x="0.467836" y="0.467836" width="227.064" height="199.064" rx="39.5322" stroke="#00BD7D" stroke-opacity="0.12" stroke-width="0.935673"/>
<path d="M76.3037 55.2988C76.1982 54.2881 75.3984 53.6992 74.1064 53.6992C72.7705 53.6992 72.0234 54.3145 72.0146 55.1582C72.0059 56.0811 72.9551 56.4941 74.0537 56.7402L75.1963 57.0215C77.376 57.5225 79.002 58.6299 79.0107 60.748C79.002 63.0771 77.1914 64.5713 74.0889 64.5625C71.0127 64.5713 69.0527 63.1475 68.9736 60.4141H71.54C71.6279 61.6973 72.6475 62.3477 74.0537 62.3477C75.4424 62.3477 76.3389 61.6973 76.3389 60.748C76.3389 59.8779 75.5479 59.4736 74.1592 59.1309L72.7705 58.7969C70.626 58.2695 69.3076 57.1973 69.3076 55.334C69.2988 53.0225 71.3379 51.4844 74.124 51.4844C76.9453 51.4844 78.7998 53.0488 78.835 55.2988H76.3037ZM85.708 54.8418V56.793H83.915V61.4512C83.9062 62.2158 84.2842 62.4004 84.8115 62.418C85.0752 62.418 85.5322 62.3916 85.8486 62.3652V64.4219C85.5674 64.4658 85.1016 64.5186 84.46 64.5098C82.5791 64.5186 81.2959 63.6748 81.3135 61.8203V56.793H79.9951V54.8418H81.3135V52.5566H83.915V54.8418H85.708ZM87.3428 64.3867V54.8418H89.8564V56.4941H89.9619C90.3047 55.3252 91.1924 54.7012 92.2646 54.7012C92.5283 54.7012 92.8623 54.7363 93.0908 54.7891V57.1094C92.8447 57.0303 92.3438 56.9688 91.9834 56.9688C90.8057 56.9688 89.9355 57.7861 89.9443 58.9551V64.3867H87.3428ZM100.474 60.3262V54.8418H103.075V64.3867H100.579V62.6641H100.474C100.043 63.7715 99.0146 64.5098 97.5732 64.5098C95.666 64.5098 94.3564 63.1562 94.3564 60.9238V54.8418H96.958V60.4668C96.958 61.6006 97.6084 62.3037 98.6279 62.3125C99.5771 62.3037 100.474 61.627 100.474 60.3262ZM109.386 64.5801C106.459 64.5713 104.701 62.5498 104.71 59.6406C104.701 56.7227 106.494 54.7188 109.386 54.7188C111.847 54.7188 113.517 56.1514 113.622 58.3398H111.179C111.021 57.3994 110.405 56.749 109.421 56.7402C108.173 56.749 107.347 57.7949 107.347 59.6055C107.347 61.4512 108.155 62.5059 109.421 62.5059C110.335 62.5059 111.012 61.9346 111.179 60.9238H113.622C113.508 63.0859 111.917 64.5713 109.386 64.5801ZM120.267 54.8418V56.793H118.474V61.4512C118.465 62.2158 118.843 62.4004 119.37 62.418C119.634 62.418 120.091 62.3916 120.407 62.3652V64.4219C120.126 64.4658 119.66 64.5186 119.019 64.5098C117.138 64.5186 115.854 63.6748 115.872 61.8203V56.793H114.554V54.8418H115.872V52.5566H118.474V54.8418H120.267ZM128.019 60.3262V54.8418H130.62V64.3867H128.124V62.6641H128.019C127.588 63.7715 126.56 64.5098 125.118 64.5098C123.211 64.5098 121.901 63.1562 121.901 60.9238V54.8418H124.503V60.4668C124.503 61.6006 125.153 62.3037 126.173 62.3125C127.122 62.3037 128.019 61.627 128.019 60.3262ZM132.642 64.3867V54.8418H135.155V56.4941H135.261C135.604 55.3252 136.491 54.7012 137.563 54.7012C137.827 54.7012 138.161 54.7363 138.39 54.7891V57.1094C138.144 57.0303 137.643 56.9688 137.282 56.9688C136.104 56.9688 135.234 57.7861 135.243 58.9551V64.3867H132.642ZM143.681 64.5801C140.754 64.5713 138.961 62.6816 138.97 59.6582C138.961 56.7139 140.78 54.7188 143.575 54.7188C146.08 54.7188 148.058 56.3008 148.058 59.5527V60.291H141.536C141.536 61.7324 142.389 62.6201 143.733 62.6289C144.621 62.6201 145.254 62.2334 145.509 61.6621H147.987C147.618 63.4287 146.036 64.5713 143.681 64.5801ZM141.536 58.6562H145.597C145.588 57.4961 144.788 56.6611 143.628 56.6699C142.433 56.6611 141.589 57.5576 141.536 58.6562ZM153.208 64.5449C151.028 64.5449 149.323 62.8135 149.323 59.623C149.323 56.3535 151.099 54.7188 153.208 54.7188C154.808 54.7188 155.572 55.668 155.915 56.4414H156.003V51.6602H158.604V64.3867H156.038V62.8574H155.915C155.555 63.6484 154.764 64.5449 153.208 64.5449ZM151.995 59.6055C151.986 61.293 152.698 62.4619 154.017 62.4707C155.317 62.4619 156.056 61.3281 156.056 59.6055C156.056 57.8916 155.326 56.793 154.017 56.793C152.689 56.793 151.986 57.9443 151.995 59.6055Z" fill="#00BD7D"/>
<path d="M40.0557 86.4316V98.873H38.374V86.4316H40.0557ZM29.6514 96.0977V87.8398H34.4092V89.2344H31.3604V94.6553C32.6865 94.6416 33.6982 94.5664 34.8604 94.334L34.9971 95.7559C33.5889 96.0361 32.3379 96.0977 30.5127 96.0977H29.6514ZM33.5615 92.3926V90.9707H35.79V86.6504H37.417V98.3125H35.79V92.3926H33.5615ZM51.7861 86.4316V98.9004H50.0225V86.4316H51.7861ZM41.7373 91.7363C41.7305 89.0225 43.1182 87.3066 45.0322 87.3066C46.9053 87.3066 48.2998 89.0225 48.2998 91.7363C48.2998 94.4707 46.9053 96.1797 45.0322 96.1797C43.1182 96.1797 41.7305 94.4707 41.7373 91.7363ZM43.4189 91.7363C43.4121 93.5889 44.0615 94.6006 45.0322 94.5938C45.9756 94.6006 46.6113 93.5889 46.6182 91.7363C46.6113 89.8906 45.9756 88.8789 45.0322 88.8789C44.0615 88.8789 43.4121 89.8906 43.4189 91.7363ZM63.9678 86.4316V98.9004H62.2451V92.2285H60.0576V90.8203H62.2451V86.4316H63.9678ZM54.042 96.084V87.4707H59.8525V88.8789H55.7783V90.9434H59.4014V92.3105H55.7783V94.6621C57.5078 94.6484 58.8887 94.5869 60.4268 94.3477L60.6045 95.7422C58.7861 96.0156 57.1592 96.0771 55.0264 96.084H54.042ZM73.7842 93.1582V95.0312C74.8096 94.9697 75.835 94.874 76.8057 94.7305L76.9424 96.002C74.1807 96.5283 71.2275 96.5557 69.0537 96.5625L68.8486 95.1543C69.7852 95.1543 70.8857 95.1475 72.0479 95.1133V93.1582H73.7842ZM69.0947 92.2285C70.9746 91.7295 71.8906 90.5674 72.0068 89.3027H69.4912V87.8945H72.0479V86.541H73.7842V87.8945H76.3545V89.3027H73.8115C73.9277 90.5059 74.8574 91.6338 76.7373 92.0918L75.9443 93.4453C74.4883 93.0762 73.4834 92.2695 72.916 91.2373C72.376 92.3242 71.3848 93.165 69.915 93.541L69.0947 92.2285ZM77.5166 98.9004V86.4316H79.2529V98.9004H77.5166ZM88.0713 87.1289V88.5098H85.5967C85.6035 89.9727 86.4922 91.4834 88.4541 92.1328L87.5928 93.4727C86.2188 93.042 85.2686 92.1396 84.7285 91.0254C84.1748 92.2627 83.1836 93.2607 81.7139 93.7324L80.8252 92.3516C82.876 91.7021 83.8057 90.0547 83.8193 88.5098H81.3174V87.1289H88.0713ZM82.835 95.7832V94.3887H91.3799V98.873H89.6436V95.7832H82.835ZM87.7158 90.8477V89.4258H89.6436V86.4316H91.3799V93.8418H89.6436V90.8477H87.7158ZM102.946 86.4316V91.4902H104.573V92.9395H102.946V98.873H101.183V86.4316H102.946ZM92.8428 95.3594C93.752 95.3594 94.8115 95.3594 95.9189 95.332V94.2656C94.5996 94.0059 93.7383 93.165 93.7451 92.0098C93.7383 90.6221 94.9961 89.6719 96.8076 89.6719C98.585 89.6719 99.8564 90.6221 99.8701 92.0098C99.8564 93.165 98.9814 94.0127 97.6689 94.2656V95.2705C98.6533 95.2158 99.6445 95.1338 100.567 95.0039L100.677 96.2754C98.0312 96.7676 95.1738 96.7881 93.0752 96.7812L92.8428 95.3594ZM93.0889 89.1797V87.8125H95.9189V86.5H97.6689V87.8125H100.472V89.1797H93.0889ZM95.3994 92.0098C95.3926 92.666 95.9531 93.0215 96.8076 93.0215C97.6348 93.0215 98.1885 92.666 98.1885 92.0098C98.1885 91.3672 97.6348 91.0049 96.8076 90.998C95.9531 91.0049 95.3926 91.3672 95.3994 92.0098ZM115.032 87.1836V92.4199H108.948V87.1836H115.032ZM109.604 97.5332C112.093 97.3281 113.405 96.3438 113.597 95.4688H110.11V94.1699H113.651V93.1445H115.401V94.1699H118.942V95.4688H115.456C115.647 96.3164 116.953 97.2939 119.421 97.5332L118.833 98.8457C116.762 98.6543 115.292 97.9023 114.533 96.9316C113.768 97.916 112.284 98.6475 110.206 98.8457L109.604 97.5332ZM110.671 91.0527H113.296V88.5371H110.671V91.0527ZM116.987 93.4863V86.4316H118.724V93.4863H116.987ZM130.03 87.457V88.8789H125.901V90.9297H129.853V92.2969H125.901V94.6484C127.679 94.6279 129.135 94.5527 130.796 94.293L130.96 95.7012C129.06 95.9883 127.364 96.043 125.19 96.043H124.138V87.457H130.03ZM131.712 98.873V86.4316H133.462V91.1484H135.294V92.6113H133.462V98.873H131.712ZM146.437 86.4453V94.5391H144.782V86.4453H146.437ZM135.704 92.9805C137.987 92.0234 139.129 90.6836 139.382 88.8652H136.333V87.4844H141.173C141.173 88.3389 141.07 89.1318 140.852 89.8496H142.212V86.6777H143.853V93.4863H142.212V91.2441H140.25C139.519 92.502 138.315 93.5068 136.593 94.2656L135.704 92.9805ZM137.14 97.4512C139.84 97.0957 141.187 95.6738 141.187 94.3203V93.9238H142.937V94.3203C142.937 95.6738 144.311 97.0957 146.997 97.4512L146.327 98.832C144.317 98.5312 142.841 97.6494 142.055 96.4531C141.275 97.6494 139.812 98.5312 137.81 98.832L137.14 97.4512ZM158.331 86.4316V92.8301H156.595V91.5859H154.298V92.4746H148.378V86.9648H150.128V88.4141H152.575V86.9648H154.298V88.0176H156.595V86.4316H158.331ZM150.046 94.6348V93.2949H158.331V96.6172H151.81V97.3691H158.7V98.7363H150.06V95.3457H156.595V94.6348H150.046ZM150.128 91.1074H152.575V89.7402H150.128V91.1074ZM154.298 90.2734H156.595V89.3164H154.298V90.2734ZM173.124 87.5801V89.0703C173.117 90.7793 173.117 92.4678 172.673 95.0449L170.909 94.8945C171.381 92.502 171.381 90.7246 171.388 89.0703V88.9746H164.347V87.5801H173.124ZM163.171 97.2461V95.8105H174.519V97.2461H163.171ZM186.646 92.4473V93.8281H181.792V94.9082H180.069V93.8281H175.257V92.4473H186.646ZM176.651 87.9219V86.6094H185.265V89.8086H178.415V90.5332H185.497V91.8184H176.679V88.5918H183.515V87.9219H176.651ZM176.679 98.7363V94.3613H178.401V95.3867H183.556V94.3613H185.278V98.7363H176.679ZM178.401 97.4102H183.556V96.6582H178.401V97.4102ZM194.671 87.375V88.7695H193.646V91.7842C194.158 91.7432 194.664 91.6885 195.149 91.627L195.272 92.9121C192.743 93.3564 189.831 93.4043 187.767 93.4043L187.575 91.9961C187.992 91.9961 188.443 91.9961 188.915 91.9893V88.7695H187.903V87.375H194.671ZM189.284 96.5078C189.284 95.0176 190.904 94.1768 193.563 94.1836C196.229 94.1768 197.863 95.0176 197.87 96.5078C197.863 98.0117 196.229 98.8799 193.563 98.873C190.904 98.8799 189.284 98.0117 189.284 96.5078ZM190.583 91.9551C191.034 91.9414 191.499 91.9209 191.964 91.9004V88.7695H190.583V91.9551ZM191.021 96.5078C191.021 97.1982 191.896 97.5469 193.563 97.5469C195.238 97.5469 196.113 97.1982 196.12 96.5078C196.113 95.8447 195.238 95.5029 193.563 95.5098C191.896 95.5029 191.021 95.8447 191.021 96.5078ZM196.038 93.9512V86.4453H197.788V93.9512H196.038Z" fill="#495057"/>
<path d="M73.418 125.945C73.418 127.779 74.6309 129.672 76.1133 130.398L75.5508 131.137C74.4023 130.539 73.4414 129.303 72.9785 127.855C72.5156 129.391 71.5312 130.709 70.3594 131.336L69.7734 130.598C71.2969 129.848 72.5039 127.85 72.5156 125.945V124.047H73.418V125.945ZM77.0742 133.562V123.145H77.9883V127.375H79.7344V128.172H77.9883V133.562H77.0742ZM89.7891 128.301V129.062H80.2969V128.301H82.6523V126.83C81.8203 126.508 81.3516 125.98 81.3516 125.277C81.3516 124.053 82.7578 123.35 85.043 123.344C87.3105 123.35 88.7168 124.053 88.7227 125.277C88.7168 125.975 88.2539 126.502 87.4336 126.83V128.301H89.7891ZM81.4453 131.699C81.4395 130.51 82.7812 129.854 85.043 129.859C87.2754 129.854 88.6172 130.51 88.6289 131.699C88.6172 132.889 87.2754 133.539 85.043 133.539C82.7812 133.539 81.4395 132.889 81.4453 131.699ZM82.3008 125.277C82.2949 126.039 83.3379 126.479 85.043 126.484C86.7305 126.479 87.7793 126.039 87.7852 125.277C87.7793 124.527 86.7305 124.07 85.043 124.07C83.3379 124.07 82.2949 124.527 82.3008 125.277ZM82.3828 131.699C82.3711 132.408 83.373 132.83 85.043 132.824C86.6953 132.83 87.6973 132.408 87.7031 131.699C87.6973 130.99 86.6953 130.574 85.043 130.562C83.373 130.574 82.3711 130.99 82.3828 131.699ZM83.5664 128.301H86.5195V127.076C86.0801 127.158 85.5879 127.199 85.043 127.199C84.498 127.199 84.0059 127.158 83.5664 127.082V128.301ZM94.1953 126.344C94.1836 128.014 95.3906 129.854 96.9023 130.574L96.375 131.301C95.2031 130.727 94.2129 129.496 93.7441 128.084C93.2637 129.613 92.2207 130.961 91.0547 131.559L90.4922 130.832C91.9922 130.1 93.2812 128.119 93.293 126.344V124.984H90.8672V124.223H96.5391V124.984H94.1953V126.344ZM97.8164 133.562V123.145H98.7305V127.363H100.477V128.148H98.7305V133.562H97.8164ZM113.578 128.664V129.414H109.336V131.453H108.422V129.414H104.039V128.664H113.578ZM105.258 133.34V130.492H106.172V132.566H112.512V133.34H105.258ZM105.316 127.645V123.484H106.23V124.82H111.387V123.484H112.301V127.645H105.316ZM106.23 126.895H111.387V125.523H106.23V126.895ZM117.973 124.82C117.967 126.256 119.039 127.58 120.551 128.102L120.047 128.84C118.893 128.412 117.984 127.527 117.539 126.414C117.1 127.645 116.162 128.605 114.938 129.086L114.434 128.324C116.016 127.768 117.059 126.391 117.07 124.785V123.684H117.973V124.82ZM116.051 130.621V129.883H123.059V133.562H122.133V130.621H116.051ZM119.812 126.109V125.336H122.133V123.145H123.059V129.309H122.133V126.109H119.812ZM129.539 123.332C131.854 123.332 133.213 123.971 133.219 125.125C133.213 126.309 131.854 126.947 129.539 126.953C127.213 126.947 125.848 126.309 125.848 125.125C125.848 123.971 127.213 123.332 129.539 123.332ZM124.793 128.406V127.656H134.285V128.406H124.793ZM125.941 130.012V129.309H133.066V131.641H126.879V132.719H133.383V133.445H125.965V130.961H132.164V130.012H125.941ZM126.809 125.125C126.797 125.852 127.811 126.25 129.539 126.25C131.268 126.25 132.275 125.852 132.281 125.125C132.275 124.439 131.268 124.029 129.539 124.023C127.811 124.029 126.797 124.439 126.809 125.125ZM147.668 128.676V129.426H138.164V128.676H142.453V127.645H139.43V123.449H146.484V124.199H140.355V125.172H146.203V125.875H140.355V126.906H146.543V127.645H143.367V128.676H147.668ZM139.324 131.875C139.318 130.791 140.613 130.199 142.922 130.211C145.207 130.199 146.496 130.791 146.508 131.875C146.496 132.971 145.207 133.539 142.922 133.539C140.613 133.539 139.318 132.971 139.324 131.875ZM140.25 131.875C140.238 132.508 141.199 132.836 142.922 132.824C144.627 132.836 145.576 132.508 145.582 131.875C145.576 131.254 144.627 130.908 142.922 130.902C141.199 130.908 140.238 131.254 140.25 131.875ZM156.691 123.156V126.59H158.262V127.363H156.691V130.961H155.777V123.156H156.691ZM148.57 125.184V124.434H151.219V123.156H152.133V124.434H154.781V125.184H148.57ZM149.168 127.703C149.162 126.52 150.17 125.758 151.676 125.758C153.164 125.758 154.172 126.52 154.184 127.703C154.172 128.875 153.164 129.631 151.676 129.625C150.17 129.631 149.162 128.875 149.168 127.703ZM150.047 127.703C150.041 128.436 150.691 128.91 151.676 128.898C152.648 128.91 153.305 128.436 153.316 127.703C153.305 126.959 152.648 126.479 151.676 126.484C150.691 126.479 150.041 126.959 150.047 127.703ZM150.176 133.34V130.34H151.078V132.566H157.172V133.34H150.176ZM32.5605 141.145V147.355H31.6348V144.625H29.5371V143.863H31.6348V141.145H32.5605ZM23.9707 146.523C25.5176 145.967 26.6191 144.555 26.6191 143.066V142.68H24.2637V141.906H29.877V142.68H27.5449V143.055C27.5449 144.414 28.5879 145.709 30.1113 146.23L29.6309 146.969C28.4648 146.547 27.5566 145.668 27.1055 144.596C26.6602 145.814 25.6934 146.787 24.4512 147.262L23.9707 146.523ZM25.6113 149.617C25.6055 148.393 26.9355 147.678 29.1035 147.684C31.2656 147.678 32.5957 148.393 32.5957 149.617C32.5957 150.848 31.2656 151.551 29.1035 151.562C26.9355 151.551 25.6055 150.848 25.6113 149.617ZM26.5254 149.617C26.5195 150.373 27.5039 150.83 29.1035 150.824C30.6973 150.83 31.6816 150.373 31.6816 149.617C31.6816 148.855 30.6973 148.398 29.1035 148.398C27.5039 148.398 26.5195 148.855 26.5254 149.617ZM43.834 149.465V150.227H34.2949V149.465H38.584V147.215H35.4199V141.883H36.3457V143.77H41.7598V141.883H42.6621V147.215H39.4863V149.465H43.834ZM36.3457 146.465H41.7598V144.52H36.3457V146.465ZM55.916 141.824V142.738C55.916 143.723 55.916 144.807 55.6172 146.301H57.1699V147.062H52.8691V151.586H51.9434V147.062H47.6777V146.301H54.6855C55.002 144.801 55.002 143.711 55.002 142.738V142.586H48.873V141.824H55.916ZM67.5879 149.453V150.227H58.0488V149.453H62.3496V146.922H63.2754V149.453H67.5879ZM58.5176 146.547C60.2812 146.248 62.3262 144.789 62.3262 143.125V142.867H58.834V142.094H66.7676V142.867H63.2754V143.125C63.2812 144.789 65.332 146.219 67.1309 146.512L66.7559 147.238C65.1621 146.922 63.4805 145.908 62.8125 144.467C62.1445 145.926 60.4688 146.963 58.9043 147.285L58.5176 146.547ZM80.3848 141.145V151.562H79.4941V146.148H78.0762V151.035H77.1973V141.367H78.0762V145.363H79.4941V141.145H80.3848ZM71.3262 148.703C72.8262 147.877 73.6289 146.107 73.623 143.992V143.16H71.5723V142.387H76.4473V143.16H74.5137V143.992C74.5137 145.896 75.3047 147.578 76.7871 148.34L76.2363 149.055C75.1875 148.48 74.4609 147.455 74.0918 146.184C73.7344 147.631 72.9961 148.768 71.9004 149.406L71.3262 148.703ZM90.4395 141.145V146.535H89.5137V143.828H87.1934V143.066H89.5137V141.145H90.4395ZM81.791 145.82C83.3613 145.299 84.4395 143.992 84.4512 142.469V141.484H85.3535V142.469C85.3418 143.834 86.4199 145.088 87.9434 145.586L87.4512 146.301C86.2969 145.891 85.377 145.07 84.9141 144.016C84.4688 145.205 83.5254 146.113 82.2949 146.559L81.791 145.82ZM83.6895 147.801V147.062H90.4395V149.547H84.6152V150.684H90.8262V151.422H83.7129V148.844H89.5254V147.801H83.6895ZM101.092 141.145V151.562H100.213V141.145H101.092ZM92.1621 148.645C94.4297 147.303 95.5664 145.422 95.748 143.242H92.6309V142.48H96.6621C96.6621 143.014 96.6152 143.541 96.5215 144.051H98.1035V141.426H98.9824V151.035H98.1035V147.426H96.1699V146.664H98.1035V144.812H96.3398C95.8359 146.576 94.6934 148.135 92.7246 149.312L92.1621 148.645ZM112.084 149.5V150.273H102.545V149.5H106.834V147.531H103.74V144.32H109.975V142.68H103.717V141.918H110.877V145.07H104.654V146.77H111.123V147.531H107.736V149.5H112.084ZM124.553 141.145V146.805H123.639V144.449H121.529V143.676H123.639V141.145H124.553ZM115.975 146.254C117.51 145.697 118.623 144.32 118.623 142.844V142.539H116.268V141.777H121.881V142.539H119.549V142.844C119.549 144.18 120.592 145.492 122.115 146.02L121.635 146.734C120.463 146.307 119.555 145.434 119.104 144.367C118.658 145.562 117.691 146.529 116.455 146.98L115.975 146.254ZM117.85 151.422V147.309H118.775V148.609H123.639V147.309H124.553V151.422H117.85ZM118.775 150.672H123.639V149.348H118.775V150.672ZM134.584 141.777V142.586C134.584 143.465 134.584 144.52 134.309 145.938H135.838V146.711H126.299V145.938H133.395C133.676 144.496 133.676 143.471 133.67 142.586V142.527H127.506V141.777H134.584ZM127.564 151.328V147.883H128.479V150.555H134.9V151.328H127.564ZM148.318 141.145V148.902H147.393V145.879H145.611V145.105H147.393V143.898H145.611V143.137H147.393V141.145H148.318ZM139.705 146.535C140.121 146.535 140.572 146.529 141.053 146.523V142.75H139.998V142H145.529V142.75H144.463V146.4C144.943 146.371 145.418 146.33 145.869 146.277L145.916 146.969C143.895 147.279 141.516 147.314 139.822 147.32L139.705 146.535ZM141.604 151.34V148.258H142.529V150.566H148.6V151.34H141.604ZM141.943 146.506C142.477 146.494 143.027 146.477 143.572 146.453V142.75H141.943V146.506ZM153.463 141.906C155.098 141.912 156.258 142.908 156.264 144.355C156.258 145.809 155.098 146.799 153.463 146.805C151.816 146.799 150.645 145.809 150.65 144.355C150.645 142.908 151.816 141.912 153.463 141.906ZM150.111 148.504C152.033 148.51 154.688 148.492 156.99 148.152L157.061 148.832C154.676 149.277 152.115 149.289 150.24 149.289L150.111 148.504ZM151.553 144.355C151.547 145.328 152.35 145.996 153.463 145.996C154.564 145.996 155.367 145.328 155.361 144.355C155.367 143.389 154.564 142.715 153.463 142.715C152.35 142.715 151.547 143.389 151.553 144.355ZM157.682 151.586V141.145H158.596V151.586H157.682ZM164.01 142.785C163.998 144.273 165.059 145.58 166.588 146.102L166.072 146.816C164.924 146.389 164.021 145.539 163.57 144.443C163.125 145.691 162.176 146.658 160.916 147.133L160.412 146.383C162.018 145.82 163.084 144.438 163.096 142.82V141.742H164.01V142.785ZM162.111 149.594C162.105 148.34 163.436 147.619 165.604 147.625C167.766 147.619 169.096 148.34 169.096 149.594C169.096 150.836 167.766 151.539 165.604 151.539C163.436 151.539 162.105 150.836 162.111 149.594ZM163.025 149.594C163.02 150.35 164.004 150.807 165.604 150.801C167.197 150.807 168.182 150.35 168.182 149.594C168.182 148.814 167.197 148.352 165.604 148.352C164.004 148.352 163.02 148.814 163.025 149.594ZM165.814 144.145V143.383H168.135V141.145H169.061V147.32H168.135V144.145H165.814ZM182.092 141.66V142.375C182.092 143.16 182.092 144.168 181.828 145.539H183.346V146.301H173.807V145.539H180.902C181.178 144.174 181.184 143.184 181.178 142.41H175.014V141.66H182.092ZM174.814 148.598V147.859H182.174V151.598H181.248V148.598H174.814ZM193.084 141.145V151.562H192.205V146.102H190.67V151.023H189.826V141.379H190.67V145.34H192.205V141.145H193.084ZM184.564 148.984V142.422H188.467V143.184H185.479V148.199C186.914 148.193 187.904 148.141 189.064 147.906L189.146 148.68C187.893 148.938 186.832 148.979 185.232 148.984H184.564ZM202.635 141.145V145.586H204.299V146.359H202.635V151.562H201.709V141.145H202.635ZM194.42 148.785C195.27 148.785 196.26 148.779 197.291 148.75V147.602C196.078 147.461 195.287 146.746 195.299 145.715C195.287 144.537 196.283 143.775 197.76 143.781C199.213 143.775 200.227 144.537 200.232 145.715C200.227 146.752 199.424 147.461 198.217 147.602V148.715C199.184 148.668 200.168 148.586 201.076 148.457L201.135 149.16C198.861 149.547 196.4 149.57 194.572 149.57L194.42 148.785ZM194.607 143.172V142.422H197.291V141.168H198.217V142.422H200.889V143.172H194.607ZM196.154 145.715C196.16 146.436 196.793 146.91 197.76 146.898C198.709 146.91 199.348 146.436 199.354 145.715C199.348 144.988 198.709 144.496 197.76 144.496C196.793 144.496 196.16 144.988 196.154 145.715Z" fill="#3C6764"/>
<rect x="244" width="228" height="200" rx="40" fill="url(#paint1_linear_1060_155348)" fill-opacity="0.08"/>
<rect x="244.468" y="0.467836" width="227.064" height="199.064" rx="39.5322" stroke="#00BD7D" stroke-opacity="0.12" stroke-width="0.935673"/>
<path d="M334.981 51.6602L338.075 61.3633H338.198L341.31 51.6602H344.228L339.833 64.3867H336.44L332.028 51.6602H334.981ZM345.616 64.3867V54.8418H348.218V64.3867H345.616ZM345.493 52.2754C345.493 51.5371 346.135 50.9482 346.917 50.9395C347.69 50.9482 348.332 51.5371 348.323 52.2754C348.332 52.9961 347.69 53.5938 346.917 53.5938C346.135 53.5938 345.493 52.9961 345.493 52.2754ZM355.688 57.6719C355.574 57.0039 354.994 56.5732 354.124 56.5645C353.28 56.5732 352.639 56.9688 352.647 57.5488C352.639 57.9795 352.973 58.3135 353.878 58.498L355.583 58.8496C357.438 59.2363 358.334 60.0625 358.343 61.4336C358.334 63.3145 356.646 64.5713 354.106 64.5801C351.531 64.5713 350.02 63.4199 349.8 61.5566H352.419C352.542 62.3037 353.148 62.6904 354.106 62.6992C355.056 62.6904 355.688 62.3125 355.688 61.6973C355.688 61.2051 355.284 60.8975 354.388 60.7129L352.806 60.3965C350.986 60.0361 350.055 59.1045 350.063 57.6895C350.055 55.8613 351.628 54.7188 354.089 54.7188C356.497 54.7188 357.991 55.8613 358.132 57.6719H355.688ZM366.06 60.3262V54.8418H368.661V64.3867H366.165V62.6641H366.06C365.629 63.7715 364.601 64.5098 363.159 64.5098C361.252 64.5098 359.942 63.1562 359.942 60.9238V54.8418H362.544V60.4668C362.544 61.6006 363.194 62.3037 364.214 62.3125C365.163 62.3037 366.06 61.627 366.06 60.3262ZM370.226 61.7148C370.234 59.5879 371.939 58.8936 373.776 58.7793C374.462 58.7354 375.745 58.6738 376.149 58.6562V57.8828C376.141 57.083 375.596 56.626 374.62 56.6172C373.732 56.626 373.179 57.0215 373.038 57.6719H370.56C370.718 56.0195 372.159 54.7188 374.69 54.7188C376.773 54.7188 378.742 55.6504 378.733 57.9531V64.3867H376.272V63.0684H376.202C375.736 63.9473 374.822 64.5713 373.407 64.5625C371.579 64.5713 370.234 63.6045 370.226 61.7148ZM372.722 61.6445C372.722 62.374 373.311 62.7607 374.146 62.7695C375.332 62.7607 376.158 61.9873 376.149 60.9766V60.2822C375.754 60.2998 374.638 60.3613 374.198 60.3965C373.293 60.4756 372.722 60.9062 372.722 61.6445ZM383.321 51.6602V64.3867H380.72V51.6602H383.321Z" fill="#00BD7D"/>
<path d="M270.445 89.248C270.438 91.5312 271.478 93.8213 273.59 94.7168L272.564 96.1113C271.143 95.4688 270.158 94.2246 269.591 92.6865C269.03 94.3682 268.012 95.7217 266.494 96.4121L265.441 94.9629C267.615 94.0469 268.675 91.6611 268.682 89.248V87.3887H270.445V89.248ZM274.26 98.9004V86.4316H276.023V98.9004H274.26ZM287.576 86.4316V89.3438H289.258V90.793H287.576V93.6641H285.826V86.4316H287.576ZM277.527 92.3105C280.364 91.5928 281.923 90.1846 282.189 88.5098H278.184V87.1289H284.076C284.069 90.4512 281.984 92.7002 278.252 93.6367L277.527 92.3105ZM279.195 95.5508V94.1562H287.576V98.873H285.826V95.5508H279.195ZM303.518 86.4453V95.5371H301.781V91.1211H299.696C299.348 92.5566 298.062 93.5342 296.504 93.541C294.617 93.5342 293.182 92.1943 293.195 90.3555C293.182 88.5029 294.617 87.1904 296.504 87.1973C298.11 87.1904 299.423 88.209 299.724 89.7129H301.781V86.4453H303.518ZM294.85 90.3555C294.843 91.3877 295.561 92.0234 296.504 92.0234C297.42 92.0234 298.124 91.3877 298.131 90.3555C298.124 89.3164 297.42 88.7148 296.504 88.7148C295.561 88.7148 294.843 89.3164 294.85 90.3555ZM295.26 98.6543V94.6211H297.01V97.2598H303.818V98.6543H295.26ZM308.562 87.3066C310.244 87.3066 311.502 88.6875 311.748 90.9297H313.908V86.4316H315.631V98.9004H313.908V92.3242H311.769C311.584 94.7168 310.299 96.1797 308.562 96.1797C306.676 96.1797 305.322 94.4707 305.336 91.7363C305.322 89.0225 306.676 87.3066 308.562 87.3066ZM307.004 91.7363C306.997 93.5889 307.633 94.6006 308.562 94.5938C309.499 94.6006 310.121 93.5889 310.121 91.7363C310.121 89.8906 309.499 88.8789 308.562 88.8789C307.633 88.8789 306.997 89.8906 307.004 91.7363ZM328.605 92.0098V93.3086H317.217V92.0098H328.605ZM318.516 95.127V93.9238H327.238V96.8633H320.266V97.5742H327.607V98.7637H318.529V95.7559H325.516V95.127H318.516ZM318.611 87.8398V86.6504H327.225V89.5762H320.375V90.2461H327.443V91.4219H318.639V88.4688H325.475V87.8398H318.611ZM343.904 92.8438V94.2109H332.529V92.8438H337.342V92.0781H333.951V86.7324H342.578V88.0723H335.701V88.7695H342.291V90.0273H335.701V90.7383H342.688V92.0781H339.092V92.8438H343.904ZM333.855 96.8223C333.855 95.5098 335.428 94.7715 338.217 94.7852C340.958 94.7715 342.537 95.5098 342.551 96.8223C342.537 98.1621 340.958 98.8799 338.217 98.873C335.428 98.8799 333.855 98.1621 333.855 96.8223ZM335.605 96.8223C335.592 97.3555 336.426 97.5879 338.217 97.5879C339.967 97.5879 340.794 97.3555 340.801 96.8223C340.794 96.3027 339.967 96.0635 338.217 96.0703C336.426 96.0635 335.592 96.3027 335.605 96.8223ZM354.527 86.4453V90.2598H356.209V91.6816H354.527V95.7285H352.777V86.4453H354.527ZM344.656 89.125V87.7441H347.486V86.418H349.223V87.7441H352.039V89.125H344.656ZM345.258 91.9688C345.258 90.5264 346.536 89.5625 348.348 89.5625C350.152 89.5625 351.41 90.5264 351.41 91.9688C351.41 93.4043 350.152 94.3477 348.348 94.3477C346.536 94.3477 345.258 93.4043 345.258 91.9688ZM346.461 98.6543V95.0176H348.197V97.2598H354.979V98.6543H346.461ZM346.967 91.9688C346.96 92.6523 347.514 93.0215 348.348 93.0215C349.188 93.0215 349.756 92.6523 349.756 91.9688C349.756 91.2783 349.188 90.8955 348.348 90.8887C347.514 90.8955 346.96 91.2783 346.967 91.9688ZM370.4 86.4316V93.9238H368.65V86.4316H370.4ZM360.037 92.3789C362.095 91.7158 363.045 90.1025 363.059 88.5508H360.502V87.1562H367.338V88.5508H364.836C364.843 90.0137 365.772 91.5312 367.803 92.1465L366.914 93.5C365.52 93.0625 364.542 92.167 363.981 91.0391C363.414 92.2695 362.402 93.2471 360.939 93.7324L360.037 92.3789ZM361.842 95.8652V94.4707H370.4V98.873H368.65V95.8652H361.842ZM379.055 87.334V88.1133C379.055 88.9746 379.055 90.2188 378.768 91.7637L377.059 91.5996C377.284 90.4102 377.339 89.501 377.353 88.7559H372.656V87.334H379.055ZM371.918 92.666C372.615 92.666 373.401 92.666 374.229 92.6455V90.2051H375.965V92.5908C377.209 92.5361 378.474 92.4404 379.643 92.2695L379.738 93.5273C377.147 94.0059 374.235 94.0537 372.068 94.0605L371.918 92.666ZM373.75 98.6543V94.9082H375.5V97.2598H382.486V98.6543H373.75ZM380.312 95.7422V86.4316H382.104V90.2188H383.607V91.6816H382.104V95.7422H380.312ZM391.359 87.1289V88.5098H388.885C388.892 89.9727 389.78 91.4834 391.742 92.1328L390.881 93.4727C389.507 93.042 388.557 92.1396 388.017 91.0254C387.463 92.2627 386.472 93.2607 385.002 93.7324L384.113 92.3516C386.164 91.7021 387.094 90.0547 387.107 88.5098H384.605V87.1289H391.359ZM386.123 95.7832V94.3887H394.668V98.873H392.932V95.7832H386.123ZM391.004 90.8477V89.4258H392.932V86.4316H394.668V93.8418H392.932V90.8477H391.004ZM409.994 86.4316V93.8145H408.258V90.875H406.316V89.4668H408.258V86.4316H409.994ZM399.426 92.4473C401.463 91.7637 402.393 90.1367 402.434 88.5781H399.932V87.1836H406.686V88.5781H404.211C404.245 90.0273 405.134 91.4902 407.068 92.1328L406.207 93.5C404.84 93.0557 403.89 92.1533 403.35 91.0391C402.803 92.3037 401.805 93.3223 400.328 93.8281L399.426 92.4473ZM401.463 96.4941C401.463 94.9834 403.09 94.0947 405.742 94.0879C408.401 94.0947 410.028 94.9834 410.035 96.4941C410.028 98.0049 408.401 98.8867 405.742 98.8867C403.09 98.8867 401.463 98.0049 401.463 96.4941ZM403.199 96.4941C403.199 97.2051 404.095 97.5605 405.742 97.5605C407.396 97.5605 408.292 97.2051 408.299 96.4941C408.292 95.7764 407.396 95.4209 405.742 95.4277C404.095 95.4209 403.199 95.7764 403.199 96.4941ZM422.996 96.002V97.4238H411.607V96.002H416.406V93.7051H412.811V87.2246H414.561V89.1523H419.988V87.2246H421.725V93.7051H418.143V96.002H422.996ZM414.561 92.3105H419.988V90.5469H414.561V92.3105ZM437.42 86.4453V95.5234H435.684V91.0664H433.646V89.6582H435.684V86.4453H437.42ZM426.865 92.7207C428.923 92.0781 429.853 90.458 429.859 88.8652V88.6738H427.357V87.2793H434.111V88.6738H431.637V88.8789C431.63 90.3213 432.519 91.8594 434.494 92.502L433.633 93.8828C432.259 93.4316 431.309 92.5293 430.769 91.415C430.215 92.6523 429.224 93.6572 427.754 94.1426L426.865 92.7207ZM429.162 98.6543V94.7305H430.912V97.2598H437.721V98.6543H429.162ZM445.062 87.0742V88.4551H441.207V90.9707C443.374 90.957 444.687 90.8613 446.143 90.5605L446.32 91.9141C444.707 92.29 443.189 92.3311 440.51 92.3242H439.471V87.0742H445.062ZM440.646 94.5117V93.1309H448.904V96.5625H442.383V97.3418H449.26V98.7363H440.674V95.25H447.168V94.5117H440.646ZM447.154 92.625V86.4316H448.904V88.7832H450.586V90.2051H448.904V92.625H447.154Z" fill="#495057"/>
<path d="M301.785 123.156V130.773H300.871V123.156H301.785ZM293.43 126.438C293.424 124.938 294.602 123.889 296.16 123.883C297.719 123.889 298.885 124.938 298.891 126.438C298.885 127.955 297.719 129.01 296.16 129.004C294.602 129.01 293.424 127.955 293.43 126.438ZM294.332 126.438C294.32 127.475 295.105 128.195 296.16 128.195C297.197 128.195 297.988 127.475 297.988 126.438C297.988 125.418 297.197 124.691 296.16 124.691C295.105 124.691 294.32 125.418 294.332 126.438ZM295.059 133.34V130H295.973V132.566H302.113V133.34H295.059ZM313.094 131.488V132.273H303.555V131.488H307.832V129.086H304.422V128.348H306.051V124.926H304.398V124.164H312.18V124.926H310.527V128.348H312.156V129.086H308.734V131.488H313.094ZM306.965 128.348H309.625V124.926H306.965V128.348ZM322.141 124.258V125.301C322.141 126.613 322.141 128.096 321.754 130.363L320.816 130.27C321.238 128.137 321.238 126.578 321.238 125.301V125.02H314.957V124.258H322.141ZM313.926 132.027V131.266H323.418V132.027H313.926ZM328.551 124.281V127.926H325.539V130.293C326.74 130.287 327.871 130.24 329.219 130.012L329.301 130.762C327.818 131.02 326.641 131.066 325.328 131.066H324.648V127.164H327.66V125.055H324.625V124.281H328.551ZM329.945 133.023V123.379H330.789V127.27H332.324V123.145H333.203V133.562H332.324V128.031H330.789V133.023H329.945ZM340.773 124V124.762H339.719V127.908C340.258 127.873 340.785 127.832 341.289 127.773L341.359 128.465C339.221 128.787 336.766 128.816 334.961 128.816L334.844 128.031C335.26 128.031 335.711 128.031 336.18 128.025V124.762H335.137V124H340.773ZM336.262 130.738V129.977H343.27V133.562H342.355V130.738H336.262ZM337.07 128.014C337.645 128.002 338.236 127.984 338.828 127.955V124.762H337.07V128.014ZM342.355 129.473V123.145H343.27V129.473H342.355ZM350.816 124.305V124.844C350.811 125.67 350.811 127.047 350.512 128.98L349.586 128.898C349.873 127.152 349.896 125.887 349.891 125.055H345.52V124.305H350.816ZM344.934 130.504C345.619 130.498 346.381 130.492 347.184 130.475V127.281H348.086V130.445C349.24 130.404 350.424 130.328 351.508 130.199L351.555 130.891C349.363 131.23 346.914 131.277 345.051 131.266L344.934 130.504ZM352.164 133.562V123.145H353.078V127.504H354.766V128.301H353.078V133.562H352.164ZM366.484 123.145V127.293H368.23V128.066H366.484V133.586H365.57V123.145H366.484ZM358.832 124.879V124.117H363.566V127.844H359.77V130.281C361.703 130.287 363.057 130.211 364.633 129.918L364.727 130.68C363.086 130.979 361.697 131.055 359.688 131.066H358.855V127.082H362.652V124.879H358.832ZM377.395 123.156V130.773H376.48V123.156H377.395ZM369.039 126.438C369.033 124.938 370.211 123.889 371.77 123.883C373.328 123.889 374.494 124.938 374.5 126.438C374.494 127.955 373.328 129.01 371.77 129.004C370.211 129.01 369.033 127.955 369.039 126.438ZM369.941 126.438C369.93 127.475 370.715 128.195 371.77 128.195C372.807 128.195 373.598 127.475 373.598 126.438C373.598 125.418 372.807 124.691 371.77 124.691C370.715 124.691 369.93 125.418 369.941 126.438ZM370.668 133.34V130H371.582V132.566H377.723V133.34H370.668ZM384.965 123.953C386.5 123.959 387.59 125.371 387.602 127.586C387.59 129.807 386.5 131.213 384.965 131.207C383.418 131.213 382.334 129.807 382.34 127.586C382.334 125.371 383.418 123.959 384.965 123.953ZM383.207 127.586C383.213 129.279 383.934 130.393 384.965 130.387C386.008 130.393 386.711 129.279 386.711 127.586C386.711 125.893 386.008 124.779 384.965 124.773C383.934 124.779 383.213 125.893 383.207 127.586ZM389.324 133.562V123.145H390.238V127.305H391.984V128.102H390.238V133.562H389.324ZM401.137 123.145V133.586H400.211V123.145H401.137ZM392.934 127.586C392.939 125.371 394.041 123.959 395.594 123.953C397.141 123.959 398.26 125.371 398.254 127.586C398.26 129.807 397.141 131.213 395.594 131.207C394.041 131.213 392.939 129.807 392.934 127.586ZM393.824 127.586C393.824 129.279 394.551 130.393 395.594 130.387C396.643 130.393 397.363 129.279 397.363 127.586C397.363 125.893 396.643 124.779 395.594 124.773C394.551 124.779 393.824 125.893 393.824 127.586ZM411.227 123.66V124.527C411.232 125.494 411.232 126.555 410.945 127.984L410.031 127.902C410.16 127.293 410.23 126.748 410.266 126.256L403.926 126.555L403.797 125.77L410.307 125.559C410.318 125.195 410.324 124.855 410.324 124.527V124.41H404.055V123.66H411.227ZM402.93 129.438V128.688H406.797V127.152H407.723V128.688H412.41V129.438H402.93ZM404.137 133.398V130.328H405.062V132.648H411.473V133.398H404.137ZM418.035 123.332C420.35 123.332 421.709 123.971 421.715 125.125C421.709 126.309 420.35 126.947 418.035 126.953C415.709 126.947 414.344 126.309 414.344 125.125C414.344 123.971 415.709 123.332 418.035 123.332ZM413.289 128.406V127.656H422.781V128.406H413.289ZM414.438 130.012V129.309H421.562V131.641H415.375V132.719H421.879V133.445H414.461V130.961H420.66V130.012H414.438ZM415.305 125.125C415.293 125.852 416.307 126.25 418.035 126.25C419.764 126.25 420.771 125.852 420.777 125.125C420.771 124.439 419.764 124.029 418.035 124.023C416.307 124.029 415.293 124.439 415.305 125.125ZM298.305 141.145V143.816H299.863V144.602H298.305V147.297H297.379V141.145H298.305ZM290.125 146.359C290.957 146.359 291.93 146.359 292.949 146.33V145.686C291.725 145.586 290.951 145.1 290.957 144.309C290.951 143.453 291.912 142.955 293.395 142.961C294.877 142.955 295.832 143.453 295.844 144.309C295.832 145.094 295.076 145.58 293.863 145.686V146.295C294.836 146.248 295.82 146.172 296.734 146.043L296.816 146.664C294.566 147.033 292.064 147.051 290.23 147.051L290.125 146.359ZM290.383 142.609V141.941H292.949V141.051H293.863V141.941H296.418V142.609H290.383ZM291.52 148.422V147.766H298.305V149.863H292.457V150.789H298.703V151.445H291.543V149.242H297.391V148.422H291.52ZM291.836 144.309C291.83 144.777 292.434 145.076 293.395 145.082C294.355 145.076 294.965 144.777 294.965 144.309C294.965 143.852 294.355 143.576 293.395 143.57C292.434 143.576 291.83 143.852 291.836 144.309ZM310.035 146.301V147.062H300.543V146.301H302.898V144.83C302.066 144.508 301.598 143.98 301.598 143.277C301.598 142.053 303.004 141.35 305.289 141.344C307.557 141.35 308.963 142.053 308.969 143.277C308.963 143.975 308.5 144.502 307.68 144.83V146.301H310.035ZM301.691 149.699C301.686 148.51 303.027 147.854 305.289 147.859C307.521 147.854 308.863 148.51 308.875 149.699C308.863 150.889 307.521 151.539 305.289 151.539C303.027 151.539 301.686 150.889 301.691 149.699ZM302.547 143.277C302.541 144.039 303.584 144.479 305.289 144.484C306.977 144.479 308.025 144.039 308.031 143.277C308.025 142.527 306.977 142.07 305.289 142.07C303.584 142.07 302.541 142.527 302.547 143.277ZM302.629 149.699C302.617 150.408 303.619 150.83 305.289 150.824C306.941 150.83 307.943 150.408 307.949 149.699C307.943 148.99 306.941 148.574 305.289 148.562C303.619 148.574 302.617 148.99 302.629 149.699ZM303.812 146.301H306.766V145.076C306.326 145.158 305.834 145.199 305.289 145.199C304.744 145.199 304.252 145.158 303.812 145.082V146.301ZM319.059 141.156V144.59H320.629V145.363H319.059V148.961H318.145V141.156H319.059ZM310.938 143.184V142.434H313.586V141.156H314.5V142.434H317.148V143.184H310.938ZM311.535 145.703C311.529 144.52 312.537 143.758 314.043 143.758C315.531 143.758 316.539 144.52 316.551 145.703C316.539 146.875 315.531 147.631 314.043 147.625C312.537 147.631 311.529 146.875 311.535 145.703ZM312.414 145.703C312.408 146.436 313.059 146.91 314.043 146.898C315.016 146.91 315.672 146.436 315.684 145.703C315.672 144.959 315.016 144.479 314.043 144.484C313.059 144.479 312.408 144.959 312.414 145.703ZM312.543 151.34V148.34H313.445V150.566H319.539V151.34H312.543ZM326.875 147.637V148.773H331.926V147.637H332.828V151.422H325.961V147.637H326.875ZM324.309 145.715C326.289 145.715 328.908 145.715 331.199 145.422L331.258 146.078C330.314 146.236 329.342 146.33 328.387 146.389V147.953H327.473V146.436C326.377 146.477 325.34 146.477 324.438 146.477L324.309 145.715ZM324.777 144.344C326.295 143.992 327.35 143.049 327.355 141.93V141.402H328.293V141.93C328.293 142.996 329.359 143.875 330.859 144.203L330.461 144.906C329.242 144.631 328.287 143.992 327.83 143.119C327.391 144.051 326.436 144.754 325.199 145.07L324.777 144.344ZM326.875 150.672H331.926V149.5H326.875V150.672ZM331.914 147.133V141.156H332.828V147.133H331.914ZM343.023 142.199V143.242C343.012 144.52 343.012 145.949 342.637 148.047L341.699 147.941C342.092 145.949 342.092 144.49 342.098 143.242V142.961H335.676V142.199H343.023ZM334.668 150.086V149.324H338.395V145.598H339.297V149.324H344.16V150.086H334.668ZM356.395 141.145V145.223H357.812V146.008H356.395V151.562H355.48V141.145H356.395ZM348.262 149.043V142.117H349.059V144.812H350.371V142.117H351.156V149.043H348.262ZM349.059 148.27H350.371V145.551H349.059V148.27ZM351.719 149.043V142.117H352.504V144.812H353.781V142.117H354.566V149.043H351.719ZM352.504 148.27H353.781V145.551H352.504V148.27ZM367.949 146.922V147.684H358.41V146.922H367.949ZM359.617 142.246V141.508H366.719V144.074H360.566V145.234H366.941V145.961H359.652V143.383H365.793V142.246H359.617ZM359.676 151.34V148.504H360.602V150.566H366.941V151.34H359.676ZM375.473 143.945C375.467 145.832 376.68 147.73 378.191 148.422L377.641 149.172C376.457 148.562 375.479 147.32 375.016 145.838C374.553 147.396 373.574 148.732 372.391 149.359L371.793 148.621C373.322 147.871 374.529 145.867 374.535 143.945V142.047H375.473V143.945ZM377.055 145.457V144.707H379.527V141.145H380.441V151.586H379.527V145.457H377.055ZM390.766 141.145V151.586H389.84V141.145H390.766ZM382.785 149.066V142.035H383.699V144.789H386.805V142.035H387.707V149.066H382.785ZM383.699 148.293H386.805V145.527H383.699V148.293ZM397.738 142.68C397.744 144.467 399.783 146.055 401.594 146.395L401.172 147.168C399.596 146.805 397.943 145.686 397.27 144.156C396.59 145.686 394.943 146.799 393.367 147.168L392.945 146.395C394.75 146.049 396.771 144.473 396.777 142.68V141.883H397.738V142.68ZM392.547 150.145V149.383H402.086V150.145H392.547ZM414.52 141.145V151.586H413.594V141.145H414.52ZM406.316 145.586C406.322 143.371 407.424 141.959 408.977 141.953C410.523 141.959 411.643 143.371 411.637 145.586C411.643 147.807 410.523 149.213 408.977 149.207C407.424 149.213 406.322 147.807 406.316 145.586ZM407.207 145.586C407.207 147.279 407.934 148.393 408.977 148.387C410.025 148.393 410.746 147.279 410.746 145.586C410.746 143.893 410.025 142.779 408.977 142.773C407.934 142.779 407.207 143.893 407.207 145.586ZM421.504 142.949V143.699H416.277V142.949H418.445V141.461H419.359V142.949H421.504ZM416.652 146.77C416.652 145.387 417.596 144.408 418.891 144.402C420.203 144.408 421.141 145.387 421.152 146.77C421.141 148.17 420.203 149.154 418.891 149.16C417.596 149.154 416.652 148.17 416.652 146.77ZM417.473 146.77C417.473 147.695 418.064 148.357 418.891 148.352C419.723 148.357 420.332 147.695 420.332 146.77C420.332 145.855 419.723 145.188 418.891 145.176C418.064 145.188 417.473 145.855 417.473 146.77ZM422.043 151.047V141.402H422.91V145.539H424.293V141.145H425.172V151.562H424.293V146.301H422.91V151.047H422.043Z" fill="#3C6764"/>
<rect x="488" width="228" height="200" rx="40" fill="url(#paint2_linear_1060_155348)" fill-opacity="0.08"/>
<rect x="488.468" y="0.467836" width="227.064" height="199.064" rx="39.5322" stroke="#00BD7D" stroke-opacity="0.12" stroke-width="0.935673"/>
<path d="M573.233 51.6602V64.3867H570.597V51.6602H573.233ZM578.841 64.5449C576.661 64.5449 574.956 62.8135 574.956 59.623C574.956 56.3535 576.731 54.7188 578.841 54.7188C580.44 54.7188 581.205 55.668 581.548 56.4414H581.636V51.6602H584.237V64.3867H581.671V62.8574H581.548C581.188 63.6484 580.396 64.5449 578.841 64.5449ZM577.628 59.6055C577.619 61.293 578.331 62.4619 579.649 62.4707C580.95 62.4619 581.688 61.3281 581.688 59.6055C581.688 57.8916 580.959 56.793 579.649 56.793C578.322 56.793 577.619 57.9443 577.628 59.6055ZM590.653 64.5801C587.727 64.5713 585.934 62.6816 585.942 59.6582C585.934 56.7139 587.753 54.7188 590.548 54.7188C593.053 54.7188 595.03 56.3008 595.03 59.5527V60.291H588.509C588.509 61.7324 589.361 62.6201 590.706 62.6289C591.594 62.6201 592.227 62.2334 592.481 61.6621H594.96C594.591 63.4287 593.009 64.5713 590.653 64.5801ZM588.509 58.6562H592.569C592.561 57.4961 591.761 56.6611 590.601 56.6699C589.405 56.6611 588.562 57.5576 588.509 58.6562ZM599.267 58.8672V64.3867H596.665V54.8418H599.144V56.5117H599.249C599.68 55.4131 600.699 54.7188 602.114 54.7188C604.109 54.7188 605.41 56.0811 605.401 58.3047V64.3867H602.817V58.7617C602.809 57.584 602.176 56.8809 601.095 56.8809C600.014 56.8809 599.267 57.6104 599.267 58.8672ZM612.45 54.8418V56.793H610.657V61.4512C610.648 62.2158 611.026 62.4004 611.554 62.418C611.817 62.418 612.274 62.3916 612.591 62.3652V64.4219C612.31 64.4658 611.844 64.5186 611.202 64.5098C609.321 64.5186 608.038 63.6748 608.056 61.8203V56.793H606.737V54.8418H608.056V52.5566H610.657V54.8418H612.45ZM614.085 64.3867V54.8418H616.687V64.3867H614.085ZM613.962 52.2754C613.962 51.5371 614.604 50.9482 615.386 50.9395C616.159 50.9482 616.801 51.5371 616.792 52.2754C616.801 52.9961 616.159 53.5938 615.386 53.5938C614.604 53.5938 613.962 52.9961 613.962 52.2754ZM623.735 54.8418V56.793H621.942V61.4512C621.934 62.2158 622.312 62.4004 622.839 62.418C623.103 62.418 623.56 62.3916 623.876 62.3652V64.4219C623.595 64.4658 623.129 64.5186 622.487 64.5098C620.606 64.5186 619.323 63.6748 619.341 61.8203V56.793H618.022V54.8418H619.341V52.5566H621.942V54.8418H623.735ZM626.899 67.9727C626.39 67.9639 625.915 67.9551 625.581 67.9199V65.8984C625.915 65.9248 626.311 65.9336 626.636 65.9336C627.154 65.9336 627.567 65.8809 627.884 65.0547L628.042 64.6504L624.614 54.8418H627.339L629.343 61.873H629.448L631.47 54.8418H634.229L630.503 65.4414C629.958 66.9795 628.912 67.9639 626.899 67.9727Z" fill="#00BD7D"/>
<path d="M516.558 95.9473V97.3691H505.169V95.9473H516.558ZM506.372 93.8691V87.2246H508.122V89.2891H513.55V87.2246H515.286V93.8691H506.372ZM508.122 92.502H513.55V90.6426H508.122V92.502ZM527.96 86.4453V95.6738H526.306V91.3809H525.226V95.4141H523.599V86.6641H525.226V89.9727H526.306V86.4453H527.96ZM517.761 88.8105V87.4434H522.505V91.3125H519.456V92.5908C520.816 92.5771 521.835 92.5088 523.011 92.2832L523.161 93.6641C521.705 93.9238 520.481 93.9648 518.636 93.9648H517.774V90.0273H520.823V88.8105H517.761ZM519.524 98.6543V94.7988H521.274V97.2598H528.274V98.6543H519.524ZM539.513 92.1875V93.582H530.708V87.4707H539.417V88.8789H532.431V92.1875H539.513ZM529.368 97.3555V95.9199H540.757V97.3555H529.368ZM555.112 86.4453V95.5234H553.362V86.4453H555.112ZM544.653 92.4473C546.738 91.75 547.647 90.0205 547.647 88.332V87.1289H549.466V88.332C549.452 89.9795 550.334 91.5859 552.378 92.2422L551.489 93.6094C550.081 93.1445 549.117 92.2148 548.563 91.0322C548.003 92.3037 547.012 93.3291 545.556 93.8281L544.653 92.4473ZM546.772 98.6543V94.6484H548.536V97.2598H555.44V98.6543H546.772ZM564.095 87.5117V91.2031H559.446V92.2832H564.382V93.6367H561.825V95.1816C562.837 95.1406 563.849 95.0723 564.806 94.9766L564.942 96.248C562.222 96.6855 559.392 96.7061 557.054 96.6719L556.849 95.25C557.847 95.2568 558.947 95.2568 560.075 95.2363V93.6367H557.696V89.9453H562.372V88.8789H557.683V87.5117H564.095ZM565.517 98.9004V86.4316H567.253V98.9004H565.517ZM580.269 92.0098V93.3086H568.88V92.0098H580.269ZM570.179 95.127V93.9238H578.901V96.8633H571.929V97.5742H579.271V98.7637H570.192V95.7559H577.179V95.127H570.179ZM570.274 87.8398V86.6504H578.888V89.5762H572.038V90.2461H579.106V91.4219H570.302V88.4688H577.138V87.8398H570.274ZM594.351 89.2617V90.6562H590.769V91.7363H595.567V93.1172H584.22V91.7363H589.019V90.6562H585.655V86.6641H587.392V89.2617H594.351ZM585.327 98.7363V97.3418H587.132V95.3457H585.437V93.9922H594.351V95.3457H592.655V97.3418H594.487V98.7363H585.327ZM588.854 97.3418H590.933V95.3457H588.854V97.3418ZM606.737 86.4316V98.9004H604.974V86.4316H606.737ZM596.688 91.7363C596.682 89.0225 598.069 87.3066 599.983 87.3066C601.856 87.3066 603.251 89.0225 603.251 91.7363C603.251 94.4707 601.856 96.1797 599.983 96.1797C598.069 96.1797 596.682 94.4707 596.688 91.7363ZM598.37 91.7363C598.363 93.5889 599.013 94.6006 599.983 94.5938C600.927 94.6006 601.562 93.5889 601.569 91.7363C601.562 89.8906 600.927 88.8789 599.983 88.8789C599.013 88.8789 598.363 89.8906 598.37 91.7363ZM618.522 89.8223V91.1895H609.827V86.8691H611.563V89.8223H618.522ZM608.405 93.8965V92.5293H619.794V93.8965H608.405ZM609.718 98.5996V94.9082H611.468V97.2051H618.604V98.5996H609.718ZM634.163 86.4316V98.9004H632.399V86.4316H634.163ZM624.497 95.9336V87.5254H630.554V88.9473H626.247V94.457C628.476 94.457 629.85 94.3955 631.415 94.1152L631.579 95.5508C629.856 95.8789 628.271 95.9336 625.577 95.9336H624.497ZM640.438 89.8223C640.432 91.7158 641.443 93.9033 643.487 94.8535L642.517 96.2207C641.129 95.585 640.145 94.3135 639.584 92.8232C639.03 94.4639 638.005 95.8584 636.569 96.5352L635.558 95.1543C637.629 94.1904 638.675 91.8799 638.688 89.8223V89.0566H636.05V87.6348H642.94V89.0566H640.438V89.8223ZM643.911 98.873V86.4316H645.661V91.1758H647.493V92.6387H645.661V98.873H643.911ZM658.362 86.4453V95.3867H656.612V86.4453H658.362ZM648.136 90.3691C648.136 88.5439 649.626 87.2314 651.54 87.2383C653.447 87.2314 654.938 88.5439 654.944 90.3691C654.938 92.2217 653.447 93.5273 651.54 93.5273C649.626 93.5273 648.136 92.2217 648.136 90.3691ZM649.845 90.3691C649.831 91.4082 650.562 92.0098 651.54 92.0098C652.483 92.0098 653.215 91.4082 653.222 90.3691C653.215 89.3574 652.483 88.749 651.54 88.7559C650.562 88.749 649.831 89.3574 649.845 90.3691ZM650.022 98.6543V94.4844H651.786V97.2598H658.69V98.6543H650.022ZM668.11 89.248C668.104 91.5312 669.143 93.8213 671.255 94.7168L670.229 96.1113C668.808 95.4688 667.823 94.2246 667.256 92.6865C666.695 94.3682 665.677 95.7217 664.159 96.4121L663.106 94.9629C665.28 94.0469 666.34 91.6611 666.347 89.248V87.3887H668.11V89.248ZM671.925 98.9004V86.4316H673.688V98.9004H671.925ZM681.919 88.0723C681.912 89.8975 683.532 91.8457 686.349 92.3242L685.583 93.7734C683.409 93.3428 681.803 92.1191 680.996 90.5264C680.176 92.1055 678.562 93.3359 676.409 93.7734L675.657 92.3242C678.426 91.832 680.046 89.877 680.06 88.0723V87.1699H681.919V88.0723ZM675.37 97.3418V95.9062H686.759V97.3418H675.37ZM692.706 87.1699V88.5781H689.63V89.5625H692.241V90.9023H689.63V91.9893C690.983 91.9688 691.975 91.9072 693.13 91.7227L693.308 93.0762C691.879 93.3223 690.689 93.3701 688.81 93.3633H687.962V87.1699H692.706ZM689.671 98.7363V94.3477H698.161V98.7363H689.671ZM691.407 97.3418H696.438V95.7148H691.407V97.3418ZM692.774 90.8203V89.4258H694.032V86.623H695.687V93.7734H694.032V90.8203H692.774ZM696.507 93.8555V86.4316H698.161V93.8555H696.507Z" fill="#495057"/>
<path d="M555.992 128.781V129.531H548.785V124.047H555.875V124.82H549.723V126.367H555.652V127.105H549.723V128.781H555.992ZM547.555 132.203V131.441H557.094V132.203H547.555ZM562.098 124V126.977H559.309V128.617C560.662 128.611 561.693 128.559 562.918 128.312L563.023 129.062C561.688 129.314 560.586 129.367 559.074 129.367H558.406V126.273H561.207V124.738H558.383V124H562.098ZM559.941 133.34V130.199H560.855V132.566H567.09V133.34H559.941ZM562.531 126.824V126.051H563.832V123.344H564.711V130.703H563.832V126.824H562.531ZM565.895 130.984V123.156H566.773V130.984H565.895ZM576.887 123.145V133.586H575.961V123.145H576.887ZM568.977 130.996V124.141H573.934V124.914H569.902V130.199C571.93 130.199 573.26 130.141 574.824 129.859L574.918 130.633C573.301 130.92 571.93 130.99 569.82 130.996H568.977ZM586.812 123.156V126.59H588.383V127.363H586.812V130.961H585.898V123.156H586.812ZM578.691 125.184V124.434H581.34V123.156H582.254V124.434H584.902V125.184H578.691ZM579.289 127.703C579.283 126.52 580.291 125.758 581.797 125.758C583.285 125.758 584.293 126.52 584.305 127.703C584.293 128.875 583.285 129.631 581.797 129.625C580.291 129.631 579.283 128.875 579.289 127.703ZM580.168 127.703C580.162 128.436 580.812 128.91 581.797 128.898C582.77 128.91 583.426 128.436 583.438 127.703C583.426 126.959 582.77 126.479 581.797 126.484C580.812 126.479 580.162 126.959 580.168 127.703ZM580.297 133.34V130.34H581.199V132.566H587.293V133.34H580.297ZM597.441 123.66C597.436 126.273 595.93 128.031 592.695 128.887L592.355 128.16C594.102 127.715 595.232 127.012 595.859 126.109L592.461 126.355L592.309 125.617L596.223 125.441C596.357 125.113 596.434 124.768 596.469 124.398H592.836V123.66H597.441ZM593.938 129.754V129.016H600.688V131.512H594.863V132.684H601.039V133.422H593.961V130.82H599.773V129.754H593.938ZM597.477 126.426V125.664H599.762V123.145H600.688V128.547H599.762V126.426H597.477ZM611.047 123.145V133.586H610.133V127.926H608.105V127.152H610.133V123.145H611.047ZM602.785 124.879V124.117H607.473V127.762H603.734V130.293C605.533 130.293 606.834 130.234 608.352 129.953L608.422 130.727C606.857 131.008 605.504 131.072 603.617 131.078H602.82V127H606.582V124.879H602.785ZM621.758 123.859V124.598H620.691V127.293C621.225 127.258 621.752 127.211 622.25 127.152L622.297 127.844C620.182 128.16 617.744 128.189 615.945 128.184L615.84 127.422C616.262 127.422 616.713 127.422 617.188 127.416V124.598H616.133V123.859H621.758ZM617.305 129.801V129.062H623.949V131.547H618.23V132.695H624.336V133.445H617.328V130.844H623.035V129.801H617.305ZM618.09 127.404C618.646 127.393 619.215 127.375 619.789 127.346V124.598H618.09V127.404ZM623.035 128.559V123.145H623.949V125.441H625.52V126.215H623.949V128.559H623.035ZM630.242 124.305V127.902H627.418V130.223C628.619 130.211 629.756 130.176 631.145 129.93L631.215 130.691C629.732 130.955 628.537 130.99 627.219 130.996H626.527V127.141H629.363V125.066H626.504V124.305H630.242ZM630.746 127.656V126.906H632.082V123.402H632.949V133.012H632.082V127.656H630.746ZM634.203 133.562V123.145H635.082V133.562H634.203ZM644.984 128.781V129.531H637.777V124.047H644.867V124.82H638.715V126.367H644.645V127.105H638.715V128.781H644.984ZM636.547 132.203V131.441H646.086V132.203H636.547ZM650.059 123.824C651.658 123.836 652.83 124.82 652.836 126.273C652.83 127.58 651.881 128.506 650.527 128.682V130.451C651.5 130.41 652.479 130.34 653.387 130.223L653.445 130.914C651.236 131.289 648.775 131.312 646.941 131.301L646.789 130.527C647.627 130.521 648.594 130.516 649.602 130.486V128.682C648.219 128.518 647.275 127.586 647.281 126.273C647.275 124.82 648.43 123.836 650.059 123.824ZM648.184 126.273C648.172 127.252 648.963 127.932 650.059 127.926C651.137 127.932 651.922 127.252 651.934 126.273C651.922 125.295 651.137 124.627 650.059 124.621C648.963 124.627 648.172 125.295 648.184 126.273ZM654.055 133.562V123.145H654.969V127.445H656.668V128.242H654.969V133.562H654.055ZM524.727 141.531C526.285 141.537 527.416 142.486 527.422 143.84C527.416 145.199 526.285 146.137 524.727 146.137C523.15 146.137 522.014 145.199 522.02 143.84C522.014 142.486 523.15 141.537 524.727 141.531ZM522.922 143.84C522.91 144.754 523.678 145.387 524.727 145.387C525.758 145.387 526.531 144.754 526.531 143.84C526.531 142.938 525.758 142.299 524.727 142.305C523.678 142.299 522.91 142.938 522.922 143.84ZM523.602 147.742V147.004H530.375V149.512H524.527V150.684H530.75V151.422H523.625V148.82H529.461V147.742H523.602ZM529.461 146.5V141.145H530.375V146.5H529.461ZM537.922 141.953V142.504C537.916 143.189 537.916 144.227 537.652 145.586L536.727 145.516C536.979 144.273 537.002 143.389 537.014 142.727H532.73V141.953H537.922ZM532.086 146.559C532.76 146.559 533.521 146.553 534.324 146.529V144.262H535.238V146.5C536.393 146.453 537.588 146.371 538.672 146.219L538.73 146.898C536.545 147.273 534.037 147.314 532.18 147.32L532.086 146.559ZM533.691 151.34V148.281H534.617V150.566H540.652V151.34H533.691ZM539.375 148.984V141.145H540.312V144.543H541.836V145.328H540.312V148.984H539.375ZM548.574 144.566V145.316H546.465V146.77C547.438 146.729 548.41 146.658 549.312 146.559L549.383 147.238C547.139 147.549 544.66 147.613 542.703 147.613L542.562 146.863C543.477 146.857 544.502 146.846 545.551 146.811V145.316H543.512V141.824H548.492V142.586H544.438V144.566H548.574ZM544.344 151.34V148.41H545.258V150.566H551.445V151.34H544.344ZM550.18 148.949V141.156H551.105V148.949H550.18ZM561.969 142.129H563.023V147.742C563.023 149.488 561.717 150.76 559.719 150.766C557.715 150.76 556.414 149.488 556.414 147.742V142.129H557.469V147.66C557.463 148.891 558.318 149.775 559.719 149.781C561.119 149.775 561.963 148.891 561.969 147.66V142.129ZM565.953 142.129V150.613H564.898V142.129H565.953ZM576.852 149.5V150.273H567.312V149.5H571.602V147.531H568.508V144.32H574.742V142.68H568.484V141.918H575.645V145.07H569.422V146.77H575.891V147.531H572.504V149.5H576.852ZM585.406 147.73C587.639 147.73 589.057 148.434 589.062 149.641C589.057 150.836 587.639 151.539 585.406 151.539C583.174 151.539 581.756 150.836 581.762 149.641C581.756 148.434 583.174 147.73 585.406 147.73ZM580.707 146.758V146.008H584.633V143.992H585.535V146.008H590.188V146.758H580.707ZM581.832 142.434V141.684H588.98V142.562C588.975 143.406 588.975 144.25 588.688 145.328L587.785 145.223C588.066 144.15 588.066 143.377 588.066 142.562V142.434H581.832ZM582.676 149.641C582.67 150.367 583.748 150.812 585.406 150.812C587.07 150.812 588.137 150.367 588.148 149.641C588.137 148.896 587.07 148.439 585.406 148.434C583.748 148.439 582.67 148.896 582.676 149.641ZM595.777 147.73C598.01 147.73 599.428 148.434 599.434 149.641C599.428 150.836 598.01 151.539 595.777 151.539C593.545 151.539 592.127 150.836 592.133 149.641C592.127 148.434 593.545 147.73 595.777 147.73ZM591.078 146.758V146.008H595.004V143.992H595.906V146.008H600.559V146.758H591.078ZM592.203 142.434V141.684H599.352V142.562C599.346 143.406 599.346 144.25 599.059 145.328L598.156 145.223C598.438 144.15 598.438 143.377 598.438 142.562V142.434H592.203ZM593.047 149.641C593.041 150.367 594.119 150.812 595.777 150.812C597.441 150.812 598.508 150.367 598.52 149.641C598.508 148.896 597.441 148.439 595.777 148.434C594.119 148.439 593.041 148.896 593.047 149.641ZM613.988 149.406V150.18H604.449V149.406H613.988ZM605.574 147.32V141.895H606.5V143.84H611.914V141.895H612.816V147.32H605.574ZM606.5 146.582H611.914V144.578H606.5V146.582ZM623.668 141.156V148.914H622.789V145.047H621.324V148.609H620.469V141.355H621.324V144.273H622.789V141.156H623.668ZM615.277 142.797V142.047H619.227V145.023H616.191V146.605C617.562 146.594 618.617 146.535 619.848 146.289L619.953 147.027C618.6 147.291 617.492 147.35 615.98 147.344H615.301V144.297H618.348V142.797H615.277ZM616.836 151.34V148.199H617.75V150.566H623.984V151.34H616.836ZM633.605 146.16V146.922H626.41V142.117H633.5V142.879H627.324V146.16H633.605ZM625.191 150.145V149.371H634.73V150.145H625.191ZM646.637 141.145V145.387H648.324V146.16H646.637V151.562H645.723V141.145H646.637ZM638.645 148.855C641.334 147.52 642.799 145.51 643.01 143.043H639.125V142.27H643.941C643.936 145.217 642.553 147.906 639.16 149.582L638.645 148.855ZM657.535 141.145V151.562H656.609V141.145H657.535ZM649.156 148.832C650.703 148.129 651.887 146.371 651.887 144.543V143.711H649.438V142.961H651.875V141.344H652.789V142.961H655.215V143.711H652.789V144.543C652.789 146.289 654.008 147.977 655.578 148.645L655.062 149.359C653.855 148.826 652.842 147.701 652.355 146.324C651.887 147.777 650.879 148.979 649.672 149.547L649.156 148.832ZM671.234 141.145V151.562H670.355V141.145H671.234ZM662.199 148.785C663.652 147.918 664.502 146.014 664.496 144.121V143.137H662.492V142.375H667.297V143.137H665.387V144.121C665.387 145.92 666.201 147.719 667.637 148.551L667.074 149.23C666.049 148.615 665.322 147.49 664.959 146.166C664.584 147.602 663.828 148.826 662.785 149.477L662.199 148.785ZM666.5 145.656V144.906H668.258V141.402H669.125V151.023H668.258V145.656H666.5ZM681.055 142.199V143.242C681.043 144.52 681.043 145.949 680.668 148.047L679.73 147.941C680.123 145.949 680.123 144.49 680.129 143.242V142.961H673.707V142.199H681.055ZM672.699 150.086V149.324H676.426V145.598H677.328V149.324H682.191V150.086H672.699Z" fill="#3C6764"/>
<rect x="732" width="228" height="200" rx="40" fill="url(#paint3_linear_1060_155348)" fill-opacity="0.08"/>
<rect x="732.468" y="0.467836" width="227.064" height="199.064" rx="39.5322" stroke="#00BD7D" stroke-opacity="0.12" stroke-width="0.935673"/>
<path d="M817.91 51.6602H820.564V59.9219C820.564 62.708 818.446 64.5713 815.291 64.5625C812.127 64.5713 810.035 62.708 810.035 59.9219V51.6602H812.672V59.7109C812.681 61.1787 813.718 62.2334 815.291 62.2422C816.882 62.2334 817.919 61.1787 817.91 59.7109V51.6602ZM828.105 57.6719C827.991 57.0039 827.411 56.5732 826.541 56.5645C825.697 56.5732 825.056 56.9688 825.064 57.5488C825.056 57.9795 825.39 58.3135 826.295 58.498L828 58.8496C829.854 59.2363 830.751 60.0625 830.76 61.4336C830.751 63.3145 829.063 64.5713 826.523 64.5801C823.948 64.5713 822.437 63.4199 822.217 61.5566H824.836C824.959 62.3037 825.565 62.6904 826.523 62.6992C827.473 62.6904 828.105 62.3125 828.105 61.6973C828.105 61.2051 827.701 60.8975 826.805 60.7129L825.223 60.3965C823.403 60.0361 822.472 59.1045 822.48 57.6895C822.472 55.8613 824.045 54.7188 826.506 54.7188C828.914 54.7188 830.408 55.8613 830.549 57.6719H828.105ZM831.902 61.7148C831.911 59.5879 833.616 58.8936 835.453 58.7793C836.139 58.7354 837.422 58.6738 837.826 58.6562V57.8828C837.817 57.083 837.272 56.626 836.297 56.6172C835.409 56.626 834.855 57.0215 834.715 57.6719H832.236C832.395 56.0195 833.836 54.7188 836.367 54.7188C838.45 54.7188 840.419 55.6504 840.41 57.9531V64.3867H837.949V63.0684H837.879C837.413 63.9473 836.499 64.5713 835.084 64.5625C833.256 64.5713 831.911 63.6045 831.902 61.7148ZM834.398 61.6445C834.398 62.374 834.987 62.7607 835.822 62.7695C837.009 62.7607 837.835 61.9873 837.826 60.9766V60.2822C837.431 60.2998 836.314 60.3613 835.875 60.3965C834.97 60.4756 834.398 60.9062 834.398 61.6445ZM842.449 64.3867V51.6602H845.051V56.4414H845.121C845.481 55.668 846.237 54.7188 847.846 54.7188C849.955 54.7188 851.722 56.3535 851.73 59.623C851.722 62.8135 850.025 64.5449 847.846 64.5449C846.29 64.5449 845.499 63.6484 845.121 62.8574H845.016V64.3867H842.449ZM844.998 59.6055C844.989 61.3281 845.736 62.4619 847.02 62.4707C848.347 62.4619 849.067 61.293 849.059 59.6055C849.067 57.9443 848.364 56.793 847.02 56.793C845.728 56.793 844.989 57.8916 844.998 59.6055ZM853.4 64.3867V54.8418H856.002V64.3867H853.4ZM853.277 52.2754C853.277 51.5371 853.919 50.9482 854.701 50.9395C855.475 50.9482 856.116 51.5371 856.107 52.2754C856.116 52.9961 855.475 53.5938 854.701 53.5938C853.919 53.5938 853.277 52.9961 853.277 52.2754ZM860.625 51.6602V64.3867H858.023V51.6602H860.625ZM862.646 64.3867V54.8418H865.248V64.3867H862.646ZM862.523 52.2754C862.523 51.5371 863.165 50.9482 863.947 50.9395C864.721 50.9482 865.362 51.5371 865.354 52.2754C865.362 52.9961 864.721 53.5938 863.947 53.5938C863.165 53.5938 862.523 52.9961 862.523 52.2754ZM872.297 54.8418V56.793H870.504V61.4512C870.495 62.2158 870.873 62.4004 871.4 62.418C871.664 62.418 872.121 62.3916 872.438 62.3652V64.4219C872.156 64.4658 871.69 64.5186 871.049 64.5098C869.168 64.5186 867.885 63.6748 867.902 61.8203V56.793H866.584V54.8418H867.902V52.5566H870.504V54.8418H872.297ZM875.461 67.9727C874.951 67.9639 874.477 67.9551 874.143 67.9199V65.8984C874.477 65.9248 874.872 65.9336 875.197 65.9336C875.716 65.9336 876.129 65.8809 876.445 65.0547L876.604 64.6504L873.176 54.8418H875.9L877.904 61.873H878.01L880.031 54.8418H882.791L879.064 65.4414C878.52 66.9795 877.474 67.9639 875.461 67.9727Z" fill="#00BD7D"/>
<path d="M760.558 95.9883V97.4238H749.169V95.9883H753.968V93.4453H750.372V87.3477H759.286V93.4453H755.704V95.9883H760.558ZM752.095 92.0781H757.563V88.7422H752.095V92.0781ZM772.644 92.5703V93.9648H761.269V92.5703H772.644ZM762.636 98.6406V94.9355H764.358V97.2461H771.468V98.6406H762.636ZM762.649 91.5586V86.8828H771.276V88.2773H764.386V90.1641H771.399V91.5586H762.649ZM786.548 86.4316V90.5195H788.134V91.9551H786.548V96.1387H784.798V86.4316H786.548ZM776.458 93.582C777.354 93.582 778.393 93.5752 779.479 93.541V92.8232C778.126 92.6318 777.285 91.9619 777.292 90.9844C777.285 89.7539 778.495 89.0361 780.341 89.043C782.173 89.0361 783.383 89.7539 783.39 90.9844C783.383 91.9551 782.549 92.625 781.216 92.8232V93.459C782.234 93.3975 783.26 93.3018 784.224 93.1582L784.347 94.3613C781.729 94.8672 778.782 94.9014 776.636 94.9219L776.458 93.582ZM776.786 88.6875V87.4434H779.479V86.3906H781.216V87.4434H783.909V88.6875H776.786ZM778.208 98.6543V95.4961H779.958V97.2598H786.972V98.6543H778.208ZM778.96 90.9844C778.953 91.4492 779.452 91.7158 780.341 91.709C781.216 91.7158 781.715 91.4492 781.722 90.9844C781.715 90.458 781.216 90.2051 780.341 90.2051C779.452 90.2051 778.953 90.458 778.96 90.9844ZM799.181 86.4453V93.6094H797.444V92.3926H794.642V90.998H797.444V89.8086H794.771C793.992 91.7773 792.222 93.1377 789.487 93.8828L788.804 92.502C791.661 91.7568 793.069 90.3828 793.315 88.6738H789.474V87.2793H795.216C795.216 87.6826 795.188 88.0723 795.127 88.4414H797.444V86.4453H799.181ZM790.786 96.2754C790.779 94.7373 792.481 93.7666 795.038 93.7598C797.561 93.7666 799.27 94.7373 799.276 96.2754C799.27 97.834 797.561 98.8184 795.038 98.8184C792.481 98.8184 790.779 97.834 790.786 96.2754ZM792.522 96.2754C792.522 97.0479 793.459 97.4375 795.038 97.4375C796.583 97.4375 797.52 97.0479 797.526 96.2754C797.52 95.5098 796.583 95.1133 795.038 95.127C793.459 95.1133 792.522 95.5098 792.522 96.2754ZM806.468 86.6094C809.332 86.6094 810.986 87.3613 810.993 88.7285C810.986 90.1162 809.332 90.8613 806.468 90.8613C803.597 90.8613 801.929 90.1162 801.929 88.7285C801.929 87.3613 803.597 86.6094 806.468 86.6094ZM800.794 92.8301V91.4492H812.142V92.8301H800.794ZM802.106 94.8262V93.5547H810.761V96.7266H803.829V97.4785H811.089V98.791H802.12V95.5098H809.038V94.8262H802.106ZM803.761 88.7285C803.754 89.3369 804.643 89.5762 806.468 89.5762C808.307 89.5762 809.188 89.3369 809.188 88.7285C809.188 88.1748 808.307 87.8809 806.468 87.8809C804.643 87.8809 803.754 88.1748 803.761 88.7285ZM826.374 87.5117V88.6875C826.367 90.2461 826.367 91.9961 825.868 94.6348L824.118 94.457C824.597 92.1055 824.617 90.3555 824.624 88.8926H817.296V87.5117H826.374ZM816.12 97.3555V95.9336H820.181V91.6543H821.917V95.9336H827.468V97.3555H816.12ZM838.706 86.4316V98.9004H836.97V93.8828H834.837V92.4473H836.97V90.4922H834.878V89.0703H836.97V86.4316H838.706ZM828.63 88.8516V87.4707H834.222V92.2559H830.394V94.6826C831.932 94.6689 833.292 94.6006 834.864 94.3613L835.001 95.7832C833.142 96.0771 831.556 96.1182 829.642 96.1113H828.657V90.9023H832.513V88.8516H828.63ZM850.19 86.4453V90.2598H851.872V91.6816H850.19V95.7285H848.44V86.4453H850.19ZM840.319 89.125V87.7441H843.149V86.418H844.886V87.7441H847.702V89.125H840.319ZM840.921 91.9688C840.921 90.5264 842.199 89.5625 844.011 89.5625C845.815 89.5625 847.073 90.5264 847.073 91.9688C847.073 93.4043 845.815 94.3477 844.011 94.3477C842.199 94.3477 840.921 93.4043 840.921 91.9688ZM842.124 98.6543V95.0176H843.86V97.2598H850.642V98.6543H842.124ZM842.63 91.9688C842.623 92.6523 843.177 93.0215 844.011 93.0215C844.852 93.0215 845.419 92.6523 845.419 91.9688C845.419 91.2783 844.852 90.8955 844.011 90.8887C843.177 90.8955 842.623 91.2783 842.63 91.9688ZM867.034 96.0293V97.4922H855.646V96.0293H860.431V93.7871H856.589V92.4199H858.257V88.8652H856.534V87.4707H866.077V88.8652H864.327V92.4199H866.022V93.7871H862.167V96.0293H867.034ZM860.007 92.4199H862.604V88.8652H860.007V92.4199ZM879.093 92.3242V93.7188H867.745V92.3242H870.302V90.834C869.393 90.4307 868.88 89.8154 868.88 89.0156C868.88 87.5117 870.65 86.6162 873.419 86.6094C876.167 86.6162 877.938 87.5117 877.944 89.0156C877.938 89.8291 877.411 90.4512 876.481 90.8477V92.3242H879.093ZM869.044 96.6035C869.044 95.168 870.678 94.3682 873.405 94.375C876.092 94.3682 877.726 95.168 877.739 96.6035C877.726 98.0732 876.092 98.8594 873.405 98.8594C870.678 98.8594 869.044 98.0732 869.044 96.6035ZM870.698 89.0156C870.685 89.6992 871.662 90.0479 873.419 90.041C875.155 90.0479 876.14 89.6992 876.14 89.0156C876.14 88.3184 875.155 87.9492 873.419 87.9492C871.662 87.9492 870.685 88.3184 870.698 89.0156ZM870.821 96.6035C870.814 97.2393 871.683 97.5605 873.405 97.5605C875.094 97.5605 875.982 97.2393 875.989 96.6035C875.982 95.9883 875.094 95.6943 873.405 95.6875C871.683 95.6943 870.814 95.9883 870.821 96.6035ZM872.065 92.3242H874.745V91.2783C874.335 91.333 873.891 91.3535 873.419 91.3535C872.934 91.3535 872.482 91.3262 872.065 91.2783V92.3242ZM887.022 87.1289V88.5098H884.548C884.555 89.9727 885.443 91.4834 887.405 92.1328L886.544 93.4727C885.17 93.042 884.22 92.1396 883.68 91.0254C883.126 92.2627 882.135 93.2607 880.665 93.7324L879.776 92.3516C881.827 91.7021 882.757 90.0547 882.771 88.5098H880.269V87.1289H887.022ZM881.786 95.7832V94.3887H890.331V98.873H888.595V95.7832H881.786ZM886.667 90.8477V89.4258H888.595V86.4316H890.331V93.8418H888.595V90.8477H886.667ZM899.929 87.6758V92.3926H897.194V94.5117C898.411 94.498 899.553 94.4365 900.845 94.1973L900.995 95.6191C899.361 95.9199 897.967 95.9473 896.401 95.9609H895.526V91.0117H898.247V89.0566H895.513V87.6758H899.929ZM900.448 92.0918V90.6836H901.72V86.6641H903.347V98.2715H901.72V92.0918H900.448ZM904.276 98.873V86.4316H905.931V98.873H904.276ZM917.688 86.4316V98.9004H915.925V86.4316H917.688ZM907.64 91.7363C907.633 89.0225 909.021 87.3066 910.935 87.3066C912.808 87.3066 914.202 89.0225 914.202 91.7363C914.202 94.4707 912.808 96.1797 910.935 96.1797C909.021 96.1797 907.633 94.4707 907.64 91.7363ZM909.321 91.7363C909.314 93.5889 909.964 94.6006 910.935 94.5938C911.878 94.6006 912.514 93.5889 912.521 91.7363C912.514 89.8906 911.878 88.8789 910.935 88.8789C909.964 88.8789 909.314 89.8906 909.321 91.7363ZM922.72 87.3066C924.62 87.3066 925.994 89.0225 926.001 91.7363C925.994 94.4707 924.62 96.1797 922.72 96.1797C920.812 96.1797 919.432 94.4707 919.438 91.7363C919.432 89.0225 920.812 87.3066 922.72 87.3066ZM921.12 91.7363C921.12 93.5889 921.77 94.6006 922.72 94.5938C923.69 94.6006 924.326 93.5889 924.333 91.7363C924.326 89.8906 923.69 88.8789 922.72 88.8789C921.77 88.8789 921.12 89.8906 921.12 91.7363ZM927.437 98.873V86.4316H929.187V91.1211H931.019V92.5703H929.187V98.873H927.437ZM942.817 91.8867V93.3223H937.991V94.498H936.255V93.3223H931.47V91.8867H942.817ZM932.194 97.5059C934.895 97.2803 936.207 96.2002 936.214 95.2227V94.9766H938.005V95.2227C937.998 96.248 939.263 97.2803 942.011 97.5059L941.478 98.8184C939.352 98.627 937.854 97.9297 937.096 96.9248C936.344 97.9092 934.874 98.627 932.782 98.8184L932.194 97.5059ZM932.604 88.9199C932.604 87.4229 934.375 86.582 937.144 86.582C939.926 86.582 941.662 87.4229 941.669 88.9199C941.662 90.4033 939.926 91.2715 937.144 91.2715C934.375 91.2715 932.604 90.4033 932.604 88.9199ZM934.423 88.9199C934.409 89.583 935.387 89.9453 937.144 89.9453C938.88 89.9453 939.864 89.583 939.864 88.9199C939.864 88.2295 938.88 87.8672 937.144 87.8672C935.387 87.8672 934.409 88.2295 934.423 88.9199Z" fill="#495057"/>
<path d="M791.713 124.199V125.242C791.701 126.52 791.701 127.949 791.326 130.047L790.389 129.941C790.781 127.949 790.781 126.49 790.787 125.242V124.961H784.365V124.199H791.713ZM783.357 132.086V131.324H787.084V127.598H787.986V131.324H792.85V132.086H783.357ZM798.674 123.742V126.66H795.088V128.254C797.045 128.254 798.059 128.213 799.283 127.984L799.377 128.746C798.082 128.975 797.021 129.016 794.912 129.004H794.174V125.922H797.76V124.504H794.15V123.742H798.674ZM795.416 131.711C795.41 130.492 796.74 129.777 798.92 129.777C801.088 129.777 802.406 130.492 802.4 131.711C802.406 132.93 801.088 133.627 798.92 133.621C796.74 133.627 795.41 132.93 795.416 131.711ZM796.354 131.711C796.342 132.467 797.309 132.895 798.92 132.895C800.508 132.895 801.504 132.467 801.498 131.711C801.504 130.949 800.508 130.51 798.92 130.504C797.309 130.51 796.342 130.949 796.354 131.711ZM799.377 127.68V126.906H801.439V125.547H799.377V124.797H801.439V123.156H802.365V129.602H801.439V127.68H799.377ZM813.592 128.441V129.203H804.1V128.441H813.592ZM804.65 127.047C806.602 126.865 808.254 126.074 808.336 124.914H805.084V124.164H808.389V123.121H809.291V124.164H812.631V124.914H809.35C809.426 126.074 811.084 126.865 813.029 127.047L812.748 127.762C811.025 127.58 809.479 126.959 808.846 125.91C808.207 126.959 806.666 127.58 804.943 127.762L804.65 127.047ZM805.248 131.816C805.242 130.697 806.578 130.094 808.846 130.094C811.102 130.094 812.42 130.697 812.432 131.816C812.42 132.936 811.102 133.539 808.846 133.539C806.578 133.539 805.242 132.936 805.248 131.816ZM806.186 131.816C806.174 132.473 807.158 132.836 808.846 132.824C810.516 132.836 811.5 132.473 811.506 131.816C811.5 131.16 810.516 130.791 808.846 130.785C807.158 130.791 806.174 131.16 806.186 131.816ZM825.545 123.145V127.387H827.232V128.16H825.545V133.562H824.631V123.145H825.545ZM817.553 130.855C820.242 129.52 821.707 127.51 821.918 125.043H818.033V124.27H822.85C822.844 127.217 821.461 129.906 818.068 131.582L817.553 130.855ZM837.346 128.348V129.098H827.854V128.348H832.143V127.082H829.061V123.566H836.174V124.328H829.975V126.32H836.268V127.082H833.057V128.348H837.346ZM828.908 130.867V130.117H836.186V133.645H835.271V130.867H828.908ZM841.811 124.785C841.799 126.273 842.859 127.58 844.389 128.102L843.873 128.816C842.725 128.389 841.822 127.539 841.371 126.443C840.926 127.691 839.977 128.658 838.717 129.133L838.213 128.383C839.818 127.82 840.885 126.438 840.896 124.82V123.742H841.811V124.785ZM839.912 131.594C839.906 130.34 841.236 129.619 843.404 129.625C845.566 129.619 846.896 130.34 846.896 131.594C846.896 132.836 845.566 133.539 843.404 133.539C841.236 133.539 839.906 132.836 839.912 131.594ZM840.826 131.594C840.82 132.35 841.805 132.807 843.404 132.801C844.998 132.807 845.982 132.35 845.982 131.594C845.982 130.814 844.998 130.352 843.404 130.352C841.805 130.352 840.82 130.814 840.826 131.594ZM843.615 126.145V125.383H845.936V123.145H846.861V129.32H845.936V126.145H843.615ZM857.045 123.824V128.066H852.158V123.824H857.045ZM852.908 132.812C854.701 132.613 856.424 131.6 856.424 130.562H853.342V129.848H856.436V128.828H857.35V129.848H860.467V130.562H857.373C857.367 131.576 859.043 132.59 860.83 132.812L860.514 133.527C858.949 133.311 857.52 132.572 856.898 131.611C856.271 132.596 854.807 133.311 853.236 133.527L852.908 132.812ZM853.061 127.34H856.143V124.574H853.061V127.34ZM859.295 129.133V123.145H860.197V129.133H859.295ZM873.229 123.824V124.738C873.229 125.723 873.229 126.807 872.93 128.301H874.482V129.062H870.182V133.586H869.256V129.062H864.99V128.301H871.998C872.314 126.801 872.314 125.711 872.314 124.738V124.586H866.186V123.824H873.229ZM881.268 124.316V125.066H875.373V124.316H877.904V123.062H878.818V124.316H881.268ZM875.994 127.527C875.982 126.367 876.943 125.6 878.35 125.605C879.744 125.6 880.723 126.367 880.729 127.527C880.723 128.693 879.744 129.455 878.35 129.461C876.943 129.455 875.982 128.693 875.994 127.527ZM876.85 127.527C876.844 128.26 877.441 128.752 878.35 128.746C879.246 128.752 879.861 128.26 879.873 127.527C879.861 126.795 879.246 126.309 878.35 126.297C877.441 126.309 876.844 126.795 876.85 127.527ZM877.061 131.77C877.061 130.633 878.379 129.988 880.564 129.988C882.738 129.988 884.057 130.633 884.057 131.77C884.057 132.889 882.738 133.539 880.564 133.539C878.379 133.539 877.061 132.889 877.061 131.77ZM878.01 131.77C878.016 132.432 878.982 132.83 880.564 132.824C882.123 132.83 883.084 132.432 883.084 131.77C883.084 131.09 882.123 130.709 880.564 130.703C878.982 130.709 878.016 131.09 878.01 131.77ZM881.256 128.441V127.68H883.072V126.414H881.268V125.652H883.072V123.145H883.998V129.883H883.072V128.441H881.256ZM897.357 123.145V133.562H896.432V123.145H897.357ZM888.873 130.855C891.691 129.52 893.133 127.521 893.338 125.031H889.354V124.281H894.275C894.264 127.275 892.869 129.93 889.377 131.605L888.873 130.855ZM907.729 123.145V133.562H906.803V123.145H907.729ZM899.244 130.855C902.062 129.52 903.504 127.521 903.709 125.031H899.725V124.281H904.646C904.635 127.275 903.24 129.93 899.748 131.605L899.244 130.855ZM783.492 142.691V143.453H774.961V142.691H778.781V141.32H779.684V142.691H783.492ZM774.492 150.344V149.582H778.781V148.117C776.924 148.018 775.805 147.297 775.816 146.125C775.805 144.889 777.111 144.156 779.238 144.168C781.336 144.156 782.666 144.889 782.66 146.125C782.666 147.297 781.523 148.018 779.684 148.117V149.582H784.031V150.344H774.492ZM776.742 146.125C776.73 146.916 777.686 147.373 779.238 147.379C780.773 147.373 781.729 146.916 781.723 146.125C781.729 145.352 780.773 144.895 779.238 144.895C777.686 144.895 776.73 145.352 776.742 146.125ZM792.996 141.145V144.801H794.555V145.574H792.996V149.301H792.07V141.145H792.996ZM784.816 147.344C785.643 147.344 786.621 147.332 787.641 147.297V146.5C786.428 146.389 785.643 145.809 785.648 144.93C785.643 143.928 786.621 143.318 788.086 143.324C789.562 143.318 790.523 143.928 790.535 144.93C790.523 145.803 789.762 146.383 788.555 146.5V147.256C789.527 147.197 790.518 147.109 791.426 146.969L791.508 147.625C789.275 148.047 786.744 148.076 784.922 148.094L784.816 147.344ZM785.074 142.867V142.176H787.641V141.121H788.555V142.176H791.109V142.867H785.074ZM786.375 151.34V148.75H787.301V150.566H793.371V151.34H786.375ZM786.527 144.93C786.521 145.498 787.125 145.867 788.086 145.867C789.047 145.867 789.656 145.498 789.656 144.93C789.656 144.338 789.047 143.975 788.086 143.98C787.125 143.975 786.521 144.338 786.527 144.93ZM798.82 142.785C798.809 144.273 799.869 145.58 801.398 146.102L800.883 146.816C799.734 146.389 798.832 145.539 798.381 144.443C797.936 145.691 796.986 146.658 795.727 147.133L795.223 146.383C796.828 145.82 797.895 144.438 797.906 142.82V141.742H798.82V142.785ZM796.922 149.594C796.916 148.34 798.246 147.619 800.414 147.625C802.576 147.619 803.906 148.34 803.906 149.594C803.906 150.836 802.576 151.539 800.414 151.539C798.246 151.539 796.916 150.836 796.922 149.594ZM797.836 149.594C797.83 150.35 798.814 150.807 800.414 150.801C802.008 150.807 802.992 150.35 802.992 149.594C802.992 148.814 802.008 148.352 800.414 148.352C798.814 148.352 797.83 148.814 797.836 149.594ZM800.625 144.145V143.383H802.945V141.145H803.871V147.32H802.945V144.145H800.625ZM810.352 141.332C812.666 141.332 814.025 141.971 814.031 143.125C814.025 144.309 812.666 144.947 810.352 144.953C808.025 144.947 806.66 144.309 806.66 143.125C806.66 141.971 808.025 141.332 810.352 141.332ZM805.605 146.406V145.656H815.098V146.406H805.605ZM806.754 148.012V147.309H813.879V149.641H807.691V150.719H814.195V151.445H806.777V148.961H812.977V148.012H806.754ZM807.621 143.125C807.609 143.852 808.623 144.25 810.352 144.25C812.08 144.25 813.088 143.852 813.094 143.125C813.088 142.439 812.08 142.029 810.352 142.023C808.623 142.029 807.609 142.439 807.621 143.125ZM827.344 142.199V143.242C827.332 144.52 827.332 145.949 826.957 148.047L826.02 147.941C826.412 145.949 826.412 144.49 826.418 143.242V142.961H819.996V142.199H827.344ZM818.988 150.086V149.324H822.715V145.598H823.617V149.324H828.48V150.086H818.988ZM837.984 141.145V151.586H837.07V147.145H834.902V146.371H837.07V144.297H834.984V143.523H837.07V141.145H837.984ZM829.723 142.855V142.094H834.305V145.797H830.672V148.363C832.236 148.363 833.531 148.305 835.113 148.059L835.195 148.832C833.531 149.09 832.195 149.148 830.531 149.148H829.758V145.047H833.402V142.855H829.723ZM847.875 141.156V144.59H849.445V145.363H847.875V148.961H846.961V141.156H847.875ZM839.754 143.184V142.434H842.402V141.156H843.316V142.434H845.965V143.184H839.754ZM840.352 145.703C840.346 144.52 841.354 143.758 842.859 143.758C844.348 143.758 845.355 144.52 845.367 145.703C845.355 146.875 844.348 147.631 842.859 147.625C841.354 147.631 840.346 146.875 840.352 145.703ZM841.23 145.703C841.225 146.436 841.875 146.91 842.859 146.898C843.832 146.91 844.488 146.436 844.5 145.703C844.488 144.959 843.832 144.479 842.859 144.484C841.875 144.479 841.225 144.959 841.23 145.703ZM841.359 151.34V148.34H842.262V150.566H848.355V151.34H841.359ZM861.258 141.145V144.32H862.828V145.094H861.258V148.832H860.344V141.145H861.258ZM853.312 144.449C853.307 142.938 854.49 141.889 856.043 141.883C857.607 141.889 858.773 142.938 858.785 144.449C858.773 145.955 857.607 147.016 856.043 147.016C854.49 147.016 853.307 145.955 853.312 144.449ZM854.215 144.449C854.209 145.475 855.012 146.207 856.043 146.207C857.092 146.207 857.877 145.475 857.883 144.449C857.877 143.418 857.092 142.691 856.043 142.691C855.012 142.691 854.209 143.418 854.215 144.449ZM854.742 151.34V148.035H855.645V150.566H861.738V151.34H854.742ZM872.121 141.145V147.355H871.195V144.625H869.098V143.863H871.195V141.145H872.121ZM863.531 146.523C865.078 145.967 866.18 144.555 866.18 143.066V142.68H863.824V141.906H869.438V142.68H867.105V143.055C867.105 144.414 868.148 145.709 869.672 146.23L869.191 146.969C868.025 146.547 867.117 145.668 866.666 144.596C866.221 145.814 865.254 146.787 864.012 147.262L863.531 146.523ZM865.172 149.617C865.166 148.393 866.496 147.678 868.664 147.684C870.826 147.678 872.156 148.393 872.156 149.617C872.156 150.848 870.826 151.551 868.664 151.562C866.496 151.551 865.166 150.848 865.172 149.617ZM866.086 149.617C866.08 150.373 867.064 150.83 868.664 150.824C870.258 150.83 871.242 150.373 871.242 149.617C871.242 148.855 870.258 148.398 868.664 148.398C867.064 148.398 866.08 148.855 866.086 149.617ZM877.477 143.066C877.477 144.42 878.52 145.715 880.043 146.242L879.562 146.969C878.391 146.547 877.482 145.674 877.037 144.602C876.586 145.797 875.619 146.758 874.383 147.215L873.902 146.488C875.438 145.938 876.551 144.549 876.551 143.078V142.621H874.195V141.871H879.809V142.621H877.477V143.066ZM875.484 148.703V147.941H882.492V151.562H881.566V148.703H875.484ZM879.48 144.648V143.875H881.566V141.145H882.492V147.391H881.566V144.648H879.48ZM895.453 142.258V143.301C895.453 144.613 895.453 146.096 895.066 148.363L894.129 148.27C894.551 146.137 894.551 144.578 894.551 143.301V143.02H888.27V142.258H895.453ZM887.238 150.027V149.266H896.73V150.027H887.238ZM906.211 141.145V151.586H905.297V141.145H906.211ZM898.195 142.879V142.117H903.047V145.82H899.156V148.281C900.885 148.287 902.426 148.205 904.289 147.906L904.383 148.68C902.467 148.979 900.885 149.055 899.086 149.055H898.219V145.07H902.121V142.879H898.195ZM916.395 146.16V146.922H909.199V142.117H916.289V142.879H910.113V146.16H916.395ZM907.98 150.145V149.371H917.52V150.145H907.98Z" fill="#3C6764"/>
<defs>
<linearGradient id="paint0_linear_1060_155348" x1="114" y1="0" x2="114" y2="200" gradientUnits="userSpaceOnUse">
<stop stop-color="#00BD7D"/>
<stop offset="1" stop-color="#FFF5BA"/>
</linearGradient>
<linearGradient id="paint1_linear_1060_155348" x1="358" y1="0" x2="358" y2="200" gradientUnits="userSpaceOnUse">
<stop stop-color="#00BD7D"/>
<stop offset="1" stop-color="#FFF5BA"/>
</linearGradient>
<linearGradient id="paint2_linear_1060_155348" x1="602" y1="0" x2="602" y2="200" gradientUnits="userSpaceOnUse">
<stop stop-color="#00BD7D"/>
<stop offset="1" stop-color="#FFF5BA"/>
</linearGradient>
<linearGradient id="paint3_linear_1060_155348" x1="846" y1="0" x2="846" y2="200" gradientUnits="userSpaceOnUse">
<stop stop-color="#00BD7D"/>
<stop offset="1" stop-color="#FFF5BA"/>
</linearGradient>
</defs>
</svg>
