<svg width="960" height="209" viewBox="0 0 960 209" fill="none" xmlns="http://www.w3.org/2000/svg">
<rect y="1.2793" width="136.233" height="100" rx="10" fill="#F8AF04"/>
<path d="M16.7852 26.2793V17.7949H19.9727C21.918 17.7949 22.9551 18.9785 22.9609 20.6074C22.9551 22.2305 21.9062 23.4082 19.9492 23.4082H18.3086V26.2793H16.7852ZM18.3086 22.1543H19.7383C20.8867 22.1484 21.4023 21.5039 21.4023 20.6074C21.4023 19.6992 20.8867 19.0723 19.7383 19.0723H18.3086V22.1543ZM24.1211 26.2793V19.916H25.5742V20.9707H25.6445C25.873 20.2383 26.4824 19.8223 27.2148 19.8223C27.3789 19.8223 27.6133 19.8398 27.7539 19.8574V21.2402C27.6191 21.1934 27.3086 21.1523 27.0625 21.1465C26.2305 21.1523 25.6211 21.7266 25.6211 22.5293V26.2793H24.1211ZM28.6445 26.2793V19.916H30.1445V26.2793H28.6445ZM28.5391 18.1934C28.5391 17.748 28.9316 17.3848 29.4062 17.3848C29.8809 17.3848 30.2734 17.748 30.2734 18.1934C30.2734 18.6445 29.8809 19.0078 29.4062 19.0137C28.9316 19.0078 28.5391 18.6445 28.5391 18.1934ZM31.5742 26.2793V19.916H33.0039V20.9941H33.0859C33.3496 20.2676 33.9883 19.834 34.832 19.834C35.6934 19.834 36.3145 20.2734 36.5547 20.9941H36.625C36.9004 20.291 37.6094 19.834 38.5352 19.834C39.7012 19.834 40.5215 20.584 40.5156 22.002V26.2793H39.0273V22.2363C39.0273 21.4453 38.5469 21.0879 37.9375 21.0879C37.2051 21.0879 36.7773 21.5859 36.7773 22.3066V26.2793H35.3242V22.1777C35.3184 21.5156 34.8848 21.0879 34.2461 21.0879C33.6016 21.0879 33.0742 21.6211 33.0742 22.4121V26.2793H31.5742ZM41.6523 24.4863C41.6523 23.0566 42.8418 22.6406 44.0195 22.5645C44.4648 22.5293 45.373 22.4883 45.6543 22.4766L45.6484 21.9668C45.6484 21.334 45.2441 20.9707 44.5 20.9707C43.832 20.9707 43.4219 21.2754 43.3047 21.7324H41.8633C41.9688 20.6484 42.9414 19.834 44.5352 19.834C45.7422 19.834 47.1367 20.332 47.1367 22.0254V26.2793H45.707V25.4004H45.6602C45.3789 25.9395 44.7871 26.4082 43.7852 26.4082C42.5723 26.4082 41.6523 25.7461 41.6523 24.4863ZM43.0938 24.4746C43.0938 25.0254 43.5449 25.3066 44.1719 25.3066C45.0801 25.3066 45.6602 24.709 45.6602 23.9941L45.6543 23.4727C45.3848 23.4844 44.5527 23.5371 44.2539 23.5605C43.5449 23.6191 43.0938 23.918 43.0938 24.4746ZM48.543 26.2793V19.916H49.9961V20.9707H50.0664C50.2949 20.2383 50.9043 19.8223 51.6367 19.8223C51.8008 19.8223 52.0352 19.8398 52.1758 19.8574V21.2402C52.041 21.1934 51.7305 21.1523 51.4844 21.1465C50.6523 21.1523 50.043 21.7266 50.043 22.5293V26.2793H48.543ZM54.168 28.6699C53.8691 28.6641 53.5879 28.6582 53.3945 28.6348V27.4395C53.5762 27.457 53.8281 27.457 54.0273 27.4629C54.3906 27.457 54.6953 27.4336 54.9531 26.748L55.082 26.4082L52.7617 19.916H54.3438L55.8203 24.7207H55.8906L57.3672 19.916H58.9492L56.3945 27.0527C56.0312 28.0664 55.3633 28.6641 54.168 28.6699Z" fill="white" fill-opacity="0.6"/>
<path d="M20.6846 55.0879V64.2793H18.7676V56.9033H18.7168L16.6094 58.2236V56.5352L18.8818 55.0879H20.6846ZM26.3848 64.4062C24.0806 64.4062 22.6904 62.6924 22.6904 59.6836C22.6904 56.6812 24.0933 54.9609 26.3848 54.9609C28.6763 54.9609 30.0791 56.6812 30.0791 59.6836C30.0791 62.7051 28.6826 64.4062 26.3848 64.4062ZM24.6455 59.6836C24.6328 61.8037 25.3184 62.832 26.3848 62.832C27.4512 62.832 28.1304 61.8037 28.124 59.6836C28.1304 57.5825 27.4448 56.5288 26.3848 56.5225C25.3247 56.5288 24.6455 57.5825 24.6455 59.6836Z" fill="white"/>
<path d="M19.9609 84.2793L20.3477 81.9355H18.2148L17.8281 84.2793H16.9727L17.3594 81.9355H16.1055L16.2461 81.0918H17.4941L17.8457 78.9824H16.6094L16.7383 78.1387H17.9805L18.3672 75.7949H19.2227L18.8359 78.1387H20.9688L21.3555 75.7949H22.2109L21.8242 78.1387H23.0898L22.9492 78.9824H21.6895L21.3379 81.0918H22.5859L22.4453 81.9355H21.2031L20.8164 84.2793H19.9609ZM18.3496 81.0918H20.4824L20.834 78.9824H18.7012L18.3496 81.0918ZM24.1328 84.2793V75.7949H29.2422V76.7324H25.1875V79.5684H28.8555V80.4941H25.1875V84.2793H24.1328ZM33.5078 84.3965C31.7207 84.3965 30.4902 83.4062 30.4961 82.0293C30.4902 80.9336 31.252 80.0254 32.2188 79.873V79.8262C31.375 79.6328 30.8184 78.8535 30.8242 77.9277C30.8184 76.6328 31.9551 75.6777 33.5078 75.6777C35.0547 75.6777 36.1914 76.6328 36.2031 77.9277C36.1914 78.8535 35.6289 79.6328 34.7969 79.8262V79.873C35.7578 80.0254 36.5195 80.9336 36.5312 82.0293C36.5195 83.4062 35.2773 84.3965 33.5078 84.3965ZM31.5508 81.9707C31.5332 82.8613 32.2891 83.4648 33.5078 83.4707C34.7207 83.4648 35.4766 82.8613 35.4766 81.9707C35.4766 81.0332 34.6504 80.3418 33.5078 80.3418C32.3711 80.3418 31.5332 81.0332 31.5508 81.9707ZM31.8438 78.0098C31.8496 78.8652 32.5352 79.4453 33.5078 79.4512C34.4746 79.4453 35.1719 78.8652 35.1719 78.0098C35.1719 77.1602 34.498 76.5859 33.5078 76.5918C32.5 76.5859 31.8496 77.1602 31.8438 78.0098ZM38.4648 84.2793H37.3633L40.4688 75.7949H41.582L44.6875 84.2793H43.5742L42.7246 81.8887H39.3145L38.4648 84.2793ZM39.6367 80.9629H42.4023L41.0547 77.166H40.9844L39.6367 80.9629ZM45.8359 84.2793V75.7949H50.9453V76.7324H46.8906V79.5684H50.5586V80.4941H46.8906V84.2793H45.8359ZM55.1523 84.3965C53.2715 84.3965 52.1816 82.8145 52.1875 80.0371C52.1816 77.2832 53.2832 75.6777 55.1523 75.6777C57.0156 75.6777 58.1172 77.2832 58.1172 80.0371C58.1172 82.8145 57.0332 84.3965 55.1523 84.3965ZM53.207 80.0371C53.2129 82.2344 53.9219 83.459 55.1523 83.459C56.377 83.459 57.0918 82.2344 57.0859 80.0371C57.0918 77.8398 56.3711 76.5977 55.1523 76.5918C53.9336 76.5977 53.2129 77.8398 53.207 80.0371ZM59.3125 82.5449V81.6777L63.1328 75.7949H64.4336V81.6191H65.6172V82.5449H64.4336V84.2793H63.4258V82.5449H59.3125ZM60.4492 81.6191H63.4258V77.1309H63.3203L60.4492 81.5488V81.6191Z" fill="white" fill-opacity="0.78"/>
<rect x="142.233" y="1.2793" width="136.233" height="100" rx="10" fill="#F8A21E"/>
<path d="M158.957 64.2793L158.944 62.8955L162.245 59.8613C163.102 59.0425 163.565 58.5347 163.565 57.8047C163.565 56.9858 162.95 56.478 162.105 56.4844C161.242 56.478 160.677 57.0239 160.684 57.9062H158.868C158.862 56.1099 160.195 54.9609 162.131 54.9609C164.099 54.9609 165.406 56.0845 165.406 57.6777C165.406 58.7251 164.898 59.582 163.007 61.2959L161.61 62.6543V62.7051H165.533V64.2793H158.957ZM170.459 64.4062C168.155 64.4062 166.765 62.6924 166.765 59.6836C166.765 56.6812 168.167 54.9609 170.459 54.9609C172.75 54.9609 174.153 56.6812 174.153 59.6836C174.153 62.7051 172.757 64.4062 170.459 64.4062ZM168.72 59.6836C168.707 61.8037 169.393 62.832 170.459 62.832C171.525 62.832 172.205 61.8037 172.198 59.6836C172.205 57.5825 171.519 56.5288 170.459 56.5225C169.399 56.5288 168.72 57.5825 168.72 59.6836Z" fill="white"/>
<path d="M162.194 84.2793L162.581 81.9355H160.448L160.062 84.2793H159.206L159.593 81.9355H158.339L158.479 81.0918H159.728L160.079 78.9824H158.843L158.972 78.1387H160.214L160.601 75.7949H161.456L161.069 78.1387H163.202L163.589 75.7949H164.444L164.058 78.1387H165.323L165.183 78.9824H163.923L163.571 81.0918H164.819L164.679 81.9355H163.437L163.05 84.2793H162.194ZM160.583 81.0918H162.716L163.067 78.9824H160.935L160.583 81.0918ZM166.366 84.2793V75.7949H171.476V76.7324H167.421V79.5684H171.089V80.4941H167.421V84.2793H166.366ZM175.741 84.3965C173.954 84.3965 172.724 83.4062 172.729 82.0293C172.724 80.9336 173.485 80.0254 174.452 79.873V79.8262C173.608 79.6328 173.052 78.8535 173.058 77.9277C173.052 76.6328 174.188 75.6777 175.741 75.6777C177.288 75.6777 178.425 76.6328 178.437 77.9277C178.425 78.8535 177.862 79.6328 177.03 79.8262V79.873C177.991 80.0254 178.753 80.9336 178.765 82.0293C178.753 83.4062 177.511 84.3965 175.741 84.3965ZM173.784 81.9707C173.767 82.8613 174.522 83.4648 175.741 83.4707C176.954 83.4648 177.71 82.8613 177.71 81.9707C177.71 81.0332 176.884 80.3418 175.741 80.3418C174.604 80.3418 173.767 81.0332 173.784 81.9707ZM174.077 78.0098C174.083 78.8652 174.769 79.4453 175.741 79.4512C176.708 79.4453 177.405 78.8652 177.405 78.0098C177.405 77.1602 176.731 76.5859 175.741 76.5918C174.733 76.5859 174.083 77.1602 174.077 78.0098ZM180.698 84.2793H179.597L182.702 75.7949H183.815L186.921 84.2793H185.808L184.958 81.8887H181.548L180.698 84.2793ZM181.87 80.9629H184.636L183.288 77.166H183.218L181.87 80.9629ZM187.929 84.2793L187.917 83.5059L190.812 80.459C191.813 79.3926 192.294 78.8184 192.3 78.0332C192.294 77.1602 191.567 76.5977 190.612 76.5918C189.599 76.5977 188.966 77.2363 188.96 78.1855H187.964C187.952 76.6855 189.112 75.6777 190.647 75.6777C192.188 75.6777 193.278 76.7148 193.284 78.0332C193.278 78.9824 192.839 79.7207 191.339 81.2676L189.394 83.2715V83.3418H193.437V84.2793H187.929ZM197.972 75.7949V84.2793H196.905V76.8965H196.858L194.796 78.2676V77.2012L196.905 75.7949H197.972ZM200.374 84.2793V75.7949H205.519V76.7324H201.429V79.5684H205.249V80.4941H201.429V83.3418H205.577V84.2793H200.374Z" fill="white" fill-opacity="0.78"/>
<rect x="284.467" y="1.2793" width="136.233" height="100" rx="10" fill="#F29103"/>
<path d="M304.593 64.4062C302.574 64.4062 301.127 63.2954 301.089 61.6895H303.019C303.05 62.375 303.717 62.8257 304.605 62.832C305.52 62.8257 306.173 62.3179 306.167 61.5752C306.173 60.8262 305.507 60.2993 304.428 60.293H303.577V58.8838H304.428C305.335 58.8838 305.97 58.3887 305.964 57.665C305.97 56.9604 305.431 56.478 304.618 56.4844C303.806 56.478 303.139 56.9351 303.107 57.6396H301.279C301.311 56.0591 302.733 54.9609 304.618 54.9609C306.535 54.9609 307.811 56.0972 307.805 57.5508C307.811 58.5791 307.094 59.3091 306.065 59.4932V59.5693C307.417 59.7344 308.16 60.5532 308.147 61.7021C308.16 63.2764 306.668 64.4062 304.593 64.4062ZM313.061 64.4062C310.756 64.4062 309.366 62.6924 309.366 59.6836C309.366 56.6812 310.769 54.9609 313.061 54.9609C315.352 54.9609 316.755 56.6812 316.755 59.6836C316.755 62.7051 315.358 64.4062 313.061 64.4062ZM311.321 59.6836C311.309 61.8037 311.994 62.832 313.061 62.832C314.127 62.832 314.806 61.8037 314.8 59.6836C314.806 57.5825 314.121 56.5288 313.061 56.5225C312 56.5288 311.321 57.5825 311.321 59.6836Z" fill="white"/>
<path d="M304.428 84.2793L304.814 81.9355H302.682L302.295 84.2793H301.439L301.826 81.9355H300.572L300.713 81.0918H301.961L302.312 78.9824H301.076L301.205 78.1387H302.447L302.834 75.7949H303.689L303.303 78.1387H305.436L305.822 75.7949H306.678L306.291 78.1387H307.557L307.416 78.9824H306.156L305.805 81.0918H307.053L306.912 81.9355H305.67L305.283 84.2793H304.428ZM302.816 81.0918H304.949L305.301 78.9824H303.168L302.816 81.0918ZM308.6 84.2793V75.7949H313.709V76.7324H309.654V79.5684H313.322V80.4941H309.654V84.2793H308.6ZM315.139 84.2793L315.127 83.5059L318.021 80.459C319.023 79.3926 319.504 78.8184 319.51 78.0332C319.504 77.1602 318.777 76.5977 317.822 76.5918C316.809 76.5977 316.176 77.2363 316.17 78.1855H315.174C315.162 76.6855 316.322 75.6777 317.857 75.6777C319.398 75.6777 320.488 76.7148 320.494 78.0332C320.488 78.9824 320.049 79.7207 318.549 81.2676L316.604 83.2715V83.3418H320.646V84.2793H315.139ZM325.006 75.6777C326.465 75.6953 328.088 76.5742 328.088 79.6973C328.088 82.7148 326.852 84.3965 324.865 84.3965C323.371 84.3965 322.322 83.4824 322.111 82.1348H323.154C323.342 82.8965 323.922 83.459 324.865 83.459C326.248 83.459 327.092 82.2637 327.104 80.2012H326.986C326.5 80.9043 325.721 81.3262 324.818 81.3262C323.301 81.3262 322.041 80.1602 322.041 78.5254C322.041 76.9434 323.201 75.6602 325.006 75.6777ZM323.072 78.5137C323.066 79.5625 323.863 80.4004 324.971 80.4004C326.078 80.4004 326.939 79.4863 326.939 78.4902C326.939 77.5176 326.125 76.6035 325.006 76.6035C323.898 76.6035 323.061 77.4648 323.072 78.5137ZM332.541 75.7949V84.2793H331.475V76.8965H331.428L329.365 78.2676V77.2012L331.475 75.7949H332.541ZM337.58 84.3965C335.699 84.3965 334.609 82.8145 334.615 80.0371C334.609 77.2832 335.711 75.6777 337.58 75.6777C339.443 75.6777 340.545 77.2832 340.545 80.0371C340.545 82.8145 339.461 84.3965 337.58 84.3965ZM335.635 80.0371C335.641 82.2344 336.35 83.459 337.58 83.459C338.805 83.459 339.52 82.2344 339.514 80.0371C339.52 77.8398 338.799 76.5977 337.58 76.5918C336.361 76.5977 335.641 77.8398 335.635 80.0371ZM344.881 84.3965C343.193 84.3965 341.98 83.4941 341.928 82.1465H342.994C343.053 82.9551 343.855 83.459 344.869 83.459C345.988 83.459 346.797 82.8555 346.803 81.9707C346.797 81.0449 346.059 80.3945 344.74 80.3887H344.049V79.4629H344.74C345.771 79.4629 346.492 78.8828 346.486 78.0098C346.492 77.1602 345.871 76.5977 344.904 76.5918C343.996 76.5977 343.17 77.0957 343.123 77.9277H342.104C342.156 76.5801 343.41 75.6777 344.916 75.6777C346.533 75.6777 347.518 76.7383 347.506 77.9512C347.518 78.918 346.955 79.6211 346.064 79.873V79.9316C347.172 80.1016 347.84 80.8926 347.834 81.9707C347.84 83.3652 346.574 84.3965 344.881 84.3965Z" fill="white" fill-opacity="0.78"/>
<rect x="426.7" width="101.737" height="102.558" rx="10.2558" fill="#F54337"/>
<path d="M447.544 20.6435C447.448 20.1507 447.039 19.8322 446.39 19.8382C445.735 19.8322 445.255 20.1627 445.261 20.6074C445.255 20.9439 445.525 21.1963 446.186 21.3526L447.292 21.5809C448.524 21.8513 449.125 22.4222 449.131 23.3596C449.125 24.5855 448.049 25.4388 446.342 25.4388C444.684 25.4388 443.704 24.6937 443.542 23.4438H445.104C445.195 24.0026 445.627 24.2791 446.342 24.2731C447.081 24.2791 447.562 23.9786 447.568 23.4919C447.562 23.1133 447.268 22.8729 446.619 22.7347L445.573 22.5063C444.359 22.26 443.728 21.623 443.734 20.6915C443.728 19.4837 444.774 18.6965 446.366 18.6965C447.923 18.6965 448.884 19.4596 448.998 20.6435H447.544ZM453.193 25.4388C451.228 25.4388 450.02 24.1288 450.02 22.0857C450.02 20.0666 451.246 18.6965 453.109 18.6965C454.707 18.6965 456.089 19.7 456.089 21.9895V22.4703H451.534C451.558 23.582 452.213 24.243 453.205 24.237C453.878 24.243 454.329 23.9546 454.527 23.564H456.029C455.753 24.6937 454.707 25.4388 453.193 25.4388ZM451.54 21.4247H454.623C454.617 20.5353 454.016 19.8863 453.133 19.8863C452.213 19.8863 451.594 20.5954 451.54 21.4247ZM460.128 25.4388C458.181 25.4388 457.003 24.0447 457.003 22.0737C457.003 20.0726 458.217 18.6965 460.128 18.6965C461.708 18.6965 462.82 19.6219 462.928 21.0281H461.462C461.341 20.4031 460.885 19.9284 460.14 19.9224C459.19 19.9284 458.553 20.7216 458.553 22.0376C458.553 23.3837 459.178 24.1829 460.14 24.1889C460.819 24.1829 461.323 23.7863 461.462 23.0832H462.928C462.814 24.4593 461.768 25.4388 460.128 25.4388ZM466.93 25.4388C465.025 25.4388 463.805 24.0868 463.805 22.0737C463.805 20.0425 465.025 18.6965 466.93 18.6965C468.841 18.6965 470.061 20.0425 470.055 22.0737C470.061 24.0868 468.841 25.4388 466.93 25.4388ZM465.356 22.0617C465.356 23.2575 465.878 24.213 466.942 24.213C467.988 24.213 468.51 23.2575 468.504 22.0617C468.51 20.8658 467.988 19.9043 466.942 19.9103C465.878 19.9043 465.356 20.8658 465.356 22.0617ZM472.783 21.4848V25.3066H471.245V18.7806H472.711V19.8863H472.795C473.089 19.1592 473.757 18.6965 474.73 18.6965C476.082 18.6965 476.971 19.5858 476.965 21.1482V25.3066H475.439V21.3886C475.439 20.5113 474.964 19.9885 474.165 19.9945C473.354 19.9885 472.783 20.5353 472.783 21.4848ZM480.859 25.4268C479.327 25.4208 478.167 24.1949 478.167 22.0496C478.167 19.8743 479.357 18.6965 480.871 18.6965C482.019 18.6965 482.5 19.3875 482.734 19.8503H482.794V16.6053H484.321V25.3066H482.818V24.2731H482.734C482.488 24.7538 481.989 25.4208 480.859 25.4268ZM479.73 22.0376C479.73 23.2695 480.271 24.1649 481.28 24.1649C482.272 24.1649 482.83 23.3116 482.83 22.0376C482.83 20.7697 482.278 19.9524 481.28 19.9464C480.258 19.9524 479.73 20.8237 479.73 22.0376ZM485.571 23.4678C485.571 22.0016 486.791 21.5749 487.998 21.4968C488.455 21.4607 489.387 21.4187 489.675 21.4066L489.669 20.8838C489.669 20.2348 489.254 19.8623 488.491 19.8623C487.806 19.8623 487.385 20.1747 487.265 20.6435H485.787C485.895 19.5318 486.893 18.6965 488.527 18.6965C489.765 18.6965 491.195 19.2073 491.195 20.9439V25.3066H489.729V24.4053H489.681C489.393 24.9581 488.786 25.4388 487.758 25.4388C486.514 25.4388 485.571 24.7598 485.571 23.4678ZM487.049 23.4558C487.049 24.0207 487.512 24.3091 488.155 24.3091C489.086 24.3091 489.681 23.6962 489.681 22.963L489.675 22.4282C489.399 22.4402 488.545 22.4943 488.239 22.5184C487.512 22.5784 487.049 22.8849 487.049 23.4558ZM492.638 25.3066V18.7806H494.128V19.8623H494.2C494.434 19.1111 495.059 18.6845 495.81 18.6845C495.979 18.6845 496.219 18.7025 496.363 18.7205V20.1387C496.225 20.0906 495.907 20.0486 495.654 20.0425C494.801 20.0486 494.176 20.6375 494.176 21.4607V25.3066H492.638ZM498.406 27.7584C498.1 27.7524 497.811 27.7464 497.613 27.7224V26.4965C497.799 26.5145 498.058 26.5145 498.262 26.5205C498.635 26.5145 498.947 26.4905 499.212 25.7874L499.344 25.4388L496.964 18.7806H498.587L500.101 23.7082H500.173L501.687 18.7806H503.31L500.69 26.0999C500.317 27.1395 499.632 27.7524 498.406 27.7584Z" fill="white" fill-opacity="0.6"/>
<path d="M443.904 65.1992V55.7727H447.601C449.743 55.7727 450.973 56.9771 450.973 58.8454C450.973 60.1344 450.381 61.0719 449.307 61.5341L451.312 65.1992H449.151L447.347 61.8531H445.857V65.1992H443.904ZM445.857 60.2646H447.237C448.396 60.2646 448.962 59.7894 448.955 58.8454C448.962 57.895 448.396 57.3807 447.237 57.3742H445.857V60.2646ZM455.374 65.3424C453.206 65.3359 451.878 63.9363 451.885 61.6968C451.878 59.516 453.226 58.0382 455.296 58.0382C457.151 58.0382 458.616 59.21 458.616 61.6187V62.1656H453.786C453.786 63.2332 454.417 63.8907 455.413 63.8972C456.071 63.8907 456.54 63.6043 456.728 63.1811H458.564C458.291 64.4896 457.119 65.3359 455.374 65.3424ZM453.786 60.9547H456.793C456.787 60.0954 456.194 59.4769 455.335 59.4834C454.45 59.4769 453.825 60.1409 453.786 60.9547ZM462.431 65.3164C460.817 65.3164 459.554 64.0339 459.554 61.6708C459.554 59.2491 460.869 58.0382 462.431 58.0382C463.616 58.0382 464.182 58.7413 464.436 59.3142H464.501V55.7727H466.428V65.1992H464.527V64.0665H464.436C464.169 64.6524 463.583 65.3164 462.431 65.3164ZM461.533 61.6578C461.526 62.9077 462.054 63.7735 463.03 63.78C463.993 63.7735 464.54 62.9337 464.54 61.6578C464.54 60.3883 464 59.5746 463.03 59.5746C462.047 59.5746 461.526 60.4274 461.533 61.6578Z" fill="white"/>
<path d="M447.172 85.25L447.568 82.8463H445.381L444.984 85.25H444.107L444.504 82.8463H443.218L443.362 81.981H444.642L445.002 79.8176H443.734L443.867 78.9523H445.14L445.537 76.5486H446.414L446.018 78.9523H448.205L448.602 76.5486H449.479L449.083 78.9523H450.381L450.236 79.8176H448.944L448.584 81.981H449.864L449.72 82.8463H448.446L448.049 85.25H447.172ZM445.519 81.981H447.706L448.067 79.8176H445.88L445.519 81.981ZM451.45 85.25V76.5486H456.69V77.5101H452.532V80.4186H456.294V81.368H452.532V85.25H451.45ZM460.993 85.3702C459.424 85.3702 458.235 84.4027 458.169 83.0626H459.214C459.292 83.8378 460.049 84.4147 460.993 84.4207C462.123 84.4147 462.94 83.5914 462.94 82.4978C462.94 81.368 462.093 80.5327 460.921 80.5267C460.188 80.5147 459.617 80.7431 459.298 81.3079H458.253L458.866 76.5486H463.577V77.5101H459.767L459.442 80.058H459.527C459.917 79.7576 460.5 79.5532 461.113 79.5532C462.772 79.5532 463.991 80.7791 463.997 82.4737C463.991 84.1563 462.73 85.3702 460.993 85.3702ZM465.283 83.4713V82.5819L469.201 76.5486H470.536V82.5218H471.749V83.4713H470.536V85.25H469.502V83.4713H465.283ZM466.449 82.5218H469.502V77.9187H469.394L466.449 82.4497V82.5218ZM476.184 85.3702C474.454 85.3702 473.21 84.4448 473.156 83.0626H474.249C474.309 83.8919 475.133 84.4087 476.172 84.4087C477.32 84.4087 478.149 83.7898 478.155 82.8824C478.149 81.9329 477.392 81.2659 476.04 81.2599H475.331V80.3104H476.04C477.098 80.3104 477.837 79.7155 477.831 78.8201C477.837 77.9488 477.2 77.3719 476.208 77.3659C475.277 77.3719 474.43 77.8827 474.381 78.736H473.336C473.39 77.3539 474.676 76.4284 476.22 76.4284C477.879 76.4284 478.888 77.5161 478.876 78.76C478.888 79.7515 478.312 80.4727 477.398 80.7311V80.7911C478.534 80.9654 479.219 81.7767 479.213 82.8824C479.219 84.3126 477.921 85.3702 476.184 85.3702ZM483.78 85.3702C482.049 85.3702 480.805 84.4448 480.751 83.0626H481.845C481.905 83.8919 482.728 84.4087 483.768 84.4087C484.916 84.4087 485.745 83.7898 485.751 82.8824C485.745 81.9329 484.988 81.2659 483.636 81.2599H482.927V80.3104H483.636C484.693 80.3104 485.432 79.7155 485.426 78.8201C485.432 77.9488 484.795 77.3719 483.804 77.3659C482.873 77.3719 482.025 77.8827 481.977 78.736H480.932C480.986 77.3539 482.272 76.4284 483.816 76.4284C485.475 76.4284 486.484 77.5161 486.472 78.76C486.484 79.7515 485.907 80.4727 484.994 80.7311V80.7911C486.13 80.9654 486.815 81.7767 486.809 82.8824C486.815 84.3126 485.517 85.3702 483.78 85.3702ZM488.647 85.25L492.638 77.5702V77.5101H488.034V76.5486H493.755V77.5582L489.777 85.25H488.647Z" fill="white" fill-opacity="0.78"/>
<rect x="534.591" width="101.737" height="102.558" rx="10.2558" fill="#3682B9"/>
<path d="M551.794 65.1992V55.7727H555.544C557.621 55.7727 558.675 56.7753 558.669 58.1944C558.675 59.3011 557.946 59.9977 556.976 60.2126V60.3037C558.037 60.3558 559.04 61.2021 559.046 62.5952C559.04 64.0925 557.92 65.1992 555.791 65.1992H551.794ZM553.747 63.5847H555.401C556.534 63.5912 557.022 63.1225 557.015 62.4129C557.022 61.6187 556.416 61.0589 555.453 61.0589H553.747V63.5847ZM553.747 59.7178H555.258C556.078 59.7243 556.696 59.2621 556.69 58.5069C556.696 57.8234 556.188 57.3612 555.297 57.3612H553.747V59.7178ZM562.171 55.7727V65.1992H560.244V55.7727H562.171ZM568.199 62.1916V58.1293H570.126V65.1992H568.278V63.9233H568.199C567.88 64.7435 567.119 65.2904 566.051 65.2904C564.638 65.2904 563.668 64.2878 563.668 62.6343V58.1293H565.595V62.2958C565.595 63.1355 566.077 63.6563 566.832 63.6629C567.535 63.6563 568.199 63.1551 568.199 62.1916ZM574.827 65.3424C572.659 65.3359 571.331 63.9363 571.337 61.6968C571.331 59.516 572.678 58.0382 574.749 58.0382C576.604 58.0382 578.069 59.21 578.069 61.6187V62.1656H573.238C573.238 63.2332 573.87 63.8907 574.866 63.8972C575.523 63.8907 575.992 63.6043 576.181 63.1811H578.017C577.743 64.4896 576.571 65.3359 574.827 65.3424ZM573.238 60.9547H576.246C576.239 60.0954 575.647 59.4769 574.788 59.4834C573.902 59.4769 573.277 60.1409 573.238 60.9547Z" fill="white"/>
<path d="M555.062 85.25L555.459 82.8463H553.271L552.875 85.25H551.998L552.394 82.8463H551.108L551.252 81.981H552.532L552.893 79.8176H551.625L551.757 78.9523H553.031L553.428 76.5486H554.305L553.908 78.9523H556.096L556.492 76.5486H557.37L556.973 78.9523H558.271L558.127 79.8176H556.835L556.474 81.981H557.754L557.61 82.8463H556.336L555.94 85.25H555.062ZM553.41 81.981H555.597L555.958 79.8176H553.77L553.41 81.981ZM562.201 85.3702C560.471 85.3702 559.227 84.4448 559.173 83.0626H560.266C560.326 83.8919 561.15 84.4087 562.189 84.4087C563.337 84.4087 564.166 83.7898 564.172 82.8824C564.166 81.9329 563.409 81.2659 562.057 81.2599H561.348V80.3104H562.057C563.115 80.3104 563.854 79.7155 563.848 78.8201C563.854 77.9488 563.217 77.3719 562.225 77.3659C561.294 77.3719 560.447 77.8827 560.398 78.736H559.353C559.407 77.3539 560.693 76.4284 562.237 76.4284C563.896 76.4284 564.905 77.5161 564.893 78.76C564.905 79.7515 564.328 80.4727 563.415 80.7311V80.7911C564.551 80.9654 565.236 81.7767 565.23 82.8824C565.236 84.3126 563.938 85.3702 562.201 85.3702ZM569.821 85.3702C568.313 85.3522 566.648 84.4568 566.648 81.2358C566.648 78.1531 567.91 76.4284 569.953 76.4284C571.486 76.4284 572.555 77.3719 572.777 78.736H571.708C571.51 77.9668 570.921 77.3899 569.953 77.3899C568.523 77.3899 567.664 78.6098 567.67 80.707H567.778C568.277 79.9799 569.076 79.5532 570.013 79.5532C571.558 79.5532 572.85 80.7551 572.85 82.4377C572.85 84.0782 571.654 85.3882 569.821 85.3702ZM567.814 82.4617C567.82 83.4833 568.655 84.4147 569.821 84.4207C570.945 84.4147 571.798 83.5314 571.804 82.4497C571.798 81.38 570.981 80.5087 569.845 80.5027C568.703 80.5087 567.826 81.4341 567.814 82.4617ZM577.248 85.3702C575.416 85.3702 574.154 84.3546 574.16 82.9425C574.154 81.8187 574.935 80.8873 575.926 80.7311V80.683C575.061 80.4847 574.49 79.6854 574.496 78.736C574.49 77.4079 575.656 76.4284 577.248 76.4284C578.835 76.4284 580.001 77.4079 580.013 78.736C580.001 79.6854 579.424 80.4847 578.57 80.683V80.7311C579.556 80.8873 580.337 81.8187 580.349 82.9425C580.337 84.3546 579.063 85.3702 577.248 85.3702ZM575.241 82.8824C575.223 83.7958 575.998 84.4147 577.248 84.4207C578.492 84.4147 579.267 83.7958 579.267 82.8824C579.267 81.9209 578.42 81.2118 577.248 81.2118C576.083 81.2118 575.223 81.9209 575.241 82.8824ZM575.542 78.8201C575.548 79.6975 576.251 80.2924 577.248 80.2984C578.24 80.2924 578.955 79.6975 578.955 78.8201C578.955 77.9488 578.264 77.3599 577.248 77.3659C576.215 77.3599 575.548 77.9488 575.542 78.8201ZM581.803 85.25L581.791 84.4568L584.76 81.332C585.787 80.2383 586.28 79.6494 586.286 78.8441C586.28 77.9488 585.535 77.3719 584.556 77.3659C583.516 77.3719 582.867 78.0269 582.861 79.0004H581.839C581.827 77.462 583.017 76.4284 584.592 76.4284C586.172 76.4284 587.29 77.4921 587.296 78.8441C587.29 79.8176 586.839 80.5748 585.301 82.1613L583.306 84.2164V84.2885H587.452V85.25H581.803ZM589.171 85.25V76.5486H592.223C594.05 76.5486 594.91 77.5762 594.904 78.8562C594.91 79.9739 594.242 80.4727 593.485 80.683V80.7671C594.297 80.8152 595.246 81.5603 595.252 82.9425C595.246 84.2465 594.387 85.25 592.332 85.25H589.171ZM590.252 84.2885H592.32C593.684 84.2885 594.212 83.6876 594.206 82.9304C594.212 82.0471 593.497 81.2959 592.38 81.2959H590.252V84.2885ZM590.252 80.3585H592.187C593.131 80.3645 593.87 79.7756 593.87 78.8682C593.87 78.111 593.359 77.5101 592.223 77.5101H590.252V80.3585ZM599.543 76.4284C601.039 76.4465 602.704 77.3478 602.704 80.5508C602.704 83.6455 601.436 85.3702 599.398 85.3702C597.866 85.3702 596.79 84.4327 596.574 83.0506H597.644C597.836 83.8318 598.431 84.4087 599.398 84.4087C600.817 84.4087 601.682 83.1828 601.694 81.0676H601.574C601.075 81.7887 600.276 82.2213 599.35 82.2213C597.794 82.2213 596.502 81.0255 596.502 79.3489C596.502 77.7264 597.692 76.4104 599.543 76.4284ZM597.56 79.3369C597.554 80.4126 598.371 81.2719 599.507 81.2719C600.642 81.2719 601.526 80.3344 601.526 79.3129C601.526 78.3153 600.69 77.3779 599.543 77.3779C598.407 77.3779 597.548 78.2613 597.56 79.3369Z" fill="white" fill-opacity="0.78"/>
<rect x="642.481" width="101.737" height="102.558" rx="10.2558" fill="#00CC7E"/>
<path d="M665.947 58.8064C665.681 57.921 664.971 57.3807 663.942 57.3742C662.484 57.3807 661.495 58.4939 661.495 60.473C661.495 62.465 662.452 63.5912 663.955 63.5978C665.303 63.5912 666.104 62.8296 666.13 61.6448H664.086V60.1735H668.018V61.3453C668.018 63.8191 666.319 65.3294 663.942 65.3294C661.299 65.3294 659.503 63.4806 659.503 60.499C659.503 57.4393 661.417 55.6425 663.903 55.6425C666.032 55.6425 667.666 56.951 667.927 58.8064H665.947ZM669.411 65.1992V58.1293H671.273V59.3532H671.351C671.605 58.4874 672.262 58.0252 673.056 58.0252C673.252 58.0252 673.499 58.0512 673.668 58.0903V59.8089C673.486 59.7503 673.115 59.7048 672.848 59.7048C671.976 59.7048 671.331 60.3102 671.338 61.176V65.1992H669.411ZM677.587 65.3424C675.42 65.3359 674.091 63.9363 674.098 61.6968C674.091 59.516 675.439 58.0382 677.509 58.0382C679.365 58.0382 680.829 59.21 680.829 61.6187V62.1656H675.999C675.999 63.2332 676.63 63.8907 677.626 63.8972C678.284 63.8907 678.753 63.6043 678.941 63.1811H680.777C680.504 64.4896 679.332 65.3359 677.587 65.3424ZM675.999 60.9547H679.007C679 60.0954 678.408 59.4769 677.548 59.4834C676.663 59.4769 676.038 60.1409 675.999 60.9547ZM685.243 65.3424C683.075 65.3359 681.747 63.9363 681.754 61.6968C681.747 59.516 683.095 58.0382 685.165 58.0382C687.02 58.0382 688.485 59.21 688.485 61.6187V62.1656H683.655C683.655 63.2332 684.286 63.8907 685.282 63.8972C685.94 63.8907 686.408 63.6043 686.597 63.1811H688.433C688.16 64.4896 686.988 65.3359 685.243 65.3424ZM683.655 60.9547H686.662C686.656 60.0954 686.063 59.4769 685.204 59.4834C684.319 59.4769 683.694 60.1409 683.655 60.9547ZM691.623 61.1109V65.1992H689.696V58.1293H691.532V59.3662H691.61C691.929 58.5525 692.684 58.0382 693.732 58.0382C695.21 58.0382 696.173 59.0473 696.167 60.6943V65.1992H694.253V61.0328C694.246 60.1605 693.778 59.6397 692.977 59.6397C692.176 59.6397 691.623 60.18 691.623 61.1109Z" fill="white"/>
<path d="M662.953 85.25L663.349 82.8463H661.162L660.766 85.25H659.888L660.285 82.8463H658.999L659.143 81.981H660.423L660.784 79.8176H659.516L659.648 78.9523H660.922L661.318 76.5486H662.196L661.799 78.9523H663.986L664.383 76.5486H665.26L664.864 78.9523H666.162L666.018 79.8176H664.726L664.365 81.981H665.645L665.501 82.8463H664.227L663.83 85.25H662.953ZM661.3 81.981H663.488L663.848 79.8176H661.661L661.3 81.981ZM669.936 85.3702C668.007 85.3702 666.889 83.7477 666.895 80.8993C666.889 78.075 668.019 76.4284 669.936 76.4284C671.847 76.4284 672.976 78.075 672.976 80.8993C672.976 83.7477 671.865 85.3702 669.936 85.3702ZM667.941 80.8993C667.947 83.1528 668.674 84.4087 669.936 84.4087C671.192 84.4087 671.925 83.1528 671.919 80.8993C671.925 78.6458 671.186 77.3719 669.936 77.3659C668.686 77.3719 667.947 78.6458 667.941 80.8993ZM677.267 85.3702C675.338 85.3702 674.22 83.7477 674.226 80.8993C674.22 78.075 675.35 76.4284 677.267 76.4284C679.178 76.4284 680.308 78.075 680.308 80.8993C680.308 83.7477 679.196 85.3702 677.267 85.3702ZM675.272 80.8993C675.278 83.1528 676.005 84.4087 677.267 84.4087C678.523 84.4087 679.256 83.1528 679.25 80.8993C679.256 78.6458 678.517 77.3719 677.267 77.3659C676.017 77.3719 675.278 78.6458 675.272 80.8993ZM687.831 79.2888C687.579 78.087 686.551 77.438 685.403 77.438C683.829 77.438 682.609 78.6519 682.603 80.8993C682.609 83.1408 683.829 84.3546 685.403 84.3606C686.551 84.3546 687.573 83.7116 687.831 82.5218H688.913C688.6 84.3005 687.17 85.3702 685.403 85.3702C683.168 85.3702 681.551 83.6515 681.557 80.8993C681.551 78.1471 683.168 76.4284 685.403 76.4284C687.164 76.4284 688.588 77.4801 688.913 79.2888H687.831ZM696.364 79.2888C696.112 78.087 695.084 77.438 693.937 77.438C692.362 77.438 691.142 78.6519 691.136 80.8993C691.142 83.1408 692.362 84.3546 693.937 84.3606C695.084 84.3546 696.106 83.7116 696.364 82.5218H697.446C697.133 84.3005 695.703 85.3702 693.937 85.3702C691.701 85.3702 690.085 83.6515 690.091 80.8993C690.085 78.1471 691.701 76.4284 693.937 76.4284C695.697 76.4284 697.121 77.4801 697.446 79.2888H696.364ZM699.092 85.25L703.083 77.5702V77.5101H698.479V76.5486H704.2V77.5582L700.222 85.25H699.092ZM705.751 85.25V76.5486H711.027V77.5101H706.832V80.4186H710.75V81.368H706.832V84.2885H711.087V85.25H705.751Z" fill="white" fill-opacity="0.78"/>
<rect x="750.372" width="101.737" height="102.558" rx="10.2558" fill="#34B8A0"/>
<path d="M767.575 65.1992V55.7727H773.903V57.3872H769.528V59.6787H773.578V61.2932H769.528V63.5847H773.916V65.1992H767.575ZM775.387 65.1992V58.1293H777.223V59.3662H777.301C777.601 58.5395 778.317 58.0382 779.267 58.0382C780.237 58.0382 780.96 58.5525 781.194 59.3662H781.26C781.552 58.5655 782.36 58.0382 783.395 58.0382C784.703 58.0382 785.621 58.904 785.621 60.4469V65.1992H783.694V60.8245C783.701 60.0173 783.219 59.6267 782.588 59.6267C781.865 59.6267 781.435 60.1279 781.442 60.8766V65.1992H779.567V60.7724C779.573 60.0758 779.131 59.6267 778.473 59.6267C777.816 59.6267 777.308 60.154 777.314 60.9547V65.1992H775.387ZM790.308 65.3424C788.141 65.3359 786.813 63.9363 786.819 61.6968C786.813 59.516 788.16 58.0382 790.23 58.0382C792.086 58.0382 793.55 59.21 793.55 61.6187V62.1656H788.72C788.72 63.2332 789.351 63.8907 790.347 63.8972C791.005 63.8907 791.474 63.6043 791.663 63.1811H793.498C793.225 64.4896 792.053 65.3359 790.308 65.3424ZM788.72 60.9547H791.728C791.721 60.0954 791.129 59.4769 790.269 59.4834C789.384 59.4769 788.759 60.1409 788.72 60.9547ZM794.761 65.1992V58.1293H796.623V59.3532H796.701C796.955 58.4874 797.613 58.0252 798.407 58.0252C798.602 58.0252 798.85 58.0512 799.019 58.0903V59.8089C798.837 59.7503 798.465 59.7048 798.199 59.7048C797.326 59.7048 796.682 60.3102 796.688 61.176V65.1992H794.761ZM799.422 63.2202C799.429 61.6448 800.692 61.1305 802.052 61.0458C802.56 61.0133 803.511 60.9677 803.81 60.9547V60.3818C803.804 59.7894 803.4 59.4509 802.677 59.4444C802.02 59.4509 801.61 59.7438 801.506 60.2256H799.67C799.787 59.0017 800.855 58.0382 802.73 58.0382C804.272 58.0382 805.731 58.7283 805.724 60.4339V65.1992H803.901V64.2227H803.849C803.504 64.8737 802.827 65.3359 801.779 65.3294C800.425 65.3359 799.429 64.6198 799.422 63.2202ZM801.271 63.1681C801.271 63.7084 801.707 63.9949 802.326 64.0014C803.205 63.9949 803.817 63.422 803.81 62.6733V62.159C803.517 62.1721 802.69 62.2176 802.365 62.2437C801.694 62.3023 801.271 62.6213 801.271 63.1681ZM809.122 55.7727V65.1992H807.195V55.7727H809.122ZM813.224 65.3164C811.609 65.3164 810.346 64.0339 810.346 61.6708C810.346 59.2491 811.661 58.0382 813.224 58.0382C814.408 58.0382 814.975 58.7413 815.229 59.3142H815.294V55.7727H817.221V65.1992H815.32V64.0665H815.229C814.962 64.6524 814.376 65.3164 813.224 65.3164ZM812.325 61.6578C812.319 62.9077 812.846 63.7735 813.823 63.78C814.786 63.7735 815.333 62.9337 815.333 61.6578C815.333 60.3883 814.793 59.5746 813.823 59.5746C812.84 59.5746 812.319 60.4274 812.325 61.6578Z" fill="white"/>
<path d="M770.843 85.25L771.24 82.8463H769.053L768.656 85.25H767.779L768.175 82.8463H766.889L767.034 81.981H768.314L768.674 79.8176H767.406L767.538 78.9523H768.812L769.209 76.5486H770.086L769.69 78.9523H771.877L772.274 76.5486H773.151L772.754 78.9523H774.052L773.908 79.8176H772.616L772.256 81.981H773.536L773.391 82.8463H772.117L771.721 85.25H770.843ZM769.191 81.981H771.378L771.739 79.8176H769.552L769.191 81.981ZM777.982 85.3702C776.252 85.3702 775.008 84.4448 774.954 83.0626H776.047C776.108 83.8919 776.931 84.4087 777.97 84.4087C779.118 84.4087 779.947 83.7898 779.954 82.8824C779.947 81.9329 779.19 81.2659 777.838 81.2599H777.129V80.3104H777.838C778.896 80.3104 779.635 79.7155 779.629 78.8201C779.635 77.9488 778.998 77.3719 778.007 77.3659C777.075 77.3719 776.228 77.8827 776.18 78.736H775.134C775.188 77.3539 776.474 76.4284 778.019 76.4284C779.677 76.4284 780.687 77.5161 780.675 78.76C780.687 79.7515 780.11 80.4727 779.196 80.7311V80.7911C780.332 80.9654 781.017 81.7767 781.011 82.8824C781.017 84.3126 779.719 85.3702 777.982 85.3702ZM782.357 83.4713V82.5819L786.275 76.5486H787.609V82.5218H788.823V83.4713H787.609V85.25H786.576V83.4713H782.357ZM783.523 82.5218H786.576V77.9187H786.468L783.523 82.4497V82.5218ZM790.398 85.25V76.5486H793.45C795.277 76.5486 796.136 77.5762 796.13 78.8562C796.136 79.9739 795.469 80.4727 794.712 80.683V80.7671C795.523 80.8152 796.473 81.5603 796.479 82.9425C796.473 84.2465 795.614 85.25 793.558 85.25H790.398ZM791.479 84.2885H793.546C794.911 84.2885 795.439 83.6876 795.433 82.9304C795.439 82.0471 794.724 81.2959 793.606 81.2959H791.479V84.2885ZM791.479 80.3585H793.414C794.358 80.3645 795.097 79.7756 795.097 78.8682C795.097 78.111 794.586 77.5101 793.45 77.5101H791.479V80.3585ZM800.782 85.3702C798.949 85.3702 797.687 84.3546 797.693 82.9425C797.687 81.8187 798.468 80.8873 799.459 80.7311V80.683C798.594 80.4847 798.023 79.6854 798.029 78.736C798.023 77.4079 799.189 76.4284 800.782 76.4284C802.368 76.4284 803.534 77.4079 803.546 78.736C803.534 79.6854 802.957 80.4847 802.104 80.683V80.7311C803.089 80.8873 803.87 81.8187 803.882 82.9425C803.87 84.3546 802.596 85.3702 800.782 85.3702ZM798.774 82.8824C798.756 83.7958 799.532 84.4147 800.782 84.4207C802.025 84.4147 802.801 83.7958 802.801 82.8824C802.801 81.9209 801.953 81.2118 800.782 81.2118C799.616 81.2118 798.756 81.9209 798.774 82.8824ZM799.075 78.8201C799.081 79.6975 799.784 80.2924 800.782 80.2984C801.773 80.2924 802.488 79.6975 802.488 78.8201C802.488 77.9488 801.797 77.3599 800.782 77.3659C799.748 77.3599 799.081 77.9488 799.075 78.8201ZM805.865 85.25H804.736L807.921 76.5486H809.062L812.247 85.25H811.105L810.234 82.7982H806.737L805.865 85.25ZM807.067 81.8488H809.904L808.521 77.9548H808.449L807.067 81.8488ZM816.129 85.3702C814.2 85.3702 813.082 83.7477 813.088 80.8993C813.082 78.075 814.212 76.4284 816.129 76.4284C818.04 76.4284 819.17 78.075 819.17 80.8993C819.17 83.7477 818.058 85.3702 816.129 85.3702ZM814.134 80.8993C814.14 83.1528 814.867 84.4087 816.129 84.4087C817.385 84.4087 818.118 83.1528 818.112 80.8993C818.118 78.6458 817.379 77.3719 816.129 77.3659C814.879 77.3719 814.14 78.6458 814.134 80.8993Z" fill="white" fill-opacity="0.78"/>
<rect x="858.263" width="101.737" height="102.558" rx="10.2558" fill="#F77750"/>
<path d="M881.768 59.0538C881.612 58.0122 880.811 57.3807 879.711 57.3742C878.246 57.3807 877.276 58.5004 877.276 60.486C877.276 62.5171 878.259 63.5912 879.698 63.5978C880.772 63.5912 881.579 63.0053 881.768 61.9833L883.747 61.9963C883.532 63.741 882.067 65.3294 879.672 65.3294C877.152 65.3294 875.284 63.5522 875.284 60.486C875.284 57.4067 877.185 55.6425 879.672 55.6425C881.846 55.6425 883.486 56.8859 883.747 59.0538H881.768ZM888.252 65.3424C886.116 65.3359 884.782 63.8712 884.788 61.6838C884.782 59.503 886.116 58.0382 888.252 58.0382C890.394 58.0382 891.722 59.503 891.728 61.6838C891.722 63.8712 890.394 65.3359 888.252 65.3424ZM886.741 61.6838C886.741 62.9207 887.256 63.8386 888.265 63.8451C889.248 63.8386 889.769 62.9207 889.762 61.6838C889.769 60.4404 889.248 59.5095 888.265 59.5095C887.256 59.5095 886.741 60.4404 886.741 61.6838ZM892.939 65.1992V58.1293H894.801V59.3532H894.879C895.133 58.4874 895.79 58.0252 896.585 58.0252C896.78 58.0252 897.027 58.0512 897.197 58.0903V59.8089C897.014 59.7503 896.643 59.7048 896.376 59.7048C895.504 59.7048 894.859 60.3102 894.866 61.176V65.1992H892.939ZM897.6 63.2202C897.607 61.6448 898.87 61.1305 900.23 61.0458C900.738 61.0133 901.688 60.9677 901.988 60.9547V60.3818C901.981 59.7894 901.578 59.4509 900.855 59.4444C900.198 59.4509 899.787 59.7438 899.683 60.2256H897.848C897.965 59.0017 899.032 58.0382 900.907 58.0382C902.45 58.0382 903.908 58.7283 903.902 60.4339V65.1992H902.079V64.2227H902.027C901.682 64.8737 901.005 65.3359 899.957 65.3294C898.603 65.3359 897.607 64.6198 897.6 63.2202ZM899.449 63.1681C899.449 63.7084 899.885 63.9949 900.504 64.0014C901.382 63.9949 901.994 63.422 901.988 62.6733V62.159C901.695 62.1721 900.868 62.2176 900.543 62.2437C899.872 62.3023 899.449 62.6213 899.449 63.1681ZM907.3 55.7727V65.1992H905.373V55.7727H907.3Z" fill="white"/>
<path d="M878.734 85.25L879.131 82.8463H876.943L876.547 85.25H875.669L876.066 82.8463H874.78L874.924 81.981H876.204L876.565 79.8176H875.297L875.429 78.9523H876.703L877.1 76.5486H877.977L877.58 78.9523H879.768L880.164 76.5486H881.042L880.645 78.9523H881.943L881.799 79.8176H880.507L880.146 81.981H881.426L881.282 82.8463H880.008L879.611 85.25H878.734ZM877.082 81.981H879.269L879.629 79.8176H877.442L877.082 81.981ZM883.013 85.25V76.5486H888.253V77.5101H884.094V80.4186H887.856V81.368H884.094V85.25H883.013ZM889.995 85.25L893.986 77.5702V77.5101H889.382V76.5486H895.103V77.5582L891.125 85.25H889.995ZM897.026 85.25L901.016 77.5702V77.5101H896.413V76.5486H902.134V77.5582L898.156 85.25H897.026ZM904.057 85.25L908.047 77.5702V77.5101H903.444V76.5486H909.165V77.5582L905.187 85.25H904.057ZM913.287 85.3702C911.719 85.3702 910.529 84.4027 910.463 83.0626H911.509C911.587 83.8378 912.344 84.4147 913.287 84.4207C914.417 84.4147 915.234 83.5914 915.234 82.4978C915.234 81.368 914.387 80.5327 913.215 80.5267C912.482 80.5147 911.911 80.7431 911.593 81.3079H910.547L911.16 76.5486H915.871V77.5101H912.061L911.737 80.058H911.821C912.212 79.7576 912.794 79.5532 913.407 79.5532C915.066 79.5532 916.286 80.7791 916.292 82.4737C916.286 84.1563 915.024 85.3702 913.287 85.3702ZM920.643 85.3702C918.714 85.3702 917.596 83.7477 917.602 80.8993C917.596 78.075 918.726 76.4284 920.643 76.4284C922.553 76.4284 923.683 78.075 923.683 80.8993C923.683 83.7477 922.572 85.3702 920.643 85.3702ZM918.647 80.8993C918.654 83.1528 919.381 84.4087 920.643 84.4087C921.898 84.4087 922.632 83.1528 922.626 80.8993C922.632 78.6458 921.892 77.3719 920.643 77.3659C919.393 77.3719 918.654 78.6458 918.647 80.8993Z" fill="white" fill-opacity="0.78"/>
<rect y="108.559" width="99.5556" height="100" rx="10" fill="#F8F9FA"/>
<path d="M16.7852 133.559V125.074H20.0312C21.8711 125.074 22.7793 126.012 22.7852 127.277C22.7793 128.309 22.1289 128.883 21.2969 129.082V129.164C22.1992 129.211 23.1133 129.961 23.1133 131.25C23.1133 132.568 22.1582 133.559 20.2188 133.559H16.7852ZM18.3086 132.281H19.9844C21.0977 132.281 21.5605 131.807 21.5664 131.133C21.5605 130.371 20.9688 129.791 20.0195 129.785H18.3086V132.281ZM18.3086 128.684H19.8438C20.6465 128.684 21.2559 128.221 21.2617 127.465C21.2559 126.814 20.7871 126.34 19.8789 126.34H18.3086V128.684ZM27.0625 136.078C25.375 136.078 24.3027 135.328 24.2031 134.133H25.6914C25.7969 134.689 26.3184 134.947 27.0859 134.953C27.9824 134.947 28.5625 134.561 28.5625 133.629V132.41H28.4922C28.2578 132.879 27.748 133.465 26.6523 133.465C25.1816 133.465 24.0273 132.398 24.0273 130.324C24.0273 128.232 25.1875 127.113 26.6641 127.113C27.7832 127.113 28.2578 127.787 28.4922 128.238H28.5625V127.195H30.0391V133.664C30.0391 135.293 28.7793 136.078 27.0625 136.078ZM25.5508 130.348C25.5508 131.52 26.0781 132.293 27.0625 132.293C28.0293 132.293 28.5742 131.566 28.5742 130.348C28.5742 129.135 28.0352 128.338 27.0625 128.332C26.0664 128.338 25.5508 129.188 25.5508 130.348Z" fill="black" fill-opacity="0.32"/>
<path d="M20.6846 162.367V171.559H18.7676V164.183H18.7168L16.6094 165.503V163.814L18.8818 162.367H20.6846ZM26.3848 171.686C24.0806 171.686 22.6904 169.972 22.6904 166.963C22.6904 163.96 24.0933 162.24 26.3848 162.24C28.6763 162.24 30.0791 163.96 30.0791 166.963C30.0791 169.984 28.6826 171.686 26.3848 171.686ZM24.6455 166.963C24.6328 169.083 25.3184 170.111 26.3848 170.111C27.4512 170.111 28.1304 169.083 28.124 166.963C28.1304 164.862 27.4448 163.808 26.3848 163.802C25.3247 163.808 24.6455 164.862 24.6455 166.963Z" fill="black"/>
<path d="M19.9609 191.559L20.3477 189.215H18.2148L17.8281 191.559H16.9727L17.3594 189.215H16.1055L16.2461 188.371H17.4941L17.8457 186.262H16.6094L16.7383 185.418H17.9805L18.3672 183.074H19.2227L18.8359 185.418H20.9688L21.3555 183.074H22.2109L21.8242 185.418H23.0898L22.9492 186.262H21.6895L21.3379 188.371H22.5859L22.4453 189.215H21.2031L20.8164 191.559H19.9609ZM18.3496 188.371H20.4824L20.834 186.262H18.7012L18.3496 188.371ZM24.1328 191.559V183.074H29.2422V184.012H25.1875V186.848H28.8555V187.773H25.1875V191.559H24.1328ZM33.5078 191.676C31.7207 191.676 30.4902 190.686 30.4961 189.309C30.4902 188.213 31.252 187.305 32.2188 187.152V187.105C31.375 186.912 30.8184 186.133 30.8242 185.207C30.8184 183.912 31.9551 182.957 33.5078 182.957C35.0547 182.957 36.1914 183.912 36.2031 185.207C36.1914 186.133 35.6289 186.912 34.7969 187.105V187.152C35.7578 187.305 36.5195 188.213 36.5312 189.309C36.5195 190.686 35.2773 191.676 33.5078 191.676ZM31.5508 189.25C31.5332 190.141 32.2891 190.744 33.5078 190.75C34.7207 190.744 35.4766 190.141 35.4766 189.25C35.4766 188.312 34.6504 187.621 33.5078 187.621C32.3711 187.621 31.5332 188.312 31.5508 189.25ZM31.8438 185.289C31.8496 186.145 32.5352 186.725 33.5078 186.73C34.4746 186.725 35.1719 186.145 35.1719 185.289C35.1719 184.439 34.498 183.865 33.5078 183.871C32.5 183.865 31.8496 184.439 31.8438 185.289ZM38.0898 191.559V183.074H43.1992V184.012H39.1445V186.848H42.8125V187.773H39.1445V191.559H38.0898ZM47.4531 182.957C48.9121 182.975 50.5352 183.854 50.5352 186.977C50.5352 189.994 49.2988 191.676 47.3125 191.676C45.8184 191.676 44.7695 190.762 44.5586 189.414H45.6016C45.7891 190.176 46.3691 190.738 47.3125 190.738C48.6953 190.738 49.5391 189.543 49.5508 187.48H49.4336C48.9473 188.184 48.168 188.605 47.2656 188.605C45.748 188.605 44.4883 187.439 44.4883 185.805C44.4883 184.223 45.6484 182.939 47.4531 182.957ZM45.5195 185.793C45.5137 186.842 46.3105 187.68 47.418 187.68C48.5254 187.68 49.3867 186.766 49.3867 185.77C49.3867 184.797 48.5723 183.883 47.4531 183.883C46.3457 183.883 45.5078 184.744 45.5195 185.793ZM52.1289 191.559V183.074H57.2383V184.012H53.1836V186.848H56.8516V187.773H53.1836V191.559H52.1289ZM58.1172 191.559H57.0156L60.1211 183.074H61.2344L64.3398 191.559H63.2266L62.377 189.168H58.9668L58.1172 191.559ZM59.2891 188.242H62.0547L60.707 184.445H60.6367L59.2891 188.242Z" fill="black" fill-opacity="0.56"/>
<rect x="105.556" y="108.559" width="99.4306" height="100" rx="10" fill="#F1F3F5"/>
<path d="M122.279 171.559L122.267 170.175L125.567 167.141C126.424 166.322 126.888 165.814 126.888 165.084C126.888 164.265 126.272 163.757 125.428 163.764C124.564 163.757 124 164.303 124.006 165.186H122.19C122.184 163.389 123.517 162.24 125.453 162.24C127.421 162.24 128.729 163.364 128.729 164.957C128.729 166.004 128.221 166.861 126.329 168.575L124.933 169.934V169.984H128.855V171.559H122.279ZM133.781 171.686C131.477 171.686 130.087 169.972 130.087 166.963C130.087 163.96 131.49 162.24 133.781 162.24C136.073 162.24 137.476 163.96 137.476 166.963C137.476 169.984 136.079 171.686 133.781 171.686ZM132.042 166.963C132.029 169.083 132.715 170.111 133.781 170.111C134.848 170.111 135.527 169.083 135.521 166.963C135.527 164.862 134.841 163.808 133.781 163.802C132.721 163.808 132.042 164.862 132.042 166.963Z" fill="black"/>
<path d="M125.517 191.559L125.903 189.215H123.771L123.384 191.559H122.528L122.915 189.215H121.661L121.802 188.371H123.05L123.401 186.262H122.165L122.294 185.418H123.536L123.923 183.074H124.778L124.392 185.418H126.524L126.911 183.074H127.767L127.38 185.418H128.646L128.505 186.262H127.245L126.894 188.371H128.142L128.001 189.215H126.759L126.372 191.559H125.517ZM123.905 188.371H126.038L126.39 186.262H124.257L123.905 188.371ZM129.688 191.559V183.074H134.798V184.012H130.743V186.848H134.411V187.773H130.743V191.559H129.688ZM139.228 183.074V191.559H138.161V184.176H138.114L136.052 185.547V184.48L138.161 183.074H139.228ZM141.63 191.559V183.074H146.739V184.012H142.685V186.848H146.353V187.773H142.685V191.559H141.63ZM151.099 191.676C149.411 191.676 148.198 190.773 148.146 189.426H149.212C149.271 190.234 150.073 190.738 151.087 190.738C152.206 190.738 153.015 190.135 153.021 189.25C153.015 188.324 152.276 187.674 150.958 187.668H150.267V186.742H150.958C151.989 186.742 152.71 186.162 152.704 185.289C152.71 184.439 152.089 183.877 151.122 183.871C150.214 183.877 149.388 184.375 149.341 185.207H148.321C148.374 183.859 149.628 182.957 151.134 182.957C152.751 182.957 153.735 184.018 153.724 185.23C153.735 186.197 153.173 186.9 152.282 187.152V187.211C153.39 187.381 154.058 188.172 154.052 189.25C154.058 190.645 152.792 191.676 151.099 191.676ZM155.716 191.559V183.074H160.825V184.012H156.771V186.848H160.438V187.773H156.771V191.559H155.716ZM165.021 191.676C163.491 191.676 162.331 190.732 162.267 189.426H163.286C163.362 190.182 164.101 190.744 165.021 190.75C166.122 190.744 166.919 189.941 166.919 188.875C166.919 187.773 166.093 186.959 164.95 186.953C164.235 186.941 163.679 187.164 163.368 187.715H162.349L162.946 183.074H167.54V184.012H163.825L163.509 186.496H163.591C163.972 186.203 164.54 186.004 165.138 186.004C166.755 186.004 167.944 187.199 167.95 188.852C167.944 190.492 166.714 191.676 165.021 191.676Z" fill="black" fill-opacity="0.56"/>
<rect x="210.986" y="108.559" width="101.859" height="100" rx="10" fill="#E9ECEF"/>
<path d="M233.455 127.781C233.18 126.879 232.482 126.328 231.451 126.328C230.086 126.328 229.09 127.395 229.096 129.305C229.09 131.232 230.068 132.305 231.486 132.305C232.77 132.305 233.584 131.531 233.607 130.324H231.639V129.117H235.084V130.137C235.084 132.322 233.584 133.676 231.486 133.676C229.143 133.676 227.555 132.006 227.561 129.316C227.555 126.592 229.219 124.957 231.439 124.957C233.309 124.957 234.756 126.117 235.014 127.781H233.455ZM236.396 133.559V127.195H237.85V128.25H237.92C238.148 127.518 238.758 127.102 239.49 127.102C239.654 127.102 239.889 127.119 240.029 127.137V128.52C239.895 128.473 239.584 128.432 239.338 128.426C238.506 128.432 237.896 129.006 237.896 129.809V133.559H236.396ZM240.51 131.766C240.51 130.336 241.699 129.92 242.877 129.844C243.322 129.809 244.23 129.768 244.512 129.756L244.506 129.246C244.506 128.613 244.102 128.25 243.357 128.25C242.689 128.25 242.279 128.555 242.162 129.012H240.721C240.826 127.928 241.799 127.113 243.393 127.113C244.6 127.113 245.994 127.611 245.994 129.305V133.559H244.564V132.68H244.518C244.236 133.219 243.645 133.688 242.643 133.688C241.43 133.688 240.51 133.025 240.51 131.766ZM241.951 131.754C241.951 132.305 242.402 132.586 243.029 132.586C243.938 132.586 244.518 131.988 244.518 131.273L244.512 130.752C244.242 130.764 243.41 130.816 243.111 130.84C242.402 130.898 241.951 131.197 241.951 131.754ZM248.068 135.949C247.77 135.943 247.488 135.938 247.295 135.914V134.719C247.477 134.736 247.729 134.736 247.928 134.742C248.291 134.736 248.596 134.713 248.854 134.027L248.982 133.688L246.662 127.195H248.244L249.721 132H249.791L251.268 127.195H252.85L250.295 134.332C249.932 135.346 249.264 135.943 248.068 135.949Z" fill="black" fill-opacity="0.32"/>
<path d="M231.671 162.367V171.559H229.754V164.183H229.703L227.596 165.503V163.814L229.868 162.367H231.671ZM237.371 171.686C235.067 171.686 233.677 169.972 233.677 166.963C233.677 163.96 235.08 162.24 237.371 162.24C239.663 162.24 241.065 163.96 241.065 166.963C241.065 169.984 239.669 171.686 237.371 171.686ZM235.632 166.963C235.619 169.083 236.305 170.111 237.371 170.111C238.438 170.111 239.117 169.083 239.11 166.963C239.117 164.862 238.431 163.808 237.371 163.802C236.311 163.808 235.632 164.862 235.632 166.963Z" fill="black"/>
<path d="M230.947 191.559L231.334 189.215H229.201L228.814 191.559H227.959L228.346 189.215H227.092L227.232 188.371H228.48L228.832 186.262H227.596L227.725 185.418H228.967L229.354 183.074H230.209L229.822 185.418H231.955L232.342 183.074H233.197L232.811 185.418H234.076L233.936 186.262H232.676L232.324 188.371H233.572L233.432 189.215H232.189L231.803 191.559H230.947ZM229.336 188.371H231.469L231.82 186.262H229.688L229.336 188.371ZM235.119 191.559V183.074H240.264V184.012H236.174V186.848H239.994V187.773H236.174V190.621H240.322V191.559H235.119ZM244.611 182.957C246.07 182.975 247.693 183.854 247.693 186.977C247.693 189.994 246.457 191.676 244.471 191.676C242.977 191.676 241.928 190.762 241.717 189.414H242.76C242.947 190.176 243.527 190.738 244.471 190.738C245.854 190.738 246.697 189.543 246.709 187.48H246.592C246.105 188.184 245.326 188.605 244.424 188.605C242.906 188.605 241.646 187.439 241.646 185.805C241.646 184.223 242.807 182.939 244.611 182.957ZM242.678 185.793C242.672 186.842 243.469 187.68 244.576 187.68C245.684 187.68 246.545 186.766 246.545 185.77C246.545 184.797 245.73 183.883 244.611 183.883C243.504 183.883 242.666 184.744 242.678 185.793ZM249.287 191.559V183.074H254.432V184.012H250.342V186.848H254.162V187.773H250.342V190.621H254.49V191.559H249.287ZM261.885 185.746C261.639 184.574 260.637 183.941 259.518 183.941C257.982 183.941 256.793 185.125 256.787 187.316C256.793 189.502 257.982 190.686 259.518 190.691C260.637 190.686 261.633 190.059 261.885 188.898H262.939C262.635 190.633 261.24 191.676 259.518 191.676C257.338 191.676 255.762 190 255.768 187.316C255.762 184.633 257.338 182.957 259.518 182.957C261.234 182.957 262.623 183.982 262.939 185.746H261.885ZM264.416 191.559V183.074H269.561V184.012H265.471V186.848H269.291V187.773H265.471V190.621H269.619V191.559H264.416ZM271.225 191.559V183.074H276.334V184.012H272.279V186.848H275.947V187.773H272.279V191.559H271.225Z" fill="black" fill-opacity="0.56"/>
<rect x="318.846" y="108.559" width="101.859" height="100" rx="10" fill="#DEE2E6"/>
<path d="M335.569 171.559L335.557 170.175L338.857 167.141C339.714 166.322 340.178 165.814 340.178 165.084C340.178 164.265 339.562 163.757 338.718 163.764C337.854 163.757 337.29 164.303 337.296 165.186H335.48C335.474 163.389 336.807 162.24 338.743 162.24C340.711 162.24 342.019 163.364 342.019 164.957C342.019 166.004 341.511 166.861 339.619 168.575L338.223 169.934V169.984H342.146V171.559H335.569ZM347.071 171.686C344.767 171.686 343.377 169.972 343.377 166.963C343.377 163.96 344.78 162.24 347.071 162.24C349.363 162.24 350.766 163.96 350.766 166.963C350.766 169.984 349.369 171.686 347.071 171.686ZM345.332 166.963C345.319 169.083 346.005 170.111 347.071 170.111C348.138 170.111 348.817 169.083 348.811 166.963C348.817 164.862 348.131 163.808 347.071 163.802C346.011 163.808 345.332 164.862 345.332 166.963Z" fill="black"/>
<path d="M338.807 191.559L339.193 189.215H337.061L336.674 191.559H335.818L336.205 189.215H334.951L335.092 188.371H336.34L336.691 186.262H335.455L335.584 185.418H336.826L337.213 183.074H338.068L337.682 185.418H339.814L340.201 183.074H341.057L340.67 185.418H341.936L341.795 186.262H340.535L340.184 188.371H341.432L341.291 189.215H340.049L339.662 191.559H338.807ZM337.195 188.371H339.328L339.68 186.262H337.547L337.195 188.371ZM345.615 191.559H342.979V183.074H345.721C348.199 183.074 349.658 184.662 349.658 187.305C349.658 189.953 348.199 191.559 345.615 191.559ZM344.033 190.621H345.545C347.625 190.621 348.627 189.361 348.627 187.305C348.627 185.254 347.625 184.012 345.65 184.012H344.033V190.621ZM351.205 191.559V183.074H356.35V184.012H352.26V186.848H356.08V187.773H352.26V190.621H356.408V191.559H351.205ZM358.014 191.559V183.074H363.158V184.012H359.068V186.848H362.889V187.773H359.068V190.621H363.217V191.559H358.014ZM364.682 191.559L364.67 190.785L367.564 187.738C368.566 186.672 369.047 186.098 369.053 185.312C369.047 184.439 368.32 183.877 367.365 183.871C366.352 183.877 365.719 184.516 365.713 185.465H364.717C364.705 183.965 365.865 182.957 367.4 182.957C368.941 182.957 370.031 183.994 370.037 185.312C370.031 186.262 369.592 187 368.092 188.547L366.146 190.551V190.621H370.189V191.559H364.682ZM371.865 191.559V183.074H377.01V184.012H372.92V186.848H376.74V187.773H372.92V190.621H377.068V191.559H371.865ZM381.486 191.676C380.016 191.658 378.393 190.785 378.393 187.645C378.393 184.639 379.623 182.957 381.615 182.957C383.109 182.957 384.152 183.877 384.369 185.207H383.326C383.133 184.457 382.559 183.895 381.615 183.895C380.221 183.895 379.383 185.084 379.389 187.129H379.494C379.98 186.42 380.76 186.004 381.674 186.004C383.18 186.004 384.439 187.176 384.439 188.816C384.439 190.416 383.273 191.693 381.486 191.676ZM379.529 188.84C379.535 189.836 380.35 190.744 381.486 190.75C382.582 190.744 383.414 189.883 383.42 188.828C383.414 187.785 382.617 186.936 381.51 186.93C380.396 186.936 379.541 187.838 379.529 188.84Z" fill="black" fill-opacity="0.56"/>
<rect x="426.704" y="108.559" width="101.859" height="100" rx="10" fill="#CED4DA"/>
<path d="M446.83 171.686C444.812 171.686 443.364 170.575 443.326 168.969H445.256C445.288 169.654 445.954 170.105 446.843 170.111C447.757 170.105 448.411 169.597 448.404 168.854C448.411 168.105 447.744 167.579 446.665 167.572H445.814V166.163H446.665C447.573 166.163 448.208 165.668 448.201 164.944C448.208 164.24 447.668 163.757 446.855 163.764C446.043 163.757 445.376 164.214 445.345 164.919H443.517C443.548 163.338 444.97 162.24 446.855 162.24C448.772 162.24 450.048 163.376 450.042 164.83C450.048 165.858 449.331 166.588 448.303 166.772V166.849C449.655 167.014 450.397 167.833 450.385 168.981C450.397 170.556 448.906 171.686 446.83 171.686ZM455.298 171.686C452.994 171.686 451.604 169.972 451.604 166.963C451.604 163.96 453.006 162.24 455.298 162.24C457.589 162.24 458.992 163.96 458.992 166.963C458.992 169.984 457.596 171.686 455.298 171.686ZM453.559 166.963C453.546 169.083 454.231 170.111 455.298 170.111C456.364 170.111 457.043 169.083 457.037 166.963C457.043 164.862 456.358 163.808 455.298 163.802C454.238 163.808 453.559 164.862 453.559 166.963Z" fill="black"/>
<path d="M446.665 191.559L447.052 189.215H444.919L444.532 191.559H443.677L444.063 189.215H442.81L442.95 188.371H444.198L444.55 186.262H443.313L443.442 185.418H444.685L445.071 183.074H445.927L445.54 185.418H447.673L448.06 183.074H448.915L448.528 185.418H449.794L449.653 186.262H448.394L448.042 188.371H449.29L449.149 189.215H447.907L447.521 191.559H446.665ZM445.054 188.371H447.187L447.538 186.262H445.405L445.054 188.371ZM456.626 185.746C456.38 184.574 455.378 183.941 454.259 183.941C452.724 183.941 451.534 185.125 451.528 187.316C451.534 189.502 452.724 190.686 454.259 190.691C455.378 190.686 456.374 190.059 456.626 188.898H457.681C457.376 190.633 455.981 191.676 454.259 191.676C452.079 191.676 450.503 190 450.509 187.316C450.503 184.633 452.079 182.957 454.259 182.957C455.976 182.957 457.364 183.982 457.681 185.746H456.626ZM459.157 191.559V183.074H464.302V184.012H460.212V186.848H464.032V187.773H460.212V190.621H464.36V191.559H459.157ZM468.603 191.559H465.966V183.074H468.708C471.187 183.074 472.646 184.662 472.646 187.305C472.646 189.953 471.187 191.559 468.603 191.559ZM467.021 190.621H468.532C470.612 190.621 471.614 189.361 471.614 187.305C471.614 185.254 470.612 184.012 468.638 184.012H467.021V190.621ZM473.841 189.824V188.957L477.661 183.074H478.962V188.898H480.146V189.824H478.962V191.559H477.954V189.824H473.841ZM474.978 188.898H477.954V184.41H477.849L474.978 188.828V188.898ZM484.317 191.559H481.681V183.074H484.423C486.901 183.074 488.36 184.662 488.36 187.305C488.36 189.953 486.901 191.559 484.317 191.559ZM482.735 190.621H484.247C486.327 190.621 487.329 189.361 487.329 187.305C487.329 185.254 486.327 184.012 484.353 184.012H482.735V190.621ZM489.872 191.559H488.771L491.876 183.074H492.989L496.095 191.559H494.981L494.132 189.168H490.722L489.872 191.559ZM491.044 188.242H493.81L492.462 184.445H492.392L491.044 188.242Z" fill="black" fill-opacity="0.56"/>
<rect x="534.563" y="108.559" width="101.859" height="100" rx="10" fill="#ADB5BD"/>
<path d="M551.135 169.934V168.423L555.02 162.367H557.419V168.397H558.587V169.934H557.419V171.559H555.604V169.934H551.135ZM553.064 168.397H555.629V164.462H555.54L553.064 168.321V168.397ZM563.398 171.686C561.094 171.686 559.704 169.972 559.704 166.963C559.704 163.96 561.107 162.24 563.398 162.24C565.69 162.24 567.093 163.96 567.093 166.963C567.093 169.984 565.696 171.686 563.398 171.686ZM561.659 166.963C561.646 169.083 562.332 170.111 563.398 170.111C564.465 170.111 565.144 169.083 565.138 166.963C565.144 164.862 564.458 163.808 563.398 163.802C562.338 163.808 561.659 164.862 561.659 166.963Z" fill="black"/>
<path d="M554.524 191.559L554.911 189.215H552.778L552.392 191.559H551.536L551.923 189.215H550.669L550.81 188.371H552.058L552.409 186.262H551.173L551.302 185.418H552.544L552.931 183.074H553.786L553.399 185.418H555.532L555.919 183.074H556.774L556.388 185.418H557.653L557.513 186.262H556.253L555.901 188.371H557.149L557.009 189.215H555.767L555.38 191.559H554.524ZM552.913 188.371H555.046L555.397 186.262H553.265L552.913 188.371ZM559.071 191.559H557.97L561.075 183.074H562.188L565.294 191.559H564.181L563.331 189.168H559.921L559.071 191.559ZM560.243 188.242H563.009L561.661 184.445H561.591L560.243 188.242ZM569.079 191.559H566.442V183.074H569.185C571.663 183.074 573.122 184.662 573.122 187.305C573.122 189.953 571.663 191.559 569.079 191.559ZM567.497 190.621H569.009C571.089 190.621 572.091 189.361 572.091 187.305C572.091 185.254 571.089 184.012 569.114 184.012H567.497V190.621ZM574.669 191.559V183.074H577.646C579.427 183.074 580.265 184.076 580.259 185.324C580.265 186.414 579.614 186.9 578.876 187.105V187.188C579.667 187.234 580.593 187.961 580.599 189.309C580.593 190.58 579.755 191.559 577.751 191.559H574.669ZM575.724 190.621H577.739C579.069 190.621 579.585 190.035 579.579 189.297C579.585 188.436 578.888 187.703 577.798 187.703H575.724V190.621ZM575.724 186.789H577.61C578.53 186.795 579.251 186.221 579.251 185.336C579.251 184.598 578.753 184.012 577.646 184.012H575.724V186.789ZM584.724 191.676C583.194 191.676 582.034 190.732 581.97 189.426H582.989C583.065 190.182 583.804 190.744 584.724 190.75C585.825 190.744 586.622 189.941 586.622 188.875C586.622 187.773 585.796 186.959 584.653 186.953C583.938 186.941 583.382 187.164 583.071 187.715H582.052L582.649 183.074H587.243V184.012H583.528L583.212 186.496H583.294C583.675 186.203 584.243 186.004 584.841 186.004C586.458 186.004 587.647 187.199 587.653 188.852C587.647 190.492 586.417 191.676 584.724 191.676ZM589.259 191.559V183.074H592.235C594.017 183.074 594.854 184.076 594.849 185.324C594.854 186.414 594.204 186.9 593.466 187.105V187.188C594.257 187.234 595.183 187.961 595.188 189.309C595.183 190.58 594.345 191.559 592.341 191.559H589.259ZM590.313 190.621H592.329C593.659 190.621 594.175 190.035 594.169 189.297C594.175 188.436 593.478 187.703 592.388 187.703H590.313V190.621ZM590.313 186.789H592.2C593.12 186.795 593.841 186.221 593.841 185.336C593.841 184.598 593.343 184.012 592.235 184.012H590.313V186.789ZM599.325 191.559H596.688V183.074H599.431C601.909 183.074 603.368 184.662 603.368 187.305C603.368 189.953 601.909 191.559 599.325 191.559ZM597.743 190.621H599.255C601.335 190.621 602.337 189.361 602.337 187.305C602.337 185.254 601.335 184.012 599.36 184.012H597.743V190.621Z" fill="black" fill-opacity="0.56"/>
<rect x="642.423" y="108.559" width="101.859" height="100" rx="10" fill="#868E96"/>
<path d="M662.523 171.686C660.606 171.686 659.204 170.556 659.172 168.969H661.025C661.07 169.686 661.724 170.181 662.523 170.175C663.476 170.181 664.155 169.508 664.148 168.55C664.155 167.572 663.463 166.893 662.498 166.887C661.806 166.887 661.324 167.147 661.051 167.661H659.324L659.819 162.367H665.481V163.929H661.394L661.14 166.252H661.216C661.552 165.801 662.25 165.471 663.057 165.478C664.745 165.471 666.002 166.734 666.002 168.499C666.002 170.359 664.593 171.686 662.523 171.686ZM670.864 171.686C668.56 171.686 667.17 169.972 667.17 166.963C667.17 163.96 668.573 162.24 670.864 162.24C673.156 162.24 674.559 163.96 674.559 166.963C674.559 169.984 673.162 171.686 670.864 171.686ZM669.125 166.963C669.112 169.083 669.798 170.111 670.864 170.111C671.931 170.111 672.61 169.083 672.604 166.963C672.61 164.862 671.924 163.808 670.864 163.802C669.804 163.808 669.125 164.862 669.125 166.963Z" fill="white"/>
<path d="M662.384 191.559L662.771 189.215H660.638L660.251 191.559H659.396L659.782 189.215H658.528L658.669 188.371H659.917L660.269 186.262H659.032L659.161 185.418H660.403L660.79 183.074H661.646L661.259 185.418H663.392L663.778 183.074H664.634L664.247 185.418H665.513L665.372 186.262H664.112L663.761 188.371H665.009L664.868 189.215H663.626L663.239 191.559H662.384ZM660.772 188.371H662.905L663.257 186.262H661.124L660.772 188.371ZM669.251 191.676C667.464 191.676 666.233 190.686 666.239 189.309C666.233 188.213 666.995 187.305 667.962 187.152V187.105C667.118 186.912 666.562 186.133 666.567 185.207C666.562 183.912 667.698 182.957 669.251 182.957C670.798 182.957 671.935 183.912 671.946 185.207C671.935 186.133 671.372 186.912 670.54 187.105V187.152C671.501 187.305 672.263 188.213 672.274 189.309C672.263 190.686 671.021 191.676 669.251 191.676ZM667.294 189.25C667.276 190.141 668.032 190.744 669.251 190.75C670.464 190.744 671.22 190.141 671.22 189.25C671.22 188.312 670.394 187.621 669.251 187.621C668.114 187.621 667.276 188.312 667.294 189.25ZM667.587 185.289C667.593 186.145 668.278 186.725 669.251 186.73C670.218 186.725 670.915 186.145 670.915 185.289C670.915 184.439 670.241 183.865 669.251 183.871C668.243 183.865 667.593 184.439 667.587 185.289ZM676.646 191.676C675.175 191.658 673.552 190.785 673.552 187.645C673.552 184.639 674.782 182.957 676.774 182.957C678.269 182.957 679.312 183.877 679.528 185.207H678.485C678.292 184.457 677.718 183.895 676.774 183.895C675.38 183.895 674.542 185.084 674.548 187.129H674.653C675.14 186.42 675.919 186.004 676.833 186.004C678.339 186.004 679.599 187.176 679.599 188.816C679.599 190.416 678.433 191.693 676.646 191.676ZM674.688 188.84C674.694 189.836 675.509 190.744 676.646 190.75C677.741 190.744 678.573 189.883 678.579 188.828C678.573 187.785 677.776 186.936 676.669 186.93C675.556 186.936 674.7 187.838 674.688 188.84ZM683.888 191.676C682.101 191.676 680.87 190.686 680.876 189.309C680.87 188.213 681.632 187.305 682.599 187.152V187.105C681.755 186.912 681.198 186.133 681.204 185.207C681.198 183.912 682.335 182.957 683.888 182.957C685.435 182.957 686.571 183.912 686.583 185.207C686.571 186.133 686.009 186.912 685.177 187.105V187.152C686.138 187.305 686.899 188.213 686.911 189.309C686.899 190.686 685.657 191.676 683.888 191.676ZM681.931 189.25C681.913 190.141 682.669 190.744 683.888 190.75C685.101 190.744 685.856 190.141 685.856 189.25C685.856 188.312 685.03 187.621 683.888 187.621C682.751 187.621 681.913 188.312 681.931 189.25ZM682.224 185.289C682.229 186.145 682.915 186.725 683.888 186.73C684.854 186.725 685.552 186.145 685.552 185.289C685.552 184.439 684.878 183.865 683.888 183.871C682.88 183.865 682.229 184.439 682.224 185.289ZM688.47 191.559V183.074H693.614V184.012H689.524V186.848H693.345V187.773H689.524V190.621H693.673V191.559H688.47ZM697.962 182.957C699.421 182.975 701.044 183.854 701.044 186.977C701.044 189.994 699.808 191.676 697.821 191.676C696.327 191.676 695.278 190.762 695.067 189.414H696.11C696.298 190.176 696.878 190.738 697.821 190.738C699.204 190.738 700.048 189.543 700.06 187.48H699.942C699.456 188.184 698.677 188.605 697.774 188.605C696.257 188.605 694.997 187.439 694.997 185.805C694.997 184.223 696.157 182.939 697.962 182.957ZM696.028 185.793C696.022 186.842 696.819 187.68 697.927 187.68C699.034 187.68 699.896 186.766 699.896 185.77C699.896 184.797 699.081 183.883 697.962 183.883C696.854 183.883 696.017 184.744 696.028 185.793ZM705.45 191.676C703.979 191.658 702.356 190.785 702.356 187.645C702.356 184.639 703.587 182.957 705.579 182.957C707.073 182.957 708.116 183.877 708.333 185.207H707.29C707.097 184.457 706.522 183.895 705.579 183.895C704.185 183.895 703.347 185.084 703.353 187.129H703.458C703.944 186.42 704.724 186.004 705.638 186.004C707.144 186.004 708.403 187.176 708.403 188.816C708.403 190.416 707.237 191.693 705.45 191.676ZM703.493 188.84C703.499 189.836 704.313 190.744 705.45 190.75C706.546 190.744 707.378 189.883 707.384 188.828C707.378 187.785 706.581 186.936 705.474 186.93C704.36 186.936 703.505 187.838 703.493 188.84Z" fill="white" fill-opacity="0.78"/>
<rect x="750.281" y="108.559" width="101.859" height="100" rx="10" fill="#495057"/>
<path d="M770.56 171.686C768.662 171.679 766.846 170.543 766.853 167.179C766.859 164.075 768.338 162.24 770.636 162.24C772.483 162.24 773.752 163.408 773.937 164.919H772.058C771.905 164.278 771.378 163.878 770.636 163.878C769.385 163.878 768.731 165.001 768.719 166.811H768.808C769.233 165.992 770.141 165.516 771.156 165.516C772.813 165.516 774.044 166.753 774.038 168.486C774.044 170.353 772.635 171.692 770.56 171.686ZM768.909 168.537C768.922 169.438 769.607 170.181 770.547 170.175C771.493 170.181 772.185 169.464 772.185 168.537C772.185 167.617 771.505 166.906 770.572 166.899C769.633 166.906 768.922 167.642 768.909 168.537ZM778.926 171.686C776.622 171.686 775.231 169.972 775.231 166.963C775.231 163.96 776.634 162.24 778.926 162.24C781.217 162.24 782.62 163.96 782.62 166.963C782.62 169.984 781.224 171.686 778.926 171.686ZM777.187 166.963C777.174 169.083 777.859 170.111 778.926 170.111C779.992 170.111 780.671 169.083 780.665 166.963C780.671 164.862 779.986 163.808 778.926 163.802C777.866 163.808 777.187 164.862 777.187 166.963Z" fill="white"/>
<path d="M770.242 191.559L770.629 189.215H768.496L768.109 191.559H767.254L767.641 189.215H766.387L766.527 188.371H767.775L768.127 186.262H766.891L767.02 185.418H768.262L768.648 183.074H769.504L769.117 185.418H771.25L771.637 183.074H772.492L772.105 185.418H773.371L773.23 186.262H771.971L771.619 188.371H772.867L772.727 189.215H771.484L771.098 191.559H770.242ZM768.631 188.371H770.764L771.115 186.262H768.982L768.631 188.371ZM774.062 189.824V188.957L777.883 183.074H779.184V188.898H780.367V189.824H779.184V191.559H778.176V189.824H774.062ZM775.199 188.898H778.176V184.41H778.07L775.199 188.828V188.898ZM784.586 182.957C786.045 182.975 787.668 183.854 787.668 186.977C787.668 189.994 786.432 191.676 784.445 191.676C782.951 191.676 781.902 190.762 781.691 189.414H782.734C782.922 190.176 783.502 190.738 784.445 190.738C785.828 190.738 786.672 189.543 786.684 187.48H786.566C786.08 188.184 785.301 188.605 784.398 188.605C782.881 188.605 781.621 187.439 781.621 185.805C781.621 184.223 782.781 182.939 784.586 182.957ZM782.652 185.793C782.646 186.842 783.443 187.68 784.551 187.68C785.658 187.68 786.52 186.766 786.52 185.77C786.52 184.797 785.705 183.883 784.586 183.883C783.479 183.883 782.641 184.744 782.652 185.793ZM791.887 191.676C790.357 191.676 789.197 190.732 789.133 189.426H790.152C790.229 190.182 790.967 190.744 791.887 190.75C792.988 190.744 793.785 189.941 793.785 188.875C793.785 187.773 792.959 186.959 791.816 186.953C791.102 186.941 790.545 187.164 790.234 187.715H789.215L789.812 183.074H794.406V184.012H790.691L790.375 186.496H790.457C790.838 186.203 791.406 186.004 792.004 186.004C793.621 186.004 794.811 187.199 794.816 188.852C794.811 190.492 793.58 191.676 791.887 191.676ZM799.059 191.676C797.178 191.676 796.088 190.094 796.094 187.316C796.088 184.562 797.189 182.957 799.059 182.957C800.922 182.957 802.023 184.562 802.023 187.316C802.023 190.094 800.939 191.676 799.059 191.676ZM797.113 187.316C797.119 189.514 797.828 190.738 799.059 190.738C800.283 190.738 800.998 189.514 800.992 187.316C800.998 185.119 800.277 183.877 799.059 183.871C797.84 183.877 797.119 185.119 797.113 187.316ZM806.195 191.676C804.666 191.676 803.506 190.732 803.441 189.426H804.461C804.537 190.182 805.275 190.744 806.195 190.75C807.297 190.744 808.094 189.941 808.094 188.875C808.094 187.773 807.268 186.959 806.125 186.953C805.41 186.941 804.854 187.164 804.543 187.715H803.523L804.121 183.074H808.715V184.012H805L804.684 186.496H804.766C805.146 186.203 805.715 186.004 806.312 186.004C807.93 186.004 809.119 187.199 809.125 188.852C809.119 190.492 807.889 191.676 806.195 191.676ZM810.859 191.559L814.75 184.07V184.012H810.262V183.074H815.84V184.059L811.961 191.559H810.859Z" fill="white" fill-opacity="0.78"/>
<rect x="858.141" y="108.559" width="101.859" height="100" rx="10" fill="#212529"/>
<path d="M875.22 171.559L879.092 163.992V163.929H874.585V162.367H881.072V163.954L877.2 171.559H875.22ZM885.706 171.686C883.402 171.686 882.012 169.972 882.012 166.963C882.012 163.96 883.415 162.24 885.706 162.24C887.998 162.24 889.4 163.96 889.4 166.963C889.4 169.984 888.004 171.686 885.706 171.686ZM883.967 166.963C883.954 169.083 884.64 170.111 885.706 170.111C886.772 170.111 887.452 169.083 887.445 166.963C887.452 164.862 886.766 163.808 885.706 163.802C884.646 163.808 883.967 164.862 883.967 166.963Z" fill="white"/>
<path d="M878.102 191.559L878.488 189.215H876.355L875.969 191.559H875.113L875.5 189.215H874.246L874.387 188.371H875.635L875.986 186.262H874.75L874.879 185.418H876.121L876.508 183.074H877.363L876.977 185.418H879.109L879.496 183.074H880.352L879.965 185.418H881.23L881.09 186.262H879.83L879.479 188.371H880.727L880.586 189.215H879.344L878.957 191.559H878.102ZM876.49 188.371H878.623L878.975 186.262H876.842L876.49 188.371ZM882.133 191.559L882.121 190.785L885.016 187.738C886.018 186.672 886.498 186.098 886.504 185.312C886.498 184.439 885.771 183.877 884.816 183.871C883.803 183.877 883.17 184.516 883.164 185.465H882.168C882.156 183.965 883.316 182.957 884.852 182.957C886.393 182.957 887.482 183.994 887.488 185.312C887.482 186.262 887.043 187 885.543 188.547L883.598 190.551V190.621H887.641V191.559H882.133ZM892.176 183.074V191.559H891.109V184.176H891.062L889 185.547V184.48L891.109 183.074H892.176ZM894.438 191.559L894.426 190.785L897.32 187.738C898.322 186.672 898.803 186.098 898.809 185.312C898.803 184.439 898.076 183.877 897.121 183.871C896.107 183.877 895.475 184.516 895.469 185.465H894.473C894.461 183.965 895.621 182.957 897.156 182.957C898.697 182.957 899.787 183.994 899.793 185.312C899.787 186.262 899.348 187 897.848 188.547L895.902 190.551V190.621H899.945V191.559H894.438ZM904.246 191.676C902.717 191.676 901.557 190.732 901.492 189.426H902.512C902.588 190.182 903.326 190.744 904.246 190.75C905.348 190.744 906.145 189.941 906.145 188.875C906.145 187.773 905.318 186.959 904.176 186.953C903.461 186.941 902.904 187.164 902.594 187.715H901.574L902.172 183.074H906.766V184.012H903.051L902.734 186.496H902.816C903.197 186.203 903.766 186.004 904.363 186.004C905.98 186.004 907.17 187.199 907.176 188.852C907.17 190.492 905.939 191.676 904.246 191.676ZM908.641 191.559L908.629 190.785L911.523 187.738C912.525 186.672 913.006 186.098 913.012 185.312C913.006 184.439 912.279 183.877 911.324 183.871C910.311 183.877 909.678 184.516 909.672 185.465H908.676C908.664 183.965 909.824 182.957 911.359 182.957C912.9 182.957 913.99 183.994 913.996 185.312C913.99 186.262 913.551 187 912.051 188.547L910.105 190.551V190.621H914.148V191.559H908.641ZM918.508 182.957C919.967 182.975 921.59 183.854 921.59 186.977C921.59 189.994 920.354 191.676 918.367 191.676C916.873 191.676 915.824 190.762 915.613 189.414H916.656C916.844 190.176 917.424 190.738 918.367 190.738C919.75 190.738 920.594 189.543 920.605 187.48H920.488C920.002 188.184 919.223 188.605 918.32 188.605C916.803 188.605 915.543 187.439 915.543 185.805C915.543 184.223 916.703 182.939 918.508 182.957ZM916.574 185.793C916.568 186.842 917.365 187.68 918.473 187.68C919.58 187.68 920.441 186.766 920.441 185.77C920.441 184.797 919.627 183.883 918.508 183.883C917.4 183.883 916.562 184.744 916.574 185.793Z" fill="white" fill-opacity="0.78"/>
</svg>
