<svg width="960" height="101" viewBox="0 0 960 101" fill="none" xmlns="http://www.w3.org/2000/svg">
<path d="M5.504 59V11.384H17.152L28.992 34.168L33.664 44.728H33.984C33.344 39.672 32.448 32.824 32.448 27.128V11.384H43.328V59H31.68L19.904 36.024L15.232 25.592H14.912C15.424 30.904 16.384 37.432 16.384 43.192V59H5.504ZM69.291 59.896C60.011 59.896 51.435 52.856 51.435 40.824C51.435 28.728 60.011 21.688 69.291 21.688C78.507 21.688 87.083 28.728 87.083 40.824C87.083 52.856 78.507 59.896 69.291 59.896ZM69.291 50.68C73.515 50.68 75.435 46.84 75.435 40.824C75.435 34.744 73.515 30.904 69.291 30.904C65.003 30.904 63.083 34.744 63.083 40.824C63.083 46.84 65.003 50.68 69.291 50.68ZM106.507 59.896C97.3545 59.896 93.6425 54.136 93.6425 45.496V31.48H88.7145V23.032L94.2825 22.584L95.5625 12.984H105.035V22.584H113.611V31.48H105.035V45.368C105.035 49.4 106.955 51 109.643 51C110.795 51 112.075 50.616 112.971 50.36L114.763 58.552C112.843 59.128 110.219 59.896 106.507 59.896ZM135.041 59.896C125.761 59.896 117.185 52.856 117.185 40.824C117.185 28.728 125.761 21.688 135.041 21.688C144.257 21.688 152.833 28.728 152.833 40.824C152.833 52.856 144.257 59.896 135.041 59.896ZM135.041 50.68C139.265 50.68 141.185 46.84 141.185 40.824C141.185 34.744 139.265 30.904 135.041 30.904C130.753 30.904 128.833 34.744 128.833 40.824C128.833 46.84 130.753 50.68 135.041 50.68ZM190.288 59.896C184.08 59.896 177.424 57.592 172.496 53.048L178.96 45.176C182.352 48.056 186.768 50.04 190.544 50.04C194.768 50.04 196.752 48.44 196.752 45.88C196.752 43.128 194.128 42.232 190.032 40.504L183.952 37.944C178.96 35.96 174.288 31.8 174.288 24.888C174.288 16.888 181.456 10.488 191.568 10.488C197.072 10.488 202.896 12.6 207.056 16.76L201.36 23.928C198.224 21.56 195.28 20.28 191.568 20.28C188.048 20.28 185.872 21.688 185.872 24.248C185.872 26.872 188.88 27.896 193.104 29.56L199.056 31.928C204.944 34.296 208.464 38.264 208.464 44.984C208.464 52.92 201.808 59.896 190.288 59.896ZM224.699 59.896C217.979 59.896 213.883 54.904 213.883 48.824C213.883 41.144 219.899 36.984 234.107 35.448C233.851 32.504 232.315 30.776 228.603 30.776C225.723 30.776 222.715 31.928 219.067 33.976L215.099 26.488C219.899 23.608 225.083 21.688 230.779 21.688C240.187 21.688 245.499 26.936 245.499 38.328V59H236.219L235.387 55.352H235.131C232.123 58.04 228.731 59.896 224.699 59.896ZM228.603 51.064C230.907 51.064 232.443 49.976 234.107 48.184V42.36C227.003 43.32 224.699 45.368 224.699 47.928C224.699 50.04 226.235 51.064 228.603 51.064ZM254.296 59V22.584H263.576L264.344 27.128H264.6C267.608 24.184 271.32 21.688 276.248 21.688C284.184 21.688 287.576 27.384 287.576 36.472V59H276.184V37.88C276.184 32.888 274.84 31.416 271.96 31.416C269.4 31.416 267.864 32.568 265.624 34.68V59H254.296ZM307.301 59.896C302.565 59.896 296.933 57.848 293.285 54.776L298.341 47.672C301.669 50.232 304.677 51.512 307.557 51.512C310.565 51.512 311.845 50.424 311.845 48.632C311.845 46.456 308.325 45.432 304.613 43.96C300.26 42.232 295.141 39.288 295.141 33.272C295.141 26.36 300.773 21.688 309.221 21.688C314.981 21.688 319.077 23.992 322.277 26.36L317.157 33.144C314.597 31.352 312.037 30.072 309.605 30.072C307.045 30.072 305.765 30.968 305.765 32.696C305.765 34.872 309.093 35.704 312.869 37.048C317.413 38.776 322.469 41.4 322.469 47.992C322.469 54.712 317.221 59.896 307.301 59.896ZM344.567 59V11.384H356.023V30.2H356.215L369.719 11.384H382.263L367.863 30.456L384.951 59H372.407L361.207 39.48L356.023 46.52V59H344.567ZM401.335 20.408V33.208H406.455C411.895 33.208 414.775 30.84 414.775 26.36C414.775 21.88 411.895 20.408 406.455 20.408H401.335ZM428.407 59H415.607L406.839 42.232H401.335V59H389.879V11.384H407.351C417.527 11.384 425.975 14.84 425.975 26.36C425.975 33.336 422.711 37.816 417.783 40.12L428.407 59Z" fill="#212529"/>
<path d="M10.264 97.196C9.564 97.196 8.836 96.846 8.206 96.146H8.15L7.954 97H6.008V85.814H8.486V88.502L8.43 89.692C9.018 89.16 9.76 88.838 10.488 88.838C12.392 88.838 13.61 90.434 13.61 92.87C13.61 95.628 11.972 97.196 10.264 97.196ZM9.676 95.152C10.432 95.152 11.048 94.522 11.048 92.926C11.048 91.526 10.642 90.868 9.76 90.868C9.298 90.868 8.92 91.078 8.486 91.54V94.69C8.878 95.04 9.298 95.152 9.676 95.152ZM17.4908 97.196C15.7828 97.196 15.2228 96.076 15.2228 94.41V85.814H17.7008V94.508C17.7008 95.026 17.9528 95.18 18.1488 95.18C18.2328 95.18 18.2888 95.18 18.4288 95.152L18.7228 96.986C18.4568 97.098 18.0368 97.196 17.4908 97.196ZM21.8873 97.196C20.4173 97.196 19.5213 96.104 19.5213 94.774C19.5213 93.094 20.8373 92.184 23.9453 91.848C23.8893 91.204 23.5533 90.826 22.7413 90.826C22.1113 90.826 21.4533 91.078 20.6553 91.526L19.7873 89.888C20.8373 89.258 21.9713 88.838 23.2173 88.838C25.2753 88.838 26.4373 89.986 26.4373 92.478V97H24.4073L24.2253 96.202H24.1693C23.5113 96.79 22.7693 97.196 21.8873 97.196ZM22.7413 95.264C23.2453 95.264 23.5813 95.026 23.9453 94.634V93.36C22.3913 93.57 21.8873 94.018 21.8873 94.578C21.8873 95.04 22.2233 95.264 22.7413 95.264ZM31.8755 97.196C29.6355 97.196 27.9135 95.656 27.9135 93.024C27.9135 90.378 29.8735 88.838 32.0995 88.838C33.0655 88.838 33.8215 89.174 34.4235 89.692L33.2615 91.288C32.8975 90.98 32.5895 90.854 32.2395 90.854C31.1475 90.854 30.4615 91.694 30.4615 93.024C30.4615 94.34 31.1755 95.18 32.1555 95.18C32.6595 95.18 33.1355 94.942 33.5415 94.62L34.4935 96.258C33.7235 96.944 32.7155 97.196 31.8755 97.196ZM35.881 97V85.814H38.303V92.058H38.359L40.781 89.034H43.483L40.669 92.324L43.679 97H40.977L39.255 93.976L38.303 95.054V97H35.881Z" fill="#495057"/>
<path d="M73.04 97.196C72.34 97.196 71.584 96.832 70.94 96.174H70.898L70.716 97H69.106V85.828H71.15V88.642L71.108 89.902C71.724 89.342 72.508 88.964 73.278 88.964C75.21 88.964 76.372 90.546 76.372 92.94C76.372 95.642 74.762 97.196 73.04 97.196ZM72.578 95.502C73.53 95.502 74.258 94.69 74.258 92.982C74.258 91.484 73.782 90.658 72.704 90.658C72.172 90.658 71.696 90.924 71.15 91.47V94.914C71.64 95.348 72.158 95.502 72.578 95.502ZM81.3918 97.196C79.4318 97.196 77.6258 95.684 77.6258 93.094C77.6258 90.476 79.4318 88.964 81.3918 88.964C83.3518 88.964 85.1578 90.476 85.1578 93.094C85.1578 95.684 83.3518 97.196 81.3918 97.196ZM81.3918 95.516C82.4558 95.516 83.0578 94.564 83.0578 93.094C83.0578 91.61 82.4558 90.644 81.3918 90.644C80.3278 90.644 79.7258 91.61 79.7258 93.094C79.7258 94.564 80.3278 95.516 81.3918 95.516ZM88.8114 97.196C87.3834 97.196 86.8794 96.258 86.8794 94.802V85.828H88.9234V94.9C88.9234 95.362 89.1474 95.516 89.3434 95.516C89.4274 95.516 89.4834 95.516 89.6234 95.488L89.8754 97.014C89.6374 97.112 89.2874 97.196 88.8114 97.196ZM94.0535 97.196C92.1075 97.196 90.8475 95.656 90.8475 93.094C90.8475 90.532 92.4435 88.964 94.1375 88.964C95.0195 88.964 95.5655 89.3 96.1255 89.818L96.0415 88.586V85.828H98.0995V97H96.4335L96.2655 96.188H96.2235C95.6495 96.748 94.8655 97.196 94.0535 97.196ZM94.5855 95.502C95.1315 95.502 95.5935 95.278 96.0415 94.69V91.246C95.5655 90.812 95.0755 90.658 94.5855 90.658C93.7035 90.658 92.9615 91.498 92.9615 93.066C92.9615 94.69 93.5495 95.502 94.5855 95.502Z" fill="#495057"/>
<path d="M125.218 97V89.3H126.534L126.66 90.378H126.702C127.36 89.678 128.13 89.104 129.082 89.104C130.23 89.104 130.874 89.636 131.21 90.518C131.966 89.706 132.75 89.104 133.716 89.104C135.326 89.104 136.082 90.196 136.082 92.156V97H134.472V92.352C134.472 91.022 134.052 90.49 133.184 90.49C132.652 90.49 132.092 90.84 131.448 91.54V97H129.838V92.352C129.838 91.022 129.432 90.49 128.55 90.49C128.032 90.49 127.458 90.84 126.814 91.54V97H125.218ZM141.617 97.182C139.531 97.182 137.865 95.698 137.865 93.164C137.865 90.658 139.573 89.104 141.379 89.104C143.423 89.104 144.515 90.574 144.515 92.758C144.515 93.066 144.487 93.388 144.445 93.57H139.447C139.573 95.04 140.497 95.922 141.827 95.922C142.513 95.922 143.101 95.712 143.661 95.348L144.221 96.37C143.507 96.846 142.625 97.182 141.617 97.182ZM139.433 92.464H143.129C143.129 91.134 142.527 90.364 141.407 90.364C140.441 90.364 139.587 91.106 139.433 92.464ZM148.987 97.182C147.055 97.182 145.809 95.712 145.809 93.164C145.809 90.658 147.391 89.104 149.113 89.104C149.995 89.104 150.555 89.44 151.185 89.972L151.115 88.698V85.842H152.725V97H151.409L151.269 96.132H151.227C150.653 96.72 149.855 97.182 148.987 97.182ZM149.365 95.852C150.009 95.852 150.555 95.558 151.115 94.914V91.148C150.541 90.63 149.995 90.448 149.421 90.448C148.343 90.448 147.475 91.47 147.475 93.136C147.475 94.886 148.161 95.852 149.365 95.852ZM155.146 97V89.3H156.742V97H155.146ZM155.944 87.858C155.356 87.858 154.922 87.466 154.922 86.906C154.922 86.332 155.356 85.954 155.944 85.954C156.532 85.954 156.98 86.332 156.98 86.906C156.98 87.466 156.532 87.858 155.944 87.858ZM161.419 97.182C159.781 97.182 159.067 96.104 159.067 94.144V89.3H160.677V93.948C160.677 95.278 161.055 95.796 161.965 95.796C162.679 95.796 163.169 95.46 163.813 94.648V89.3H165.423V97H164.107L163.981 95.838H163.939C163.239 96.65 162.483 97.182 161.419 97.182ZM167.847 97V89.3H169.163L169.289 90.378H169.331C169.989 89.678 170.759 89.104 171.711 89.104C172.859 89.104 173.503 89.636 173.839 90.518C174.595 89.706 175.379 89.104 176.345 89.104C177.955 89.104 178.711 90.196 178.711 92.156V97H177.101V92.352C177.101 91.022 176.681 90.49 175.813 90.49C175.281 90.49 174.721 90.84 174.077 91.54V97H172.467V92.352C172.467 91.022 172.061 90.49 171.179 90.49C170.661 90.49 170.087 90.84 169.443 91.54V97H167.847Z" fill="#495057"/>
<path d="M206.702 87.788V91.596H208.424C210.034 91.596 210.916 90.952 210.916 89.622C210.916 88.264 210.034 87.788 208.424 87.788H206.702ZM212.512 97H211.042L208.55 92.646H206.702V97H205.4V86.738H208.62C210.706 86.738 212.204 87.48 212.204 89.622C212.204 91.218 211.28 92.17 209.88 92.506L212.512 97ZM217.09 97.182C215.074 97.182 213.45 95.712 213.45 93.206C213.45 90.742 215.116 89.202 216.88 89.202C218.812 89.202 219.904 90.602 219.904 92.772C219.904 93.052 219.876 93.318 219.848 93.5H214.724C214.808 95.124 215.802 96.16 217.244 96.16C217.986 96.16 218.588 95.936 219.148 95.558L219.61 96.398C218.938 96.832 218.126 97.182 217.09 97.182ZM214.71 92.59H218.784C218.784 91.05 218.084 90.224 216.894 90.224C215.816 90.224 214.864 91.092 214.71 92.59ZM224.188 100.5C222.326 100.5 221.038 99.772 221.038 98.456C221.038 97.812 221.458 97.196 222.172 96.734V96.678C221.766 96.44 221.472 96.034 221.472 95.432C221.472 94.802 221.934 94.298 222.326 94.018V93.962C221.822 93.556 221.332 92.828 221.332 91.918C221.332 90.252 222.648 89.202 224.188 89.202C224.608 89.202 224.986 89.3 225.252 89.398H227.898V90.378H226.344C226.708 90.728 226.96 91.288 226.96 91.946C226.96 93.57 225.728 94.592 224.188 94.592C223.81 94.592 223.39 94.494 223.054 94.326C222.774 94.564 222.564 94.816 222.564 95.236C222.564 95.726 222.872 96.062 223.894 96.062H225.378C227.142 96.062 228.024 96.622 228.024 97.868C228.024 99.282 226.54 100.5 224.188 100.5ZM224.188 93.724C225.056 93.724 225.798 93.024 225.798 91.918C225.798 90.812 225.084 90.14 224.188 90.14C223.292 90.14 222.564 90.798 222.564 91.918C222.564 93.024 223.306 93.724 224.188 93.724ZM224.37 99.632C225.826 99.632 226.792 98.862 226.792 98.064C226.792 97.364 226.246 97.126 225.238 97.126H223.922C223.642 97.126 223.278 97.084 222.942 97C222.396 97.392 222.158 97.84 222.158 98.288C222.158 99.1 222.984 99.632 224.37 99.632ZM231.727 97.182C230.131 97.182 229.417 96.146 229.417 94.214V89.398H230.691V94.06C230.691 95.474 231.111 96.076 232.119 96.076C232.903 96.076 233.449 95.698 234.177 94.788V89.398H235.451V97H234.387L234.289 95.81H234.247C233.533 96.636 232.777 97.182 231.727 97.182ZM239.362 97.182C238.41 97.182 238.018 96.566 238.018 95.488V85.856H239.292V95.572C239.292 95.964 239.46 96.118 239.656 96.118C239.726 96.118 239.782 96.118 239.922 96.09L240.104 97.07C239.922 97.14 239.698 97.182 239.362 97.182ZM243.761 97.182C242.487 97.182 241.535 96.398 241.535 95.026C241.535 93.374 242.977 92.548 246.211 92.184C246.211 91.204 245.889 90.266 244.643 90.266C243.761 90.266 242.963 90.672 242.361 91.078L241.857 90.196C242.557 89.748 243.635 89.202 244.853 89.202C246.701 89.202 247.485 90.448 247.485 92.324V97H246.435L246.323 96.09H246.281C245.553 96.692 244.699 97.182 243.761 97.182ZM244.125 96.16C244.867 96.16 245.469 95.81 246.211 95.152V93.024C243.649 93.332 242.781 93.962 242.781 94.942C242.781 95.81 243.369 96.16 244.125 96.16ZM249.913 97V89.398H250.963L251.075 90.784H251.117C251.649 89.818 252.419 89.202 253.273 89.202C253.609 89.202 253.847 89.244 254.085 89.37L253.847 90.49C253.595 90.392 253.413 90.364 253.105 90.364C252.475 90.364 251.691 90.812 251.187 92.114V97H249.913Z" fill="#495057"/>
<path d="M282.878 97.182C280.974 97.182 279.756 95.754 279.756 93.234C279.756 90.784 281.31 89.244 283.046 89.244C283.942 89.244 284.53 89.58 285.216 90.14L285.16 88.824V85.856H286.294V97H285.356L285.244 96.09H285.216C284.614 96.692 283.802 97.182 282.878 97.182ZM283.116 96.216C283.844 96.216 284.488 95.852 285.16 95.138V91.05C284.474 90.448 283.886 90.21 283.228 90.21C281.94 90.21 280.946 91.456 280.946 93.22C280.946 95.082 281.73 96.216 283.116 96.216ZM291.939 97.182C289.951 97.182 288.355 95.712 288.355 93.234C288.355 90.77 289.993 89.244 291.729 89.244C293.619 89.244 294.711 90.602 294.711 92.786C294.711 93.038 294.697 93.29 294.655 93.472H289.489C289.559 95.152 290.567 96.272 292.079 96.272C292.821 96.272 293.437 96.034 293.997 95.656L294.417 96.412C293.759 96.832 292.989 97.182 291.939 97.182ZM289.475 92.646H293.703C293.703 91.022 292.975 90.168 291.743 90.168C290.623 90.168 289.629 91.078 289.475 92.646ZM296.627 97V89.44H297.551L297.663 90.56H297.705C298.363 89.832 299.175 89.244 300.057 89.244C301.233 89.244 301.849 89.818 302.143 90.714C302.955 89.846 303.753 89.244 304.663 89.244C306.203 89.244 306.959 90.266 306.959 92.198V97H305.811V92.338C305.811 90.882 305.349 90.238 304.341 90.238C303.725 90.238 303.081 90.644 302.353 91.47V97H301.219V92.338C301.219 90.882 300.757 90.238 299.735 90.238C299.147 90.238 298.475 90.644 297.761 91.47V97H296.627ZM309.492 97V89.44H310.626V97H309.492ZM310.066 87.816C309.59 87.816 309.24 87.494 309.24 87.046C309.24 86.556 309.59 86.262 310.066 86.262C310.514 86.262 310.892 86.556 310.892 87.046C310.892 87.494 310.514 87.816 310.066 87.816ZM313.35 97V86.752H314.512V96.02H319.034V97H313.35ZM320.758 97V89.44H321.892V97H320.758ZM321.332 87.816C320.856 87.816 320.506 87.494 320.506 87.046C320.506 86.556 320.856 86.262 321.332 86.262C321.78 86.262 322.158 86.556 322.158 87.046C322.158 87.494 321.78 87.816 321.332 87.816ZM327.038 100.514C325.176 100.514 323.916 99.772 323.916 98.47C323.916 97.826 324.336 97.196 325.035 96.734V96.678C324.644 96.44 324.35 96.034 324.35 95.432C324.35 94.802 324.812 94.312 325.19 94.032V93.976C324.7 93.584 324.21 92.842 324.21 91.946C324.21 90.308 325.484 89.244 327.01 89.244C327.43 89.244 327.794 89.342 328.06 89.44H330.678V90.322H329.082C329.46 90.686 329.74 91.274 329.74 91.96C329.74 93.57 328.536 94.606 327.01 94.606C326.632 94.606 326.198 94.508 325.848 94.326C325.568 94.564 325.344 94.844 325.344 95.278C325.344 95.768 325.652 96.132 326.688 96.132H328.2C329.936 96.132 330.804 96.678 330.804 97.924C330.804 99.296 329.334 100.514 327.038 100.514ZM327.01 93.822C327.92 93.822 328.704 93.08 328.704 91.946C328.704 90.798 327.934 90.098 327.01 90.098C326.072 90.098 325.316 90.784 325.316 91.946C325.316 93.08 326.1 93.822 327.01 93.822ZM327.192 99.716C328.704 99.716 329.684 98.904 329.684 98.092C329.684 97.35 329.138 97.098 328.102 97.098H326.716C326.478 97.098 326.1 97.056 325.75 96.972C325.176 97.378 324.924 97.868 324.924 98.33C324.924 99.17 325.764 99.716 327.192 99.716ZM332.31 97V85.856H333.444V88.95L333.402 90.532C334.13 89.832 334.9 89.244 335.936 89.244C337.518 89.244 338.246 90.266 338.246 92.198V97H337.098V92.338C337.098 90.882 336.65 90.238 335.6 90.238C334.802 90.238 334.228 90.658 333.444 91.47V97H332.31ZM343.028 97.182C341.446 97.182 340.942 96.202 340.942 94.718V90.378H339.794V89.51L340.984 89.44L341.11 87.298H342.076V89.44H344.162V90.378H342.076V94.76C342.076 95.684 342.356 96.244 343.266 96.244C343.546 96.244 343.896 96.146 344.148 96.048L344.372 96.902C343.952 97.042 343.448 97.182 343.028 97.182Z" fill="#495057"/>
<path d="M370.484 97V86.794H371.324V96.272H375.972V97H370.484ZM377.714 97V89.538H378.526V97H377.714ZM378.134 87.788C377.756 87.788 377.448 87.522 377.448 87.144C377.448 86.724 377.756 86.472 378.134 86.472C378.498 86.472 378.82 86.724 378.82 87.144C378.82 87.522 378.498 87.788 378.134 87.788ZM383.76 100.556C381.898 100.556 380.68 99.772 380.68 98.512C380.68 97.854 381.114 97.196 381.8 96.734V96.664C381.422 96.44 381.128 96.048 381.128 95.46C381.128 94.816 381.618 94.326 381.954 94.074V94.018C381.478 93.626 381.002 92.884 381.002 91.988C381.002 90.434 382.206 89.342 383.676 89.342C384.082 89.342 384.432 89.44 384.67 89.538H387.218V90.21H385.538C385.986 90.602 386.308 91.246 386.308 92.002C386.308 93.542 385.146 94.634 383.676 94.634C383.27 94.634 382.808 94.522 382.472 94.326C382.15 94.578 381.884 94.886 381.884 95.362C381.884 95.894 382.206 96.3 383.284 96.3H384.852C386.546 96.3 387.344 96.832 387.344 98.022C387.344 99.324 385.944 100.556 383.76 100.556ZM383.676 94.018C384.656 94.018 385.524 93.206 385.524 91.988C385.524 90.756 384.684 90 383.676 90C382.654 90 381.814 90.756 381.814 91.988C381.814 93.206 382.682 94.018 383.676 94.018ZM383.858 99.94C385.482 99.94 386.532 99.03 386.532 98.134C386.532 97.336 385.944 97.042 384.838 97.042H383.312C383.144 97.042 382.752 97 382.374 96.916C381.73 97.364 381.45 97.91 381.45 98.414C381.45 99.324 382.332 99.94 383.858 99.94ZM388.912 97V85.87H389.724V89.062L389.71 90.686C390.466 89.93 391.236 89.342 392.258 89.342C393.812 89.342 394.526 90.308 394.526 92.226V97H393.714V92.338C393.714 90.784 393.224 90.07 392.076 90.07C391.208 90.07 390.592 90.518 389.724 91.414V97H388.912ZM399.256 97.182C397.786 97.182 397.338 96.258 397.338 94.872V90.224H396.176V89.608L397.366 89.538L397.464 87.382H398.15V89.538H400.292V90.224H398.15V94.928C398.15 95.866 398.402 96.482 399.396 96.482C399.676 96.482 400.04 96.384 400.306 96.272L400.502 96.902C400.068 97.056 399.592 97.182 399.256 97.182Z" fill="#495057"/>
<path d="M428.738 97V87.298H425.462V86.836H432.56V87.298H429.284V97H428.738ZM434.495 97V85.884H434.999V90.826C435.783 90.028 436.553 89.44 437.575 89.44C439.087 89.44 439.801 90.35 439.801 92.254V97H439.297V92.324C439.297 90.7 438.779 89.902 437.519 89.902C436.609 89.902 435.937 90.392 434.999 91.358V97H434.495ZM442.548 97V89.622H443.052V97H442.548ZM442.814 87.76C442.52 87.76 442.31 87.55 442.31 87.186C442.31 86.878 442.52 86.654 442.814 86.654C443.094 86.654 443.318 86.878 443.318 87.186C443.318 87.55 443.094 87.76 442.814 87.76ZM445.98 97V89.622H446.4L446.484 90.798H446.512C447.268 90.028 448.038 89.44 449.06 89.44C450.572 89.44 451.286 90.35 451.286 92.254V97H450.782V92.324C450.782 90.7 450.264 89.902 449.004 89.902C448.094 89.902 447.422 90.392 446.484 91.358V97H445.98Z" fill="#495057"/>
<path d="M509.699 15.6387C508.988 15.6387 508.404 15.0547 508.404 14.3311C508.404 13.6201 508.988 13.0361 509.699 13.0361C510.423 13.0361 511.007 13.6201 511.007 14.3311C511.007 15.0547 510.423 15.6387 509.699 15.6387ZM531.954 7.74219V12.2109H533.846V13.0488H531.954V19.0537H530.964V7.74219H531.954ZM523.715 16.2227V8.84668H528.983V9.67188H524.705V15.3848C526.749 15.3784 528.19 15.2896 529.872 14.9785L529.999 15.8418C528.228 16.1592 526.749 16.2227 524.604 16.2227H523.715ZM544.954 9.45605V10.2812H543.278V11.8555H544.954V12.6934H543.278V14.4453H542.288V7.74219H543.278V9.45605H544.954ZM534.671 11.0811C534.665 9.50684 535.921 8.42139 537.629 8.42773C539.349 8.42139 540.587 9.50684 540.6 11.0811C540.587 12.6489 539.349 13.728 537.629 13.7344C535.921 13.728 534.665 12.6489 534.671 11.0811ZM535.648 11.0811C535.642 12.1475 536.486 12.8838 537.629 12.8965C538.784 12.8838 539.616 12.1475 539.622 11.0811C539.616 10.021 538.784 9.26562 537.629 9.27832C536.486 9.26562 535.642 10.021 535.648 11.0811ZM535.915 16.9082C535.921 15.5688 537.356 14.7944 539.66 14.7881C541.964 14.7944 543.38 15.5688 543.38 16.9082C543.38 18.2222 541.964 19.0029 539.66 19.0029C537.356 19.0029 535.921 18.2222 535.915 16.9082ZM536.918 16.9082C536.905 17.7207 537.959 18.1968 539.66 18.2031C541.368 18.1968 542.409 17.7207 542.415 16.9082C542.409 16.0894 541.368 15.6006 539.66 15.6006C537.959 15.6006 536.905 16.0894 536.918 16.9082ZM554.514 7.75488V11.4746H556.215V12.3125H554.514V16.21H553.523V7.75488H554.514ZM545.716 9.95117V9.13867H548.585V7.75488H549.575V9.13867H552.444V9.95117H545.716ZM546.363 12.6807C546.357 11.3984 547.449 10.5732 549.08 10.5732C550.692 10.5732 551.784 11.3984 551.797 12.6807C551.784 13.9502 550.692 14.769 549.08 14.7627C547.449 14.769 546.357 13.9502 546.363 12.6807ZM547.315 12.6807C547.309 13.4741 548.014 13.9883 549.08 13.9756C550.134 13.9883 550.845 13.4741 550.857 12.6807C550.845 11.8745 550.134 11.354 549.08 11.3604C548.014 11.354 547.309 11.8745 547.315 12.6807ZM547.455 18.7871V15.5371H548.433V17.9492H555.034V18.7871H547.455ZM562.156 18L560.062 11.1064H561.217L562.689 16.3623H562.753L564.213 11.1064H565.381L566.815 16.3369H566.892L568.364 11.1064H569.507L567.412 18H566.333L564.835 12.7441H564.733L563.248 18H562.156ZM573.379 18.1396C571.386 18.146 570.154 16.7241 570.154 14.6104C570.154 12.4902 571.405 11.0176 573.277 11.0176C574.725 11.0176 576.254 11.9062 576.248 14.458V14.915H571.246C571.303 16.375 572.154 17.1748 573.379 17.1748C574.204 17.1748 574.725 16.813 574.979 16.3877H576.146C575.823 17.4351 574.801 18.146 573.379 18.1396ZM571.252 13.9883H575.144C575.137 12.8394 574.414 11.9824 573.277 11.9824C572.084 11.9824 571.329 12.9219 571.252 13.9883ZM577.67 18V11.1064H578.762V18H577.67ZM577.454 9.24023C577.448 8.83398 577.797 8.51025 578.216 8.5166C578.635 8.51025 578.984 8.83398 578.99 9.24023C578.984 9.64014 578.635 9.96387 578.216 9.96387C577.797 9.96387 577.448 9.64014 577.454 9.24023ZM583.294 20.7295C581.625 20.7295 580.495 19.9995 580.374 18.7236H581.517C581.663 19.4282 582.316 19.7773 583.294 19.7773C584.475 19.7773 585.198 19.2632 585.198 18.127V16.7305H585.109C584.875 17.1113 584.437 17.8921 583.104 17.8984C581.428 17.8921 580.171 16.6289 580.171 14.458C580.171 12.3379 581.383 11.0176 583.116 11.0176C584.456 11.0176 584.887 11.8301 585.135 12.1982H585.224V11.1064H586.29V18.1904C586.284 19.9678 584.976 20.7295 583.294 20.7295ZM581.275 14.4961C581.275 15.9243 581.948 16.9209 583.256 16.9209C584.519 16.9209 585.217 16.0132 585.224 14.4961C585.217 13.0171 584.538 11.9951 583.256 11.9951C581.929 11.9951 581.275 13.106 581.275 14.4961ZM589.121 13.8613V18H588.029V8.80859H589.121V12.1855H589.21C589.534 11.4746 590.149 11.0176 591.241 11.0176C592.65 11.0176 593.59 11.8491 593.59 13.6201V18H592.498V13.6963C592.498 12.6108 591.901 11.9951 590.911 11.9951C589.883 11.9951 589.121 12.668 589.121 13.8613ZM598.351 11.1064V12.0205H596.903V16.0195C596.897 16.9019 597.341 17.0479 597.805 17.0479C598.001 17.0479 598.293 17.0288 598.452 17.0225V18.0381C598.281 18.0635 598.014 18.0889 597.69 18.0889C596.77 18.0889 595.805 17.5176 595.799 16.2988V12.0205H594.758V11.1064H595.799V9.45605H596.903V11.1064H598.351ZM602.743 8.47852C604.476 8.49121 605.746 9.55762 605.752 11.1318C605.746 12.5474 604.717 13.5503 603.251 13.7407V15.6577C604.305 15.6133 605.365 15.5371 606.349 15.4102L606.412 16.1592C604.019 16.5654 601.353 16.5908 599.366 16.5781L599.201 15.7402C600.109 15.7339 601.156 15.7275 602.248 15.6958V13.7407C600.75 13.563 599.728 12.5537 599.734 11.1318C599.728 9.55762 600.979 8.49121 602.743 8.47852ZM600.712 11.1318C600.699 12.1919 601.556 12.9282 602.743 12.9219C603.911 12.9282 604.762 12.1919 604.774 11.1318C604.762 10.0718 603.911 9.34814 602.743 9.3418C601.556 9.34814 600.699 10.0718 600.712 11.1318ZM607.072 19.0283V7.74219H608.062V12.4014H609.903V13.2646H608.062V19.0283H607.072ZM622.573 7.74219V12.2109H624.465V13.0488H622.573V19.0537H621.583V7.74219H622.573ZM614.334 16.2227V8.84668H619.603V9.67188H615.324V15.3848C617.368 15.3784 618.809 15.2896 620.491 14.9785L620.618 15.8418C618.847 16.1592 617.368 16.2227 615.223 16.2227H614.334ZM634.05 8.30078V9.11328C634.05 9.95117 634.05 10.9668 633.771 12.3252H635.408V13.1377H630.711V15.2197H634.126V19.0283H633.123V16.0449H626.141V15.2197H629.721V13.1377H625.074V12.3252H632.768C633.066 10.9478 633.066 9.95117 633.06 9.11328H626.382V8.30078H634.05ZM639.344 8.61816C640.88 8.62451 641.991 9.94482 642.143 12.0586H644.676V7.74219H645.666V19.0537H644.676V12.8838H642.156C642.048 15.0991 640.918 16.4829 639.344 16.4766C637.674 16.4829 636.506 14.9595 636.513 12.5537C636.506 10.1543 637.674 8.62451 639.344 8.61816ZM637.465 12.5537C637.471 14.3882 638.233 15.5942 639.344 15.5879C640.448 15.5942 641.223 14.3882 641.223 12.5537C641.223 10.7192 640.448 9.51318 639.344 9.50684C638.233 9.51318 637.471 10.7192 637.465 12.5537ZM657.866 12.9854V13.7725H647.532V12.9854H657.866ZM648.776 15.4229V14.6738H656.571V17.0732H649.792V18.1523H656.939V18.876H648.789V16.3877H655.581V15.4229H648.776ZM648.84 8.80859V8.08496H656.533V10.4209H649.868V11.4111H656.736V12.1348H648.878V9.73535H655.53V8.80859H648.84ZM666.08 11.208C666.086 13.125 667.477 15.0737 669.14 15.791L668.581 16.5781C667.261 15.9814 666.125 14.6802 665.598 13.1187C665.071 14.7754 663.928 16.21 662.64 16.8574L662.043 16.0703C663.662 15.2959 665.071 13.1631 665.077 11.208V9.73535H662.411V8.91016H668.771V9.73535H666.08V11.208ZM670.346 19.0283V7.74219H671.349V19.0283H670.346ZM682.584 7.75488V16.3242H681.581V15.1562H679.245V14.4326H681.581V7.75488H682.584ZM673.215 12.9854C675.316 12.9727 678.147 12.9536 680.565 12.6553L680.629 13.3789C679.626 13.5376 678.566 13.6392 677.531 13.7026V15.9307H676.528V13.7534C675.386 13.7979 674.3 13.7979 673.354 13.7979L673.215 12.9854ZM674.129 10.1797C674.123 8.99268 675.252 8.21191 676.922 8.21191C678.579 8.21191 679.708 8.99268 679.715 10.1797C679.708 11.3857 678.579 12.1348 676.922 12.1348C675.252 12.1348 674.123 11.3857 674.129 10.1797ZM674.84 18.7871V15.4863H675.843V17.9492H682.863V18.7871H674.84ZM675.081 10.1797C675.068 10.916 675.817 11.3921 676.922 11.3984C677.995 11.3921 678.756 10.916 678.763 10.1797C678.756 9.45605 677.995 8.96094 676.922 8.97363C675.817 8.96094 675.068 9.45605 675.081 10.1797ZM693.248 7.74219V12.4014H695.14V13.2266H693.248V19.0283H692.258V7.74219H693.248ZM684.45 10.3828V9.55762H687.357V7.88184H688.348V9.55762H691.166V10.3828H684.45ZM685.098 13.9121C685.091 12.3887 686.259 11.3223 687.865 11.3223C689.458 11.3223 690.62 12.3887 690.633 13.9121C690.62 15.4419 689.458 16.502 687.865 16.502C686.259 16.502 685.091 15.4419 685.098 13.9121ZM686.05 13.9121C686.043 14.9404 686.812 15.6641 687.865 15.6514C688.906 15.6641 689.668 14.9404 689.681 13.9121C689.668 12.8901 688.906 12.1538 687.865 12.1602C686.812 12.1538 686.043 12.8901 686.05 13.9121ZM704.801 8.88477V10.0146C704.788 11.3984 704.788 12.9473 704.382 15.2197L703.366 15.1055C703.792 12.9473 703.792 11.3667 703.798 10.0146V9.70996H696.841V8.88477H704.801ZM695.749 17.4287V16.6035H699.786V12.5664H700.764V16.6035H706.032V17.4287H695.749ZM719.604 7.74219V19.0537H718.601V12.6807H716.125V11.8555H718.601V7.74219H719.604ZM710.146 16.0195C711.783 15.2261 713.148 13.0996 713.154 11.0938V9.73535H710.577V8.91016H716.747V9.73535H714.157V11.0938C714.164 12.9727 715.509 15.0166 717.153 15.7656L716.557 16.5654C715.268 15.9307 714.183 14.5659 713.668 12.9917C713.161 14.6675 712.043 16.1211 710.755 16.7939L710.146 16.0195ZM725.304 9.83691C725.31 11.3413 726.415 12.7124 728.084 13.29L727.576 14.0645C726.288 13.6074 725.304 12.687 724.821 11.519C724.339 12.8013 723.304 13.7979 721.978 14.2803L721.444 13.5059C723.133 12.9092 724.313 11.4556 724.326 9.83691V9.35449H721.749V8.54199H727.843V9.35449H725.304V9.83691ZM722.917 15.9561V15.1436H730.306V19.0283H729.315V15.9561H722.917ZM729.315 14.5469V7.74219H730.306V10.7256H732.007V11.5762H730.306V14.5469H729.315ZM742.062 7.75488V16.2861H741.046V14.6992H738.558V13.8867H741.046V7.75488H742.062ZM732.642 12.2236C734.095 12.2173 735.917 12.2046 737.707 12.084C737.929 10.8398 737.967 9.90039 737.974 9.25293H733.657V8.44043H738.964V8.88477C738.97 9.50684 738.97 10.5605 738.729 12.0015C739.167 11.9634 739.599 11.9126 740.018 11.8555L740.094 12.5791C739.04 12.7568 737.936 12.8647 736.856 12.9346V15.5371H735.866V12.9854C734.755 13.0361 733.695 13.0488 732.781 13.0488L732.642 12.2236ZM734.33 18.7871V15.334H735.333V17.9492H742.341V18.7871H734.33ZM757.537 13.5186V14.3438H752.941V16.6543H751.951V14.3438H747.203V13.5186H757.537ZM748.523 18.7871V15.5371H749.526V17.9492H756.382V18.7871H748.523ZM748.549 12.2236V8.30078H756.191V12.2236H748.549ZM749.526 11.4238H755.201V9.08789H749.526V11.4238ZM768.1 7.74219V19.0283H767.147V7.74219H768.1ZM758.312 16.0195C759.886 15.0801 760.806 13.0171 760.8 10.9668V9.90039H758.629V9.0752H763.834V9.90039H761.765V10.9668C761.765 12.9155 762.647 14.8643 764.202 15.7656L763.593 16.502C762.482 15.8354 761.695 14.6167 761.301 13.1821C760.895 14.7373 760.076 16.064 758.946 16.7686L758.312 16.0195ZM762.971 12.6299V11.8174H764.875V8.02148H765.814V18.4443H764.875V12.6299H762.971ZM778.421 7.74219V12.3379H780.249V13.1758H778.421V19.0283H777.431V7.74219H778.421ZM769.763 16.0957C772.676 14.6484 774.263 12.4712 774.492 9.79883H770.283V8.96094H775.501C775.495 12.1538 773.997 15.0674 770.321 16.8828L769.763 16.0957ZM786.432 14.3691V15.7783H788.488V14.3691H789.415V18.876H785.492V14.3691H786.432ZM784.362 10.8398C784.356 9.29736 785.575 8.25 787.295 8.25C788.812 8.25 789.961 9.10693 790.177 10.4082H792.538V7.74219H793.541V13.7217H792.538V11.2334H790.183C789.986 12.5664 788.825 13.4424 787.295 13.4424C785.575 13.4424 784.356 12.3887 784.362 10.8398ZM785.314 10.8398C785.314 11.8745 786.133 12.6108 787.295 12.6172C788.431 12.6108 789.25 11.8745 789.25 10.8398C789.25 9.81152 788.431 9.08789 787.295 9.08789C786.133 9.08789 785.314 9.81152 785.314 10.8398ZM786.432 18.0889H788.488V16.54H786.432V18.0889ZM789.567 18.2031C790.926 17.6382 791.643 16.4004 791.649 15.2578V14.293H792.64V15.2578C792.627 16.4448 793.344 17.6953 794.722 18.2031L794.201 18.9648C793.16 18.5522 792.481 17.7524 792.132 16.8193C791.776 17.7397 791.084 18.5396 790.088 18.9648L789.567 18.2031ZM804.548 11.1699V11.9697H796.816V8.16113H797.807V11.1699H804.548ZM795.407 14.3184V13.5059H805.741V14.3184H795.407ZM796.753 18.749V15.4736H797.743V17.9238H804.611V18.749H796.753ZM818.894 8.2373V8.96094C818.894 9.72266 818.894 10.7002 818.64 11.9697H820.252V12.7695H809.918V11.9697H817.637C817.897 10.7129 817.91 9.79248 817.903 9.0498H811.226V8.2373H818.894ZM811.149 14.7119V13.9121H818.932V16.7559H812.165V18.0889H819.224V18.9014H811.162V15.9688H817.941V14.7119H811.149ZM830.269 8.11035V8.54199C830.269 9.15771 830.269 10.2178 829.951 11.627L828.974 11.5C829.228 10.3574 829.278 9.51318 829.291 8.92285H826.447V8.11035H830.269ZM821.166 13.1504V12.3379H826.016V10.3701H826.993V12.3379H831.437V13.1504H821.166ZM822.055 8.92285V8.11035H825.495V8.5166C825.489 9.11328 825.489 10.2368 824.975 11.6523L824.022 11.5C824.422 10.332 824.505 9.50684 824.518 8.92285H822.055ZM822.461 14.9785V14.1787H830.129V16.8447H823.477V18.0889H830.522V18.9014H822.486V16.083H829.139V14.9785H822.461ZM837.53 7.94531C840.038 7.94531 841.51 8.63721 841.517 9.8877C841.51 11.1699 840.038 11.8618 837.53 11.8682C835.01 11.8618 833.531 11.1699 833.531 9.8877C833.531 8.63721 835.01 7.94531 837.53 7.94531ZM832.389 13.4424V12.6299H842.672V13.4424H832.389ZM833.633 15.1816V14.4199H841.352V16.9463H834.648V18.1143H841.694V18.9014H833.658V16.21H840.374V15.1816H833.633ZM834.572 9.8877C834.56 10.6748 835.658 11.1064 837.53 11.1064C839.403 11.1064 840.495 10.6748 840.501 9.8877C840.495 9.14502 839.403 8.70068 837.53 8.69434C835.658 8.70068 834.56 9.14502 834.572 9.8877ZM850.898 10.7764C850.892 12.8394 852.295 14.9087 853.958 15.6641L853.349 16.4512C852.06 15.8291 850.949 14.4897 850.41 12.8838C849.889 14.585 848.778 16.0132 847.458 16.6797L846.823 15.8418C848.505 15.0737 849.896 12.9155 849.908 10.7764V8.71973H850.898V10.7764ZM855.189 19.0537V7.74219H856.192V19.0537H855.189ZM863.746 9.40527C863.752 11.3413 865.961 13.0615 867.923 13.4297L867.466 14.2676C865.758 13.874 863.968 12.6616 863.238 11.0049C862.502 12.6616 860.718 13.8677 859.011 14.2676L858.554 13.4297C860.509 13.0552 862.699 11.3477 862.705 9.40527V8.54199H863.746V9.40527ZM858.122 17.4922V16.667H868.456V17.4922H858.122ZM874.194 8.47852V9.31641H870.843V10.7129H873.725V11.5H870.843V13.0361C872.48 13.0298 873.49 12.9663 874.702 12.7441L874.804 13.5439C873.496 13.7915 872.43 13.8423 870.602 13.8486H869.891V8.47852H874.194ZM871.49 18.876V15.0674H878.942V18.876H871.49ZM872.468 18.0635H877.965V15.8799H872.468V18.0635ZM874.258 11.4111V10.5859H875.781V7.94531H876.746V14.4453H875.781V11.4111H874.258ZM877.99 14.5469V7.74219H878.942V14.5469H877.99ZM893.161 8.2627V9.08789H891.422V11.6777H893.123V12.4775H889.492V13.8613H894.139V14.6738H883.855V13.8613H888.502V12.4775H884.858V11.6777H886.56V9.08789H884.82V8.2627H893.161ZM885.188 18.7871V15.6641H886.191V17.9492H892.996V18.7871H885.188ZM887.55 11.6777H890.432V9.08789H887.55V11.6777ZM904.231 13.8486V14.6611H896.424V8.71973H904.104V9.55762H897.439V11.2334H903.863V12.0332H897.439V13.8486H904.231ZM895.091 17.5557V16.7305H905.425V17.5557H895.091ZM916.66 16.7939V17.6318H906.326V16.7939H910.973V14.6611H907.621V11.1826H914.375V9.40527H907.596V8.58008H915.353V11.9951H908.611V13.8359H915.619V14.6611H911.95V16.7939H916.66ZM924.861 11.208C924.868 13.125 926.258 15.0737 927.921 15.791L927.362 16.5781C926.042 15.9814 924.906 14.6802 924.379 13.1187C923.852 14.7754 922.709 16.21 921.421 16.8574L920.824 16.0703C922.443 15.2959 923.852 13.1631 923.858 11.208V9.73535H921.192V8.91016H927.553V9.73535H924.861V11.208ZM929.127 19.0283V7.74219H930.13V19.0283H929.127ZM941.416 7.74219V14.4707H940.413V11.5127H938.141V10.6875H940.413V7.74219H941.416ZM932.11 13.5693C933.786 12.9663 934.979 11.4365 934.979 9.82422V9.40527H932.428V8.56738H938.509V9.40527H935.982V9.81152C935.982 11.2842 937.112 12.687 938.763 13.252L938.242 14.0518C936.979 13.5947 935.995 12.6426 935.506 11.481C935.024 12.8013 933.977 13.855 932.631 14.3691L932.11 13.5693ZM933.888 16.9209C933.881 15.5942 935.322 14.8198 937.671 14.8262C940.013 14.8198 941.454 15.5942 941.454 16.9209C941.454 18.2539 940.013 19.0156 937.671 19.0283C935.322 19.0156 933.881 18.2539 933.888 16.9209ZM934.878 16.9209C934.872 17.7397 935.938 18.2349 937.671 18.2285C939.397 18.2349 940.464 17.7397 940.464 16.9209C940.464 16.0957 939.397 15.6006 937.671 15.6006C935.938 15.6006 934.872 16.0957 934.878 16.9209ZM944.488 18.0762C944.044 18.0698 943.663 17.7017 943.676 17.251C943.663 16.8066 944.044 16.4385 944.488 16.4385C944.939 16.4385 945.307 16.8066 945.301 17.251C945.307 17.7017 944.939 18.0698 944.488 18.0762Z" fill="#868E96"/>
<path d="M509.699 51.6387C508.988 51.6387 508.404 51.0547 508.404 50.3311C508.404 49.6201 508.988 49.0361 509.699 49.0361C510.423 49.0361 511.007 49.6201 511.007 50.3311C511.007 51.0547 510.423 51.6387 509.699 51.6387ZM525.53 47.1191C525.435 46.2178 524.597 45.6973 523.499 45.6973C522.28 45.6973 521.487 46.332 521.48 47.208C521.487 48.1729 522.56 48.5347 523.258 48.7061L524.172 48.96C525.156 49.2139 526.774 49.7788 526.774 51.499C526.774 52.9971 525.568 54.1587 523.436 54.165C521.455 54.1587 520.23 53.1367 520.122 51.6133H521.29C521.385 52.6416 522.344 53.1304 523.436 53.124C524.705 53.1304 525.657 52.4766 525.657 51.4736C525.657 50.5786 524.807 50.2358 523.842 49.9629L522.712 49.6582C521.271 49.2393 520.37 48.5029 520.376 47.2588C520.37 45.7036 521.753 44.6816 523.537 44.6816C525.321 44.6816 526.603 45.7227 526.647 47.1191H525.53ZM527.942 52.0449C527.942 50.4644 529.339 50.1025 530.532 50.0137C530.977 49.9819 532.087 49.9185 532.398 49.9121V49.3535C532.398 48.4775 531.878 47.9697 530.837 47.9697C529.967 47.9697 529.44 48.3696 529.288 48.8965H528.146C528.285 47.7856 529.364 47.0176 530.888 47.0176C531.789 47.0176 533.484 47.2842 533.478 49.4551V54H532.398V53.0605H532.348C532.119 53.5239 531.491 54.1587 530.291 54.165C528.983 54.1587 527.942 53.3906 527.942 52.0449ZM529.034 52.0957C529.041 52.8257 529.644 53.1938 530.481 53.1875C531.713 53.1938 532.398 52.3687 532.398 51.499V50.8071C532.075 50.8262 530.989 50.9087 530.659 50.9277C529.669 50.9912 529.041 51.3403 529.034 52.0957ZM536.321 49.8613V54H535.229V47.1064H536.283V48.1855H536.372C536.696 47.481 537.343 47.0176 538.391 47.0176C539.787 47.0176 540.72 47.8682 540.714 49.6201V54H539.622V49.6963C539.622 48.6299 539.038 47.9951 538.061 47.9951C537.058 47.9951 536.321 48.668 536.321 49.8613ZM546.3 48.8965C546.147 48.3252 545.709 47.9507 544.903 47.9443C544.053 47.9507 543.45 48.4077 543.443 48.9854C543.45 49.4424 543.818 49.7534 544.624 49.9502L545.652 50.2041C546.884 50.4961 547.487 51.1118 547.493 52.0703C547.487 53.2637 546.516 54.146 544.789 54.1396C543.24 54.146 542.32 53.4541 542.136 52.1973H543.278C543.405 52.8701 543.894 53.1938 544.764 53.1875C545.748 53.1938 546.363 52.7812 546.363 52.1338C546.363 51.645 546.014 51.3276 545.233 51.1436L544.192 50.9023C542.993 50.623 542.352 49.9692 542.352 49.0488C542.352 47.8682 543.386 47.0176 544.903 47.0176C546.332 47.0176 547.227 47.7793 547.366 48.8965H546.3ZM552.863 49.5693V50.5723H548.839V49.5693H552.863ZM558.373 48.8965C558.221 48.3252 557.783 47.9507 556.977 47.9443C556.126 47.9507 555.523 48.4077 555.517 48.9854C555.523 49.4424 555.891 49.7534 556.697 49.9502L557.726 50.2041C558.957 50.4961 559.56 51.1118 559.566 52.0703C559.56 53.2637 558.589 54.146 556.862 54.1396C555.313 54.146 554.393 53.4541 554.209 52.1973H555.352C555.479 52.8701 555.967 53.1938 556.837 53.1875C557.821 53.1938 558.437 52.7812 558.437 52.1338C558.437 51.645 558.087 51.3276 557.307 51.1436L556.266 50.9023C555.066 50.623 554.425 49.9692 554.425 49.0488C554.425 47.8682 555.459 47.0176 556.977 47.0176C558.405 47.0176 559.3 47.7793 559.439 48.8965H558.373ZM563.883 54.1396C561.89 54.146 560.658 52.7241 560.658 50.6104C560.658 48.4902 561.909 47.0176 563.781 47.0176C565.229 47.0176 566.758 47.9062 566.752 50.458V50.915H561.75C561.807 52.375 562.658 53.1748 563.883 53.1748C564.708 53.1748 565.229 52.813 565.482 52.3877H566.65C566.327 53.4351 565.305 54.146 563.883 54.1396ZM561.756 49.9883H565.647C565.641 48.8394 564.917 47.9824 563.781 47.9824C562.588 47.9824 561.833 48.9219 561.756 49.9883ZM568.174 54V47.1064H569.228V48.1602H569.304C569.551 47.4619 570.269 46.9985 571.081 46.9922C571.246 46.9985 571.525 47.0049 571.652 47.0176V48.1221C571.57 48.103 571.278 48.0459 570.992 48.0459C570.002 48.0459 569.266 48.7314 569.266 49.6582V54H568.174ZM572.719 54V47.1064H573.811V54H572.719ZM572.503 45.2402C572.497 44.834 572.846 44.5103 573.265 44.5166C573.684 44.5103 574.033 44.834 574.039 45.2402C574.033 45.6401 573.684 45.9639 573.265 45.9639C572.846 45.9639 572.497 45.6401 572.503 45.2402ZM578.635 47.1064V48.0205H577.111V54H576.007V48.0205H574.902V47.1064H576.007V46.167C576.013 45.0498 576.756 44.377 577.975 44.377C578.241 44.377 578.559 44.4087 578.787 44.4531V45.4307C578.552 45.3926 578.355 45.3799 578.216 45.3799C577.448 45.3799 577.105 45.6973 577.111 46.4082V47.1064H578.635ZM592.079 44.2627V45.0879H590.34V47.6777H592.041V48.4775H588.41V49.8613H593.057V50.6738H582.773V49.8613H587.42V48.4775H583.776V47.6777H585.478V45.0879H583.738V44.2627H592.079ZM584.106 54.7871V51.6641H585.109V53.9492H591.914V54.7871H584.106ZM586.468 47.6777H589.35V45.0879H586.468V47.6777ZM603.149 49.8486V50.6611H595.342V44.7197H603.022V45.5576H596.357V47.2334H602.781V48.0332H596.357V49.8486H603.149ZM594.009 53.5557V52.7305H604.343V53.5557H594.009ZM612.29 46.7764C612.29 48.7632 613.604 50.8135 615.21 51.6006L614.601 52.4004C613.356 51.7529 612.315 50.4136 611.814 48.8457C611.312 50.5088 610.246 51.937 608.977 52.6162L608.342 51.8164C609.992 51.0039 611.3 48.8394 611.312 46.7764V44.7197H612.29V46.7764ZM616.251 55.0283V43.7422H617.241V48.3252H619.133V49.1885H617.241V55.0283H616.251ZM630.025 49.3281V50.1533H619.742V49.3281H622.294V47.7349C621.393 47.3857 620.885 46.8145 620.885 46.0527C620.885 44.7261 622.408 43.9644 624.884 43.958C627.34 43.9644 628.864 44.7261 628.87 46.0527C628.864 46.8081 628.362 47.3794 627.474 47.7349V49.3281H630.025ZM620.986 53.0098C620.98 51.7212 622.434 51.0103 624.884 51.0166C627.302 51.0103 628.756 51.7212 628.769 53.0098C628.756 54.2983 627.302 55.0029 624.884 55.0029C622.434 55.0029 620.98 54.2983 620.986 53.0098ZM621.913 46.0527C621.907 46.8779 623.037 47.354 624.884 47.3604C626.712 47.354 627.848 46.8779 627.854 46.0527C627.848 45.2402 626.712 44.7451 624.884 44.7451C623.037 44.7451 621.907 45.2402 621.913 46.0527ZM622.002 53.0098C621.989 53.7778 623.075 54.2349 624.884 54.2285C626.674 54.2349 627.759 53.7778 627.766 53.0098C627.759 52.2417 626.674 51.791 624.884 51.7783C623.075 51.791 621.989 52.2417 622.002 53.0098ZM623.284 49.3281H626.483V48.0015C626.007 48.0903 625.474 48.1348 624.884 48.1348C624.293 48.1348 623.76 48.0903 623.284 48.0078V49.3281ZM636.119 44.4785C638.474 44.4849 640.245 45.7163 640.245 47.5762C640.245 49.4551 638.474 50.6865 636.119 50.6738C633.764 50.6865 631.993 49.4551 631.993 47.5762C631.993 45.7163 633.764 44.4849 636.119 44.4785ZM630.978 53.5303V52.6924H641.312V53.5303H630.978ZM632.945 47.5762C632.933 48.9473 634.297 49.8613 636.119 49.8613C637.928 49.8613 639.28 48.9473 639.28 47.5762C639.28 46.2241 637.928 45.2847 636.119 45.291C634.297 45.2847 632.933 46.2241 632.945 47.5762ZM652.547 52.7939V53.6318H642.213V52.7939H646.859V50.6611H643.508V47.1826H650.262V45.4053H643.482V44.5801H651.239V47.9951H644.498V49.8359H651.506V50.6611H647.837V52.7939H652.547ZM666.067 43.7549V52.3623H665.064V49.9375H663.109V49.125H665.064V47.5889H663.109V46.7637H665.064V43.7549H666.067ZM656.724 45.9512V45.1387H659.466V43.7422H660.456V45.1387H663.109V45.9512H656.724ZM657.396 48.7314C657.384 47.4365 658.438 46.5732 659.948 46.5732C661.459 46.5732 662.519 47.4365 662.525 48.7314C662.519 50.0137 661.459 50.8833 659.948 50.8896C658.438 50.8833 657.384 50.0137 657.396 48.7314ZM658.323 48.7314C658.317 49.5439 658.983 50.0962 659.948 50.0898C660.913 50.0962 661.58 49.5439 661.586 48.7314C661.58 47.9189 660.913 47.373 659.948 47.3604C658.983 47.373 658.317 47.9189 658.323 48.7314ZM658.768 54.7871V51.6006H659.771V53.9492H666.321V54.7871H658.768ZM677.595 43.7422V55.0283H676.643V49.1123H674.979V54.4443H674.065V43.9961H674.979V48.2871H676.643V43.7422H677.595ZM668.365 52.2354V45.126H672.593V45.9512H669.355V51.3848C670.911 51.3784 671.983 51.3213 673.24 51.0674L673.329 51.9053C671.971 52.1846 670.822 52.229 669.089 52.2354H668.365ZM683.104 45.8242C683.104 47.2905 684.234 48.6934 685.885 49.2646L685.364 50.0518C684.095 49.5947 683.111 48.6489 682.628 47.4873C682.14 48.7822 681.092 49.8232 679.753 50.3184L679.232 49.5312C680.896 48.9346 682.102 47.4302 682.102 45.8369V45.3418H679.55V44.5293H685.631V45.3418H683.104V45.8242ZM680.946 51.9307V51.1055H688.538V55.0283H687.535V51.9307H680.946ZM685.275 47.5381V46.7002H687.535V43.7422H688.538V50.5088H687.535V47.5381H685.275ZM699.723 43.7422V55.0537H698.72V43.7422H699.723ZM690.836 48.5537C690.842 46.1543 692.036 44.6245 693.718 44.6182C695.394 44.6245 696.606 46.1543 696.6 48.5537C696.606 50.9595 695.394 52.4829 693.718 52.4766C692.036 52.4829 690.842 50.9595 690.836 48.5537ZM691.801 48.5537C691.801 50.3882 692.588 51.5942 693.718 51.5879C694.854 51.5942 695.635 50.3882 695.635 48.5537C695.635 46.7192 694.854 45.5132 693.718 45.5068C692.588 45.5132 691.801 46.7192 691.801 48.5537ZM710.704 44.8848V46.0146C710.691 47.3984 710.691 48.9473 710.285 51.2197L709.27 51.1055C709.695 48.9473 709.695 47.3667 709.701 46.0146V45.71H702.744V44.8848H710.704ZM701.652 53.4287V52.6035H705.689V48.5664H706.667V52.6035H711.936V53.4287H701.652ZM725.126 44.3643V45.2148C725.126 46.1226 725.126 47.1826 724.859 48.5918H726.484V49.417H723.59V52.1465H722.625V49.417H720.556V52.1465H719.578V49.417H716.15V48.5918H723.869C724.142 47.1636 724.142 46.1226 724.136 45.2148V45.1768H717.458V44.3643H725.126ZM717.42 54.7871V51.2578H718.41V53.9492H725.431V54.7871H717.42ZM733.784 45.0117V45.8242H727.398V45.0117H730.141V43.6533H731.131V45.0117H733.784ZM728.071 48.4902C728.059 47.2334 729.1 46.4019 730.623 46.4082C732.134 46.4019 733.194 47.2334 733.2 48.4902C733.194 49.7534 732.134 50.5786 730.623 50.585C729.1 50.5786 728.059 49.7534 728.071 48.4902ZM728.998 48.4902C728.992 49.2837 729.639 49.8169 730.623 49.8105C731.594 49.8169 732.261 49.2837 732.273 48.4902C732.261 47.6968 731.594 47.1699 730.623 47.1572C729.639 47.1699 728.992 47.6968 728.998 48.4902ZM729.227 53.0859C729.227 51.8545 730.655 51.1562 733.022 51.1562C735.377 51.1562 736.806 51.8545 736.806 53.0859C736.806 54.2983 735.377 55.0029 733.022 55.0029C730.655 55.0029 729.227 54.2983 729.227 53.0859ZM730.255 53.0859C730.261 53.8032 731.309 54.2349 733.022 54.2285C734.711 54.2349 735.752 53.8032 735.752 53.0859C735.752 52.3496 734.711 51.937 733.022 51.9307C731.309 51.937 730.261 52.3496 730.255 53.0859ZM733.771 49.4805V48.6553H735.739V47.2842H733.784V46.459H735.739V43.7422H736.742V51.042H735.739V49.4805H733.771ZM742.442 45.7227C742.43 47.1826 743.553 48.5029 745.223 49.0361L744.74 49.8105C743.433 49.3853 742.436 48.4966 741.947 47.373C741.465 48.6235 740.417 49.5884 739.065 50.0518L738.545 49.2646C740.246 48.6934 741.433 47.3223 741.439 45.7354V45.3291H738.875V44.5039H744.956V45.3291H742.442V45.7227ZM740.297 54.876V50.4707H741.287V51.8545H746.454V50.4707H747.444V54.876H740.297ZM741.287 54.0635H746.454V52.6416H741.287V54.0635ZM746.454 49.9248V43.7422H747.444V46.3574H749.146V47.1953H747.444V49.9248H746.454ZM759.175 43.7422V52.2607H758.185V43.7422H759.175ZM750.021 45.9639V45.1514H752.979V43.7295H753.982V45.1514H756.94V45.9639H750.021ZM750.72 48.6807C750.707 47.3984 751.831 46.5732 753.487 46.5732C755.125 46.5732 756.249 47.3984 756.255 48.6807C756.249 49.9692 755.125 50.769 753.487 50.7627C751.831 50.769 750.707 49.9692 750.72 48.6807ZM751.672 48.6807C751.659 49.4741 752.389 49.9883 753.487 49.9756C754.56 49.9883 755.296 49.4741 755.303 48.6807C755.296 47.8745 754.56 47.373 753.487 47.3604C752.389 47.373 751.659 47.8745 751.672 48.6807ZM751.888 54.7871V51.5244H752.878V53.9492H759.53V54.7871H751.888ZM773.495 48.8584V49.6836H765.624V44.7324H766.627V48.8584H773.495ZM764.354 53.4668V52.6289H774.688V53.4668H764.354ZM779.018 44.4912C779.011 46.7383 778.275 48.3252 776.39 49.6328L775.729 48.998C777.196 48.0205 777.907 46.9414 778.059 45.3164H776.009V44.4912H779.018ZM777.507 54.876V50.8135H784.896V54.876H777.507ZM778.484 54.0635H783.918V51.626H778.484V54.0635ZM779.068 49.5947C780.56 48.4077 781.201 47.0493 781.328 45.3164H779.449V44.4912H782.28C782.268 46.7637 781.671 48.6299 779.779 50.166L779.068 49.5947ZM783.893 50.2803V43.7549H784.896V50.2803H783.893ZM798.898 43.7422V46.6367H800.587V47.4873H798.898V50.4072H797.896V43.7422H798.898ZM790.037 49.3916C790.938 49.3916 791.992 49.3916 793.097 49.3599V48.6616C791.77 48.5537 790.932 48.0269 790.938 47.1699C790.932 46.2432 791.973 45.7036 793.579 45.71C795.185 45.7036 796.22 46.2432 796.232 47.1699C796.22 48.0205 795.401 48.5474 794.087 48.6616V49.3218C795.141 49.271 796.207 49.1885 797.197 49.0488L797.286 49.7217C794.849 50.1216 792.138 50.1406 790.151 50.1406L790.037 49.3916ZM790.316 45.3291V44.6055H793.097V43.6406H794.087V44.6055H796.854V45.3291H790.316ZM791.548 51.626V50.915H798.898V53.1875H792.563V54.1904H799.33V54.9014H791.573V52.5146H797.908V51.626H791.548ZM791.891 47.1699C791.884 47.6777 792.538 48.0015 793.579 48.0078C794.62 48.0015 795.28 47.6777 795.28 47.1699C795.28 46.6748 794.62 46.3765 793.579 46.3701C792.538 46.3765 791.884 46.6748 791.891 47.1699ZM811.606 49.3281V50.1533H801.323V49.3281H803.875V47.7349C802.974 47.3857 802.466 46.8145 802.466 46.0527C802.466 44.7261 803.989 43.9644 806.465 43.958C808.921 43.9644 810.445 44.7261 810.451 46.0527C810.445 46.8081 809.943 47.3794 809.055 47.7349V49.3281H811.606ZM802.567 53.0098C802.561 51.7212 804.015 51.0103 806.465 51.0166C808.883 51.0103 810.337 51.7212 810.35 53.0098C810.337 54.2983 808.883 55.0029 806.465 55.0029C804.015 55.0029 802.561 54.2983 802.567 53.0098ZM803.494 46.0527C803.488 46.8779 804.618 47.354 806.465 47.3604C808.293 47.354 809.429 46.8779 809.436 46.0527C809.429 45.2402 808.293 44.7451 806.465 44.7451C804.618 44.7451 803.488 45.2402 803.494 46.0527ZM803.583 53.0098C803.57 53.7778 804.656 54.2349 806.465 54.2285C808.255 54.2349 809.34 53.7778 809.347 53.0098C809.34 52.2417 808.255 51.791 806.465 51.7783C804.656 51.791 803.57 52.2417 803.583 53.0098ZM804.865 49.3281H808.064V48.0015C807.588 48.0903 807.055 48.1348 806.465 48.1348C805.875 48.1348 805.341 48.0903 804.865 48.0078V49.3281ZM813.752 54.0762C813.308 54.0698 812.927 53.7017 812.939 53.251C812.927 52.8066 813.308 52.4385 813.752 52.4385C814.203 52.4385 814.571 52.8066 814.564 53.251C814.571 53.7017 814.203 54.0698 813.752 54.0762Z" fill="#868E96"/>
<path d="M509.699 87.6387C508.988 87.6387 508.404 87.0547 508.404 86.3311C508.404 85.6201 508.988 85.0361 509.699 85.0361C510.423 85.0361 511.007 85.6201 511.007 86.3311C511.007 87.0547 510.423 87.6387 509.699 87.6387ZM520.376 90V83.1064H521.43V84.1855H521.519C521.804 83.4492 522.471 83.0176 523.372 83.0176C524.273 83.0176 524.889 83.4492 525.213 84.1855H525.289C525.638 83.4746 526.368 83.0176 527.358 83.0176C528.583 83.0176 529.466 83.7666 529.466 85.3916V90H528.374V85.4043C528.368 84.3887 527.733 83.9951 526.978 83.9951C526.019 83.9951 525.473 84.6426 525.467 85.5186V90H524.362V85.29C524.369 84.5156 523.81 83.9951 523.017 83.9951C522.191 83.9951 521.468 84.6934 521.468 85.6963V90H520.376ZM531.218 90V83.1064H532.31V90H531.218ZM531.002 81.2402C530.996 80.834 531.345 80.5103 531.764 80.5166C532.183 80.5103 532.532 80.834 532.538 81.2402C532.532 81.6401 532.183 81.9639 531.764 81.9639C531.345 81.9639 530.996 81.6401 531.002 81.2402ZM536.867 90.1396C534.912 90.146 533.719 88.6543 533.719 86.585C533.719 84.4902 534.969 83.0176 536.842 83.0176C538.308 83.0176 539.413 83.8872 539.584 85.1885H538.492C538.333 84.5601 537.788 83.9824 536.867 83.9824C535.636 83.9824 534.817 84.998 534.811 86.5469C534.817 88.1401 535.617 89.1621 536.867 89.1621C537.68 89.1621 538.302 88.7241 538.492 87.9688H539.584C539.413 89.2002 538.397 90.146 536.867 90.1396ZM540.93 90V83.1064H541.983V84.1602H542.06C542.307 83.4619 543.024 82.9985 543.837 82.9922C544.002 82.9985 544.281 83.0049 544.408 83.0176V84.1221C544.326 84.103 544.034 84.0459 543.748 84.0459C542.758 84.0459 542.021 84.7314 542.021 85.6582V90H540.93ZM548.064 90.1396C546.186 90.146 544.916 88.7241 544.916 86.585C544.916 84.4331 546.186 83.0176 548.064 83.0176C549.937 83.0176 551.194 84.4331 551.188 86.585C551.194 88.7241 549.937 90.146 548.064 90.1396ZM546.008 86.585C546.014 87.9624 546.662 89.1748 548.064 89.1748C549.455 89.1748 550.096 87.9624 550.096 86.585C550.096 85.2139 549.455 83.9824 548.064 83.9824C546.662 83.9824 546.014 85.2139 546.008 86.585ZM556.456 84.8965C556.304 84.3252 555.866 83.9507 555.06 83.9443C554.209 83.9507 553.606 84.4077 553.6 84.9854C553.606 85.4424 553.974 85.7534 554.78 85.9502L555.809 86.2041C557.04 86.4961 557.643 87.1118 557.649 88.0703C557.643 89.2637 556.672 90.146 554.945 90.1396C553.396 90.146 552.476 89.4541 552.292 88.1973H553.435C553.562 88.8701 554.05 89.1938 554.92 89.1875C555.904 89.1938 556.52 88.7812 556.52 88.1338C556.52 87.645 556.17 87.3276 555.39 87.1436L554.349 86.9023C553.149 86.623 552.508 85.9692 552.508 85.0488C552.508 83.8682 553.542 83.0176 555.06 83.0176C556.488 83.0176 557.383 83.7793 557.522 84.8965H556.456ZM561.89 90.1396C560.011 90.146 558.741 88.7241 558.741 86.585C558.741 84.4331 560.011 83.0176 561.89 83.0176C563.762 83.0176 565.019 84.4331 565.013 86.585C565.019 88.7241 563.762 90.146 561.89 90.1396ZM559.833 86.585C559.839 87.9624 560.487 89.1748 561.89 89.1748C563.28 89.1748 563.921 87.9624 563.921 86.585C563.921 85.2139 563.28 83.9824 561.89 83.9824C560.487 83.9824 559.839 85.2139 559.833 86.585ZM569.532 83.1064V84.0205H568.009V90H566.904V84.0205H565.8V83.1064H566.904V82.167C566.911 81.0498 567.653 80.377 568.872 80.377C569.139 80.377 569.456 80.4087 569.685 80.4531V81.4307C569.45 81.3926 569.253 81.3799 569.113 81.3799C568.345 81.3799 568.002 81.6973 568.009 82.4082V83.1064H569.532ZM573.836 83.1064V84.0205H572.389V88.0195C572.382 88.9019 572.827 89.0479 573.29 89.0479C573.487 89.0479 573.779 89.0288 573.938 89.0225V90.0381C573.766 90.0635 573.5 90.0889 573.176 90.0889C572.255 90.0889 571.291 89.5176 571.284 88.2988V84.0205H570.243V83.1064H571.284V81.4561H572.389V83.1064H573.836ZM578.609 82.7764C578.609 84.7632 579.923 86.8135 581.529 87.6006L580.92 88.4004C579.676 87.7529 578.635 86.4136 578.133 84.8457C577.632 86.5088 576.565 87.937 575.296 88.6162L574.661 87.8164C576.312 87.0039 577.619 84.8394 577.632 82.7764V80.7197H578.609V82.7764ZM582.57 91.0283V79.7422H583.561V84.3252H585.452V85.1885H583.561V91.0283H582.57ZM589.756 80.5674C591.527 80.5737 592.784 81.6528 592.79 83.2207C592.784 84.7949 591.527 85.8677 589.756 85.874C587.972 85.8677 586.703 84.7949 586.709 83.2207C586.703 81.6528 587.972 80.5737 589.756 80.5674ZM586.125 87.7148C588.207 87.7212 591.083 87.7021 593.577 87.334L593.653 88.0703C591.07 88.5527 588.296 88.5654 586.265 88.5654L586.125 87.7148ZM587.687 83.2207C587.68 84.2744 588.55 84.998 589.756 84.998C590.949 84.998 591.819 84.2744 591.812 83.2207C591.819 82.1733 590.949 81.4434 589.756 81.4434C588.55 81.4434 587.68 82.1733 587.687 83.2207ZM594.326 91.0537V79.7422H595.316V91.0537H594.326ZM610.881 85.5186V86.3438H606.285V88.6543H605.295V86.3438H600.547V85.5186H610.881ZM601.867 90.7871V87.5371H602.87V89.9492H609.726V90.7871H601.867ZM601.893 84.2236V80.3008H609.535V84.2236H601.893ZM602.87 83.4238H608.545V81.0879H602.87V83.4238ZM620.618 79.7422V83.1064H622.332V83.9443H620.618V87.918H619.628V79.7422H620.618ZM612.328 85.9121V80.7197H617.355V81.5576H613.318V85.0742C615.584 85.0806 616.873 85.0107 618.384 84.7061L618.511 85.5312C616.924 85.8359 615.578 85.9121 613.204 85.9121H612.328ZM613.56 90.7871V87.0928H614.537V89.9492H621.139V90.7871H613.56ZM632.031 80.8975V82.2939C632.038 83.957 632.038 85.4932 631.562 87.7783L630.559 87.6895C630.812 86.604 630.933 85.6646 630.997 84.7886L624.109 85.1631L623.97 84.3379L631.041 84.0459C631.06 83.4492 631.066 82.8716 631.066 82.2939V81.7354H624.274V80.8975H632.031ZM623.03 89.4414V88.6035H633.313V89.4414H623.03ZM643.597 79.7422V91.0283H642.594V79.7422H643.597ZM634.405 88.0957C637.458 86.6484 639.02 84.4839 639.242 81.7861H634.926V80.9736H640.258C640.245 84.2173 638.734 87.0928 634.951 88.9082L634.405 88.0957ZM652.623 81.875C652.623 83.4492 653.766 84.9346 655.416 85.5312L654.857 86.3057C653.62 85.8169 652.629 84.8394 652.147 83.6079C651.671 84.9727 650.643 86.0518 649.31 86.585L648.776 85.7725C650.471 85.1504 651.639 83.5698 651.646 81.8369V80.4404H652.623V81.875ZM650.82 90.7871V87.2451H651.823V89.9492H658.374V90.7871H650.82ZM654.604 83.2461V82.4082H657.117V79.7549H658.12V88.21H657.117V83.2461H654.604ZM669.355 79.7422V86.4707H668.353V83.5127H666.08V82.6875H668.353V79.7422H669.355ZM660.05 85.5693C661.726 84.9663 662.919 83.4365 662.919 81.8242V81.4053H660.367V80.5674H666.448V81.4053H663.922V81.8115C663.922 83.2842 665.052 84.687 666.702 85.252L666.182 86.0518C664.918 85.5947 663.935 84.6426 663.446 83.481C662.963 84.8013 661.916 85.855 660.57 86.3691L660.05 85.5693ZM661.827 88.9209C661.821 87.5942 663.262 86.8198 665.61 86.8262C667.953 86.8198 669.394 87.5942 669.394 88.9209C669.394 90.2539 667.953 91.0156 665.61 91.0283C663.262 91.0156 661.821 90.2539 661.827 88.9209ZM662.817 88.9209C662.811 89.7397 663.877 90.2349 665.61 90.2285C667.337 90.2349 668.403 89.7397 668.403 88.9209C668.403 88.0957 667.337 87.6006 665.61 87.6006C663.877 87.6006 662.811 88.0957 662.817 88.9209ZM680.565 79.7422V91.0283H679.562V79.7422H680.565ZM671.374 88.0957C674.427 86.6484 675.989 84.4839 676.211 81.7861H671.895V80.9736H677.227C677.214 84.2173 675.703 87.0928 671.92 88.9082L671.374 88.0957ZM688.259 81.1514C688.252 82.5415 690.144 83.6714 692.144 83.9443L691.75 84.7314C689.928 84.4648 688.221 83.5571 687.611 82.2368C686.996 83.5571 685.301 84.4648 683.473 84.7314L683.104 83.9443C685.091 83.6714 686.97 82.5415 686.964 81.1514V81.126H683.409V80.3135H691.839V81.126H688.259V81.1514ZM682.457 86.3818V85.5566H692.791V86.3818H688.195V88.6924H687.205V86.3818H682.457ZM683.777 90.7871V87.5625H684.78V89.9492H691.636V90.7871H683.777ZM706.02 80.8848V82.0146C706.007 83.3984 706.007 84.9473 705.601 87.2197L704.585 87.1055C705.01 84.9473 705.01 83.3667 705.017 82.0146V81.71H698.06V80.8848H706.02ZM696.968 89.4287V88.6035H701.005V84.5664H701.982V88.6035H707.251V89.4287H696.968ZM717.547 79.7422V91.0537H716.557V86.2422H714.208V85.4043H716.557V83.1572H714.297V82.3193H716.557V79.7422H717.547ZM708.597 81.5957V80.7705H713.561V84.7822H709.625V87.5625C711.32 87.5625 712.723 87.499 714.437 87.2324L714.525 88.0703C712.723 88.3496 711.275 88.4131 709.473 88.4131H708.635V83.9697H712.583V81.5957H708.597ZM721.292 89.1494L720.302 92.6025H719.362L720.061 89.1494H721.292ZM735.358 79.7422V91.0283H734.355V79.7422H735.358ZM726.167 88.0957C729.22 86.6484 730.782 84.4839 731.004 81.7861H726.688V80.9736H732.02C732.007 84.2173 730.496 87.0928 726.713 88.9082L726.167 88.0957ZM739.624 80.1992V81.6338H745.21V80.1992H746.2V84.7061H742.899V85.9121H747.546V86.7373H737.263V85.9121H741.909V84.7061H738.634V80.1992H739.624ZM738.596 90.7871V87.6387H739.599V89.9492H746.403V90.7871H738.596ZM739.624 83.9062H745.21V82.4209H739.624V83.9062ZM761.066 80.2627V81.0879H759.327V83.6777H761.028V84.4775H757.397V85.8613H762.044V86.6738H751.761V85.8613H756.407V84.4775H752.764V83.6777H754.465V81.0879H752.726V80.2627H761.066ZM753.094 90.7871V87.6641H754.097V89.9492H760.901V90.7871H753.094ZM755.455 83.6777H758.337V81.0879H755.455V83.6777ZM772.137 85.8486V86.6611H764.329V80.7197H772.01V81.5576H765.345V83.2334H771.769V84.0332H765.345V85.8486H772.137ZM762.996 89.5557V88.7305H773.33V89.5557H762.996ZM786.495 80.8975V82.2939C786.501 83.957 786.501 85.4932 786.025 87.7783L785.022 87.6895C785.276 86.604 785.397 85.6646 785.46 84.7886L778.573 85.1631L778.434 84.3379L785.505 84.0459C785.524 83.4492 785.53 82.8716 785.53 82.2939V81.7354H778.738V80.8975H786.495ZM777.494 89.4414V88.6035H787.777V89.4414H777.494ZM798.061 79.7422V91.0283H797.058V79.7422H798.061ZM788.869 88.0957C791.922 86.6484 793.484 84.4839 793.706 81.7861H789.39V80.9736H794.722C794.709 84.2173 793.198 87.0928 789.415 88.9082L788.869 88.0957ZM809.093 83.1699V83.9697H801.361V80.1611H802.352V83.1699H809.093ZM799.952 86.3184V85.5059H810.286V86.3184H799.952ZM801.298 90.749V87.4736H802.288V89.9238H809.156V90.749H801.298ZM818.119 80.8086V90H816.964V82.002H816.913L814.679 83.4873V82.332L816.964 80.8086H818.119ZM823.769 90.127C822.175 90.1079 820.417 89.1621 820.417 85.7598C820.417 82.5034 821.75 80.6816 823.908 80.6816C825.527 80.6816 826.657 81.6782 826.892 83.1191H825.762C825.552 82.3066 824.93 81.6973 823.908 81.6973C822.397 81.6973 821.49 82.9858 821.496 85.2012H821.61C822.137 84.4331 822.981 83.9824 823.972 83.9824C825.603 83.9824 826.968 85.252 826.968 87.0293C826.968 88.7622 825.705 90.146 823.769 90.127ZM821.648 87.0547C821.655 88.1338 822.537 89.1177 823.769 89.124C824.956 89.1177 825.857 88.1846 825.863 87.042C825.857 85.9121 824.994 84.9917 823.794 84.9854C822.588 84.9917 821.661 85.9692 821.648 87.0547ZM828.555 92.5898V83.1064H829.608V84.1982H829.735C829.97 83.8301 830.389 83.0176 831.729 83.0176C833.461 83.0176 834.661 84.3887 834.661 86.5723C834.661 88.7622 833.461 90.146 831.741 90.1396C830.427 90.146 829.97 89.3271 829.735 88.9463H829.646V92.5898H828.555ZM829.621 86.5469C829.627 88.0957 830.319 89.1621 831.589 89.1621C832.896 89.1621 833.569 88.0132 833.569 86.5469C833.569 85.106 832.916 83.9951 831.589 83.9951C830.3 83.9951 829.627 85.0171 829.621 86.5469ZM836.616 83.1064L838.241 85.9121L839.879 83.1064H841.136L838.914 86.5469L841.136 90H839.892L838.241 87.334L836.616 90H835.359L837.53 86.5469L835.359 83.1064H836.616ZM852.371 88.7939V89.6318H842.037V88.7939H846.684V86.6611H843.332V83.1826H850.086V81.4053H843.307V80.5801H851.063V83.9951H844.322V85.8359H851.33V86.6611H847.661V88.7939H852.371ZM860.572 83.208C860.579 85.125 861.969 87.0737 863.632 87.791L863.073 88.5781C861.753 87.9814 860.617 86.6802 860.09 85.1187C859.563 86.7754 858.42 88.21 857.132 88.8574L856.535 88.0703C858.154 87.2959 859.563 85.1631 859.569 83.208V81.7354H856.903V80.9102H863.264V81.7354H860.572V83.208ZM864.838 91.0283V79.7422H865.841V91.0283H864.838ZM877.127 79.7422V86.4707H876.124V83.5127H873.852V82.6875H876.124V79.7422H877.127ZM867.821 85.5693C869.497 84.9663 870.69 83.4365 870.69 81.8242V81.4053H868.139V80.5674H874.22V81.4053H871.693V81.8115C871.693 83.2842 872.823 84.687 874.474 85.252L873.953 86.0518C872.69 85.5947 871.706 84.6426 871.217 83.481C870.735 84.8013 869.688 85.855 868.342 86.3691L867.821 85.5693ZM869.599 88.9209C869.592 87.5942 871.033 86.8198 873.382 86.8262C875.724 86.8198 877.165 87.5942 877.165 88.9209C877.165 90.2539 875.724 91.0156 873.382 91.0283C871.033 91.0156 869.592 90.2539 869.599 88.9209ZM870.589 88.9209C870.583 89.7397 871.649 90.2349 873.382 90.2285C875.108 90.2349 876.175 89.7397 876.175 88.9209C876.175 88.0957 875.108 87.6006 873.382 87.6006C871.649 87.6006 870.583 88.0957 870.589 88.9209Z" fill="#868E96"/>
</svg>
