<svg width="604" height="252" viewBox="0 0 604 252" fill="none" xmlns="http://www.w3.org/2000/svg">
<rect y="36" width="180" height="180" rx="90" fill="#F1F3F5"/>
<path d="M74.4258 111.73C76.6934 111.736 78.0996 112.457 78.1055 113.699C78.0996 114.918 76.6934 115.639 74.4258 115.633C72.1582 115.639 70.7344 114.918 70.7344 113.699C70.7344 112.457 72.1582 111.736 74.4258 111.73ZM69.6797 117.191V116.43H79.1719V117.191H74.8711V118.387H78.0117V121.809H70.8398V118.387H73.9688V117.191H69.6797ZM71.6836 113.699C71.6777 114.461 72.7383 114.906 74.4258 114.906C76.0957 114.906 77.1621 114.461 77.168 113.699C77.1621 112.92 76.0957 112.457 74.4258 112.457C72.7383 112.457 71.6777 112.92 71.6836 113.699ZM71.7539 121.059H77.1094V119.125H71.7539V121.059ZM83.8008 113.465C83.8066 114.865 84.9141 116.143 86.4727 116.652L86.0039 117.367C84.791 116.957 83.8301 116.102 83.3555 115C82.8984 116.184 81.9258 117.121 80.6836 117.566L80.2031 116.852C81.7676 116.301 82.8691 114.941 82.875 113.465V113.02H80.4375V112.27H86.2031V113.02H83.8008V113.465ZM81.6445 119.148V118.387H88.6523V121.949H87.7383V119.148H81.6445ZM87.7383 117.836V111.531H88.6523V117.836H87.7383ZM99.0117 111.531V121.973H98.0859V111.531H99.0117ZM90.8086 115.973C90.8145 113.758 91.916 112.346 93.4688 112.34C95.0156 112.346 96.1348 113.758 96.1289 115.973C96.1348 118.193 95.0156 119.6 93.4688 119.594C91.916 119.6 90.8145 118.193 90.8086 115.973ZM91.6992 115.973C91.6992 117.666 92.4258 118.779 93.4688 118.773C94.5176 118.779 95.2383 117.666 95.2383 115.973C95.2383 114.279 94.5176 113.166 93.4688 113.16C92.4258 113.166 91.6992 114.279 91.6992 115.973ZM109.219 114.695V115.434H102.082V111.918H102.996V114.695H109.219ZM100.781 117.602V116.852H110.32V117.602H100.781ZM102.023 121.691V118.668H102.938V120.93H109.277V121.691H102.023ZM59.3262 130.645V131.688C59.3262 133 59.3262 134.482 58.9395 136.75L58.002 136.656C58.4238 134.523 58.4238 132.965 58.4238 131.688V131.406H52.1426V130.645H59.3262ZM51.1113 138.414V137.652H60.6035V138.414H51.1113ZM65.7363 130.668V134.312H62.7246V136.68C63.9258 136.674 65.0566 136.627 66.4043 136.398L66.4863 137.148C65.0039 137.406 63.8262 137.453 62.5137 137.453H61.834V133.551H64.8457V131.441H61.8105V130.668H65.7363ZM67.1309 139.41V129.766H67.9746V133.656H69.5098V129.531H70.3887V139.949H69.5098V134.418H67.9746V139.41H67.1309ZM77.959 130.387V131.148H76.9043V134.295C77.4434 134.26 77.9707 134.219 78.4746 134.16L78.5449 134.852C76.4062 135.174 73.9512 135.203 72.1465 135.203L72.0293 134.418C72.4453 134.418 72.8965 134.418 73.3652 134.412V131.148H72.3223V130.387H77.959ZM73.4473 137.125V136.363H80.4551V139.949H79.541V137.125H73.4473ZM74.2559 134.4C74.8301 134.389 75.4219 134.371 76.0137 134.342V131.148H74.2559V134.4ZM79.541 135.859V129.531H80.4551V135.859H79.541ZM88.8574 131.453C88.8574 132.807 89.9004 134.102 91.4238 134.629L90.9434 135.355C89.7715 134.934 88.8633 134.061 88.418 132.988C87.9668 134.184 87 135.145 85.7637 135.602L85.2832 134.875C86.8184 134.324 87.9316 132.936 87.9316 131.465V131.008H85.5762V130.258H91.1895V131.008H88.8574V131.453ZM86.8652 137.09V136.328H93.873V139.949H92.9473V137.09H86.8652ZM90.8613 133.035V132.262H92.9473V129.531H93.873V135.777H92.9473V133.035H90.8613ZM103.893 130.047V130.762C103.893 131.547 103.893 132.555 103.629 133.926H105.146V134.688H95.6074V133.926H102.703C102.979 132.561 102.984 131.57 102.979 130.797H96.8145V130.047H103.893ZM96.6152 136.984V136.246H103.975V139.984H103.049V136.984H96.6152ZM117.123 129.531V132.203H118.682V132.988H117.123V135.684H116.197V129.531H117.123ZM108.943 134.746C109.775 134.746 110.748 134.746 111.768 134.717V134.072C110.543 133.973 109.77 133.486 109.775 132.695C109.77 131.84 110.73 131.342 112.213 131.348C113.695 131.342 114.65 131.84 114.662 132.695C114.65 133.48 113.895 133.967 112.682 134.072V134.682C113.654 134.635 114.639 134.559 115.553 134.43L115.635 135.051C113.385 135.42 110.883 135.438 109.049 135.438L108.943 134.746ZM109.201 130.996V130.328H111.768V129.438H112.682V130.328H115.236V130.996H109.201ZM110.338 136.809V136.152H117.123V138.25H111.275V139.176H117.521V139.832H110.361V137.629H116.209V136.809H110.338ZM110.654 132.695C110.648 133.164 111.252 133.463 112.213 133.469C113.174 133.463 113.783 133.164 113.783 132.695C113.783 132.238 113.174 131.963 112.213 131.957C111.252 131.963 110.648 132.238 110.654 132.695ZM128.854 134.688V135.449H119.361V134.688H121.717V133.217C120.885 132.895 120.416 132.367 120.416 131.664C120.416 130.439 121.822 129.736 124.107 129.73C126.375 129.736 127.781 130.439 127.787 131.664C127.781 132.361 127.318 132.889 126.498 133.217V134.688H128.854ZM120.51 138.086C120.504 136.896 121.846 136.24 124.107 136.246C126.34 136.24 127.682 136.896 127.693 138.086C127.682 139.275 126.34 139.926 124.107 139.926C121.846 139.926 120.504 139.275 120.51 138.086ZM121.365 131.664C121.359 132.426 122.402 132.865 124.107 132.871C125.795 132.865 126.844 132.426 126.85 131.664C126.844 130.914 125.795 130.457 124.107 130.457C122.402 130.457 121.359 130.914 121.365 131.664ZM121.447 138.086C121.436 138.795 122.438 139.217 124.107 139.211C125.76 139.217 126.762 138.795 126.768 138.086C126.762 137.377 125.76 136.961 124.107 136.949C122.438 136.961 121.436 137.377 121.447 138.086ZM122.631 134.688H125.584V133.463C125.145 133.545 124.652 133.586 124.107 133.586C123.562 133.586 123.07 133.545 122.631 133.469V134.688Z" fill="#535862"/>
<rect x="164" y="36" width="180" height="180" rx="90" fill="#F1F3F5"/>
<path d="M240.236 111.531V115.656H241.982V116.43H240.236V121.973H239.322V111.531H240.236ZM232.631 119.359V112.551H237.494V113.312H233.545V118.586C235.432 118.58 236.762 118.498 238.314 118.211L238.432 119.008C236.797 119.301 235.432 119.359 233.451 119.359H232.631ZM250.854 112.598V113.887C250.859 115.422 250.859 116.84 250.42 118.949L249.494 118.867C249.729 117.865 249.84 116.998 249.898 116.189L243.541 116.535L243.412 115.773L249.939 115.504C249.957 114.953 249.963 114.42 249.963 113.887V113.371H243.693V112.598H250.854ZM242.545 120.484V119.711H252.037V120.484H242.545ZM262.455 119.84V120.613H252.916V119.84H257.205V117.297H254.041V112.41H261.271V117.297H258.107V119.84H262.455ZM254.943 116.559H260.381V113.148H254.943V116.559ZM271.701 116.547V117.309H264.506V112.504H271.596V113.266H265.42V116.547H271.701ZM263.287 120.531V119.758H272.826V120.531H263.287ZM245.451 129.531V139.949H244.525V129.531H245.451ZM236.967 137.242C239.785 135.906 241.227 133.908 241.432 131.418H237.447V130.668H242.369C242.357 133.662 240.963 136.316 237.471 137.992L236.967 137.242ZM255.354 129.543V132.695H256.924V133.469H255.354V137.195H254.439V129.543H255.354ZM247.654 135.438V130.293H248.557V132.051H251.592V130.293H252.506V135.438H247.654ZM248.557 134.688H251.592V132.777H248.557V134.688ZM248.838 139.727V136.445H249.74V138.953H255.834V139.727H248.838ZM266.662 130.516H267.717V136.129C267.717 137.875 266.41 139.146 264.412 139.152C262.408 139.146 261.107 137.875 261.107 136.129V130.516H262.162V136.047C262.156 137.277 263.012 138.162 264.412 138.168C265.812 138.162 266.656 137.277 266.662 136.047V130.516ZM270.646 130.516V139H269.592V130.516H270.646Z" fill="#535862"/>
<rect x="424" y="36" width="180" height="180" rx="90" fill="#F8A21E"/>
<path d="M482.896 110.514V114.97H484.483V116.633H482.896V122.257H480.878V110.514H482.896ZM473.464 113.802V112.189H475.889V110.729H477.92V112.189H480.307V113.802H473.464ZM473.819 117.115C473.813 115.446 475.127 114.252 476.904 114.259C478.637 114.252 479.97 115.446 479.977 117.115C479.97 118.791 478.637 119.978 476.904 119.984C475.127 119.978 473.813 118.791 473.819 117.115ZM475.774 117.115C475.768 117.934 476.244 118.334 476.904 118.334C477.552 118.334 478.021 117.934 478.021 117.115C478.021 116.328 477.552 115.903 476.904 115.896C476.244 115.903 475.768 116.328 475.774 117.115ZM494.678 110.514V122.295H492.621V110.514H494.678ZM485.042 115.528C485.036 112.932 486.394 111.294 488.229 111.301C490.019 111.294 491.364 112.932 491.364 115.528C491.364 118.163 490.019 119.794 488.229 119.794C486.394 119.794 485.036 118.163 485.042 115.528ZM487.01 115.528C487.003 117.179 487.479 117.934 488.229 117.928C488.933 117.934 489.403 117.179 489.409 115.528C489.403 113.903 488.933 113.135 488.229 113.142C487.479 113.135 487.003 113.903 487.01 115.528ZM500.683 111.745V113.332H498.22V114.894H500.289V116.43H498.22V118.194C499.235 118.169 500.067 118.112 501.038 117.966L501.203 119.591C499.87 119.819 498.74 119.826 497.115 119.832H496.29V111.745H500.683ZM500.771 116.303V114.703H501.825V110.679H503.704V121.774H501.825V116.303H500.771ZM504.301 122.257V110.514H506.243V122.257H504.301ZM516.983 111.453V112.773C516.983 114.456 516.983 116.106 516.425 118.753L514.394 118.562C514.609 117.687 514.743 116.899 514.832 116.176L508.274 116.48L508.033 114.868L514.958 114.652C514.984 114.1 514.984 113.58 514.99 113.065H508.414V111.453H516.983ZM507.233 121V119.362H517.948V121H507.233ZM531.088 110.818V112.316H529.742V113.383H530.986V114.894H522.315V113.383H523.547V112.316H522.201V110.818H531.088ZM521.3 116.849V115.262H532.015V116.849H521.3ZM522.493 122.206V119.045H528.739V118.702H522.506V117.28H530.745V120.391H524.486V120.733H531.024V122.206H522.493ZM525.578 113.383H527.686V112.316H525.578V113.383ZM542.691 110.539V118.347H540.762V114.855H540.152V117.407H538.261V110.729H540.152V113.23H540.762V110.539H542.691ZM532.954 112.875V111.275H537.461V115.033H534.935V115.789C536.033 115.763 536.845 115.7 537.778 115.528L537.956 117.103C536.706 117.363 535.607 117.375 533.817 117.382H532.967V113.599H535.493V112.875H532.954ZM533.881 120.645C536.687 120.314 537.499 119.039 537.499 118.004V117.839H539.543V118.004C539.53 119.039 540.336 120.314 543.174 120.645L542.374 122.206C540.476 121.965 539.226 121.254 538.527 120.289C537.816 121.254 536.566 121.965 534.681 122.206L533.881 120.645ZM554.485 116.062V117.648H543.771V116.062H548.074V115.389H544.786V113.764H546.018V112.431H544.672V110.806H553.559V112.431H552.213V113.764H553.457V115.389H550.131V116.062H554.485ZM544.977 122.155V118.245H553.216V122.155H544.977ZM546.97 120.53H551.223V119.832H546.97V120.53ZM548.049 113.764H550.156V112.431H548.049V113.764ZM499.991 135.63V137.28H491.51V131.542H493.542V135.63H499.991ZM490.38 141.025V139.324H501.108V141.025H490.38ZM505.272 131.148C505.272 133.738 504.802 135.389 502.809 136.912L501.501 135.643C502.663 134.805 503.171 134.043 503.336 132.748H502.098V131.148H505.272ZM503.418 142.155V137.585H511.505V142.155H503.418ZM504.904 136.036C506.059 135.046 506.554 134.183 506.713 132.748H505.666V131.148H508.636C508.636 133.821 508.192 135.547 506.326 137.128L504.904 136.036ZM505.424 140.53H509.512V139.185H505.424V140.53ZM509.449 137.141V130.539H511.505V137.141H509.449ZM525.673 130.539V139.058H523.642V136.531H521.173C520.608 137.071 519.833 137.395 518.983 137.395C517.193 137.395 515.796 136.055 515.809 134.297C515.796 132.5 517.193 131.18 518.983 131.174C519.84 131.174 520.614 131.504 521.186 132.05H523.642V130.539H525.673ZM517.726 142.092V138.22H519.757V140.467H525.927V142.092H517.726ZM517.739 134.297C517.726 135.154 518.247 135.585 518.983 135.592C519.662 135.585 520.189 135.154 520.202 134.297C520.189 133.421 519.662 132.983 518.983 132.989C518.247 132.983 517.726 133.421 517.739 134.297ZM522.068 134.919H523.642V133.662H522.068C522.106 133.865 522.131 134.075 522.131 134.297C522.131 134.513 522.106 134.716 522.068 134.919ZM537.594 135.376V136.836H533.278V137.344H536.363V140.416H530.104V140.733H536.642V142.206H528.111V139.07H534.357V138.778H528.124V137.344H531.259V136.836H526.956V135.376H537.594ZM527.273 133.726C529.444 133.649 530.434 133.269 530.847 132.85H527.895V131.377H531.234V130.552H533.265V131.377H536.629V132.85H533.646C534.052 133.269 535.055 133.649 537.251 133.726L536.667 135.211C534.408 135.128 532.992 134.627 532.25 133.865C531.513 134.627 530.098 135.128 527.819 135.211L527.273 133.726Z" fill="white"/>
<path d="M341.333 126C341.333 127.473 342.527 128.667 344 128.667C345.473 128.667 346.667 127.473 346.667 126C346.667 124.527 345.473 123.333 344 123.333C342.527 123.333 341.333 124.527 341.333 126ZM424 126L419 123.113V128.887L424 126ZM344 126V126.5H345V126V125.5H344V126ZM347 126V126.5H349V126V125.5H347V126ZM351 126V126.5H353V126V125.5H351V126ZM355 126V126.5H357V126V125.5H355V126ZM359 126V126.5H361V126V125.5H359V126ZM363 126V126.5H365V126V125.5H363V126ZM367 126V126.5H369V126V125.5H367V126ZM371 126V126.5H373V126V125.5H371V126ZM375 126V126.5H377V126V125.5H375V126ZM379 126V126.5H381V126V125.5H379V126ZM383 126V126.5H385V126V125.5H383V126ZM387 126V126.5H389V126V125.5H387V126ZM391 126V126.5H393V126V125.5H391V126ZM395 126V126.5H397V126V125.5H395V126ZM399 126V126.5H401V126V125.5H399V126ZM403 126V126.5H405V126V125.5H403V126ZM407 126V126.5H409V126V125.5H407V126ZM411 126V126.5H413V126V125.5H411V126ZM415 126V126.5H417V126V125.5H415V126ZM419 126V126.5H421V126V125.5H419V126Z" fill="url(#paint0_linear_1062_36181)"/>
<defs>
<linearGradient id="paint0_linear_1062_36181" x1="344" y1="126.5" x2="424" y2="126.5" gradientUnits="userSpaceOnUse">
<stop stop-color="#CED4DA"/>
<stop offset="1" stop-color="#534D4A"/>
</linearGradient>
</defs>
</svg>
