<svg width="960" height="328" viewBox="0 0 960 328" fill="none" xmlns="http://www.w3.org/2000/svg">
<rect x="0.5" y="0.5" width="303" height="327" rx="31.5" stroke="#E9ECEF"/>
<g clip-path="url(#clip0_901_29417)">
<rect x="12" y="12" width="280" height="180" rx="24" fill="url(#paint0_linear_901_29417)"/>
<g clip-path="url(#clip1_901_29417)">
<path d="M141.161 64.5176V76.5346L129.57 83.2591L129.633 71.2421L141.161 64.5176Z" fill="#BDBDBD"/>
<path d="M129.63 71.2421L129.567 83.2591L117.914 76.5346L117.977 64.5176L129.63 71.2421Z" fill="#C8C8C8"/>
<path d="M141.157 64.5175L129.629 71.242L117.977 64.5175L129.504 57.793L141.157 64.5175Z" fill="#DDDFE0"/>
<path d="M149.372 45.7129V54.4921L140.914 59.411V50.6318L149.372 45.7129Z" fill="#A1A1A1"/>
<path d="M140.911 50.6318V59.411L132.391 54.4921V45.7129L140.911 50.6318Z" fill="#B9B9B9"/>
<path d="M149.369 45.7138L140.911 50.6327L132.391 45.7138L140.848 40.7949L149.369 45.7138Z" fill="#D4D4D4"/>
<path d="M181.256 97.207L181.131 123.42L155.945 138.052L156.008 111.839L181.256 97.207Z" fill="#A1A1A1"/>
<path d="M156.006 111.839L155.944 138.052L130.57 123.42L130.633 97.207L156.006 111.839Z" fill="#B9B9B9"/>
<path d="M181.254 97.2063L156.006 111.838L130.633 97.2063L155.818 82.5742L181.254 97.2063Z" fill="#CCCBCB"/>
<path d="M177.869 95.0879V105.86L167.469 111.899L167.531 101.128L177.869 95.0879Z" fill="#D3D3D3"/>
<path d="M167.533 101.128L167.47 111.899L157.07 105.86L157.133 95.0879L167.533 101.128Z" fill="#E6E6E6"/>
<path d="M177.87 95.0887L167.533 101.128L157.133 95.0887L167.47 89.1113L177.87 95.0887Z" fill="#F4F4FA"/>
<path d="M156.322 151.062V161.834L145.984 167.812V157.04L156.322 151.062Z" fill="#D3D3D3"/>
<path d="M145.986 157.04V167.812L135.523 161.834L135.586 151.062L145.986 157.04Z" fill="#E6E6E6"/>
<path d="M156.323 151.063L145.986 157.041L135.586 151.063L145.923 145.086L156.323 151.063Z" fill="#F4F4F4"/>
<path d="M159.517 78.9629V93.0969L145.922 101.004V86.8704L159.517 78.9629Z" fill="#D3D3D3"/>
<path d="M145.923 86.8704V101.004L132.203 93.0969L132.266 78.9629L145.923 86.8704Z" fill="#E6E6E6"/>
<path d="M159.518 78.9622L145.923 86.8698L132.266 78.9622L145.861 71.0547L159.518 78.9622Z" fill="#F4F4F4"/>
<path d="M144.797 120.492L144.734 137.428L128.445 146.892L128.508 129.956L144.797 120.492Z" fill="#D3D3D3"/>
<path d="M128.508 129.956L128.445 146.892L112.094 137.428V120.492L128.508 129.956Z" fill="#E6E6E6"/>
<path d="M144.797 120.492L128.508 129.956L112.094 120.492L128.383 111.09L144.797 120.492Z" fill="#F4F4F4"/>
<path d="M199.55 118.748L199.487 136.867L182.133 146.954L182.195 128.835L199.55 118.748Z" fill="#D3D3D3"/>
<path d="M182.198 128.835L182.136 146.954L164.594 136.867L164.656 118.748L182.198 128.835Z" fill="#E6E6E6"/>
<path d="M199.552 118.749L182.198 128.836L164.656 118.749L182.073 108.662L199.552 118.749Z" fill="#F4F4F4"/>
<path d="M183.886 53.3105V68.3785L169.414 76.7841L169.477 61.7162L183.886 53.3105Z" fill="#A1A1A1"/>
<path d="M169.48 61.7162L169.418 76.7841L154.82 68.3785L154.883 53.3105L169.48 61.7162Z" fill="#B9B9B9"/>
<path d="M183.89 53.31L169.48 61.7156L154.883 53.31L169.355 44.9043L183.89 53.31Z" fill="#CCCBCB"/>
<path d="M147.798 132.135V139.357L140.844 143.342L140.906 136.182L147.798 132.135Z" fill="#E7E7E7"/>
<path d="M140.907 136.182L140.845 143.342L133.891 139.357V132.135L140.907 136.182Z" fill="#C8C8C8"/>
<path d="M147.799 132.135L140.907 136.182L133.891 132.135L140.845 128.15L147.799 132.135Z" fill="#DDDFE0"/>
<path d="M117.222 113.58V121.674L109.453 126.22V118.063L117.222 113.58Z" fill="#E7E7E7"/>
<path d="M109.456 118.063V126.22L101.625 121.674V113.58L109.456 118.063Z" fill="#C8C8C8"/>
<path d="M117.225 113.58L109.456 118.063L101.625 113.58L109.394 109.035L117.225 113.58Z" fill="#DDDFE0"/>
<path d="M194.168 94.8379V100.006L189.219 102.87V97.702L194.168 94.8379Z" fill="#E7E7E7"/>
<path d="M189.215 97.702V102.87L184.266 100.006V94.8379L189.215 97.702Z" fill="#C8C8C8"/>
<path d="M194.164 94.8388L189.215 97.7029L184.266 94.8388L189.215 91.9746L194.164 94.8388Z" fill="#DDDFE0"/>
<path d="M110.528 139.607L110.465 144.775L105.516 147.639L105.578 142.472L110.528 139.607Z" fill="#E7E7E7"/>
<path d="M105.575 142.472L105.512 147.639L100.562 144.775V139.607L105.575 142.472Z" fill="#C8C8C8"/>
<path d="M110.524 139.608L105.575 142.472L100.562 139.608L105.512 136.744L110.524 139.608Z" fill="#DDDFE0"/>
<path d="M172.301 41.1055V49.6356L164.031 54.43L164.094 45.8998L172.301 41.1055Z" fill="#D1D1D1"/>
<path d="M164.09 45.8998L164.028 54.43L155.758 49.6356V41.1055L164.09 45.8998Z" fill="#E6E6E6"/>
<path d="M172.297 41.1049L164.09 45.8992L155.758 41.1049L164.028 36.3105L172.297 41.1049Z" fill="#F4F4F4"/>
<path d="M177.812 140.229L177.749 149.879L168.414 155.296L168.477 145.646L177.812 140.229Z" fill="#A1A1A1"/>
<path d="M168.476 145.646L168.413 155.296L159.078 149.879V140.229L168.476 145.646Z" fill="#B9B9B9"/>
<path d="M177.81 140.229L168.476 145.646L159.078 140.229L168.413 134.812L177.81 140.229Z" fill="#D4D4D4"/>
<path d="M128.19 92.7852V104.117L117.289 110.468V99.0738L128.19 92.7852Z" fill="#A1A1A1"/>
<path d="M117.292 99.0738V110.468L106.328 104.117V92.7852L117.292 99.0738Z" fill="#B9B9B9"/>
<path d="M128.193 92.7845L117.292 99.0732L106.328 92.7845L117.229 86.4336L128.193 92.7845Z" fill="#D4D4D4"/>
<path d="M202.619 114.08L202.557 121.801L195.164 126.097V118.376L202.619 114.08Z" fill="#A1A1A1"/>
<path d="M195.166 118.376V126.097L187.711 121.801V114.08L195.166 118.376Z" fill="#B9B9B9"/>
<path d="M202.622 114.079L195.166 118.376L187.711 114.079L195.166 109.783L202.622 114.079Z" fill="#D4D4D4"/>
<path d="M203.995 64.8281V76.1602L193.094 82.5112V71.1168L203.995 64.8281Z" fill="#BDBDBD"/>
<path d="M193.097 71.1168V82.5112L182.07 76.1602L182.133 64.8281L193.097 71.1168Z" fill="#C8C8C8"/>
<path d="M203.998 64.8275L193.097 71.1162L182.133 64.8275L193.034 58.4766L203.998 64.8275Z" fill="#DDDFE0"/>
<path d="M184.264 79.8945L184.201 85.8719L178.5 89.2342V83.1945L184.264 79.8945Z" fill="#D3D3D3"/>
<path d="M178.498 83.1945V89.2342L172.672 85.8719V79.8945L178.498 83.1945Z" fill="#E6E6E6"/>
<path d="M184.262 79.8955L178.498 83.1955L172.672 79.8955L178.436 76.5332L184.262 79.8955Z" fill="#F4F4FA"/>
</g>
<rect width="106" height="180" transform="translate(186 12)" fill="url(#paint1_linear_901_29417)"/>
<rect width="106" height="180" transform="translate(118 192) rotate(-180)" fill="url(#paint2_linear_901_29417)"/>
</g>
<rect x="12.5" y="12.5" width="279" height="179" rx="23.5" stroke="black" stroke-opacity="0.06"/>
<path d="M31.4512 220.547C31.2871 219.453 30.4463 218.79 29.291 218.783C27.7529 218.79 26.7344 219.966 26.7344 222.051C26.7344 224.184 27.7666 225.312 29.2773 225.318C30.4053 225.312 31.2529 224.696 31.4512 223.623L33.5293 223.637C33.3037 225.469 31.7656 227.137 29.25 227.137C26.6045 227.137 24.6426 225.271 24.6426 222.051C24.6426 218.817 26.6387 216.965 29.25 216.965C31.5332 216.965 33.2559 218.271 33.5293 220.547H31.4512ZM38.2598 227.15C36.0176 227.144 34.6162 225.605 34.623 223.309C34.6162 221.019 36.0176 219.48 38.2598 219.48C40.5088 219.48 41.9033 221.019 41.9102 223.309C41.9033 225.605 40.5088 227.144 38.2598 227.15ZM36.6738 223.309C36.6738 224.607 37.2139 225.571 38.2734 225.578C39.3057 225.571 39.8525 224.607 39.8457 223.309C39.8525 222.003 39.3057 221.025 38.2734 221.025C37.2139 221.025 36.6738 222.003 36.6738 223.309ZM43.1816 227V219.576H45.1094V220.875H45.1914C45.5059 220.007 46.2578 219.48 47.2559 219.48C48.2744 219.48 49.0332 220.021 49.2793 220.875H49.3477C49.6553 220.034 50.5029 219.48 51.5898 219.48C52.9639 219.48 53.9277 220.39 53.9277 222.01V227H51.9043V222.406C51.9111 221.559 51.4053 221.148 50.7422 221.148C49.9834 221.148 49.5322 221.675 49.5391 222.461V227H47.5703V222.352C47.5771 221.62 47.1123 221.148 46.4219 221.148C45.7314 221.148 45.1982 221.702 45.2051 222.543V227H43.1816ZM55.4863 229.789V219.576H57.4824V220.82H57.5645C57.8447 220.219 58.4326 219.48 59.6836 219.48C61.3242 219.48 62.6982 220.752 62.6914 223.295C62.6982 225.776 61.3789 227.123 59.6836 227.123C58.4736 227.123 57.8516 226.426 57.5645 225.811H57.5098V229.789H55.4863ZM57.4688 223.281C57.4619 224.621 58.0361 225.503 59.041 225.51C60.0732 225.503 60.6338 224.594 60.627 223.281C60.6338 221.989 60.0869 221.094 59.041 221.094C58.0293 221.094 57.4619 221.948 57.4688 223.281ZM66.0273 217.102V227H64.0039V217.102H66.0273ZM70.9629 227.15C68.6865 227.144 67.292 225.674 67.2988 223.322C67.292 221.032 68.707 219.48 70.8809 219.48C72.8291 219.48 74.3672 220.711 74.3672 223.24V223.814H69.2949C69.2949 224.936 69.958 225.626 71.0039 225.633C71.6943 225.626 72.1865 225.325 72.3848 224.881H74.3125C74.0254 226.255 72.7949 227.144 70.9629 227.15ZM69.2949 222.543H72.4531C72.4463 221.641 71.8242 220.991 70.9219 220.998C69.9922 220.991 69.3359 221.688 69.2949 222.543ZM77.1973 219.576L78.5781 222.188L79.9863 219.576H82.0781L79.9043 223.281L82.1328 227H80.0547L78.5781 224.416L77.1289 227H75.0234L77.2383 223.281L75.1055 219.576H77.1973ZM89.9805 227H86.4941V217.102H90.0215C93.002 217.102 94.8271 218.954 94.8203 222.037C94.8271 225.134 93.002 227 89.9805 227ZM88.5449 225.236H89.8984C91.7852 225.236 92.7695 224.259 92.7695 222.037C92.7695 219.836 91.7852 218.865 89.9121 218.865H88.5449V225.236ZM95.9141 224.922C95.9209 223.268 97.2471 222.728 98.6758 222.639C99.209 222.604 100.207 222.557 100.521 222.543V221.941C100.515 221.319 100.091 220.964 99.332 220.957C98.6416 220.964 98.2109 221.271 98.1016 221.777H96.1738C96.2969 220.492 97.418 219.48 99.3867 219.48C101.007 219.48 102.538 220.205 102.531 221.996V227H100.617V225.975H100.562C100.2 226.658 99.4893 227.144 98.3887 227.137C96.9668 227.144 95.9209 226.392 95.9141 224.922ZM97.8555 224.867C97.8555 225.435 98.3135 225.735 98.9629 225.742C99.8857 225.735 100.528 225.134 100.521 224.348V223.808C100.214 223.821 99.3457 223.869 99.0039 223.896C98.2998 223.958 97.8555 224.293 97.8555 224.867ZM107.986 219.576V221.094H106.592V224.717C106.585 225.312 106.879 225.455 107.289 225.469C107.494 225.469 107.85 225.448 108.096 225.428V227.027C107.877 227.062 107.515 227.103 107.016 227.096C105.553 227.103 104.555 226.446 104.568 225.004V221.094H103.543V219.576H104.568V217.799H106.592V219.576H107.986ZM108.902 224.922C108.909 223.268 110.235 222.728 111.664 222.639C112.197 222.604 113.195 222.557 113.51 222.543V221.941C113.503 221.319 113.079 220.964 112.32 220.957C111.63 220.964 111.199 221.271 111.09 221.777H109.162C109.285 220.492 110.406 219.48 112.375 219.48C113.995 219.48 115.526 220.205 115.52 221.996V227H113.605V225.975H113.551C113.188 226.658 112.478 227.144 111.377 227.137C109.955 227.144 108.909 226.392 108.902 224.922ZM110.844 224.867C110.844 225.435 111.302 225.735 111.951 225.742C112.874 225.735 113.517 225.134 113.51 224.348V223.808C113.202 223.821 112.334 223.869 111.992 223.896C111.288 223.958 110.844 224.293 110.844 224.867Z" fill="#252B37"/>
<path d="M34.4453 253.457C33.6797 253.457 33.0508 252.828 33.0508 252.049C33.0508 251.283 33.6797 250.654 34.4453 250.654C35.2246 250.654 35.8535 251.283 35.8535 252.049C35.8535 252.828 35.2246 253.457 34.4453 253.457ZM55.2402 246.184V247.4C55.2266 248.891 55.2266 250.559 54.7891 253.006L53.6953 252.883C54.1533 250.559 54.1533 248.856 54.1602 247.4V247.072H46.668V246.184H55.2402ZM45.4922 255.385V254.496H49.8398V250.148H50.8926V254.496H56.5664V255.385H45.4922ZM63.9355 245.637V250.586H58.2344V245.637H63.9355ZM59.2871 249.738H62.8828V246.512H59.2871V249.738ZM59.7246 252.691V251.83H67.6133V254.729H60.8047V256.096H68.0508V256.971H59.7383V253.936H66.5605V252.691H59.7246ZM66.5605 251.229V244.953H67.6133V251.229H66.5605ZM79.5078 250.654V251.529H75.748V254.674H80.8203V255.576H69.6914V254.674H74.6953V251.529H71.1133V245.951H79.3848V246.826H72.1934V250.654H79.5078ZM95.709 244.953V257.107H94.6699V244.953H95.709ZM85.7832 254.182V246.457H90.3633V247.346H86.8223V253.279C88.5791 253.266 89.6865 253.204 90.9922 252.91L91.1016 253.826C89.6934 254.113 88.5039 254.175 86.5488 254.182H85.7832ZM89.543 250.504V249.602H92.1953V245.254H93.2207V256.479H92.1953V250.504H89.543ZM107.426 244.953V257.135H106.346V244.953H107.426ZM97.8555 250.135C97.8623 247.551 99.1475 245.903 100.959 245.896C102.764 245.903 104.069 247.551 104.062 250.135C104.069 252.726 102.764 254.366 100.959 254.359C99.1475 254.366 97.8623 252.726 97.8555 250.135ZM98.8945 250.135C98.8945 252.11 99.7422 253.409 100.959 253.402C102.183 253.409 103.023 252.11 103.023 250.135C103.023 248.159 102.183 246.86 100.959 246.854C99.7422 246.86 98.8945 248.159 98.8945 250.135ZM119.58 244.953V257.135H118.514V250.436H115.943V249.547H118.514V244.953H119.58ZM110.064 254.195V246.074H115.738V246.963H111.145V249.492H115.205V250.367H111.145V253.307C113.373 253.3 114.809 253.238 116.477 252.938L116.6 253.826C114.829 254.113 113.346 254.195 110.994 254.195H110.064ZM34.4453 274.457C33.6797 274.457 33.0508 273.828 33.0508 273.049C33.0508 272.283 33.6797 271.654 34.4453 271.654C35.2246 271.654 35.8535 272.283 35.8535 273.049C35.8535 273.828 35.2246 274.457 34.4453 274.457ZM55.8965 265.953V278.107H54.8711V265.953H55.8965ZM45.4785 274.703C48.124 273.138 49.4502 270.943 49.6621 268.4H46.0254V267.512H50.7285C50.7285 268.134 50.6738 268.749 50.5645 269.344H52.4102V266.281H53.4355V277.492H52.4102V273.281H50.1543V272.393H52.4102V270.232H50.3525C49.7646 272.29 48.4316 274.108 46.1348 275.482L45.4785 274.703ZM68.666 272.133V273.021H57.5918V272.133H68.666ZM58.2344 270.506C60.5107 270.294 62.4385 269.371 62.5342 268.018H58.7402V267.143H62.5957V265.926H63.6484V267.143H67.5449V268.018H63.7168C63.8057 269.371 65.7402 270.294 68.0098 270.506L67.6816 271.34C65.6719 271.128 63.8672 270.403 63.1289 269.18C62.3838 270.403 60.5859 271.128 58.5762 271.34L58.2344 270.506ZM58.9316 276.07C58.9248 274.765 60.4834 274.061 63.1289 274.061C65.7607 274.061 67.2988 274.765 67.3125 276.07C67.2988 277.376 65.7607 278.08 63.1289 278.08C60.4834 278.08 58.9248 277.376 58.9316 276.07ZM60.0254 276.07C60.0117 276.836 61.1602 277.26 63.1289 277.246C65.0771 277.26 66.2256 276.836 66.2324 276.07C66.2256 275.305 65.0771 274.874 63.1289 274.867C61.1602 274.874 60.0117 275.305 60.0254 276.07ZM84.2793 272.242V273.131H73.2051V272.242H78.209V270.779H74.6816V266.24H75.748V267.648H81.7637V266.24H82.8301V270.779H79.2754V272.242H84.2793ZM74.4355 275.195V274.334H82.9121V278.107H81.832V275.195H74.4355ZM75.748 269.918H81.7637V268.469H75.748V269.918ZM89.4199 268.086C89.4062 269.658 90.6162 271.08 92.4141 271.654L91.8945 272.488C90.4863 272.03 89.4131 271.073 88.8867 269.863C88.3672 271.21 87.2393 272.249 85.7832 272.748L85.2227 271.9C87.0547 271.285 88.333 269.809 88.3398 268.1V267.662H85.5781V266.773H92.127V267.662H89.4199V268.086ZM87.1094 277.943V273.199H88.1758V274.689H93.7402V273.199H94.8066V277.943H87.1094ZM88.1758 277.068H93.7402V275.537H88.1758V277.068ZM93.7402 272.611V265.953H94.8066V268.77H96.6387V269.672H94.8066V272.611H93.7402ZM34.4453 295.457C33.6797 295.457 33.0508 294.828 33.0508 294.049C33.0508 293.283 33.6797 292.654 34.4453 292.654C35.2246 292.654 35.8535 293.283 35.8535 294.049C35.8535 294.828 35.2246 295.457 34.4453 295.457ZM49.8125 290.221C49.8057 292.442 51.3164 294.671 53.1074 295.484L52.4512 296.332C51.0635 295.662 49.8672 294.22 49.2861 292.49C48.7256 294.322 47.5293 295.86 46.1074 296.578L45.4238 295.676C47.2354 294.849 48.7324 292.524 48.7461 290.221V288.006H49.8125V290.221ZM54.4336 299.135V286.953H55.5137V299.135H54.4336ZM67.0938 286.953V290.043H68.9258V290.959H67.0938V294.09H66.0273V286.953H67.0938ZM57.5781 293.119C60.5586 292.312 62.3975 290.686 62.6162 288.621H58.125V287.732H63.7578C63.751 290.809 61.6045 293.003 58.0156 293.953L57.5781 293.119ZM59.1367 295.525V294.65H67.0938V299.107H66.0273V295.525H59.1367ZM73.916 289.195C73.916 290.774 75.1328 292.285 76.9102 292.9L76.3496 293.748C74.9824 293.256 73.9229 292.237 73.4033 290.986C72.877 292.381 71.749 293.502 70.3066 294.035L69.7461 293.188C71.5371 292.545 72.8359 290.925 72.8359 289.209V288.676H70.0879V287.801H76.6367V288.676H73.916V289.195ZM71.5918 295.771V294.883H79.7676V299.107H78.6875V295.771H71.5918ZM76.2539 291.041V290.139H78.6875V286.953H79.7676V294.24H78.6875V291.041H76.2539ZM95.3535 286.953V299.107H94.2734V286.953H95.3535ZM85.291 295.184C85.8174 295.184 86.3848 295.177 86.9727 295.17V289.168H85.6055V288.279H92.5508V289.168H91.1699V295.013C91.8535 294.965 92.5303 294.903 93.1797 294.828L93.248 295.635C90.5957 296.045 87.6631 296.086 85.4141 296.1L85.291 295.184ZM88.0254 295.149C88.709 295.136 89.4131 295.108 90.1172 295.074V289.168H88.0254V295.149ZM108.533 296.701V297.604H97.4043V296.701H102.408V294.404H98.7988V290.658H106.072V288.744H98.7715V287.855H107.125V291.533H99.8652V293.516H107.412V294.404H103.461V296.701H108.533Z" fill="#717680"/>
<path d="M479.998 157.496C496.333 157.496 504.496 146.528 504.496 132.998C504.496 119.468 496.333 108.5 479.998 108.5C463.663 108.5 455.5 119.468 455.5 132.998C455.5 146.528 463.663 157.496 479.998 157.496Z" fill="url(#paint3_radial_901_29417)"/>
<path d="M479.998 157.496C496.333 157.496 504.496 146.528 504.496 132.998C504.496 119.468 496.333 108.5 479.998 108.5C463.663 108.5 455.5 119.468 455.5 132.998C455.5 146.528 463.663 157.496 479.998 157.496Z" fill="url(#paint4_radial_901_29417)"/>
<path d="M479.998 157.496C496.333 157.496 504.496 146.528 504.496 132.998C504.496 119.468 496.333 108.5 479.998 108.5C463.663 108.5 455.5 119.468 455.5 132.998C455.5 146.528 463.663 157.496 479.998 157.496Z" fill="url(#paint5_radial_901_29417)"/>
<path d="M479.998 157.496C496.333 157.496 504.496 146.528 504.496 132.998C504.496 119.468 496.333 108.5 479.998 108.5C463.663 108.5 455.5 119.468 455.5 132.998C455.5 146.528 463.663 157.496 479.998 157.496Z" fill="url(#paint6_radial_901_29417)" fill-opacity="0.6"/>
<path d="M479.998 157.496C496.333 157.496 504.496 146.528 504.496 132.998C504.496 119.468 496.333 108.5 479.998 108.5C463.663 108.5 455.5 119.468 455.5 132.998C455.5 146.528 463.663 157.496 479.998 157.496Z" fill="url(#paint7_radial_901_29417)"/>
<path d="M479.998 157.496C496.333 157.496 504.496 146.528 504.496 132.998C504.496 119.468 496.333 108.5 479.998 108.5C463.663 108.5 455.5 119.468 455.5 132.998C455.5 146.528 463.663 157.496 479.998 157.496Z" fill="url(#paint8_radial_901_29417)"/>
<path d="M479.998 157.496C496.333 157.496 504.496 146.528 504.496 132.998C504.496 119.468 496.333 108.5 479.998 108.5C463.663 108.5 455.5 119.468 455.5 132.998C455.5 146.528 463.663 157.496 479.998 157.496Z" fill="url(#paint9_radial_901_29417)"/>
<path d="M479.998 157.496C496.333 157.496 504.496 146.528 504.496 132.998C504.496 119.468 496.333 108.5 479.998 108.5C463.663 108.5 455.5 119.468 455.5 132.998C455.5 146.528 463.663 157.496 479.998 157.496Z" fill="url(#paint10_radial_901_29417)"/>
<path d="M469.503 142.625V137.269C469.503 135.878 468.375 134.75 466.984 134.75C465.513 134.75 464.35 136.007 464.329 137.478C464.294 139.86 463.965 143.013 462.503 143.5C457.253 145.25 455.503 153.125 459.878 156.625C463.378 159.425 466.878 159.25 469.503 159.25H474.34C475.535 159.25 476.503 158.282 476.503 157.087C476.503 156.267 476.04 155.518 475.307 155.152L474.753 154.875H476.012C476.815 154.875 477.515 154.328 477.71 153.549L477.829 153.073C478.044 152.21 477.392 151.375 476.503 151.375L477.079 151.087C477.799 150.727 478.253 149.992 478.253 149.188C478.253 148.383 477.799 147.648 477.079 147.288L476.503 147H479.565C480.774 147 481.753 146.021 481.753 144.812C481.753 143.604 480.774 142.625 479.565 142.625H469.503Z" fill="url(#paint11_radial_901_29417)"/>
<path d="M474.75 138.25C474.75 138.25 476.717 135.97 480.438 136.5C484.158 137.03 485.25 140 485.25 140" stroke="#402A32" stroke-width="3.5" stroke-linecap="round" stroke-linejoin="round"/>
<path d="M467.78 136.665C472.297 136.665 475.958 133.004 475.958 128.487C475.958 123.97 472.297 120.309 467.78 120.309C463.263 120.309 459.602 123.97 459.602 128.487C459.602 133.004 463.263 136.665 467.78 136.665Z" fill="url(#paint12_radial_901_29417)"/>
<path d="M485.678 136.83C489.78 136.83 493.105 133.504 493.105 129.402C493.105 125.3 489.78 121.975 485.678 121.975C481.575 121.975 478.25 125.3 478.25 129.402C478.25 133.504 481.575 136.83 485.678 136.83Z" fill="url(#paint13_radial_901_29417)"/>
<path d="M470.235 133.393C474.301 133.393 477.596 130.097 477.596 126.032C477.596 121.967 474.301 118.672 470.235 118.672C466.17 118.672 462.875 121.967 462.875 126.032C462.875 130.097 466.17 133.393 470.235 133.393Z" fill="white"/>
<path d="M489.748 133.527C493.85 133.527 497.175 130.202 497.175 126.099C497.175 121.997 493.85 118.672 489.748 118.672C485.646 118.672 482.32 121.997 482.32 126.099C482.32 130.202 485.646 133.527 489.748 133.527Z" fill="white"/>
<path fill-rule="evenodd" clip-rule="evenodd" d="M474.75 125.125C474.75 128.025 472.4 130.375 469.5 130.375C466.601 130.375 464.25 128.025 464.25 125.125C464.25 122.226 466.601 119.875 469.5 119.875C472.4 119.875 474.75 122.226 474.75 125.125ZM494 125.125C494 128.025 491.65 130.375 488.75 130.375C485.85 130.375 483.5 128.025 483.5 125.125C483.5 122.226 485.85 119.875 488.75 119.875C491.65 119.875 494 122.226 494 125.125Z" fill="url(#paint14_linear_901_29417)"/>
<g filter="url(#filter0_f_901_29417)">
<path fill-rule="evenodd" clip-rule="evenodd" d="M474.232 155.204L474.328 154.823C474.543 153.96 473.891 153.125 473.002 153.125L473.578 152.837C474.298 152.477 474.752 151.742 474.752 150.938C474.752 150.133 474.298 149.398 473.578 149.038L473.002 148.75H476.065C477.273 148.75 478.252 147.771 478.252 146.562C478.252 145.354 477.273 144.375 476.065 144.375H466.002V139.019C466.002 137.628 464.874 136.5 463.483 136.5C462.012 136.5 460.849 137.757 460.828 139.228C460.801 141.079 460.596 143.395 459.82 144.564C462.51 149.888 467.314 153.817 474.232 155.204Z" fill="#E4694E"/>
</g>
<path d="M469.503 142.625V137.269C469.503 135.878 468.375 134.75 466.984 134.75C465.513 134.75 464.35 136.007 464.329 137.478C464.294 139.86 463.965 143.013 462.503 143.5C457.253 145.25 455.503 153.125 459.878 156.625C463.378 159.425 466.878 159.25 469.503 159.25H474.34C475.535 159.25 476.503 158.282 476.503 157.087C476.503 156.267 476.04 155.518 475.307 155.152L474.753 154.875H476.012C476.815 154.875 477.515 154.328 477.71 153.549L477.829 153.073C478.044 152.21 477.392 151.375 476.503 151.375L477.079 151.087C477.799 150.727 478.253 149.992 478.253 149.188C478.253 148.383 477.799 147.648 477.079 147.288L476.503 147H479.565C480.774 147 481.753 146.021 481.753 144.812C481.753 143.604 480.774 142.625 479.565 142.625H469.503Z" fill="url(#paint15_radial_901_29417)"/>
<path d="M469.503 142.625V137.269C469.503 135.878 468.375 134.75 466.984 134.75C465.513 134.75 464.35 136.007 464.329 137.478C464.294 139.86 463.965 143.013 462.503 143.5C457.253 145.25 455.503 153.125 459.878 156.625C463.378 159.425 466.878 159.25 469.503 159.25H474.34C475.535 159.25 476.503 158.282 476.503 157.087C476.503 156.267 476.04 155.518 475.307 155.152L474.753 154.875H476.012C476.815 154.875 477.515 154.328 477.71 153.549L477.829 153.073C478.044 152.21 477.392 151.375 476.503 151.375L477.079 151.087C477.799 150.727 478.253 149.992 478.253 149.188C478.253 148.383 477.799 147.648 477.079 147.288L476.503 147H479.565C480.774 147 481.753 146.021 481.753 144.812C481.753 143.604 480.774 142.625 479.565 142.625H469.503Z" fill="url(#paint16_radial_901_29417)"/>
<path d="M473.875 112.875C473.292 112.292 471.6 111.125 469.5 111.125C467.4 111.125 465.708 112.292 465.125 112.875" stroke="#402A32" stroke-width="1.75" stroke-linecap="round" stroke-linejoin="round"/>
<path d="M484.375 119.875C484.375 119.875 486.125 118.125 489.625 118.125C493.125 118.125 494.875 119.875 494.875 119.875" stroke="#402A32" stroke-width="1.75" stroke-linecap="round" stroke-linejoin="round"/>
<g opacity="0.8" filter="url(#filter1_f_901_29417)">
<path d="M481.75 145.25H469.5V147H481.75V145.25Z" fill="#FFA048"/>
</g>
<path d="M471.25 147H476.5C477.467 147 478.25 147.783 478.25 148.75L471.25 147Z" fill="url(#paint17_linear_901_29417)"/>
<path d="M471.25 154.875H474.75C475.717 154.875 476.5 155.658 476.5 156.625L471.25 154.875Z" fill="url(#paint18_linear_901_29417)"/>
<path d="M471.25 151.375H476.5C477.467 151.375 478.25 152.158 478.25 153.125L471.25 151.375Z" fill="url(#paint19_linear_901_29417)"/>
<path d="M434.042 190.982V192.391H422.694V190.982H427.479V189.93H424.144V185.117H425.866V186.252H430.856V185.117H432.593V189.93H429.229V190.982H434.042ZM423.952 194.619V193.238H432.661V197.258H430.925V194.619H423.952ZM425.866 188.562H430.856V187.537H425.866V188.562ZM441.835 185.5V186.895H439.36C439.401 188.255 440.297 189.615 442.272 190.189L441.452 191.529C440.03 191.126 439.053 190.285 438.492 189.226C437.938 190.408 436.934 191.345 435.45 191.789L434.562 190.408C436.599 189.813 437.542 188.351 437.597 186.895H435.054V185.5H441.835ZM436.489 197.121V192.172H438.239V193.307H442.915V192.172H444.665V197.121H436.489ZM438.239 195.727H442.915V194.646H438.239V195.727ZM442.915 191.666V184.816H444.665V187.469H446.347V188.891H444.665V191.666H442.915ZM456.765 184.83V188.645H458.446V190.066H456.765V194.113H455.015V184.83H456.765ZM446.894 187.51V186.129H449.724V184.803H451.46V186.129H454.276V187.51H446.894ZM447.495 190.354C447.495 188.911 448.773 187.947 450.585 187.947C452.39 187.947 453.647 188.911 453.647 190.354C453.647 191.789 452.39 192.732 450.585 192.732C448.773 192.732 447.495 191.789 447.495 190.354ZM448.698 197.039V193.402H450.435V195.645H457.216V197.039H448.698ZM449.204 190.354C449.197 191.037 449.751 191.406 450.585 191.406C451.426 191.406 451.993 191.037 451.993 190.354C451.993 189.663 451.426 189.28 450.585 189.273C449.751 189.28 449.197 189.663 449.204 190.354ZM473.007 184.816V197.258H471.325V184.816H473.007ZM462.603 194.482V186.225H467.36V187.619H464.312V193.04C465.638 193.026 466.649 192.951 467.812 192.719L467.948 194.141C466.54 194.421 465.289 194.482 463.464 194.482H462.603ZM466.513 190.777V189.355H468.741V185.035H470.368V196.697H468.741V190.777H466.513ZM484.737 184.816V197.285H482.974V184.816H484.737ZM474.688 190.121C474.682 187.407 476.069 185.691 477.983 185.691C479.856 185.691 481.251 187.407 481.251 190.121C481.251 192.855 479.856 194.564 477.983 194.564C476.069 194.564 474.682 192.855 474.688 190.121ZM476.37 190.121C476.363 191.974 477.013 192.985 477.983 192.979C478.927 192.985 479.562 191.974 479.569 190.121C479.562 188.275 478.927 187.264 477.983 187.264C477.013 187.264 476.363 188.275 476.37 190.121ZM496.919 184.816V197.285H495.196V190.613H493.009V189.205H495.196V184.816H496.919ZM486.993 194.469V185.855H492.804V187.264H488.729V189.328H492.353V190.695H488.729V193.047C490.459 193.033 491.84 192.972 493.378 192.732L493.556 194.127C491.737 194.4 490.11 194.462 487.978 194.469H486.993ZM509.306 184.816V197.258H507.638V184.816H509.306ZM498.628 190.203C498.628 187.421 499.688 185.698 501.335 185.705C502.832 185.698 503.857 187.1 504.049 189.424H505.067V184.994H506.708V196.684H505.067V190.805H504.062C503.912 193.245 502.866 194.729 501.335 194.729C499.688 194.729 498.628 192.999 498.628 190.203ZM500.241 190.203C500.228 192.117 500.638 193.061 501.335 193.047C502.053 193.061 502.477 192.117 502.47 190.203C502.477 188.296 502.053 187.346 501.335 187.346C500.638 187.346 500.228 188.296 500.241 190.203ZM524.604 184.816V197.258H522.95V191.01H521.747V196.656H520.147V185.021H521.747V189.615H522.95V184.816H524.604ZM514.2 194.441V186.252H518.835V187.66H515.95V192.979C517.153 192.958 518.22 192.89 519.423 192.678L519.546 194.1C518.028 194.387 516.702 194.435 515.062 194.441H514.2ZM535.815 184.83V188.645H537.497V190.066H535.815V194.113H534.065V184.83H535.815ZM525.944 187.51V186.129H528.774V184.803H530.511V186.129H533.327V187.51H525.944ZM526.546 190.354C526.546 188.911 527.824 187.947 529.636 187.947C531.44 187.947 532.698 188.911 532.698 190.354C532.698 191.789 531.44 192.732 529.636 192.732C527.824 192.732 526.546 191.789 526.546 190.354ZM527.749 197.039V193.402H529.485V195.645H536.267V197.039H527.749ZM528.255 190.354C528.248 191.037 528.802 191.406 529.636 191.406C530.477 191.406 531.044 191.037 531.044 190.354C531.044 189.663 530.477 189.28 529.636 189.273C528.802 189.28 528.248 189.663 528.255 190.354ZM410.807 206.541V207.662C410.8 208.824 410.8 210.089 410.485 211.832H412.133V213.24H407.279V218.271H405.529V213.24H400.785V211.832H408.715C409.036 210.232 409.063 209.009 409.07 207.936H402.084V206.541H410.807ZM424.273 215.4V216.809H412.885V215.4H417.697V212.625H419.447V215.4H424.273ZM413.35 211.791C415.934 211.374 417.479 209.815 417.629 208.168H413.828V206.76H423.275V208.168H419.488C419.625 209.809 421.184 211.333 423.85 211.723L423.166 213.104C420.985 212.721 419.372 211.661 418.565 210.185C417.779 211.682 416.18 212.782 414.033 213.172L413.35 211.791ZM434.938 205.816V210.875H436.564V212.324H434.938V218.258H433.174V205.816H434.938ZM424.834 214.744C425.743 214.744 426.803 214.744 427.91 214.717V213.65C426.591 213.391 425.729 212.55 425.736 211.395C425.729 210.007 426.987 209.057 428.799 209.057C430.576 209.057 431.848 210.007 431.861 211.395C431.848 212.55 430.973 213.397 429.66 213.65V214.655C430.645 214.601 431.636 214.519 432.559 214.389L432.668 215.66C430.022 216.152 427.165 216.173 425.066 216.166L424.834 214.744ZM425.08 208.564V207.197H427.91V205.885H429.66V207.197H432.463V208.564H425.08ZM427.391 211.395C427.384 212.051 427.944 212.406 428.799 212.406C429.626 212.406 430.18 212.051 430.18 211.395C430.18 210.752 429.626 210.39 428.799 210.383C427.944 210.39 427.384 210.752 427.391 211.395ZM444.344 209.631V211.025H442.115V212.283C443.1 212.235 444.077 212.174 445 212.078L445.123 213.322C442.484 213.691 439.675 213.76 437.371 213.76L437.139 212.379C438.137 212.379 439.237 212.365 440.365 212.338V211.025H438.191V206.568H444.234V207.963H439.941V209.631H444.344ZM439.066 218.039V214.471H440.83V216.645H447.871V218.039H439.066ZM445.766 215.182V205.803H447.543V215.182H445.766ZM463.785 211.873V213.268H459.068V215.428H457.305V213.268H452.396V211.873H463.785ZM453.572 208.633C453.572 207.054 455.377 206.062 458.084 206.049C460.777 206.062 462.575 207.054 462.582 208.633C462.575 210.219 460.777 211.203 458.084 211.203C455.377 211.203 453.572 210.219 453.572 208.633ZM453.75 218.039V214.32H455.514V216.631H462.527V218.039H453.75ZM455.459 208.633C455.452 209.392 456.478 209.802 458.084 209.809C459.69 209.802 460.709 209.392 460.709 208.633C460.709 207.84 459.69 207.43 458.084 207.43C456.478 207.43 455.452 207.84 455.459 208.633ZM467.982 206.486C468.974 206.479 469.842 206.849 470.437 207.457H473.26V205.816H474.996V213.104H473.26V211.613H470.423C469.828 212.215 468.967 212.577 467.982 212.57C466.096 212.577 464.66 211.292 464.674 209.535C464.66 207.758 466.096 206.479 467.982 206.486ZM466.328 209.535C466.321 210.492 467.012 211.101 467.982 211.094C468.919 211.101 469.603 210.492 469.609 209.535C469.603 208.544 468.919 207.97 467.982 207.977C467.012 207.97 466.321 208.544 466.328 209.535ZM466.465 215.811C466.465 214.266 468.112 213.356 470.744 213.363C473.376 213.356 475.03 214.266 475.037 215.811C475.03 217.355 473.376 218.265 470.744 218.258C468.112 218.265 466.465 217.355 466.465 215.811ZM468.174 215.811C468.174 216.535 469.097 216.904 470.744 216.904C472.426 216.904 473.321 216.535 473.328 215.811C473.321 215.065 472.426 214.696 470.744 214.689C469.097 214.696 468.174 215.065 468.174 215.811ZM471.182 208.838C471.236 209.057 471.264 209.296 471.264 209.535C471.264 209.774 471.236 210 471.188 210.219H473.26V208.838H471.182ZM489.789 205.816V209.904H491.375V211.34H489.789V215.523H488.039V205.816H489.789ZM479.699 212.967C480.595 212.967 481.634 212.96 482.721 212.926V212.208C481.367 212.017 480.526 211.347 480.533 210.369C480.526 209.139 481.736 208.421 483.582 208.428C485.414 208.421 486.624 209.139 486.631 210.369C486.624 211.34 485.79 212.01 484.457 212.208V212.844C485.476 212.782 486.501 212.687 487.465 212.543L487.588 213.746C484.97 214.252 482.023 214.286 479.877 214.307L479.699 212.967ZM480.027 208.072V206.828H482.721V205.775H484.457V206.828H487.15V208.072H480.027ZM481.449 218.039V214.881H483.199V216.645H490.213V218.039H481.449ZM482.201 210.369C482.194 210.834 482.693 211.101 483.582 211.094C484.457 211.101 484.956 210.834 484.963 210.369C484.956 209.843 484.457 209.59 483.582 209.59C482.693 209.59 482.194 209.843 482.201 210.369ZM502.422 205.83V212.994H500.686V211.777H497.883V210.383H500.686V209.193H498.013C497.233 211.162 495.463 212.522 492.729 213.268L492.045 211.887C494.902 211.142 496.311 209.768 496.557 208.059H492.715V206.664H498.457C498.457 207.067 498.43 207.457 498.368 207.826H500.686V205.83H502.422ZM494.027 215.66C494.021 214.122 495.723 213.151 498.279 213.145C500.802 213.151 502.511 214.122 502.518 215.66C502.511 217.219 500.802 218.203 498.279 218.203C495.723 218.203 494.021 217.219 494.027 215.66ZM495.764 215.66C495.764 216.433 496.7 216.822 498.279 216.822C499.824 216.822 500.761 216.433 500.768 215.66C500.761 214.895 499.824 214.498 498.279 214.512C496.7 214.498 495.764 214.895 495.764 215.66ZM514.453 205.816V218.285H512.689V205.816H514.453ZM504.404 211.121C504.397 208.407 505.785 206.691 507.699 206.691C509.572 206.691 510.967 208.407 510.967 211.121C510.967 213.855 509.572 215.564 507.699 215.564C505.785 215.564 504.397 213.855 504.404 211.121ZM506.086 211.121C506.079 212.974 506.729 213.985 507.699 213.979C508.643 213.985 509.278 212.974 509.285 211.121C509.278 209.275 508.643 208.264 507.699 208.264C506.729 208.264 506.079 209.275 506.086 211.121ZM529.807 205.816V212.201H528.057V205.816H529.807ZM519.566 210.588C519.99 210.588 520.441 210.581 520.906 210.574V207.908H519.895V206.582H526.662V207.908H525.637V210.39C526.149 210.349 526.655 210.301 527.141 210.246L527.223 211.49C524.748 211.887 521.918 211.955 519.758 211.955L519.566 210.588ZM521.344 214.047V212.693H529.807V216.016H523.094V216.795H530.148V218.176H521.371V214.771H528.084V214.047H521.344ZM522.574 210.54C523.032 210.526 523.49 210.513 523.955 210.492V207.908H522.574V210.54ZM542.85 215.373V216.809H531.461V215.373H534.004V212.324C533.04 211.743 532.459 210.861 532.459 209.768C532.459 207.751 534.428 206.425 537.135 206.418C539.828 206.425 541.817 207.751 541.824 209.768C541.817 210.841 541.257 211.709 540.32 212.29V215.373H542.85ZM534.182 209.768C534.182 210.984 535.351 211.736 537.135 211.736C538.892 211.736 540.095 210.984 540.102 209.768C540.095 208.517 538.892 207.792 537.135 207.799C535.351 207.792 534.182 208.517 534.182 209.768ZM535.727 215.373H538.557V212.953C538.112 213.042 537.634 213.09 537.135 213.09C536.636 213.09 536.164 213.042 535.727 212.96V215.373ZM549.562 207.717V209.098H543.547V207.717H545.707V206.158H547.43V207.717H549.562ZM543.834 212.611C543.834 210.882 544.996 209.665 546.582 209.658C548.175 209.665 549.31 210.882 549.316 212.611C549.31 214.348 548.175 215.578 546.582 215.578C544.996 215.578 543.834 214.348 543.834 212.611ZM545.365 212.611C545.365 213.562 545.857 214.102 546.582 214.102C547.279 214.102 547.778 213.562 547.785 212.611C547.778 211.675 547.279 211.107 546.582 211.107C545.857 211.107 545.365 211.675 545.365 212.611ZM550.027 217.725V206.062H551.654V210.875H552.666V205.816H554.32V218.258H552.666V212.27H551.654V217.725H550.027ZM558.49 207.102L558.312 214.033H556.562L556.385 207.102H558.49ZM556.303 215.975C556.289 215.346 556.809 214.833 557.451 214.84C558.06 214.833 558.586 215.346 558.586 215.975C558.586 216.61 558.06 217.123 557.451 217.123C556.809 217.123 556.289 216.61 556.303 215.975Z" fill="black"/>
<rect x="656.5" y="2" width="303" height="324" rx="31.5" stroke="#E9ECEF"/>
<rect x="668" y="13.5" width="280" height="180" rx="24" fill="url(#paint20_linear_901_29417)"/>
<rect x="668.5" y="14" width="279" height="179" rx="23.5" stroke="black" stroke-opacity="0.06"/>
<rect x="728" y="48.918" width="160" height="110" rx="4" fill="#D5D7DA"/>
<rect x="744" y="62.918" width="138" height="22" rx="2" fill="white" fill-opacity="0.4"/>
<rect x="744" y="146.918" width="138" height="6" rx="2" fill="white" fill-opacity="0.4"/>
<rect x="744" y="90.918" width="103" height="51" rx="2" fill="white" fill-opacity="0.4"/>
<rect x="853" y="90.918" width="29" height="51" rx="2" fill="white" fill-opacity="0.4"/>
<path d="M728 52.918C728 50.7088 729.791 48.918 732 48.918H884C886.209 48.918 888 50.7088 888 52.918V56.918H728V52.918Z" fill="#A4A7AE"/>
<path d="M728 52.918C728 50.7088 729.791 48.918 732 48.918H736V158.918H732C729.791 158.918 728 157.127 728 154.918V52.918Z" fill="#252B37" fill-opacity="0.2"/>
<mask id="path-98-outside-1_901_29417" maskUnits="userSpaceOnUse" x="714" y="47.918" width="184" height="10" fill="black">
<rect fill="white" x="714" y="47.918" width="184" height="10"/>
<path d="M714 48.918H898V56.918H714V48.918Z"/>
</mask>
<path d="M714 56.918V57.168H715V56.918V56.668H714V56.918ZM717 56.918V57.168H719V56.918V56.668H717V56.918ZM721 56.918V57.168H723V56.918V56.668H721V56.918ZM725 56.918V57.168H727V56.918V56.668H725V56.918ZM729 56.918V57.168H731V56.918V56.668H729V56.918ZM733 56.918V57.168H735V56.918V56.668H733V56.918ZM737 56.918V57.168H739V56.918V56.668H737V56.918ZM741 56.918V57.168H743V56.918V56.668H741V56.918ZM745 56.918V57.168H747V56.918V56.668H745V56.918ZM749 56.918V57.168H751V56.918V56.668H749V56.918ZM753 56.918V57.168H755V56.918V56.668H753V56.918ZM757 56.918V57.168H759V56.918V56.668H757V56.918ZM761 56.918V57.168H763V56.918V56.668H761V56.918ZM765 56.918V57.168H767V56.918V56.668H765V56.918ZM769 56.918V57.168H771V56.918V56.668H769V56.918ZM773 56.918V57.168H775V56.918V56.668H773V56.918ZM777 56.918V57.168H779V56.918V56.668H777V56.918ZM781 56.918V57.168H783V56.918V56.668H781V56.918ZM785 56.918V57.168H787V56.918V56.668H785V56.918ZM789 56.918V57.168H791V56.918V56.668H789V56.918ZM793 56.918V57.168H795V56.918V56.668H793V56.918ZM797 56.918V57.168H799V56.918V56.668H797V56.918ZM801 56.918V57.168H803V56.918V56.668H801V56.918ZM805 56.918V57.168H807V56.918V56.668H805V56.918ZM809 56.918V57.168H811V56.918V56.668H809V56.918ZM813 56.918V57.168H815V56.918V56.668H813V56.918ZM817 56.918V57.168H819V56.918V56.668H817V56.918ZM821 56.918V57.168H823V56.918V56.668H821V56.918ZM825 56.918V57.168H827V56.918V56.668H825V56.918ZM829 56.918V57.168H831V56.918V56.668H829V56.918ZM833 56.918V57.168H835V56.918V56.668H833V56.918ZM837 56.918V57.168H839V56.918V56.668H837V56.918ZM841 56.918V57.168H843V56.918V56.668H841V56.918ZM845 56.918V57.168H847V56.918V56.668H845V56.918ZM849 56.918V57.168H851V56.918V56.668H849V56.918ZM853 56.918V57.168H855V56.918V56.668H853V56.918ZM857 56.918V57.168H859V56.918V56.668H857V56.918ZM861 56.918V57.168H863V56.918V56.668H861V56.918ZM865 56.918V57.168H867V56.918V56.668H865V56.918ZM869 56.918V57.168H871V56.918V56.668H869V56.918ZM873 56.918V57.168H875V56.918V56.668H873V56.918ZM877 56.918V57.168H879V56.918V56.668H877V56.918ZM881 56.918V57.168H883V56.918V56.668H881V56.918ZM885 56.918V57.168H887V56.918V56.668H885V56.918ZM889 56.918V57.168H891V56.918V56.668H889V56.918ZM893 56.918V57.168H895V56.918V56.668H893V56.918ZM897 56.918V57.168H898V56.918V56.668H897V56.918ZM898 48.918V48.668H897V48.918V49.168H898V48.918ZM895 48.918V48.668H893V48.918V49.168H895V48.918ZM891 48.918V48.668H889V48.918V49.168H891V48.918ZM887 48.918V48.668H885V48.918V49.168H887V48.918ZM883 48.918V48.668H881V48.918V49.168H883V48.918ZM879 48.918V48.668H877V48.918V49.168H879V48.918ZM875 48.918V48.668H873V48.918V49.168H875V48.918ZM871 48.918V48.668H869V48.918V49.168H871V48.918ZM867 48.918V48.668H865V48.918V49.168H867V48.918ZM863 48.918V48.668H861V48.918V49.168H863V48.918ZM859 48.918V48.668H857V48.918V49.168H859V48.918ZM855 48.918V48.668H853V48.918V49.168H855V48.918ZM851 48.918V48.668H849V48.918V49.168H851V48.918ZM847 48.918V48.668H845V48.918V49.168H847V48.918ZM843 48.918V48.668H841V48.918V49.168H843V48.918ZM839 48.918V48.668H837V48.918V49.168H839V48.918ZM835 48.918V48.668H833V48.918V49.168H835V48.918ZM831 48.918V48.668H829V48.918V49.168H831V48.918ZM827 48.918V48.668H825V48.918V49.168H827V48.918ZM823 48.918V48.668H821V48.918V49.168H823V48.918ZM819 48.918V48.668H817V48.918V49.168H819V48.918ZM815 48.918V48.668H813V48.918V49.168H815V48.918ZM811 48.918V48.668H809V48.918V49.168H811V48.918ZM807 48.918V48.668H805V48.918V49.168H807V48.918ZM803 48.918V48.668H801V48.918V49.168H803V48.918ZM799 48.918V48.668H797V48.918V49.168H799V48.918ZM795 48.918V48.668H793V48.918V49.168H795V48.918ZM791 48.918V48.668H789V48.918V49.168H791V48.918ZM787 48.918V48.668H785V48.918V49.168H787V48.918ZM783 48.918V48.668H781V48.918V49.168H783V48.918ZM779 48.918V48.668H777V48.918V49.168H779V48.918ZM775 48.918V48.668H773V48.918V49.168H775V48.918ZM771 48.918V48.668H769V48.918V49.168H771V48.918ZM767 48.918V48.668H765V48.918V49.168H767V48.918ZM763 48.918V48.668H761V48.918V49.168H763V48.918ZM759 48.918V48.668H757V48.918V49.168H759V48.918ZM755 48.918V48.668H753V48.918V49.168H755V48.918ZM751 48.918V48.668H749V48.918V49.168H751V48.918ZM747 48.918V48.668H745V48.918V49.168H747V48.918ZM743 48.918V48.668H741V48.918V49.168H743V48.918ZM739 48.918V48.668H737V48.918V49.168H739V48.918ZM735 48.918V48.668H733V48.918V49.168H735V48.918ZM731 48.918V48.668H729V48.918V49.168H731V48.918ZM727 48.918V48.668H725V48.918V49.168H727V48.918ZM723 48.918V48.668H721V48.918V49.168H723V48.918ZM719 48.918V48.668H717V48.918V49.168H719V48.918ZM715 48.918V48.668H714V48.918V49.168H715V48.918ZM714 56.918V57.418H715V56.918V56.418H714V56.918ZM717 56.918V57.418H719V56.918V56.418H717V56.918ZM721 56.918V57.418H723V56.918V56.418H721V56.918ZM725 56.918V57.418H727V56.918V56.418H725V56.918ZM729 56.918V57.418H731V56.918V56.418H729V56.918ZM733 56.918V57.418H735V56.918V56.418H733V56.918ZM737 56.918V57.418H739V56.918V56.418H737V56.918ZM741 56.918V57.418H743V56.918V56.418H741V56.918ZM745 56.918V57.418H747V56.918V56.418H745V56.918ZM749 56.918V57.418H751V56.918V56.418H749V56.918ZM753 56.918V57.418H755V56.918V56.418H753V56.918ZM757 56.918V57.418H759V56.918V56.418H757V56.918ZM761 56.918V57.418H763V56.918V56.418H761V56.918ZM765 56.918V57.418H767V56.918V56.418H765V56.918ZM769 56.918V57.418H771V56.918V56.418H769V56.918ZM773 56.918V57.418H775V56.918V56.418H773V56.918ZM777 56.918V57.418H779V56.918V56.418H777V56.918ZM781 56.918V57.418H783V56.918V56.418H781V56.918ZM785 56.918V57.418H787V56.918V56.418H785V56.918ZM789 56.918V57.418H791V56.918V56.418H789V56.918ZM793 56.918V57.418H795V56.918V56.418H793V56.918ZM797 56.918V57.418H799V56.918V56.418H797V56.918ZM801 56.918V57.418H803V56.918V56.418H801V56.918ZM805 56.918V57.418H807V56.918V56.418H805V56.918ZM809 56.918V57.418H811V56.918V56.418H809V56.918ZM813 56.918V57.418H815V56.918V56.418H813V56.918ZM817 56.918V57.418H819V56.918V56.418H817V56.918ZM821 56.918V57.418H823V56.918V56.418H821V56.918ZM825 56.918V57.418H827V56.918V56.418H825V56.918ZM829 56.918V57.418H831V56.918V56.418H829V56.918ZM833 56.918V57.418H835V56.918V56.418H833V56.918ZM837 56.918V57.418H839V56.918V56.418H837V56.918ZM841 56.918V57.418H843V56.918V56.418H841V56.918ZM845 56.918V57.418H847V56.918V56.418H845V56.918ZM849 56.918V57.418H851V56.918V56.418H849V56.918ZM853 56.918V57.418H855V56.918V56.418H853V56.918ZM857 56.918V57.418H859V56.918V56.418H857V56.918ZM861 56.918V57.418H863V56.918V56.418H861V56.918ZM865 56.918V57.418H867V56.918V56.418H865V56.918ZM869 56.918V57.418H871V56.918V56.418H869V56.918ZM873 56.918V57.418H875V56.918V56.418H873V56.918ZM877 56.918V57.418H879V56.918V56.418H877V56.918ZM881 56.918V57.418H883V56.918V56.418H881V56.918ZM885 56.918V57.418H887V56.918V56.418H885V56.918ZM889 56.918V57.418H891V56.918V56.418H889V56.918ZM893 56.918V57.418H895V56.918V56.418H893V56.918ZM897 56.918V57.418H898V56.918V56.418H897V56.918ZM898 48.918V48.418H897V48.918V49.418H898V48.918ZM895 48.918V48.418H893V48.918V49.418H895V48.918ZM891 48.918V48.418H889V48.918V49.418H891V48.918ZM887 48.918V48.418H885V48.918V49.418H887V48.918ZM883 48.918V48.418H881V48.918V49.418H883V48.918ZM879 48.918V48.418H877V48.918V49.418H879V48.918ZM875 48.918V48.418H873V48.918V49.418H875V48.918ZM871 48.918V48.418H869V48.918V49.418H871V48.918ZM867 48.918V48.418H865V48.918V49.418H867V48.918ZM863 48.918V48.418H861V48.918V49.418H863V48.918ZM859 48.918V48.418H857V48.918V49.418H859V48.918ZM855 48.918V48.418H853V48.918V49.418H855V48.918ZM851 48.918V48.418H849V48.918V49.418H851V48.918ZM847 48.918V48.418H845V48.918V49.418H847V48.918ZM843 48.918V48.418H841V48.918V49.418H843V48.918ZM839 48.918V48.418H837V48.918V49.418H839V48.918ZM835 48.918V48.418H833V48.918V49.418H835V48.918ZM831 48.918V48.418H829V48.918V49.418H831V48.918ZM827 48.918V48.418H825V48.918V49.418H827V48.918ZM823 48.918V48.418H821V48.918V49.418H823V48.918ZM819 48.918V48.418H817V48.918V49.418H819V48.918ZM815 48.918V48.418H813V48.918V49.418H815V48.918ZM811 48.918V48.418H809V48.918V49.418H811V48.918ZM807 48.918V48.418H805V48.918V49.418H807V48.918ZM803 48.918V48.418H801V48.918V49.418H803V48.918ZM799 48.918V48.418H797V48.918V49.418H799V48.918ZM795 48.918V48.418H793V48.918V49.418H795V48.918ZM791 48.918V48.418H789V48.918V49.418H791V48.918ZM787 48.918V48.418H785V48.918V49.418H787V48.918ZM783 48.918V48.418H781V48.918V49.418H783V48.918ZM779 48.918V48.418H777V48.918V49.418H779V48.918ZM775 48.918V48.418H773V48.918V49.418H775V48.918ZM771 48.918V48.418H769V48.918V49.418H771V48.918ZM767 48.918V48.418H765V48.918V49.418H767V48.918ZM763 48.918V48.418H761V48.918V49.418H763V48.918ZM759 48.918V48.418H757V48.918V49.418H759V48.918ZM755 48.918V48.418H753V48.918V49.418H755V48.918ZM751 48.918V48.418H749V48.918V49.418H751V48.918ZM747 48.918V48.418H745V48.918V49.418H747V48.918ZM743 48.918V48.418H741V48.918V49.418H743V48.918ZM739 48.918V48.418H737V48.918V49.418H739V48.918ZM735 48.918V48.418H733V48.918V49.418H735V48.918ZM731 48.918V48.418H729V48.918V49.418H731V48.918ZM727 48.918V48.418H725V48.918V49.418H727V48.918ZM723 48.918V48.418H721V48.918V49.418H723V48.918ZM719 48.918V48.418H717V48.918V49.418H719V48.918ZM715 48.918V48.418H714V48.918V49.418H715V48.918Z" fill="#FF5C5C" mask="url(#path-98-outside-1_901_29417)"/>
<mask id="path-100-outside-2_901_29417" maskUnits="userSpaceOnUse" x="727" y="39.918" width="10" height="128" fill="black">
<rect fill="white" x="727" y="39.918" width="10" height="128"/>
<path d="M736 39.918L736 167.918L728 167.918L728 39.918L736 39.918Z"/>
</mask>
<path d="M728 39.918L727.75 39.918L727.75 40.918L728 40.918L728.25 40.918L728.25 39.918L728 39.918ZM728 42.918L727.75 42.918L727.75 44.918L728 44.918L728.25 44.918L728.25 42.918L728 42.918ZM728 46.918L727.75 46.918L727.75 48.918L728 48.918L728.25 48.918L728.25 46.918L728 46.918ZM728 50.918L727.75 50.918L727.75 52.918L728 52.918L728.25 52.918L728.25 50.918L728 50.918ZM728 54.918L727.75 54.918L727.75 56.918L728 56.918L728.25 56.918L728.25 54.918L728 54.918ZM728 58.918L727.75 58.918L727.75 60.918L728 60.918L728.25 60.918L728.25 58.918L728 58.918ZM728 62.918L727.75 62.918L727.75 64.918L728 64.918L728.25 64.918L728.25 62.918L728 62.918ZM728 66.918L727.75 66.918L727.75 68.918L728 68.918L728.25 68.918L728.25 66.918L728 66.918ZM728 70.918L727.75 70.918L727.75 72.918L728 72.918L728.25 72.918L728.25 70.918L728 70.918ZM728 74.918L727.75 74.918L727.75 76.918L728 76.918L728.25 76.918L728.25 74.918L728 74.918ZM728 78.918L727.75 78.918L727.75 80.918L728 80.918L728.25 80.918L728.25 78.918L728 78.918ZM728 82.918L727.75 82.918L727.75 84.918L728 84.918L728.25 84.918L728.25 82.918L728 82.918ZM728 86.918L727.75 86.918L727.75 88.918L728 88.918L728.25 88.918L728.25 86.918L728 86.918ZM728 90.918L727.75 90.918L727.75 92.918L728 92.918L728.25 92.918L728.25 90.918L728 90.918ZM728 94.918L727.75 94.918L727.75 96.918L728 96.918L728.25 96.918L728.25 94.918L728 94.918ZM728 98.918L727.75 98.918L727.75 100.918L728 100.918L728.25 100.918L728.25 98.918L728 98.918ZM728 102.918L727.75 102.918L727.75 104.918L728 104.918L728.25 104.918L728.25 102.918L728 102.918ZM728 106.918L727.75 106.918L727.75 108.918L728 108.918L728.25 108.918L728.25 106.918L728 106.918ZM728 110.918L727.75 110.918L727.75 112.918L728 112.918L728.25 112.918L728.25 110.918L728 110.918ZM728 114.918L727.75 114.918L727.75 116.918L728 116.918L728.25 116.918L728.25 114.918L728 114.918ZM728 118.918L727.75 118.918L727.75 120.918L728 120.918L728.25 120.918L728.25 118.918L728 118.918ZM728 122.918L727.75 122.918L727.75 124.918L728 124.918L728.25 124.918L728.25 122.918L728 122.918ZM728 126.918L727.75 126.918L727.75 128.918L728 128.918L728.25 128.918L728.25 126.918L728 126.918ZM728 130.918L727.75 130.918L727.75 132.918L728 132.918L728.25 132.918L728.25 130.918L728 130.918ZM728 134.918L727.75 134.918L727.75 136.918L728 136.918L728.25 136.918L728.25 134.918L728 134.918ZM728 138.918L727.75 138.918L727.75 140.918L728 140.918L728.25 140.918L728.25 138.918L728 138.918ZM728 142.918L727.75 142.918L727.75 144.918L728 144.918L728.25 144.918L728.25 142.918L728 142.918ZM728 146.918L727.75 146.918L727.75 148.918L728 148.918L728.25 148.918L728.25 146.918L728 146.918ZM728 150.918L727.75 150.918L727.75 152.918L728 152.918L728.25 152.918L728.25 150.918L728 150.918ZM728 154.918L727.75 154.918L727.75 156.918L728 156.918L728.25 156.918L728.25 154.918L728 154.918ZM728 158.918L727.75 158.918L727.75 160.918L728 160.918L728.25 160.918L728.25 158.918L728 158.918ZM728 162.918L727.75 162.918L727.75 164.918L728 164.918L728.25 164.918L728.25 162.918L728 162.918ZM728 166.918L727.75 166.918L727.75 167.918L728 167.918L728.25 167.918L728.25 166.918L728 166.918ZM736 167.918L736.25 167.918L736.25 166.918L736 166.918L735.75 166.918L735.75 167.918L736 167.918ZM736 164.918L736.25 164.918L736.25 162.918L736 162.918L735.75 162.918L735.75 164.918L736 164.918ZM736 160.918L736.25 160.918L736.25 158.918L736 158.918L735.75 158.918L735.75 160.918L736 160.918ZM736 156.918L736.25 156.918L736.25 154.918L736 154.918L735.75 154.918L735.75 156.918L736 156.918ZM736 152.918L736.25 152.918L736.25 150.918L736 150.918L735.75 150.918L735.75 152.918L736 152.918ZM736 148.918L736.25 148.918L736.25 146.918L736 146.918L735.75 146.918L735.75 148.918L736 148.918ZM736 144.918L736.25 144.918L736.25 142.918L736 142.918L735.75 142.918L735.75 144.918L736 144.918ZM736 140.918L736.25 140.918L736.25 138.918L736 138.918L735.75 138.918L735.75 140.918L736 140.918ZM736 136.918L736.25 136.918L736.25 134.918L736 134.918L735.75 134.918L735.75 136.918L736 136.918ZM736 132.918L736.25 132.918L736.25 130.918L736 130.918L735.75 130.918L735.75 132.918L736 132.918ZM736 128.918L736.25 128.918L736.25 126.918L736 126.918L735.75 126.918L735.75 128.918L736 128.918ZM736 124.918L736.25 124.918L736.25 122.918L736 122.918L735.75 122.918L735.75 124.918L736 124.918ZM736 120.918L736.25 120.918L736.25 118.918L736 118.918L735.75 118.918L735.75 120.918L736 120.918ZM736 116.918L736.25 116.918L736.25 114.918L736 114.918L735.75 114.918L735.75 116.918L736 116.918ZM736 112.918L736.25 112.918L736.25 110.918L736 110.918L735.75 110.918L735.75 112.918L736 112.918ZM736 108.918L736.25 108.918L736.25 106.918L736 106.918L735.75 106.918L735.75 108.918L736 108.918ZM736 104.918L736.25 104.918L736.25 102.918L736 102.918L735.75 102.918L735.75 104.918L736 104.918ZM736 100.918L736.25 100.918L736.25 98.918L736 98.918L735.75 98.918L735.75 100.918L736 100.918ZM736 96.918L736.25 96.918L736.25 94.918L736 94.918L735.75 94.918L735.75 96.918L736 96.918ZM736 92.918L736.25 92.918L736.25 90.918L736 90.918L735.75 90.918L735.75 92.918L736 92.918ZM736 88.918L736.25 88.918L736.25 86.918L736 86.918L735.75 86.918L735.75 88.918L736 88.918ZM736 84.918L736.25 84.918L736.25 82.918L736 82.918L735.75 82.918L735.75 84.918L736 84.918ZM736 80.918L736.25 80.918L736.25 78.918L736 78.918L735.75 78.918L735.75 80.918L736 80.918ZM736 76.918L736.25 76.918L736.25 74.918L736 74.918L735.75 74.918L735.75 76.918L736 76.918ZM736 72.918L736.25 72.918L736.25 70.918L736 70.918L735.75 70.918L735.75 72.918L736 72.918ZM736 68.918L736.25 68.918L736.25 66.918L736 66.918L735.75 66.918L735.75 68.918L736 68.918ZM736 64.918L736.25 64.918L736.25 62.918L736 62.918L735.75 62.918L735.75 64.918L736 64.918ZM736 60.918L736.25 60.918L736.25 58.918L736 58.918L735.75 58.918L735.75 60.918L736 60.918ZM736 56.918L736.25 56.918L736.25 54.918L736 54.918L735.75 54.918L735.75 56.918L736 56.918ZM736 52.918L736.25 52.918L736.25 50.918L736 50.918L735.75 50.918L735.75 52.918L736 52.918ZM736 48.918L736.25 48.918L736.25 46.918L736 46.918L735.75 46.918L735.75 48.918L736 48.918ZM736 44.918L736.25 44.918L736.25 42.918L736 42.918L735.75 42.918L735.75 44.918L736 44.918ZM736 40.918L736.25 40.918L736.25 39.918L736 39.918L735.75 39.918L735.75 40.918L736 40.918ZM728 39.918L727.5 39.918L727.5 40.918L728 40.918L728.5 40.918L728.5 39.918L728 39.918ZM728 42.918L727.5 42.918L727.5 44.918L728 44.918L728.5 44.918L728.5 42.918L728 42.918ZM728 46.918L727.5 46.918L727.5 48.918L728 48.918L728.5 48.918L728.5 46.918L728 46.918ZM728 50.918L727.5 50.918L727.5 52.918L728 52.918L728.5 52.918L728.5 50.918L728 50.918ZM728 54.918L727.5 54.918L727.5 56.918L728 56.918L728.5 56.918L728.5 54.918L728 54.918ZM728 58.918L727.5 58.918L727.5 60.918L728 60.918L728.5 60.918L728.5 58.918L728 58.918ZM728 62.918L727.5 62.918L727.5 64.918L728 64.918L728.5 64.918L728.5 62.918L728 62.918ZM728 66.918L727.5 66.918L727.5 68.918L728 68.918L728.5 68.918L728.5 66.918L728 66.918ZM728 70.918L727.5 70.918L727.5 72.918L728 72.918L728.5 72.918L728.5 70.918L728 70.918ZM728 74.918L727.5 74.918L727.5 76.918L728 76.918L728.5 76.918L728.5 74.918L728 74.918ZM728 78.918L727.5 78.918L727.5 80.918L728 80.918L728.5 80.918L728.5 78.918L728 78.918ZM728 82.918L727.5 82.918L727.5 84.918L728 84.918L728.5 84.918L728.5 82.918L728 82.918ZM728 86.918L727.5 86.918L727.5 88.918L728 88.918L728.5 88.918L728.5 86.918L728 86.918ZM728 90.918L727.5 90.918L727.5 92.918L728 92.918L728.5 92.918L728.5 90.918L728 90.918ZM728 94.918L727.5 94.918L727.5 96.918L728 96.918L728.5 96.918L728.5 94.918L728 94.918ZM728 98.918L727.5 98.918L727.5 100.918L728 100.918L728.5 100.918L728.5 98.918L728 98.918ZM728 102.918L727.5 102.918L727.5 104.918L728 104.918L728.5 104.918L728.5 102.918L728 102.918ZM728 106.918L727.5 106.918L727.5 108.918L728 108.918L728.5 108.918L728.5 106.918L728 106.918ZM728 110.918L727.5 110.918L727.5 112.918L728 112.918L728.5 112.918L728.5 110.918L728 110.918ZM728 114.918L727.5 114.918L727.5 116.918L728 116.918L728.5 116.918L728.5 114.918L728 114.918ZM728 118.918L727.5 118.918L727.5 120.918L728 120.918L728.5 120.918L728.5 118.918L728 118.918ZM728 122.918L727.5 122.918L727.5 124.918L728 124.918L728.5 124.918L728.5 122.918L728 122.918ZM728 126.918L727.5 126.918L727.5 128.918L728 128.918L728.5 128.918L728.5 126.918L728 126.918ZM728 130.918L727.5 130.918L727.5 132.918L728 132.918L728.5 132.918L728.5 130.918L728 130.918ZM728 134.918L727.5 134.918L727.5 136.918L728 136.918L728.5 136.918L728.5 134.918L728 134.918ZM728 138.918L727.5 138.918L727.5 140.918L728 140.918L728.5 140.918L728.5 138.918L728 138.918ZM728 142.918L727.5 142.918L727.5 144.918L728 144.918L728.5 144.918L728.5 142.918L728 142.918ZM728 146.918L727.5 146.918L727.5 148.918L728 148.918L728.5 148.918L728.5 146.918L728 146.918ZM728 150.918L727.5 150.918L727.5 152.918L728 152.918L728.5 152.918L728.5 150.918L728 150.918ZM728 154.918L727.5 154.918L727.5 156.918L728 156.918L728.5 156.918L728.5 154.918L728 154.918ZM728 158.918L727.5 158.918L727.5 160.918L728 160.918L728.5 160.918L728.5 158.918L728 158.918ZM728 162.918L727.5 162.918L727.5 164.918L728 164.918L728.5 164.918L728.5 162.918L728 162.918ZM728 166.918L727.5 166.918L727.5 167.918L728 167.918L728.5 167.918L728.5 166.918L728 166.918ZM736 167.918L736.5 167.918L736.5 166.918L736 166.918L735.5 166.918L735.5 167.918L736 167.918ZM736 164.918L736.5 164.918L736.5 162.918L736 162.918L735.5 162.918L735.5 164.918L736 164.918ZM736 160.918L736.5 160.918L736.5 158.918L736 158.918L735.5 158.918L735.5 160.918L736 160.918ZM736 156.918L736.5 156.918L736.5 154.918L736 154.918L735.5 154.918L735.5 156.918L736 156.918ZM736 152.918L736.5 152.918L736.5 150.918L736 150.918L735.5 150.918L735.5 152.918L736 152.918ZM736 148.918L736.5 148.918L736.5 146.918L736 146.918L735.5 146.918L735.5 148.918L736 148.918ZM736 144.918L736.5 144.918L736.5 142.918L736 142.918L735.5 142.918L735.5 144.918L736 144.918ZM736 140.918L736.5 140.918L736.5 138.918L736 138.918L735.5 138.918L735.5 140.918L736 140.918ZM736 136.918L736.5 136.918L736.5 134.918L736 134.918L735.5 134.918L735.5 136.918L736 136.918ZM736 132.918L736.5 132.918L736.5 130.918L736 130.918L735.5 130.918L735.5 132.918L736 132.918ZM736 128.918L736.5 128.918L736.5 126.918L736 126.918L735.5 126.918L735.5 128.918L736 128.918ZM736 124.918L736.5 124.918L736.5 122.918L736 122.918L735.5 122.918L735.5 124.918L736 124.918ZM736 120.918L736.5 120.918L736.5 118.918L736 118.918L735.5 118.918L735.5 120.918L736 120.918ZM736 116.918L736.5 116.918L736.5 114.918L736 114.918L735.5 114.918L735.5 116.918L736 116.918ZM736 112.918L736.5 112.918L736.5 110.918L736 110.918L735.5 110.918L735.5 112.918L736 112.918ZM736 108.918L736.5 108.918L736.5 106.918L736 106.918L735.5 106.918L735.5 108.918L736 108.918ZM736 104.918L736.5 104.918L736.5 102.918L736 102.918L735.5 102.918L735.5 104.918L736 104.918ZM736 100.918L736.5 100.918L736.5 98.918L736 98.918L735.5 98.918L735.5 100.918L736 100.918ZM736 96.918L736.5 96.918L736.5 94.918L736 94.918L735.5 94.918L735.5 96.918L736 96.918ZM736 92.918L736.5 92.918L736.5 90.918L736 90.918L735.5 90.918L735.5 92.918L736 92.918ZM736 88.918L736.5 88.918L736.5 86.918L736 86.918L735.5 86.918L735.5 88.918L736 88.918ZM736 84.918L736.5 84.918L736.5 82.918L736 82.918L735.5 82.918L735.5 84.918L736 84.918ZM736 80.918L736.5 80.918L736.5 78.918L736 78.918L735.5 78.918L735.5 80.918L736 80.918ZM736 76.918L736.5 76.918L736.5 74.918L736 74.918L735.5 74.918L735.5 76.918L736 76.918ZM736 72.918L736.5 72.918L736.5 70.918L736 70.918L735.5 70.918L735.5 72.918L736 72.918ZM736 68.918L736.5 68.918L736.5 66.918L736 66.918L735.5 66.918L735.5 68.918L736 68.918ZM736 64.918L736.5 64.918L736.5 62.918L736 62.918L735.5 62.918L735.5 64.918L736 64.918ZM736 60.918L736.5 60.918L736.5 58.918L736 58.918L735.5 58.918L735.5 60.918L736 60.918ZM736 56.918L736.5 56.918L736.5 54.918L736 54.918L735.5 54.918L735.5 56.918L736 56.918ZM736 52.918L736.5 52.918L736.5 50.918L736 50.918L735.5 50.918L735.5 52.918L736 52.918ZM736 48.918L736.5 48.918L736.5 46.918L736 46.918L735.5 46.918L735.5 48.918L736 48.918ZM736 44.918L736.5 44.918L736.5 42.918L736 42.918L735.5 42.918L735.5 44.918L736 44.918ZM736 40.918L736.5 40.918L736.5 39.918L736 39.918L735.5 39.918L735.5 40.918L736 40.918Z" fill="#BF50FF" mask="url(#path-100-outside-2_901_29417)"/>
<path d="M686.207 221.432C686.125 220.646 685.503 220.188 684.498 220.188C683.459 220.188 682.878 220.666 682.871 221.322C682.864 222.04 683.603 222.361 684.457 222.553L685.346 222.771C687.041 223.161 688.306 224.022 688.312 225.67C688.306 227.481 686.897 228.644 684.484 228.637C682.092 228.644 680.567 227.536 680.506 225.41H682.502C682.57 226.408 683.363 226.914 684.457 226.914C685.537 226.914 686.234 226.408 686.234 225.67C686.234 224.993 685.619 224.679 684.539 224.412L683.459 224.152C681.791 223.742 680.766 222.908 680.766 221.459C680.759 219.661 682.345 218.465 684.512 218.465C686.706 218.465 688.148 219.682 688.176 221.432H686.207ZM693.521 221.076V222.594H692.127V226.217C692.12 226.812 692.414 226.955 692.824 226.969C693.029 226.969 693.385 226.948 693.631 226.928V228.527C693.412 228.562 693.05 228.603 692.551 228.596C691.088 228.603 690.09 227.946 690.104 226.504V222.594H689.078V221.076H690.104V219.299H692.127V221.076H693.521ZM694.793 228.5V221.076H696.748V222.361H696.83C697.097 221.452 697.787 220.967 698.621 220.967C698.826 220.967 699.086 220.994 699.264 221.035V222.84C699.072 222.778 698.683 222.73 698.402 222.73C697.486 222.73 696.81 223.366 696.816 224.275V228.5H694.793ZM705.006 225.342V221.076H707.029V228.5H705.088V227.16H705.006C704.671 228.021 703.871 228.596 702.75 228.596C701.267 228.596 700.248 227.543 700.248 225.807V221.076H702.271V225.451C702.271 226.333 702.777 226.88 703.57 226.887C704.309 226.88 705.006 226.354 705.006 225.342ZM711.938 228.65C709.661 228.644 708.294 227.071 708.301 224.809C708.294 222.539 709.688 220.98 711.938 220.98C713.852 220.98 715.15 222.095 715.232 223.797H713.332C713.209 223.065 712.73 222.56 711.965 222.553C710.994 222.56 710.352 223.373 710.352 224.781C710.352 226.217 710.98 227.037 711.965 227.037C712.676 227.037 713.202 226.593 713.332 225.807H715.232C715.144 227.488 713.906 228.644 711.938 228.65ZM720.4 221.076V222.594H719.006V226.217C718.999 226.812 719.293 226.955 719.703 226.969C719.908 226.969 720.264 226.948 720.51 226.928V228.527C720.291 228.562 719.929 228.603 719.43 228.596C717.967 228.603 716.969 227.946 716.982 226.504V222.594H715.957V221.076H716.982V219.299H719.006V221.076H720.4ZM726.43 225.342V221.076H728.453V228.5H726.512V227.16H726.43C726.095 228.021 725.295 228.596 724.174 228.596C722.69 228.596 721.672 227.543 721.672 225.807V221.076H723.695V225.451C723.695 226.333 724.201 226.88 724.994 226.887C725.732 226.88 726.43 226.354 726.43 225.342ZM730.025 228.5V221.076H731.98V222.361H732.062C732.329 221.452 733.02 220.967 733.854 220.967C734.059 220.967 734.318 220.994 734.496 221.035V222.84C734.305 222.778 733.915 222.73 733.635 222.73C732.719 222.73 732.042 223.366 732.049 224.275V228.5H730.025ZM738.611 228.65C736.335 228.644 734.94 227.174 734.947 224.822C734.94 222.532 736.355 220.98 738.529 220.98C740.478 220.98 742.016 222.211 742.016 224.74V225.314H736.943C736.943 226.436 737.606 227.126 738.652 227.133C739.343 227.126 739.835 226.825 740.033 226.381H741.961C741.674 227.755 740.443 228.644 738.611 228.65ZM736.943 224.043H740.102C740.095 223.141 739.473 222.491 738.57 222.498C737.641 222.491 736.984 223.188 736.943 224.043ZM746.021 228.623C744.326 228.623 743 227.276 743 224.795C743 222.252 744.381 220.98 746.021 220.98C747.266 220.98 747.86 221.719 748.127 222.32H748.195V218.602H750.219V228.5H748.223V227.311H748.127C747.847 227.926 747.231 228.623 746.021 228.623ZM745.078 224.781C745.071 226.094 745.625 227.003 746.65 227.01C747.662 227.003 748.236 226.121 748.236 224.781C748.236 223.448 747.669 222.594 746.65 222.594C745.618 222.594 745.071 223.489 745.078 224.781ZM760.486 221.432C760.404 220.646 759.782 220.188 758.777 220.188C757.738 220.188 757.157 220.666 757.15 221.322C757.144 222.04 757.882 222.361 758.736 222.553L759.625 222.771C761.32 223.161 762.585 224.022 762.592 225.67C762.585 227.481 761.177 228.644 758.764 228.637C756.371 228.644 754.847 227.536 754.785 225.41H756.781C756.85 226.408 757.643 226.914 758.736 226.914C759.816 226.914 760.514 226.408 760.514 225.67C760.514 224.993 759.898 224.679 758.818 224.412L757.738 224.152C756.07 223.742 755.045 222.908 755.045 221.459C755.038 219.661 756.624 218.465 758.791 218.465C760.985 218.465 762.428 219.682 762.455 221.432H760.486ZM765.08 231.289C764.684 231.282 764.314 231.275 764.055 231.248V229.676C764.314 229.696 764.622 229.703 764.875 229.703C765.278 229.703 765.6 229.662 765.846 229.02L765.969 228.705L763.303 221.076H765.422L766.98 226.545H767.062L768.635 221.076H770.781L767.883 229.32C767.459 230.517 766.646 231.282 765.08 231.289ZM776.004 223.277C775.915 222.758 775.464 222.423 774.787 222.416C774.131 222.423 773.632 222.73 773.639 223.182C773.632 223.517 773.892 223.776 774.596 223.92L775.922 224.193C777.364 224.494 778.062 225.137 778.068 226.203C778.062 227.666 776.749 228.644 774.773 228.65C772.771 228.644 771.595 227.748 771.424 226.299H773.461C773.557 226.88 774.028 227.181 774.773 227.188C775.512 227.181 776.004 226.887 776.004 226.408C776.004 226.025 775.689 225.786 774.992 225.643L773.762 225.396C772.347 225.116 771.622 224.392 771.629 223.291C771.622 221.869 772.846 220.98 774.76 220.98C776.633 220.98 777.795 221.869 777.904 223.277H776.004ZM783.223 221.076V222.594H781.828V226.217C781.821 226.812 782.115 226.955 782.525 226.969C782.73 226.969 783.086 226.948 783.332 226.928V228.527C783.113 228.562 782.751 228.603 782.252 228.596C780.789 228.603 779.791 227.946 779.805 226.504V222.594H778.779V221.076H779.805V219.299H781.828V221.076H783.223ZM787.775 228.65C785.499 228.644 784.104 227.174 784.111 224.822C784.104 222.532 785.52 220.98 787.693 220.98C789.642 220.98 791.18 222.211 791.18 224.74V225.314H786.107C786.107 226.436 786.771 227.126 787.816 227.133C788.507 227.126 788.999 226.825 789.197 226.381H791.125C790.838 227.755 789.607 228.644 787.775 228.65ZM786.107 224.043H789.266C789.259 223.141 788.637 222.491 787.734 222.498C786.805 222.491 786.148 223.188 786.107 224.043ZM792.451 228.5V221.076H794.379V222.375H794.461C794.775 221.507 795.527 220.98 796.525 220.98C797.544 220.98 798.303 221.521 798.549 222.375H798.617C798.925 221.534 799.772 220.98 800.859 220.98C802.233 220.98 803.197 221.89 803.197 223.51V228.5H801.174V223.906C801.181 223.059 800.675 222.648 800.012 222.648C799.253 222.648 798.802 223.175 798.809 223.961V228.5H796.84V223.852C796.847 223.12 796.382 222.648 795.691 222.648C795.001 222.648 794.468 223.202 794.475 224.043V228.5H792.451Z" fill="#252B37"/>
<path d="M689.699 255.139C688.988 255.139 688.404 254.555 688.404 253.831C688.404 253.12 688.988 252.536 689.699 252.536C690.423 252.536 691.007 253.12 691.007 253.831C691.007 254.555 690.423 255.139 689.699 255.139ZM703.613 248.309V257.5H702.458V249.502H702.407L700.173 250.987V249.832L702.458 248.309H703.613ZM710.024 253.069V254.072H706V253.069H710.024ZM711.269 257.5L711.256 256.662L714.392 253.361C715.477 252.206 715.998 251.584 716.004 250.733C715.998 249.788 715.21 249.178 714.176 249.172C713.078 249.178 712.392 249.87 712.386 250.898H711.307C711.294 249.273 712.551 248.182 714.214 248.182C715.883 248.182 717.064 249.305 717.07 250.733C717.064 251.762 716.588 252.562 714.963 254.237L712.855 256.408V256.484H717.235V257.5H711.269ZM726.617 247.979V248.804H723.291V252.181C724.897 252.168 725.925 252.13 727.176 251.876L727.239 252.688C725.906 252.942 724.814 252.987 723.024 252.98H722.313V247.979H726.617ZM723.951 258.376V253.958H724.967V255.291H730.4V253.958H731.365V258.376H723.951ZM724.967 257.576H730.4V256.104H724.967V257.576ZM725.906 250.708V249.896H728.242V247.496H729.182V253.399H728.242V250.708H725.906ZM730.413 253.476V247.255H731.365V253.476H730.413ZM738.614 248.905C738.621 250.841 740.83 252.562 742.791 252.93L742.334 253.768C740.626 253.374 738.836 252.162 738.106 250.505C737.37 252.162 735.586 253.368 733.879 253.768L733.422 252.93C735.377 252.555 737.567 250.848 737.573 248.905V248.042H738.614V248.905ZM732.99 256.992V256.167H743.324V256.992H732.99ZM752.224 248.562V251.508H753.938V247.483H754.89V257.957H753.938V252.333H752.224V255.494H747.907V248.562H752.224ZM748.847 254.694H751.284V249.362H748.847V254.694ZM756.197 258.528V247.242H757.162V258.528H756.197ZM767.801 251.063V251.889H760.031V247.826H761.047V251.063H767.801ZM758.724 254.352V253.526H769.007V254.352H766.328V258.528H765.338V254.352H762.405V258.528H761.415V254.352H758.724ZM778.693 247.242V251.686H780.585V252.549H778.693V258.528H777.703V247.242H778.693ZM770.429 255.824V248.207H771.419V251.19H774.72V248.207H775.71V255.824H770.429ZM771.419 254.986H774.72V251.99H771.419V254.986ZM794.778 253.222V254.034H790.183V256.243H789.192V254.034H784.444V253.222H794.778ZM785.765 258.287V255.202H786.755V257.449H793.623V258.287H785.765ZM785.828 252.117V247.61H786.818V249.058H792.404V247.61H793.395V252.117H785.828ZM786.818 251.305H792.404V249.819H786.818V251.305ZM805.011 247.242V258.554H804.021V247.242H805.011ZM796.327 249.121V248.296H801.583V252.308H797.368V254.974C799.241 254.98 800.91 254.891 802.929 254.567L803.03 255.405C800.955 255.729 799.241 255.812 797.292 255.812H796.353V251.495H800.58V249.121H796.327ZM689.699 275.139C688.988 275.139 688.404 274.555 688.404 273.831C688.404 273.12 688.988 272.536 689.699 272.536C690.423 272.536 691.007 273.12 691.007 273.831C691.007 274.555 690.423 275.139 689.699 275.139ZM710.291 276.243V277.081H699.957V276.243H704.604V273.488H701.176V268.194H709.009V273.488H705.581V276.243H710.291ZM702.153 272.688H708.044V268.994H702.153V272.688ZM720.257 270.238V271.051H712.563V267.648H720.143V268.474H713.566V270.238H720.257ZM711.192 272.777V271.965H721.476V272.777H718.733V273.945H720.155V276.459H713.452V277.602H720.498V278.401H712.462V275.723H719.178V274.707H712.437V273.945H714.023V272.777H711.192ZM715.014 273.945H717.743V272.777H715.014V273.945ZM728.826 268.512V269.324H722.44V268.512H725.183V267.153H726.173V268.512H728.826ZM723.113 271.99C723.101 270.733 724.142 269.902 725.665 269.908C727.176 269.902 728.236 270.733 728.242 271.99C728.236 273.253 727.176 274.079 725.665 274.085C724.142 274.079 723.101 273.253 723.113 271.99ZM724.04 271.99C724.034 272.784 724.681 273.317 725.665 273.311C726.636 273.317 727.303 272.784 727.315 271.99C727.303 271.197 726.636 270.67 725.665 270.657C724.681 270.67 724.034 271.197 724.04 271.99ZM724.269 276.586C724.269 275.354 725.697 274.656 728.064 274.656C730.419 274.656 731.848 275.354 731.848 276.586C731.848 277.798 730.419 278.503 728.064 278.503C725.697 278.503 724.269 277.798 724.269 276.586ZM725.297 276.586C725.303 277.303 726.351 277.735 728.064 277.729C729.753 277.735 730.794 277.303 730.794 276.586C730.794 275.85 729.753 275.437 728.064 275.431C726.351 275.437 725.303 275.85 725.297 276.586ZM728.813 272.98V272.155H730.781V270.784H728.826V269.959H730.781V267.242H731.784V274.542H730.781V272.98H728.813ZM741.331 268.499V272.396H738.271V274.91C739.573 274.897 740.804 274.859 742.309 274.593L742.385 275.418C740.779 275.704 739.484 275.742 738.056 275.748H737.307V271.571H740.379V269.324H737.281V268.499H741.331ZM741.877 272.13V271.317H743.324V267.521H744.264V277.932H743.324V272.13H741.877ZM745.622 278.528V267.242H746.574V278.528H745.622ZM757.467 267.242V278.554H756.464V267.242H757.467ZM748.58 272.054C748.586 269.654 749.78 268.125 751.462 268.118C753.138 268.125 754.35 269.654 754.344 272.054C754.35 274.459 753.138 275.983 751.462 275.977C749.78 275.983 748.586 274.459 748.58 272.054ZM749.545 272.054C749.545 273.888 750.332 275.094 751.462 275.088C752.598 275.094 753.379 273.888 753.379 272.054C753.379 270.219 752.598 269.013 751.462 269.007C750.332 269.013 749.545 270.219 749.545 272.054ZM762.418 268.118C764.081 268.125 765.262 269.654 765.274 272.054C765.262 274.459 764.081 275.983 762.418 275.977C760.742 275.983 759.568 274.459 759.574 272.054C759.568 269.654 760.742 268.125 762.418 268.118ZM760.514 272.054C760.52 273.888 761.301 275.094 762.418 275.088C763.548 275.094 764.31 273.888 764.31 272.054C764.31 270.219 763.548 269.013 762.418 269.007C761.301 269.013 760.52 270.219 760.514 272.054ZM767.141 278.528V267.242H768.131V271.749H770.022V272.612H768.131V278.528H767.141ZM780.953 272.396V273.26H776.243V274.491H775.266V273.26H770.632V272.396H780.953ZM771.381 277.716C773.399 277.506 775.24 276.592 775.24 275.367V274.999H776.256V275.367C776.262 276.611 778.084 277.506 780.128 277.716L779.811 278.478C778.027 278.281 776.421 277.602 775.748 276.522C775.075 277.589 773.482 278.281 771.711 278.478L771.381 277.716ZM771.774 269.489C771.774 268.163 773.298 267.426 775.773 267.433C778.249 267.426 779.753 268.163 779.76 269.489C779.753 270.803 778.249 271.559 775.773 271.546C773.298 271.559 771.774 270.803 771.774 269.489ZM772.803 269.489C772.796 270.289 773.926 270.778 775.773 270.771C777.602 270.778 778.738 270.289 778.744 269.489C778.738 268.677 777.602 268.182 775.773 268.194C773.926 268.182 772.796 268.677 772.803 269.489ZM794.055 267.979V268.969C794.055 270.035 794.055 271.209 793.731 272.828H795.413V273.653H790.754V278.554H789.751V273.653H785.13V272.828H792.722C793.064 271.203 793.064 270.022 793.064 268.969V268.804H786.425V267.979H794.055ZM800.25 269.02C800.237 270.632 801.386 272.047 803.043 272.612L802.484 273.387C801.24 272.923 800.263 272.003 799.774 270.816C799.292 272.168 798.263 273.215 796.898 273.729L796.353 272.917C798.092 272.308 799.247 270.81 799.26 269.058V267.89H800.25V269.02ZM798.193 276.396C798.187 275.037 799.628 274.256 801.977 274.263C804.319 274.256 805.76 275.037 805.76 276.396C805.76 277.741 804.319 278.503 801.977 278.503C799.628 278.503 798.187 277.741 798.193 276.396ZM799.184 276.396C799.177 277.214 800.244 277.709 801.977 277.703C803.703 277.709 804.77 277.214 804.77 276.396C804.77 275.551 803.703 275.05 801.977 275.05C800.244 275.05 799.177 275.551 799.184 276.396ZM802.205 270.492V269.667H804.719V267.242H805.722V273.933H804.719V270.492H802.205ZM689.699 295.139C688.988 295.139 688.404 294.555 688.404 293.831C688.404 293.12 688.988 292.536 689.699 292.536C690.423 292.536 691.007 293.12 691.007 293.831C691.007 294.555 690.423 295.139 689.699 295.139ZM709.085 290.683V291.495H701.379V287.674H702.369V290.683H709.085ZM699.957 293.653V292.828H710.253V293.653H705.683V295.989H704.692V293.653H699.957ZM701.277 298.287V294.986H702.268V297.449H709.161V298.287H701.277ZM714.887 288.067C716.658 288.074 717.915 289.153 717.921 290.721C717.915 292.295 716.658 293.368 714.887 293.374C713.103 293.368 711.833 292.295 711.84 290.721C711.833 289.153 713.103 288.074 714.887 288.067ZM711.256 295.215C713.338 295.221 716.213 295.202 718.708 294.834L718.784 295.57C716.201 296.053 713.427 296.065 711.396 296.065L711.256 295.215ZM712.817 290.721C712.811 291.774 713.681 292.498 714.887 292.498C716.08 292.498 716.95 291.774 716.943 290.721C716.95 289.673 716.08 288.943 714.887 288.943C713.681 288.943 712.811 289.673 712.817 290.721ZM719.457 298.554V287.242H720.447V298.554H719.457ZM735.021 287.242V298.528H734.019V287.242H735.021ZM725.678 294.885C726.167 294.885 726.693 294.878 727.239 294.872V289.299H725.97V288.474H732.419V289.299H731.137V294.726C731.771 294.682 732.4 294.625 733.003 294.555L733.066 295.304C730.604 295.685 727.88 295.723 725.792 295.735L725.678 294.885ZM728.217 294.853C728.852 294.84 729.505 294.815 730.159 294.783V289.299H728.217V294.853ZM747.26 296.294V297.132H736.926V296.294H741.572V294.161H738.221V290.683H744.975V288.905H738.195V288.08H745.952V291.495H739.211V293.336H746.219V294.161H742.55V296.294H747.26ZM757.276 292.536V293.349H753.785V296.269H758.495V297.106H748.161V296.269H752.808V293.349H749.481V288.169H757.162V288.981H750.484V292.536H757.276ZM769.718 292.485V293.272H759.384V292.485H769.718ZM760.628 294.923V294.174H768.423V296.573H761.644V297.652H768.791V298.376H760.641V295.888H767.433V294.923H760.628ZM760.691 288.309V287.585H768.385V289.921H761.72V290.911H768.588V291.635H760.729V289.235H767.382V288.309H760.691ZM784.178 291.965V292.777H779.519V293.92H782.857V296.484H776.154V297.614H783.2V298.401H775.164V295.748H781.88V294.682H775.139V293.92H778.541V292.777H773.895V291.965H784.178ZM774.453 290.645C776.427 290.467 778.306 289.61 778.465 288.436H774.834V287.648H783.264V288.436H779.614C779.76 289.604 781.645 290.467 783.632 290.645L783.302 291.406C781.455 291.216 779.715 290.499 779.036 289.356C778.363 290.499 776.63 291.216 774.783 291.406L774.453 290.645ZM794.436 287.242V298.554H793.433V287.242H794.436ZM785.549 292.054C785.555 289.654 786.749 288.125 788.431 288.118C790.106 288.125 791.319 289.654 791.312 292.054C791.319 294.459 790.106 295.983 788.431 295.977C786.749 295.983 785.555 294.459 785.549 292.054ZM786.514 292.054C786.514 293.888 787.301 295.094 788.431 295.088C789.567 295.094 790.348 293.888 790.348 292.054C790.348 290.219 789.567 289.013 788.431 289.007C787.301 289.013 786.514 290.219 786.514 292.054ZM805.493 290.67V291.47H797.762V287.661H798.752V290.67H805.493ZM796.353 293.818V293.006H806.687V293.818H796.353ZM797.698 298.249V294.974H798.688V297.424H805.557V298.249H797.698ZM820.22 287.242V298.554H819.217V292.181H816.741V291.355H819.217V287.242H820.22ZM810.762 295.52C812.399 294.726 813.764 292.6 813.771 290.594V289.235H811.193V288.41H817.363V289.235H814.773V290.594C814.78 292.473 816.125 294.517 817.77 295.266L817.173 296.065C815.884 295.431 814.799 294.066 814.285 292.492C813.777 294.167 812.66 295.621 811.371 296.294L810.762 295.52ZM832.433 296.243V297.081H822.099V296.243H826.758V293.501H827.761V296.243H832.433ZM822.606 293.095C824.517 292.771 826.732 291.19 826.732 289.388V289.108H822.949V288.271H831.544V289.108H827.761V289.388C827.767 291.19 829.989 292.739 831.938 293.057L831.531 293.844C829.805 293.501 827.983 292.403 827.259 290.841C826.536 292.422 824.72 293.545 823.025 293.895L822.606 293.095ZM842.449 292.536V293.349H838.958V296.269H843.668V297.106H833.334V296.269H837.98V293.349H834.654V288.169H842.335V288.981H835.657V292.536H842.449ZM856.643 287.242V291.203H858.331V292.041H856.643V296.078H855.64V287.242H856.643ZM847.781 293.958C848.676 293.958 849.736 293.945 850.841 293.907V293.044C849.527 292.923 848.676 292.295 848.683 291.343C848.676 290.257 849.736 289.597 851.323 289.604C852.923 289.597 853.964 290.257 853.977 291.343C853.964 292.289 853.139 292.917 851.831 293.044V293.863C852.885 293.799 853.958 293.704 854.941 293.552L855.03 294.263C852.612 294.72 849.87 294.751 847.896 294.771L847.781 293.958ZM848.061 289.108V288.359H850.841V287.217H851.831V288.359H854.599V289.108H848.061ZM849.47 298.287V295.481H850.473V297.449H857.049V298.287H849.47ZM849.635 291.343C849.628 291.958 850.282 292.358 851.323 292.358C852.364 292.358 853.024 291.958 853.024 291.343C853.024 290.702 852.364 290.308 851.323 290.314C850.282 290.308 849.628 290.702 849.635 291.343ZM868.424 287.255V294.034H867.421V292.511H864.425V291.686H867.421V290.162H864.539C863.796 291.978 862.057 293.292 859.639 294.009L859.22 293.222C861.943 292.416 863.65 290.886 863.847 288.931H859.791V288.093H864.933C864.933 288.537 864.882 288.962 864.787 289.362H867.421V287.255H868.424ZM860.959 296.307C860.953 294.961 862.419 294.148 864.729 294.148C867.015 294.148 868.487 294.961 868.487 296.307C868.487 297.659 867.015 298.478 864.729 298.478C862.419 298.478 860.953 297.659 860.959 296.307ZM861.937 296.307C861.943 297.157 863.028 297.671 864.729 297.665C866.405 297.671 867.491 297.157 867.497 296.307C867.491 295.456 866.405 294.942 864.729 294.948C863.028 294.942 861.943 295.456 861.937 296.307ZM882.3 287.242V291.711H884.191V292.549H882.3V298.554H881.31V287.242H882.3ZM874.061 295.723V288.347H879.329V289.172H875.051V294.885C877.095 294.878 878.536 294.79 880.218 294.479L880.345 295.342C878.574 295.659 877.095 295.723 874.949 295.723H874.061ZM893.802 288.397V289.794C893.808 291.457 893.808 292.993 893.332 295.278L892.329 295.189C892.583 294.104 892.704 293.165 892.767 292.289L885.88 292.663L885.74 291.838L892.812 291.546C892.831 290.949 892.837 290.372 892.837 289.794V289.235H886.045V288.397H893.802ZM884.801 296.941V296.104H895.084V296.941H884.801ZM906.37 296.243V297.081H896.036V296.243H900.683V293.488H897.255V288.194H905.088V293.488H901.66V296.243H906.37ZM898.232 292.688H904.123V288.994H898.232V292.688ZM916.387 292.676V293.501H908.592V288.296H916.272V289.121H909.582V292.676H916.387ZM907.271 296.992V296.154H917.605V296.992H907.271Z" fill="#717680"/>
<path d="M301.333 164C301.333 165.473 302.527 166.667 304 166.667C305.473 166.667 306.667 165.473 306.667 164C306.667 162.527 305.473 161.333 304 161.333C302.527 161.333 301.333 162.527 301.333 164ZM372 164L367 161.113V166.887L372 164ZM304 164V164.5H305.889V164V163.5H304V164ZM309.667 164V164.5H313.444V164V163.5H309.667V164ZM317.222 164V164.5H321V164V163.5H317.222V164ZM324.778 164V164.5H328.556V164V163.5H324.778V164ZM332.333 164V164.5H336.111V164V163.5H332.333V164ZM339.889 164V164.5H343.667V164V163.5H339.889V164ZM347.444 164V164.5H351.222V164V163.5H347.444V164ZM355 164V164.5H358.778V164V163.5H355V164ZM362.556 164V164.5H366.333V164V163.5H362.556V164Z" fill="url(#paint21_linear_901_29417)"/>
<path d="M585.333 164C585.333 165.473 586.527 166.667 588 166.667C589.473 166.667 590.667 165.473 590.667 164C590.667 162.527 589.473 161.333 588 161.333C586.527 161.333 585.333 162.527 585.333 164ZM656 164L651 161.113V166.887L656 164ZM588 164V164.5H589.889V164V163.5H588V164ZM593.667 164V164.5H597.444V164V163.5H593.667V164ZM601.222 164V164.5H605V164V163.5H601.222V164ZM608.778 164V164.5H612.556V164V163.5H608.778V164ZM616.333 164V164.5H620.111V164V163.5H616.333V164ZM623.889 164V164.5H627.667V164V163.5H623.889V164ZM631.444 164V164.5H635.222V164V163.5H631.444V164ZM639 164V164.5H642.778V164V163.5H639V164ZM646.556 164V164.5H650.333V164V163.5H646.556V164Z" fill="url(#paint22_linear_901_29417)"/>
<defs>
<filter id="filter0_f_901_29417" x="456.32" y="133" width="25.4297" height="25.7051" filterUnits="userSpaceOnUse" color-interpolation-filters="sRGB">
<feFlood flood-opacity="0" result="BackgroundImageFix"/>
<feBlend mode="normal" in="SourceGraphic" in2="BackgroundImageFix" result="shape"/>
<feGaussianBlur stdDeviation="1.75" result="effect1_foregroundBlur_901_29417"/>
</filter>
<filter id="filter1_f_901_29417" x="466.875" y="142.625" width="17.5" height="7" filterUnits="userSpaceOnUse" color-interpolation-filters="sRGB">
<feFlood flood-opacity="0" result="BackgroundImageFix"/>
<feBlend mode="normal" in="SourceGraphic" in2="BackgroundImageFix" result="shape"/>
<feGaussianBlur stdDeviation="1.3125" result="effect1_foregroundBlur_901_29417"/>
</filter>
<linearGradient id="paint0_linear_901_29417" x1="12" y1="118.5" x2="292" y2="118.5" gradientUnits="userSpaceOnUse">
<stop stop-color="#F8F9FA"/>
<stop offset="1" stop-color="#F1F3F5"/>
</linearGradient>
<linearGradient id="paint1_linear_901_29417" x1="0" y1="94.6286" x2="79.5" y2="94.6286" gradientUnits="userSpaceOnUse">
<stop stop-color="#F1F3F5" stop-opacity="0"/>
<stop offset="1" stop-color="#F1F3F5"/>
</linearGradient>
<linearGradient id="paint2_linear_901_29417" x1="0" y1="94.6286" x2="79.5" y2="94.6286" gradientUnits="userSpaceOnUse">
<stop stop-color="#F8F9FA" stop-opacity="0"/>
<stop offset="1" stop-color="#F8F9FA"/>
</linearGradient>
<radialGradient id="paint3_radial_901_29417" cx="0" cy="0" r="1" gradientUnits="userSpaceOnUse" gradientTransform="translate(496.625 120.75) rotate(132.839) scale(65.6308)">
<stop stop-color="#FFF478"/>
<stop offset="0.474827" stop-color="#FFB02E"/>
<stop offset="1" stop-color="#F70A8D"/>
</radialGradient>
<radialGradient id="paint4_radial_901_29417" cx="0" cy="0" r="1" gradientUnits="userSpaceOnUse" gradientTransform="translate(496.625 120.75) rotate(131.878) scale(68.1602)">
<stop stop-color="#FFF478"/>
<stop offset="0.474827" stop-color="#FFB02E"/>
<stop offset="1" stop-color="#F70A8D"/>
</radialGradient>
<radialGradient id="paint5_radial_901_29417" cx="0" cy="0" r="1" gradientUnits="userSpaceOnUse" gradientTransform="translate(480 126.875) rotate(101.31) scale(31.2316 40.0017)">
<stop offset="0.787821" stop-color="#F59639" stop-opacity="0"/>
<stop offset="0.972509" stop-color="#FF7DCE"/>
</radialGradient>
<radialGradient id="paint6_radial_901_29417" cx="0" cy="0" r="1" gradientUnits="userSpaceOnUse" gradientTransform="translate(483.5 129.5) rotate(135) scale(71.7714)">
<stop offset="0.314853" stop-opacity="0"/>
<stop offset="1"/>
</radialGradient>
<radialGradient id="paint7_radial_901_29417" cx="0" cy="0" r="1" gradientUnits="userSpaceOnUse" gradientTransform="translate(480 134.75) rotate(77.692) scale(49.2571)">
<stop offset="0.507903" stop-color="#7D6133" stop-opacity="0"/>
<stop offset="1" stop-color="#715B32"/>
</radialGradient>
<radialGradient id="paint8_radial_901_29417" cx="0" cy="0" r="1" gradientUnits="userSpaceOnUse" gradientTransform="translate(480.875 133.875) rotate(55.7131) scale(23.2986 16.8881)">
<stop stop-color="#FFB849"/>
<stop offset="1" stop-color="#FFB847" stop-opacity="0"/>
</radialGradient>
<radialGradient id="paint9_radial_901_29417" cx="0" cy="0" r="1" gradientUnits="userSpaceOnUse" gradientTransform="translate(487.875 136.5) rotate(9.86581) scale(20.4271)">
<stop stop-color="#FFA64B"/>
<stop offset="0.900412" stop-color="#FFAE46" stop-opacity="0"/>
</radialGradient>
<radialGradient id="paint10_radial_901_29417" cx="0" cy="0" r="1" gradientUnits="userSpaceOnUse" gradientTransform="translate(482.625 131.25) rotate(43.9708) scale(103.343)">
<stop offset="0.185425" stop-opacity="0"/>
<stop offset="1" stop-opacity="0.4"/>
</radialGradient>
<radialGradient id="paint11_radial_901_29417" cx="0" cy="0" r="1" gradientUnits="userSpaceOnUse" gradientTransform="translate(479.128 143.5) rotate(-178.264) scale(28.8883 26.939)">
<stop offset="0.0661917" stop-color="#FFEA67"/>
<stop offset="0.593499" stop-color="#FFC13F"/>
<stop offset="0.904482" stop-color="#DF9030"/>
</radialGradient>
<radialGradient id="paint12_radial_901_29417" cx="0" cy="0" r="1" gradientUnits="userSpaceOnUse" gradientTransform="translate(474.141 122.126) rotate(135) scale(17.8545 9.24087)">
<stop stop-color="#392108"/>
<stop offset="1" stop-color="#C87928" stop-opacity="0"/>
</radialGradient>
<radialGradient id="paint13_radial_901_29417" cx="0" cy="0" r="1" gradientUnits="userSpaceOnUse" gradientTransform="translate(491.454 123.625) rotate(133.664) scale(16.5904 9.36553)">
<stop stop-color="#392108"/>
<stop offset="1" stop-color="#C87928" stop-opacity="0"/>
</radialGradient>
<linearGradient id="paint14_linear_901_29417" x1="480.875" y1="117.25" x2="479.125" y2="129.5" gradientUnits="userSpaceOnUse">
<stop stop-color="#553B3E"/>
<stop offset="1" stop-color="#3D2432"/>
</linearGradient>
<radialGradient id="paint15_radial_901_29417" cx="0" cy="0" r="1" gradientUnits="userSpaceOnUse" gradientTransform="translate(479.128 143.5) rotate(-178.264) scale(28.8883 26.939)">
<stop offset="0.0661917" stop-color="#FFEA67"/>
<stop offset="0.593499" stop-color="#FFC13F"/>
<stop offset="0.904482" stop-color="#DF9030"/>
</radialGradient>
<radialGradient id="paint16_radial_901_29417" cx="0" cy="0" r="1" gradientUnits="userSpaceOnUse" gradientTransform="translate(470.378 144.375) rotate(172.235) scale(19.4282 19.9213)">
<stop offset="0.499571" stop-color="#FFEA67" stop-opacity="0"/>
<stop offset="0.851196" stop-color="#F9708E"/>
</radialGradient>
<linearGradient id="paint17_linear_901_29417" x1="473.875" y1="147" x2="476.5" y2="149.625" gradientUnits="userSpaceOnUse">
<stop stop-color="#FA9428"/>
<stop offset="1" stop-color="#FA9428" stop-opacity="0"/>
</linearGradient>
<linearGradient id="paint18_linear_901_29417" x1="472.125" y1="154.875" x2="474.75" y2="157.5" gradientUnits="userSpaceOnUse">
<stop stop-color="#FA9428"/>
<stop offset="1" stop-color="#FA9428" stop-opacity="0"/>
</linearGradient>
<linearGradient id="paint19_linear_901_29417" x1="472.125" y1="151.375" x2="474.75" y2="154" gradientUnits="userSpaceOnUse">
<stop stop-color="#FA9428"/>
<stop offset="1" stop-color="#FA9428" stop-opacity="0"/>
</linearGradient>
<linearGradient id="paint20_linear_901_29417" x1="668" y1="114" x2="948" y2="114" gradientUnits="userSpaceOnUse">
<stop stop-color="#F1F3F5"/>
<stop offset="1" stop-color="#F3F7FF"/>
</linearGradient>
<linearGradient id="paint21_linear_901_29417" x1="304" y1="164.5" x2="372" y2="164.5" gradientUnits="userSpaceOnUse">
<stop stop-color="#CED4DA"/>
<stop offset="1" stop-color="#A6BFFF"/>
</linearGradient>
<linearGradient id="paint22_linear_901_29417" x1="588" y1="164.5" x2="656" y2="164.5" gradientUnits="userSpaceOnUse">
<stop stop-color="#A6BFFF"/>
<stop offset="1" stop-color="#6387E3"/>
</linearGradient>
<clipPath id="clip0_901_29417">
<rect x="12" y="12" width="280" height="180" rx="24" fill="white"/>
</clipPath>
<clipPath id="clip1_901_29417">
<rect width="104" height="132" fill="white" transform="translate(100 36)"/>
</clipPath>
</defs>
</svg>
