<svg width="960" height="630" viewBox="0 0 960 630" fill="none" xmlns="http://www.w3.org/2000/svg">
<rect x="320" width="150" height="200" rx="8" fill="url(#paint0_linear_1069_36837)"/>
<path d="M348.896 175.504V172.224H351.264V176.768C350.032 177.696 348.336 178.192 346.736 178.192C343.216 178.192 340.624 175.776 340.624 172.4C340.624 169.024 343.216 166.608 346.784 166.608C348.752 166.608 350.384 167.28 351.472 168.544L349.808 170.08C348.992 169.216 348.048 168.816 346.912 168.816C344.736 168.816 343.248 170.272 343.248 172.4C343.248 174.496 344.736 175.984 346.88 175.984C347.584 175.984 348.24 175.856 348.896 175.504ZM355.88 170.528C356.488 169.696 357.512 169.264 358.84 169.264V171.568C358.632 171.552 358.472 171.536 358.28 171.536C356.904 171.536 355.992 172.288 355.992 173.936V178H353.496V169.392H355.88V170.528ZM363.749 169.264C366.373 169.264 367.893 170.48 367.893 173.088V178H365.557V176.928C365.093 177.712 364.197 178.128 362.933 178.128C360.917 178.128 359.717 177.008 359.717 175.52C359.717 174 360.789 172.944 363.413 172.944H365.397C365.397 171.872 364.757 171.248 363.413 171.248C362.501 171.248 361.557 171.552 360.933 172.048L360.037 170.304C360.981 169.632 362.373 169.264 363.749 169.264ZM363.557 176.448C364.389 176.448 365.109 176.064 365.397 175.28V174.4H363.685C362.517 174.4 362.149 174.832 362.149 175.408C362.149 176.032 362.677 176.448 363.557 176.448ZM378.955 178.192C376.203 178.192 374.155 176.096 374.155 172.4C374.155 168.704 376.203 166.608 378.955 166.608C381.723 166.608 383.755 168.704 383.755 172.4C383.755 176.096 381.723 178.192 378.955 178.192ZM378.955 176C380.251 176 381.147 174.944 381.147 172.4C381.147 169.856 380.251 168.8 378.955 168.8C377.675 168.8 376.779 169.856 376.779 172.4C376.779 174.944 377.675 176 378.955 176ZM384.409 166.8H389.241V178H386.649V168.88H384.409V166.8Z" fill="white"/>
<rect x="480" y="308" width="150" height="150" rx="8" fill="#F7F7F7"/>
<path d="M508.896 429.104L508.576 431.696H510.656V433.44H508.368L508.048 436H506.24L506.56 433.44H504.208L503.888 436H502.096L502.416 433.44H500.32V431.696H502.624L502.96 429.104H500.864V427.36H503.168L503.488 424.8H505.28L504.96 427.36H507.312L507.632 424.8H509.424L509.104 427.36H511.184L511.2 429.104H508.896ZM504.416 431.696H506.768L507.104 429.104H504.752L504.416 431.696ZM521.308 426.88H515.436V429.84H520.62V431.92H515.436V436H512.844V424.8H521.308V426.88ZM522.307 424.8H531.283V426.48L527.123 436H524.307L528.323 426.912H524.611V428.736H522.307V424.8ZM541.605 426.88H535.733V429.84H540.917V431.92H535.733V436H533.141V424.8H541.605V426.88ZM542.604 424.8H551.58V426.48L547.42 436H544.604L548.62 426.912H544.908V428.736H542.604V424.8ZM561.901 426.88H556.029V429.84H561.213V431.92H556.029V436H553.437V424.8H561.901V426.88ZM562.9 424.8H571.876V426.48L567.716 436H564.9L568.916 426.912H565.204V428.736H562.9V424.8Z" fill="#414651"/>
<rect x="320" y="308" width="150" height="150" rx="8" fill="#F0F6FE"/>
<path d="M348.896 429.104L348.576 431.696H350.656V433.44H348.368L348.048 436H346.24L346.56 433.44H344.208L343.888 436H342.096L342.416 433.44H340.32V431.696H342.624L342.96 429.104H340.864V427.36H343.168L343.488 424.8H345.28L344.96 427.36H347.312L347.632 424.8H349.424L349.104 427.36H351.184L351.2 429.104H348.896ZM344.416 431.696H346.768L347.104 429.104H344.752L344.416 431.696ZM361.308 426.88H355.436V429.84H360.62V431.92H355.436V436H352.844V424.8H361.308V426.88ZM366.971 436.192C364.219 436.192 362.171 434.096 362.171 430.4C362.171 426.704 364.219 424.608 366.971 424.608C369.739 424.608 371.771 426.704 371.771 430.4C371.771 434.096 369.739 436.192 366.971 436.192ZM366.971 434C368.267 434 369.163 432.944 369.163 430.4C369.163 427.856 368.267 426.8 366.971 426.8C365.691 426.8 364.795 427.856 364.795 430.4C364.795 432.944 365.691 434 366.971 434ZM382.198 426.88H376.326V429.84H381.51V431.92H376.326V436H373.734V424.8H382.198V426.88ZM388.454 428.976C390.614 428.976 392.31 430.352 392.31 432.464C392.31 434.752 390.438 436.192 388.07 436.192C384.982 436.192 383.062 434.256 383.062 430.64C383.062 426.768 385.398 424.608 388.774 424.608C389.958 424.608 391.11 424.88 391.894 425.376L390.934 427.28C390.31 426.864 389.59 426.72 388.838 426.72C386.966 426.72 385.766 427.824 385.686 429.968C386.342 429.312 387.286 428.976 388.454 428.976ZM387.926 434.256C389.03 434.256 389.798 433.616 389.798 432.592C389.798 431.568 389.046 430.912 387.894 430.912C386.758 430.912 385.958 431.616 385.958 432.592C385.958 433.552 386.678 434.256 387.926 434.256ZM402.417 426.88H396.545V429.84H401.729V431.92H396.545V436H393.953V424.8H402.417V426.88ZM406.748 433.92H412.844V436H404.172V424.8H412.636V426.88H406.748V429.312H411.948V431.328H406.748V433.92Z" fill="#414651"/>
<rect x="320" y="468" width="150" height="150" rx="8" fill="#F1F3F5"/>
<path d="M348.896 589.104L348.576 591.696H350.656V593.44H348.368L348.048 596H346.24L346.56 593.44H344.208L343.888 596H342.096L342.416 593.44H340.32V591.696H342.624L342.96 589.104H340.864V587.36H343.168L343.488 584.8H345.28L344.96 587.36H347.312L347.632 584.8H349.424L349.104 587.36H351.184L351.2 589.104H348.896ZM344.416 591.696H346.768L347.104 589.104H344.752L344.416 591.696ZM361.308 586.88H355.436V589.84H360.62V591.92H355.436V596H352.844V584.8H361.308V586.88ZM371.526 586.88H365.654V589.84H370.838V591.92H365.654V596H363.062V584.8H371.526V586.88ZM381.745 586.88H375.873V589.84H381.057V591.92H375.873V596H373.281V584.8H381.745V586.88ZM386.076 593.92H392.172V596H383.5V584.8H391.964V586.88H386.076V589.312H391.276V591.328H386.076V593.92ZM402.698 586.88H396.826V589.84H402.01V591.92H396.826V596H394.234V584.8H402.698V586.88ZM411.194 590.112C412.282 590.656 412.906 591.552 412.906 592.752C412.906 594.864 411.018 596.192 408.17 596.192C405.338 596.192 403.466 594.864 403.466 592.752C403.466 591.552 404.09 590.656 405.162 590.112C404.33 589.6 403.866 588.816 403.866 587.808C403.866 585.84 405.626 584.608 408.17 584.608C410.746 584.608 412.506 585.84 412.506 587.808C412.506 588.816 412.026 589.6 411.194 590.112ZM408.17 586.512C407.13 586.512 406.442 587.04 406.442 587.92C406.442 588.768 407.114 589.296 408.17 589.296C409.242 589.296 409.93 588.768 409.93 587.92C409.93 587.04 409.226 586.512 408.17 586.512ZM408.17 594.288C409.466 594.288 410.282 593.664 410.282 592.672C410.282 591.68 409.466 591.072 408.17 591.072C406.89 591.072 406.09 591.68 406.09 592.672C406.09 593.664 406.89 594.288 408.17 594.288Z" fill="#414651"/>
<rect x="160" y="308" width="150" height="150" rx="8" fill="#F6C774"/>
<path d="M188.896 429.104L188.576 431.696H190.656V433.44H188.368L188.048 436H186.24L186.56 433.44H184.208L183.888 436H182.096L182.416 433.44H180.32V431.696H182.624L182.96 429.104H180.864V427.36H183.168L183.488 424.8H185.28L184.96 427.36H187.312L187.632 424.8H189.424L189.104 427.36H191.184L191.2 429.104H188.896ZM184.416 431.696H186.768L187.104 429.104H184.752L184.416 431.696ZM201.308 426.88H195.436V429.84H200.62V431.92H195.436V436H192.844V424.8H201.308V426.88ZM207.563 428.976C209.723 428.976 211.419 430.352 211.419 432.464C211.419 434.752 209.547 436.192 207.179 436.192C204.091 436.192 202.171 434.256 202.171 430.64C202.171 426.768 204.507 424.608 207.883 424.608C209.067 424.608 210.219 424.88 211.003 425.376L210.043 427.28C209.419 426.864 208.699 426.72 207.947 426.72C206.075 426.72 204.875 427.824 204.795 429.968C205.451 429.312 206.395 428.976 207.563 428.976ZM207.035 434.256C208.139 434.256 208.907 433.616 208.907 432.592C208.907 431.568 208.155 430.912 207.003 430.912C205.867 430.912 205.067 431.616 205.067 432.592C205.067 433.552 205.787 434.256 207.035 434.256ZM218.422 436.192C214.95 436.192 212.358 433.776 212.358 430.4C212.358 427.024 214.95 424.608 218.438 424.608C220.374 424.608 221.99 425.312 223.046 426.592L221.382 428.128C220.63 427.264 219.686 426.816 218.566 426.816C216.47 426.816 214.982 428.288 214.982 430.4C214.982 432.512 216.47 433.984 218.566 433.984C219.686 433.984 220.63 433.536 221.382 432.656L223.046 434.192C221.99 435.488 220.374 436.192 218.422 436.192ZM223.885 424.8H232.861V426.48L228.701 436H225.885L229.901 426.912H226.189V428.736H223.885V424.8ZM233.807 424.8H242.783V426.48L238.623 436H235.807L239.823 426.912H236.111V428.736H233.807V424.8ZM253.146 431.536V433.648H251.322V436H248.794V433.648H242.762V431.904L248.042 424.8H250.762L245.866 431.536H248.874V429.44H251.322V431.536H253.146Z" fill="white"/>
<rect x="640" y="468" width="150" height="150" rx="8" fill="#495057"/>
<path d="M668.896 589.104L668.576 591.696H670.656V593.44H668.368L668.048 596H666.24L666.56 593.44H664.208L663.888 596H662.096L662.416 593.44H660.32V591.696H662.624L662.96 589.104H660.864V587.36H663.168L663.488 584.8H665.28L664.96 587.36H667.312L667.632 584.8H669.424L669.104 587.36H671.184L671.2 589.104H668.896ZM664.416 591.696H666.768L667.104 589.104H664.752L664.416 591.696ZM675.692 593.888H680.508V596H672.044V594.32L676.364 590.24C677.356 589.296 677.532 588.72 677.532 588.176C677.532 587.296 676.924 586.784 675.74 586.784C674.78 586.784 673.964 587.152 673.42 587.904L671.532 586.688C672.396 585.424 673.964 584.608 675.98 584.608C678.476 584.608 680.14 585.888 680.14 587.92C680.14 589.008 679.836 590 678.268 591.456L675.692 593.888ZM690.745 586.88H684.873V589.84H690.057V591.92H684.873V596H682.281V584.8H690.745V586.88ZM692.5 596V584.8H697.588C701.252 584.8 703.764 587.008 703.764 590.4C703.764 593.792 701.252 596 697.588 596H692.5ZM695.092 593.872H697.46C699.684 593.872 701.14 592.544 701.14 590.4C701.14 588.256 699.684 586.928 697.46 586.928H695.092V593.872ZM709.815 596.192C707.063 596.192 705.015 594.096 705.015 590.4C705.015 586.704 707.063 584.608 709.815 584.608C712.583 584.608 714.615 586.704 714.615 590.4C714.615 594.096 712.583 596.192 709.815 596.192ZM709.815 594C711.111 594 712.007 592.944 712.007 590.4C712.007 587.856 711.111 586.8 709.815 586.8C708.535 586.8 707.639 587.856 707.639 590.4C707.639 592.944 708.535 594 709.815 594ZM721.266 588.976C723.426 588.976 725.122 590.352 725.122 592.464C725.122 594.752 723.25 596.192 720.882 596.192C717.794 596.192 715.874 594.256 715.874 590.64C715.874 586.768 718.21 584.608 721.586 584.608C722.77 584.608 723.922 584.88 724.706 585.376L723.746 587.28C723.122 586.864 722.402 586.72 721.65 586.72C719.778 586.72 718.578 587.824 718.498 589.968C719.154 589.312 720.098 588.976 721.266 588.976ZM720.738 594.256C721.842 594.256 722.61 593.616 722.61 592.592C722.61 591.568 721.858 590.912 720.706 590.912C719.57 590.912 718.77 591.616 718.77 592.592C718.77 593.552 719.49 594.256 720.738 594.256ZM732.126 596.192C728.654 596.192 726.062 593.776 726.062 590.4C726.062 587.024 728.654 584.608 732.142 584.608C734.078 584.608 735.694 585.312 736.75 586.592L735.086 588.128C734.334 587.264 733.39 586.816 732.27 586.816C730.174 586.816 728.686 588.288 728.686 590.4C728.686 592.512 730.174 593.984 732.27 593.984C733.39 593.984 734.334 593.536 735.086 592.656L736.75 594.192C735.694 595.488 734.078 596.192 732.126 596.192Z" fill="white"/>
<path d="M631.241 98.8574V111.217H629.71V98.8574H631.241ZM621.001 107.812C624.241 106.274 625.731 104.183 626.005 101.373H621.63V100.17H627.55C627.55 103.848 626.121 106.972 621.794 109.029L621.001 107.812ZM643.272 99.418V100.635H639.684C639.82 101.824 641.338 102.945 643.724 103.219L643.149 104.436C640.935 104.148 639.301 103.171 638.638 101.831C637.975 103.164 636.354 104.148 634.14 104.436L633.579 103.219C635.965 102.945 637.455 101.817 637.599 100.635H634.044V99.418H643.272ZM633.019 106.609V105.365H637.886V103.547H639.39V105.365H644.284V106.609H633.019ZM634.413 110.971V107.443H635.931V109.74H643.013V110.971H634.413ZM659.733 108.523V109.781H648.44V108.523H653.308V106.514H649.78V102.467H656.89V100.936H649.753V99.7051H658.394V103.67H651.298V105.27H658.681V106.514H654.812V108.523H659.733ZM670.63 99.9922V101.182C670.616 102.72 670.616 104.436 670.138 107.02L668.606 106.855C669.092 104.449 669.092 102.692 669.099 101.209H661.716V99.9922H670.63ZM660.54 109.617V108.373H664.696V104.08H666.2V108.373H671.806V109.617H660.54ZM683.304 98.8574V111.217H681.841V98.8574H683.304ZM672.763 104.203C672.763 101.482 673.815 99.7939 675.429 99.8008C676.926 99.7939 677.944 101.195 678.122 103.506H679.312V99.0762H680.761V110.615H679.312V104.736H678.136C677.992 107.149 676.96 108.626 675.429 108.619C673.815 108.626 672.763 106.931 672.763 104.203ZM674.171 104.203C674.164 106.138 674.643 107.177 675.429 107.17C676.249 107.177 676.734 106.138 676.741 104.203C676.734 102.275 676.249 101.229 675.429 101.236C674.643 101.229 674.164 102.275 674.171 104.203ZM689.306 101.824C689.299 104.121 690.399 106.377 692.368 107.238L691.452 108.455C690.058 107.771 689.073 106.459 688.547 104.839C688.007 106.548 686.995 107.97 685.573 108.688L684.616 107.457C686.633 106.514 687.754 104.135 687.761 101.824V99.8555H689.306V101.824ZM691.001 104.08V102.85H693.599V98.8574H695.103V111.23H693.599V104.08H691.001ZM711.427 106.281V107.525H706.532V111.23H705.028V107.525H700.161V106.281H711.427ZM700.776 104.326C703.244 104.025 704.864 102.761 705.015 101.523H701.2V100.32H705.028V98.8711H706.532V100.32H710.374V101.523H706.56C706.703 102.747 708.316 104.025 710.784 104.326L710.224 105.529C708.18 105.27 706.594 104.374 705.794 103.185C704.987 104.388 703.381 105.27 701.323 105.529L700.776 104.326ZM723.499 104.203V105.324H718.632V106.227H722.118V109.125H715.091V109.973H722.46V111.107H713.601V108.086H720.628V107.32H713.587V106.227H717.128V105.324H712.288V104.203H723.499ZM712.78 102.658C715.221 102.535 716.656 101.879 716.971 101.004H713.368V99.8691H717.128V98.8301H718.632V99.8691H722.419V101.004H718.789C719.09 101.879 720.525 102.535 722.993 102.658L722.542 103.793C720.32 103.656 718.659 103.055 717.88 102.057C717.101 103.055 715.446 103.656 713.204 103.793L712.78 102.658ZM734.108 98.8711V102.754H735.831V104.012H734.108V108.1H732.591V98.8711H734.108ZM724.374 101.455V100.238H727.286V98.8574H728.804V100.238H731.702V101.455H724.374ZM725.003 104.326C725.003 102.904 726.24 101.961 728.038 101.961C729.822 101.961 731.053 102.904 731.06 104.326C731.053 105.741 729.822 106.664 728.038 106.664C726.24 106.664 725.003 105.741 725.003 104.326ZM726.192 110.971V107.375H727.71V109.74H734.601V110.971H726.192ZM726.479 104.326C726.473 105.071 727.102 105.495 728.038 105.488C728.975 105.495 729.61 105.071 729.61 104.326C729.61 103.574 728.975 103.137 728.038 103.137C727.102 103.137 726.473 103.574 726.479 104.326ZM743.104 99.7598C744.964 99.7598 746.304 101.455 746.317 104.121C746.304 106.808 744.964 108.496 743.104 108.496C741.225 108.496 739.885 106.808 739.892 104.121C739.885 101.455 741.225 99.7598 743.104 99.7598ZM741.354 104.121C741.348 106.021 742.065 107.122 743.104 107.129C744.15 107.122 744.848 106.021 744.854 104.121C744.848 102.234 744.15 101.127 743.104 101.127C742.065 101.127 741.348 102.234 741.354 104.121ZM747.944 111.217V98.8574H749.462V103.602H751.362V104.887H749.462V111.217H747.944ZM762.163 98.8574V111.23H760.632V98.8574H762.163ZM752.278 104.121C752.271 101.455 753.632 99.7598 755.505 99.7598C757.357 99.7598 758.725 101.455 758.731 104.121C758.725 106.808 757.357 108.496 755.505 108.496C753.632 108.496 752.271 106.808 752.278 104.121ZM753.741 104.121C753.741 106.021 754.459 107.122 755.505 107.129C756.544 107.122 757.255 106.021 757.255 104.121C757.255 102.234 756.544 101.127 755.505 101.127C754.459 101.127 753.741 102.234 753.741 104.121ZM769.313 99.8555V101.072H766.032V104.873C767.352 104.866 768.459 104.798 769.737 104.545L769.86 105.734C768.322 106.042 767.051 106.069 765.362 106.076H764.542V99.8555H769.313ZM766.333 110.971V106.965H767.851V109.727H774.946V110.971H766.333ZM768.562 103.424V102.207H770.694V99.1035H772.13V107.662H770.694V103.424H768.562ZM773.155 107.99V98.8711H774.604V107.99H773.155ZM782.985 99.9238V101.168H778.296V103.369H782.493V104.572H778.296V107.115C780.319 107.108 781.864 107.033 783.642 106.746L783.792 107.977C781.844 108.284 780.107 108.346 777.831 108.346H776.792V99.9238H782.985ZM784.872 111.217V98.8574H786.403V111.217H784.872ZM795.085 99.9238V101.168H790.396V103.369H794.593V104.572H790.396V107.115C792.419 107.108 793.964 107.033 795.741 106.746L795.892 107.977C793.943 108.284 792.207 108.346 789.931 108.346H788.892V99.9238H795.085ZM796.972 111.217V98.8574H798.503V111.217H796.972ZM810.056 99.418C810.042 102.672 808.354 104.668 804.423 105.625L803.876 104.463C805.722 104.039 806.904 103.39 807.608 102.576L804.122 102.836L803.89 101.674L808.23 101.51C808.333 101.223 808.401 100.922 808.436 100.607H804.519V99.418H810.056ZM805.817 106.842V105.652H813.952V108.865H807.321V109.863H814.28V111.066H805.831V107.758H812.448V106.842H805.817ZM810.083 102.863V101.619H812.435V98.8574H813.952V105.16H812.435V102.863H810.083ZM826.052 98.8574V111.23H824.534V104.654H822.415V103.41H824.534V98.8574H826.052ZM816.112 101.168V99.9375H821.704V104.463H817.657V107.061C819.496 107.054 820.973 106.992 822.634 106.691L822.757 107.936C820.918 108.257 819.264 108.325 817.138 108.332H816.153V103.232H820.214V101.168H816.112ZM839.081 104.463V105.611H827.788V104.463H839.081ZM829.101 107.416V106.35H837.714V109.166H830.632V110.027H838.083V111.08H829.114V108.182H836.21V107.416H829.101ZM829.183 100.184V99.1309H837.687V101.92H830.728V102.727H837.905V103.766H829.224V100.936H836.169V100.184H829.183ZM627.509 125.477V126.68H623.845V129.51H628.767V130.754H617.474V129.51H622.341V126.68H618.841V120.773H627.413V121.99H620.358V125.477H627.509ZM640.812 125.203V126.324H635.944V127.227H639.431V130.125H632.403V130.973H639.772V132.107H630.913V129.086H637.94V128.32H630.899V127.227H634.44V126.324H629.601V125.203H640.812ZM630.093 123.658C632.533 123.535 633.969 122.879 634.283 122.004H630.681V120.869H634.44V119.83H635.944V120.869H639.731V122.004H636.102C636.402 122.879 637.838 123.535 640.306 123.658L639.854 124.793C637.633 124.656 635.972 124.055 635.192 123.057C634.413 124.055 632.759 124.656 630.517 124.793L630.093 123.658ZM651.353 119.857V124.779H653.253V126.037H651.353V132.217H649.849V119.857H651.353ZM641.604 122.975V121.758H644.53V120.035H646.048V121.758H648.892V122.975H641.604ZM642.179 126.693C642.165 124.984 643.491 123.774 645.296 123.781C647.073 123.774 648.393 124.984 648.399 126.693C648.393 128.396 647.073 129.592 645.296 129.592C643.491 129.592 642.165 128.396 642.179 126.693ZM643.628 126.693C643.621 127.698 644.325 128.341 645.296 128.334C646.246 128.341 646.937 127.698 646.95 126.693C646.937 125.688 646.246 125.025 645.296 125.025C644.325 125.025 643.621 125.688 643.628 126.693ZM657.149 120.76C658.264 120.76 659.187 121.382 659.74 122.469H662.632V119.857H664.136V132.23H662.632V127.555H659.85C659.31 128.785 658.339 129.496 657.149 129.496C655.29 129.496 653.971 127.808 653.978 125.121C653.971 122.455 655.29 120.76 657.149 120.76ZM655.44 125.121C655.434 127.021 656.131 128.122 657.149 128.129C658.175 128.122 658.865 127.021 658.872 125.121C658.865 123.234 658.175 122.127 657.149 122.127C656.131 122.127 655.434 123.234 655.44 125.121ZM660.171 123.713C660.26 124.144 660.308 124.615 660.308 125.121C660.308 125.545 660.273 125.948 660.205 126.324H662.632V123.713H660.171ZM679.079 120.609V121.717C679.072 122.872 679.072 124.137 678.751 125.887H680.46V127.117H675.552V132.23H674.021V127.117H669.194V125.887H677.206C677.548 124.205 677.562 122.94 677.562 121.84H670.521V120.609H679.079ZM685.819 121.635C685.812 123.316 686.797 124.854 688.731 125.463L687.911 126.652C686.564 126.174 685.621 125.271 685.095 124.103C684.548 125.449 683.516 126.509 682.019 127.035L681.212 125.805C683.256 125.135 684.281 123.487 684.288 121.703V120.527H685.819V121.635ZM683.263 129.838C683.249 128.334 684.855 127.452 687.46 127.459C690.078 127.452 691.678 128.334 691.685 129.838C691.678 131.342 690.078 132.203 687.46 132.203C684.855 132.203 683.249 131.342 683.263 129.838ZM684.767 129.838C684.76 130.59 685.744 131.007 687.46 131.014C689.189 131.007 690.167 130.59 690.167 129.838C690.167 129.059 689.189 128.642 687.46 128.635C685.744 128.642 684.76 129.059 684.767 129.838ZM687.665 123.494V122.25H690.126V119.857H691.644V127.131H690.126V123.494H687.665ZM703.073 119.857V124.779H704.974V126.037H703.073V132.217H701.569V119.857H703.073ZM693.325 122.975V121.758H696.251V120.035H697.769V121.758H700.612V122.975H693.325ZM693.899 126.693C693.886 124.984 695.212 123.774 697.017 123.781C698.794 123.774 700.113 124.984 700.12 126.693C700.113 128.396 698.794 129.592 697.017 129.592C695.212 129.592 693.886 128.396 693.899 126.693ZM695.349 126.693C695.342 127.698 696.046 128.341 697.017 128.334C697.967 128.341 698.657 127.698 698.671 126.693C698.657 125.688 697.967 125.025 697.017 125.025C696.046 125.025 695.342 125.688 695.349 126.693ZM708.87 120.76C709.984 120.76 710.907 121.382 711.461 122.469H714.353V119.857H715.856V132.23H714.353V127.555H711.57C711.03 128.785 710.06 129.496 708.87 129.496C707.011 129.496 705.691 127.808 705.698 125.121C705.691 122.455 707.011 120.76 708.87 120.76ZM707.161 125.121C707.154 127.021 707.852 128.122 708.87 128.129C709.896 128.122 710.586 127.021 710.593 125.121C710.586 123.234 709.896 122.127 708.87 122.127C707.852 122.127 707.154 123.234 707.161 125.121ZM711.892 123.713C711.98 124.144 712.028 124.615 712.028 125.121C712.028 125.545 711.994 125.948 711.926 126.324H714.353V123.713H711.892ZM719.999 130.029L718.851 133.857H717.552L718.263 130.029H719.999ZM729.733 120.459V122.1H732.618V120.459H734.122V125.955H728.229V120.459H729.733ZM728.968 128.143V126.994H733.097V130.029H730.485V130.945C732.174 130.945 732.96 130.897 733.89 130.686L734.04 131.82C732.946 132.046 732.058 132.087 729.788 132.08H728.995V128.963H731.62V128.143H728.968ZM729.733 124.752H732.618V123.234H729.733V124.752ZM733.63 128.197V126.994H737.554V132.148H736.05V128.197H733.63ZM736.036 126.434V119.857H737.554V122.414H739.276V123.672H737.554V126.434H736.036ZM751.171 126.242V127.459H739.905V126.242H751.171ZM741.067 122.756C741.067 121.19 742.824 120.247 745.524 120.254C748.218 120.247 749.975 121.19 749.981 122.756C749.975 124.328 748.218 125.285 745.524 125.285C742.824 125.285 741.067 124.328 741.067 122.756ZM741.3 131.971V128.375H742.817V130.74H749.899V131.971H741.3ZM742.653 122.756C742.64 123.597 743.727 124.048 745.524 124.041C747.329 124.048 748.409 123.597 748.409 122.756C748.409 121.942 747.329 121.471 745.524 121.471C743.727 121.471 742.64 121.942 742.653 122.756ZM766.606 126.256V127.473H761.835V129.605H760.331V127.473H755.313V126.256H766.606ZM756.681 131.971V128.566H758.185V130.74H765.362V131.971H756.681ZM756.79 125.285V120.254H758.294V121.648H763.626V120.254H765.13V125.285H756.79ZM758.294 124.082H763.626V122.783H758.294V124.082ZM771.46 120.404C773.34 120.397 774.7 121.45 774.7 123.002C774.7 124.526 773.34 125.593 771.46 125.586C769.601 125.593 768.247 124.526 768.247 123.002C768.247 121.45 769.601 120.397 771.46 120.404ZM767.44 126.434C769.669 126.434 772.793 126.393 775.452 125.996L775.562 127.117C774.495 127.322 773.388 127.452 772.308 127.534V131.834H770.776V127.623C769.635 127.671 768.562 127.685 767.632 127.691L767.44 126.434ZM769.724 123.002C769.717 123.829 770.448 124.349 771.46 124.342C772.513 124.349 773.251 123.829 773.251 123.002C773.251 122.147 772.513 121.621 771.46 121.635C770.448 121.621 769.717 122.147 769.724 123.002ZM776.259 132.203V119.871H777.763V132.203H776.259ZM789.849 119.857V132.217H788.317V119.857H789.849ZM779.608 128.812C782.849 127.274 784.339 125.183 784.612 122.373H780.237V121.17H786.157C786.157 124.848 784.729 127.972 780.401 130.029L779.608 128.812ZM802.905 125.463V126.611H791.612V125.463H802.905ZM792.925 128.416V127.35H801.538V130.166H794.456V131.027H801.907V132.08H792.938V129.182H800.034V128.416H792.925ZM793.007 121.184V120.131H801.511V122.92H794.552V123.727H801.729V124.766H793.048V121.936H799.993V121.184H793.007ZM817.411 119.871V129.223H815.88V128.143H813.46V127.076H815.88V119.871H817.411ZM806.993 125.422C809.27 125.408 812.339 125.388 814.964 125.053L815.046 126.146C814.027 126.317 812.975 126.427 811.929 126.502V128.881H810.411V126.584C809.256 126.632 808.155 126.639 807.185 126.639L806.993 125.422ZM807.937 122.51C807.937 121.204 809.194 120.315 811.026 120.322C812.824 120.315 814.089 121.204 814.103 122.51C814.089 123.836 812.824 124.677 811.026 124.684C809.194 124.677 807.937 123.836 807.937 122.51ZM808.634 131.971V128.32H810.151V130.74H817.698V131.971H808.634ZM809.372 122.51C809.372 123.18 810.035 123.569 811.026 123.576C811.97 123.569 812.646 123.18 812.653 122.51C812.646 121.84 811.97 121.437 811.026 121.443C810.035 121.437 809.372 121.84 809.372 122.51ZM828.827 119.857V124.779H830.728V126.037H828.827V132.217H827.323V119.857H828.827ZM819.079 122.975V121.758H822.005V120.035H823.522V121.758H826.366V122.975H819.079ZM819.653 126.693C819.64 124.984 820.966 123.774 822.771 123.781C824.548 123.774 825.867 124.984 825.874 126.693C825.867 128.396 824.548 129.592 822.771 129.592C820.966 129.592 819.64 128.396 819.653 126.693ZM821.103 126.693C821.096 127.698 821.8 128.341 822.771 128.334C823.721 128.341 824.411 127.698 824.425 126.693C824.411 125.688 823.721 125.025 822.771 125.025C821.8 125.025 821.096 125.688 821.103 126.693ZM841.255 123.357V124.561H832.696V120.309H834.2V123.357H841.255ZM831.233 127.199V125.996H842.526V127.199H831.233ZM832.587 131.93V128.293H834.104V130.699H841.337V131.93H832.587ZM667.062 141.992V143.182C667.048 144.72 667.048 146.436 666.569 149.02L665.038 148.855C665.523 146.449 665.523 144.692 665.53 143.209H658.147V141.992H667.062ZM656.972 151.617V150.373H661.128V146.08H662.632V150.373H668.237V151.617H656.972ZM679.64 140.871V148.117H678.19V145.041H676.892V148.062H675.456V141.104H676.892V143.797H678.19V140.871H679.64ZM669.003 147.092C671.416 146.169 672.667 144.768 672.913 142.963H669.563V141.732H674.458C674.465 144.795 672.92 146.928 669.728 148.227L669.003 147.092ZM671.122 149.854V148.623H679.64V153.217H678.122V149.854H671.122ZM694.802 140.857V153.217H693.298V140.857H694.802ZM685.204 150.113V142.061H686.708V148.814C688.438 148.787 690.283 148.637 692.19 148.254L692.382 149.525C690.208 149.977 688.191 150.12 686.271 150.113H685.204ZM707.886 150.414V151.672H696.593V150.414H707.886ZM697.085 147.283C699.58 146.894 701.426 145.198 701.419 143.387V143.195H697.536V141.979H706.915V143.195H703.019V143.387C703.019 145.198 704.864 146.846 707.435 147.242L706.833 148.445C704.748 148.069 703.039 146.955 702.232 145.41C701.439 146.976 699.744 148.124 697.687 148.514L697.085 147.283ZM719.356 140.857V153.217H717.894V140.857H719.356ZM708.815 146.203C708.815 143.482 709.868 141.794 711.481 141.801C712.979 141.794 713.997 143.195 714.175 145.506H715.364V141.076H716.813V152.615H715.364V146.736H714.188C714.045 149.149 713.013 150.626 711.481 150.619C709.868 150.626 708.815 148.931 708.815 146.203ZM710.224 146.203C710.217 148.138 710.695 149.177 711.481 149.17C712.302 149.177 712.787 148.138 712.794 146.203C712.787 144.275 712.302 143.229 711.481 143.236C710.695 143.229 710.217 144.275 710.224 146.203ZM730.39 141.678V147.051H724.538V141.678H730.39ZM725.263 152C727.45 151.706 728.817 150.742 729.063 149.662H725.769V148.459H734.04V149.662H730.759C731.005 150.715 732.399 151.713 734.56 152.014L734.013 153.176C732.078 152.902 730.615 152.075 729.904 150.961C729.193 152.075 727.744 152.889 725.823 153.148L725.263 152ZM726.028 145.834H728.899V142.895H726.028V145.834ZM732.345 147.83V140.857H733.862V143.633H735.585V144.891H733.862V147.83H732.345ZM743.446 142.129V143.305H741.013C741.033 144.351 742.011 145.301 743.788 145.629L743.159 146.818C741.765 146.518 740.773 145.848 740.24 144.952C739.707 145.93 738.695 146.654 737.239 146.969L736.597 145.82C738.401 145.458 739.393 144.433 739.413 143.305H736.925V142.129H739.454V140.885H740.958V142.129H743.446ZM736.159 147.584C738.47 147.584 741.546 147.557 744.226 147.188L744.321 148.309C743.193 148.507 742.038 148.63 740.903 148.712V152.834H739.372V148.787C738.292 148.828 737.267 148.828 736.351 148.828L736.159 147.584ZM742.476 150.646V149.471H745.101V140.871H746.646V153.203H745.101V150.646H742.476ZM756.052 143.824C756.038 146.032 757.146 148.261 759.06 149.184L758.13 150.4C756.79 149.724 755.826 148.418 755.3 146.846C754.76 148.527 753.748 149.922 752.333 150.633L751.403 149.416C753.393 148.473 754.527 146.107 754.534 143.824V141.855H756.052V143.824ZM759.798 153.217V140.857H761.315V145.697H763.216V146.996H761.315V153.217H759.798ZM775.001 146.805V148.021H763.735V146.805H766.36V145.239C765.424 144.843 764.897 144.221 764.897 143.414C764.897 141.931 766.627 141.062 769.354 141.062C772.075 141.062 773.805 141.931 773.812 143.414C773.805 144.228 773.271 144.85 772.335 145.239V146.805H775.001ZM765.048 150.975C765.048 149.553 766.654 148.76 769.354 148.773C772.014 148.76 773.627 149.553 773.634 150.975C773.627 152.41 772.014 153.189 769.354 153.189C766.654 153.189 765.048 152.41 765.048 150.975ZM766.483 143.414C766.47 144.166 767.529 144.569 769.354 144.562C771.173 144.569 772.239 144.166 772.239 143.414C772.239 142.655 771.173 142.231 769.354 142.238C767.529 142.231 766.47 142.655 766.483 143.414ZM766.593 150.975C766.586 151.672 767.557 152.048 769.354 152.041C771.125 152.048 772.103 151.672 772.116 150.975C772.103 150.284 771.125 149.929 769.354 149.922C767.557 149.929 766.586 150.284 766.593 150.975ZM767.892 146.805H770.817V145.629C770.373 145.69 769.881 145.725 769.354 145.725C768.828 145.725 768.336 145.69 767.892 145.629V146.805ZM785.583 140.871V144.754H787.306V146.012H785.583V150.1H784.065V140.871H785.583ZM775.849 143.455V142.238H778.761V140.857H780.278V142.238H783.177V143.455H775.849ZM776.478 146.326C776.478 144.904 777.715 143.961 779.513 143.961C781.297 143.961 782.527 144.904 782.534 146.326C782.527 147.741 781.297 148.664 779.513 148.664C777.715 148.664 776.478 147.741 776.478 146.326ZM777.667 152.971V149.375H779.185V151.74H786.075V152.971H777.667ZM777.954 146.326C777.947 147.071 778.576 147.495 779.513 147.488C780.449 147.495 781.085 147.071 781.085 146.326C781.085 145.574 780.449 145.137 779.513 145.137C778.576 145.137 777.947 145.574 777.954 146.326ZM797.614 140.857V145.547H799.515V146.791H797.614V153.23H796.097V140.857H797.614ZM788.44 150.209V142.033H794.224V143.264H789.958V148.938C791.879 148.931 793.403 148.835 795.099 148.541L795.276 149.826C793.355 150.154 791.694 150.209 789.466 150.209H788.44ZM801.538 152.109C800.95 152.109 800.465 151.631 800.472 151.043C800.465 150.469 800.95 149.997 801.538 149.99C802.105 149.997 802.591 150.469 802.591 151.043C802.591 151.631 802.105 152.109 801.538 152.109Z" fill="#A4A7AE"/>
<rect x="160" y="148" width="150" height="150" rx="8" fill="#05428F"/>
<path d="M188.896 269.104L188.576 271.696H190.656V273.44H188.368L188.048 276H186.24L186.56 273.44H184.208L183.888 276H182.096L182.416 273.44H180.32V271.696H182.624L182.96 269.104H180.864V267.36H183.168L183.488 264.8H185.28L184.96 267.36H187.312L187.632 264.8H189.424L189.104 267.36H191.184L191.2 269.104H188.896ZM184.416 271.696H186.768L187.104 269.104H184.752L184.416 271.696ZM196.94 276.192C194.188 276.192 192.14 274.096 192.14 270.4C192.14 266.704 194.188 264.608 196.94 264.608C199.708 264.608 201.74 266.704 201.74 270.4C201.74 274.096 199.708 276.192 196.94 276.192ZM196.94 274C198.236 274 199.132 272.944 199.132 270.4C199.132 267.856 198.236 266.8 196.94 266.8C195.66 266.8 194.764 267.856 194.764 270.4C194.764 272.944 195.66 274 196.94 274ZM206.839 269.008C210.151 269.008 211.463 270.496 211.463 272.48C211.463 274.464 210.007 276.192 206.807 276.192C205.255 276.192 203.623 275.76 202.535 274.992L203.559 273.008C204.407 273.648 205.575 274.016 206.743 274.016C208.039 274.016 208.839 273.472 208.839 272.56C208.839 271.68 208.263 271.104 206.231 271.104H203.367L203.943 264.8H210.775V266.88H206.103L205.927 269.008H206.839ZM222.771 271.536V273.648H220.947V276H218.419V273.648H212.387V271.904L217.667 264.8H220.387L215.491 271.536H218.499V269.44H220.947V271.536H222.771ZM227.067 273.888H231.883V276H223.419V274.32L227.739 270.24C228.731 269.296 228.907 268.72 228.907 268.176C228.907 267.296 228.299 266.784 227.115 266.784C226.155 266.784 225.339 267.152 224.795 267.904L222.907 266.688C223.771 265.424 225.339 264.608 227.355 264.608C229.851 264.608 231.515 265.888 231.515 267.92C231.515 269.008 231.211 270 229.643 271.456L227.067 273.888ZM240.616 270.112C241.704 270.656 242.328 271.552 242.328 272.752C242.328 274.864 240.44 276.192 237.592 276.192C234.76 276.192 232.888 274.864 232.888 272.752C232.888 271.552 233.512 270.656 234.584 270.112C233.752 269.6 233.288 268.816 233.288 267.808C233.288 265.84 235.048 264.608 237.592 264.608C240.168 264.608 241.928 265.84 241.928 267.808C241.928 268.816 241.448 269.6 240.616 270.112ZM237.592 266.512C236.552 266.512 235.864 267.04 235.864 267.92C235.864 268.768 236.536 269.296 237.592 269.296C238.664 269.296 239.352 268.768 239.352 267.92C239.352 267.04 238.648 266.512 237.592 266.512ZM237.592 274.288C238.888 274.288 239.704 273.664 239.704 272.672C239.704 271.68 238.888 271.072 237.592 271.072C236.312 271.072 235.512 271.68 235.512 272.672C235.512 273.664 236.312 274.288 237.592 274.288ZM252.683 266.88H246.811V269.84H251.995V271.92H246.811V276H244.219V264.8H252.683V266.88Z" fill="white"/>
<rect y="148" width="150" height="150" rx="8" fill="#1DBCF3"/>
<path d="M28.896 269.104L28.576 271.696H30.656V273.44H28.368L28.048 276H26.24L26.56 273.44H24.208L23.888 276H22.096L22.416 273.44H20.32V271.696H22.624L22.96 269.104H20.864V267.36H23.168L23.488 264.8H25.28L24.96 267.36H27.312L27.632 264.8H29.424L29.104 267.36H31.184L31.2 269.104H28.896ZM24.416 271.696H26.768L27.104 269.104H24.752L24.416 271.696ZM31.6276 264.8H36.4596V276H33.8676V266.88H31.6276V264.8ZM39.1093 276V264.8H44.1973C47.8613 264.8 50.3733 267.008 50.3733 270.4C50.3733 273.792 47.8613 276 44.1973 276H39.1093ZM41.7013 273.872H44.0693C46.2933 273.872 47.7493 272.544 47.7493 270.4C47.7493 268.256 46.2933 266.928 44.0693 266.928H41.7013V273.872ZM60.552 270.176C61.8 270.576 62.6 271.536 62.6 272.944C62.6 274.88 61.064 276 58.12 276H52.328V264.8H57.8C60.6 264.8 62.04 265.968 62.04 267.712C62.04 268.832 61.464 269.696 60.552 270.176ZM57.48 266.752H54.904V269.392H57.48C58.744 269.392 59.432 268.944 59.432 268.064C59.432 267.184 58.744 266.752 57.48 266.752ZM57.928 274.048C59.272 274.048 59.992 273.632 59.992 272.672C59.992 271.728 59.272 271.28 57.928 271.28H54.904V274.048H57.928ZM69.9224 276.192C66.4504 276.192 63.8584 273.776 63.8584 270.4C63.8584 267.024 66.4504 264.608 69.9384 264.608C71.8744 264.608 73.4904 265.312 74.5464 266.592L72.8824 268.128C72.1304 267.264 71.1864 266.816 70.0664 266.816C67.9704 266.816 66.4824 268.288 66.4824 270.4C66.4824 272.512 67.9704 273.984 70.0664 273.984C71.1864 273.984 72.1304 273.536 72.8824 272.656L74.5464 274.192C73.4904 275.488 71.8744 276.192 69.9224 276.192ZM84.7608 266.88H78.8888V269.84H84.0728V271.92H78.8888V276H76.2968V264.8H84.7608V266.88ZM91.0435 269.36C93.0595 269.68 94.0835 270.928 94.0835 272.576C94.0835 274.464 92.6275 276.192 89.4435 276.192C87.8755 276.192 86.2595 275.76 85.1715 274.992L86.1795 273.008C87.0275 273.648 88.2115 274.016 89.3795 274.016C90.6755 274.016 91.4755 273.488 91.4755 272.576C91.4755 271.728 90.8515 271.2 89.3795 271.2H88.1955V269.488L90.4995 266.88H85.7315V264.8H93.5715V266.48L91.0435 269.36Z" fill="white"/>
<path d="M488.358 287.904C489.45 288.254 490.15 289.094 490.15 290.326C490.15 292.02 488.806 293 486.23 293H481.162V283.2H485.95C488.4 283.2 489.66 284.222 489.66 285.748C489.66 286.728 489.156 287.484 488.358 287.904ZM485.67 284.908H483.416V287.218H485.67C486.776 287.218 487.378 286.826 487.378 286.056C487.378 285.286 486.776 284.908 485.67 284.908ZM486.062 291.292C487.238 291.292 487.868 290.928 487.868 290.088C487.868 289.262 487.238 288.87 486.062 288.87H483.416V291.292H486.062ZM494.751 285.356C497.047 285.356 498.377 286.42 498.377 288.702V293H496.333V292.062C495.927 292.748 495.143 293.112 494.037 293.112C492.273 293.112 491.223 292.132 491.223 290.83C491.223 289.5 492.161 288.576 494.457 288.576H496.193C496.193 287.638 495.633 287.092 494.457 287.092C493.659 287.092 492.833 287.358 492.287 287.792L491.503 286.266C492.329 285.678 493.547 285.356 494.751 285.356ZM494.583 291.642C495.311 291.642 495.941 291.306 496.193 290.62V289.85H494.695C493.673 289.85 493.351 290.228 493.351 290.732C493.351 291.278 493.813 291.642 494.583 291.642ZM502.888 293.112C501.614 293.112 500.326 292.762 499.626 292.3L500.354 290.732C501.026 291.166 502.048 291.46 502.972 291.46C503.98 291.46 504.358 291.194 504.358 290.774C504.358 289.542 499.808 290.802 499.808 287.792C499.808 286.364 501.096 285.356 503.294 285.356C504.33 285.356 505.478 285.594 506.192 286.014L505.464 287.568C504.722 287.148 503.98 287.008 503.294 287.008C502.314 287.008 501.894 287.316 501.894 287.708C501.894 288.996 506.444 287.75 506.444 290.718C506.444 292.118 505.142 293.112 502.888 293.112ZM515.169 289.262C515.169 289.43 515.141 289.668 515.127 289.85H509.429C509.639 290.788 510.437 291.362 511.585 291.362C512.383 291.362 512.957 291.124 513.475 290.634L514.637 291.894C513.937 292.692 512.887 293.112 511.529 293.112C508.925 293.112 507.231 291.474 507.231 289.234C507.231 286.98 508.953 285.356 511.249 285.356C513.461 285.356 515.169 286.84 515.169 289.262ZM511.263 287.008C510.269 287.008 509.555 287.61 509.401 288.576H513.111C512.957 287.624 512.243 287.008 511.263 287.008Z" fill="#A4A7AE"/>
<path d="M5.404 124.2C8.022 124.2 9.66 125.558 9.66 127.756C9.66 129.94 8.022 131.298 5.404 131.298H3.43V134H1.162V124.2H5.404ZM5.278 129.45C6.664 129.45 7.364 128.82 7.364 127.756C7.364 126.678 6.664 126.048 5.278 126.048H3.43V129.45H5.278ZM13.2112 127.462C13.7432 126.734 14.6392 126.356 15.8012 126.356V128.372C15.6192 128.358 15.4792 128.344 15.3112 128.344C14.1072 128.344 13.3092 129.002 13.3092 130.444V134H11.1252V126.468H13.2112V127.462ZM18.1918 125.418C17.3798 125.418 16.8338 124.886 16.8338 124.2C16.8338 123.514 17.3798 122.982 18.1918 122.982C19.0038 122.982 19.5498 123.486 19.5498 124.158C19.5498 124.886 19.0038 125.418 18.1918 125.418ZM17.0998 134V126.468H19.2838V134H17.0998ZM30.9567 126.356C32.7487 126.356 34.0367 127.392 34.0367 129.688V134H31.8527V130.024C31.8527 128.806 31.3067 128.246 30.4247 128.246C29.4447 128.246 28.7587 128.876 28.7587 130.22V134H26.5747V130.024C26.5747 128.806 26.0567 128.246 25.1467 128.246C24.1807 128.246 23.4947 128.876 23.4947 130.22V134H21.3107V126.468H23.3967V127.336C23.9567 126.692 24.7967 126.356 25.7627 126.356C26.8127 126.356 27.7087 126.762 28.2407 127.588C28.8427 126.818 29.8227 126.356 30.9567 126.356ZM39.0323 126.356C41.3283 126.356 42.6583 127.42 42.6583 129.702V134H40.6143V133.062C40.2083 133.748 39.4243 134.112 38.3183 134.112C36.5543 134.112 35.5043 133.132 35.5043 131.83C35.5043 130.5 36.4423 129.576 38.7383 129.576H40.4743C40.4743 128.638 39.9143 128.092 38.7383 128.092C37.9403 128.092 37.1143 128.358 36.5683 128.792L35.7843 127.266C36.6103 126.678 37.8283 126.356 39.0323 126.356ZM38.8643 132.642C39.5923 132.642 40.2223 132.306 40.4743 131.62V130.85H38.9763C37.9543 130.85 37.6323 131.228 37.6323 131.732C37.6323 132.278 38.0943 132.642 38.8643 132.642ZM46.721 127.462C47.253 126.734 48.149 126.356 49.311 126.356V128.372C49.129 128.358 48.989 128.344 48.821 128.344C47.617 128.344 46.819 129.002 46.819 130.444V134H44.635V126.468H46.721V127.462ZM56.2453 126.468H58.3453L54.9433 134.462C54.2153 136.282 53.1793 136.828 51.8213 136.828C51.0513 136.828 50.2113 136.576 49.7213 136.142L50.5193 134.588C50.8553 134.882 51.3173 135.064 51.7513 135.064C52.3533 135.064 52.6893 134.798 52.9833 134.126L53.0113 134.056L49.7493 126.468H52.0033L54.1173 131.578L56.2453 126.468Z" fill="#A4A7AE"/>
<rect x="800" y="308" width="150" height="150" rx="8" fill="#777777"/>
<path d="M828.896 429.104L828.576 431.696H830.656V433.44H828.368L828.048 436H826.24L826.56 433.44H824.208L823.888 436H822.096L822.416 433.44H820.32V431.696H822.624L822.96 429.104H820.864V427.36H823.168L823.488 424.8H825.28L824.96 427.36H827.312L827.632 424.8H829.424L829.104 427.36H831.184L831.2 429.104H828.896ZM824.416 431.696H826.768L827.104 429.104H824.752L824.416 431.696ZM831.932 424.8H840.908V426.48L836.748 436H833.932L837.948 426.912H834.236V428.736H831.932V424.8ZM841.854 424.8H850.83V426.48L846.67 436H843.854L847.87 426.912H844.158V428.736H841.854V424.8ZM851.775 424.8H860.751V426.48L856.591 436H853.775L857.791 426.912H854.079V428.736H851.775V424.8ZM861.697 424.8H870.673V426.48L866.513 436H863.697L867.713 426.912H864.001V428.736H861.697V424.8ZM871.619 424.8H880.595V426.48L876.435 436H873.619L877.635 426.912H873.923V428.736H871.619V424.8ZM881.541 424.8H890.517V426.48L886.357 436H883.541L887.557 426.912H883.845V428.736H881.541V424.8Z" fill="white"/>
<rect x="800" y="468" width="150" height="150" rx="8" fill="black"/>
<path d="M828.896 589.104L828.576 591.696H830.656V593.44H828.368L828.048 596H826.24L826.56 593.44H824.208L823.888 596H822.096L822.416 593.44H820.32V591.696H822.624L822.96 589.104H820.864V587.36H823.168L823.488 584.8H825.28L824.96 587.36H827.312L827.632 584.8H829.424L829.104 587.36H831.184L831.2 589.104H828.896ZM824.416 591.696H826.768L827.104 589.104H824.752L824.416 591.696ZM836.94 596.192C834.188 596.192 832.14 594.096 832.14 590.4C832.14 586.704 834.188 584.608 836.94 584.608C839.708 584.608 841.74 586.704 841.74 590.4C841.74 594.096 839.708 596.192 836.94 596.192ZM836.94 594C838.236 594 839.132 592.944 839.132 590.4C839.132 587.856 838.236 586.8 836.94 586.8C835.66 586.8 834.764 587.856 834.764 590.4C834.764 592.944 835.66 594 836.94 594ZM847.799 596.192C845.047 596.192 842.999 594.096 842.999 590.4C842.999 586.704 845.047 584.608 847.799 584.608C850.567 584.608 852.599 586.704 852.599 590.4C852.599 594.096 850.567 596.192 847.799 596.192ZM847.799 594C849.095 594 849.991 592.944 849.991 590.4C849.991 587.856 849.095 586.8 847.799 586.8C846.519 586.8 845.623 587.856 845.623 590.4C845.623 592.944 846.519 594 847.799 594ZM858.658 596.192C855.906 596.192 853.858 594.096 853.858 590.4C853.858 586.704 855.906 584.608 858.658 584.608C861.426 584.608 863.458 586.704 863.458 590.4C863.458 594.096 861.426 596.192 858.658 596.192ZM858.658 594C859.954 594 860.85 592.944 860.85 590.4C860.85 587.856 859.954 586.8 858.658 586.8C857.378 586.8 856.482 587.856 856.482 590.4C856.482 592.944 857.378 594 858.658 594ZM869.518 596.192C866.766 596.192 864.718 594.096 864.718 590.4C864.718 586.704 866.766 584.608 869.518 584.608C872.286 584.608 874.318 586.704 874.318 590.4C874.318 594.096 872.286 596.192 869.518 596.192ZM869.518 594C870.814 594 871.71 592.944 871.71 590.4C871.71 587.856 870.814 586.8 869.518 586.8C868.238 586.8 867.342 587.856 867.342 590.4C867.342 592.944 868.238 594 869.518 594ZM880.377 596.192C877.625 596.192 875.577 594.096 875.577 590.4C875.577 586.704 877.625 584.608 880.377 584.608C883.145 584.608 885.177 586.704 885.177 590.4C885.177 594.096 883.145 596.192 880.377 596.192ZM880.377 594C881.673 594 882.569 592.944 882.569 590.4C882.569 587.856 881.673 586.8 880.377 586.8C879.097 586.8 878.201 587.856 878.201 590.4C878.201 592.944 879.097 594 880.377 594ZM891.237 596.192C888.485 596.192 886.437 594.096 886.437 590.4C886.437 586.704 888.485 584.608 891.237 584.608C894.005 584.608 896.037 586.704 896.037 590.4C896.037 594.096 894.005 596.192 891.237 596.192ZM891.237 594C892.533 594 893.429 592.944 893.429 590.4C893.429 587.856 892.533 586.8 891.237 586.8C889.957 586.8 889.061 587.856 889.061 590.4C889.061 592.944 889.957 594 891.237 594Z" fill="white"/>
<defs>
<linearGradient id="paint0_linear_1069_36837" x1="395" y1="0" x2="395" y2="200" gradientUnits="userSpaceOnUse">
<stop stop-color="#064591"/>
<stop offset="1" stop-color="#1DBBF3"/>
</linearGradient>
</defs>
</svg>
